solid CADClick
facet normal -1 0.031 0
 outer loop
  vertex 3.232 -0.199 0
  vertex 3.232 -0.199 2.286
  vertex 3.239 0 0
 endloop
endfacet
facet normal -1 0.031 0
 outer loop
  vertex 3.239 0 0
  vertex 3.232 -0.199 2.286
  vertex 3.239 0 2.286
 endloop
endfacet
facet normal -1 -0.031 0
 outer loop
  vertex 3.239 0 0
  vertex 3.239 0 2.286
  vertex 3.232 0.199 0
 endloop
endfacet
facet normal -1 -0.031 0
 outer loop
  vertex 3.232 0.199 0
  vertex 3.239 0 2.286
  vertex 3.232 0.199 2.286
 endloop
endfacet
facet normal -0.992 -0.123 0
 outer loop
  vertex 3.232 0.199 0
  vertex 3.232 0.199 2.286
  vertex 3.183 0.595 0
 endloop
endfacet
facet normal -0.992 -0.123 0
 outer loop
  vertex 3.183 0.595 0
  vertex 3.232 0.199 2.286
  vertex 3.183 0.595 2.286
 endloop
endfacet
facet normal -0.97 -0.244 0
 outer loop
  vertex 3.183 0.595 0
  vertex 3.183 0.595 2.286
  vertex 3.086 0.982 0
 endloop
endfacet
facet normal -0.97 -0.244 0
 outer loop
  vertex 3.086 0.982 0
  vertex 3.183 0.595 2.286
  vertex 3.086 0.982 2.286
 endloop
endfacet
facet normal -0.932 -0.361 0
 outer loop
  vertex 3.086 0.982 0
  vertex 3.086 0.982 2.286
  vertex 2.942 1.354 0
 endloop
endfacet
facet normal -0.932 -0.361 0
 outer loop
  vertex 2.942 1.354 0
  vertex 3.086 0.982 2.286
  vertex 2.942 1.354 2.286
 endloop
endfacet
facet normal -0.881 -0.473 0
 outer loop
  vertex 2.942 1.354 0
  vertex 2.942 1.354 2.286
  vertex 2.753 1.705 0
 endloop
endfacet
facet normal -0.881 -0.473 0
 outer loop
  vertex 2.753 1.705 0
  vertex 2.942 1.354 2.286
  vertex 2.753 1.705 2.286
 endloop
endfacet
facet normal -0.816 -0.578 0
 outer loop
  vertex 2.753 1.705 0
  vertex 2.753 1.705 2.286
  vertex 2.523 2.03 0
 endloop
endfacet
facet normal -0.816 -0.578 0
 outer loop
  vertex 2.523 2.03 0
  vertex 2.753 1.705 2.286
  vertex 2.523 2.03 2.286
 endloop
endfacet
facet normal -0.739 -0.674 0
 outer loop
  vertex 2.523 2.03 0
  vertex 2.523 2.03 2.286
  vertex 2.254 2.325 0
 endloop
endfacet
facet normal -0.739 -0.674 0
 outer loop
  vertex 2.254 2.325 0
  vertex 2.523 2.03 2.286
  vertex 2.254 2.325 2.286
 endloop
endfacet
facet normal -0.651 -0.759 0
 outer loop
  vertex 2.254 2.325 0
  vertex 2.254 2.325 2.286
  vertex 1.952 2.584 0
 endloop
endfacet
facet normal -0.651 -0.759 0
 outer loop
  vertex 1.952 2.584 0
  vertex 2.254 2.325 2.286
  vertex 1.952 2.584 2.286
 endloop
endfacet
facet normal -0.552 -0.834 0
 outer loop
  vertex 1.952 2.584 0
  vertex 1.952 2.584 2.286
  vertex 1.619 2.805 0
 endloop
endfacet
facet normal -0.552 -0.834 0
 outer loop
  vertex 1.619 2.805 0
  vertex 1.952 2.584 2.286
  vertex 1.619 2.805 2.286
 endloop
endfacet
facet normal -0.446 -0.895 0
 outer loop
  vertex 1.619 2.805 0
  vertex 1.619 2.805 2.286
  vertex 1.262 2.982 0
 endloop
endfacet
facet normal -0.446 -0.895 0
 outer loop
  vertex 1.262 2.982 0
  vertex 1.619 2.805 2.286
  vertex 1.262 2.982 2.286
 endloop
endfacet
facet normal -0.332 -0.943 0
 outer loop
  vertex 1.262 2.982 0
  vertex 1.262 2.982 2.286
  vertex 0.886 3.115 0
 endloop
endfacet
facet normal -0.332 -0.943 0
 outer loop
  vertex 0.886 3.115 0
  vertex 1.262 2.982 2.286
  vertex 0.886 3.115 2.286
 endloop
endfacet
facet normal -0.214 -0.977 0
 outer loop
  vertex 0.886 3.115 0
  vertex 0.886 3.115 2.286
  vertex 0.497 3.2 0
 endloop
endfacet
facet normal -0.214 -0.977 0
 outer loop
  vertex 0.497 3.2 0
  vertex 0.886 3.115 2.286
  vertex 0.497 3.2 2.286
 endloop
endfacet
facet normal -0.092 -0.996 0
 outer loop
  vertex 0.497 3.2 0
  vertex 0.497 3.2 2.286
  vertex 0.1 3.237 0
 endloop
endfacet
facet normal -0.092 -0.996 0
 outer loop
  vertex 0.1 3.237 0
  vertex 0.497 3.2 2.286
  vertex 0.1 3.237 2.286
 endloop
endfacet
facet normal 0.031 -1 0
 outer loop
  vertex 0.1 3.237 0
  vertex 0.1 3.237 2.286
  vertex -0.299 3.225 0
 endloop
endfacet
facet normal 0.031 -1 0
 outer loop
  vertex -0.299 3.225 0
  vertex 0.1 3.237 2.286
  vertex -0.299 3.225 2.286
 endloop
endfacet
facet normal 0.153 -0.988 0
 outer loop
  vertex -0.299 3.225 0
  vertex -0.299 3.225 2.286
  vertex -0.693 3.164 0
 endloop
endfacet
facet normal 0.153 -0.988 0
 outer loop
  vertex -0.693 3.164 0
  vertex -0.299 3.225 2.286
  vertex -0.693 3.164 2.286
 endloop
endfacet
facet normal 0.274 -0.962 0
 outer loop
  vertex -0.693 3.164 0
  vertex -0.693 3.164 2.286
  vertex -1.076 3.054 0
 endloop
endfacet
facet normal 0.274 -0.962 0
 outer loop
  vertex -1.076 3.054 0
  vertex -0.693 3.164 2.286
  vertex -1.076 3.054 2.286
 endloop
endfacet
facet normal 0.39 -0.921 0
 outer loop
  vertex -1.076 3.054 0
  vertex -1.076 3.054 2.286
  vertex -1.444 2.899 0
 endloop
endfacet
facet normal 0.39 -0.921 0
 outer loop
  vertex -1.444 2.899 0
  vertex -1.076 3.054 2.286
  vertex -1.444 2.899 2.286
 endloop
endfacet
facet normal 0.5 -0.866 0
 outer loop
  vertex -1.444 2.899 0
  vertex -1.444 2.899 2.286
  vertex -1.789 2.7 0
 endloop
endfacet
facet normal 0.5 -0.866 0
 outer loop
  vertex -1.789 2.7 0
  vertex -1.444 2.899 2.286
  vertex -1.789 2.7 2.286
 endloop
endfacet
facet normal 0.603 -0.798 0
 outer loop
  vertex -1.789 2.7 0
  vertex -1.789 2.7 2.286
  vertex -2.107 2.459 0
 endloop
endfacet
facet normal 0.603 -0.798 0
 outer loop
  vertex -2.107 2.459 0
  vertex -1.789 2.7 2.286
  vertex -2.107 2.459 2.286
 endloop
endfacet
facet normal 0.696 -0.718 0
 outer loop
  vertex -2.107 2.459 0
  vertex -2.107 2.459 2.286
  vertex -2.393 2.182 0
 endloop
endfacet
facet normal 0.696 -0.718 0
 outer loop
  vertex -2.393 2.182 0
  vertex -2.107 2.459 2.286
  vertex -2.393 2.182 2.286
 endloop
endfacet
facet normal 0.779 -0.627 0
 outer loop
  vertex -2.393 2.182 0
  vertex -2.393 2.182 2.286
  vertex -2.643 1.871 0
 endloop
endfacet
facet normal 0.779 -0.627 0
 outer loop
  vertex -2.643 1.871 0
  vertex -2.393 2.182 2.286
  vertex -2.643 1.871 2.286
 endloop
endfacet
facet normal 0.85 -0.526 0
 outer loop
  vertex -2.643 1.871 0
  vertex -2.643 1.871 2.286
  vertex -2.853 1.532 0
 endloop
endfacet
facet normal 0.85 -0.526 0
 outer loop
  vertex -2.853 1.532 0
  vertex -2.643 1.871 2.286
  vertex -2.853 1.532 2.286
 endloop
endfacet
facet normal 0.908 -0.418 0
 outer loop
  vertex -2.853 1.532 0
  vertex -2.853 1.532 2.286
  vertex -3.02 1.17 0
 endloop
endfacet
facet normal 0.908 -0.418 0
 outer loop
  vertex -3.02 1.17 0
  vertex -2.853 1.532 2.286
  vertex -3.02 1.17 2.286
 endloop
endfacet
facet normal 0.953 -0.303 0
 outer loop
  vertex -3.02 1.17 0
  vertex -3.02 1.17 2.286
  vertex -3.141 0.79 0
 endloop
endfacet
facet normal 0.953 -0.303 0
 outer loop
  vertex -3.141 0.79 0
  vertex -3.02 1.17 2.286
  vertex -3.141 0.79 2.286
 endloop
endfacet
facet normal 0.983 -0.184 0
 outer loop
  vertex -3.141 0.79 0
  vertex -3.141 0.79 2.286
  vertex -3.214 0.398 0
 endloop
endfacet
facet normal 0.983 -0.184 0
 outer loop
  vertex -3.214 0.398 0
  vertex -3.141 0.79 2.286
  vertex -3.214 0.398 2.286
 endloop
endfacet
facet normal 0.998 -0.062 0
 outer loop
  vertex -3.214 0.398 0
  vertex -3.214 0.398 2.286
  vertex -3.239 0 0
 endloop
endfacet
facet normal 0.998 -0.062 -0
 outer loop
  vertex -3.239 0 0
  vertex -3.214 0.398 2.286
  vertex -3.239 -0 2.286
 endloop
endfacet
facet normal 0.998 0.062 0
 outer loop
  vertex -3.239 0 0
  vertex -3.239 -0 2.286
  vertex -3.214 -0.398 0
 endloop
endfacet
facet normal 0.998 0.062 -0
 outer loop
  vertex -3.214 -0.398 0
  vertex -3.239 -0 2.286
  vertex -3.214 -0.398 2.286
 endloop
endfacet
facet normal 0.983 0.184 -0
 outer loop
  vertex -3.214 -0.398 0
  vertex -3.214 -0.398 2.286
  vertex -3.141 -0.79 0
 endloop
endfacet
facet normal 0.983 0.184 -0
 outer loop
  vertex -3.141 -0.79 0
  vertex -3.214 -0.398 2.286
  vertex -3.141 -0.79 2.286
 endloop
endfacet
facet normal 0.953 0.303 -0
 outer loop
  vertex -3.141 -0.79 0
  vertex -3.141 -0.79 2.286
  vertex -3.02 -1.17 0
 endloop
endfacet
facet normal 0.953 0.303 -0
 outer loop
  vertex -3.02 -1.17 0
  vertex -3.141 -0.79 2.286
  vertex -3.02 -1.17 2.286
 endloop
endfacet
facet normal 0.908 0.418 -0
 outer loop
  vertex -3.02 -1.17 0
  vertex -3.02 -1.17 2.286
  vertex -2.853 -1.532 0
 endloop
endfacet
facet normal 0.908 0.418 -0
 outer loop
  vertex -2.853 -1.532 0
  vertex -3.02 -1.17 2.286
  vertex -2.853 -1.532 2.286
 endloop
endfacet
facet normal 0.85 0.526 -0
 outer loop
  vertex -2.853 -1.532 0
  vertex -2.853 -1.532 2.286
  vertex -2.643 -1.871 0
 endloop
endfacet
facet normal 0.85 0.526 -0
 outer loop
  vertex -2.643 -1.871 0
  vertex -2.853 -1.532 2.286
  vertex -2.643 -1.871 2.286
 endloop
endfacet
facet normal 0.779 0.627 -0
 outer loop
  vertex -2.643 -1.871 0
  vertex -2.643 -1.871 2.286
  vertex -2.393 -2.182 0
 endloop
endfacet
facet normal 0.779 0.627 -0
 outer loop
  vertex -2.393 -2.182 0
  vertex -2.643 -1.871 2.286
  vertex -2.393 -2.182 2.286
 endloop
endfacet
facet normal 0.696 0.718 -0
 outer loop
  vertex -2.393 -2.182 0
  vertex -2.393 -2.182 2.286
  vertex -2.107 -2.459 0
 endloop
endfacet
facet normal 0.696 0.718 -0
 outer loop
  vertex -2.107 -2.459 0
  vertex -2.393 -2.182 2.286
  vertex -2.107 -2.459 2.286
 endloop
endfacet
facet normal 0.603 0.798 -0
 outer loop
  vertex -2.107 -2.459 0
  vertex -2.107 -2.459 2.286
  vertex -1.789 -2.7 0
 endloop
endfacet
facet normal 0.603 0.798 -0
 outer loop
  vertex -1.789 -2.7 0
  vertex -2.107 -2.459 2.286
  vertex -1.789 -2.7 2.286
 endloop
endfacet
facet normal 0.5 0.866 -0
 outer loop
  vertex -1.789 -2.7 0
  vertex -1.789 -2.7 2.286
  vertex -1.444 -2.899 0
 endloop
endfacet
facet normal 0.5 0.866 -0
 outer loop
  vertex -1.444 -2.899 0
  vertex -1.789 -2.7 2.286
  vertex -1.444 -2.899 2.286
 endloop
endfacet
facet normal 0.39 0.921 -0
 outer loop
  vertex -1.444 -2.899 0
  vertex -1.444 -2.899 2.286
  vertex -1.076 -3.054 0
 endloop
endfacet
facet normal 0.39 0.921 -0
 outer loop
  vertex -1.076 -3.054 0
  vertex -1.444 -2.899 2.286
  vertex -1.076 -3.054 2.286
 endloop
endfacet
facet normal 0.274 0.962 -0
 outer loop
  vertex -1.076 -3.054 0
  vertex -1.076 -3.054 2.286
  vertex -0.693 -3.164 0
 endloop
endfacet
facet normal 0.274 0.962 -0
 outer loop
  vertex -0.693 -3.164 0
  vertex -1.076 -3.054 2.286
  vertex -0.693 -3.164 2.286
 endloop
endfacet
facet normal 0.153 0.988 -0
 outer loop
  vertex -0.693 -3.164 0
  vertex -0.693 -3.164 2.286
  vertex -0.299 -3.225 0
 endloop
endfacet
facet normal 0.153 0.988 -0
 outer loop
  vertex -0.299 -3.225 0
  vertex -0.693 -3.164 2.286
  vertex -0.299 -3.225 2.286
 endloop
endfacet
facet normal 0.031 1 -0
 outer loop
  vertex -0.299 -3.225 0
  vertex -0.299 -3.225 2.286
  vertex 0.1 -3.237 0
 endloop
endfacet
facet normal 0.031 1 -0
 outer loop
  vertex 0.1 -3.237 0
  vertex -0.299 -3.225 2.286
  vertex 0.1 -3.237 2.286
 endloop
endfacet
facet normal -0.092 0.996 0
 outer loop
  vertex 0.1 -3.237 0
  vertex 0.1 -3.237 2.286
  vertex 0.497 -3.2 0
 endloop
endfacet
facet normal -0.092 0.996 0
 outer loop
  vertex 0.497 -3.2 0
  vertex 0.1 -3.237 2.286
  vertex 0.497 -3.2 2.286
 endloop
endfacet
facet normal -0.214 0.977 0
 outer loop
  vertex 0.497 -3.2 0
  vertex 0.497 -3.2 2.286
  vertex 0.886 -3.115 0
 endloop
endfacet
facet normal -0.214 0.977 0
 outer loop
  vertex 0.886 -3.115 0
  vertex 0.497 -3.2 2.286
  vertex 0.886 -3.115 2.286
 endloop
endfacet
facet normal -0.332 0.943 0
 outer loop
  vertex 0.886 -3.115 0
  vertex 0.886 -3.115 2.286
  vertex 1.262 -2.982 0
 endloop
endfacet
facet normal -0.332 0.943 0
 outer loop
  vertex 1.262 -2.982 0
  vertex 0.886 -3.115 2.286
  vertex 1.262 -2.982 2.286
 endloop
endfacet
facet normal -0.446 0.895 0
 outer loop
  vertex 1.262 -2.982 0
  vertex 1.262 -2.982 2.286
  vertex 1.619 -2.805 0
 endloop
endfacet
facet normal -0.446 0.895 0
 outer loop
  vertex 1.619 -2.805 0
  vertex 1.262 -2.982 2.286
  vertex 1.619 -2.805 2.286
 endloop
endfacet
facet normal -0.552 0.834 0
 outer loop
  vertex 1.619 -2.805 0
  vertex 1.619 -2.805 2.286
  vertex 1.952 -2.584 0
 endloop
endfacet
facet normal -0.552 0.834 0
 outer loop
  vertex 1.952 -2.584 0
  vertex 1.619 -2.805 2.286
  vertex 1.952 -2.584 2.286
 endloop
endfacet
facet normal -0.651 0.759 0
 outer loop
  vertex 1.952 -2.584 0
  vertex 1.952 -2.584 2.286
  vertex 2.254 -2.325 0
 endloop
endfacet
facet normal -0.651 0.759 0
 outer loop
  vertex 2.254 -2.325 0
  vertex 1.952 -2.584 2.286
  vertex 2.254 -2.325 2.286
 endloop
endfacet
facet normal -0.739 0.674 0
 outer loop
  vertex 2.254 -2.325 0
  vertex 2.254 -2.325 2.286
  vertex 2.523 -2.03 0
 endloop
endfacet
facet normal -0.739 0.674 0
 outer loop
  vertex 2.523 -2.03 0
  vertex 2.254 -2.325 2.286
  vertex 2.523 -2.03 2.286
 endloop
endfacet
facet normal -0.816 0.578 0
 outer loop
  vertex 2.523 -2.03 0
  vertex 2.523 -2.03 2.286
  vertex 2.753 -1.705 0
 endloop
endfacet
facet normal -0.816 0.578 0
 outer loop
  vertex 2.753 -1.705 0
  vertex 2.523 -2.03 2.286
  vertex 2.753 -1.705 2.286
 endloop
endfacet
facet normal -0.881 0.473 0
 outer loop
  vertex 2.753 -1.705 0
  vertex 2.753 -1.705 2.286
  vertex 2.942 -1.354 0
 endloop
endfacet
facet normal -0.881 0.473 0
 outer loop
  vertex 2.942 -1.354 0
  vertex 2.753 -1.705 2.286
  vertex 2.942 -1.354 2.286
 endloop
endfacet
facet normal -0.932 0.361 0
 outer loop
  vertex 2.942 -1.354 0
  vertex 2.942 -1.354 2.286
  vertex 3.086 -0.982 0
 endloop
endfacet
facet normal -0.932 0.361 0
 outer loop
  vertex 3.086 -0.982 0
  vertex 2.942 -1.354 2.286
  vertex 3.086 -0.982 2.286
 endloop
endfacet
facet normal -0.97 0.244 0
 outer loop
  vertex 3.086 -0.982 0
  vertex 3.086 -0.982 2.286
  vertex 3.183 -0.595 0
 endloop
endfacet
facet normal -0.97 0.244 0
 outer loop
  vertex 3.183 -0.595 0
  vertex 3.086 -0.982 2.286
  vertex 3.183 -0.595 2.286
 endloop
endfacet
facet normal -0.992 0.123 0
 outer loop
  vertex 3.183 -0.595 0
  vertex 3.183 -0.595 2.286
  vertex 3.232 -0.199 0
 endloop
endfacet
facet normal -0.992 0.123 0
 outer loop
  vertex 3.232 -0.199 0
  vertex 3.183 -0.595 2.286
  vertex 3.232 -0.199 2.286
 endloop
endfacet
facet normal 1 0.031 -0
 outer loop
  vertex 7.859 0.485 0
  vertex 7.859 0.485 2.286
  vertex 7.874 0 0
 endloop
endfacet
facet normal 1 0.031 -0
 outer loop
  vertex 7.874 0 0
  vertex 7.859 0.485 2.286
  vertex 7.874 0 2.286
 endloop
endfacet
facet normal 1 -0.031 0
 outer loop
  vertex 7.874 0 0
  vertex 7.874 0 2.286
  vertex 7.859 -0.485 0
 endloop
endfacet
facet normal 1 -0.031 0
 outer loop
  vertex 7.859 -0.485 0
  vertex 7.874 0 2.286
  vertex 7.859 -0.485 2.286
 endloop
endfacet
facet normal 0.992 -0.123 0
 outer loop
  vertex 7.859 -0.485 0
  vertex 7.859 -0.485 2.286
  vertex 7.74 -1.447 0
 endloop
endfacet
facet normal 0.992 -0.123 0
 outer loop
  vertex 7.74 -1.447 0
  vertex 7.859 -0.485 2.286
  vertex 7.74 -1.447 2.286
 endloop
endfacet
facet normal 0.97 -0.244 0
 outer loop
  vertex 7.74 -1.447 0
  vertex 7.74 -1.447 2.286
  vertex 7.503 -2.387 0
 endloop
endfacet
facet normal 0.97 -0.244 0
 outer loop
  vertex 7.503 -2.387 0
  vertex 7.74 -1.447 2.286
  vertex 7.503 -2.387 2.286
 endloop
endfacet
facet normal 0.932 -0.361 0
 outer loop
  vertex 7.503 -2.387 0
  vertex 7.503 -2.387 2.286
  vertex 7.153 -3.291 0
 endloop
endfacet
facet normal 0.932 -0.361 0
 outer loop
  vertex 7.153 -3.291 0
  vertex 7.503 -2.387 2.286
  vertex 7.153 -3.291 2.286
 endloop
endfacet
facet normal 0.881 -0.473 0
 outer loop
  vertex 7.153 -3.291 0
  vertex 7.153 -3.291 2.286
  vertex 6.695 -4.145 0
 endloop
endfacet
facet normal 0.881 -0.473 0
 outer loop
  vertex 6.695 -4.145 0
  vertex 7.153 -3.291 2.286
  vertex 6.695 -4.145 2.286
 endloop
endfacet
facet normal 0.816 -0.578 0
 outer loop
  vertex 6.695 -4.145 0
  vertex 6.695 -4.145 2.286
  vertex 6.134 -4.936 0
 endloop
endfacet
facet normal 0.816 -0.578 0
 outer loop
  vertex 6.134 -4.936 0
  vertex 6.695 -4.145 2.286
  vertex 6.134 -4.936 2.286
 endloop
endfacet
facet normal 0.739 -0.674 0
 outer loop
  vertex 6.134 -4.936 0
  vertex 6.134 -4.936 2.286
  vertex 5.481 -5.653 0
 endloop
endfacet
facet normal 0.739 -0.674 0
 outer loop
  vertex 5.481 -5.653 0
  vertex 6.134 -4.936 2.286
  vertex 5.481 -5.653 2.286
 endloop
endfacet
facet normal 0.651 -0.759 0
 outer loop
  vertex 5.481 -5.653 0
  vertex 5.481 -5.653 2.286
  vertex 4.745 -6.284 0
 endloop
endfacet
facet normal 0.651 -0.759 0
 outer loop
  vertex 4.745 -6.284 0
  vertex 5.481 -5.653 2.286
  vertex 4.745 -6.284 2.286
 endloop
endfacet
facet normal 0.552 -0.834 0
 outer loop
  vertex 4.745 -6.284 0
  vertex 4.745 -6.284 2.286
  vertex 3.937 -6.819 0
 endloop
endfacet
facet normal 0.552 -0.834 0
 outer loop
  vertex 3.937 -6.819 0
  vertex 4.745 -6.284 2.286
  vertex 3.937 -6.819 2.286
 endloop
endfacet
facet normal 0.446 -0.895 0
 outer loop
  vertex 3.937 -6.819 0
  vertex 3.937 -6.819 2.286
  vertex 3.069 -7.251 0
 endloop
endfacet
facet normal 0.446 -0.895 0
 outer loop
  vertex 3.069 -7.251 0
  vertex 3.937 -6.819 2.286
  vertex 3.069 -7.251 2.286
 endloop
endfacet
facet normal 0.332 -0.943 0
 outer loop
  vertex 3.069 -7.251 0
  vertex 3.069 -7.251 2.286
  vertex 2.155 -7.573 0
 endloop
endfacet
facet normal 0.332 -0.943 0
 outer loop
  vertex 2.155 -7.573 0
  vertex 3.069 -7.251 2.286
  vertex 2.155 -7.573 2.286
 endloop
endfacet
facet normal 0.214 -0.977 0
 outer loop
  vertex 2.155 -7.573 0
  vertex 2.155 -7.573 2.286
  vertex 1.208 -7.781 0
 endloop
endfacet
facet normal 0.214 -0.977 0
 outer loop
  vertex 1.208 -7.781 0
  vertex 2.155 -7.573 2.286
  vertex 1.208 -7.781 2.286
 endloop
endfacet
facet normal 0.092 -0.996 0
 outer loop
  vertex 1.208 -7.781 0
  vertex 1.208 -7.781 2.286
  vertex 0.242 -7.87 0
 endloop
endfacet
facet normal 0.092 -0.996 0
 outer loop
  vertex 0.242 -7.87 0
  vertex 1.208 -7.781 2.286
  vertex 0.242 -7.87 2.286
 endloop
endfacet
facet normal -0.031 -1 0
 outer loop
  vertex 0.242 -7.87 0
  vertex 0.242 -7.87 2.286
  vertex -0.727 -7.84 0
 endloop
endfacet
facet normal -0.031 -1 0
 outer loop
  vertex -0.727 -7.84 0
  vertex 0.242 -7.87 2.286
  vertex -0.727 -7.84 2.286
 endloop
endfacet
facet normal -0.153 -0.988 0
 outer loop
  vertex -0.727 -7.84 0
  vertex -0.727 -7.84 2.286
  vertex -1.685 -7.692 0
 endloop
endfacet
facet normal -0.153 -0.988 0
 outer loop
  vertex -1.685 -7.692 0
  vertex -0.727 -7.84 2.286
  vertex -1.685 -7.692 2.286
 endloop
endfacet
facet normal -0.274 -0.962 0
 outer loop
  vertex -1.685 -7.692 0
  vertex -1.685 -7.692 2.286
  vertex -2.617 -7.426 0
 endloop
endfacet
facet normal -0.274 -0.962 0
 outer loop
  vertex -2.617 -7.426 0
  vertex -1.685 -7.692 2.286
  vertex -2.617 -7.426 2.286
 endloop
endfacet
facet normal -0.39 -0.921 0
 outer loop
  vertex -2.617 -7.426 0
  vertex -2.617 -7.426 2.286
  vertex -3.51 -7.049 0
 endloop
endfacet
facet normal -0.39 -0.921 0
 outer loop
  vertex -3.51 -7.049 0
  vertex -2.617 -7.426 2.286
  vertex -3.51 -7.049 2.286
 endloop
endfacet
facet normal -0.5 -0.866 0
 outer loop
  vertex -3.51 -7.049 0
  vertex -3.51 -7.049 2.286
  vertex -4.349 -6.564 0
 endloop
endfacet
facet normal -0.5 -0.866 0
 outer loop
  vertex -4.349 -6.564 0
  vertex -3.51 -7.049 2.286
  vertex -4.349 -6.564 2.286
 endloop
endfacet
facet normal -0.603 -0.798 0
 outer loop
  vertex -4.349 -6.564 0
  vertex -4.349 -6.564 2.286
  vertex -5.123 -5.98 0
 endloop
endfacet
facet normal -0.603 -0.798 0
 outer loop
  vertex -5.123 -5.98 0
  vertex -4.349 -6.564 2.286
  vertex -5.123 -5.98 2.286
 endloop
endfacet
facet normal -0.696 -0.718 0
 outer loop
  vertex -5.123 -5.98 0
  vertex -5.123 -5.98 2.286
  vertex -5.819 -5.305 0
 endloop
endfacet
facet normal -0.696 -0.718 0
 outer loop
  vertex -5.819 -5.305 0
  vertex -5.123 -5.98 2.286
  vertex -5.819 -5.305 2.286
 endloop
endfacet
facet normal -0.779 -0.627 0
 outer loop
  vertex -5.819 -5.305 0
  vertex -5.819 -5.305 2.286
  vertex -6.427 -4.549 0
 endloop
endfacet
facet normal -0.779 -0.627 0
 outer loop
  vertex -6.427 -4.549 0
  vertex -5.819 -5.305 2.286
  vertex -6.427 -4.549 2.286
 endloop
endfacet
facet normal -0.85 -0.526 0
 outer loop
  vertex -6.427 -4.549 0
  vertex -6.427 -4.549 2.286
  vertex -6.937 -3.725 0
 endloop
endfacet
facet normal -0.85 -0.526 0
 outer loop
  vertex -6.937 -3.725 0
  vertex -6.427 -4.549 2.286
  vertex -6.937 -3.725 2.286
 endloop
endfacet
facet normal -0.908 -0.418 0
 outer loop
  vertex -6.937 -3.725 0
  vertex -6.937 -3.725 2.286
  vertex -7.342 -2.844 0
 endloop
endfacet
facet normal -0.908 -0.418 0
 outer loop
  vertex -7.342 -2.844 0
  vertex -6.937 -3.725 2.286
  vertex -7.342 -2.844 2.286
 endloop
endfacet
facet normal -0.953 -0.303 0
 outer loop
  vertex -7.342 -2.844 0
  vertex -7.342 -2.844 2.286
  vertex -7.636 -1.921 0
 endloop
endfacet
facet normal -0.953 -0.303 0
 outer loop
  vertex -7.636 -1.921 0
  vertex -7.342 -2.844 2.286
  vertex -7.636 -1.921 2.286
 endloop
endfacet
facet normal -0.983 -0.184 0
 outer loop
  vertex -7.636 -1.921 0
  vertex -7.636 -1.921 2.286
  vertex -7.814 -0.968 0
 endloop
endfacet
facet normal -0.983 -0.184 0
 outer loop
  vertex -7.814 -0.968 0
  vertex -7.636 -1.921 2.286
  vertex -7.814 -0.968 2.286
 endloop
endfacet
facet normal -0.998 -0.062 0
 outer loop
  vertex -7.814 -0.968 0
  vertex -7.814 -0.968 2.286
  vertex -7.874 -0 0
 endloop
endfacet
facet normal -0.998 -0.062 0
 outer loop
  vertex -7.874 -0 0
  vertex -7.814 -0.968 2.286
  vertex -7.874 0 2.286
 endloop
endfacet
facet normal -0.998 0.062 -0
 outer loop
  vertex -7.874 -0 0
  vertex -7.874 0 2.286
  vertex -7.814 0.968 0
 endloop
endfacet
facet normal -0.998 0.062 0
 outer loop
  vertex -7.814 0.968 0
  vertex -7.874 0 2.286
  vertex -7.814 0.968 2.286
 endloop
endfacet
facet normal -0.983 0.184 0
 outer loop
  vertex -7.814 0.968 0
  vertex -7.814 0.968 2.286
  vertex -7.636 1.921 0
 endloop
endfacet
facet normal -0.983 0.184 0
 outer loop
  vertex -7.636 1.921 0
  vertex -7.814 0.968 2.286
  vertex -7.636 1.921 2.286
 endloop
endfacet
facet normal -0.953 0.303 0
 outer loop
  vertex -7.636 1.921 0
  vertex -7.636 1.921 2.286
  vertex -7.342 2.844 0
 endloop
endfacet
facet normal -0.953 0.303 0
 outer loop
  vertex -7.342 2.844 0
  vertex -7.636 1.921 2.286
  vertex -7.342 2.844 2.286
 endloop
endfacet
facet normal -0.908 0.418 0
 outer loop
  vertex -7.342 2.844 0
  vertex -7.342 2.844 2.286
  vertex -6.937 3.725 0
 endloop
endfacet
facet normal -0.908 0.418 0
 outer loop
  vertex -6.937 3.725 0
  vertex -7.342 2.844 2.286
  vertex -6.937 3.725 2.286
 endloop
endfacet
facet normal -0.85 0.526 0
 outer loop
  vertex -6.937 3.725 0
  vertex -6.937 3.725 2.286
  vertex -6.427 4.549 0
 endloop
endfacet
facet normal -0.85 0.526 0
 outer loop
  vertex -6.427 4.549 0
  vertex -6.937 3.725 2.286
  vertex -6.427 4.549 2.286
 endloop
endfacet
facet normal -0.779 0.627 0
 outer loop
  vertex -6.427 4.549 0
  vertex -6.427 4.549 2.286
  vertex -5.819 5.305 0
 endloop
endfacet
facet normal -0.779 0.627 0
 outer loop
  vertex -5.819 5.305 0
  vertex -6.427 4.549 2.286
  vertex -5.819 5.305 2.286
 endloop
endfacet
facet normal -0.696 0.718 0
 outer loop
  vertex -5.819 5.305 0
  vertex -5.819 5.305 2.286
  vertex -5.123 5.98 0
 endloop
endfacet
facet normal -0.696 0.718 0
 outer loop
  vertex -5.123 5.98 0
  vertex -5.819 5.305 2.286
  vertex -5.123 5.98 2.286
 endloop
endfacet
facet normal -0.603 0.798 0
 outer loop
  vertex -5.123 5.98 0
  vertex -5.123 5.98 2.286
  vertex -4.349 6.564 0
 endloop
endfacet
facet normal -0.603 0.798 0
 outer loop
  vertex -4.349 6.564 0
  vertex -5.123 5.98 2.286
  vertex -4.349 6.564 2.286
 endloop
endfacet
facet normal -0.5 0.866 0
 outer loop
  vertex -4.349 6.564 0
  vertex -4.349 6.564 2.286
  vertex -3.51 7.049 0
 endloop
endfacet
facet normal -0.5 0.866 0
 outer loop
  vertex -3.51 7.049 0
  vertex -4.349 6.564 2.286
  vertex -3.51 7.049 2.286
 endloop
endfacet
facet normal -0.39 0.921 0
 outer loop
  vertex -3.51 7.049 0
  vertex -3.51 7.049 2.286
  vertex -2.617 7.426 0
 endloop
endfacet
facet normal -0.39 0.921 0
 outer loop
  vertex -2.617 7.426 0
  vertex -3.51 7.049 2.286
  vertex -2.617 7.426 2.286
 endloop
endfacet
facet normal -0.274 0.962 0
 outer loop
  vertex -2.617 7.426 0
  vertex -2.617 7.426 2.286
  vertex -1.685 7.692 0
 endloop
endfacet
facet normal -0.274 0.962 0
 outer loop
  vertex -1.685 7.692 0
  vertex -2.617 7.426 2.286
  vertex -1.685 7.692 2.286
 endloop
endfacet
facet normal -0.153 0.988 0
 outer loop
  vertex -1.685 7.692 0
  vertex -1.685 7.692 2.286
  vertex -0.727 7.84 0
 endloop
endfacet
facet normal -0.153 0.988 0
 outer loop
  vertex -0.727 7.84 0
  vertex -1.685 7.692 2.286
  vertex -0.727 7.84 2.286
 endloop
endfacet
facet normal -0.031 1 0
 outer loop
  vertex -0.727 7.84 0
  vertex -0.727 7.84 2.286
  vertex 0.242 7.87 0
 endloop
endfacet
facet normal -0.031 1 0
 outer loop
  vertex 0.242 7.87 0
  vertex -0.727 7.84 2.286
  vertex 0.242 7.87 2.286
 endloop
endfacet
facet normal 0.092 0.996 -0
 outer loop
  vertex 0.242 7.87 0
  vertex 0.242 7.87 2.286
  vertex 1.208 7.781 0
 endloop
endfacet
facet normal 0.092 0.996 -0
 outer loop
  vertex 1.208 7.781 0
  vertex 0.242 7.87 2.286
  vertex 1.208 7.781 2.286
 endloop
endfacet
facet normal 0.214 0.977 -0
 outer loop
  vertex 1.208 7.781 0
  vertex 1.208 7.781 2.286
  vertex 2.155 7.573 0
 endloop
endfacet
facet normal 0.214 0.977 -0
 outer loop
  vertex 2.155 7.573 0
  vertex 1.208 7.781 2.286
  vertex 2.155 7.573 2.286
 endloop
endfacet
facet normal 0.332 0.943 -0
 outer loop
  vertex 2.155 7.573 0
  vertex 2.155 7.573 2.286
  vertex 3.069 7.251 0
 endloop
endfacet
facet normal 0.332 0.943 -0
 outer loop
  vertex 3.069 7.251 0
  vertex 2.155 7.573 2.286
  vertex 3.069 7.251 2.286
 endloop
endfacet
facet normal 0.446 0.895 -0
 outer loop
  vertex 3.069 7.251 0
  vertex 3.069 7.251 2.286
  vertex 3.937 6.819 0
 endloop
endfacet
facet normal 0.446 0.895 -0
 outer loop
  vertex 3.937 6.819 0
  vertex 3.069 7.251 2.286
  vertex 3.937 6.819 2.286
 endloop
endfacet
facet normal 0.552 0.834 -0
 outer loop
  vertex 3.937 6.819 0
  vertex 3.937 6.819 2.286
  vertex 4.745 6.284 0
 endloop
endfacet
facet normal 0.552 0.834 -0
 outer loop
  vertex 4.745 6.284 0
  vertex 3.937 6.819 2.286
  vertex 4.745 6.284 2.286
 endloop
endfacet
facet normal 0.651 0.759 -0
 outer loop
  vertex 4.745 6.284 0
  vertex 4.745 6.284 2.286
  vertex 5.481 5.653 0
 endloop
endfacet
facet normal 0.651 0.759 -0
 outer loop
  vertex 5.481 5.653 0
  vertex 4.745 6.284 2.286
  vertex 5.481 5.653 2.286
 endloop
endfacet
facet normal 0.739 0.674 -0
 outer loop
  vertex 5.481 5.653 0
  vertex 5.481 5.653 2.286
  vertex 6.134 4.936 0
 endloop
endfacet
facet normal 0.739 0.674 -0
 outer loop
  vertex 6.134 4.936 0
  vertex 5.481 5.653 2.286
  vertex 6.134 4.936 2.286
 endloop
endfacet
facet normal 0.816 0.578 -0
 outer loop
  vertex 6.134 4.936 0
  vertex 6.134 4.936 2.286
  vertex 6.695 4.145 0
 endloop
endfacet
facet normal 0.816 0.578 -0
 outer loop
  vertex 6.695 4.145 0
  vertex 6.134 4.936 2.286
  vertex 6.695 4.145 2.286
 endloop
endfacet
facet normal 0.881 0.473 -0
 outer loop
  vertex 6.695 4.145 0
  vertex 6.695 4.145 2.286
  vertex 7.153 3.291 0
 endloop
endfacet
facet normal 0.881 0.473 -0
 outer loop
  vertex 7.153 3.291 0
  vertex 6.695 4.145 2.286
  vertex 7.153 3.291 2.286
 endloop
endfacet
facet normal 0.932 0.361 -0
 outer loop
  vertex 7.153 3.291 0
  vertex 7.153 3.291 2.286
  vertex 7.503 2.387 0
 endloop
endfacet
facet normal 0.932 0.361 -0
 outer loop
  vertex 7.503 2.387 0
  vertex 7.153 3.291 2.286
  vertex 7.503 2.387 2.286
 endloop
endfacet
facet normal 0.97 0.244 -0
 outer loop
  vertex 7.503 2.387 0
  vertex 7.503 2.387 2.286
  vertex 7.74 1.447 0
 endloop
endfacet
facet normal 0.97 0.244 -0
 outer loop
  vertex 7.74 1.447 0
  vertex 7.503 2.387 2.286
  vertex 7.74 1.447 2.286
 endloop
endfacet
facet normal 0.992 0.123 -0
 outer loop
  vertex 7.74 1.447 0
  vertex 7.74 1.447 2.286
  vertex 7.859 0.485 0
 endloop
endfacet
facet normal 0.992 0.123 -0
 outer loop
  vertex 7.859 0.485 0
  vertex 7.74 1.447 2.286
  vertex 7.859 0.485 2.286
 endloop
endfacet
facet normal 0 0 -1
 outer loop
  vertex 3.232 -0.199 0
  vertex 3.239 0 0
  vertex 7.874 0 0
 endloop
endfacet
facet normal 0 0 -1
 outer loop
  vertex 7.874 0 0
  vertex 3.239 0 0
  vertex 3.232 0.199 0
 endloop
endfacet
facet normal 0 0 -1
 outer loop
  vertex 7.874 0 0
  vertex 3.232 0.199 0
  vertex 7.859 0.485 0
 endloop
endfacet
facet normal -0 0 -1
 outer loop
  vertex 7.859 0.485 0
  vertex 3.232 0.199 0
  vertex 3.183 0.595 0
 endloop
endfacet
facet normal 0 0 -1
 outer loop
  vertex 7.859 0.485 0
  vertex 3.183 0.595 0
  vertex 7.74 1.447 0
 endloop
endfacet
facet normal 0 0 -1
 outer loop
  vertex 7.74 1.447 0
  vertex 3.183 0.595 0
  vertex 3.086 0.982 0
 endloop
endfacet
facet normal -0 0 -1
 outer loop
  vertex 7.74 1.447 0
  vertex 3.086 0.982 0
  vertex 7.503 2.387 0
 endloop
endfacet
facet normal 0 0 -1
 outer loop
  vertex 7.503 2.387 0
  vertex 3.086 0.982 0
  vertex 2.942 1.354 0
 endloop
endfacet
facet normal -0 0 -1
 outer loop
  vertex 7.503 2.387 0
  vertex 2.942 1.354 0
  vertex 7.153 3.291 0
 endloop
endfacet
facet normal 0 0 -1
 outer loop
  vertex 7.153 3.291 0
  vertex 2.942 1.354 0
  vertex 2.753 1.705 0
 endloop
endfacet
facet normal -0 0 -1
 outer loop
  vertex 7.153 3.291 0
  vertex 2.753 1.705 0
  vertex 6.695 4.145 0
 endloop
endfacet
facet normal 0 0 -1
 outer loop
  vertex 6.695 4.145 0
  vertex 2.753 1.705 0
  vertex 2.523 2.03 0
 endloop
endfacet
facet normal -0 0 -1
 outer loop
  vertex 6.695 4.145 0
  vertex 2.523 2.03 0
  vertex 6.134 4.936 0
 endloop
endfacet
facet normal 0 0 -1
 outer loop
  vertex 6.134 4.936 0
  vertex 2.523 2.03 0
  vertex 2.254 2.325 0
 endloop
endfacet
facet normal -0 0 -1
 outer loop
  vertex 6.134 4.936 0
  vertex 2.254 2.325 0
  vertex 5.481 5.653 0
 endloop
endfacet
facet normal 0 0 -1
 outer loop
  vertex 5.481 5.653 0
  vertex 2.254 2.325 0
  vertex 1.952 2.584 0
 endloop
endfacet
facet normal -0 0 -1
 outer loop
  vertex 5.481 5.653 0
  vertex 1.952 2.584 0
  vertex 4.745 6.284 0
 endloop
endfacet
facet normal 0 0 -1
 outer loop
  vertex 4.745 6.284 0
  vertex 1.952 2.584 0
  vertex 1.619 2.805 0
 endloop
endfacet
facet normal -0 0 -1
 outer loop
  vertex 4.745 6.284 0
  vertex 1.619 2.805 0
  vertex 3.937 6.819 0
 endloop
endfacet
facet normal 0 0 -1
 outer loop
  vertex 3.937 6.819 0
  vertex 1.619 2.805 0
  vertex 1.262 2.982 0
 endloop
endfacet
facet normal -0 0 -1
 outer loop
  vertex 3.937 6.819 0
  vertex 1.262 2.982 0
  vertex 3.069 7.251 0
 endloop
endfacet
facet normal 0 0 -1
 outer loop
  vertex 3.069 7.251 0
  vertex 1.262 2.982 0
  vertex 0.886 3.115 0
 endloop
endfacet
facet normal -0 0 -1
 outer loop
  vertex 3.069 7.251 0
  vertex 0.886 3.115 0
  vertex 2.155 7.573 0
 endloop
endfacet
facet normal 0 0 -1
 outer loop
  vertex 2.155 7.573 0
  vertex 0.886 3.115 0
  vertex 0.497 3.2 0
 endloop
endfacet
facet normal -0 0 -1
 outer loop
  vertex 2.155 7.573 0
  vertex 0.497 3.2 0
  vertex 1.208 7.781 0
 endloop
endfacet
facet normal 0 0 -1
 outer loop
  vertex 1.208 7.781 0
  vertex 0.497 3.2 0
  vertex 0.1 3.237 0
 endloop
endfacet
facet normal -0 0 -1
 outer loop
  vertex 1.208 7.781 0
  vertex 0.1 3.237 0
  vertex 0.242 7.87 0
 endloop
endfacet
facet normal 0 0 -1
 outer loop
  vertex 0.242 7.87 0
  vertex 0.1 3.237 0
  vertex -0.727 7.84 0
 endloop
endfacet
facet normal -0 0 -1
 outer loop
  vertex 0.1 3.237 0
  vertex -0.299 3.225 0
  vertex -0.727 7.84 0
 endloop
endfacet
facet normal 0 -0 -1
 outer loop
  vertex -0.727 7.84 0
  vertex -0.299 3.225 0
  vertex -1.685 7.692 0
 endloop
endfacet
facet normal -0 0 -1
 outer loop
  vertex -0.299 3.225 0
  vertex -0.693 3.164 0
  vertex -1.685 7.692 0
 endloop
endfacet
facet normal 0 -0 -1
 outer loop
  vertex -1.685 7.692 0
  vertex -0.693 3.164 0
  vertex -2.617 7.426 0
 endloop
endfacet
facet normal -0 0 -1
 outer loop
  vertex -0.693 3.164 0
  vertex -1.076 3.054 0
  vertex -2.617 7.426 0
 endloop
endfacet
facet normal 0 -0 -1
 outer loop
  vertex -2.617 7.426 0
  vertex -1.076 3.054 0
  vertex -3.51 7.049 0
 endloop
endfacet
facet normal -0 0 -1
 outer loop
  vertex -1.076 3.054 0
  vertex -1.444 2.899 0
  vertex -3.51 7.049 0
 endloop
endfacet
facet normal 0 -0 -1
 outer loop
  vertex -3.51 7.049 0
  vertex -1.444 2.899 0
  vertex -4.349 6.564 0
 endloop
endfacet
facet normal -0 0 -1
 outer loop
  vertex -1.444 2.899 0
  vertex -1.789 2.7 0
  vertex -4.349 6.564 0
 endloop
endfacet
facet normal 0 -0 -1
 outer loop
  vertex -4.349 6.564 0
  vertex -1.789 2.7 0
  vertex -5.123 5.98 0
 endloop
endfacet
facet normal -0 0 -1
 outer loop
  vertex -1.789 2.7 0
  vertex -2.107 2.459 0
  vertex -5.123 5.98 0
 endloop
endfacet
facet normal 0 -0 -1
 outer loop
  vertex -5.123 5.98 0
  vertex -2.107 2.459 0
  vertex -5.819 5.305 0
 endloop
endfacet
facet normal -0 0 -1
 outer loop
  vertex -2.107 2.459 0
  vertex -2.393 2.182 0
  vertex -5.819 5.305 0
 endloop
endfacet
facet normal 0 -0 -1
 outer loop
  vertex -5.819 5.305 0
  vertex -2.393 2.182 0
  vertex -6.427 4.549 0
 endloop
endfacet
facet normal -0 0 -1
 outer loop
  vertex -2.393 2.182 0
  vertex -2.643 1.871 0
  vertex -6.427 4.549 0
 endloop
endfacet
facet normal 0 -0 -1
 outer loop
  vertex -6.427 4.549 0
  vertex -2.643 1.871 0
  vertex -6.937 3.725 0
 endloop
endfacet
facet normal -0 0 -1
 outer loop
  vertex -2.643 1.871 0
  vertex -2.853 1.532 0
  vertex -6.937 3.725 0
 endloop
endfacet
facet normal 0 -0 -1
 outer loop
  vertex -6.937 3.725 0
  vertex -2.853 1.532 0
  vertex -7.342 2.844 0
 endloop
endfacet
facet normal -0 0 -1
 outer loop
  vertex -2.853 1.532 0
  vertex -3.02 1.17 0
  vertex -7.342 2.844 0
 endloop
endfacet
facet normal 0 -0 -1
 outer loop
  vertex -7.342 2.844 0
  vertex -3.02 1.17 0
  vertex -7.636 1.921 0
 endloop
endfacet
facet normal -0 0 -1
 outer loop
  vertex -3.02 1.17 0
  vertex -3.141 0.79 0
  vertex -7.636 1.921 0
 endloop
endfacet
facet normal 0 -0 -1
 outer loop
  vertex -7.636 1.921 0
  vertex -3.141 0.79 0
  vertex -7.814 0.968 0
 endloop
endfacet
facet normal -0 0 -1
 outer loop
  vertex -3.141 0.79 0
  vertex -3.214 0.398 0
  vertex -7.814 0.968 0
 endloop
endfacet
facet normal 0 -0 -1
 outer loop
  vertex -7.814 0.968 0
  vertex -3.214 0.398 0
  vertex -7.874 -0 0
 endloop
endfacet
facet normal 0 0 -1
 outer loop
  vertex -3.214 0.398 0
  vertex -3.239 0 0
  vertex -7.874 -0 0
 endloop
endfacet
facet normal 0 0 -1
 outer loop
  vertex -7.874 -0 0
  vertex -3.239 0 0
  vertex -7.814 -0.968 0
 endloop
endfacet
facet normal 0 -0 -1
 outer loop
  vertex -3.239 0 0
  vertex -3.214 -0.398 0
  vertex -7.814 -0.968 0
 endloop
endfacet
facet normal 0 0 -1
 outer loop
  vertex -7.814 -0.968 0
  vertex -3.214 -0.398 0
  vertex -3.141 -0.79 0
 endloop
endfacet
facet normal 0 0 -1
 outer loop
  vertex -7.814 -0.968 0
  vertex -3.141 -0.79 0
  vertex -7.636 -1.921 0
 endloop
endfacet
facet normal 0 0 -1
 outer loop
  vertex -7.636 -1.921 0
  vertex -3.141 -0.79 0
  vertex -3.02 -1.17 0
 endloop
endfacet
facet normal 0 0 -1
 outer loop
  vertex -7.636 -1.921 0
  vertex -3.02 -1.17 0
  vertex -7.342 -2.844 0
 endloop
endfacet
facet normal 0 0 -1
 outer loop
  vertex -7.342 -2.844 0
  vertex -3.02 -1.17 0
  vertex -2.853 -1.532 0
 endloop
endfacet
facet normal 0 0 -1
 outer loop
  vertex -7.342 -2.844 0
  vertex -2.853 -1.532 0
  vertex -6.937 -3.725 0
 endloop
endfacet
facet normal 0 0 -1
 outer loop
  vertex -6.937 -3.725 0
  vertex -2.853 -1.532 0
  vertex -2.643 -1.871 0
 endloop
endfacet
facet normal 0 0 -1
 outer loop
  vertex -6.937 -3.725 0
  vertex -2.643 -1.871 0
  vertex -6.427 -4.549 0
 endloop
endfacet
facet normal 0 0 -1
 outer loop
  vertex -6.427 -4.549 0
  vertex -2.643 -1.871 0
  vertex -2.393 -2.182 0
 endloop
endfacet
facet normal 0 0 -1
 outer loop
  vertex -6.427 -4.549 0
  vertex -2.393 -2.182 0
  vertex -5.819 -5.305 0
 endloop
endfacet
facet normal 0 0 -1
 outer loop
  vertex -5.819 -5.305 0
  vertex -2.393 -2.182 0
  vertex -2.107 -2.459 0
 endloop
endfacet
facet normal 0 0 -1
 outer loop
  vertex -5.819 -5.305 0
  vertex -2.107 -2.459 0
  vertex -5.123 -5.98 0
 endloop
endfacet
facet normal 0 0 -1
 outer loop
  vertex -5.123 -5.98 0
  vertex -2.107 -2.459 0
  vertex -1.789 -2.7 0
 endloop
endfacet
facet normal 0 0 -1
 outer loop
  vertex -5.123 -5.98 0
  vertex -1.789 -2.7 0
  vertex -4.349 -6.564 0
 endloop
endfacet
facet normal 0 0 -1
 outer loop
  vertex -4.349 -6.564 0
  vertex -1.789 -2.7 0
  vertex -1.444 -2.899 0
 endloop
endfacet
facet normal 0 0 -1
 outer loop
  vertex -4.349 -6.564 0
  vertex -1.444 -2.899 0
  vertex -3.51 -7.049 0
 endloop
endfacet
facet normal 0 0 -1
 outer loop
  vertex -3.51 -7.049 0
  vertex -1.444 -2.899 0
  vertex -1.076 -3.054 0
 endloop
endfacet
facet normal 0 0 -1
 outer loop
  vertex -3.51 -7.049 0
  vertex -1.076 -3.054 0
  vertex -2.617 -7.426 0
 endloop
endfacet
facet normal 0 0 -1
 outer loop
  vertex -2.617 -7.426 0
  vertex -1.076 -3.054 0
  vertex -0.693 -3.164 0
 endloop
endfacet
facet normal 0 0 -1
 outer loop
  vertex -2.617 -7.426 0
  vertex -0.693 -3.164 0
  vertex -1.685 -7.692 0
 endloop
endfacet
facet normal 0 0 -1
 outer loop
  vertex -1.685 -7.692 0
  vertex -0.693 -3.164 0
  vertex -0.299 -3.225 0
 endloop
endfacet
facet normal 0 0 -1
 outer loop
  vertex -1.685 -7.692 0
  vertex -0.299 -3.225 0
  vertex -0.727 -7.84 0
 endloop
endfacet
facet normal 0 0 -1
 outer loop
  vertex -0.727 -7.84 0
  vertex -0.299 -3.225 0
  vertex 0.1 -3.237 0
 endloop
endfacet
facet normal 0 0 -1
 outer loop
  vertex -0.727 -7.84 0
  vertex 0.1 -3.237 0
  vertex 0.242 -7.87 0
 endloop
endfacet
facet normal 0 0 -1
 outer loop
  vertex 0.242 -7.87 0
  vertex 0.1 -3.237 0
  vertex 1.208 -7.781 0
 endloop
endfacet
facet normal 0 0 -1
 outer loop
  vertex 0.1 -3.237 0
  vertex 0.497 -3.2 0
  vertex 1.208 -7.781 0
 endloop
endfacet
facet normal 0 0 -1
 outer loop
  vertex 1.208 -7.781 0
  vertex 0.497 -3.2 0
  vertex 2.155 -7.573 0
 endloop
endfacet
facet normal 0 0 -1
 outer loop
  vertex 0.497 -3.2 0
  vertex 0.886 -3.115 0
  vertex 2.155 -7.573 0
 endloop
endfacet
facet normal 0 0 -1
 outer loop
  vertex 2.155 -7.573 0
  vertex 0.886 -3.115 0
  vertex 3.069 -7.251 0
 endloop
endfacet
facet normal 0 0 -1
 outer loop
  vertex 0.886 -3.115 0
  vertex 1.262 -2.982 0
  vertex 3.069 -7.251 0
 endloop
endfacet
facet normal 0 0 -1
 outer loop
  vertex 3.069 -7.251 0
  vertex 1.262 -2.982 0
  vertex 3.937 -6.819 0
 endloop
endfacet
facet normal 0 0 -1
 outer loop
  vertex 1.262 -2.982 0
  vertex 1.619 -2.805 0
  vertex 3.937 -6.819 0
 endloop
endfacet
facet normal 0 0 -1
 outer loop
  vertex 3.937 -6.819 0
  vertex 1.619 -2.805 0
  vertex 4.745 -6.284 0
 endloop
endfacet
facet normal 0 0 -1
 outer loop
  vertex 1.619 -2.805 0
  vertex 1.952 -2.584 0
  vertex 4.745 -6.284 0
 endloop
endfacet
facet normal 0 0 -1
 outer loop
  vertex 4.745 -6.284 0
  vertex 1.952 -2.584 0
  vertex 5.481 -5.653 0
 endloop
endfacet
facet normal 0 0 -1
 outer loop
  vertex 1.952 -2.584 0
  vertex 2.254 -2.325 0
  vertex 5.481 -5.653 0
 endloop
endfacet
facet normal 0 0 -1
 outer loop
  vertex 5.481 -5.653 0
  vertex 2.254 -2.325 0
  vertex 6.134 -4.936 0
 endloop
endfacet
facet normal 0 0 -1
 outer loop
  vertex 2.254 -2.325 0
  vertex 2.523 -2.03 0
  vertex 6.134 -4.936 0
 endloop
endfacet
facet normal 0 0 -1
 outer loop
  vertex 6.134 -4.936 0
  vertex 2.523 -2.03 0
  vertex 6.695 -4.145 0
 endloop
endfacet
facet normal 0 0 -1
 outer loop
  vertex 2.523 -2.03 0
  vertex 2.753 -1.705 0
  vertex 6.695 -4.145 0
 endloop
endfacet
facet normal 0 0 -1
 outer loop
  vertex 6.695 -4.145 0
  vertex 2.753 -1.705 0
  vertex 7.153 -3.291 0
 endloop
endfacet
facet normal 0 0 -1
 outer loop
  vertex 2.753 -1.705 0
  vertex 2.942 -1.354 0
  vertex 7.153 -3.291 0
 endloop
endfacet
facet normal 0 0 -1
 outer loop
  vertex 7.153 -3.291 0
  vertex 2.942 -1.354 0
  vertex 7.503 -2.387 0
 endloop
endfacet
facet normal 0 0 -1
 outer loop
  vertex 2.942 -1.354 0
  vertex 3.086 -0.982 0
  vertex 7.503 -2.387 0
 endloop
endfacet
facet normal 0 0 -1
 outer loop
  vertex 7.503 -2.387 0
  vertex 3.086 -0.982 0
  vertex 7.74 -1.447 0
 endloop
endfacet
facet normal 0 0 -1
 outer loop
  vertex 3.086 -0.982 0
  vertex 3.183 -0.595 0
  vertex 7.74 -1.447 0
 endloop
endfacet
facet normal 0 0 -1
 outer loop
  vertex 7.74 -1.447 0
  vertex 3.183 -0.595 0
  vertex 7.859 -0.485 0
 endloop
endfacet
facet normal 0 0 -1
 outer loop
  vertex 3.183 -0.595 0
  vertex 3.232 -0.199 0
  vertex 7.859 -0.485 0
 endloop
endfacet
facet normal 0 0 -1
 outer loop
  vertex 7.859 -0.485 0
  vertex 3.232 -0.199 0
  vertex 7.874 0 0
 endloop
endfacet
facet normal -0 0 1
 outer loop
  vertex 3.232 -0.199 2.286
  vertex 7.859 -0.485 2.286
  vertex 3.239 0 2.286
 endloop
endfacet
facet normal -0 0 1
 outer loop
  vertex 3.239 0 2.286
  vertex 7.859 -0.485 2.286
  vertex 7.874 0 2.286
 endloop
endfacet
facet normal 0 -0 1
 outer loop
  vertex 3.239 0 2.286
  vertex 7.874 0 2.286
  vertex 3.232 0.199 2.286
 endloop
endfacet
facet normal -0 0 1
 outer loop
  vertex 3.232 0.199 2.286
  vertex 7.874 0 2.286
  vertex 7.859 0.485 2.286
 endloop
endfacet
facet normal 0 -0 1
 outer loop
  vertex 3.232 0.199 2.286
  vertex 7.859 0.485 2.286
  vertex 3.183 0.595 2.286
 endloop
endfacet
facet normal -0 0 1
 outer loop
  vertex 3.183 0.595 2.286
  vertex 7.859 0.485 2.286
  vertex 7.74 1.447 2.286
 endloop
endfacet
facet normal 0 -0 1
 outer loop
  vertex 3.183 0.595 2.286
  vertex 7.74 1.447 2.286
  vertex 3.086 0.982 2.286
 endloop
endfacet
facet normal 0 0 1
 outer loop
  vertex 3.086 0.982 2.286
  vertex 7.74 1.447 2.286
  vertex 7.503 2.387 2.286
 endloop
endfacet
facet normal 0 -0 1
 outer loop
  vertex 3.086 0.982 2.286
  vertex 7.503 2.387 2.286
  vertex 2.942 1.354 2.286
 endloop
endfacet
facet normal 0 0 1
 outer loop
  vertex 2.942 1.354 2.286
  vertex 7.503 2.387 2.286
  vertex 7.153 3.291 2.286
 endloop
endfacet
facet normal 0 -0 1
 outer loop
  vertex 2.942 1.354 2.286
  vertex 7.153 3.291 2.286
  vertex 2.753 1.705 2.286
 endloop
endfacet
facet normal 0 0 1
 outer loop
  vertex 2.753 1.705 2.286
  vertex 7.153 3.291 2.286
  vertex 6.695 4.145 2.286
 endloop
endfacet
facet normal 0 -0 1
 outer loop
  vertex 2.753 1.705 2.286
  vertex 6.695 4.145 2.286
  vertex 2.523 2.03 2.286
 endloop
endfacet
facet normal 0 0 1
 outer loop
  vertex 2.523 2.03 2.286
  vertex 6.695 4.145 2.286
  vertex 6.134 4.936 2.286
 endloop
endfacet
facet normal 0 -0 1
 outer loop
  vertex 2.523 2.03 2.286
  vertex 6.134 4.936 2.286
  vertex 2.254 2.325 2.286
 endloop
endfacet
facet normal 0 0 1
 outer loop
  vertex 2.254 2.325 2.286
  vertex 6.134 4.936 2.286
  vertex 5.481 5.653 2.286
 endloop
endfacet
facet normal 0 -0 1
 outer loop
  vertex 2.254 2.325 2.286
  vertex 5.481 5.653 2.286
  vertex 1.952 2.584 2.286
 endloop
endfacet
facet normal 0 0 1
 outer loop
  vertex 1.952 2.584 2.286
  vertex 5.481 5.653 2.286
  vertex 4.745 6.284 2.286
 endloop
endfacet
facet normal 0 -0 1
 outer loop
  vertex 1.952 2.584 2.286
  vertex 4.745 6.284 2.286
  vertex 1.619 2.805 2.286
 endloop
endfacet
facet normal 0 0 1
 outer loop
  vertex 1.619 2.805 2.286
  vertex 4.745 6.284 2.286
  vertex 3.937 6.819 2.286
 endloop
endfacet
facet normal 0 -0 1
 outer loop
  vertex 1.619 2.805 2.286
  vertex 3.937 6.819 2.286
  vertex 1.262 2.982 2.286
 endloop
endfacet
facet normal 0 0 1
 outer loop
  vertex 1.262 2.982 2.286
  vertex 3.937 6.819 2.286
  vertex 3.069 7.251 2.286
 endloop
endfacet
facet normal 0 -0 1
 outer loop
  vertex 1.262 2.982 2.286
  vertex 3.069 7.251 2.286
  vertex 0.886 3.115 2.286
 endloop
endfacet
facet normal 0 0 1
 outer loop
  vertex 0.886 3.115 2.286
  vertex 3.069 7.251 2.286
  vertex 2.155 7.573 2.286
 endloop
endfacet
facet normal 0 -0 1
 outer loop
  vertex 0.886 3.115 2.286
  vertex 2.155 7.573 2.286
  vertex 0.497 3.2 2.286
 endloop
endfacet
facet normal 0 0 1
 outer loop
  vertex 0.497 3.2 2.286
  vertex 2.155 7.573 2.286
  vertex 1.208 7.781 2.286
 endloop
endfacet
facet normal 0 -0 1
 outer loop
  vertex 0.497 3.2 2.286
  vertex 1.208 7.781 2.286
  vertex 0.1 3.237 2.286
 endloop
endfacet
facet normal 0 0 1
 outer loop
  vertex 0.1 3.237 2.286
  vertex 1.208 7.781 2.286
  vertex 0.242 7.87 2.286
 endloop
endfacet
facet normal 0 -0 1
 outer loop
  vertex 0.1 3.237 2.286
  vertex 0.242 7.87 2.286
  vertex -0.727 7.84 2.286
 endloop
endfacet
facet normal 0 0 1
 outer loop
  vertex 3.232 -0.199 2.286
  vertex 3.183 -0.595 2.286
  vertex 7.859 -0.485 2.286
 endloop
endfacet
facet normal 0 0 1
 outer loop
  vertex 7.859 -0.485 2.286
  vertex 3.183 -0.595 2.286
  vertex 7.74 -1.447 2.286
 endloop
endfacet
facet normal 0 0 1
 outer loop
  vertex 3.183 -0.595 2.286
  vertex 3.086 -0.982 2.286
  vertex 7.74 -1.447 2.286
 endloop
endfacet
facet normal 0 0 1
 outer loop
  vertex 7.74 -1.447 2.286
  vertex 3.086 -0.982 2.286
  vertex 7.503 -2.387 2.286
 endloop
endfacet
facet normal 0 0 1
 outer loop
  vertex 3.086 -0.982 2.286
  vertex 2.942 -1.354 2.286
  vertex 7.503 -2.387 2.286
 endloop
endfacet
facet normal 0 0 1
 outer loop
  vertex 7.503 -2.387 2.286
  vertex 2.942 -1.354 2.286
  vertex 7.153 -3.291 2.286
 endloop
endfacet
facet normal 0 0 1
 outer loop
  vertex 2.942 -1.354 2.286
  vertex 2.753 -1.705 2.286
  vertex 7.153 -3.291 2.286
 endloop
endfacet
facet normal 0 0 1
 outer loop
  vertex 7.153 -3.291 2.286
  vertex 2.753 -1.705 2.286
  vertex 6.695 -4.145 2.286
 endloop
endfacet
facet normal 0 0 1
 outer loop
  vertex 2.753 -1.705 2.286
  vertex 2.523 -2.03 2.286
  vertex 6.695 -4.145 2.286
 endloop
endfacet
facet normal 0 0 1
 outer loop
  vertex 6.695 -4.145 2.286
  vertex 2.523 -2.03 2.286
  vertex 6.134 -4.936 2.286
 endloop
endfacet
facet normal 0 0 1
 outer loop
  vertex 2.523 -2.03 2.286
  vertex 2.254 -2.325 2.286
  vertex 6.134 -4.936 2.286
 endloop
endfacet
facet normal 0 0 1
 outer loop
  vertex 6.134 -4.936 2.286
  vertex 2.254 -2.325 2.286
  vertex 5.481 -5.653 2.286
 endloop
endfacet
facet normal 0 0 1
 outer loop
  vertex 2.254 -2.325 2.286
  vertex 1.952 -2.584 2.286
  vertex 5.481 -5.653 2.286
 endloop
endfacet
facet normal 0 0 1
 outer loop
  vertex 5.481 -5.653 2.286
  vertex 1.952 -2.584 2.286
  vertex 4.745 -6.284 2.286
 endloop
endfacet
facet normal 0 0 1
 outer loop
  vertex 1.952 -2.584 2.286
  vertex 1.619 -2.805 2.286
  vertex 4.745 -6.284 2.286
 endloop
endfacet
facet normal 0 0 1
 outer loop
  vertex 4.745 -6.284 2.286
  vertex 1.619 -2.805 2.286
  vertex 3.937 -6.819 2.286
 endloop
endfacet
facet normal 0 0 1
 outer loop
  vertex 1.619 -2.805 2.286
  vertex 1.262 -2.982 2.286
  vertex 3.937 -6.819 2.286
 endloop
endfacet
facet normal 0 0 1
 outer loop
  vertex 3.937 -6.819 2.286
  vertex 1.262 -2.982 2.286
  vertex 3.069 -7.251 2.286
 endloop
endfacet
facet normal 0 0 1
 outer loop
  vertex 1.262 -2.982 2.286
  vertex 0.886 -3.115 2.286
  vertex 3.069 -7.251 2.286
 endloop
endfacet
facet normal 0 0 1
 outer loop
  vertex 3.069 -7.251 2.286
  vertex 0.886 -3.115 2.286
  vertex 2.155 -7.573 2.286
 endloop
endfacet
facet normal 0 0 1
 outer loop
  vertex 0.886 -3.115 2.286
  vertex 0.497 -3.2 2.286
  vertex 2.155 -7.573 2.286
 endloop
endfacet
facet normal 0 0 1
 outer loop
  vertex 2.155 -7.573 2.286
  vertex 0.497 -3.2 2.286
  vertex 1.208 -7.781 2.286
 endloop
endfacet
facet normal 0 0 1
 outer loop
  vertex 0.497 -3.2 2.286
  vertex 0.1 -3.237 2.286
  vertex 1.208 -7.781 2.286
 endloop
endfacet
facet normal 0 0 1
 outer loop
  vertex 1.208 -7.781 2.286
  vertex 0.1 -3.237 2.286
  vertex 0.242 -7.87 2.286
 endloop
endfacet
facet normal 0 0 1
 outer loop
  vertex 0.242 -7.87 2.286
  vertex 0.1 -3.237 2.286
  vertex -0.727 -7.84 2.286
 endloop
endfacet
facet normal 0 0 1
 outer loop
  vertex -0.727 -7.84 2.286
  vertex 0.1 -3.237 2.286
  vertex -0.299 -3.225 2.286
 endloop
endfacet
facet normal 0 -0 1
 outer loop
  vertex -0.727 -7.84 2.286
  vertex -0.299 -3.225 2.286
  vertex -1.685 -7.692 2.286
 endloop
endfacet
facet normal 0 0 1
 outer loop
  vertex -1.685 -7.692 2.286
  vertex -0.299 -3.225 2.286
  vertex -0.693 -3.164 2.286
 endloop
endfacet
facet normal 0 -0 1
 outer loop
  vertex -1.685 -7.692 2.286
  vertex -0.693 -3.164 2.286
  vertex -2.617 -7.426 2.286
 endloop
endfacet
facet normal 0 0 1
 outer loop
  vertex -2.617 -7.426 2.286
  vertex -0.693 -3.164 2.286
  vertex -1.076 -3.054 2.286
 endloop
endfacet
facet normal 0 -0 1
 outer loop
  vertex -2.617 -7.426 2.286
  vertex -1.076 -3.054 2.286
  vertex -3.51 -7.049 2.286
 endloop
endfacet
facet normal 0 0 1
 outer loop
  vertex -3.51 -7.049 2.286
  vertex -1.076 -3.054 2.286
  vertex -1.444 -2.899 2.286
 endloop
endfacet
facet normal 0 -0 1
 outer loop
  vertex -3.51 -7.049 2.286
  vertex -1.444 -2.899 2.286
  vertex -4.349 -6.564 2.286
 endloop
endfacet
facet normal 0 0 1
 outer loop
  vertex -4.349 -6.564 2.286
  vertex -1.444 -2.899 2.286
  vertex -1.789 -2.7 2.286
 endloop
endfacet
facet normal 0 -0 1
 outer loop
  vertex -4.349 -6.564 2.286
  vertex -1.789 -2.7 2.286
  vertex -5.123 -5.98 2.286
 endloop
endfacet
facet normal 0 0 1
 outer loop
  vertex -5.123 -5.98 2.286
  vertex -1.789 -2.7 2.286
  vertex -2.107 -2.459 2.286
 endloop
endfacet
facet normal 0 -0 1
 outer loop
  vertex -5.123 -5.98 2.286
  vertex -2.107 -2.459 2.286
  vertex -5.819 -5.305 2.286
 endloop
endfacet
facet normal 0 0 1
 outer loop
  vertex -5.819 -5.305 2.286
  vertex -2.107 -2.459 2.286
  vertex -2.393 -2.182 2.286
 endloop
endfacet
facet normal 0 -0 1
 outer loop
  vertex -5.819 -5.305 2.286
  vertex -2.393 -2.182 2.286
  vertex -6.427 -4.549 2.286
 endloop
endfacet
facet normal 0 0 1
 outer loop
  vertex -6.427 -4.549 2.286
  vertex -2.393 -2.182 2.286
  vertex -2.643 -1.871 2.286
 endloop
endfacet
facet normal 0 -0 1
 outer loop
  vertex -6.427 -4.549 2.286
  vertex -2.643 -1.871 2.286
  vertex -6.937 -3.725 2.286
 endloop
endfacet
facet normal 0 0 1
 outer loop
  vertex -6.937 -3.725 2.286
  vertex -2.643 -1.871 2.286
  vertex -2.853 -1.532 2.286
 endloop
endfacet
facet normal 0 -0 1
 outer loop
  vertex -6.937 -3.725 2.286
  vertex -2.853 -1.532 2.286
  vertex -7.342 -2.844 2.286
 endloop
endfacet
facet normal 0 0 1
 outer loop
  vertex -7.342 -2.844 2.286
  vertex -2.853 -1.532 2.286
  vertex -3.02 -1.17 2.286
 endloop
endfacet
facet normal 0 -0 1
 outer loop
  vertex -7.342 -2.844 2.286
  vertex -3.02 -1.17 2.286
  vertex -7.636 -1.921 2.286
 endloop
endfacet
facet normal 0 0 1
 outer loop
  vertex -7.636 -1.921 2.286
  vertex -3.02 -1.17 2.286
  vertex -3.141 -0.79 2.286
 endloop
endfacet
facet normal 0 -0 1
 outer loop
  vertex -7.636 -1.921 2.286
  vertex -3.141 -0.79 2.286
  vertex -7.814 -0.968 2.286
 endloop
endfacet
facet normal 0 0 1
 outer loop
  vertex -7.814 -0.968 2.286
  vertex -3.141 -0.79 2.286
  vertex -3.214 -0.398 2.286
 endloop
endfacet
facet normal 0 -0 1
 outer loop
  vertex -7.814 -0.968 2.286
  vertex -3.214 -0.398 2.286
  vertex -7.874 0 2.286
 endloop
endfacet
facet normal 0 0 1
 outer loop
  vertex -7.874 0 2.286
  vertex -3.214 -0.398 2.286
  vertex -3.239 -0 2.286
 endloop
endfacet
facet normal -0 0 1
 outer loop
  vertex -7.874 0 2.286
  vertex -3.239 -0 2.286
  vertex -3.214 0.398 2.286
 endloop
endfacet
facet normal 0 0 1
 outer loop
  vertex -7.874 0 2.286
  vertex -3.214 0.398 2.286
  vertex -7.814 0.968 2.286
 endloop
endfacet
facet normal 0 0 1
 outer loop
  vertex -7.814 0.968 2.286
  vertex -3.214 0.398 2.286
  vertex -3.141 0.79 2.286
 endloop
endfacet
facet normal -0 0 1
 outer loop
  vertex -7.814 0.968 2.286
  vertex -3.141 0.79 2.286
  vertex -7.636 1.921 2.286
 endloop
endfacet
facet normal 0 0 1
 outer loop
  vertex -7.636 1.921 2.286
  vertex -3.141 0.79 2.286
  vertex -3.02 1.17 2.286
 endloop
endfacet
facet normal -0 0 1
 outer loop
  vertex -7.636 1.921 2.286
  vertex -3.02 1.17 2.286
  vertex -7.342 2.844 2.286
 endloop
endfacet
facet normal 0 0 1
 outer loop
  vertex -7.342 2.844 2.286
  vertex -3.02 1.17 2.286
  vertex -2.853 1.532 2.286
 endloop
endfacet
facet normal -0 0 1
 outer loop
  vertex -7.342 2.844 2.286
  vertex -2.853 1.532 2.286
  vertex -6.937 3.725 2.286
 endloop
endfacet
facet normal 0 0 1
 outer loop
  vertex -6.937 3.725 2.286
  vertex -2.853 1.532 2.286
  vertex -2.643 1.871 2.286
 endloop
endfacet
facet normal -0 0 1
 outer loop
  vertex -6.937 3.725 2.286
  vertex -2.643 1.871 2.286
  vertex -6.427 4.549 2.286
 endloop
endfacet
facet normal 0 0 1
 outer loop
  vertex -6.427 4.549 2.286
  vertex -2.643 1.871 2.286
  vertex -2.393 2.182 2.286
 endloop
endfacet
facet normal -0 0 1
 outer loop
  vertex -6.427 4.549 2.286
  vertex -2.393 2.182 2.286
  vertex -5.819 5.305 2.286
 endloop
endfacet
facet normal 0 0 1
 outer loop
  vertex -5.819 5.305 2.286
  vertex -2.393 2.182 2.286
  vertex -2.107 2.459 2.286
 endloop
endfacet
facet normal -0 0 1
 outer loop
  vertex -5.819 5.305 2.286
  vertex -2.107 2.459 2.286
  vertex -5.123 5.98 2.286
 endloop
endfacet
facet normal 0 0 1
 outer loop
  vertex -5.123 5.98 2.286
  vertex -2.107 2.459 2.286
  vertex -1.789 2.7 2.286
 endloop
endfacet
facet normal -0 0 1
 outer loop
  vertex -5.123 5.98 2.286
  vertex -1.789 2.7 2.286
  vertex -4.349 6.564 2.286
 endloop
endfacet
facet normal 0 0 1
 outer loop
  vertex -4.349 6.564 2.286
  vertex -1.789 2.7 2.286
  vertex -1.444 2.899 2.286
 endloop
endfacet
facet normal -0 0 1
 outer loop
  vertex -4.349 6.564 2.286
  vertex -1.444 2.899 2.286
  vertex -3.51 7.049 2.286
 endloop
endfacet
facet normal 0 0 1
 outer loop
  vertex -3.51 7.049 2.286
  vertex -1.444 2.899 2.286
  vertex -1.076 3.054 2.286
 endloop
endfacet
facet normal -0 0 1
 outer loop
  vertex -3.51 7.049 2.286
  vertex -1.076 3.054 2.286
  vertex -2.617 7.426 2.286
 endloop
endfacet
facet normal 0 0 1
 outer loop
  vertex -2.617 7.426 2.286
  vertex -1.076 3.054 2.286
  vertex -0.693 3.164 2.286
 endloop
endfacet
facet normal -0 0 1
 outer loop
  vertex -2.617 7.426 2.286
  vertex -0.693 3.164 2.286
  vertex -1.685 7.692 2.286
 endloop
endfacet
facet normal 0 0 1
 outer loop
  vertex -1.685 7.692 2.286
  vertex -0.693 3.164 2.286
  vertex -0.299 3.225 2.286
 endloop
endfacet
facet normal -0 0 1
 outer loop
  vertex -1.685 7.692 2.286
  vertex -0.299 3.225 2.286
  vertex -0.727 7.84 2.286
 endloop
endfacet
facet normal 0 0 1
 outer loop
  vertex -0.727 7.84 2.286
  vertex -0.299 3.225 2.286
  vertex 0.1 3.237 2.286
 endloop
endfacet
endsolid CADClick
