solid CADClick
facet normal -1 0.031 0
 outer loop
  vertex 6.376 -0.393 0
  vertex 6.376 -0.393 2.286
  vertex 6.388 0 0
 endloop
endfacet
facet normal -1 0.031 0
 outer loop
  vertex 6.388 0 0
  vertex 6.376 -0.393 2.286
  vertex 6.388 0 2.286
 endloop
endfacet
facet normal -1 -0.031 0
 outer loop
  vertex 6.388 0 0
  vertex 6.388 0 2.286
  vertex 6.376 0.393 0
 endloop
endfacet
facet normal -1 -0.031 0
 outer loop
  vertex 6.376 0.393 0
  vertex 6.388 0 2.286
  vertex 6.376 0.393 2.286
 endloop
endfacet
facet normal -0.992 -0.123 0
 outer loop
  vertex 6.376 0.393 0
  vertex 6.376 0.393 2.286
  vertex 6.279 1.174 0
 endloop
endfacet
facet normal -0.992 -0.123 0
 outer loop
  vertex 6.279 1.174 0
  vertex 6.376 0.393 2.286
  vertex 6.279 1.174 2.286
 endloop
endfacet
facet normal -0.97 -0.244 0
 outer loop
  vertex 6.279 1.174 0
  vertex 6.279 1.174 2.286
  vertex 6.087 1.937 0
 endloop
endfacet
facet normal -0.97 -0.244 0
 outer loop
  vertex 6.087 1.937 0
  vertex 6.279 1.174 2.286
  vertex 6.087 1.937 2.286
 endloop
endfacet
facet normal -0.932 -0.361 0
 outer loop
  vertex 6.087 1.937 0
  vertex 6.087 1.937 2.286
  vertex 5.803 2.67 0
 endloop
endfacet
facet normal -0.932 -0.361 0
 outer loop
  vertex 5.803 2.67 0
  vertex 6.087 1.937 2.286
  vertex 5.803 2.67 2.286
 endloop
endfacet
facet normal -0.881 -0.473 0
 outer loop
  vertex 5.803 2.67 0
  vertex 5.803 2.67 2.286
  vertex 5.431 3.363 0
 endloop
endfacet
facet normal -0.881 -0.473 0
 outer loop
  vertex 5.431 3.363 0
  vertex 5.803 2.67 2.286
  vertex 5.431 3.363 2.286
 endloop
endfacet
facet normal -0.816 -0.578 0
 outer loop
  vertex 5.431 3.363 0
  vertex 5.431 3.363 2.286
  vertex 4.977 4.005 0
 endloop
endfacet
facet normal -0.816 -0.578 0
 outer loop
  vertex 4.977 4.005 0
  vertex 5.431 3.363 2.286
  vertex 4.977 4.005 2.286
 endloop
endfacet
facet normal -0.739 -0.674 0
 outer loop
  vertex 4.977 4.005 0
  vertex 4.977 4.005 2.286
  vertex 4.447 4.586 0
 endloop
endfacet
facet normal -0.739 -0.674 0
 outer loop
  vertex 4.447 4.586 0
  vertex 4.977 4.005 2.286
  vertex 4.447 4.586 2.286
 endloop
endfacet
facet normal -0.651 -0.759 0
 outer loop
  vertex 4.447 4.586 0
  vertex 4.447 4.586 2.286
  vertex 3.85 5.098 0
 endloop
endfacet
facet normal -0.651 -0.759 0
 outer loop
  vertex 3.85 5.098 0
  vertex 4.447 4.586 2.286
  vertex 3.85 5.098 2.286
 endloop
endfacet
facet normal -0.552 -0.834 0
 outer loop
  vertex 3.85 5.098 0
  vertex 3.85 5.098 2.286
  vertex 3.194 5.532 0
 endloop
endfacet
facet normal -0.552 -0.834 0
 outer loop
  vertex 3.194 5.532 0
  vertex 3.85 5.098 2.286
  vertex 3.194 5.532 2.286
 endloop
endfacet
facet normal -0.446 -0.895 0
 outer loop
  vertex 3.194 5.532 0
  vertex 3.194 5.532 2.286
  vertex 2.49 5.883 0
 endloop
endfacet
facet normal -0.446 -0.895 0
 outer loop
  vertex 2.49 5.883 0
  vertex 3.194 5.532 2.286
  vertex 2.49 5.883 2.286
 endloop
endfacet
facet normal -0.332 -0.943 0
 outer loop
  vertex 2.49 5.883 0
  vertex 2.49 5.883 2.286
  vertex 1.748 6.144 0
 endloop
endfacet
facet normal -0.332 -0.943 0
 outer loop
  vertex 1.748 6.144 0
  vertex 2.49 5.883 2.286
  vertex 1.748 6.144 2.286
 endloop
endfacet
facet normal -0.214 -0.977 0
 outer loop
  vertex 1.748 6.144 0
  vertex 1.748 6.144 2.286
  vertex 0.98 6.313 0
 endloop
endfacet
facet normal -0.214 -0.977 0
 outer loop
  vertex 0.98 6.313 0
  vertex 1.748 6.144 2.286
  vertex 0.98 6.313 2.286
 endloop
endfacet
facet normal -0.092 -0.996 0
 outer loop
  vertex 0.98 6.313 0
  vertex 0.98 6.313 2.286
  vertex 0.197 6.385 0
 endloop
endfacet
facet normal -0.092 -0.996 0
 outer loop
  vertex 0.197 6.385 0
  vertex 0.98 6.313 2.286
  vertex 0.197 6.385 2.286
 endloop
endfacet
facet normal 0.031 -1 0
 outer loop
  vertex 0.197 6.385 0
  vertex 0.197 6.385 2.286
  vertex -0.589 6.361 0
 endloop
endfacet
facet normal 0.031 -1 0
 outer loop
  vertex -0.589 6.361 0
  vertex 0.197 6.385 2.286
  vertex -0.589 6.361 2.286
 endloop
endfacet
facet normal 0.153 -0.988 0
 outer loop
  vertex -0.589 6.361 0
  vertex -0.589 6.361 2.286
  vertex -1.367 6.24 0
 endloop
endfacet
facet normal 0.153 -0.988 0
 outer loop
  vertex -1.367 6.24 0
  vertex -0.589 6.361 2.286
  vertex -1.367 6.24 2.286
 endloop
endfacet
facet normal 0.274 -0.962 0
 outer loop
  vertex -1.367 6.24 0
  vertex -1.367 6.24 2.286
  vertex -2.123 6.025 0
 endloop
endfacet
facet normal 0.274 -0.962 0
 outer loop
  vertex -2.123 6.025 0
  vertex -1.367 6.24 2.286
  vertex -2.123 6.025 2.286
 endloop
endfacet
facet normal 0.39 -0.921 0
 outer loop
  vertex -2.123 6.025 0
  vertex -2.123 6.025 2.286
  vertex -2.847 5.718 0
 endloop
endfacet
facet normal 0.39 -0.921 0
 outer loop
  vertex -2.847 5.718 0
  vertex -2.123 6.025 2.286
  vertex -2.847 5.718 2.286
 endloop
endfacet
facet normal 0.5 -0.866 0
 outer loop
  vertex -2.847 5.718 0
  vertex -2.847 5.718 2.286
  vertex -3.529 5.325 0
 endloop
endfacet
facet normal 0.5 -0.866 0
 outer loop
  vertex -3.529 5.325 0
  vertex -2.847 5.718 2.286
  vertex -3.529 5.325 2.286
 endloop
endfacet
facet normal 0.603 -0.798 0
 outer loop
  vertex -3.529 5.325 0
  vertex -3.529 5.325 2.286
  vertex -4.156 4.851 0
 endloop
endfacet
facet normal 0.603 -0.798 0
 outer loop
  vertex -4.156 4.851 0
  vertex -3.529 5.325 2.286
  vertex -4.156 4.851 2.286
 endloop
endfacet
facet normal 0.696 -0.718 0
 outer loop
  vertex -4.156 4.851 0
  vertex -4.156 4.851 2.286
  vertex -4.721 4.304 0
 endloop
endfacet
facet normal 0.696 -0.718 0
 outer loop
  vertex -4.721 4.304 0
  vertex -4.156 4.851 2.286
  vertex -4.721 4.304 2.286
 endloop
endfacet
facet normal 0.779 -0.627 0
 outer loop
  vertex -4.721 4.304 0
  vertex -4.721 4.304 2.286
  vertex -5.214 3.691 0
 endloop
endfacet
facet normal 0.779 -0.627 0
 outer loop
  vertex -5.214 3.691 0
  vertex -4.721 4.304 2.286
  vertex -5.214 3.691 2.286
 endloop
endfacet
facet normal 0.85 -0.526 0
 outer loop
  vertex -5.214 3.691 0
  vertex -5.214 3.691 2.286
  vertex -5.628 3.022 0
 endloop
endfacet
facet normal 0.85 -0.526 0
 outer loop
  vertex -5.628 3.022 0
  vertex -5.214 3.691 2.286
  vertex -5.628 3.022 2.286
 endloop
endfacet
facet normal 0.908 -0.418 0
 outer loop
  vertex -5.628 3.022 0
  vertex -5.628 3.022 2.286
  vertex -5.957 2.308 0
 endloop
endfacet
facet normal 0.908 -0.418 0
 outer loop
  vertex -5.957 2.308 0
  vertex -5.628 3.022 2.286
  vertex -5.957 2.308 2.286
 endloop
endfacet
facet normal 0.953 -0.303 0
 outer loop
  vertex -5.957 2.308 0
  vertex -5.957 2.308 2.286
  vertex -6.195 1.558 0
 endloop
endfacet
facet normal 0.953 -0.303 0
 outer loop
  vertex -6.195 1.558 0
  vertex -5.957 2.308 2.286
  vertex -6.195 1.558 2.286
 endloop
endfacet
facet normal 0.983 -0.184 0
 outer loop
  vertex -6.195 1.558 0
  vertex -6.195 1.558 2.286
  vertex -6.34 0.785 0
 endloop
endfacet
facet normal 0.983 -0.184 0
 outer loop
  vertex -6.34 0.785 0
  vertex -6.195 1.558 2.286
  vertex -6.34 0.785 2.286
 endloop
endfacet
facet normal 0.998 -0.062 0
 outer loop
  vertex -6.34 0.785 0
  vertex -6.34 0.785 2.286
  vertex -6.388 0 0
 endloop
endfacet
facet normal 0.998 -0.062 -0
 outer loop
  vertex -6.388 0 0
  vertex -6.34 0.785 2.286
  vertex -6.388 -0 2.286
 endloop
endfacet
facet normal 0.998 0.062 0
 outer loop
  vertex -6.388 0 0
  vertex -6.388 -0 2.286
  vertex -6.34 -0.785 0
 endloop
endfacet
facet normal 0.998 0.062 -0
 outer loop
  vertex -6.34 -0.785 0
  vertex -6.388 -0 2.286
  vertex -6.34 -0.785 2.286
 endloop
endfacet
facet normal 0.983 0.184 -0
 outer loop
  vertex -6.34 -0.785 0
  vertex -6.34 -0.785 2.286
  vertex -6.195 -1.558 0
 endloop
endfacet
facet normal 0.983 0.184 -0
 outer loop
  vertex -6.195 -1.558 0
  vertex -6.34 -0.785 2.286
  vertex -6.195 -1.558 2.286
 endloop
endfacet
facet normal 0.953 0.303 -0
 outer loop
  vertex -6.195 -1.558 0
  vertex -6.195 -1.558 2.286
  vertex -5.957 -2.308 0
 endloop
endfacet
facet normal 0.953 0.303 -0
 outer loop
  vertex -5.957 -2.308 0
  vertex -6.195 -1.558 2.286
  vertex -5.957 -2.308 2.286
 endloop
endfacet
facet normal 0.908 0.418 -0
 outer loop
  vertex -5.957 -2.308 0
  vertex -5.957 -2.308 2.286
  vertex -5.628 -3.022 0
 endloop
endfacet
facet normal 0.908 0.418 -0
 outer loop
  vertex -5.628 -3.022 0
  vertex -5.957 -2.308 2.286
  vertex -5.628 -3.022 2.286
 endloop
endfacet
facet normal 0.85 0.526 -0
 outer loop
  vertex -5.628 -3.022 0
  vertex -5.628 -3.022 2.286
  vertex -5.214 -3.691 0
 endloop
endfacet
facet normal 0.85 0.526 -0
 outer loop
  vertex -5.214 -3.691 0
  vertex -5.628 -3.022 2.286
  vertex -5.214 -3.691 2.286
 endloop
endfacet
facet normal 0.779 0.627 -0
 outer loop
  vertex -5.214 -3.691 0
  vertex -5.214 -3.691 2.286
  vertex -4.721 -4.304 0
 endloop
endfacet
facet normal 0.779 0.627 -0
 outer loop
  vertex -4.721 -4.304 0
  vertex -5.214 -3.691 2.286
  vertex -4.721 -4.304 2.286
 endloop
endfacet
facet normal 0.696 0.718 -0
 outer loop
  vertex -4.721 -4.304 0
  vertex -4.721 -4.304 2.286
  vertex -4.156 -4.851 0
 endloop
endfacet
facet normal 0.696 0.718 -0
 outer loop
  vertex -4.156 -4.851 0
  vertex -4.721 -4.304 2.286
  vertex -4.156 -4.851 2.286
 endloop
endfacet
facet normal 0.603 0.798 -0
 outer loop
  vertex -4.156 -4.851 0
  vertex -4.156 -4.851 2.286
  vertex -3.529 -5.325 0
 endloop
endfacet
facet normal 0.603 0.798 -0
 outer loop
  vertex -3.529 -5.325 0
  vertex -4.156 -4.851 2.286
  vertex -3.529 -5.325 2.286
 endloop
endfacet
facet normal 0.5 0.866 -0
 outer loop
  vertex -3.529 -5.325 0
  vertex -3.529 -5.325 2.286
  vertex -2.847 -5.718 0
 endloop
endfacet
facet normal 0.5 0.866 -0
 outer loop
  vertex -2.847 -5.718 0
  vertex -3.529 -5.325 2.286
  vertex -2.847 -5.718 2.286
 endloop
endfacet
facet normal 0.39 0.921 -0
 outer loop
  vertex -2.847 -5.718 0
  vertex -2.847 -5.718 2.286
  vertex -2.123 -6.025 0
 endloop
endfacet
facet normal 0.39 0.921 -0
 outer loop
  vertex -2.123 -6.025 0
  vertex -2.847 -5.718 2.286
  vertex -2.123 -6.025 2.286
 endloop
endfacet
facet normal 0.274 0.962 -0
 outer loop
  vertex -2.123 -6.025 0
  vertex -2.123 -6.025 2.286
  vertex -1.367 -6.24 0
 endloop
endfacet
facet normal 0.274 0.962 -0
 outer loop
  vertex -1.367 -6.24 0
  vertex -2.123 -6.025 2.286
  vertex -1.367 -6.24 2.286
 endloop
endfacet
facet normal 0.153 0.988 -0
 outer loop
  vertex -1.367 -6.24 0
  vertex -1.367 -6.24 2.286
  vertex -0.589 -6.361 0
 endloop
endfacet
facet normal 0.153 0.988 -0
 outer loop
  vertex -0.589 -6.361 0
  vertex -1.367 -6.24 2.286
  vertex -0.589 -6.361 2.286
 endloop
endfacet
facet normal 0.031 1 -0
 outer loop
  vertex -0.589 -6.361 0
  vertex -0.589 -6.361 2.286
  vertex 0.197 -6.385 0
 endloop
endfacet
facet normal 0.031 1 -0
 outer loop
  vertex 0.197 -6.385 0
  vertex -0.589 -6.361 2.286
  vertex 0.197 -6.385 2.286
 endloop
endfacet
facet normal -0.092 0.996 0
 outer loop
  vertex 0.197 -6.385 0
  vertex 0.197 -6.385 2.286
  vertex 0.98 -6.313 0
 endloop
endfacet
facet normal -0.092 0.996 0
 outer loop
  vertex 0.98 -6.313 0
  vertex 0.197 -6.385 2.286
  vertex 0.98 -6.313 2.286
 endloop
endfacet
facet normal -0.214 0.977 0
 outer loop
  vertex 0.98 -6.313 0
  vertex 0.98 -6.313 2.286
  vertex 1.748 -6.144 0
 endloop
endfacet
facet normal -0.214 0.977 0
 outer loop
  vertex 1.748 -6.144 0
  vertex 0.98 -6.313 2.286
  vertex 1.748 -6.144 2.286
 endloop
endfacet
facet normal -0.332 0.943 0
 outer loop
  vertex 1.748 -6.144 0
  vertex 1.748 -6.144 2.286
  vertex 2.49 -5.883 0
 endloop
endfacet
facet normal -0.332 0.943 0
 outer loop
  vertex 2.49 -5.883 0
  vertex 1.748 -6.144 2.286
  vertex 2.49 -5.883 2.286
 endloop
endfacet
facet normal -0.446 0.895 0
 outer loop
  vertex 2.49 -5.883 0
  vertex 2.49 -5.883 2.286
  vertex 3.194 -5.532 0
 endloop
endfacet
facet normal -0.446 0.895 0
 outer loop
  vertex 3.194 -5.532 0
  vertex 2.49 -5.883 2.286
  vertex 3.194 -5.532 2.286
 endloop
endfacet
facet normal -0.552 0.834 0
 outer loop
  vertex 3.194 -5.532 0
  vertex 3.194 -5.532 2.286
  vertex 3.85 -5.098 0
 endloop
endfacet
facet normal -0.552 0.834 0
 outer loop
  vertex 3.85 -5.098 0
  vertex 3.194 -5.532 2.286
  vertex 3.85 -5.098 2.286
 endloop
endfacet
facet normal -0.651 0.759 0
 outer loop
  vertex 3.85 -5.098 0
  vertex 3.85 -5.098 2.286
  vertex 4.447 -4.586 0
 endloop
endfacet
facet normal -0.651 0.759 0
 outer loop
  vertex 4.447 -4.586 0
  vertex 3.85 -5.098 2.286
  vertex 4.447 -4.586 2.286
 endloop
endfacet
facet normal -0.739 0.674 0
 outer loop
  vertex 4.447 -4.586 0
  vertex 4.447 -4.586 2.286
  vertex 4.977 -4.005 0
 endloop
endfacet
facet normal -0.739 0.674 0
 outer loop
  vertex 4.977 -4.005 0
  vertex 4.447 -4.586 2.286
  vertex 4.977 -4.005 2.286
 endloop
endfacet
facet normal -0.816 0.578 0
 outer loop
  vertex 4.977 -4.005 0
  vertex 4.977 -4.005 2.286
  vertex 5.431 -3.363 0
 endloop
endfacet
facet normal -0.816 0.578 0
 outer loop
  vertex 5.431 -3.363 0
  vertex 4.977 -4.005 2.286
  vertex 5.431 -3.363 2.286
 endloop
endfacet
facet normal -0.881 0.473 0
 outer loop
  vertex 5.431 -3.363 0
  vertex 5.431 -3.363 2.286
  vertex 5.803 -2.67 0
 endloop
endfacet
facet normal -0.881 0.473 0
 outer loop
  vertex 5.803 -2.67 0
  vertex 5.431 -3.363 2.286
  vertex 5.803 -2.67 2.286
 endloop
endfacet
facet normal -0.932 0.361 0
 outer loop
  vertex 5.803 -2.67 0
  vertex 5.803 -2.67 2.286
  vertex 6.087 -1.937 0
 endloop
endfacet
facet normal -0.932 0.361 0
 outer loop
  vertex 6.087 -1.937 0
  vertex 5.803 -2.67 2.286
  vertex 6.087 -1.937 2.286
 endloop
endfacet
facet normal -0.97 0.244 0
 outer loop
  vertex 6.087 -1.937 0
  vertex 6.087 -1.937 2.286
  vertex 6.279 -1.174 0
 endloop
endfacet
facet normal -0.97 0.244 0
 outer loop
  vertex 6.279 -1.174 0
  vertex 6.087 -1.937 2.286
  vertex 6.279 -1.174 2.286
 endloop
endfacet
facet normal -0.992 0.123 0
 outer loop
  vertex 6.279 -1.174 0
  vertex 6.279 -1.174 2.286
  vertex 6.376 -0.393 0
 endloop
endfacet
facet normal -0.992 0.123 0
 outer loop
  vertex 6.376 -0.393 0
  vertex 6.279 -1.174 2.286
  vertex 6.376 -0.393 2.286
 endloop
endfacet
facet normal 1 0.031 -0
 outer loop
  vertex 10.394 0.641 0
  vertex 10.394 0.641 2.286
  vertex 10.414 0 0
 endloop
endfacet
facet normal 1 0.031 -0
 outer loop
  vertex 10.414 0 0
  vertex 10.394 0.641 2.286
  vertex 10.414 0 2.286
 endloop
endfacet
facet normal 1 -0.031 0
 outer loop
  vertex 10.414 0 0
  vertex 10.414 0 2.286
  vertex 10.394 -0.641 0
 endloop
endfacet
facet normal 1 -0.031 0
 outer loop
  vertex 10.394 -0.641 0
  vertex 10.414 0 2.286
  vertex 10.394 -0.641 2.286
 endloop
endfacet
facet normal 0.992 -0.123 0
 outer loop
  vertex 10.394 -0.641 0
  vertex 10.394 -0.641 2.286
  vertex 10.237 -1.914 0
 endloop
endfacet
facet normal 0.992 -0.123 0
 outer loop
  vertex 10.237 -1.914 0
  vertex 10.394 -0.641 2.286
  vertex 10.237 -1.914 2.286
 endloop
endfacet
facet normal 0.97 -0.244 0
 outer loop
  vertex 10.237 -1.914 0
  vertex 10.237 -1.914 2.286
  vertex 9.924 -3.157 0
 endloop
endfacet
facet normal 0.97 -0.244 0
 outer loop
  vertex 9.924 -3.157 0
  vertex 10.237 -1.914 2.286
  vertex 9.924 -3.157 2.286
 endloop
endfacet
facet normal 0.932 -0.361 0
 outer loop
  vertex 9.924 -3.157 0
  vertex 9.924 -3.157 2.286
  vertex 9.461 -4.353 0
 endloop
endfacet
facet normal 0.932 -0.361 0
 outer loop
  vertex 9.461 -4.353 0
  vertex 9.924 -3.157 2.286
  vertex 9.461 -4.353 2.286
 endloop
endfacet
facet normal 0.881 -0.473 0
 outer loop
  vertex 9.461 -4.353 0
  vertex 9.461 -4.353 2.286
  vertex 8.854 -5.482 0
 endloop
endfacet
facet normal 0.881 -0.473 0
 outer loop
  vertex 8.854 -5.482 0
  vertex 9.461 -4.353 2.286
  vertex 8.854 -5.482 2.286
 endloop
endfacet
facet normal 0.816 -0.578 0
 outer loop
  vertex 8.854 -5.482 0
  vertex 8.854 -5.482 2.286
  vertex 8.113 -6.529 0
 endloop
endfacet
facet normal 0.816 -0.578 0
 outer loop
  vertex 8.113 -6.529 0
  vertex 8.854 -5.482 2.286
  vertex 8.113 -6.529 2.286
 endloop
endfacet
facet normal 0.739 -0.674 0
 outer loop
  vertex 8.113 -6.529 0
  vertex 8.113 -6.529 2.286
  vertex 7.25 -7.476 0
 endloop
endfacet
facet normal 0.739 -0.674 0
 outer loop
  vertex 7.25 -7.476 0
  vertex 8.113 -6.529 2.286
  vertex 7.25 -7.476 2.286
 endloop
endfacet
facet normal 0.651 -0.759 0
 outer loop
  vertex 7.25 -7.476 0
  vertex 7.25 -7.476 2.286
  vertex 6.276 -8.311 0
 endloop
endfacet
facet normal 0.651 -0.759 0
 outer loop
  vertex 6.276 -8.311 0
  vertex 7.25 -7.476 2.286
  vertex 6.276 -8.311 2.286
 endloop
endfacet
facet normal 0.552 -0.834 0
 outer loop
  vertex 6.276 -8.311 0
  vertex 6.276 -8.311 2.286
  vertex 5.207 -9.019 0
 endloop
endfacet
facet normal 0.552 -0.834 0
 outer loop
  vertex 5.207 -9.019 0
  vertex 6.276 -8.311 2.286
  vertex 5.207 -9.019 2.286
 endloop
endfacet
facet normal 0.446 -0.895 0
 outer loop
  vertex 5.207 -9.019 0
  vertex 5.207 -9.019 2.286
  vertex 4.059 -9.59 0
 endloop
endfacet
facet normal 0.446 -0.895 0
 outer loop
  vertex 4.059 -9.59 0
  vertex 5.207 -9.019 2.286
  vertex 4.059 -9.59 2.286
 endloop
endfacet
facet normal 0.332 -0.943 0
 outer loop
  vertex 4.059 -9.59 0
  vertex 4.059 -9.59 2.286
  vertex 2.85 -10.017 0
 endloop
endfacet
facet normal 0.332 -0.943 0
 outer loop
  vertex 2.85 -10.017 0
  vertex 4.059 -9.59 2.286
  vertex 2.85 -10.017 2.286
 endloop
endfacet
facet normal 0.214 -0.977 0
 outer loop
  vertex 2.85 -10.017 0
  vertex 2.85 -10.017 2.286
  vertex 1.597 -10.291 0
 endloop
endfacet
facet normal 0.214 -0.977 0
 outer loop
  vertex 1.597 -10.291 0
  vertex 2.85 -10.017 2.286
  vertex 1.597 -10.291 2.286
 endloop
endfacet
facet normal 0.092 -0.996 0
 outer loop
  vertex 1.597 -10.291 0
  vertex 1.597 -10.291 2.286
  vertex 0.321 -10.409 0
 endloop
endfacet
facet normal 0.092 -0.996 0
 outer loop
  vertex 0.321 -10.409 0
  vertex 1.597 -10.291 2.286
  vertex 0.321 -10.409 2.286
 endloop
endfacet
facet normal -0.031 -1 0
 outer loop
  vertex 0.321 -10.409 0
  vertex 0.321 -10.409 2.286
  vertex -0.961 -10.37 0
 endloop
endfacet
facet normal -0.031 -1 0
 outer loop
  vertex -0.961 -10.37 0
  vertex 0.321 -10.409 2.286
  vertex -0.961 -10.37 2.286
 endloop
endfacet
facet normal -0.153 -0.988 0
 outer loop
  vertex -0.961 -10.37 0
  vertex -0.961 -10.37 2.286
  vertex -2.228 -10.173 0
 endloop
endfacet
facet normal -0.153 -0.988 0
 outer loop
  vertex -2.228 -10.173 0
  vertex -0.961 -10.37 2.286
  vertex -2.228 -10.173 2.286
 endloop
endfacet
facet normal -0.274 -0.962 0
 outer loop
  vertex -2.228 -10.173 0
  vertex -2.228 -10.173 2.286
  vertex -3.461 -9.822 0
 endloop
endfacet
facet normal -0.274 -0.962 0
 outer loop
  vertex -3.461 -9.822 0
  vertex -2.228 -10.173 2.286
  vertex -3.461 -9.822 2.286
 endloop
endfacet
facet normal -0.39 -0.921 0
 outer loop
  vertex -3.461 -9.822 0
  vertex -3.461 -9.822 2.286
  vertex -4.642 -9.322 0
 endloop
endfacet
facet normal -0.39 -0.921 0
 outer loop
  vertex -4.642 -9.322 0
  vertex -3.461 -9.822 2.286
  vertex -4.642 -9.322 2.286
 endloop
endfacet
facet normal -0.5 -0.866 0
 outer loop
  vertex -4.642 -9.322 0
  vertex -4.642 -9.322 2.286
  vertex -5.752 -8.681 0
 endloop
endfacet
facet normal -0.5 -0.866 0
 outer loop
  vertex -5.752 -8.681 0
  vertex -4.642 -9.322 2.286
  vertex -5.752 -8.681 2.286
 endloop
endfacet
facet normal -0.603 -0.798 0
 outer loop
  vertex -5.752 -8.681 0
  vertex -5.752 -8.681 2.286
  vertex -6.776 -7.908 0
 endloop
endfacet
facet normal -0.603 -0.798 0
 outer loop
  vertex -6.776 -7.908 0
  vertex -5.752 -8.681 2.286
  vertex -6.776 -7.908 2.286
 endloop
endfacet
facet normal -0.696 -0.718 0
 outer loop
  vertex -6.776 -7.908 0
  vertex -6.776 -7.908 2.286
  vertex -7.696 -7.016 0
 endloop
endfacet
facet normal -0.696 -0.718 0
 outer loop
  vertex -7.696 -7.016 0
  vertex -6.776 -7.908 2.286
  vertex -7.696 -7.016 2.286
 endloop
endfacet
facet normal -0.779 -0.627 0
 outer loop
  vertex -7.696 -7.016 0
  vertex -7.696 -7.016 2.286
  vertex -8.5 -6.017 0
 endloop
endfacet
facet normal -0.779 -0.627 0
 outer loop
  vertex -8.5 -6.017 0
  vertex -7.696 -7.016 2.286
  vertex -8.5 -6.017 2.286
 endloop
endfacet
facet normal -0.85 -0.526 0
 outer loop
  vertex -8.5 -6.017 0
  vertex -8.5 -6.017 2.286
  vertex -9.175 -4.927 0
 endloop
endfacet
facet normal -0.85 -0.526 0
 outer loop
  vertex -9.175 -4.927 0
  vertex -8.5 -6.017 2.286
  vertex -9.175 -4.927 2.286
 endloop
endfacet
facet normal -0.908 -0.418 0
 outer loop
  vertex -9.175 -4.927 0
  vertex -9.175 -4.927 2.286
  vertex -9.711 -3.762 0
 endloop
endfacet
facet normal -0.908 -0.418 0
 outer loop
  vertex -9.711 -3.762 0
  vertex -9.175 -4.927 2.286
  vertex -9.711 -3.762 2.286
 endloop
endfacet
facet normal -0.953 -0.303 0
 outer loop
  vertex -9.711 -3.762 0
  vertex -9.711 -3.762 2.286
  vertex -10.1 -2.54 0
 endloop
endfacet
facet normal -0.953 -0.303 0
 outer loop
  vertex -10.1 -2.54 0
  vertex -9.711 -3.762 2.286
  vertex -10.1 -2.54 2.286
 endloop
endfacet
facet normal -0.983 -0.184 0
 outer loop
  vertex -10.1 -2.54 0
  vertex -10.1 -2.54 2.286
  vertex -10.335 -1.28 0
 endloop
endfacet
facet normal -0.983 -0.184 0
 outer loop
  vertex -10.335 -1.28 0
  vertex -10.1 -2.54 2.286
  vertex -10.335 -1.28 2.286
 endloop
endfacet
facet normal -0.998 -0.062 0
 outer loop
  vertex -10.335 -1.28 0
  vertex -10.335 -1.28 2.286
  vertex -10.414 -0 0
 endloop
endfacet
facet normal -0.998 -0.062 0
 outer loop
  vertex -10.414 -0 0
  vertex -10.335 -1.28 2.286
  vertex -10.414 0 2.286
 endloop
endfacet
facet normal -0.998 0.062 -0
 outer loop
  vertex -10.414 -0 0
  vertex -10.414 0 2.286
  vertex -10.335 1.28 0
 endloop
endfacet
facet normal -0.998 0.062 0
 outer loop
  vertex -10.335 1.28 0
  vertex -10.414 0 2.286
  vertex -10.335 1.28 2.286
 endloop
endfacet
facet normal -0.983 0.184 0
 outer loop
  vertex -10.335 1.28 0
  vertex -10.335 1.28 2.286
  vertex -10.1 2.54 0
 endloop
endfacet
facet normal -0.983 0.184 0
 outer loop
  vertex -10.1 2.54 0
  vertex -10.335 1.28 2.286
  vertex -10.1 2.54 2.286
 endloop
endfacet
facet normal -0.953 0.303 0
 outer loop
  vertex -10.1 2.54 0
  vertex -10.1 2.54 2.286
  vertex -9.711 3.762 0
 endloop
endfacet
facet normal -0.953 0.303 0
 outer loop
  vertex -9.711 3.762 0
  vertex -10.1 2.54 2.286
  vertex -9.711 3.762 2.286
 endloop
endfacet
facet normal -0.908 0.418 0
 outer loop
  vertex -9.711 3.762 0
  vertex -9.711 3.762 2.286
  vertex -9.175 4.927 0
 endloop
endfacet
facet normal -0.908 0.418 0
 outer loop
  vertex -9.175 4.927 0
  vertex -9.711 3.762 2.286
  vertex -9.175 4.927 2.286
 endloop
endfacet
facet normal -0.85 0.526 0
 outer loop
  vertex -9.175 4.927 0
  vertex -9.175 4.927 2.286
  vertex -8.5 6.017 0
 endloop
endfacet
facet normal -0.85 0.526 0
 outer loop
  vertex -8.5 6.017 0
  vertex -9.175 4.927 2.286
  vertex -8.5 6.017 2.286
 endloop
endfacet
facet normal -0.779 0.627 0
 outer loop
  vertex -8.5 6.017 0
  vertex -8.5 6.017 2.286
  vertex -7.696 7.016 0
 endloop
endfacet
facet normal -0.779 0.627 0
 outer loop
  vertex -7.696 7.016 0
  vertex -8.5 6.017 2.286
  vertex -7.696 7.016 2.286
 endloop
endfacet
facet normal -0.696 0.718 0
 outer loop
  vertex -7.696 7.016 0
  vertex -7.696 7.016 2.286
  vertex -6.776 7.908 0
 endloop
endfacet
facet normal -0.696 0.718 0
 outer loop
  vertex -6.776 7.908 0
  vertex -7.696 7.016 2.286
  vertex -6.776 7.908 2.286
 endloop
endfacet
facet normal -0.603 0.798 0
 outer loop
  vertex -6.776 7.908 0
  vertex -6.776 7.908 2.286
  vertex -5.752 8.681 0
 endloop
endfacet
facet normal -0.603 0.798 0
 outer loop
  vertex -5.752 8.681 0
  vertex -6.776 7.908 2.286
  vertex -5.752 8.681 2.286
 endloop
endfacet
facet normal -0.5 0.866 0
 outer loop
  vertex -5.752 8.681 0
  vertex -5.752 8.681 2.286
  vertex -4.642 9.322 0
 endloop
endfacet
facet normal -0.5 0.866 0
 outer loop
  vertex -4.642 9.322 0
  vertex -5.752 8.681 2.286
  vertex -4.642 9.322 2.286
 endloop
endfacet
facet normal -0.39 0.921 0
 outer loop
  vertex -4.642 9.322 0
  vertex -4.642 9.322 2.286
  vertex -3.461 9.822 0
 endloop
endfacet
facet normal -0.39 0.921 0
 outer loop
  vertex -3.461 9.822 0
  vertex -4.642 9.322 2.286
  vertex -3.461 9.822 2.286
 endloop
endfacet
facet normal -0.274 0.962 0
 outer loop
  vertex -3.461 9.822 0
  vertex -3.461 9.822 2.286
  vertex -2.228 10.173 0
 endloop
endfacet
facet normal -0.274 0.962 0
 outer loop
  vertex -2.228 10.173 0
  vertex -3.461 9.822 2.286
  vertex -2.228 10.173 2.286
 endloop
endfacet
facet normal -0.153 0.988 0
 outer loop
  vertex -2.228 10.173 0
  vertex -2.228 10.173 2.286
  vertex -0.961 10.37 0
 endloop
endfacet
facet normal -0.153 0.988 0
 outer loop
  vertex -0.961 10.37 0
  vertex -2.228 10.173 2.286
  vertex -0.961 10.37 2.286
 endloop
endfacet
facet normal -0.031 1 0
 outer loop
  vertex -0.961 10.37 0
  vertex -0.961 10.37 2.286
  vertex 0.321 10.409 0
 endloop
endfacet
facet normal -0.031 1 0
 outer loop
  vertex 0.321 10.409 0
  vertex -0.961 10.37 2.286
  vertex 0.321 10.409 2.286
 endloop
endfacet
facet normal 0.092 0.996 -0
 outer loop
  vertex 0.321 10.409 0
  vertex 0.321 10.409 2.286
  vertex 1.597 10.291 0
 endloop
endfacet
facet normal 0.092 0.996 -0
 outer loop
  vertex 1.597 10.291 0
  vertex 0.321 10.409 2.286
  vertex 1.597 10.291 2.286
 endloop
endfacet
facet normal 0.214 0.977 -0
 outer loop
  vertex 1.597 10.291 0
  vertex 1.597 10.291 2.286
  vertex 2.85 10.017 0
 endloop
endfacet
facet normal 0.214 0.977 -0
 outer loop
  vertex 2.85 10.017 0
  vertex 1.597 10.291 2.286
  vertex 2.85 10.017 2.286
 endloop
endfacet
facet normal 0.332 0.943 -0
 outer loop
  vertex 2.85 10.017 0
  vertex 2.85 10.017 2.286
  vertex 4.059 9.59 0
 endloop
endfacet
facet normal 0.332 0.943 -0
 outer loop
  vertex 4.059 9.59 0
  vertex 2.85 10.017 2.286
  vertex 4.059 9.59 2.286
 endloop
endfacet
facet normal 0.446 0.895 -0
 outer loop
  vertex 4.059 9.59 0
  vertex 4.059 9.59 2.286
  vertex 5.207 9.019 0
 endloop
endfacet
facet normal 0.446 0.895 -0
 outer loop
  vertex 5.207 9.019 0
  vertex 4.059 9.59 2.286
  vertex 5.207 9.019 2.286
 endloop
endfacet
facet normal 0.552 0.834 -0
 outer loop
  vertex 5.207 9.019 0
  vertex 5.207 9.019 2.286
  vertex 6.276 8.311 0
 endloop
endfacet
facet normal 0.552 0.834 -0
 outer loop
  vertex 6.276 8.311 0
  vertex 5.207 9.019 2.286
  vertex 6.276 8.311 2.286
 endloop
endfacet
facet normal 0.651 0.759 -0
 outer loop
  vertex 6.276 8.311 0
  vertex 6.276 8.311 2.286
  vertex 7.25 7.476 0
 endloop
endfacet
facet normal 0.651 0.759 -0
 outer loop
  vertex 7.25 7.476 0
  vertex 6.276 8.311 2.286
  vertex 7.25 7.476 2.286
 endloop
endfacet
facet normal 0.739 0.674 -0
 outer loop
  vertex 7.25 7.476 0
  vertex 7.25 7.476 2.286
  vertex 8.113 6.529 0
 endloop
endfacet
facet normal 0.739 0.674 -0
 outer loop
  vertex 8.113 6.529 0
  vertex 7.25 7.476 2.286
  vertex 8.113 6.529 2.286
 endloop
endfacet
facet normal 0.816 0.578 -0
 outer loop
  vertex 8.113 6.529 0
  vertex 8.113 6.529 2.286
  vertex 8.854 5.482 0
 endloop
endfacet
facet normal 0.816 0.578 -0
 outer loop
  vertex 8.854 5.482 0
  vertex 8.113 6.529 2.286
  vertex 8.854 5.482 2.286
 endloop
endfacet
facet normal 0.881 0.473 -0
 outer loop
  vertex 8.854 5.482 0
  vertex 8.854 5.482 2.286
  vertex 9.461 4.353 0
 endloop
endfacet
facet normal 0.881 0.473 -0
 outer loop
  vertex 9.461 4.353 0
  vertex 8.854 5.482 2.286
  vertex 9.461 4.353 2.286
 endloop
endfacet
facet normal 0.932 0.361 -0
 outer loop
  vertex 9.461 4.353 0
  vertex 9.461 4.353 2.286
  vertex 9.924 3.157 0
 endloop
endfacet
facet normal 0.932 0.361 -0
 outer loop
  vertex 9.924 3.157 0
  vertex 9.461 4.353 2.286
  vertex 9.924 3.157 2.286
 endloop
endfacet
facet normal 0.97 0.244 -0
 outer loop
  vertex 9.924 3.157 0
  vertex 9.924 3.157 2.286
  vertex 10.237 1.914 0
 endloop
endfacet
facet normal 0.97 0.244 -0
 outer loop
  vertex 10.237 1.914 0
  vertex 9.924 3.157 2.286
  vertex 10.237 1.914 2.286
 endloop
endfacet
facet normal 0.992 0.123 -0
 outer loop
  vertex 10.237 1.914 0
  vertex 10.237 1.914 2.286
  vertex 10.394 0.641 0
 endloop
endfacet
facet normal 0.992 0.123 -0
 outer loop
  vertex 10.394 0.641 0
  vertex 10.237 1.914 2.286
  vertex 10.394 0.641 2.286
 endloop
endfacet
facet normal 0 0 -1
 outer loop
  vertex 6.376 -0.393 0
  vertex 6.388 0 0
  vertex 10.414 0 0
 endloop
endfacet
facet normal 0 0 -1
 outer loop
  vertex 10.414 0 0
  vertex 6.388 0 0
  vertex 6.376 0.393 0
 endloop
endfacet
facet normal 0 0 -1
 outer loop
  vertex 10.414 0 0
  vertex 6.376 0.393 0
  vertex 10.394 0.641 0
 endloop
endfacet
facet normal -0 0 -1
 outer loop
  vertex 10.394 0.641 0
  vertex 6.376 0.393 0
  vertex 6.279 1.174 0
 endloop
endfacet
facet normal 0 0 -1
 outer loop
  vertex 10.394 0.641 0
  vertex 6.279 1.174 0
  vertex 10.237 1.914 0
 endloop
endfacet
facet normal -0 0 -1
 outer loop
  vertex 10.237 1.914 0
  vertex 6.279 1.174 0
  vertex 6.087 1.937 0
 endloop
endfacet
facet normal 0 0 -1
 outer loop
  vertex 10.237 1.914 0
  vertex 6.087 1.937 0
  vertex 9.924 3.157 0
 endloop
endfacet
facet normal 0 0 -1
 outer loop
  vertex 9.924 3.157 0
  vertex 6.087 1.937 0
  vertex 5.803 2.67 0
 endloop
endfacet
facet normal -0 0 -1
 outer loop
  vertex 9.924 3.157 0
  vertex 5.803 2.67 0
  vertex 9.461 4.353 0
 endloop
endfacet
facet normal 0 0 -1
 outer loop
  vertex 9.461 4.353 0
  vertex 5.803 2.67 0
  vertex 5.431 3.363 0
 endloop
endfacet
facet normal -0 0 -1
 outer loop
  vertex 9.461 4.353 0
  vertex 5.431 3.363 0
  vertex 8.854 5.482 0
 endloop
endfacet
facet normal 0 0 -1
 outer loop
  vertex 8.854 5.482 0
  vertex 5.431 3.363 0
  vertex 4.977 4.005 0
 endloop
endfacet
facet normal -0 0 -1
 outer loop
  vertex 8.854 5.482 0
  vertex 4.977 4.005 0
  vertex 8.113 6.529 0
 endloop
endfacet
facet normal 0 0 -1
 outer loop
  vertex 8.113 6.529 0
  vertex 4.977 4.005 0
  vertex 4.447 4.586 0
 endloop
endfacet
facet normal -0 0 -1
 outer loop
  vertex 8.113 6.529 0
  vertex 4.447 4.586 0
  vertex 7.25 7.476 0
 endloop
endfacet
facet normal 0 0 -1
 outer loop
  vertex 7.25 7.476 0
  vertex 4.447 4.586 0
  vertex 3.85 5.098 0
 endloop
endfacet
facet normal -0 0 -1
 outer loop
  vertex 7.25 7.476 0
  vertex 3.85 5.098 0
  vertex 6.276 8.311 0
 endloop
endfacet
facet normal 0 0 -1
 outer loop
  vertex 6.276 8.311 0
  vertex 3.85 5.098 0
  vertex 3.194 5.532 0
 endloop
endfacet
facet normal -0 0 -1
 outer loop
  vertex 6.276 8.311 0
  vertex 3.194 5.532 0
  vertex 5.207 9.019 0
 endloop
endfacet
facet normal 0 0 -1
 outer loop
  vertex 5.207 9.019 0
  vertex 3.194 5.532 0
  vertex 2.49 5.883 0
 endloop
endfacet
facet normal -0 0 -1
 outer loop
  vertex 5.207 9.019 0
  vertex 2.49 5.883 0
  vertex 4.059 9.59 0
 endloop
endfacet
facet normal 0 0 -1
 outer loop
  vertex 4.059 9.59 0
  vertex 2.49 5.883 0
  vertex 1.748 6.144 0
 endloop
endfacet
facet normal -0 0 -1
 outer loop
  vertex 4.059 9.59 0
  vertex 1.748 6.144 0
  vertex 2.85 10.017 0
 endloop
endfacet
facet normal 0 0 -1
 outer loop
  vertex 2.85 10.017 0
  vertex 1.748 6.144 0
  vertex 0.98 6.313 0
 endloop
endfacet
facet normal -0 0 -1
 outer loop
  vertex 2.85 10.017 0
  vertex 0.98 6.313 0
  vertex 1.597 10.291 0
 endloop
endfacet
facet normal 0 0 -1
 outer loop
  vertex 1.597 10.291 0
  vertex 0.98 6.313 0
  vertex 0.197 6.385 0
 endloop
endfacet
facet normal -0 0 -1
 outer loop
  vertex 1.597 10.291 0
  vertex 0.197 6.385 0
  vertex 0.321 10.409 0
 endloop
endfacet
facet normal 0 0 -1
 outer loop
  vertex 0.321 10.409 0
  vertex 0.197 6.385 0
  vertex -0.961 10.37 0
 endloop
endfacet
facet normal -0 0 -1
 outer loop
  vertex 0.197 6.385 0
  vertex -0.589 6.361 0
  vertex -0.961 10.37 0
 endloop
endfacet
facet normal 0 -0 -1
 outer loop
  vertex -0.961 10.37 0
  vertex -0.589 6.361 0
  vertex -2.228 10.173 0
 endloop
endfacet
facet normal -0 0 -1
 outer loop
  vertex -0.589 6.361 0
  vertex -1.367 6.24 0
  vertex -2.228 10.173 0
 endloop
endfacet
facet normal 0 -0 -1
 outer loop
  vertex -2.228 10.173 0
  vertex -1.367 6.24 0
  vertex -3.461 9.822 0
 endloop
endfacet
facet normal -0 0 -1
 outer loop
  vertex -1.367 6.24 0
  vertex -2.123 6.025 0
  vertex -3.461 9.822 0
 endloop
endfacet
facet normal 0 -0 -1
 outer loop
  vertex -3.461 9.822 0
  vertex -2.123 6.025 0
  vertex -4.642 9.322 0
 endloop
endfacet
facet normal -0 0 -1
 outer loop
  vertex -2.123 6.025 0
  vertex -2.847 5.718 0
  vertex -4.642 9.322 0
 endloop
endfacet
facet normal 0 -0 -1
 outer loop
  vertex -4.642 9.322 0
  vertex -2.847 5.718 0
  vertex -5.752 8.681 0
 endloop
endfacet
facet normal -0 0 -1
 outer loop
  vertex -2.847 5.718 0
  vertex -3.529 5.325 0
  vertex -5.752 8.681 0
 endloop
endfacet
facet normal 0 -0 -1
 outer loop
  vertex -5.752 8.681 0
  vertex -3.529 5.325 0
  vertex -6.776 7.908 0
 endloop
endfacet
facet normal -0 0 -1
 outer loop
  vertex -3.529 5.325 0
  vertex -4.156 4.851 0
  vertex -6.776 7.908 0
 endloop
endfacet
facet normal 0 -0 -1
 outer loop
  vertex -6.776 7.908 0
  vertex -4.156 4.851 0
  vertex -7.696 7.016 0
 endloop
endfacet
facet normal -0 0 -1
 outer loop
  vertex -4.156 4.851 0
  vertex -4.721 4.304 0
  vertex -7.696 7.016 0
 endloop
endfacet
facet normal 0 -0 -1
 outer loop
  vertex -7.696 7.016 0
  vertex -4.721 4.304 0
  vertex -8.5 6.017 0
 endloop
endfacet
facet normal -0 0 -1
 outer loop
  vertex -4.721 4.304 0
  vertex -5.214 3.691 0
  vertex -8.5 6.017 0
 endloop
endfacet
facet normal 0 -0 -1
 outer loop
  vertex -8.5 6.017 0
  vertex -5.214 3.691 0
  vertex -9.175 4.927 0
 endloop
endfacet
facet normal -0 0 -1
 outer loop
  vertex -5.214 3.691 0
  vertex -5.628 3.022 0
  vertex -9.175 4.927 0
 endloop
endfacet
facet normal 0 -0 -1
 outer loop
  vertex -9.175 4.927 0
  vertex -5.628 3.022 0
  vertex -9.711 3.762 0
 endloop
endfacet
facet normal -0 0 -1
 outer loop
  vertex -5.628 3.022 0
  vertex -5.957 2.308 0
  vertex -9.711 3.762 0
 endloop
endfacet
facet normal 0 -0 -1
 outer loop
  vertex -9.711 3.762 0
  vertex -5.957 2.308 0
  vertex -10.1 2.54 0
 endloop
endfacet
facet normal -0 0 -1
 outer loop
  vertex -5.957 2.308 0
  vertex -6.195 1.558 0
  vertex -10.1 2.54 0
 endloop
endfacet
facet normal 0 -0 -1
 outer loop
  vertex -10.1 2.54 0
  vertex -6.195 1.558 0
  vertex -10.335 1.28 0
 endloop
endfacet
facet normal 0 0 -1
 outer loop
  vertex -6.195 1.558 0
  vertex -6.34 0.785 0
  vertex -10.335 1.28 0
 endloop
endfacet
facet normal 0 -0 -1
 outer loop
  vertex -10.335 1.28 0
  vertex -6.34 0.785 0
  vertex -10.414 -0 0
 endloop
endfacet
facet normal 0 0 -1
 outer loop
  vertex -6.34 0.785 0
  vertex -6.388 0 0
  vertex -10.414 -0 0
 endloop
endfacet
facet normal 0 0 -1
 outer loop
  vertex -10.414 -0 0
  vertex -6.388 0 0
  vertex -10.335 -1.28 0
 endloop
endfacet
facet normal 0 -0 -1
 outer loop
  vertex -6.388 0 0
  vertex -6.34 -0.785 0
  vertex -10.335 -1.28 0
 endloop
endfacet
facet normal 0 0 -1
 outer loop
  vertex -10.335 -1.28 0
  vertex -6.34 -0.785 0
  vertex -6.195 -1.558 0
 endloop
endfacet
facet normal 0 0 -1
 outer loop
  vertex -10.335 -1.28 0
  vertex -6.195 -1.558 0
  vertex -10.1 -2.54 0
 endloop
endfacet
facet normal 0 0 -1
 outer loop
  vertex -10.1 -2.54 0
  vertex -6.195 -1.558 0
  vertex -5.957 -2.308 0
 endloop
endfacet
facet normal 0 0 -1
 outer loop
  vertex -10.1 -2.54 0
  vertex -5.957 -2.308 0
  vertex -9.711 -3.762 0
 endloop
endfacet
facet normal 0 0 -1
 outer loop
  vertex -9.711 -3.762 0
  vertex -5.957 -2.308 0
  vertex -5.628 -3.022 0
 endloop
endfacet
facet normal 0 0 -1
 outer loop
  vertex -9.711 -3.762 0
  vertex -5.628 -3.022 0
  vertex -9.175 -4.927 0
 endloop
endfacet
facet normal 0 0 -1
 outer loop
  vertex -9.175 -4.927 0
  vertex -5.628 -3.022 0
  vertex -5.214 -3.691 0
 endloop
endfacet
facet normal 0 0 -1
 outer loop
  vertex -9.175 -4.927 0
  vertex -5.214 -3.691 0
  vertex -8.5 -6.017 0
 endloop
endfacet
facet normal 0 0 -1
 outer loop
  vertex -8.5 -6.017 0
  vertex -5.214 -3.691 0
  vertex -4.721 -4.304 0
 endloop
endfacet
facet normal 0 0 -1
 outer loop
  vertex -8.5 -6.017 0
  vertex -4.721 -4.304 0
  vertex -7.696 -7.016 0
 endloop
endfacet
facet normal 0 0 -1
 outer loop
  vertex -7.696 -7.016 0
  vertex -4.721 -4.304 0
  vertex -4.156 -4.851 0
 endloop
endfacet
facet normal 0 0 -1
 outer loop
  vertex -7.696 -7.016 0
  vertex -4.156 -4.851 0
  vertex -6.776 -7.908 0
 endloop
endfacet
facet normal 0 0 -1
 outer loop
  vertex -6.776 -7.908 0
  vertex -4.156 -4.851 0
  vertex -3.529 -5.325 0
 endloop
endfacet
facet normal 0 0 -1
 outer loop
  vertex -6.776 -7.908 0
  vertex -3.529 -5.325 0
  vertex -5.752 -8.681 0
 endloop
endfacet
facet normal 0 0 -1
 outer loop
  vertex -5.752 -8.681 0
  vertex -3.529 -5.325 0
  vertex -2.847 -5.718 0
 endloop
endfacet
facet normal 0 0 -1
 outer loop
  vertex -5.752 -8.681 0
  vertex -2.847 -5.718 0
  vertex -4.642 -9.322 0
 endloop
endfacet
facet normal 0 0 -1
 outer loop
  vertex -4.642 -9.322 0
  vertex -2.847 -5.718 0
  vertex -2.123 -6.025 0
 endloop
endfacet
facet normal 0 0 -1
 outer loop
  vertex -4.642 -9.322 0
  vertex -2.123 -6.025 0
  vertex -3.461 -9.822 0
 endloop
endfacet
facet normal 0 0 -1
 outer loop
  vertex -3.461 -9.822 0
  vertex -2.123 -6.025 0
  vertex -1.367 -6.24 0
 endloop
endfacet
facet normal 0 0 -1
 outer loop
  vertex -3.461 -9.822 0
  vertex -1.367 -6.24 0
  vertex -2.228 -10.173 0
 endloop
endfacet
facet normal 0 0 -1
 outer loop
  vertex -2.228 -10.173 0
  vertex -1.367 -6.24 0
  vertex -0.589 -6.361 0
 endloop
endfacet
facet normal 0 0 -1
 outer loop
  vertex -2.228 -10.173 0
  vertex -0.589 -6.361 0
  vertex -0.961 -10.37 0
 endloop
endfacet
facet normal 0 0 -1
 outer loop
  vertex -0.961 -10.37 0
  vertex -0.589 -6.361 0
  vertex 0.197 -6.385 0
 endloop
endfacet
facet normal 0 0 -1
 outer loop
  vertex -0.961 -10.37 0
  vertex 0.197 -6.385 0
  vertex 0.321 -10.409 0
 endloop
endfacet
facet normal 0 0 -1
 outer loop
  vertex 0.321 -10.409 0
  vertex 0.197 -6.385 0
  vertex 1.597 -10.291 0
 endloop
endfacet
facet normal 0 0 -1
 outer loop
  vertex 0.197 -6.385 0
  vertex 0.98 -6.313 0
  vertex 1.597 -10.291 0
 endloop
endfacet
facet normal 0 0 -1
 outer loop
  vertex 1.597 -10.291 0
  vertex 0.98 -6.313 0
  vertex 2.85 -10.017 0
 endloop
endfacet
facet normal 0 0 -1
 outer loop
  vertex 0.98 -6.313 0
  vertex 1.748 -6.144 0
  vertex 2.85 -10.017 0
 endloop
endfacet
facet normal 0 0 -1
 outer loop
  vertex 2.85 -10.017 0
  vertex 1.748 -6.144 0
  vertex 4.059 -9.59 0
 endloop
endfacet
facet normal 0 0 -1
 outer loop
  vertex 1.748 -6.144 0
  vertex 2.49 -5.883 0
  vertex 4.059 -9.59 0
 endloop
endfacet
facet normal 0 0 -1
 outer loop
  vertex 4.059 -9.59 0
  vertex 2.49 -5.883 0
  vertex 5.207 -9.019 0
 endloop
endfacet
facet normal 0 0 -1
 outer loop
  vertex 2.49 -5.883 0
  vertex 3.194 -5.532 0
  vertex 5.207 -9.019 0
 endloop
endfacet
facet normal 0 0 -1
 outer loop
  vertex 5.207 -9.019 0
  vertex 3.194 -5.532 0
  vertex 6.276 -8.311 0
 endloop
endfacet
facet normal 0 0 -1
 outer loop
  vertex 3.194 -5.532 0
  vertex 3.85 -5.098 0
  vertex 6.276 -8.311 0
 endloop
endfacet
facet normal 0 0 -1
 outer loop
  vertex 6.276 -8.311 0
  vertex 3.85 -5.098 0
  vertex 7.25 -7.476 0
 endloop
endfacet
facet normal 0 0 -1
 outer loop
  vertex 3.85 -5.098 0
  vertex 4.447 -4.586 0
  vertex 7.25 -7.476 0
 endloop
endfacet
facet normal 0 0 -1
 outer loop
  vertex 7.25 -7.476 0
  vertex 4.447 -4.586 0
  vertex 8.113 -6.529 0
 endloop
endfacet
facet normal 0 0 -1
 outer loop
  vertex 4.447 -4.586 0
  vertex 4.977 -4.005 0
  vertex 8.113 -6.529 0
 endloop
endfacet
facet normal 0 0 -1
 outer loop
  vertex 8.113 -6.529 0
  vertex 4.977 -4.005 0
  vertex 8.854 -5.482 0
 endloop
endfacet
facet normal 0 0 -1
 outer loop
  vertex 4.977 -4.005 0
  vertex 5.431 -3.363 0
  vertex 8.854 -5.482 0
 endloop
endfacet
facet normal 0 0 -1
 outer loop
  vertex 8.854 -5.482 0
  vertex 5.431 -3.363 0
  vertex 9.461 -4.353 0
 endloop
endfacet
facet normal 0 0 -1
 outer loop
  vertex 5.431 -3.363 0
  vertex 5.803 -2.67 0
  vertex 9.461 -4.353 0
 endloop
endfacet
facet normal 0 0 -1
 outer loop
  vertex 9.461 -4.353 0
  vertex 5.803 -2.67 0
  vertex 9.924 -3.157 0
 endloop
endfacet
facet normal 0 0 -1
 outer loop
  vertex 5.803 -2.67 0
  vertex 6.087 -1.937 0
  vertex 9.924 -3.157 0
 endloop
endfacet
facet normal 0 0 -1
 outer loop
  vertex 9.924 -3.157 0
  vertex 6.087 -1.937 0
  vertex 10.237 -1.914 0
 endloop
endfacet
facet normal 0 0 -1
 outer loop
  vertex 6.087 -1.937 0
  vertex 6.279 -1.174 0
  vertex 10.237 -1.914 0
 endloop
endfacet
facet normal 0 0 -1
 outer loop
  vertex 10.237 -1.914 0
  vertex 6.279 -1.174 0
  vertex 10.394 -0.641 0
 endloop
endfacet
facet normal 0 0 -1
 outer loop
  vertex 6.279 -1.174 0
  vertex 6.376 -0.393 0
  vertex 10.394 -0.641 0
 endloop
endfacet
facet normal 0 0 -1
 outer loop
  vertex 10.394 -0.641 0
  vertex 6.376 -0.393 0
  vertex 10.414 0 0
 endloop
endfacet
facet normal -0 0 1
 outer loop
  vertex 6.376 -0.393 2.286
  vertex 10.394 -0.641 2.286
  vertex 6.388 0 2.286
 endloop
endfacet
facet normal -0 0 1
 outer loop
  vertex 6.388 0 2.286
  vertex 10.394 -0.641 2.286
  vertex 10.414 0 2.286
 endloop
endfacet
facet normal 0 -0 1
 outer loop
  vertex 6.388 0 2.286
  vertex 10.414 0 2.286
  vertex 6.376 0.393 2.286
 endloop
endfacet
facet normal -0 0 1
 outer loop
  vertex 6.376 0.393 2.286
  vertex 10.414 0 2.286
  vertex 10.394 0.641 2.286
 endloop
endfacet
facet normal 0 -0 1
 outer loop
  vertex 6.376 0.393 2.286
  vertex 10.394 0.641 2.286
  vertex 6.279 1.174 2.286
 endloop
endfacet
facet normal -0 0 1
 outer loop
  vertex 6.279 1.174 2.286
  vertex 10.394 0.641 2.286
  vertex 10.237 1.914 2.286
 endloop
endfacet
facet normal 0 -0 1
 outer loop
  vertex 6.279 1.174 2.286
  vertex 10.237 1.914 2.286
  vertex 6.087 1.937 2.286
 endloop
endfacet
facet normal -0 0 1
 outer loop
  vertex 6.087 1.937 2.286
  vertex 10.237 1.914 2.286
  vertex 9.924 3.157 2.286
 endloop
endfacet
facet normal 0 -0 1
 outer loop
  vertex 6.087 1.937 2.286
  vertex 9.924 3.157 2.286
  vertex 5.803 2.67 2.286
 endloop
endfacet
facet normal 0 0 1
 outer loop
  vertex 5.803 2.67 2.286
  vertex 9.924 3.157 2.286
  vertex 9.461 4.353 2.286
 endloop
endfacet
facet normal 0 -0 1
 outer loop
  vertex 5.803 2.67 2.286
  vertex 9.461 4.353 2.286
  vertex 5.431 3.363 2.286
 endloop
endfacet
facet normal 0 0 1
 outer loop
  vertex 5.431 3.363 2.286
  vertex 9.461 4.353 2.286
  vertex 8.854 5.482 2.286
 endloop
endfacet
facet normal 0 -0 1
 outer loop
  vertex 5.431 3.363 2.286
  vertex 8.854 5.482 2.286
  vertex 4.977 4.005 2.286
 endloop
endfacet
facet normal 0 0 1
 outer loop
  vertex 4.977 4.005 2.286
  vertex 8.854 5.482 2.286
  vertex 8.113 6.529 2.286
 endloop
endfacet
facet normal 0 -0 1
 outer loop
  vertex 4.977 4.005 2.286
  vertex 8.113 6.529 2.286
  vertex 4.447 4.586 2.286
 endloop
endfacet
facet normal 0 0 1
 outer loop
  vertex 4.447 4.586 2.286
  vertex 8.113 6.529 2.286
  vertex 7.25 7.476 2.286
 endloop
endfacet
facet normal 0 -0 1
 outer loop
  vertex 4.447 4.586 2.286
  vertex 7.25 7.476 2.286
  vertex 3.85 5.098 2.286
 endloop
endfacet
facet normal 0 0 1
 outer loop
  vertex 3.85 5.098 2.286
  vertex 7.25 7.476 2.286
  vertex 6.276 8.311 2.286
 endloop
endfacet
facet normal 0 -0 1
 outer loop
  vertex 3.85 5.098 2.286
  vertex 6.276 8.311 2.286
  vertex 3.194 5.532 2.286
 endloop
endfacet
facet normal 0 0 1
 outer loop
  vertex 3.194 5.532 2.286
  vertex 6.276 8.311 2.286
  vertex 5.207 9.019 2.286
 endloop
endfacet
facet normal 0 -0 1
 outer loop
  vertex 3.194 5.532 2.286
  vertex 5.207 9.019 2.286
  vertex 2.49 5.883 2.286
 endloop
endfacet
facet normal 0 0 1
 outer loop
  vertex 2.49 5.883 2.286
  vertex 5.207 9.019 2.286
  vertex 4.059 9.59 2.286
 endloop
endfacet
facet normal 0 -0 1
 outer loop
  vertex 2.49 5.883 2.286
  vertex 4.059 9.59 2.286
  vertex 1.748 6.144 2.286
 endloop
endfacet
facet normal 0 0 1
 outer loop
  vertex 1.748 6.144 2.286
  vertex 4.059 9.59 2.286
  vertex 2.85 10.017 2.286
 endloop
endfacet
facet normal 0 -0 1
 outer loop
  vertex 1.748 6.144 2.286
  vertex 2.85 10.017 2.286
  vertex 0.98 6.313 2.286
 endloop
endfacet
facet normal 0 0 1
 outer loop
  vertex 0.98 6.313 2.286
  vertex 2.85 10.017 2.286
  vertex 1.597 10.291 2.286
 endloop
endfacet
facet normal 0 -0 1
 outer loop
  vertex 0.98 6.313 2.286
  vertex 1.597 10.291 2.286
  vertex 0.197 6.385 2.286
 endloop
endfacet
facet normal 0 0 1
 outer loop
  vertex 0.197 6.385 2.286
  vertex 1.597 10.291 2.286
  vertex 0.321 10.409 2.286
 endloop
endfacet
facet normal 0 -0 1
 outer loop
  vertex 0.197 6.385 2.286
  vertex 0.321 10.409 2.286
  vertex -0.961 10.37 2.286
 endloop
endfacet
facet normal 0 0 1
 outer loop
  vertex 6.376 -0.393 2.286
  vertex 6.279 -1.174 2.286
  vertex 10.394 -0.641 2.286
 endloop
endfacet
facet normal 0 0 1
 outer loop
  vertex 10.394 -0.641 2.286
  vertex 6.279 -1.174 2.286
  vertex 10.237 -1.914 2.286
 endloop
endfacet
facet normal 0 0 1
 outer loop
  vertex 6.279 -1.174 2.286
  vertex 6.087 -1.937 2.286
  vertex 10.237 -1.914 2.286
 endloop
endfacet
facet normal 0 0 1
 outer loop
  vertex 10.237 -1.914 2.286
  vertex 6.087 -1.937 2.286
  vertex 9.924 -3.157 2.286
 endloop
endfacet
facet normal 0 0 1
 outer loop
  vertex 6.087 -1.937 2.286
  vertex 5.803 -2.67 2.286
  vertex 9.924 -3.157 2.286
 endloop
endfacet
facet normal 0 0 1
 outer loop
  vertex 9.924 -3.157 2.286
  vertex 5.803 -2.67 2.286
  vertex 9.461 -4.353 2.286
 endloop
endfacet
facet normal 0 0 1
 outer loop
  vertex 5.803 -2.67 2.286
  vertex 5.431 -3.363 2.286
  vertex 9.461 -4.353 2.286
 endloop
endfacet
facet normal 0 0 1
 outer loop
  vertex 9.461 -4.353 2.286
  vertex 5.431 -3.363 2.286
  vertex 8.854 -5.482 2.286
 endloop
endfacet
facet normal 0 0 1
 outer loop
  vertex 5.431 -3.363 2.286
  vertex 4.977 -4.005 2.286
  vertex 8.854 -5.482 2.286
 endloop
endfacet
facet normal 0 0 1
 outer loop
  vertex 8.854 -5.482 2.286
  vertex 4.977 -4.005 2.286
  vertex 8.113 -6.529 2.286
 endloop
endfacet
facet normal 0 0 1
 outer loop
  vertex 4.977 -4.005 2.286
  vertex 4.447 -4.586 2.286
  vertex 8.113 -6.529 2.286
 endloop
endfacet
facet normal 0 0 1
 outer loop
  vertex 8.113 -6.529 2.286
  vertex 4.447 -4.586 2.286
  vertex 7.25 -7.476 2.286
 endloop
endfacet
facet normal 0 0 1
 outer loop
  vertex 4.447 -4.586 2.286
  vertex 3.85 -5.098 2.286
  vertex 7.25 -7.476 2.286
 endloop
endfacet
facet normal 0 0 1
 outer loop
  vertex 7.25 -7.476 2.286
  vertex 3.85 -5.098 2.286
  vertex 6.276 -8.311 2.286
 endloop
endfacet
facet normal 0 0 1
 outer loop
  vertex 3.85 -5.098 2.286
  vertex 3.194 -5.532 2.286
  vertex 6.276 -8.311 2.286
 endloop
endfacet
facet normal 0 0 1
 outer loop
  vertex 6.276 -8.311 2.286
  vertex 3.194 -5.532 2.286
  vertex 5.207 -9.019 2.286
 endloop
endfacet
facet normal 0 0 1
 outer loop
  vertex 3.194 -5.532 2.286
  vertex 2.49 -5.883 2.286
  vertex 5.207 -9.019 2.286
 endloop
endfacet
facet normal 0 0 1
 outer loop
  vertex 5.207 -9.019 2.286
  vertex 2.49 -5.883 2.286
  vertex 4.059 -9.59 2.286
 endloop
endfacet
facet normal 0 0 1
 outer loop
  vertex 2.49 -5.883 2.286
  vertex 1.748 -6.144 2.286
  vertex 4.059 -9.59 2.286
 endloop
endfacet
facet normal 0 0 1
 outer loop
  vertex 4.059 -9.59 2.286
  vertex 1.748 -6.144 2.286
  vertex 2.85 -10.017 2.286
 endloop
endfacet
facet normal 0 0 1
 outer loop
  vertex 1.748 -6.144 2.286
  vertex 0.98 -6.313 2.286
  vertex 2.85 -10.017 2.286
 endloop
endfacet
facet normal 0 0 1
 outer loop
  vertex 2.85 -10.017 2.286
  vertex 0.98 -6.313 2.286
  vertex 1.597 -10.291 2.286
 endloop
endfacet
facet normal 0 0 1
 outer loop
  vertex 0.98 -6.313 2.286
  vertex 0.197 -6.385 2.286
  vertex 1.597 -10.291 2.286
 endloop
endfacet
facet normal 0 0 1
 outer loop
  vertex 1.597 -10.291 2.286
  vertex 0.197 -6.385 2.286
  vertex 0.321 -10.409 2.286
 endloop
endfacet
facet normal 0 0 1
 outer loop
  vertex 0.321 -10.409 2.286
  vertex 0.197 -6.385 2.286
  vertex -0.961 -10.37 2.286
 endloop
endfacet
facet normal 0 0 1
 outer loop
  vertex -0.961 -10.37 2.286
  vertex 0.197 -6.385 2.286
  vertex -0.589 -6.361 2.286
 endloop
endfacet
facet normal 0 -0 1
 outer loop
  vertex -0.961 -10.37 2.286
  vertex -0.589 -6.361 2.286
  vertex -2.228 -10.173 2.286
 endloop
endfacet
facet normal 0 0 1
 outer loop
  vertex -2.228 -10.173 2.286
  vertex -0.589 -6.361 2.286
  vertex -1.367 -6.24 2.286
 endloop
endfacet
facet normal 0 -0 1
 outer loop
  vertex -2.228 -10.173 2.286
  vertex -1.367 -6.24 2.286
  vertex -3.461 -9.822 2.286
 endloop
endfacet
facet normal 0 0 1
 outer loop
  vertex -3.461 -9.822 2.286
  vertex -1.367 -6.24 2.286
  vertex -2.123 -6.025 2.286
 endloop
endfacet
facet normal 0 -0 1
 outer loop
  vertex -3.461 -9.822 2.286
  vertex -2.123 -6.025 2.286
  vertex -4.642 -9.322 2.286
 endloop
endfacet
facet normal 0 0 1
 outer loop
  vertex -4.642 -9.322 2.286
  vertex -2.123 -6.025 2.286
  vertex -2.847 -5.718 2.286
 endloop
endfacet
facet normal 0 -0 1
 outer loop
  vertex -4.642 -9.322 2.286
  vertex -2.847 -5.718 2.286
  vertex -5.752 -8.681 2.286
 endloop
endfacet
facet normal 0 0 1
 outer loop
  vertex -5.752 -8.681 2.286
  vertex -2.847 -5.718 2.286
  vertex -3.529 -5.325 2.286
 endloop
endfacet
facet normal 0 -0 1
 outer loop
  vertex -5.752 -8.681 2.286
  vertex -3.529 -5.325 2.286
  vertex -6.776 -7.908 2.286
 endloop
endfacet
facet normal 0 0 1
 outer loop
  vertex -6.776 -7.908 2.286
  vertex -3.529 -5.325 2.286
  vertex -4.156 -4.851 2.286
 endloop
endfacet
facet normal 0 -0 1
 outer loop
  vertex -6.776 -7.908 2.286
  vertex -4.156 -4.851 2.286
  vertex -7.696 -7.016 2.286
 endloop
endfacet
facet normal 0 0 1
 outer loop
  vertex -7.696 -7.016 2.286
  vertex -4.156 -4.851 2.286
  vertex -4.721 -4.304 2.286
 endloop
endfacet
facet normal 0 -0 1
 outer loop
  vertex -7.696 -7.016 2.286
  vertex -4.721 -4.304 2.286
  vertex -8.5 -6.017 2.286
 endloop
endfacet
facet normal 0 0 1
 outer loop
  vertex -8.5 -6.017 2.286
  vertex -4.721 -4.304 2.286
  vertex -5.214 -3.691 2.286
 endloop
endfacet
facet normal 0 -0 1
 outer loop
  vertex -8.5 -6.017 2.286
  vertex -5.214 -3.691 2.286
  vertex -9.175 -4.927 2.286
 endloop
endfacet
facet normal 0 0 1
 outer loop
  vertex -9.175 -4.927 2.286
  vertex -5.214 -3.691 2.286
  vertex -5.628 -3.022 2.286
 endloop
endfacet
facet normal 0 -0 1
 outer loop
  vertex -9.175 -4.927 2.286
  vertex -5.628 -3.022 2.286
  vertex -9.711 -3.762 2.286
 endloop
endfacet
facet normal 0 0 1
 outer loop
  vertex -9.711 -3.762 2.286
  vertex -5.628 -3.022 2.286
  vertex -5.957 -2.308 2.286
 endloop
endfacet
facet normal 0 -0 1
 outer loop
  vertex -9.711 -3.762 2.286
  vertex -5.957 -2.308 2.286
  vertex -10.1 -2.54 2.286
 endloop
endfacet
facet normal 0 0 1
 outer loop
  vertex -10.1 -2.54 2.286
  vertex -5.957 -2.308 2.286
  vertex -6.195 -1.558 2.286
 endloop
endfacet
facet normal 0 -0 1
 outer loop
  vertex -10.1 -2.54 2.286
  vertex -6.195 -1.558 2.286
  vertex -10.335 -1.28 2.286
 endloop
endfacet
facet normal -0 0 1
 outer loop
  vertex -10.335 -1.28 2.286
  vertex -6.195 -1.558 2.286
  vertex -6.34 -0.785 2.286
 endloop
endfacet
facet normal 0 -0 1
 outer loop
  vertex -10.335 -1.28 2.286
  vertex -6.34 -0.785 2.286
  vertex -10.414 0 2.286
 endloop
endfacet
facet normal 0 0 1
 outer loop
  vertex -10.414 0 2.286
  vertex -6.34 -0.785 2.286
  vertex -6.388 -0 2.286
 endloop
endfacet
facet normal -0 0 1
 outer loop
  vertex -10.414 0 2.286
  vertex -6.388 -0 2.286
  vertex -6.34 0.785 2.286
 endloop
endfacet
facet normal 0 0 1
 outer loop
  vertex -10.414 0 2.286
  vertex -6.34 0.785 2.286
  vertex -10.335 1.28 2.286
 endloop
endfacet
facet normal -0 0 1
 outer loop
  vertex -10.335 1.28 2.286
  vertex -6.34 0.785 2.286
  vertex -6.195 1.558 2.286
 endloop
endfacet
facet normal 0 0 1
 outer loop
  vertex -10.335 1.28 2.286
  vertex -6.195 1.558 2.286
  vertex -10.1 2.54 2.286
 endloop
endfacet
facet normal 0 0 1
 outer loop
  vertex -10.1 2.54 2.286
  vertex -6.195 1.558 2.286
  vertex -5.957 2.308 2.286
 endloop
endfacet
facet normal -0 0 1
 outer loop
  vertex -10.1 2.54 2.286
  vertex -5.957 2.308 2.286
  vertex -9.711 3.762 2.286
 endloop
endfacet
facet normal 0 0 1
 outer loop
  vertex -9.711 3.762 2.286
  vertex -5.957 2.308 2.286
  vertex -5.628 3.022 2.286
 endloop
endfacet
facet normal -0 0 1
 outer loop
  vertex -9.711 3.762 2.286
  vertex -5.628 3.022 2.286
  vertex -9.175 4.927 2.286
 endloop
endfacet
facet normal 0 0 1
 outer loop
  vertex -9.175 4.927 2.286
  vertex -5.628 3.022 2.286
  vertex -5.214 3.691 2.286
 endloop
endfacet
facet normal -0 0 1
 outer loop
  vertex -9.175 4.927 2.286
  vertex -5.214 3.691 2.286
  vertex -8.5 6.017 2.286
 endloop
endfacet
facet normal 0 0 1
 outer loop
  vertex -8.5 6.017 2.286
  vertex -5.214 3.691 2.286
  vertex -4.721 4.304 2.286
 endloop
endfacet
facet normal -0 0 1
 outer loop
  vertex -8.5 6.017 2.286
  vertex -4.721 4.304 2.286
  vertex -7.696 7.016 2.286
 endloop
endfacet
facet normal 0 0 1
 outer loop
  vertex -7.696 7.016 2.286
  vertex -4.721 4.304 2.286
  vertex -4.156 4.851 2.286
 endloop
endfacet
facet normal -0 0 1
 outer loop
  vertex -7.696 7.016 2.286
  vertex -4.156 4.851 2.286
  vertex -6.776 7.908 2.286
 endloop
endfacet
facet normal 0 0 1
 outer loop
  vertex -6.776 7.908 2.286
  vertex -4.156 4.851 2.286
  vertex -3.529 5.325 2.286
 endloop
endfacet
facet normal -0 0 1
 outer loop
  vertex -6.776 7.908 2.286
  vertex -3.529 5.325 2.286
  vertex -5.752 8.681 2.286
 endloop
endfacet
facet normal 0 0 1
 outer loop
  vertex -5.752 8.681 2.286
  vertex -3.529 5.325 2.286
  vertex -2.847 5.718 2.286
 endloop
endfacet
facet normal -0 0 1
 outer loop
  vertex -5.752 8.681 2.286
  vertex -2.847 5.718 2.286
  vertex -4.642 9.322 2.286
 endloop
endfacet
facet normal 0 0 1
 outer loop
  vertex -4.642 9.322 2.286
  vertex -2.847 5.718 2.286
  vertex -2.123 6.025 2.286
 endloop
endfacet
facet normal -0 0 1
 outer loop
  vertex -4.642 9.322 2.286
  vertex -2.123 6.025 2.286
  vertex -3.461 9.822 2.286
 endloop
endfacet
facet normal 0 0 1
 outer loop
  vertex -3.461 9.822 2.286
  vertex -2.123 6.025 2.286
  vertex -1.367 6.24 2.286
 endloop
endfacet
facet normal -0 0 1
 outer loop
  vertex -3.461 9.822 2.286
  vertex -1.367 6.24 2.286
  vertex -2.228 10.173 2.286
 endloop
endfacet
facet normal 0 0 1
 outer loop
  vertex -2.228 10.173 2.286
  vertex -1.367 6.24 2.286
  vertex -0.589 6.361 2.286
 endloop
endfacet
facet normal -0 0 1
 outer loop
  vertex -2.228 10.173 2.286
  vertex -0.589 6.361 2.286
  vertex -0.961 10.37 2.286
 endloop
endfacet
facet normal 0 0 1
 outer loop
  vertex -0.961 10.37 2.286
  vertex -0.589 6.361 2.286
  vertex 0.197 6.385 2.286
 endloop
endfacet
endsolid CADClick
