solid CADClick
facet normal -1 0.031 0
 outer loop
  vertex 9.634 -0.594 0
  vertex 9.634 -0.594 2.388
  vertex 9.652 0 0
 endloop
endfacet
facet normal -1 0.031 0
 outer loop
  vertex 9.652 0 0
  vertex 9.634 -0.594 2.388
  vertex 9.652 0 2.388
 endloop
endfacet
facet normal -1 -0.031 0
 outer loop
  vertex 9.652 0 0
  vertex 9.652 0 2.388
  vertex 9.634 0.594 0
 endloop
endfacet
facet normal -1 -0.031 0
 outer loop
  vertex 9.634 0.594 0
  vertex 9.652 0 2.388
  vertex 9.634 0.594 2.388
 endloop
endfacet
facet normal -0.992 -0.123 0
 outer loop
  vertex 9.634 0.594 0
  vertex 9.634 0.594 2.388
  vertex 9.488 1.774 0
 endloop
endfacet
facet normal -0.992 -0.123 0
 outer loop
  vertex 9.488 1.774 0
  vertex 9.634 0.594 2.388
  vertex 9.488 1.774 2.388
 endloop
endfacet
facet normal -0.97 -0.244 0
 outer loop
  vertex 9.488 1.774 0
  vertex 9.488 1.774 2.388
  vertex 9.198 2.926 0
 endloop
endfacet
facet normal -0.97 -0.244 0
 outer loop
  vertex 9.198 2.926 0
  vertex 9.488 1.774 2.388
  vertex 9.198 2.926 2.388
 endloop
endfacet
facet normal -0.932 -0.361 0
 outer loop
  vertex 9.198 2.926 0
  vertex 9.198 2.926 2.388
  vertex 8.769 4.034 0
 endloop
endfacet
facet normal -0.932 -0.361 0
 outer loop
  vertex 8.769 4.034 0
  vertex 9.198 2.926 2.388
  vertex 8.769 4.034 2.388
 endloop
endfacet
facet normal -0.881 -0.473 0
 outer loop
  vertex 8.769 4.034 0
  vertex 8.769 4.034 2.388
  vertex 8.206 5.081 0
 endloop
endfacet
facet normal -0.881 -0.473 0
 outer loop
  vertex 8.206 5.081 0
  vertex 8.769 4.034 2.388
  vertex 8.206 5.081 2.388
 endloop
endfacet
facet normal -0.816 -0.578 0
 outer loop
  vertex 8.206 5.081 0
  vertex 8.206 5.081 2.388
  vertex 7.52 6.051 0
 endloop
endfacet
facet normal -0.816 -0.578 0
 outer loop
  vertex 7.52 6.051 0
  vertex 8.206 5.081 2.388
  vertex 7.52 6.051 2.388
 endloop
endfacet
facet normal -0.739 -0.674 0
 outer loop
  vertex 7.52 6.051 0
  vertex 7.52 6.051 2.388
  vertex 6.719 6.929 0
 endloop
endfacet
facet normal -0.739 -0.674 0
 outer loop
  vertex 6.719 6.929 0
  vertex 7.52 6.051 2.388
  vertex 6.719 6.929 2.388
 endloop
endfacet
facet normal -0.651 -0.759 0
 outer loop
  vertex 6.719 6.929 0
  vertex 6.719 6.929 2.388
  vertex 5.817 7.702 0
 endloop
endfacet
facet normal -0.651 -0.759 0
 outer loop
  vertex 5.817 7.702 0
  vertex 6.719 6.929 2.388
  vertex 5.817 7.702 2.388
 endloop
endfacet
facet normal -0.552 -0.834 0
 outer loop
  vertex 5.817 7.702 0
  vertex 5.817 7.702 2.388
  vertex 4.826 8.359 0
 endloop
endfacet
facet normal -0.552 -0.834 0
 outer loop
  vertex 4.826 8.359 0
  vertex 5.817 7.702 2.388
  vertex 4.826 8.359 2.388
 endloop
endfacet
facet normal -0.446 -0.895 0
 outer loop
  vertex 4.826 8.359 0
  vertex 4.826 8.359 2.388
  vertex 3.762 8.889 0
 endloop
endfacet
facet normal -0.446 -0.895 0
 outer loop
  vertex 3.762 8.889 0
  vertex 4.826 8.359 2.388
  vertex 3.762 8.889 2.388
 endloop
endfacet
facet normal -0.332 -0.943 0
 outer loop
  vertex 3.762 8.889 0
  vertex 3.762 8.889 2.388
  vertex 2.641 9.284 0
 endloop
endfacet
facet normal -0.332 -0.943 0
 outer loop
  vertex 2.641 9.284 0
  vertex 3.762 8.889 2.388
  vertex 2.641 9.284 2.388
 endloop
endfacet
facet normal -0.214 -0.977 0
 outer loop
  vertex 2.641 9.284 0
  vertex 2.641 9.284 2.388
  vertex 1.481 9.538 0
 endloop
endfacet
facet normal -0.214 -0.977 0
 outer loop
  vertex 1.481 9.538 0
  vertex 2.641 9.284 2.388
  vertex 1.481 9.538 2.388
 endloop
endfacet
facet normal -0.092 -0.996 0
 outer loop
  vertex 1.481 9.538 0
  vertex 1.481 9.538 2.388
  vertex 0.297 9.647 0
 endloop
endfacet
facet normal -0.092 -0.996 0
 outer loop
  vertex 0.297 9.647 0
  vertex 1.481 9.538 2.388
  vertex 0.297 9.647 2.388
 endloop
endfacet
facet normal 0.031 -1 0
 outer loop
  vertex 0.297 9.647 0
  vertex 0.297 9.647 2.388
  vertex -0.891 9.611 0
 endloop
endfacet
facet normal 0.031 -1 0
 outer loop
  vertex -0.891 9.611 0
  vertex 0.297 9.647 2.388
  vertex -0.891 9.611 2.388
 endloop
endfacet
facet normal 0.153 -0.988 0
 outer loop
  vertex -0.891 9.611 0
  vertex -0.891 9.611 2.388
  vertex -2.065 9.429 0
 endloop
endfacet
facet normal 0.153 -0.988 0
 outer loop
  vertex -2.065 9.429 0
  vertex -0.891 9.611 2.388
  vertex -2.065 9.429 2.388
 endloop
endfacet
facet normal 0.274 -0.962 0
 outer loop
  vertex -2.065 9.429 0
  vertex -2.065 9.429 2.388
  vertex -3.208 9.103 0
 endloop
endfacet
facet normal 0.274 -0.962 0
 outer loop
  vertex -3.208 9.103 0
  vertex -2.065 9.429 2.388
  vertex -3.208 9.103 2.388
 endloop
endfacet
facet normal 0.39 -0.921 0
 outer loop
  vertex -3.208 9.103 0
  vertex -3.208 9.103 2.388
  vertex -4.302 8.64 0
 endloop
endfacet
facet normal 0.39 -0.921 0
 outer loop
  vertex -4.302 8.64 0
  vertex -3.208 9.103 2.388
  vertex -4.302 8.64 2.388
 endloop
endfacet
facet normal 0.5 -0.866 0
 outer loop
  vertex -4.302 8.64 0
  vertex -4.302 8.64 2.388
  vertex -5.331 8.046 0
 endloop
endfacet
facet normal 0.5 -0.866 0
 outer loop
  vertex -5.331 8.046 0
  vertex -4.302 8.64 2.388
  vertex -5.331 8.046 2.388
 endloop
endfacet
facet normal 0.603 -0.798 0
 outer loop
  vertex -5.331 8.046 0
  vertex -5.331 8.046 2.388
  vertex -6.28 7.33 0
 endloop
endfacet
facet normal 0.603 -0.798 0
 outer loop
  vertex -6.28 7.33 0
  vertex -5.331 8.046 2.388
  vertex -6.28 7.33 2.388
 endloop
endfacet
facet normal 0.696 -0.718 0
 outer loop
  vertex -6.28 7.33 0
  vertex -6.28 7.33 2.388
  vertex -7.133 6.503 0
 endloop
endfacet
facet normal 0.696 -0.718 0
 outer loop
  vertex -7.133 6.503 0
  vertex -6.28 7.33 2.388
  vertex -7.133 6.503 2.388
 endloop
endfacet
facet normal 0.779 -0.627 0
 outer loop
  vertex -7.133 6.503 0
  vertex -7.133 6.503 2.388
  vertex -7.878 5.577 0
 endloop
endfacet
facet normal 0.779 -0.627 0
 outer loop
  vertex -7.878 5.577 0
  vertex -7.133 6.503 2.388
  vertex -7.878 5.577 2.388
 endloop
endfacet
facet normal 0.85 -0.526 0
 outer loop
  vertex -7.878 5.577 0
  vertex -7.878 5.577 2.388
  vertex -8.504 4.566 0
 endloop
endfacet
facet normal 0.85 -0.526 0
 outer loop
  vertex -8.504 4.566 0
  vertex -7.878 5.577 2.388
  vertex -8.504 4.566 2.388
 endloop
endfacet
facet normal 0.908 -0.418 0
 outer loop
  vertex -8.504 4.566 0
  vertex -8.504 4.566 2.388
  vertex -9 3.487 0
 endloop
endfacet
facet normal 0.908 -0.418 0
 outer loop
  vertex -9 3.487 0
  vertex -8.504 4.566 2.388
  vertex -9 3.487 2.388
 endloop
endfacet
facet normal 0.953 -0.303 0
 outer loop
  vertex -9 3.487 0
  vertex -9 3.487 2.388
  vertex -9.36 2.354 0
 endloop
endfacet
facet normal 0.953 -0.303 0
 outer loop
  vertex -9.36 2.354 0
  vertex -9 3.487 2.388
  vertex -9.36 2.354 2.388
 endloop
endfacet
facet normal 0.983 -0.184 0
 outer loop
  vertex -9.36 2.354 0
  vertex -9.36 2.354 2.388
  vertex -9.579 1.186 0
 endloop
endfacet
facet normal 0.983 -0.184 0
 outer loop
  vertex -9.579 1.186 0
  vertex -9.36 2.354 2.388
  vertex -9.579 1.186 2.388
 endloop
endfacet
facet normal 0.998 -0.062 0
 outer loop
  vertex -9.579 1.186 0
  vertex -9.579 1.186 2.388
  vertex -9.652 0 0
 endloop
endfacet
facet normal 0.998 -0.062 -0
 outer loop
  vertex -9.652 0 0
  vertex -9.579 1.186 2.388
  vertex -9.652 -0 2.388
 endloop
endfacet
facet normal 0.998 0.062 0
 outer loop
  vertex -9.652 0 0
  vertex -9.652 -0 2.388
  vertex -9.579 -1.186 0
 endloop
endfacet
facet normal 0.998 0.062 -0
 outer loop
  vertex -9.579 -1.186 0
  vertex -9.652 -0 2.388
  vertex -9.579 -1.186 2.388
 endloop
endfacet
facet normal 0.983 0.184 -0
 outer loop
  vertex -9.579 -1.186 0
  vertex -9.579 -1.186 2.388
  vertex -9.36 -2.354 0
 endloop
endfacet
facet normal 0.983 0.184 -0
 outer loop
  vertex -9.36 -2.354 0
  vertex -9.579 -1.186 2.388
  vertex -9.36 -2.354 2.388
 endloop
endfacet
facet normal 0.953 0.303 -0
 outer loop
  vertex -9.36 -2.354 0
  vertex -9.36 -2.354 2.388
  vertex -9 -3.487 0
 endloop
endfacet
facet normal 0.953 0.303 -0
 outer loop
  vertex -9 -3.487 0
  vertex -9.36 -2.354 2.388
  vertex -9 -3.487 2.388
 endloop
endfacet
facet normal 0.908 0.418 -0
 outer loop
  vertex -9 -3.487 0
  vertex -9 -3.487 2.388
  vertex -8.504 -4.566 0
 endloop
endfacet
facet normal 0.908 0.418 -0
 outer loop
  vertex -8.504 -4.566 0
  vertex -9 -3.487 2.388
  vertex -8.504 -4.566 2.388
 endloop
endfacet
facet normal 0.85 0.526 -0
 outer loop
  vertex -8.504 -4.566 0
  vertex -8.504 -4.566 2.388
  vertex -7.878 -5.577 0
 endloop
endfacet
facet normal 0.85 0.526 -0
 outer loop
  vertex -7.878 -5.577 0
  vertex -8.504 -4.566 2.388
  vertex -7.878 -5.577 2.388
 endloop
endfacet
facet normal 0.779 0.627 -0
 outer loop
  vertex -7.878 -5.577 0
  vertex -7.878 -5.577 2.388
  vertex -7.133 -6.503 0
 endloop
endfacet
facet normal 0.779 0.627 -0
 outer loop
  vertex -7.133 -6.503 0
  vertex -7.878 -5.577 2.388
  vertex -7.133 -6.503 2.388
 endloop
endfacet
facet normal 0.696 0.718 -0
 outer loop
  vertex -7.133 -6.503 0
  vertex -7.133 -6.503 2.388
  vertex -6.28 -7.33 0
 endloop
endfacet
facet normal 0.696 0.718 -0
 outer loop
  vertex -6.28 -7.33 0
  vertex -7.133 -6.503 2.388
  vertex -6.28 -7.33 2.388
 endloop
endfacet
facet normal 0.603 0.798 -0
 outer loop
  vertex -6.28 -7.33 0
  vertex -6.28 -7.33 2.388
  vertex -5.331 -8.046 0
 endloop
endfacet
facet normal 0.603 0.798 -0
 outer loop
  vertex -5.331 -8.046 0
  vertex -6.28 -7.33 2.388
  vertex -5.331 -8.046 2.388
 endloop
endfacet
facet normal 0.5 0.866 -0
 outer loop
  vertex -5.331 -8.046 0
  vertex -5.331 -8.046 2.388
  vertex -4.302 -8.64 0
 endloop
endfacet
facet normal 0.5 0.866 -0
 outer loop
  vertex -4.302 -8.64 0
  vertex -5.331 -8.046 2.388
  vertex -4.302 -8.64 2.388
 endloop
endfacet
facet normal 0.39 0.921 -0
 outer loop
  vertex -4.302 -8.64 0
  vertex -4.302 -8.64 2.388
  vertex -3.208 -9.103 0
 endloop
endfacet
facet normal 0.39 0.921 -0
 outer loop
  vertex -3.208 -9.103 0
  vertex -4.302 -8.64 2.388
  vertex -3.208 -9.103 2.388
 endloop
endfacet
facet normal 0.274 0.962 -0
 outer loop
  vertex -3.208 -9.103 0
  vertex -3.208 -9.103 2.388
  vertex -2.065 -9.429 0
 endloop
endfacet
facet normal 0.274 0.962 -0
 outer loop
  vertex -2.065 -9.429 0
  vertex -3.208 -9.103 2.388
  vertex -2.065 -9.429 2.388
 endloop
endfacet
facet normal 0.153 0.988 -0
 outer loop
  vertex -2.065 -9.429 0
  vertex -2.065 -9.429 2.388
  vertex -0.891 -9.611 0
 endloop
endfacet
facet normal 0.153 0.988 -0
 outer loop
  vertex -0.891 -9.611 0
  vertex -2.065 -9.429 2.388
  vertex -0.891 -9.611 2.388
 endloop
endfacet
facet normal 0.031 1 -0
 outer loop
  vertex -0.891 -9.611 0
  vertex -0.891 -9.611 2.388
  vertex 0.297 -9.647 0
 endloop
endfacet
facet normal 0.031 1 -0
 outer loop
  vertex 0.297 -9.647 0
  vertex -0.891 -9.611 2.388
  vertex 0.297 -9.647 2.388
 endloop
endfacet
facet normal -0.092 0.996 0
 outer loop
  vertex 0.297 -9.647 0
  vertex 0.297 -9.647 2.388
  vertex 1.481 -9.538 0
 endloop
endfacet
facet normal -0.092 0.996 0
 outer loop
  vertex 1.481 -9.538 0
  vertex 0.297 -9.647 2.388
  vertex 1.481 -9.538 2.388
 endloop
endfacet
facet normal -0.214 0.977 0
 outer loop
  vertex 1.481 -9.538 0
  vertex 1.481 -9.538 2.388
  vertex 2.641 -9.284 0
 endloop
endfacet
facet normal -0.214 0.977 0
 outer loop
  vertex 2.641 -9.284 0
  vertex 1.481 -9.538 2.388
  vertex 2.641 -9.284 2.388
 endloop
endfacet
facet normal -0.332 0.943 0
 outer loop
  vertex 2.641 -9.284 0
  vertex 2.641 -9.284 2.388
  vertex 3.762 -8.889 0
 endloop
endfacet
facet normal -0.332 0.943 0
 outer loop
  vertex 3.762 -8.889 0
  vertex 2.641 -9.284 2.388
  vertex 3.762 -8.889 2.388
 endloop
endfacet
facet normal -0.446 0.895 0
 outer loop
  vertex 3.762 -8.889 0
  vertex 3.762 -8.889 2.388
  vertex 4.826 -8.359 0
 endloop
endfacet
facet normal -0.446 0.895 0
 outer loop
  vertex 4.826 -8.359 0
  vertex 3.762 -8.889 2.388
  vertex 4.826 -8.359 2.388
 endloop
endfacet
facet normal -0.552 0.834 0
 outer loop
  vertex 4.826 -8.359 0
  vertex 4.826 -8.359 2.388
  vertex 5.817 -7.702 0
 endloop
endfacet
facet normal -0.552 0.834 0
 outer loop
  vertex 5.817 -7.702 0
  vertex 4.826 -8.359 2.388
  vertex 5.817 -7.702 2.388
 endloop
endfacet
facet normal -0.651 0.759 0
 outer loop
  vertex 5.817 -7.702 0
  vertex 5.817 -7.702 2.388
  vertex 6.719 -6.929 0
 endloop
endfacet
facet normal -0.651 0.759 0
 outer loop
  vertex 6.719 -6.929 0
  vertex 5.817 -7.702 2.388
  vertex 6.719 -6.929 2.388
 endloop
endfacet
facet normal -0.739 0.674 0
 outer loop
  vertex 6.719 -6.929 0
  vertex 6.719 -6.929 2.388
  vertex 7.52 -6.051 0
 endloop
endfacet
facet normal -0.739 0.674 0
 outer loop
  vertex 7.52 -6.051 0
  vertex 6.719 -6.929 2.388
  vertex 7.52 -6.051 2.388
 endloop
endfacet
facet normal -0.816 0.578 0
 outer loop
  vertex 7.52 -6.051 0
  vertex 7.52 -6.051 2.388
  vertex 8.206 -5.081 0
 endloop
endfacet
facet normal -0.816 0.578 0
 outer loop
  vertex 8.206 -5.081 0
  vertex 7.52 -6.051 2.388
  vertex 8.206 -5.081 2.388
 endloop
endfacet
facet normal -0.881 0.473 0
 outer loop
  vertex 8.206 -5.081 0
  vertex 8.206 -5.081 2.388
  vertex 8.769 -4.034 0
 endloop
endfacet
facet normal -0.881 0.473 0
 outer loop
  vertex 8.769 -4.034 0
  vertex 8.206 -5.081 2.388
  vertex 8.769 -4.034 2.388
 endloop
endfacet
facet normal -0.932 0.361 0
 outer loop
  vertex 8.769 -4.034 0
  vertex 8.769 -4.034 2.388
  vertex 9.198 -2.926 0
 endloop
endfacet
facet normal -0.932 0.361 0
 outer loop
  vertex 9.198 -2.926 0
  vertex 8.769 -4.034 2.388
  vertex 9.198 -2.926 2.388
 endloop
endfacet
facet normal -0.97 0.244 0
 outer loop
  vertex 9.198 -2.926 0
  vertex 9.198 -2.926 2.388
  vertex 9.488 -1.774 0
 endloop
endfacet
facet normal -0.97 0.244 0
 outer loop
  vertex 9.488 -1.774 0
  vertex 9.198 -2.926 2.388
  vertex 9.488 -1.774 2.388
 endloop
endfacet
facet normal -0.992 0.123 0
 outer loop
  vertex 9.488 -1.774 0
  vertex 9.488 -1.774 2.388
  vertex 9.634 -0.594 0
 endloop
endfacet
facet normal -0.992 0.123 0
 outer loop
  vertex 9.634 -0.594 0
  vertex 9.488 -1.774 2.388
  vertex 9.634 -0.594 2.388
 endloop
endfacet
facet normal 1 0.031 -0
 outer loop
  vertex 13.475 0.831 0
  vertex 13.475 0.831 2.388
  vertex 13.5 0 0
 endloop
endfacet
facet normal 1 0.031 -0
 outer loop
  vertex 13.5 0 0
  vertex 13.475 0.831 2.388
  vertex 13.5 0 2.388
 endloop
endfacet
facet normal 1 -0.031 0
 outer loop
  vertex 13.5 0 0
  vertex 13.5 0 2.388
  vertex 13.475 -0.831 0
 endloop
endfacet
facet normal 1 -0.031 0
 outer loop
  vertex 13.475 -0.831 0
  vertex 13.5 0 2.388
  vertex 13.475 -0.831 2.388
 endloop
endfacet
facet normal 0.992 -0.123 0
 outer loop
  vertex 13.475 -0.831 0
  vertex 13.475 -0.831 2.388
  vertex 13.27 -2.481 0
 endloop
endfacet
facet normal 0.992 -0.123 0
 outer loop
  vertex 13.27 -2.481 0
  vertex 13.475 -0.831 2.388
  vertex 13.27 -2.481 2.388
 endloop
endfacet
facet normal 0.97 -0.244 0
 outer loop
  vertex 13.27 -2.481 0
  vertex 13.27 -2.481 2.388
  vertex 12.865 -4.093 0
 endloop
endfacet
facet normal 0.97 -0.244 0
 outer loop
  vertex 12.865 -4.093 0
  vertex 13.27 -2.481 2.388
  vertex 12.865 -4.093 2.388
 endloop
endfacet
facet normal 0.932 -0.361 0
 outer loop
  vertex 12.865 -4.093 0
  vertex 12.865 -4.093 2.388
  vertex 12.264 -5.643 0
 endloop
endfacet
facet normal 0.932 -0.361 0
 outer loop
  vertex 12.264 -5.643 0
  vertex 12.865 -4.093 2.388
  vertex 12.264 -5.643 2.388
 endloop
endfacet
facet normal 0.881 -0.473 0
 outer loop
  vertex 12.264 -5.643 0
  vertex 12.264 -5.643 2.388
  vertex 11.478 -7.107 0
 endloop
endfacet
facet normal 0.881 -0.473 0
 outer loop
  vertex 11.478 -7.107 0
  vertex 12.264 -5.643 2.388
  vertex 11.478 -7.107 2.388
 endloop
endfacet
facet normal 0.816 -0.578 0
 outer loop
  vertex 11.478 -7.107 0
  vertex 11.478 -7.107 2.388
  vertex 10.518 -8.464 0
 endloop
endfacet
facet normal 0.816 -0.578 0
 outer loop
  vertex 10.518 -8.464 0
  vertex 11.478 -7.107 2.388
  vertex 10.518 -8.464 2.388
 endloop
endfacet
facet normal 0.739 -0.674 0
 outer loop
  vertex 10.518 -8.464 0
  vertex 10.518 -8.464 2.388
  vertex 9.398 -9.692 0
 endloop
endfacet
facet normal 0.739 -0.674 0
 outer loop
  vertex 9.398 -9.692 0
  vertex 10.518 -8.464 2.388
  vertex 9.398 -9.692 2.388
 endloop
endfacet
facet normal 0.651 -0.759 0
 outer loop
  vertex 9.398 -9.692 0
  vertex 9.398 -9.692 2.388
  vertex 8.136 -10.773 0
 endloop
endfacet
facet normal 0.651 -0.759 0
 outer loop
  vertex 8.136 -10.773 0
  vertex 9.398 -9.692 2.388
  vertex 8.136 -10.773 2.388
 endloop
endfacet
facet normal 0.552 -0.834 0
 outer loop
  vertex 8.136 -10.773 0
  vertex 8.136 -10.773 2.388
  vertex 6.75 -11.691 0
 endloop
endfacet
facet normal 0.552 -0.834 0
 outer loop
  vertex 6.75 -11.691 0
  vertex 8.136 -10.773 2.388
  vertex 6.75 -11.691 2.388
 endloop
endfacet
facet normal 0.446 -0.895 0
 outer loop
  vertex 6.75 -11.691 0
  vertex 6.75 -11.691 2.388
  vertex 5.262 -12.432 0
 endloop
endfacet
facet normal 0.446 -0.895 0
 outer loop
  vertex 5.262 -12.432 0
  vertex 6.75 -11.691 2.388
  vertex 5.262 -12.432 2.388
 endloop
endfacet
facet normal 0.332 -0.943 0
 outer loop
  vertex 5.262 -12.432 0
  vertex 5.262 -12.432 2.388
  vertex 3.694 -12.985 0
 endloop
endfacet
facet normal 0.332 -0.943 0
 outer loop
  vertex 3.694 -12.985 0
  vertex 5.262 -12.432 2.388
  vertex 3.694 -12.985 2.388
 endloop
endfacet
facet normal 0.214 -0.977 0
 outer loop
  vertex 3.694 -12.985 0
  vertex 3.694 -12.985 2.388
  vertex 2.071 -13.34 0
 endloop
endfacet
facet normal 0.214 -0.977 0
 outer loop
  vertex 2.071 -13.34 0
  vertex 3.694 -12.985 2.388
  vertex 2.071 -13.34 2.388
 endloop
endfacet
facet normal 0.092 -0.996 0
 outer loop
  vertex 2.071 -13.34 0
  vertex 2.071 -13.34 2.388
  vertex 0.416 -13.494 0
 endloop
endfacet
facet normal 0.092 -0.996 0
 outer loop
  vertex 0.416 -13.494 0
  vertex 2.071 -13.34 2.388
  vertex 0.416 -13.494 2.388
 endloop
endfacet
facet normal -0.031 -1 0
 outer loop
  vertex 0.416 -13.494 0
  vertex 0.416 -13.494 2.388
  vertex -1.246 -13.443 0
 endloop
endfacet
facet normal -0.031 -1 0
 outer loop
  vertex -1.246 -13.443 0
  vertex 0.416 -13.494 2.388
  vertex -1.246 -13.443 2.388
 endloop
endfacet
facet normal -0.153 -0.988 0
 outer loop
  vertex -1.246 -13.443 0
  vertex -1.246 -13.443 2.388
  vertex -2.888 -13.188 0
 endloop
endfacet
facet normal -0.153 -0.988 0
 outer loop
  vertex -2.888 -13.188 0
  vertex -1.246 -13.443 2.388
  vertex -2.888 -13.188 2.388
 endloop
endfacet
facet normal -0.274 -0.962 0
 outer loop
  vertex -2.888 -13.188 0
  vertex -2.888 -13.188 2.388
  vertex -4.487 -12.733 0
 endloop
endfacet
facet normal -0.274 -0.962 0
 outer loop
  vertex -4.487 -12.733 0
  vertex -2.888 -13.188 2.388
  vertex -4.487 -12.733 2.388
 endloop
endfacet
facet normal -0.39 -0.921 0
 outer loop
  vertex -4.487 -12.733 0
  vertex -4.487 -12.733 2.388
  vertex -6.018 -12.085 0
 endloop
endfacet
facet normal -0.39 -0.921 0
 outer loop
  vertex -6.018 -12.085 0
  vertex -4.487 -12.733 2.388
  vertex -6.018 -12.085 2.388
 endloop
endfacet
facet normal -0.5 -0.866 0
 outer loop
  vertex -6.018 -12.085 0
  vertex -6.018 -12.085 2.388
  vertex -7.457 -11.254 0
 endloop
endfacet
facet normal -0.5 -0.866 0
 outer loop
  vertex -7.457 -11.254 0
  vertex -6.018 -12.085 2.388
  vertex -7.457 -11.254 2.388
 endloop
endfacet
facet normal -0.603 -0.798 0
 outer loop
  vertex -7.457 -11.254 0
  vertex -7.457 -11.254 2.388
  vertex -8.783 -10.252 0
 endloop
endfacet
facet normal -0.603 -0.798 0
 outer loop
  vertex -8.783 -10.252 0
  vertex -7.457 -11.254 2.388
  vertex -8.783 -10.252 2.388
 endloop
endfacet
facet normal -0.696 -0.718 0
 outer loop
  vertex -8.783 -10.252 0
  vertex -8.783 -10.252 2.388
  vertex -9.977 -9.095 0
 endloop
endfacet
facet normal -0.696 -0.718 0
 outer loop
  vertex -9.977 -9.095 0
  vertex -8.783 -10.252 2.388
  vertex -9.977 -9.095 2.388
 endloop
endfacet
facet normal -0.779 -0.627 0
 outer loop
  vertex -9.977 -9.095 0
  vertex -9.977 -9.095 2.388
  vertex -11.019 -7.8 0
 endloop
endfacet
facet normal -0.779 -0.627 0
 outer loop
  vertex -11.019 -7.8 0
  vertex -9.977 -9.095 2.388
  vertex -11.019 -7.8 2.388
 endloop
endfacet
facet normal -0.85 -0.526 0
 outer loop
  vertex -11.019 -7.8 0
  vertex -11.019 -7.8 2.388
  vertex -11.894 -6.387 0
 endloop
endfacet
facet normal -0.85 -0.526 0
 outer loop
  vertex -11.894 -6.387 0
  vertex -11.019 -7.8 2.388
  vertex -11.894 -6.387 2.388
 endloop
endfacet
facet normal -0.908 -0.418 0
 outer loop
  vertex -11.894 -6.387 0
  vertex -11.894 -6.387 2.388
  vertex -12.589 -4.877 0
 endloop
endfacet
facet normal -0.908 -0.418 0
 outer loop
  vertex -12.589 -4.877 0
  vertex -11.894 -6.387 2.388
  vertex -12.589 -4.877 2.388
 endloop
endfacet
facet normal -0.953 -0.303 0
 outer loop
  vertex -12.589 -4.877 0
  vertex -12.589 -4.877 2.388
  vertex -13.092 -3.293 0
 endloop
endfacet
facet normal -0.953 -0.303 0
 outer loop
  vertex -13.092 -3.293 0
  vertex -12.589 -4.877 2.388
  vertex -13.092 -3.293 2.388
 endloop
endfacet
facet normal -0.983 -0.184 0
 outer loop
  vertex -13.092 -3.293 0
  vertex -13.092 -3.293 2.388
  vertex -13.398 -1.659 0
 endloop
endfacet
facet normal -0.983 -0.184 0
 outer loop
  vertex -13.398 -1.659 0
  vertex -13.092 -3.293 2.388
  vertex -13.398 -1.659 2.388
 endloop
endfacet
facet normal -0.998 -0.062 0
 outer loop
  vertex -13.398 -1.659 0
  vertex -13.398 -1.659 2.388
  vertex -13.5 -0 0
 endloop
endfacet
facet normal -0.998 -0.062 0
 outer loop
  vertex -13.5 -0 0
  vertex -13.398 -1.659 2.388
  vertex -13.5 0 2.388
 endloop
endfacet
facet normal -0.998 0.062 -0
 outer loop
  vertex -13.5 -0 0
  vertex -13.5 0 2.388
  vertex -13.398 1.659 0
 endloop
endfacet
facet normal -0.998 0.062 0
 outer loop
  vertex -13.398 1.659 0
  vertex -13.5 0 2.388
  vertex -13.398 1.659 2.388
 endloop
endfacet
facet normal -0.983 0.184 0
 outer loop
  vertex -13.398 1.659 0
  vertex -13.398 1.659 2.388
  vertex -13.092 3.293 0
 endloop
endfacet
facet normal -0.983 0.184 0
 outer loop
  vertex -13.092 3.293 0
  vertex -13.398 1.659 2.388
  vertex -13.092 3.293 2.388
 endloop
endfacet
facet normal -0.953 0.303 0
 outer loop
  vertex -13.092 3.293 0
  vertex -13.092 3.293 2.388
  vertex -12.589 4.877 0
 endloop
endfacet
facet normal -0.953 0.303 0
 outer loop
  vertex -12.589 4.877 0
  vertex -13.092 3.293 2.388
  vertex -12.589 4.877 2.388
 endloop
endfacet
facet normal -0.908 0.418 0
 outer loop
  vertex -12.589 4.877 0
  vertex -12.589 4.877 2.388
  vertex -11.894 6.387 0
 endloop
endfacet
facet normal -0.908 0.418 0
 outer loop
  vertex -11.894 6.387 0
  vertex -12.589 4.877 2.388
  vertex -11.894 6.387 2.388
 endloop
endfacet
facet normal -0.85 0.526 0
 outer loop
  vertex -11.894 6.387 0
  vertex -11.894 6.387 2.388
  vertex -11.019 7.8 0
 endloop
endfacet
facet normal -0.85 0.526 0
 outer loop
  vertex -11.019 7.8 0
  vertex -11.894 6.387 2.388
  vertex -11.019 7.8 2.388
 endloop
endfacet
facet normal -0.779 0.627 0
 outer loop
  vertex -11.019 7.8 0
  vertex -11.019 7.8 2.388
  vertex -9.977 9.095 0
 endloop
endfacet
facet normal -0.779 0.627 0
 outer loop
  vertex -9.977 9.095 0
  vertex -11.019 7.8 2.388
  vertex -9.977 9.095 2.388
 endloop
endfacet
facet normal -0.696 0.718 0
 outer loop
  vertex -9.977 9.095 0
  vertex -9.977 9.095 2.388
  vertex -8.783 10.252 0
 endloop
endfacet
facet normal -0.696 0.718 0
 outer loop
  vertex -8.783 10.252 0
  vertex -9.977 9.095 2.388
  vertex -8.783 10.252 2.388
 endloop
endfacet
facet normal -0.603 0.798 0
 outer loop
  vertex -8.783 10.252 0
  vertex -8.783 10.252 2.388
  vertex -7.457 11.254 0
 endloop
endfacet
facet normal -0.603 0.798 0
 outer loop
  vertex -7.457 11.254 0
  vertex -8.783 10.252 2.388
  vertex -7.457 11.254 2.388
 endloop
endfacet
facet normal -0.5 0.866 0
 outer loop
  vertex -7.457 11.254 0
  vertex -7.457 11.254 2.388
  vertex -6.018 12.085 0
 endloop
endfacet
facet normal -0.5 0.866 0
 outer loop
  vertex -6.018 12.085 0
  vertex -7.457 11.254 2.388
  vertex -6.018 12.085 2.388
 endloop
endfacet
facet normal -0.39 0.921 0
 outer loop
  vertex -6.018 12.085 0
  vertex -6.018 12.085 2.388
  vertex -4.487 12.733 0
 endloop
endfacet
facet normal -0.39 0.921 0
 outer loop
  vertex -4.487 12.733 0
  vertex -6.018 12.085 2.388
  vertex -4.487 12.733 2.388
 endloop
endfacet
facet normal -0.274 0.962 0
 outer loop
  vertex -4.487 12.733 0
  vertex -4.487 12.733 2.388
  vertex -2.888 13.188 0
 endloop
endfacet
facet normal -0.274 0.962 0
 outer loop
  vertex -2.888 13.188 0
  vertex -4.487 12.733 2.388
  vertex -2.888 13.188 2.388
 endloop
endfacet
facet normal -0.153 0.988 0
 outer loop
  vertex -2.888 13.188 0
  vertex -2.888 13.188 2.388
  vertex -1.246 13.443 0
 endloop
endfacet
facet normal -0.153 0.988 0
 outer loop
  vertex -1.246 13.443 0
  vertex -2.888 13.188 2.388
  vertex -1.246 13.443 2.388
 endloop
endfacet
facet normal -0.031 1 0
 outer loop
  vertex -1.246 13.443 0
  vertex -1.246 13.443 2.388
  vertex 0.416 13.494 0
 endloop
endfacet
facet normal -0.031 1 0
 outer loop
  vertex 0.416 13.494 0
  vertex -1.246 13.443 2.388
  vertex 0.416 13.494 2.388
 endloop
endfacet
facet normal 0.092 0.996 -0
 outer loop
  vertex 0.416 13.494 0
  vertex 0.416 13.494 2.388
  vertex 2.071 13.34 0
 endloop
endfacet
facet normal 0.092 0.996 -0
 outer loop
  vertex 2.071 13.34 0
  vertex 0.416 13.494 2.388
  vertex 2.071 13.34 2.388
 endloop
endfacet
facet normal 0.214 0.977 -0
 outer loop
  vertex 2.071 13.34 0
  vertex 2.071 13.34 2.388
  vertex 3.694 12.985 0
 endloop
endfacet
facet normal 0.214 0.977 -0
 outer loop
  vertex 3.694 12.985 0
  vertex 2.071 13.34 2.388
  vertex 3.694 12.985 2.388
 endloop
endfacet
facet normal 0.332 0.943 -0
 outer loop
  vertex 3.694 12.985 0
  vertex 3.694 12.985 2.388
  vertex 5.262 12.432 0
 endloop
endfacet
facet normal 0.332 0.943 -0
 outer loop
  vertex 5.262 12.432 0
  vertex 3.694 12.985 2.388
  vertex 5.262 12.432 2.388
 endloop
endfacet
facet normal 0.446 0.895 -0
 outer loop
  vertex 5.262 12.432 0
  vertex 5.262 12.432 2.388
  vertex 6.75 11.691 0
 endloop
endfacet
facet normal 0.446 0.895 -0
 outer loop
  vertex 6.75 11.691 0
  vertex 5.262 12.432 2.388
  vertex 6.75 11.691 2.388
 endloop
endfacet
facet normal 0.552 0.834 -0
 outer loop
  vertex 6.75 11.691 0
  vertex 6.75 11.691 2.388
  vertex 8.136 10.773 0
 endloop
endfacet
facet normal 0.552 0.834 -0
 outer loop
  vertex 8.136 10.773 0
  vertex 6.75 11.691 2.388
  vertex 8.136 10.773 2.388
 endloop
endfacet
facet normal 0.651 0.759 -0
 outer loop
  vertex 8.136 10.773 0
  vertex 8.136 10.773 2.388
  vertex 9.398 9.692 0
 endloop
endfacet
facet normal 0.651 0.759 -0
 outer loop
  vertex 9.398 9.692 0
  vertex 8.136 10.773 2.388
  vertex 9.398 9.692 2.388
 endloop
endfacet
facet normal 0.739 0.674 -0
 outer loop
  vertex 9.398 9.692 0
  vertex 9.398 9.692 2.388
  vertex 10.518 8.464 0
 endloop
endfacet
facet normal 0.739 0.674 -0
 outer loop
  vertex 10.518 8.464 0
  vertex 9.398 9.692 2.388
  vertex 10.518 8.464 2.388
 endloop
endfacet
facet normal 0.816 0.578 -0
 outer loop
  vertex 10.518 8.464 0
  vertex 10.518 8.464 2.388
  vertex 11.478 7.107 0
 endloop
endfacet
facet normal 0.816 0.578 -0
 outer loop
  vertex 11.478 7.107 0
  vertex 10.518 8.464 2.388
  vertex 11.478 7.107 2.388
 endloop
endfacet
facet normal 0.881 0.473 -0
 outer loop
  vertex 11.478 7.107 0
  vertex 11.478 7.107 2.388
  vertex 12.264 5.643 0
 endloop
endfacet
facet normal 0.881 0.473 -0
 outer loop
  vertex 12.264 5.643 0
  vertex 11.478 7.107 2.388
  vertex 12.264 5.643 2.388
 endloop
endfacet
facet normal 0.932 0.361 -0
 outer loop
  vertex 12.264 5.643 0
  vertex 12.264 5.643 2.388
  vertex 12.865 4.093 0
 endloop
endfacet
facet normal 0.932 0.361 -0
 outer loop
  vertex 12.865 4.093 0
  vertex 12.264 5.643 2.388
  vertex 12.865 4.093 2.388
 endloop
endfacet
facet normal 0.97 0.244 -0
 outer loop
  vertex 12.865 4.093 0
  vertex 12.865 4.093 2.388
  vertex 13.27 2.481 0
 endloop
endfacet
facet normal 0.97 0.244 -0
 outer loop
  vertex 13.27 2.481 0
  vertex 12.865 4.093 2.388
  vertex 13.27 2.481 2.388
 endloop
endfacet
facet normal 0.992 0.123 -0
 outer loop
  vertex 13.27 2.481 0
  vertex 13.27 2.481 2.388
  vertex 13.475 0.831 0
 endloop
endfacet
facet normal 0.992 0.123 -0
 outer loop
  vertex 13.475 0.831 0
  vertex 13.27 2.481 2.388
  vertex 13.475 0.831 2.388
 endloop
endfacet
facet normal 0 0 -1
 outer loop
  vertex 9.634 -0.594 0
  vertex 9.652 0 0
  vertex 13.5 0 0
 endloop
endfacet
facet normal 0 0 -1
 outer loop
  vertex 13.5 0 0
  vertex 9.652 0 0
  vertex 9.634 0.594 0
 endloop
endfacet
facet normal 0 0 -1
 outer loop
  vertex 13.5 0 0
  vertex 9.634 0.594 0
  vertex 13.475 0.831 0
 endloop
endfacet
facet normal -0 0 -1
 outer loop
  vertex 13.475 0.831 0
  vertex 9.634 0.594 0
  vertex 9.488 1.774 0
 endloop
endfacet
facet normal 0 0 -1
 outer loop
  vertex 13.475 0.831 0
  vertex 9.488 1.774 0
  vertex 13.27 2.481 0
 endloop
endfacet
facet normal -0 0 -1
 outer loop
  vertex 13.27 2.481 0
  vertex 9.488 1.774 0
  vertex 9.198 2.926 0
 endloop
endfacet
facet normal 0 0 -1
 outer loop
  vertex 13.27 2.481 0
  vertex 9.198 2.926 0
  vertex 12.865 4.093 0
 endloop
endfacet
facet normal 0 0 -1
 outer loop
  vertex 12.865 4.093 0
  vertex 9.198 2.926 0
  vertex 8.769 4.034 0
 endloop
endfacet
facet normal -0 0 -1
 outer loop
  vertex 12.865 4.093 0
  vertex 8.769 4.034 0
  vertex 12.264 5.643 0
 endloop
endfacet
facet normal 0 0 -1
 outer loop
  vertex 12.264 5.643 0
  vertex 8.769 4.034 0
  vertex 8.206 5.081 0
 endloop
endfacet
facet normal -0 0 -1
 outer loop
  vertex 12.264 5.643 0
  vertex 8.206 5.081 0
  vertex 11.478 7.107 0
 endloop
endfacet
facet normal 0 0 -1
 outer loop
  vertex 11.478 7.107 0
  vertex 8.206 5.081 0
  vertex 7.52 6.051 0
 endloop
endfacet
facet normal -0 0 -1
 outer loop
  vertex 11.478 7.107 0
  vertex 7.52 6.051 0
  vertex 10.518 8.464 0
 endloop
endfacet
facet normal 0 0 -1
 outer loop
  vertex 10.518 8.464 0
  vertex 7.52 6.051 0
  vertex 6.719 6.929 0
 endloop
endfacet
facet normal -0 0 -1
 outer loop
  vertex 10.518 8.464 0
  vertex 6.719 6.929 0
  vertex 9.398 9.692 0
 endloop
endfacet
facet normal 0 0 -1
 outer loop
  vertex 9.398 9.692 0
  vertex 6.719 6.929 0
  vertex 5.817 7.702 0
 endloop
endfacet
facet normal -0 0 -1
 outer loop
  vertex 9.398 9.692 0
  vertex 5.817 7.702 0
  vertex 8.136 10.773 0
 endloop
endfacet
facet normal 0 0 -1
 outer loop
  vertex 8.136 10.773 0
  vertex 5.817 7.702 0
  vertex 4.826 8.359 0
 endloop
endfacet
facet normal -0 0 -1
 outer loop
  vertex 8.136 10.773 0
  vertex 4.826 8.359 0
  vertex 6.75 11.691 0
 endloop
endfacet
facet normal 0 0 -1
 outer loop
  vertex 6.75 11.691 0
  vertex 4.826 8.359 0
  vertex 3.762 8.889 0
 endloop
endfacet
facet normal -0 0 -1
 outer loop
  vertex 6.75 11.691 0
  vertex 3.762 8.889 0
  vertex 5.262 12.432 0
 endloop
endfacet
facet normal 0 0 -1
 outer loop
  vertex 5.262 12.432 0
  vertex 3.762 8.889 0
  vertex 2.641 9.284 0
 endloop
endfacet
facet normal -0 0 -1
 outer loop
  vertex 5.262 12.432 0
  vertex 2.641 9.284 0
  vertex 3.694 12.985 0
 endloop
endfacet
facet normal 0 0 -1
 outer loop
  vertex 3.694 12.985 0
  vertex 2.641 9.284 0
  vertex 1.481 9.538 0
 endloop
endfacet
facet normal -0 0 -1
 outer loop
  vertex 3.694 12.985 0
  vertex 1.481 9.538 0
  vertex 2.071 13.34 0
 endloop
endfacet
facet normal 0 0 -1
 outer loop
  vertex 2.071 13.34 0
  vertex 1.481 9.538 0
  vertex 0.297 9.647 0
 endloop
endfacet
facet normal -0 0 -1
 outer loop
  vertex 2.071 13.34 0
  vertex 0.297 9.647 0
  vertex 0.416 13.494 0
 endloop
endfacet
facet normal 0 0 -1
 outer loop
  vertex 0.416 13.494 0
  vertex 0.297 9.647 0
  vertex -1.246 13.443 0
 endloop
endfacet
facet normal -0 0 -1
 outer loop
  vertex 0.297 9.647 0
  vertex -0.891 9.611 0
  vertex -1.246 13.443 0
 endloop
endfacet
facet normal 0 -0 -1
 outer loop
  vertex -1.246 13.443 0
  vertex -0.891 9.611 0
  vertex -2.888 13.188 0
 endloop
endfacet
facet normal -0 0 -1
 outer loop
  vertex -0.891 9.611 0
  vertex -2.065 9.429 0
  vertex -2.888 13.188 0
 endloop
endfacet
facet normal 0 -0 -1
 outer loop
  vertex -2.888 13.188 0
  vertex -2.065 9.429 0
  vertex -4.487 12.733 0
 endloop
endfacet
facet normal -0 0 -1
 outer loop
  vertex -2.065 9.429 0
  vertex -3.208 9.103 0
  vertex -4.487 12.733 0
 endloop
endfacet
facet normal 0 -0 -1
 outer loop
  vertex -4.487 12.733 0
  vertex -3.208 9.103 0
  vertex -6.018 12.085 0
 endloop
endfacet
facet normal -0 0 -1
 outer loop
  vertex -3.208 9.103 0
  vertex -4.302 8.64 0
  vertex -6.018 12.085 0
 endloop
endfacet
facet normal 0 -0 -1
 outer loop
  vertex -6.018 12.085 0
  vertex -4.302 8.64 0
  vertex -7.457 11.254 0
 endloop
endfacet
facet normal -0 0 -1
 outer loop
  vertex -4.302 8.64 0
  vertex -5.331 8.046 0
  vertex -7.457 11.254 0
 endloop
endfacet
facet normal 0 -0 -1
 outer loop
  vertex -7.457 11.254 0
  vertex -5.331 8.046 0
  vertex -8.783 10.252 0
 endloop
endfacet
facet normal -0 0 -1
 outer loop
  vertex -5.331 8.046 0
  vertex -6.28 7.33 0
  vertex -8.783 10.252 0
 endloop
endfacet
facet normal 0 -0 -1
 outer loop
  vertex -8.783 10.252 0
  vertex -6.28 7.33 0
  vertex -9.977 9.095 0
 endloop
endfacet
facet normal -0 0 -1
 outer loop
  vertex -6.28 7.33 0
  vertex -7.133 6.503 0
  vertex -9.977 9.095 0
 endloop
endfacet
facet normal 0 -0 -1
 outer loop
  vertex -9.977 9.095 0
  vertex -7.133 6.503 0
  vertex -11.019 7.8 0
 endloop
endfacet
facet normal -0 0 -1
 outer loop
  vertex -7.133 6.503 0
  vertex -7.878 5.577 0
  vertex -11.019 7.8 0
 endloop
endfacet
facet normal 0 -0 -1
 outer loop
  vertex -11.019 7.8 0
  vertex -7.878 5.577 0
  vertex -11.894 6.387 0
 endloop
endfacet
facet normal -0 0 -1
 outer loop
  vertex -7.878 5.577 0
  vertex -8.504 4.566 0
  vertex -11.894 6.387 0
 endloop
endfacet
facet normal 0 -0 -1
 outer loop
  vertex -11.894 6.387 0
  vertex -8.504 4.566 0
  vertex -12.589 4.877 0
 endloop
endfacet
facet normal -0 0 -1
 outer loop
  vertex -8.504 4.566 0
  vertex -9 3.487 0
  vertex -12.589 4.877 0
 endloop
endfacet
facet normal 0 -0 -1
 outer loop
  vertex -12.589 4.877 0
  vertex -9 3.487 0
  vertex -13.092 3.293 0
 endloop
endfacet
facet normal 0 0 -1
 outer loop
  vertex -9 3.487 0
  vertex -9.36 2.354 0
  vertex -13.092 3.293 0
 endloop
endfacet
facet normal 0 -0 -1
 outer loop
  vertex -13.092 3.293 0
  vertex -9.36 2.354 0
  vertex -13.398 1.659 0
 endloop
endfacet
facet normal 0 0 -1
 outer loop
  vertex -9.36 2.354 0
  vertex -9.579 1.186 0
  vertex -13.398 1.659 0
 endloop
endfacet
facet normal 0 -0 -1
 outer loop
  vertex -13.398 1.659 0
  vertex -9.579 1.186 0
  vertex -13.5 -0 0
 endloop
endfacet
facet normal 0 0 -1
 outer loop
  vertex -9.579 1.186 0
  vertex -9.652 0 0
  vertex -13.5 -0 0
 endloop
endfacet
facet normal 0 0 -1
 outer loop
  vertex -13.5 -0 0
  vertex -9.652 0 0
  vertex -13.398 -1.659 0
 endloop
endfacet
facet normal 0 -0 -1
 outer loop
  vertex -9.652 0 0
  vertex -9.579 -1.186 0
  vertex -13.398 -1.659 0
 endloop
endfacet
facet normal 0 0 -1
 outer loop
  vertex -13.398 -1.659 0
  vertex -9.579 -1.186 0
  vertex -9.36 -2.354 0
 endloop
endfacet
facet normal 0 0 -1
 outer loop
  vertex -13.398 -1.659 0
  vertex -9.36 -2.354 0
  vertex -13.092 -3.293 0
 endloop
endfacet
facet normal 0 0 -1
 outer loop
  vertex -13.092 -3.293 0
  vertex -9.36 -2.354 0
  vertex -9 -3.487 0
 endloop
endfacet
facet normal 0 0 -1
 outer loop
  vertex -13.092 -3.293 0
  vertex -9 -3.487 0
  vertex -12.589 -4.877 0
 endloop
endfacet
facet normal 0 0 -1
 outer loop
  vertex -12.589 -4.877 0
  vertex -9 -3.487 0
  vertex -8.504 -4.566 0
 endloop
endfacet
facet normal 0 0 -1
 outer loop
  vertex -12.589 -4.877 0
  vertex -8.504 -4.566 0
  vertex -11.894 -6.387 0
 endloop
endfacet
facet normal 0 0 -1
 outer loop
  vertex -11.894 -6.387 0
  vertex -8.504 -4.566 0
  vertex -7.878 -5.577 0
 endloop
endfacet
facet normal 0 0 -1
 outer loop
  vertex -11.894 -6.387 0
  vertex -7.878 -5.577 0
  vertex -11.019 -7.8 0
 endloop
endfacet
facet normal 0 0 -1
 outer loop
  vertex -11.019 -7.8 0
  vertex -7.878 -5.577 0
  vertex -7.133 -6.503 0
 endloop
endfacet
facet normal 0 0 -1
 outer loop
  vertex -11.019 -7.8 0
  vertex -7.133 -6.503 0
  vertex -9.977 -9.095 0
 endloop
endfacet
facet normal 0 0 -1
 outer loop
  vertex -9.977 -9.095 0
  vertex -7.133 -6.503 0
  vertex -6.28 -7.33 0
 endloop
endfacet
facet normal 0 0 -1
 outer loop
  vertex -9.977 -9.095 0
  vertex -6.28 -7.33 0
  vertex -8.783 -10.252 0
 endloop
endfacet
facet normal 0 0 -1
 outer loop
  vertex -8.783 -10.252 0
  vertex -6.28 -7.33 0
  vertex -5.331 -8.046 0
 endloop
endfacet
facet normal 0 0 -1
 outer loop
  vertex -8.783 -10.252 0
  vertex -5.331 -8.046 0
  vertex -7.457 -11.254 0
 endloop
endfacet
facet normal 0 0 -1
 outer loop
  vertex -7.457 -11.254 0
  vertex -5.331 -8.046 0
  vertex -4.302 -8.64 0
 endloop
endfacet
facet normal 0 0 -1
 outer loop
  vertex -7.457 -11.254 0
  vertex -4.302 -8.64 0
  vertex -6.018 -12.085 0
 endloop
endfacet
facet normal 0 0 -1
 outer loop
  vertex -6.018 -12.085 0
  vertex -4.302 -8.64 0
  vertex -3.208 -9.103 0
 endloop
endfacet
facet normal 0 0 -1
 outer loop
  vertex -6.018 -12.085 0
  vertex -3.208 -9.103 0
  vertex -4.487 -12.733 0
 endloop
endfacet
facet normal 0 0 -1
 outer loop
  vertex -4.487 -12.733 0
  vertex -3.208 -9.103 0
  vertex -2.065 -9.429 0
 endloop
endfacet
facet normal 0 0 -1
 outer loop
  vertex -4.487 -12.733 0
  vertex -2.065 -9.429 0
  vertex -2.888 -13.188 0
 endloop
endfacet
facet normal 0 0 -1
 outer loop
  vertex -2.888 -13.188 0
  vertex -2.065 -9.429 0
  vertex -0.891 -9.611 0
 endloop
endfacet
facet normal 0 0 -1
 outer loop
  vertex -2.888 -13.188 0
  vertex -0.891 -9.611 0
  vertex -1.246 -13.443 0
 endloop
endfacet
facet normal 0 0 -1
 outer loop
  vertex -1.246 -13.443 0
  vertex -0.891 -9.611 0
  vertex 0.297 -9.647 0
 endloop
endfacet
facet normal 0 0 -1
 outer loop
  vertex -1.246 -13.443 0
  vertex 0.297 -9.647 0
  vertex 0.416 -13.494 0
 endloop
endfacet
facet normal 0 0 -1
 outer loop
  vertex 0.416 -13.494 0
  vertex 0.297 -9.647 0
  vertex 2.071 -13.34 0
 endloop
endfacet
facet normal 0 0 -1
 outer loop
  vertex 0.297 -9.647 0
  vertex 1.481 -9.538 0
  vertex 2.071 -13.34 0
 endloop
endfacet
facet normal 0 0 -1
 outer loop
  vertex 2.071 -13.34 0
  vertex 1.481 -9.538 0
  vertex 3.694 -12.985 0
 endloop
endfacet
facet normal 0 0 -1
 outer loop
  vertex 1.481 -9.538 0
  vertex 2.641 -9.284 0
  vertex 3.694 -12.985 0
 endloop
endfacet
facet normal 0 0 -1
 outer loop
  vertex 3.694 -12.985 0
  vertex 2.641 -9.284 0
  vertex 5.262 -12.432 0
 endloop
endfacet
facet normal 0 0 -1
 outer loop
  vertex 2.641 -9.284 0
  vertex 3.762 -8.889 0
  vertex 5.262 -12.432 0
 endloop
endfacet
facet normal 0 0 -1
 outer loop
  vertex 5.262 -12.432 0
  vertex 3.762 -8.889 0
  vertex 6.75 -11.691 0
 endloop
endfacet
facet normal 0 0 -1
 outer loop
  vertex 3.762 -8.889 0
  vertex 4.826 -8.359 0
  vertex 6.75 -11.691 0
 endloop
endfacet
facet normal 0 0 -1
 outer loop
  vertex 6.75 -11.691 0
  vertex 4.826 -8.359 0
  vertex 8.136 -10.773 0
 endloop
endfacet
facet normal 0 0 -1
 outer loop
  vertex 4.826 -8.359 0
  vertex 5.817 -7.702 0
  vertex 8.136 -10.773 0
 endloop
endfacet
facet normal 0 0 -1
 outer loop
  vertex 8.136 -10.773 0
  vertex 5.817 -7.702 0
  vertex 9.398 -9.692 0
 endloop
endfacet
facet normal 0 0 -1
 outer loop
  vertex 5.817 -7.702 0
  vertex 6.719 -6.929 0
  vertex 9.398 -9.692 0
 endloop
endfacet
facet normal 0 0 -1
 outer loop
  vertex 9.398 -9.692 0
  vertex 6.719 -6.929 0
  vertex 10.518 -8.464 0
 endloop
endfacet
facet normal 0 0 -1
 outer loop
  vertex 6.719 -6.929 0
  vertex 7.52 -6.051 0
  vertex 10.518 -8.464 0
 endloop
endfacet
facet normal 0 0 -1
 outer loop
  vertex 10.518 -8.464 0
  vertex 7.52 -6.051 0
  vertex 11.478 -7.107 0
 endloop
endfacet
facet normal 0 0 -1
 outer loop
  vertex 7.52 -6.051 0
  vertex 8.206 -5.081 0
  vertex 11.478 -7.107 0
 endloop
endfacet
facet normal 0 0 -1
 outer loop
  vertex 11.478 -7.107 0
  vertex 8.206 -5.081 0
  vertex 12.264 -5.643 0
 endloop
endfacet
facet normal 0 0 -1
 outer loop
  vertex 8.206 -5.081 0
  vertex 8.769 -4.034 0
  vertex 12.264 -5.643 0
 endloop
endfacet
facet normal 0 0 -1
 outer loop
  vertex 12.264 -5.643 0
  vertex 8.769 -4.034 0
  vertex 12.865 -4.093 0
 endloop
endfacet
facet normal 0 0 -1
 outer loop
  vertex 8.769 -4.034 0
  vertex 9.198 -2.926 0
  vertex 12.865 -4.093 0
 endloop
endfacet
facet normal 0 0 -1
 outer loop
  vertex 12.865 -4.093 0
  vertex 9.198 -2.926 0
  vertex 13.27 -2.481 0
 endloop
endfacet
facet normal 0 0 -1
 outer loop
  vertex 9.198 -2.926 0
  vertex 9.488 -1.774 0
  vertex 13.27 -2.481 0
 endloop
endfacet
facet normal 0 0 -1
 outer loop
  vertex 13.27 -2.481 0
  vertex 9.488 -1.774 0
  vertex 13.475 -0.831 0
 endloop
endfacet
facet normal 0 0 -1
 outer loop
  vertex 9.488 -1.774 0
  vertex 9.634 -0.594 0
  vertex 13.475 -0.831 0
 endloop
endfacet
facet normal 0 0 -1
 outer loop
  vertex 13.475 -0.831 0
  vertex 9.634 -0.594 0
  vertex 13.5 0 0
 endloop
endfacet
facet normal -0 0 1
 outer loop
  vertex 9.634 -0.594 2.388
  vertex 13.475 -0.831 2.388
  vertex 9.652 0 2.388
 endloop
endfacet
facet normal -0 0 1
 outer loop
  vertex 9.652 0 2.388
  vertex 13.475 -0.831 2.388
  vertex 13.5 0 2.388
 endloop
endfacet
facet normal 0 -0 1
 outer loop
  vertex 9.652 0 2.388
  vertex 13.5 0 2.388
  vertex 9.634 0.594 2.388
 endloop
endfacet
facet normal -0 0 1
 outer loop
  vertex 9.634 0.594 2.388
  vertex 13.5 0 2.388
  vertex 13.475 0.831 2.388
 endloop
endfacet
facet normal 0 -0 1
 outer loop
  vertex 9.634 0.594 2.388
  vertex 13.475 0.831 2.388
  vertex 9.488 1.774 2.388
 endloop
endfacet
facet normal -0 0 1
 outer loop
  vertex 9.488 1.774 2.388
  vertex 13.475 0.831 2.388
  vertex 13.27 2.481 2.388
 endloop
endfacet
facet normal 0 -0 1
 outer loop
  vertex 9.488 1.774 2.388
  vertex 13.27 2.481 2.388
  vertex 9.198 2.926 2.388
 endloop
endfacet
facet normal -0 0 1
 outer loop
  vertex 9.198 2.926 2.388
  vertex 13.27 2.481 2.388
  vertex 12.865 4.093 2.388
 endloop
endfacet
facet normal 0 -0 1
 outer loop
  vertex 9.198 2.926 2.388
  vertex 12.865 4.093 2.388
  vertex 8.769 4.034 2.388
 endloop
endfacet
facet normal 0 0 1
 outer loop
  vertex 8.769 4.034 2.388
  vertex 12.865 4.093 2.388
  vertex 12.264 5.643 2.388
 endloop
endfacet
facet normal 0 -0 1
 outer loop
  vertex 8.769 4.034 2.388
  vertex 12.264 5.643 2.388
  vertex 8.206 5.081 2.388
 endloop
endfacet
facet normal 0 0 1
 outer loop
  vertex 8.206 5.081 2.388
  vertex 12.264 5.643 2.388
  vertex 11.478 7.107 2.388
 endloop
endfacet
facet normal 0 -0 1
 outer loop
  vertex 8.206 5.081 2.388
  vertex 11.478 7.107 2.388
  vertex 7.52 6.051 2.388
 endloop
endfacet
facet normal 0 0 1
 outer loop
  vertex 7.52 6.051 2.388
  vertex 11.478 7.107 2.388
  vertex 10.518 8.464 2.388
 endloop
endfacet
facet normal 0 -0 1
 outer loop
  vertex 7.52 6.051 2.388
  vertex 10.518 8.464 2.388
  vertex 6.719 6.929 2.388
 endloop
endfacet
facet normal 0 0 1
 outer loop
  vertex 6.719 6.929 2.388
  vertex 10.518 8.464 2.388
  vertex 9.398 9.692 2.388
 endloop
endfacet
facet normal 0 -0 1
 outer loop
  vertex 6.719 6.929 2.388
  vertex 9.398 9.692 2.388
  vertex 5.817 7.702 2.388
 endloop
endfacet
facet normal 0 0 1
 outer loop
  vertex 5.817 7.702 2.388
  vertex 9.398 9.692 2.388
  vertex 8.136 10.773 2.388
 endloop
endfacet
facet normal 0 -0 1
 outer loop
  vertex 5.817 7.702 2.388
  vertex 8.136 10.773 2.388
  vertex 4.826 8.359 2.388
 endloop
endfacet
facet normal 0 0 1
 outer loop
  vertex 4.826 8.359 2.388
  vertex 8.136 10.773 2.388
  vertex 6.75 11.691 2.388
 endloop
endfacet
facet normal 0 -0 1
 outer loop
  vertex 4.826 8.359 2.388
  vertex 6.75 11.691 2.388
  vertex 3.762 8.889 2.388
 endloop
endfacet
facet normal 0 0 1
 outer loop
  vertex 3.762 8.889 2.388
  vertex 6.75 11.691 2.388
  vertex 5.262 12.432 2.388
 endloop
endfacet
facet normal 0 -0 1
 outer loop
  vertex 3.762 8.889 2.388
  vertex 5.262 12.432 2.388
  vertex 2.641 9.284 2.388
 endloop
endfacet
facet normal 0 0 1
 outer loop
  vertex 2.641 9.284 2.388
  vertex 5.262 12.432 2.388
  vertex 3.694 12.985 2.388
 endloop
endfacet
facet normal 0 -0 1
 outer loop
  vertex 2.641 9.284 2.388
  vertex 3.694 12.985 2.388
  vertex 1.481 9.538 2.388
 endloop
endfacet
facet normal 0 0 1
 outer loop
  vertex 1.481 9.538 2.388
  vertex 3.694 12.985 2.388
  vertex 2.071 13.34 2.388
 endloop
endfacet
facet normal 0 -0 1
 outer loop
  vertex 1.481 9.538 2.388
  vertex 2.071 13.34 2.388
  vertex 0.297 9.647 2.388
 endloop
endfacet
facet normal 0 0 1
 outer loop
  vertex 0.297 9.647 2.388
  vertex 2.071 13.34 2.388
  vertex 0.416 13.494 2.388
 endloop
endfacet
facet normal 0 -0 1
 outer loop
  vertex 0.297 9.647 2.388
  vertex 0.416 13.494 2.388
  vertex -1.246 13.443 2.388
 endloop
endfacet
facet normal 0 0 1
 outer loop
  vertex 9.634 -0.594 2.388
  vertex 9.488 -1.774 2.388
  vertex 13.475 -0.831 2.388
 endloop
endfacet
facet normal 0 0 1
 outer loop
  vertex 13.475 -0.831 2.388
  vertex 9.488 -1.774 2.388
  vertex 13.27 -2.481 2.388
 endloop
endfacet
facet normal 0 0 1
 outer loop
  vertex 9.488 -1.774 2.388
  vertex 9.198 -2.926 2.388
  vertex 13.27 -2.481 2.388
 endloop
endfacet
facet normal 0 0 1
 outer loop
  vertex 13.27 -2.481 2.388
  vertex 9.198 -2.926 2.388
  vertex 12.865 -4.093 2.388
 endloop
endfacet
facet normal 0 0 1
 outer loop
  vertex 9.198 -2.926 2.388
  vertex 8.769 -4.034 2.388
  vertex 12.865 -4.093 2.388
 endloop
endfacet
facet normal 0 0 1
 outer loop
  vertex 12.865 -4.093 2.388
  vertex 8.769 -4.034 2.388
  vertex 12.264 -5.643 2.388
 endloop
endfacet
facet normal 0 0 1
 outer loop
  vertex 8.769 -4.034 2.388
  vertex 8.206 -5.081 2.388
  vertex 12.264 -5.643 2.388
 endloop
endfacet
facet normal 0 0 1
 outer loop
  vertex 12.264 -5.643 2.388
  vertex 8.206 -5.081 2.388
  vertex 11.478 -7.107 2.388
 endloop
endfacet
facet normal 0 0 1
 outer loop
  vertex 8.206 -5.081 2.388
  vertex 7.52 -6.051 2.388
  vertex 11.478 -7.107 2.388
 endloop
endfacet
facet normal 0 0 1
 outer loop
  vertex 11.478 -7.107 2.388
  vertex 7.52 -6.051 2.388
  vertex 10.518 -8.464 2.388
 endloop
endfacet
facet normal 0 0 1
 outer loop
  vertex 7.52 -6.051 2.388
  vertex 6.719 -6.929 2.388
  vertex 10.518 -8.464 2.388
 endloop
endfacet
facet normal 0 0 1
 outer loop
  vertex 10.518 -8.464 2.388
  vertex 6.719 -6.929 2.388
  vertex 9.398 -9.692 2.388
 endloop
endfacet
facet normal 0 0 1
 outer loop
  vertex 6.719 -6.929 2.388
  vertex 5.817 -7.702 2.388
  vertex 9.398 -9.692 2.388
 endloop
endfacet
facet normal 0 0 1
 outer loop
  vertex 9.398 -9.692 2.388
  vertex 5.817 -7.702 2.388
  vertex 8.136 -10.773 2.388
 endloop
endfacet
facet normal 0 0 1
 outer loop
  vertex 5.817 -7.702 2.388
  vertex 4.826 -8.359 2.388
  vertex 8.136 -10.773 2.388
 endloop
endfacet
facet normal 0 0 1
 outer loop
  vertex 8.136 -10.773 2.388
  vertex 4.826 -8.359 2.388
  vertex 6.75 -11.691 2.388
 endloop
endfacet
facet normal 0 0 1
 outer loop
  vertex 4.826 -8.359 2.388
  vertex 3.762 -8.889 2.388
  vertex 6.75 -11.691 2.388
 endloop
endfacet
facet normal 0 0 1
 outer loop
  vertex 6.75 -11.691 2.388
  vertex 3.762 -8.889 2.388
  vertex 5.262 -12.432 2.388
 endloop
endfacet
facet normal 0 0 1
 outer loop
  vertex 3.762 -8.889 2.388
  vertex 2.641 -9.284 2.388
  vertex 5.262 -12.432 2.388
 endloop
endfacet
facet normal 0 0 1
 outer loop
  vertex 5.262 -12.432 2.388
  vertex 2.641 -9.284 2.388
  vertex 3.694 -12.985 2.388
 endloop
endfacet
facet normal 0 0 1
 outer loop
  vertex 2.641 -9.284 2.388
  vertex 1.481 -9.538 2.388
  vertex 3.694 -12.985 2.388
 endloop
endfacet
facet normal 0 0 1
 outer loop
  vertex 3.694 -12.985 2.388
  vertex 1.481 -9.538 2.388
  vertex 2.071 -13.34 2.388
 endloop
endfacet
facet normal 0 0 1
 outer loop
  vertex 1.481 -9.538 2.388
  vertex 0.297 -9.647 2.388
  vertex 2.071 -13.34 2.388
 endloop
endfacet
facet normal 0 0 1
 outer loop
  vertex 2.071 -13.34 2.388
  vertex 0.297 -9.647 2.388
  vertex 0.416 -13.494 2.388
 endloop
endfacet
facet normal 0 0 1
 outer loop
  vertex 0.416 -13.494 2.388
  vertex 0.297 -9.647 2.388
  vertex -1.246 -13.443 2.388
 endloop
endfacet
facet normal 0 0 1
 outer loop
  vertex -1.246 -13.443 2.388
  vertex 0.297 -9.647 2.388
  vertex -0.891 -9.611 2.388
 endloop
endfacet
facet normal 0 -0 1
 outer loop
  vertex -1.246 -13.443 2.388
  vertex -0.891 -9.611 2.388
  vertex -2.888 -13.188 2.388
 endloop
endfacet
facet normal 0 0 1
 outer loop
  vertex -2.888 -13.188 2.388
  vertex -0.891 -9.611 2.388
  vertex -2.065 -9.429 2.388
 endloop
endfacet
facet normal 0 -0 1
 outer loop
  vertex -2.888 -13.188 2.388
  vertex -2.065 -9.429 2.388
  vertex -4.487 -12.733 2.388
 endloop
endfacet
facet normal 0 0 1
 outer loop
  vertex -4.487 -12.733 2.388
  vertex -2.065 -9.429 2.388
  vertex -3.208 -9.103 2.388
 endloop
endfacet
facet normal 0 -0 1
 outer loop
  vertex -4.487 -12.733 2.388
  vertex -3.208 -9.103 2.388
  vertex -6.018 -12.085 2.388
 endloop
endfacet
facet normal 0 0 1
 outer loop
  vertex -6.018 -12.085 2.388
  vertex -3.208 -9.103 2.388
  vertex -4.302 -8.64 2.388
 endloop
endfacet
facet normal 0 -0 1
 outer loop
  vertex -6.018 -12.085 2.388
  vertex -4.302 -8.64 2.388
  vertex -7.457 -11.254 2.388
 endloop
endfacet
facet normal 0 0 1
 outer loop
  vertex -7.457 -11.254 2.388
  vertex -4.302 -8.64 2.388
  vertex -5.331 -8.046 2.388
 endloop
endfacet
facet normal 0 -0 1
 outer loop
  vertex -7.457 -11.254 2.388
  vertex -5.331 -8.046 2.388
  vertex -8.783 -10.252 2.388
 endloop
endfacet
facet normal 0 0 1
 outer loop
  vertex -8.783 -10.252 2.388
  vertex -5.331 -8.046 2.388
  vertex -6.28 -7.33 2.388
 endloop
endfacet
facet normal 0 -0 1
 outer loop
  vertex -8.783 -10.252 2.388
  vertex -6.28 -7.33 2.388
  vertex -9.977 -9.095 2.388
 endloop
endfacet
facet normal 0 0 1
 outer loop
  vertex -9.977 -9.095 2.388
  vertex -6.28 -7.33 2.388
  vertex -7.133 -6.503 2.388
 endloop
endfacet
facet normal 0 -0 1
 outer loop
  vertex -9.977 -9.095 2.388
  vertex -7.133 -6.503 2.388
  vertex -11.019 -7.8 2.388
 endloop
endfacet
facet normal 0 0 1
 outer loop
  vertex -11.019 -7.8 2.388
  vertex -7.133 -6.503 2.388
  vertex -7.878 -5.577 2.388
 endloop
endfacet
facet normal 0 -0 1
 outer loop
  vertex -11.019 -7.8 2.388
  vertex -7.878 -5.577 2.388
  vertex -11.894 -6.387 2.388
 endloop
endfacet
facet normal 0 0 1
 outer loop
  vertex -11.894 -6.387 2.388
  vertex -7.878 -5.577 2.388
  vertex -8.504 -4.566 2.388
 endloop
endfacet
facet normal 0 -0 1
 outer loop
  vertex -11.894 -6.387 2.388
  vertex -8.504 -4.566 2.388
  vertex -12.589 -4.877 2.388
 endloop
endfacet
facet normal 0 0 1
 outer loop
  vertex -12.589 -4.877 2.388
  vertex -8.504 -4.566 2.388
  vertex -9 -3.487 2.388
 endloop
endfacet
facet normal 0 -0 1
 outer loop
  vertex -12.589 -4.877 2.388
  vertex -9 -3.487 2.388
  vertex -13.092 -3.293 2.388
 endloop
endfacet
facet normal -0 0 1
 outer loop
  vertex -13.092 -3.293 2.388
  vertex -9 -3.487 2.388
  vertex -9.36 -2.354 2.388
 endloop
endfacet
facet normal 0 -0 1
 outer loop
  vertex -13.092 -3.293 2.388
  vertex -9.36 -2.354 2.388
  vertex -13.398 -1.659 2.388
 endloop
endfacet
facet normal -0 0 1
 outer loop
  vertex -13.398 -1.659 2.388
  vertex -9.36 -2.354 2.388
  vertex -9.579 -1.186 2.388
 endloop
endfacet
facet normal 0 -0 1
 outer loop
  vertex -13.398 -1.659 2.388
  vertex -9.579 -1.186 2.388
  vertex -13.5 0 2.388
 endloop
endfacet
facet normal 0 0 1
 outer loop
  vertex -13.5 0 2.388
  vertex -9.579 -1.186 2.388
  vertex -9.652 -0 2.388
 endloop
endfacet
facet normal -0 0 1
 outer loop
  vertex -13.5 0 2.388
  vertex -9.652 -0 2.388
  vertex -9.579 1.186 2.388
 endloop
endfacet
facet normal 0 0 1
 outer loop
  vertex -13.5 0 2.388
  vertex -9.579 1.186 2.388
  vertex -13.398 1.659 2.388
 endloop
endfacet
facet normal -0 0 1
 outer loop
  vertex -13.398 1.659 2.388
  vertex -9.579 1.186 2.388
  vertex -9.36 2.354 2.388
 endloop
endfacet
facet normal 0 0 1
 outer loop
  vertex -13.398 1.659 2.388
  vertex -9.36 2.354 2.388
  vertex -13.092 3.293 2.388
 endloop
endfacet
facet normal -0 0 1
 outer loop
  vertex -13.092 3.293 2.388
  vertex -9.36 2.354 2.388
  vertex -9 3.487 2.388
 endloop
endfacet
facet normal 0 0 1
 outer loop
  vertex -13.092 3.293 2.388
  vertex -9 3.487 2.388
  vertex -12.589 4.877 2.388
 endloop
endfacet
facet normal 0 0 1
 outer loop
  vertex -12.589 4.877 2.388
  vertex -9 3.487 2.388
  vertex -8.504 4.566 2.388
 endloop
endfacet
facet normal -0 0 1
 outer loop
  vertex -12.589 4.877 2.388
  vertex -8.504 4.566 2.388
  vertex -11.894 6.387 2.388
 endloop
endfacet
facet normal 0 0 1
 outer loop
  vertex -11.894 6.387 2.388
  vertex -8.504 4.566 2.388
  vertex -7.878 5.577 2.388
 endloop
endfacet
facet normal -0 0 1
 outer loop
  vertex -11.894 6.387 2.388
  vertex -7.878 5.577 2.388
  vertex -11.019 7.8 2.388
 endloop
endfacet
facet normal 0 0 1
 outer loop
  vertex -11.019 7.8 2.388
  vertex -7.878 5.577 2.388
  vertex -7.133 6.503 2.388
 endloop
endfacet
facet normal -0 0 1
 outer loop
  vertex -11.019 7.8 2.388
  vertex -7.133 6.503 2.388
  vertex -9.977 9.095 2.388
 endloop
endfacet
facet normal 0 0 1
 outer loop
  vertex -9.977 9.095 2.388
  vertex -7.133 6.503 2.388
  vertex -6.28 7.33 2.388
 endloop
endfacet
facet normal -0 0 1
 outer loop
  vertex -9.977 9.095 2.388
  vertex -6.28 7.33 2.388
  vertex -8.783 10.252 2.388
 endloop
endfacet
facet normal 0 0 1
 outer loop
  vertex -8.783 10.252 2.388
  vertex -6.28 7.33 2.388
  vertex -5.331 8.046 2.388
 endloop
endfacet
facet normal -0 0 1
 outer loop
  vertex -8.783 10.252 2.388
  vertex -5.331 8.046 2.388
  vertex -7.457 11.254 2.388
 endloop
endfacet
facet normal 0 0 1
 outer loop
  vertex -7.457 11.254 2.388
  vertex -5.331 8.046 2.388
  vertex -4.302 8.64 2.388
 endloop
endfacet
facet normal -0 0 1
 outer loop
  vertex -7.457 11.254 2.388
  vertex -4.302 8.64 2.388
  vertex -6.018 12.085 2.388
 endloop
endfacet
facet normal 0 0 1
 outer loop
  vertex -6.018 12.085 2.388
  vertex -4.302 8.64 2.388
  vertex -3.208 9.103 2.388
 endloop
endfacet
facet normal -0 0 1
 outer loop
  vertex -6.018 12.085 2.388
  vertex -3.208 9.103 2.388
  vertex -4.487 12.733 2.388
 endloop
endfacet
facet normal 0 0 1
 outer loop
  vertex -4.487 12.733 2.388
  vertex -3.208 9.103 2.388
  vertex -2.065 9.429 2.388
 endloop
endfacet
facet normal -0 0 1
 outer loop
  vertex -4.487 12.733 2.388
  vertex -2.065 9.429 2.388
  vertex -2.888 13.188 2.388
 endloop
endfacet
facet normal 0 0 1
 outer loop
  vertex -2.888 13.188 2.388
  vertex -2.065 9.429 2.388
  vertex -0.891 9.611 2.388
 endloop
endfacet
facet normal -0 0 1
 outer loop
  vertex -2.888 13.188 2.388
  vertex -0.891 9.611 2.388
  vertex -1.246 13.443 2.388
 endloop
endfacet
facet normal 0 0 1
 outer loop
  vertex -1.246 13.443 2.388
  vertex -0.891 9.611 2.388
  vertex 0.297 9.647 2.388
 endloop
endfacet
endsolid CADClick
