solid CADClick
facet normal -1 0.031 0
 outer loop
  vertex 4.791 -0.296 0
  vertex 4.791 -0.296 2.286
  vertex 4.801 0 0
 endloop
endfacet
facet normal -1 0.031 0
 outer loop
  vertex 4.801 0 0
  vertex 4.791 -0.296 2.286
  vertex 4.801 0 2.286
 endloop
endfacet
facet normal -1 -0.031 0
 outer loop
  vertex 4.801 0 0
  vertex 4.801 0 2.286
  vertex 4.791 0.296 0
 endloop
endfacet
facet normal -1 -0.031 0
 outer loop
  vertex 4.791 0.296 0
  vertex 4.801 0 2.286
  vertex 4.791 0.296 2.286
 endloop
endfacet
facet normal -0.992 -0.123 0
 outer loop
  vertex 4.791 0.296 0
  vertex 4.791 0.296 2.286
  vertex 4.719 0.882 0
 endloop
endfacet
facet normal -0.992 -0.123 0
 outer loop
  vertex 4.719 0.882 0
  vertex 4.791 0.296 2.286
  vertex 4.719 0.882 2.286
 endloop
endfacet
facet normal -0.97 -0.244 0
 outer loop
  vertex 4.719 0.882 0
  vertex 4.719 0.882 2.286
  vertex 4.575 1.455 0
 endloop
endfacet
facet normal -0.97 -0.244 0
 outer loop
  vertex 4.575 1.455 0
  vertex 4.719 0.882 2.286
  vertex 4.575 1.455 2.286
 endloop
endfacet
facet normal -0.932 -0.361 0
 outer loop
  vertex 4.575 1.455 0
  vertex 4.575 1.455 2.286
  vertex 4.361 2.006 0
 endloop
endfacet
facet normal -0.932 -0.361 0
 outer loop
  vertex 4.361 2.006 0
  vertex 4.575 1.455 2.286
  vertex 4.361 2.006 2.286
 endloop
endfacet
facet normal -0.881 -0.473 0
 outer loop
  vertex 4.361 2.006 0
  vertex 4.361 2.006 2.286
  vertex 4.082 2.527 0
 endloop
endfacet
facet normal -0.881 -0.473 0
 outer loop
  vertex 4.082 2.527 0
  vertex 4.361 2.006 2.286
  vertex 4.082 2.527 2.286
 endloop
endfacet
facet normal -0.816 -0.578 0
 outer loop
  vertex 4.082 2.527 0
  vertex 4.082 2.527 2.286
  vertex 3.74 3.01 0
 endloop
endfacet
facet normal -0.816 -0.578 0
 outer loop
  vertex 3.74 3.01 0
  vertex 4.082 2.527 2.286
  vertex 3.74 3.01 2.286
 endloop
endfacet
facet normal -0.739 -0.674 0
 outer loop
  vertex 3.74 3.01 0
  vertex 3.74 3.01 2.286
  vertex 3.342 3.446 0
 endloop
endfacet
facet normal -0.739 -0.674 0
 outer loop
  vertex 3.342 3.446 0
  vertex 3.74 3.01 2.286
  vertex 3.342 3.446 2.286
 endloop
endfacet
facet normal -0.651 -0.759 0
 outer loop
  vertex 3.342 3.446 0
  vertex 3.342 3.446 2.286
  vertex 2.893 3.831 0
 endloop
endfacet
facet normal -0.651 -0.759 0
 outer loop
  vertex 2.893 3.831 0
  vertex 3.342 3.446 2.286
  vertex 2.893 3.831 2.286
 endloop
endfacet
facet normal -0.552 -0.834 0
 outer loop
  vertex 2.893 3.831 0
  vertex 2.893 3.831 2.286
  vertex 2.4 4.157 0
 endloop
endfacet
facet normal -0.552 -0.834 0
 outer loop
  vertex 2.4 4.157 0
  vertex 2.893 3.831 2.286
  vertex 2.4 4.157 2.286
 endloop
endfacet
facet normal -0.446 -0.895 0
 outer loop
  vertex 2.4 4.157 0
  vertex 2.4 4.157 2.286
  vertex 1.871 4.421 0
 endloop
endfacet
facet normal -0.446 -0.895 0
 outer loop
  vertex 1.871 4.421 0
  vertex 2.4 4.157 2.286
  vertex 1.871 4.421 2.286
 endloop
endfacet
facet normal -0.332 -0.943 0
 outer loop
  vertex 1.871 4.421 0
  vertex 1.871 4.421 2.286
  vertex 1.314 4.617 0
 endloop
endfacet
facet normal -0.332 -0.943 0
 outer loop
  vertex 1.314 4.617 0
  vertex 1.871 4.421 2.286
  vertex 1.314 4.617 2.286
 endloop
endfacet
facet normal -0.214 -0.977 0
 outer loop
  vertex 1.314 4.617 0
  vertex 1.314 4.617 2.286
  vertex 0.736 4.744 0
 endloop
endfacet
facet normal -0.214 -0.977 0
 outer loop
  vertex 0.736 4.744 0
  vertex 1.314 4.617 2.286
  vertex 0.736 4.744 2.286
 endloop
endfacet
facet normal -0.092 -0.996 0
 outer loop
  vertex 0.736 4.744 0
  vertex 0.736 4.744 2.286
  vertex 0.148 4.798 0
 endloop
endfacet
facet normal -0.092 -0.996 0
 outer loop
  vertex 0.148 4.798 0
  vertex 0.736 4.744 2.286
  vertex 0.148 4.798 2.286
 endloop
endfacet
facet normal 0.031 -1 0
 outer loop
  vertex 0.148 4.798 0
  vertex 0.148 4.798 2.286
  vertex -0.443 4.78 0
 endloop
endfacet
facet normal 0.031 -1 0
 outer loop
  vertex -0.443 4.78 0
  vertex 0.148 4.798 2.286
  vertex -0.443 4.78 2.286
 endloop
endfacet
facet normal 0.153 -0.988 0
 outer loop
  vertex -0.443 4.78 0
  vertex -0.443 4.78 2.286
  vertex -1.027 4.689 0
 endloop
endfacet
facet normal 0.153 -0.988 0
 outer loop
  vertex -1.027 4.689 0
  vertex -0.443 4.78 2.286
  vertex -1.027 4.689 2.286
 endloop
endfacet
facet normal 0.274 -0.962 0
 outer loop
  vertex -1.027 4.689 0
  vertex -1.027 4.689 2.286
  vertex -1.595 4.528 0
 endloop
endfacet
facet normal 0.274 -0.962 0
 outer loop
  vertex -1.595 4.528 0
  vertex -1.027 4.689 2.286
  vertex -1.595 4.528 2.286
 endloop
endfacet
facet normal 0.39 -0.921 0
 outer loop
  vertex -1.595 4.528 0
  vertex -1.595 4.528 2.286
  vertex -2.14 4.297 0
 endloop
endfacet
facet normal 0.39 -0.921 0
 outer loop
  vertex -2.14 4.297 0
  vertex -1.595 4.528 2.286
  vertex -2.14 4.297 2.286
 endloop
endfacet
facet normal 0.5 -0.866 0
 outer loop
  vertex -2.14 4.297 0
  vertex -2.14 4.297 2.286
  vertex -2.652 4.002 0
 endloop
endfacet
facet normal 0.5 -0.866 0
 outer loop
  vertex -2.652 4.002 0
  vertex -2.14 4.297 2.286
  vertex -2.652 4.002 2.286
 endloop
endfacet
facet normal 0.603 -0.798 0
 outer loop
  vertex -2.652 4.002 0
  vertex -2.652 4.002 2.286
  vertex -3.123 3.646 0
 endloop
endfacet
facet normal 0.603 -0.798 0
 outer loop
  vertex -3.123 3.646 0
  vertex -2.652 4.002 2.286
  vertex -3.123 3.646 2.286
 endloop
endfacet
facet normal 0.696 -0.718 0
 outer loop
  vertex -3.123 3.646 0
  vertex -3.123 3.646 2.286
  vertex -3.548 3.234 0
 endloop
endfacet
facet normal 0.696 -0.718 0
 outer loop
  vertex -3.548 3.234 0
  vertex -3.123 3.646 2.286
  vertex -3.548 3.234 2.286
 endloop
endfacet
facet normal 0.779 -0.627 0
 outer loop
  vertex -3.548 3.234 0
  vertex -3.548 3.234 2.286
  vertex -3.918 2.774 0
 endloop
endfacet
facet normal 0.779 -0.627 0
 outer loop
  vertex -3.918 2.774 0
  vertex -3.548 3.234 2.286
  vertex -3.918 2.774 2.286
 endloop
endfacet
facet normal 0.85 -0.526 0
 outer loop
  vertex -3.918 2.774 0
  vertex -3.918 2.774 2.286
  vertex -4.229 2.271 0
 endloop
endfacet
facet normal 0.85 -0.526 0
 outer loop
  vertex -4.229 2.271 0
  vertex -3.918 2.774 2.286
  vertex -4.229 2.271 2.286
 endloop
endfacet
facet normal 0.908 -0.418 0
 outer loop
  vertex -4.229 2.271 0
  vertex -4.229 2.271 2.286
  vertex -4.476 1.734 0
 endloop
endfacet
facet normal 0.908 -0.418 0
 outer loop
  vertex -4.476 1.734 0
  vertex -4.229 2.271 2.286
  vertex -4.476 1.734 2.286
 endloop
endfacet
facet normal 0.953 -0.303 0
 outer loop
  vertex -4.476 1.734 0
  vertex -4.476 1.734 2.286
  vertex -4.656 1.171 0
 endloop
endfacet
facet normal 0.953 -0.303 0
 outer loop
  vertex -4.656 1.171 0
  vertex -4.476 1.734 2.286
  vertex -4.656 1.171 2.286
 endloop
endfacet
facet normal 0.983 -0.184 0
 outer loop
  vertex -4.656 1.171 0
  vertex -4.656 1.171 2.286
  vertex -4.764 0.59 0
 endloop
endfacet
facet normal 0.983 -0.184 0
 outer loop
  vertex -4.764 0.59 0
  vertex -4.656 1.171 2.286
  vertex -4.764 0.59 2.286
 endloop
endfacet
facet normal 0.998 -0.062 0
 outer loop
  vertex -4.764 0.59 0
  vertex -4.764 0.59 2.286
  vertex -4.801 0 0
 endloop
endfacet
facet normal 0.998 -0.062 -0
 outer loop
  vertex -4.801 0 0
  vertex -4.764 0.59 2.286
  vertex -4.801 -0 2.286
 endloop
endfacet
facet normal 0.998 0.062 0
 outer loop
  vertex -4.801 0 0
  vertex -4.801 -0 2.286
  vertex -4.764 -0.59 0
 endloop
endfacet
facet normal 0.998 0.062 -0
 outer loop
  vertex -4.764 -0.59 0
  vertex -4.801 -0 2.286
  vertex -4.764 -0.59 2.286
 endloop
endfacet
facet normal 0.983 0.184 -0
 outer loop
  vertex -4.764 -0.59 0
  vertex -4.764 -0.59 2.286
  vertex -4.656 -1.171 0
 endloop
endfacet
facet normal 0.983 0.184 -0
 outer loop
  vertex -4.656 -1.171 0
  vertex -4.764 -0.59 2.286
  vertex -4.656 -1.171 2.286
 endloop
endfacet
facet normal 0.953 0.303 -0
 outer loop
  vertex -4.656 -1.171 0
  vertex -4.656 -1.171 2.286
  vertex -4.476 -1.734 0
 endloop
endfacet
facet normal 0.953 0.303 -0
 outer loop
  vertex -4.476 -1.734 0
  vertex -4.656 -1.171 2.286
  vertex -4.476 -1.734 2.286
 endloop
endfacet
facet normal 0.908 0.418 -0
 outer loop
  vertex -4.476 -1.734 0
  vertex -4.476 -1.734 2.286
  vertex -4.229 -2.271 0
 endloop
endfacet
facet normal 0.908 0.418 -0
 outer loop
  vertex -4.229 -2.271 0
  vertex -4.476 -1.734 2.286
  vertex -4.229 -2.271 2.286
 endloop
endfacet
facet normal 0.85 0.526 -0
 outer loop
  vertex -4.229 -2.271 0
  vertex -4.229 -2.271 2.286
  vertex -3.918 -2.774 0
 endloop
endfacet
facet normal 0.85 0.526 -0
 outer loop
  vertex -3.918 -2.774 0
  vertex -4.229 -2.271 2.286
  vertex -3.918 -2.774 2.286
 endloop
endfacet
facet normal 0.779 0.627 -0
 outer loop
  vertex -3.918 -2.774 0
  vertex -3.918 -2.774 2.286
  vertex -3.548 -3.234 0
 endloop
endfacet
facet normal 0.779 0.627 -0
 outer loop
  vertex -3.548 -3.234 0
  vertex -3.918 -2.774 2.286
  vertex -3.548 -3.234 2.286
 endloop
endfacet
facet normal 0.696 0.718 -0
 outer loop
  vertex -3.548 -3.234 0
  vertex -3.548 -3.234 2.286
  vertex -3.123 -3.646 0
 endloop
endfacet
facet normal 0.696 0.718 -0
 outer loop
  vertex -3.123 -3.646 0
  vertex -3.548 -3.234 2.286
  vertex -3.123 -3.646 2.286
 endloop
endfacet
facet normal 0.603 0.798 -0
 outer loop
  vertex -3.123 -3.646 0
  vertex -3.123 -3.646 2.286
  vertex -2.652 -4.002 0
 endloop
endfacet
facet normal 0.603 0.798 -0
 outer loop
  vertex -2.652 -4.002 0
  vertex -3.123 -3.646 2.286
  vertex -2.652 -4.002 2.286
 endloop
endfacet
facet normal 0.5 0.866 -0
 outer loop
  vertex -2.652 -4.002 0
  vertex -2.652 -4.002 2.286
  vertex -2.14 -4.297 0
 endloop
endfacet
facet normal 0.5 0.866 -0
 outer loop
  vertex -2.14 -4.297 0
  vertex -2.652 -4.002 2.286
  vertex -2.14 -4.297 2.286
 endloop
endfacet
facet normal 0.39 0.921 -0
 outer loop
  vertex -2.14 -4.297 0
  vertex -2.14 -4.297 2.286
  vertex -1.595 -4.528 0
 endloop
endfacet
facet normal 0.39 0.921 -0
 outer loop
  vertex -1.595 -4.528 0
  vertex -2.14 -4.297 2.286
  vertex -1.595 -4.528 2.286
 endloop
endfacet
facet normal 0.274 0.962 -0
 outer loop
  vertex -1.595 -4.528 0
  vertex -1.595 -4.528 2.286
  vertex -1.027 -4.689 0
 endloop
endfacet
facet normal 0.274 0.962 -0
 outer loop
  vertex -1.027 -4.689 0
  vertex -1.595 -4.528 2.286
  vertex -1.027 -4.689 2.286
 endloop
endfacet
facet normal 0.153 0.988 -0
 outer loop
  vertex -1.027 -4.689 0
  vertex -1.027 -4.689 2.286
  vertex -0.443 -4.78 0
 endloop
endfacet
facet normal 0.153 0.988 -0
 outer loop
  vertex -0.443 -4.78 0
  vertex -1.027 -4.689 2.286
  vertex -0.443 -4.78 2.286
 endloop
endfacet
facet normal 0.031 1 -0
 outer loop
  vertex -0.443 -4.78 0
  vertex -0.443 -4.78 2.286
  vertex 0.148 -4.798 0
 endloop
endfacet
facet normal 0.031 1 -0
 outer loop
  vertex 0.148 -4.798 0
  vertex -0.443 -4.78 2.286
  vertex 0.148 -4.798 2.286
 endloop
endfacet
facet normal -0.092 0.996 0
 outer loop
  vertex 0.148 -4.798 0
  vertex 0.148 -4.798 2.286
  vertex 0.736 -4.744 0
 endloop
endfacet
facet normal -0.092 0.996 0
 outer loop
  vertex 0.736 -4.744 0
  vertex 0.148 -4.798 2.286
  vertex 0.736 -4.744 2.286
 endloop
endfacet
facet normal -0.214 0.977 0
 outer loop
  vertex 0.736 -4.744 0
  vertex 0.736 -4.744 2.286
  vertex 1.314 -4.617 0
 endloop
endfacet
facet normal -0.214 0.977 0
 outer loop
  vertex 1.314 -4.617 0
  vertex 0.736 -4.744 2.286
  vertex 1.314 -4.617 2.286
 endloop
endfacet
facet normal -0.332 0.943 0
 outer loop
  vertex 1.314 -4.617 0
  vertex 1.314 -4.617 2.286
  vertex 1.871 -4.421 0
 endloop
endfacet
facet normal -0.332 0.943 0
 outer loop
  vertex 1.871 -4.421 0
  vertex 1.314 -4.617 2.286
  vertex 1.871 -4.421 2.286
 endloop
endfacet
facet normal -0.446 0.895 0
 outer loop
  vertex 1.871 -4.421 0
  vertex 1.871 -4.421 2.286
  vertex 2.4 -4.157 0
 endloop
endfacet
facet normal -0.446 0.895 0
 outer loop
  vertex 2.4 -4.157 0
  vertex 1.871 -4.421 2.286
  vertex 2.4 -4.157 2.286
 endloop
endfacet
facet normal -0.552 0.834 0
 outer loop
  vertex 2.4 -4.157 0
  vertex 2.4 -4.157 2.286
  vertex 2.893 -3.831 0
 endloop
endfacet
facet normal -0.552 0.834 0
 outer loop
  vertex 2.893 -3.831 0
  vertex 2.4 -4.157 2.286
  vertex 2.893 -3.831 2.286
 endloop
endfacet
facet normal -0.651 0.759 0
 outer loop
  vertex 2.893 -3.831 0
  vertex 2.893 -3.831 2.286
  vertex 3.342 -3.446 0
 endloop
endfacet
facet normal -0.651 0.759 0
 outer loop
  vertex 3.342 -3.446 0
  vertex 2.893 -3.831 2.286
  vertex 3.342 -3.446 2.286
 endloop
endfacet
facet normal -0.739 0.674 0
 outer loop
  vertex 3.342 -3.446 0
  vertex 3.342 -3.446 2.286
  vertex 3.74 -3.01 0
 endloop
endfacet
facet normal -0.739 0.674 0
 outer loop
  vertex 3.74 -3.01 0
  vertex 3.342 -3.446 2.286
  vertex 3.74 -3.01 2.286
 endloop
endfacet
facet normal -0.816 0.578 0
 outer loop
  vertex 3.74 -3.01 0
  vertex 3.74 -3.01 2.286
  vertex 4.082 -2.527 0
 endloop
endfacet
facet normal -0.816 0.578 0
 outer loop
  vertex 4.082 -2.527 0
  vertex 3.74 -3.01 2.286
  vertex 4.082 -2.527 2.286
 endloop
endfacet
facet normal -0.881 0.473 0
 outer loop
  vertex 4.082 -2.527 0
  vertex 4.082 -2.527 2.286
  vertex 4.361 -2.006 0
 endloop
endfacet
facet normal -0.881 0.473 0
 outer loop
  vertex 4.361 -2.006 0
  vertex 4.082 -2.527 2.286
  vertex 4.361 -2.006 2.286
 endloop
endfacet
facet normal -0.932 0.361 0
 outer loop
  vertex 4.361 -2.006 0
  vertex 4.361 -2.006 2.286
  vertex 4.575 -1.455 0
 endloop
endfacet
facet normal -0.932 0.361 0
 outer loop
  vertex 4.575 -1.455 0
  vertex 4.361 -2.006 2.286
  vertex 4.575 -1.455 2.286
 endloop
endfacet
facet normal -0.97 0.244 0
 outer loop
  vertex 4.575 -1.455 0
  vertex 4.575 -1.455 2.286
  vertex 4.719 -0.882 0
 endloop
endfacet
facet normal -0.97 0.244 0
 outer loop
  vertex 4.719 -0.882 0
  vertex 4.575 -1.455 2.286
  vertex 4.719 -0.882 2.286
 endloop
endfacet
facet normal -0.992 0.123 0
 outer loop
  vertex 4.719 -0.882 0
  vertex 4.719 -0.882 2.286
  vertex 4.791 -0.296 0
 endloop
endfacet
facet normal -0.992 0.123 0
 outer loop
  vertex 4.791 -0.296 0
  vertex 4.719 -0.882 2.286
  vertex 4.791 -0.296 2.286
 endloop
endfacet
facet normal 1 0.031 -0
 outer loop
  vertex 9.392 0.579 0
  vertex 9.392 0.579 2.286
  vertex 9.409 0 0
 endloop
endfacet
facet normal 1 0.031 -0
 outer loop
  vertex 9.409 0 0
  vertex 9.392 0.579 2.286
  vertex 9.409 0 2.286
 endloop
endfacet
facet normal 1 -0.031 0
 outer loop
  vertex 9.409 0 0
  vertex 9.409 0 2.286
  vertex 9.392 -0.579 0
 endloop
endfacet
facet normal 1 -0.031 0
 outer loop
  vertex 9.392 -0.579 0
  vertex 9.409 0 2.286
  vertex 9.392 -0.579 2.286
 endloop
endfacet
facet normal 0.992 -0.123 0
 outer loop
  vertex 9.392 -0.579 0
  vertex 9.392 -0.579 2.286
  vertex 9.249 -1.729 0
 endloop
endfacet
facet normal 0.992 -0.123 0
 outer loop
  vertex 9.249 -1.729 0
  vertex 9.392 -0.579 2.286
  vertex 9.249 -1.729 2.286
 endloop
endfacet
facet normal 0.97 -0.244 0
 outer loop
  vertex 9.249 -1.729 0
  vertex 9.249 -1.729 2.286
  vertex 8.967 -2.852 0
 endloop
endfacet
facet normal 0.97 -0.244 0
 outer loop
  vertex 8.967 -2.852 0
  vertex 9.249 -1.729 2.286
  vertex 8.967 -2.852 2.286
 endloop
endfacet
facet normal 0.932 -0.361 0
 outer loop
  vertex 8.967 -2.852 0
  vertex 8.967 -2.852 2.286
  vertex 8.548 -3.933 0
 endloop
endfacet
facet normal 0.932 -0.361 0
 outer loop
  vertex 8.548 -3.933 0
  vertex 8.967 -2.852 2.286
  vertex 8.548 -3.933 2.286
 endloop
endfacet
facet normal 0.881 -0.473 0
 outer loop
  vertex 8.548 -3.933 0
  vertex 8.548 -3.933 2.286
  vertex 8 -4.953 0
 endloop
endfacet
facet normal 0.881 -0.473 0
 outer loop
  vertex 8 -4.953 0
  vertex 8.548 -3.933 2.286
  vertex 8 -4.953 2.286
 endloop
endfacet
facet normal 0.816 -0.578 0
 outer loop
  vertex 8 -4.953 0
  vertex 8 -4.953 2.286
  vertex 7.331 -5.899 0
 endloop
endfacet
facet normal 0.816 -0.578 0
 outer loop
  vertex 7.331 -5.899 0
  vertex 8 -4.953 2.286
  vertex 7.331 -5.899 2.286
 endloop
endfacet
facet normal 0.739 -0.674 0
 outer loop
  vertex 7.331 -5.899 0
  vertex 7.331 -5.899 2.286
  vertex 6.55 -6.755 0
 endloop
endfacet
facet normal 0.739 -0.674 0
 outer loop
  vertex 6.55 -6.755 0
  vertex 7.331 -5.899 2.286
  vertex 6.55 -6.755 2.286
 endloop
endfacet
facet normal 0.651 -0.759 0
 outer loop
  vertex 6.55 -6.755 0
  vertex 6.55 -6.755 2.286
  vertex 5.67 -7.509 0
 endloop
endfacet
facet normal 0.651 -0.759 0
 outer loop
  vertex 5.67 -7.509 0
  vertex 6.55 -6.755 2.286
  vertex 5.67 -7.509 2.286
 endloop
endfacet
facet normal 0.552 -0.834 0
 outer loop
  vertex 5.67 -7.509 0
  vertex 5.67 -7.509 2.286
  vertex 4.705 -8.149 0
 endloop
endfacet
facet normal 0.552 -0.834 0
 outer loop
  vertex 4.705 -8.149 0
  vertex 5.67 -7.509 2.286
  vertex 4.705 -8.149 2.286
 endloop
endfacet
facet normal 0.446 -0.895 0
 outer loop
  vertex 4.705 -8.149 0
  vertex 4.705 -8.149 2.286
  vertex 3.668 -8.665 0
 endloop
endfacet
facet normal 0.446 -0.895 0
 outer loop
  vertex 3.668 -8.665 0
  vertex 4.705 -8.149 2.286
  vertex 3.668 -8.665 2.286
 endloop
endfacet
facet normal 0.332 -0.943 0
 outer loop
  vertex 3.668 -8.665 0
  vertex 3.668 -8.665 2.286
  vertex 2.575 -9.05 0
 endloop
endfacet
facet normal 0.332 -0.943 0
 outer loop
  vertex 2.575 -9.05 0
  vertex 3.668 -8.665 2.286
  vertex 2.575 -9.05 2.286
 endloop
endfacet
facet normal 0.214 -0.977 0
 outer loop
  vertex 2.575 -9.05 0
  vertex 2.575 -9.05 2.286
  vertex 1.443 -9.298 0
 endloop
endfacet
facet normal 0.214 -0.977 0
 outer loop
  vertex 1.443 -9.298 0
  vertex 2.575 -9.05 2.286
  vertex 1.443 -9.298 2.286
 endloop
endfacet
facet normal 0.092 -0.996 0
 outer loop
  vertex 1.443 -9.298 0
  vertex 1.443 -9.298 2.286
  vertex 0.29 -9.405 0
 endloop
endfacet
facet normal 0.092 -0.996 0
 outer loop
  vertex 0.29 -9.405 0
  vertex 1.443 -9.298 2.286
  vertex 0.29 -9.405 2.286
 endloop
endfacet
facet normal -0.031 -1 0
 outer loop
  vertex 0.29 -9.405 0
  vertex 0.29 -9.405 2.286
  vertex -0.868 -9.369 0
 endloop
endfacet
facet normal -0.031 -1 0
 outer loop
  vertex -0.868 -9.369 0
  vertex 0.29 -9.405 2.286
  vertex -0.868 -9.369 2.286
 endloop
endfacet
facet normal -0.153 -0.988 0
 outer loop
  vertex -0.868 -9.369 0
  vertex -0.868 -9.369 2.286
  vertex -2.013 -9.192 0
 endloop
endfacet
facet normal -0.153 -0.988 0
 outer loop
  vertex -2.013 -9.192 0
  vertex -0.868 -9.369 2.286
  vertex -2.013 -9.192 2.286
 endloop
endfacet
facet normal -0.274 -0.962 0
 outer loop
  vertex -2.013 -9.192 0
  vertex -2.013 -9.192 2.286
  vertex -3.127 -8.875 0
 endloop
endfacet
facet normal -0.274 -0.962 0
 outer loop
  vertex -3.127 -8.875 0
  vertex -2.013 -9.192 2.286
  vertex -3.127 -8.875 2.286
 endloop
endfacet
facet normal -0.39 -0.921 0
 outer loop
  vertex -3.127 -8.875 0
  vertex -3.127 -8.875 2.286
  vertex -4.194 -8.423 0
 endloop
endfacet
facet normal -0.39 -0.921 0
 outer loop
  vertex -4.194 -8.423 0
  vertex -3.127 -8.875 2.286
  vertex -4.194 -8.423 2.286
 endloop
endfacet
facet normal -0.5 -0.866 0
 outer loop
  vertex -4.194 -8.423 0
  vertex -4.194 -8.423 2.286
  vertex -5.197 -7.844 0
 endloop
endfacet
facet normal -0.5 -0.866 0
 outer loop
  vertex -5.197 -7.844 0
  vertex -4.194 -8.423 2.286
  vertex -5.197 -7.844 2.286
 endloop
endfacet
facet normal -0.603 -0.798 0
 outer loop
  vertex -5.197 -7.844 0
  vertex -5.197 -7.844 2.286
  vertex -6.122 -7.146 0
 endloop
endfacet
facet normal -0.603 -0.798 0
 outer loop
  vertex -6.122 -7.146 0
  vertex -5.197 -7.844 2.286
  vertex -6.122 -7.146 2.286
 endloop
endfacet
facet normal -0.696 -0.718 0
 outer loop
  vertex -6.122 -7.146 0
  vertex -6.122 -7.146 2.286
  vertex -6.954 -6.339 0
 endloop
endfacet
facet normal -0.696 -0.718 0
 outer loop
  vertex -6.954 -6.339 0
  vertex -6.122 -7.146 2.286
  vertex -6.954 -6.339 2.286
 endloop
endfacet
facet normal -0.779 -0.627 0
 outer loop
  vertex -6.954 -6.339 0
  vertex -6.954 -6.339 2.286
  vertex -7.68 -5.437 0
 endloop
endfacet
facet normal -0.779 -0.627 0
 outer loop
  vertex -7.68 -5.437 0
  vertex -6.954 -6.339 2.286
  vertex -7.68 -5.437 2.286
 endloop
endfacet
facet normal -0.85 -0.526 0
 outer loop
  vertex -7.68 -5.437 0
  vertex -7.68 -5.437 2.286
  vertex -8.29 -4.452 0
 endloop
endfacet
facet normal -0.85 -0.526 0
 outer loop
  vertex -8.29 -4.452 0
  vertex -7.68 -5.437 2.286
  vertex -8.29 -4.452 2.286
 endloop
endfacet
facet normal -0.908 -0.418 0
 outer loop
  vertex -8.29 -4.452 0
  vertex -8.29 -4.452 2.286
  vertex -8.774 -3.399 0
 endloop
endfacet
facet normal -0.908 -0.418 0
 outer loop
  vertex -8.774 -3.399 0
  vertex -8.29 -4.452 2.286
  vertex -8.774 -3.399 2.286
 endloop
endfacet
facet normal -0.953 -0.303 0
 outer loop
  vertex -8.774 -3.399 0
  vertex -8.774 -3.399 2.286
  vertex -9.125 -2.295 0
 endloop
endfacet
facet normal -0.953 -0.303 0
 outer loop
  vertex -9.125 -2.295 0
  vertex -8.774 -3.399 2.286
  vertex -9.125 -2.295 2.286
 endloop
endfacet
facet normal -0.983 -0.184 0
 outer loop
  vertex -9.125 -2.295 0
  vertex -9.125 -2.295 2.286
  vertex -9.338 -1.156 0
 endloop
endfacet
facet normal -0.983 -0.184 0
 outer loop
  vertex -9.338 -1.156 0
  vertex -9.125 -2.295 2.286
  vertex -9.338 -1.156 2.286
 endloop
endfacet
facet normal -0.998 -0.062 0
 outer loop
  vertex -9.338 -1.156 0
  vertex -9.338 -1.156 2.286
  vertex -9.409 -0 0
 endloop
endfacet
facet normal -0.998 -0.062 0
 outer loop
  vertex -9.409 -0 0
  vertex -9.338 -1.156 2.286
  vertex -9.409 0 2.286
 endloop
endfacet
facet normal -0.998 0.062 -0
 outer loop
  vertex -9.409 -0 0
  vertex -9.409 0 2.286
  vertex -9.338 1.156 0
 endloop
endfacet
facet normal -0.998 0.062 0
 outer loop
  vertex -9.338 1.156 0
  vertex -9.409 0 2.286
  vertex -9.338 1.156 2.286
 endloop
endfacet
facet normal -0.983 0.184 0
 outer loop
  vertex -9.338 1.156 0
  vertex -9.338 1.156 2.286
  vertex -9.125 2.295 0
 endloop
endfacet
facet normal -0.983 0.184 0
 outer loop
  vertex -9.125 2.295 0
  vertex -9.338 1.156 2.286
  vertex -9.125 2.295 2.286
 endloop
endfacet
facet normal -0.953 0.303 0
 outer loop
  vertex -9.125 2.295 0
  vertex -9.125 2.295 2.286
  vertex -8.774 3.399 0
 endloop
endfacet
facet normal -0.953 0.303 0
 outer loop
  vertex -8.774 3.399 0
  vertex -9.125 2.295 2.286
  vertex -8.774 3.399 2.286
 endloop
endfacet
facet normal -0.908 0.418 0
 outer loop
  vertex -8.774 3.399 0
  vertex -8.774 3.399 2.286
  vertex -8.29 4.452 0
 endloop
endfacet
facet normal -0.908 0.418 0
 outer loop
  vertex -8.29 4.452 0
  vertex -8.774 3.399 2.286
  vertex -8.29 4.452 2.286
 endloop
endfacet
facet normal -0.85 0.526 0
 outer loop
  vertex -8.29 4.452 0
  vertex -8.29 4.452 2.286
  vertex -7.68 5.437 0
 endloop
endfacet
facet normal -0.85 0.526 0
 outer loop
  vertex -7.68 5.437 0
  vertex -8.29 4.452 2.286
  vertex -7.68 5.437 2.286
 endloop
endfacet
facet normal -0.779 0.627 0
 outer loop
  vertex -7.68 5.437 0
  vertex -7.68 5.437 2.286
  vertex -6.954 6.339 0
 endloop
endfacet
facet normal -0.779 0.627 0
 outer loop
  vertex -6.954 6.339 0
  vertex -7.68 5.437 2.286
  vertex -6.954 6.339 2.286
 endloop
endfacet
facet normal -0.696 0.718 0
 outer loop
  vertex -6.954 6.339 0
  vertex -6.954 6.339 2.286
  vertex -6.122 7.146 0
 endloop
endfacet
facet normal -0.696 0.718 0
 outer loop
  vertex -6.122 7.146 0
  vertex -6.954 6.339 2.286
  vertex -6.122 7.146 2.286
 endloop
endfacet
facet normal -0.603 0.798 0
 outer loop
  vertex -6.122 7.146 0
  vertex -6.122 7.146 2.286
  vertex -5.197 7.844 0
 endloop
endfacet
facet normal -0.603 0.798 0
 outer loop
  vertex -5.197 7.844 0
  vertex -6.122 7.146 2.286
  vertex -5.197 7.844 2.286
 endloop
endfacet
facet normal -0.5 0.866 0
 outer loop
  vertex -5.197 7.844 0
  vertex -5.197 7.844 2.286
  vertex -4.194 8.423 0
 endloop
endfacet
facet normal -0.5 0.866 0
 outer loop
  vertex -4.194 8.423 0
  vertex -5.197 7.844 2.286
  vertex -4.194 8.423 2.286
 endloop
endfacet
facet normal -0.39 0.921 0
 outer loop
  vertex -4.194 8.423 0
  vertex -4.194 8.423 2.286
  vertex -3.127 8.875 0
 endloop
endfacet
facet normal -0.39 0.921 0
 outer loop
  vertex -3.127 8.875 0
  vertex -4.194 8.423 2.286
  vertex -3.127 8.875 2.286
 endloop
endfacet
facet normal -0.274 0.962 0
 outer loop
  vertex -3.127 8.875 0
  vertex -3.127 8.875 2.286
  vertex -2.013 9.192 0
 endloop
endfacet
facet normal -0.274 0.962 0
 outer loop
  vertex -2.013 9.192 0
  vertex -3.127 8.875 2.286
  vertex -2.013 9.192 2.286
 endloop
endfacet
facet normal -0.153 0.988 0
 outer loop
  vertex -2.013 9.192 0
  vertex -2.013 9.192 2.286
  vertex -0.868 9.369 0
 endloop
endfacet
facet normal -0.153 0.988 0
 outer loop
  vertex -0.868 9.369 0
  vertex -2.013 9.192 2.286
  vertex -0.868 9.369 2.286
 endloop
endfacet
facet normal -0.031 1 0
 outer loop
  vertex -0.868 9.369 0
  vertex -0.868 9.369 2.286
  vertex 0.29 9.405 0
 endloop
endfacet
facet normal -0.031 1 0
 outer loop
  vertex 0.29 9.405 0
  vertex -0.868 9.369 2.286
  vertex 0.29 9.405 2.286
 endloop
endfacet
facet normal 0.092 0.996 -0
 outer loop
  vertex 0.29 9.405 0
  vertex 0.29 9.405 2.286
  vertex 1.443 9.298 0
 endloop
endfacet
facet normal 0.092 0.996 -0
 outer loop
  vertex 1.443 9.298 0
  vertex 0.29 9.405 2.286
  vertex 1.443 9.298 2.286
 endloop
endfacet
facet normal 0.214 0.977 -0
 outer loop
  vertex 1.443 9.298 0
  vertex 1.443 9.298 2.286
  vertex 2.575 9.05 0
 endloop
endfacet
facet normal 0.214 0.977 -0
 outer loop
  vertex 2.575 9.05 0
  vertex 1.443 9.298 2.286
  vertex 2.575 9.05 2.286
 endloop
endfacet
facet normal 0.332 0.943 -0
 outer loop
  vertex 2.575 9.05 0
  vertex 2.575 9.05 2.286
  vertex 3.668 8.665 0
 endloop
endfacet
facet normal 0.332 0.943 -0
 outer loop
  vertex 3.668 8.665 0
  vertex 2.575 9.05 2.286
  vertex 3.668 8.665 2.286
 endloop
endfacet
facet normal 0.446 0.895 -0
 outer loop
  vertex 3.668 8.665 0
  vertex 3.668 8.665 2.286
  vertex 4.705 8.149 0
 endloop
endfacet
facet normal 0.446 0.895 -0
 outer loop
  vertex 4.705 8.149 0
  vertex 3.668 8.665 2.286
  vertex 4.705 8.149 2.286
 endloop
endfacet
facet normal 0.552 0.834 -0
 outer loop
  vertex 4.705 8.149 0
  vertex 4.705 8.149 2.286
  vertex 5.67 7.509 0
 endloop
endfacet
facet normal 0.552 0.834 -0
 outer loop
  vertex 5.67 7.509 0
  vertex 4.705 8.149 2.286
  vertex 5.67 7.509 2.286
 endloop
endfacet
facet normal 0.651 0.759 -0
 outer loop
  vertex 5.67 7.509 0
  vertex 5.67 7.509 2.286
  vertex 6.55 6.755 0
 endloop
endfacet
facet normal 0.651 0.759 -0
 outer loop
  vertex 6.55 6.755 0
  vertex 5.67 7.509 2.286
  vertex 6.55 6.755 2.286
 endloop
endfacet
facet normal 0.739 0.674 -0
 outer loop
  vertex 6.55 6.755 0
  vertex 6.55 6.755 2.286
  vertex 7.331 5.899 0
 endloop
endfacet
facet normal 0.739 0.674 -0
 outer loop
  vertex 7.331 5.899 0
  vertex 6.55 6.755 2.286
  vertex 7.331 5.899 2.286
 endloop
endfacet
facet normal 0.816 0.578 -0
 outer loop
  vertex 7.331 5.899 0
  vertex 7.331 5.899 2.286
  vertex 8 4.953 0
 endloop
endfacet
facet normal 0.816 0.578 -0
 outer loop
  vertex 8 4.953 0
  vertex 7.331 5.899 2.286
  vertex 8 4.953 2.286
 endloop
endfacet
facet normal 0.881 0.473 -0
 outer loop
  vertex 8 4.953 0
  vertex 8 4.953 2.286
  vertex 8.548 3.933 0
 endloop
endfacet
facet normal 0.881 0.473 -0
 outer loop
  vertex 8.548 3.933 0
  vertex 8 4.953 2.286
  vertex 8.548 3.933 2.286
 endloop
endfacet
facet normal 0.932 0.361 -0
 outer loop
  vertex 8.548 3.933 0
  vertex 8.548 3.933 2.286
  vertex 8.967 2.852 0
 endloop
endfacet
facet normal 0.932 0.361 -0
 outer loop
  vertex 8.967 2.852 0
  vertex 8.548 3.933 2.286
  vertex 8.967 2.852 2.286
 endloop
endfacet
facet normal 0.97 0.244 -0
 outer loop
  vertex 8.967 2.852 0
  vertex 8.967 2.852 2.286
  vertex 9.249 1.729 0
 endloop
endfacet
facet normal 0.97 0.244 -0
 outer loop
  vertex 9.249 1.729 0
  vertex 8.967 2.852 2.286
  vertex 9.249 1.729 2.286
 endloop
endfacet
facet normal 0.992 0.123 -0
 outer loop
  vertex 9.249 1.729 0
  vertex 9.249 1.729 2.286
  vertex 9.392 0.579 0
 endloop
endfacet
facet normal 0.992 0.123 -0
 outer loop
  vertex 9.392 0.579 0
  vertex 9.249 1.729 2.286
  vertex 9.392 0.579 2.286
 endloop
endfacet
facet normal 0 0 -1
 outer loop
  vertex 4.791 -0.296 0
  vertex 4.801 0 0
  vertex 9.409 0 0
 endloop
endfacet
facet normal 0 0 -1
 outer loop
  vertex 9.409 0 0
  vertex 4.801 0 0
  vertex 4.791 0.296 0
 endloop
endfacet
facet normal 0 0 -1
 outer loop
  vertex 9.409 0 0
  vertex 4.791 0.296 0
  vertex 9.392 0.579 0
 endloop
endfacet
facet normal -0 0 -1
 outer loop
  vertex 9.392 0.579 0
  vertex 4.791 0.296 0
  vertex 4.719 0.882 0
 endloop
endfacet
facet normal 0 0 -1
 outer loop
  vertex 9.392 0.579 0
  vertex 4.719 0.882 0
  vertex 9.249 1.729 0
 endloop
endfacet
facet normal 0 0 -1
 outer loop
  vertex 9.249 1.729 0
  vertex 4.719 0.882 0
  vertex 4.575 1.455 0
 endloop
endfacet
facet normal -0 0 -1
 outer loop
  vertex 9.249 1.729 0
  vertex 4.575 1.455 0
  vertex 8.967 2.852 0
 endloop
endfacet
facet normal 0 0 -1
 outer loop
  vertex 8.967 2.852 0
  vertex 4.575 1.455 0
  vertex 4.361 2.006 0
 endloop
endfacet
facet normal -0 0 -1
 outer loop
  vertex 8.967 2.852 0
  vertex 4.361 2.006 0
  vertex 8.548 3.933 0
 endloop
endfacet
facet normal 0 0 -1
 outer loop
  vertex 8.548 3.933 0
  vertex 4.361 2.006 0
  vertex 4.082 2.527 0
 endloop
endfacet
facet normal -0 0 -1
 outer loop
  vertex 8.548 3.933 0
  vertex 4.082 2.527 0
  vertex 8 4.953 0
 endloop
endfacet
facet normal 0 0 -1
 outer loop
  vertex 8 4.953 0
  vertex 4.082 2.527 0
  vertex 3.74 3.01 0
 endloop
endfacet
facet normal -0 0 -1
 outer loop
  vertex 8 4.953 0
  vertex 3.74 3.01 0
  vertex 7.331 5.899 0
 endloop
endfacet
facet normal 0 0 -1
 outer loop
  vertex 7.331 5.899 0
  vertex 3.74 3.01 0
  vertex 3.342 3.446 0
 endloop
endfacet
facet normal -0 0 -1
 outer loop
  vertex 7.331 5.899 0
  vertex 3.342 3.446 0
  vertex 6.55 6.755 0
 endloop
endfacet
facet normal 0 0 -1
 outer loop
  vertex 6.55 6.755 0
  vertex 3.342 3.446 0
  vertex 2.893 3.831 0
 endloop
endfacet
facet normal -0 0 -1
 outer loop
  vertex 6.55 6.755 0
  vertex 2.893 3.831 0
  vertex 5.67 7.509 0
 endloop
endfacet
facet normal 0 0 -1
 outer loop
  vertex 5.67 7.509 0
  vertex 2.893 3.831 0
  vertex 2.4 4.157 0
 endloop
endfacet
facet normal -0 0 -1
 outer loop
  vertex 5.67 7.509 0
  vertex 2.4 4.157 0
  vertex 4.705 8.149 0
 endloop
endfacet
facet normal 0 0 -1
 outer loop
  vertex 4.705 8.149 0
  vertex 2.4 4.157 0
  vertex 1.871 4.421 0
 endloop
endfacet
facet normal -0 0 -1
 outer loop
  vertex 4.705 8.149 0
  vertex 1.871 4.421 0
  vertex 3.668 8.665 0
 endloop
endfacet
facet normal 0 0 -1
 outer loop
  vertex 3.668 8.665 0
  vertex 1.871 4.421 0
  vertex 1.314 4.617 0
 endloop
endfacet
facet normal -0 0 -1
 outer loop
  vertex 3.668 8.665 0
  vertex 1.314 4.617 0
  vertex 2.575 9.05 0
 endloop
endfacet
facet normal 0 0 -1
 outer loop
  vertex 2.575 9.05 0
  vertex 1.314 4.617 0
  vertex 0.736 4.744 0
 endloop
endfacet
facet normal -0 0 -1
 outer loop
  vertex 2.575 9.05 0
  vertex 0.736 4.744 0
  vertex 1.443 9.298 0
 endloop
endfacet
facet normal 0 0 -1
 outer loop
  vertex 1.443 9.298 0
  vertex 0.736 4.744 0
  vertex 0.148 4.798 0
 endloop
endfacet
facet normal -0 0 -1
 outer loop
  vertex 1.443 9.298 0
  vertex 0.148 4.798 0
  vertex 0.29 9.405 0
 endloop
endfacet
facet normal 0 0 -1
 outer loop
  vertex 0.29 9.405 0
  vertex 0.148 4.798 0
  vertex -0.868 9.369 0
 endloop
endfacet
facet normal -0 0 -1
 outer loop
  vertex 0.148 4.798 0
  vertex -0.443 4.78 0
  vertex -0.868 9.369 0
 endloop
endfacet
facet normal 0 -0 -1
 outer loop
  vertex -0.868 9.369 0
  vertex -0.443 4.78 0
  vertex -2.013 9.192 0
 endloop
endfacet
facet normal -0 0 -1
 outer loop
  vertex -0.443 4.78 0
  vertex -1.027 4.689 0
  vertex -2.013 9.192 0
 endloop
endfacet
facet normal 0 -0 -1
 outer loop
  vertex -2.013 9.192 0
  vertex -1.027 4.689 0
  vertex -3.127 8.875 0
 endloop
endfacet
facet normal -0 0 -1
 outer loop
  vertex -1.027 4.689 0
  vertex -1.595 4.528 0
  vertex -3.127 8.875 0
 endloop
endfacet
facet normal 0 -0 -1
 outer loop
  vertex -3.127 8.875 0
  vertex -1.595 4.528 0
  vertex -4.194 8.423 0
 endloop
endfacet
facet normal -0 0 -1
 outer loop
  vertex -1.595 4.528 0
  vertex -2.14 4.297 0
  vertex -4.194 8.423 0
 endloop
endfacet
facet normal 0 -0 -1
 outer loop
  vertex -4.194 8.423 0
  vertex -2.14 4.297 0
  vertex -5.197 7.844 0
 endloop
endfacet
facet normal -0 0 -1
 outer loop
  vertex -2.14 4.297 0
  vertex -2.652 4.002 0
  vertex -5.197 7.844 0
 endloop
endfacet
facet normal 0 -0 -1
 outer loop
  vertex -5.197 7.844 0
  vertex -2.652 4.002 0
  vertex -6.122 7.146 0
 endloop
endfacet
facet normal -0 0 -1
 outer loop
  vertex -2.652 4.002 0
  vertex -3.123 3.646 0
  vertex -6.122 7.146 0
 endloop
endfacet
facet normal 0 -0 -1
 outer loop
  vertex -6.122 7.146 0
  vertex -3.123 3.646 0
  vertex -6.954 6.339 0
 endloop
endfacet
facet normal -0 0 -1
 outer loop
  vertex -3.123 3.646 0
  vertex -3.548 3.234 0
  vertex -6.954 6.339 0
 endloop
endfacet
facet normal 0 -0 -1
 outer loop
  vertex -6.954 6.339 0
  vertex -3.548 3.234 0
  vertex -7.68 5.437 0
 endloop
endfacet
facet normal -0 0 -1
 outer loop
  vertex -3.548 3.234 0
  vertex -3.918 2.774 0
  vertex -7.68 5.437 0
 endloop
endfacet
facet normal 0 -0 -1
 outer loop
  vertex -7.68 5.437 0
  vertex -3.918 2.774 0
  vertex -8.29 4.452 0
 endloop
endfacet
facet normal -0 0 -1
 outer loop
  vertex -3.918 2.774 0
  vertex -4.229 2.271 0
  vertex -8.29 4.452 0
 endloop
endfacet
facet normal 0 -0 -1
 outer loop
  vertex -8.29 4.452 0
  vertex -4.229 2.271 0
  vertex -8.774 3.399 0
 endloop
endfacet
facet normal -0 0 -1
 outer loop
  vertex -4.229 2.271 0
  vertex -4.476 1.734 0
  vertex -8.774 3.399 0
 endloop
endfacet
facet normal 0 -0 -1
 outer loop
  vertex -8.774 3.399 0
  vertex -4.476 1.734 0
  vertex -9.125 2.295 0
 endloop
endfacet
facet normal -0 0 -1
 outer loop
  vertex -4.476 1.734 0
  vertex -4.656 1.171 0
  vertex -9.125 2.295 0
 endloop
endfacet
facet normal 0 -0 -1
 outer loop
  vertex -9.125 2.295 0
  vertex -4.656 1.171 0
  vertex -9.338 1.156 0
 endloop
endfacet
facet normal 0 0 -1
 outer loop
  vertex -4.656 1.171 0
  vertex -4.764 0.59 0
  vertex -9.338 1.156 0
 endloop
endfacet
facet normal 0 -0 -1
 outer loop
  vertex -9.338 1.156 0
  vertex -4.764 0.59 0
  vertex -9.409 -0 0
 endloop
endfacet
facet normal 0 0 -1
 outer loop
  vertex -4.764 0.59 0
  vertex -4.801 0 0
  vertex -9.409 -0 0
 endloop
endfacet
facet normal 0 0 -1
 outer loop
  vertex -9.409 -0 0
  vertex -4.801 0 0
  vertex -9.338 -1.156 0
 endloop
endfacet
facet normal 0 -0 -1
 outer loop
  vertex -4.801 0 0
  vertex -4.764 -0.59 0
  vertex -9.338 -1.156 0
 endloop
endfacet
facet normal 0 0 -1
 outer loop
  vertex -9.338 -1.156 0
  vertex -4.764 -0.59 0
  vertex -4.656 -1.171 0
 endloop
endfacet
facet normal 0 0 -1
 outer loop
  vertex -9.338 -1.156 0
  vertex -4.656 -1.171 0
  vertex -9.125 -2.295 0
 endloop
endfacet
facet normal 0 0 -1
 outer loop
  vertex -9.125 -2.295 0
  vertex -4.656 -1.171 0
  vertex -4.476 -1.734 0
 endloop
endfacet
facet normal 0 0 -1
 outer loop
  vertex -9.125 -2.295 0
  vertex -4.476 -1.734 0
  vertex -8.774 -3.399 0
 endloop
endfacet
facet normal 0 0 -1
 outer loop
  vertex -8.774 -3.399 0
  vertex -4.476 -1.734 0
  vertex -4.229 -2.271 0
 endloop
endfacet
facet normal 0 0 -1
 outer loop
  vertex -8.774 -3.399 0
  vertex -4.229 -2.271 0
  vertex -8.29 -4.452 0
 endloop
endfacet
facet normal 0 0 -1
 outer loop
  vertex -8.29 -4.452 0
  vertex -4.229 -2.271 0
  vertex -3.918 -2.774 0
 endloop
endfacet
facet normal 0 0 -1
 outer loop
  vertex -8.29 -4.452 0
  vertex -3.918 -2.774 0
  vertex -7.68 -5.437 0
 endloop
endfacet
facet normal 0 0 -1
 outer loop
  vertex -7.68 -5.437 0
  vertex -3.918 -2.774 0
  vertex -3.548 -3.234 0
 endloop
endfacet
facet normal 0 0 -1
 outer loop
  vertex -7.68 -5.437 0
  vertex -3.548 -3.234 0
  vertex -6.954 -6.339 0
 endloop
endfacet
facet normal 0 0 -1
 outer loop
  vertex -6.954 -6.339 0
  vertex -3.548 -3.234 0
  vertex -3.123 -3.646 0
 endloop
endfacet
facet normal 0 0 -1
 outer loop
  vertex -6.954 -6.339 0
  vertex -3.123 -3.646 0
  vertex -6.122 -7.146 0
 endloop
endfacet
facet normal 0 0 -1
 outer loop
  vertex -6.122 -7.146 0
  vertex -3.123 -3.646 0
  vertex -2.652 -4.002 0
 endloop
endfacet
facet normal 0 0 -1
 outer loop
  vertex -6.122 -7.146 0
  vertex -2.652 -4.002 0
  vertex -5.197 -7.844 0
 endloop
endfacet
facet normal 0 0 -1
 outer loop
  vertex -5.197 -7.844 0
  vertex -2.652 -4.002 0
  vertex -2.14 -4.297 0
 endloop
endfacet
facet normal 0 0 -1
 outer loop
  vertex -5.197 -7.844 0
  vertex -2.14 -4.297 0
  vertex -4.194 -8.423 0
 endloop
endfacet
facet normal 0 0 -1
 outer loop
  vertex -4.194 -8.423 0
  vertex -2.14 -4.297 0
  vertex -1.595 -4.528 0
 endloop
endfacet
facet normal 0 0 -1
 outer loop
  vertex -4.194 -8.423 0
  vertex -1.595 -4.528 0
  vertex -3.127 -8.875 0
 endloop
endfacet
facet normal 0 0 -1
 outer loop
  vertex -3.127 -8.875 0
  vertex -1.595 -4.528 0
  vertex -1.027 -4.689 0
 endloop
endfacet
facet normal 0 0 -1
 outer loop
  vertex -3.127 -8.875 0
  vertex -1.027 -4.689 0
  vertex -2.013 -9.192 0
 endloop
endfacet
facet normal 0 0 -1
 outer loop
  vertex -2.013 -9.192 0
  vertex -1.027 -4.689 0
  vertex -0.443 -4.78 0
 endloop
endfacet
facet normal 0 0 -1
 outer loop
  vertex -2.013 -9.192 0
  vertex -0.443 -4.78 0
  vertex -0.868 -9.369 0
 endloop
endfacet
facet normal 0 0 -1
 outer loop
  vertex -0.868 -9.369 0
  vertex -0.443 -4.78 0
  vertex 0.148 -4.798 0
 endloop
endfacet
facet normal 0 0 -1
 outer loop
  vertex -0.868 -9.369 0
  vertex 0.148 -4.798 0
  vertex 0.29 -9.405 0
 endloop
endfacet
facet normal 0 0 -1
 outer loop
  vertex 0.29 -9.405 0
  vertex 0.148 -4.798 0
  vertex 1.443 -9.298 0
 endloop
endfacet
facet normal 0 0 -1
 outer loop
  vertex 0.148 -4.798 0
  vertex 0.736 -4.744 0
  vertex 1.443 -9.298 0
 endloop
endfacet
facet normal 0 0 -1
 outer loop
  vertex 1.443 -9.298 0
  vertex 0.736 -4.744 0
  vertex 2.575 -9.05 0
 endloop
endfacet
facet normal 0 0 -1
 outer loop
  vertex 0.736 -4.744 0
  vertex 1.314 -4.617 0
  vertex 2.575 -9.05 0
 endloop
endfacet
facet normal 0 0 -1
 outer loop
  vertex 2.575 -9.05 0
  vertex 1.314 -4.617 0
  vertex 3.668 -8.665 0
 endloop
endfacet
facet normal 0 0 -1
 outer loop
  vertex 1.314 -4.617 0
  vertex 1.871 -4.421 0
  vertex 3.668 -8.665 0
 endloop
endfacet
facet normal 0 0 -1
 outer loop
  vertex 3.668 -8.665 0
  vertex 1.871 -4.421 0
  vertex 4.705 -8.149 0
 endloop
endfacet
facet normal 0 0 -1
 outer loop
  vertex 1.871 -4.421 0
  vertex 2.4 -4.157 0
  vertex 4.705 -8.149 0
 endloop
endfacet
facet normal 0 0 -1
 outer loop
  vertex 4.705 -8.149 0
  vertex 2.4 -4.157 0
  vertex 5.67 -7.509 0
 endloop
endfacet
facet normal 0 0 -1
 outer loop
  vertex 2.4 -4.157 0
  vertex 2.893 -3.831 0
  vertex 5.67 -7.509 0
 endloop
endfacet
facet normal 0 0 -1
 outer loop
  vertex 5.67 -7.509 0
  vertex 2.893 -3.831 0
  vertex 6.55 -6.755 0
 endloop
endfacet
facet normal 0 0 -1
 outer loop
  vertex 2.893 -3.831 0
  vertex 3.342 -3.446 0
  vertex 6.55 -6.755 0
 endloop
endfacet
facet normal 0 0 -1
 outer loop
  vertex 6.55 -6.755 0
  vertex 3.342 -3.446 0
  vertex 7.331 -5.899 0
 endloop
endfacet
facet normal 0 0 -1
 outer loop
  vertex 3.342 -3.446 0
  vertex 3.74 -3.01 0
  vertex 7.331 -5.899 0
 endloop
endfacet
facet normal 0 0 -1
 outer loop
  vertex 7.331 -5.899 0
  vertex 3.74 -3.01 0
  vertex 8 -4.953 0
 endloop
endfacet
facet normal 0 0 -1
 outer loop
  vertex 3.74 -3.01 0
  vertex 4.082 -2.527 0
  vertex 8 -4.953 0
 endloop
endfacet
facet normal 0 0 -1
 outer loop
  vertex 8 -4.953 0
  vertex 4.082 -2.527 0
  vertex 8.548 -3.933 0
 endloop
endfacet
facet normal 0 0 -1
 outer loop
  vertex 4.082 -2.527 0
  vertex 4.361 -2.006 0
  vertex 8.548 -3.933 0
 endloop
endfacet
facet normal 0 0 -1
 outer loop
  vertex 8.548 -3.933 0
  vertex 4.361 -2.006 0
  vertex 8.967 -2.852 0
 endloop
endfacet
facet normal 0 0 -1
 outer loop
  vertex 4.361 -2.006 0
  vertex 4.575 -1.455 0
  vertex 8.967 -2.852 0
 endloop
endfacet
facet normal 0 0 -1
 outer loop
  vertex 8.967 -2.852 0
  vertex 4.575 -1.455 0
  vertex 9.249 -1.729 0
 endloop
endfacet
facet normal 0 0 -1
 outer loop
  vertex 4.575 -1.455 0
  vertex 4.719 -0.882 0
  vertex 9.249 -1.729 0
 endloop
endfacet
facet normal 0 0 -1
 outer loop
  vertex 9.249 -1.729 0
  vertex 4.719 -0.882 0
  vertex 9.392 -0.579 0
 endloop
endfacet
facet normal 0 0 -1
 outer loop
  vertex 4.719 -0.882 0
  vertex 4.791 -0.296 0
  vertex 9.392 -0.579 0
 endloop
endfacet
facet normal 0 0 -1
 outer loop
  vertex 9.392 -0.579 0
  vertex 4.791 -0.296 0
  vertex 9.409 0 0
 endloop
endfacet
facet normal -0 0 1
 outer loop
  vertex 4.791 -0.296 2.286
  vertex 9.392 -0.579 2.286
  vertex 4.801 0 2.286
 endloop
endfacet
facet normal -0 0 1
 outer loop
  vertex 4.801 0 2.286
  vertex 9.392 -0.579 2.286
  vertex 9.409 0 2.286
 endloop
endfacet
facet normal 0 -0 1
 outer loop
  vertex 4.801 0 2.286
  vertex 9.409 0 2.286
  vertex 4.791 0.296 2.286
 endloop
endfacet
facet normal -0 0 1
 outer loop
  vertex 4.791 0.296 2.286
  vertex 9.409 0 2.286
  vertex 9.392 0.579 2.286
 endloop
endfacet
facet normal 0 -0 1
 outer loop
  vertex 4.791 0.296 2.286
  vertex 9.392 0.579 2.286
  vertex 4.719 0.882 2.286
 endloop
endfacet
facet normal -0 0 1
 outer loop
  vertex 4.719 0.882 2.286
  vertex 9.392 0.579 2.286
  vertex 9.249 1.729 2.286
 endloop
endfacet
facet normal 0 -0 1
 outer loop
  vertex 4.719 0.882 2.286
  vertex 9.249 1.729 2.286
  vertex 4.575 1.455 2.286
 endloop
endfacet
facet normal 0 0 1
 outer loop
  vertex 4.575 1.455 2.286
  vertex 9.249 1.729 2.286
  vertex 8.967 2.852 2.286
 endloop
endfacet
facet normal 0 -0 1
 outer loop
  vertex 4.575 1.455 2.286
  vertex 8.967 2.852 2.286
  vertex 4.361 2.006 2.286
 endloop
endfacet
facet normal 0 0 1
 outer loop
  vertex 4.361 2.006 2.286
  vertex 8.967 2.852 2.286
  vertex 8.548 3.933 2.286
 endloop
endfacet
facet normal 0 -0 1
 outer loop
  vertex 4.361 2.006 2.286
  vertex 8.548 3.933 2.286
  vertex 4.082 2.527 2.286
 endloop
endfacet
facet normal 0 0 1
 outer loop
  vertex 4.082 2.527 2.286
  vertex 8.548 3.933 2.286
  vertex 8 4.953 2.286
 endloop
endfacet
facet normal 0 -0 1
 outer loop
  vertex 4.082 2.527 2.286
  vertex 8 4.953 2.286
  vertex 3.74 3.01 2.286
 endloop
endfacet
facet normal 0 0 1
 outer loop
  vertex 3.74 3.01 2.286
  vertex 8 4.953 2.286
  vertex 7.331 5.899 2.286
 endloop
endfacet
facet normal 0 -0 1
 outer loop
  vertex 3.74 3.01 2.286
  vertex 7.331 5.899 2.286
  vertex 3.342 3.446 2.286
 endloop
endfacet
facet normal 0 0 1
 outer loop
  vertex 3.342 3.446 2.286
  vertex 7.331 5.899 2.286
  vertex 6.55 6.755 2.286
 endloop
endfacet
facet normal 0 -0 1
 outer loop
  vertex 3.342 3.446 2.286
  vertex 6.55 6.755 2.286
  vertex 2.893 3.831 2.286
 endloop
endfacet
facet normal 0 0 1
 outer loop
  vertex 2.893 3.831 2.286
  vertex 6.55 6.755 2.286
  vertex 5.67 7.509 2.286
 endloop
endfacet
facet normal 0 -0 1
 outer loop
  vertex 2.893 3.831 2.286
  vertex 5.67 7.509 2.286
  vertex 2.4 4.157 2.286
 endloop
endfacet
facet normal 0 0 1
 outer loop
  vertex 2.4 4.157 2.286
  vertex 5.67 7.509 2.286
  vertex 4.705 8.149 2.286
 endloop
endfacet
facet normal 0 -0 1
 outer loop
  vertex 2.4 4.157 2.286
  vertex 4.705 8.149 2.286
  vertex 1.871 4.421 2.286
 endloop
endfacet
facet normal 0 0 1
 outer loop
  vertex 1.871 4.421 2.286
  vertex 4.705 8.149 2.286
  vertex 3.668 8.665 2.286
 endloop
endfacet
facet normal 0 -0 1
 outer loop
  vertex 1.871 4.421 2.286
  vertex 3.668 8.665 2.286
  vertex 1.314 4.617 2.286
 endloop
endfacet
facet normal 0 0 1
 outer loop
  vertex 1.314 4.617 2.286
  vertex 3.668 8.665 2.286
  vertex 2.575 9.05 2.286
 endloop
endfacet
facet normal 0 -0 1
 outer loop
  vertex 1.314 4.617 2.286
  vertex 2.575 9.05 2.286
  vertex 0.736 4.744 2.286
 endloop
endfacet
facet normal 0 0 1
 outer loop
  vertex 0.736 4.744 2.286
  vertex 2.575 9.05 2.286
  vertex 1.443 9.298 2.286
 endloop
endfacet
facet normal 0 -0 1
 outer loop
  vertex 0.736 4.744 2.286
  vertex 1.443 9.298 2.286
  vertex 0.148 4.798 2.286
 endloop
endfacet
facet normal 0 0 1
 outer loop
  vertex 0.148 4.798 2.286
  vertex 1.443 9.298 2.286
  vertex 0.29 9.405 2.286
 endloop
endfacet
facet normal 0 -0 1
 outer loop
  vertex 0.148 4.798 2.286
  vertex 0.29 9.405 2.286
  vertex -0.868 9.369 2.286
 endloop
endfacet
facet normal 0 0 1
 outer loop
  vertex 4.791 -0.296 2.286
  vertex 4.719 -0.882 2.286
  vertex 9.392 -0.579 2.286
 endloop
endfacet
facet normal 0 0 1
 outer loop
  vertex 9.392 -0.579 2.286
  vertex 4.719 -0.882 2.286
  vertex 9.249 -1.729 2.286
 endloop
endfacet
facet normal 0 0 1
 outer loop
  vertex 4.719 -0.882 2.286
  vertex 4.575 -1.455 2.286
  vertex 9.249 -1.729 2.286
 endloop
endfacet
facet normal 0 0 1
 outer loop
  vertex 9.249 -1.729 2.286
  vertex 4.575 -1.455 2.286
  vertex 8.967 -2.852 2.286
 endloop
endfacet
facet normal 0 0 1
 outer loop
  vertex 4.575 -1.455 2.286
  vertex 4.361 -2.006 2.286
  vertex 8.967 -2.852 2.286
 endloop
endfacet
facet normal 0 0 1
 outer loop
  vertex 8.967 -2.852 2.286
  vertex 4.361 -2.006 2.286
  vertex 8.548 -3.933 2.286
 endloop
endfacet
facet normal 0 0 1
 outer loop
  vertex 4.361 -2.006 2.286
  vertex 4.082 -2.527 2.286
  vertex 8.548 -3.933 2.286
 endloop
endfacet
facet normal 0 0 1
 outer loop
  vertex 8.548 -3.933 2.286
  vertex 4.082 -2.527 2.286
  vertex 8 -4.953 2.286
 endloop
endfacet
facet normal 0 0 1
 outer loop
  vertex 4.082 -2.527 2.286
  vertex 3.74 -3.01 2.286
  vertex 8 -4.953 2.286
 endloop
endfacet
facet normal 0 0 1
 outer loop
  vertex 8 -4.953 2.286
  vertex 3.74 -3.01 2.286
  vertex 7.331 -5.899 2.286
 endloop
endfacet
facet normal 0 0 1
 outer loop
  vertex 3.74 -3.01 2.286
  vertex 3.342 -3.446 2.286
  vertex 7.331 -5.899 2.286
 endloop
endfacet
facet normal 0 0 1
 outer loop
  vertex 7.331 -5.899 2.286
  vertex 3.342 -3.446 2.286
  vertex 6.55 -6.755 2.286
 endloop
endfacet
facet normal 0 0 1
 outer loop
  vertex 3.342 -3.446 2.286
  vertex 2.893 -3.831 2.286
  vertex 6.55 -6.755 2.286
 endloop
endfacet
facet normal 0 0 1
 outer loop
  vertex 6.55 -6.755 2.286
  vertex 2.893 -3.831 2.286
  vertex 5.67 -7.509 2.286
 endloop
endfacet
facet normal 0 0 1
 outer loop
  vertex 2.893 -3.831 2.286
  vertex 2.4 -4.157 2.286
  vertex 5.67 -7.509 2.286
 endloop
endfacet
facet normal 0 0 1
 outer loop
  vertex 5.67 -7.509 2.286
  vertex 2.4 -4.157 2.286
  vertex 4.705 -8.149 2.286
 endloop
endfacet
facet normal 0 0 1
 outer loop
  vertex 2.4 -4.157 2.286
  vertex 1.871 -4.421 2.286
  vertex 4.705 -8.149 2.286
 endloop
endfacet
facet normal 0 0 1
 outer loop
  vertex 4.705 -8.149 2.286
  vertex 1.871 -4.421 2.286
  vertex 3.668 -8.665 2.286
 endloop
endfacet
facet normal 0 0 1
 outer loop
  vertex 1.871 -4.421 2.286
  vertex 1.314 -4.617 2.286
  vertex 3.668 -8.665 2.286
 endloop
endfacet
facet normal 0 0 1
 outer loop
  vertex 3.668 -8.665 2.286
  vertex 1.314 -4.617 2.286
  vertex 2.575 -9.05 2.286
 endloop
endfacet
facet normal 0 0 1
 outer loop
  vertex 1.314 -4.617 2.286
  vertex 0.736 -4.744 2.286
  vertex 2.575 -9.05 2.286
 endloop
endfacet
facet normal 0 0 1
 outer loop
  vertex 2.575 -9.05 2.286
  vertex 0.736 -4.744 2.286
  vertex 1.443 -9.298 2.286
 endloop
endfacet
facet normal 0 0 1
 outer loop
  vertex 0.736 -4.744 2.286
  vertex 0.148 -4.798 2.286
  vertex 1.443 -9.298 2.286
 endloop
endfacet
facet normal 0 0 1
 outer loop
  vertex 1.443 -9.298 2.286
  vertex 0.148 -4.798 2.286
  vertex 0.29 -9.405 2.286
 endloop
endfacet
facet normal 0 0 1
 outer loop
  vertex 0.29 -9.405 2.286
  vertex 0.148 -4.798 2.286
  vertex -0.868 -9.369 2.286
 endloop
endfacet
facet normal 0 0 1
 outer loop
  vertex -0.868 -9.369 2.286
  vertex 0.148 -4.798 2.286
  vertex -0.443 -4.78 2.286
 endloop
endfacet
facet normal 0 -0 1
 outer loop
  vertex -0.868 -9.369 2.286
  vertex -0.443 -4.78 2.286
  vertex -2.013 -9.192 2.286
 endloop
endfacet
facet normal 0 0 1
 outer loop
  vertex -2.013 -9.192 2.286
  vertex -0.443 -4.78 2.286
  vertex -1.027 -4.689 2.286
 endloop
endfacet
facet normal 0 -0 1
 outer loop
  vertex -2.013 -9.192 2.286
  vertex -1.027 -4.689 2.286
  vertex -3.127 -8.875 2.286
 endloop
endfacet
facet normal 0 0 1
 outer loop
  vertex -3.127 -8.875 2.286
  vertex -1.027 -4.689 2.286
  vertex -1.595 -4.528 2.286
 endloop
endfacet
facet normal 0 -0 1
 outer loop
  vertex -3.127 -8.875 2.286
  vertex -1.595 -4.528 2.286
  vertex -4.194 -8.423 2.286
 endloop
endfacet
facet normal 0 0 1
 outer loop
  vertex -4.194 -8.423 2.286
  vertex -1.595 -4.528 2.286
  vertex -2.14 -4.297 2.286
 endloop
endfacet
facet normal 0 -0 1
 outer loop
  vertex -4.194 -8.423 2.286
  vertex -2.14 -4.297 2.286
  vertex -5.197 -7.844 2.286
 endloop
endfacet
facet normal 0 0 1
 outer loop
  vertex -5.197 -7.844 2.286
  vertex -2.14 -4.297 2.286
  vertex -2.652 -4.002 2.286
 endloop
endfacet
facet normal 0 -0 1
 outer loop
  vertex -5.197 -7.844 2.286
  vertex -2.652 -4.002 2.286
  vertex -6.122 -7.146 2.286
 endloop
endfacet
facet normal 0 0 1
 outer loop
  vertex -6.122 -7.146 2.286
  vertex -2.652 -4.002 2.286
  vertex -3.123 -3.646 2.286
 endloop
endfacet
facet normal 0 -0 1
 outer loop
  vertex -6.122 -7.146 2.286
  vertex -3.123 -3.646 2.286
  vertex -6.954 -6.339 2.286
 endloop
endfacet
facet normal 0 0 1
 outer loop
  vertex -6.954 -6.339 2.286
  vertex -3.123 -3.646 2.286
  vertex -3.548 -3.234 2.286
 endloop
endfacet
facet normal 0 -0 1
 outer loop
  vertex -6.954 -6.339 2.286
  vertex -3.548 -3.234 2.286
  vertex -7.68 -5.437 2.286
 endloop
endfacet
facet normal 0 0 1
 outer loop
  vertex -7.68 -5.437 2.286
  vertex -3.548 -3.234 2.286
  vertex -3.918 -2.774 2.286
 endloop
endfacet
facet normal 0 -0 1
 outer loop
  vertex -7.68 -5.437 2.286
  vertex -3.918 -2.774 2.286
  vertex -8.29 -4.452 2.286
 endloop
endfacet
facet normal 0 0 1
 outer loop
  vertex -8.29 -4.452 2.286
  vertex -3.918 -2.774 2.286
  vertex -4.229 -2.271 2.286
 endloop
endfacet
facet normal 0 -0 1
 outer loop
  vertex -8.29 -4.452 2.286
  vertex -4.229 -2.271 2.286
  vertex -8.774 -3.399 2.286
 endloop
endfacet
facet normal 0 0 1
 outer loop
  vertex -8.774 -3.399 2.286
  vertex -4.229 -2.271 2.286
  vertex -4.476 -1.734 2.286
 endloop
endfacet
facet normal 0 -0 1
 outer loop
  vertex -8.774 -3.399 2.286
  vertex -4.476 -1.734 2.286
  vertex -9.125 -2.295 2.286
 endloop
endfacet
facet normal 0 0 1
 outer loop
  vertex -9.125 -2.295 2.286
  vertex -4.476 -1.734 2.286
  vertex -4.656 -1.171 2.286
 endloop
endfacet
facet normal 0 -0 1
 outer loop
  vertex -9.125 -2.295 2.286
  vertex -4.656 -1.171 2.286
  vertex -9.338 -1.156 2.286
 endloop
endfacet
facet normal -0 0 1
 outer loop
  vertex -9.338 -1.156 2.286
  vertex -4.656 -1.171 2.286
  vertex -4.764 -0.59 2.286
 endloop
endfacet
facet normal 0 -0 1
 outer loop
  vertex -9.338 -1.156 2.286
  vertex -4.764 -0.59 2.286
  vertex -9.409 0 2.286
 endloop
endfacet
facet normal 0 0 1
 outer loop
  vertex -9.409 0 2.286
  vertex -4.764 -0.59 2.286
  vertex -4.801 -0 2.286
 endloop
endfacet
facet normal -0 0 1
 outer loop
  vertex -9.409 0 2.286
  vertex -4.801 -0 2.286
  vertex -4.764 0.59 2.286
 endloop
endfacet
facet normal 0 0 1
 outer loop
  vertex -9.409 0 2.286
  vertex -4.764 0.59 2.286
  vertex -9.338 1.156 2.286
 endloop
endfacet
facet normal -0 0 1
 outer loop
  vertex -9.338 1.156 2.286
  vertex -4.764 0.59 2.286
  vertex -4.656 1.171 2.286
 endloop
endfacet
facet normal 0 0 1
 outer loop
  vertex -9.338 1.156 2.286
  vertex -4.656 1.171 2.286
  vertex -9.125 2.295 2.286
 endloop
endfacet
facet normal 0 0 1
 outer loop
  vertex -9.125 2.295 2.286
  vertex -4.656 1.171 2.286
  vertex -4.476 1.734 2.286
 endloop
endfacet
facet normal -0 0 1
 outer loop
  vertex -9.125 2.295 2.286
  vertex -4.476 1.734 2.286
  vertex -8.774 3.399 2.286
 endloop
endfacet
facet normal 0 0 1
 outer loop
  vertex -8.774 3.399 2.286
  vertex -4.476 1.734 2.286
  vertex -4.229 2.271 2.286
 endloop
endfacet
facet normal -0 0 1
 outer loop
  vertex -8.774 3.399 2.286
  vertex -4.229 2.271 2.286
  vertex -8.29 4.452 2.286
 endloop
endfacet
facet normal 0 0 1
 outer loop
  vertex -8.29 4.452 2.286
  vertex -4.229 2.271 2.286
  vertex -3.918 2.774 2.286
 endloop
endfacet
facet normal -0 0 1
 outer loop
  vertex -8.29 4.452 2.286
  vertex -3.918 2.774 2.286
  vertex -7.68 5.437 2.286
 endloop
endfacet
facet normal 0 0 1
 outer loop
  vertex -7.68 5.437 2.286
  vertex -3.918 2.774 2.286
  vertex -3.548 3.234 2.286
 endloop
endfacet
facet normal -0 0 1
 outer loop
  vertex -7.68 5.437 2.286
  vertex -3.548 3.234 2.286
  vertex -6.954 6.339 2.286
 endloop
endfacet
facet normal 0 0 1
 outer loop
  vertex -6.954 6.339 2.286
  vertex -3.548 3.234 2.286
  vertex -3.123 3.646 2.286
 endloop
endfacet
facet normal -0 0 1
 outer loop
  vertex -6.954 6.339 2.286
  vertex -3.123 3.646 2.286
  vertex -6.122 7.146 2.286
 endloop
endfacet
facet normal 0 0 1
 outer loop
  vertex -6.122 7.146 2.286
  vertex -3.123 3.646 2.286
  vertex -2.652 4.002 2.286
 endloop
endfacet
facet normal -0 0 1
 outer loop
  vertex -6.122 7.146 2.286
  vertex -2.652 4.002 2.286
  vertex -5.197 7.844 2.286
 endloop
endfacet
facet normal 0 0 1
 outer loop
  vertex -5.197 7.844 2.286
  vertex -2.652 4.002 2.286
  vertex -2.14 4.297 2.286
 endloop
endfacet
facet normal -0 0 1
 outer loop
  vertex -5.197 7.844 2.286
  vertex -2.14 4.297 2.286
  vertex -4.194 8.423 2.286
 endloop
endfacet
facet normal 0 0 1
 outer loop
  vertex -4.194 8.423 2.286
  vertex -2.14 4.297 2.286
  vertex -1.595 4.528 2.286
 endloop
endfacet
facet normal -0 0 1
 outer loop
  vertex -4.194 8.423 2.286
  vertex -1.595 4.528 2.286
  vertex -3.127 8.875 2.286
 endloop
endfacet
facet normal 0 0 1
 outer loop
  vertex -3.127 8.875 2.286
  vertex -1.595 4.528 2.286
  vertex -1.027 4.689 2.286
 endloop
endfacet
facet normal -0 0 1
 outer loop
  vertex -3.127 8.875 2.286
  vertex -1.027 4.689 2.286
  vertex -2.013 9.192 2.286
 endloop
endfacet
facet normal 0 0 1
 outer loop
  vertex -2.013 9.192 2.286
  vertex -1.027 4.689 2.286
  vertex -0.443 4.78 2.286
 endloop
endfacet
facet normal -0 0 1
 outer loop
  vertex -2.013 9.192 2.286
  vertex -0.443 4.78 2.286
  vertex -0.868 9.369 2.286
 endloop
endfacet
facet normal 0 0 1
 outer loop
  vertex -0.868 9.369 2.286
  vertex -0.443 4.78 2.286
  vertex 0.148 4.798 2.286
 endloop
endfacet
endsolid CADClick
