solid CADClick
facet normal 0 0 -1
 outer loop
  vertex 0.069 -2.249 0
  vertex 0.055 -1.788 0
  vertex 0.345 -2.223 0
 endloop
endfacet
facet normal 0 0 -1
 outer loop
  vertex 0.345 -2.223 0
  vertex 0.055 -1.788 0
  vertex 0.274 -1.768 0
 endloop
endfacet
facet normal 0 0 -1
 outer loop
  vertex 0.345 -2.223 0
  vertex 0.274 -1.768 0
  vertex 0.616 -2.164 0
 endloop
endfacet
facet normal 0 0 -1
 outer loop
  vertex 0.616 -2.164 0
  vertex 0.274 -1.768 0
  vertex 0.489 -1.72 0
 endloop
endfacet
facet normal 0 0 -1
 outer loop
  vertex 0.616 -2.164 0
  vertex 0.489 -1.72 0
  vertex 0.877 -2.072 0
 endloop
endfacet
facet normal 0 0 -1
 outer loop
  vertex 0.877 -2.072 0
  vertex 0.489 -1.72 0
  vertex 0.697 -1.647 0
 endloop
endfacet
facet normal 0 0 -1
 outer loop
  vertex 0.877 -2.072 0
  vertex 0.697 -1.647 0
  vertex 1.125 -1.949 0
 endloop
endfacet
facet normal 0 0 -1
 outer loop
  vertex 1.125 -1.949 0
  vertex 0.697 -1.647 0
  vertex 0.894 -1.549 0
 endloop
endfacet
facet normal 0 0 -1
 outer loop
  vertex 1.125 -1.949 0
  vertex 0.894 -1.549 0
  vertex 1.356 -1.796 0
 endloop
endfacet
facet normal 0 0 -1
 outer loop
  vertex 1.356 -1.796 0
  vertex 0.894 -1.549 0
  vertex 1.078 -1.427 0
 endloop
endfacet
facet normal 0 0 -1
 outer loop
  vertex 1.356 -1.796 0
  vertex 1.078 -1.427 0
  vertex 1.566 -1.615 0
 endloop
endfacet
facet normal 0 0 -1
 outer loop
  vertex 1.566 -1.615 0
  vertex 1.078 -1.427 0
  vertex 1.245 -1.284 0
 endloop
endfacet
facet normal 0 0 -1
 outer loop
  vertex 1.566 -1.615 0
  vertex 1.245 -1.284 0
  vertex 1.753 -1.411 0
 endloop
endfacet
facet normal 0 0 -1
 outer loop
  vertex 1.753 -1.411 0
  vertex 1.245 -1.284 0
  vertex 1.394 -1.121 0
 endloop
endfacet
facet normal 0 0 -1
 outer loop
  vertex 1.753 -1.411 0
  vertex 1.394 -1.121 0
  vertex 1.913 -1.184 0
 endloop
endfacet
facet normal 0 0 -1
 outer loop
  vertex 1.913 -1.184 0
  vertex 1.394 -1.121 0
  vertex 1.521 -0.942 0
 endloop
endfacet
facet normal 0 0 -1
 outer loop
  vertex 1.913 -1.184 0
  vertex 1.521 -0.942 0
  vertex 2.044 -0.94 0
 endloop
endfacet
facet normal -0 0 -1
 outer loop
  vertex 2.044 -0.94 0
  vertex 1.521 -0.942 0
  vertex 1.625 -0.748 0
 endloop
endfacet
facet normal 0 0 -1
 outer loop
  vertex 2.044 -0.94 0
  vertex 1.625 -0.748 0
  vertex 2.144 -0.682 0
 endloop
endfacet
facet normal -0 0 -1
 outer loop
  vertex 2.144 -0.682 0
  vertex 1.625 -0.748 0
  vertex 1.704 -0.542 0
 endloop
endfacet
facet normal 0 0 -1
 outer loop
  vertex 2.144 -0.682 0
  vertex 1.704 -0.542 0
  vertex 2.212 -0.413 0
 endloop
endfacet
facet normal -0 0 -1
 outer loop
  vertex 2.212 -0.413 0
  vertex 1.704 -0.542 0
  vertex 1.758 -0.329 0
 endloop
endfacet
facet normal 0 0 -1
 outer loop
  vertex 2.212 -0.413 0
  vertex 1.758 -0.329 0
  vertex 2.246 -0.139 0
 endloop
endfacet
facet normal -0 0 -1
 outer loop
  vertex 2.246 -0.139 0
  vertex 1.758 -0.329 0
  vertex 1.785 -0.11 0
 endloop
endfacet
facet normal 0 0 -1
 outer loop
  vertex 2.246 -0.139 0
  vertex 1.785 -0.11 0
  vertex 2.25 0 0
 endloop
endfacet
facet normal -0 0 -1
 outer loop
  vertex 2.25 0 0
  vertex 1.785 -0.11 0
  vertex 1.789 0 0
 endloop
endfacet
facet normal 0 0 -1
 outer loop
  vertex 2.25 0 0
  vertex 1.789 0 0
  vertex 1.785 0.11 0
 endloop
endfacet
facet normal 0 0 -1
 outer loop
  vertex 0.069 -2.249 0
  vertex -0.208 -2.24 0
  vertex 0.055 -1.788 0
 endloop
endfacet
facet normal -0 0 -1
 outer loop
  vertex 0.055 -1.788 0
  vertex -0.208 -2.24 0
  vertex -0.165 -1.781 0
 endloop
endfacet
facet normal 0 0 -1
 outer loop
  vertex -0.208 -2.24 0
  vertex -0.481 -2.198 0
  vertex -0.165 -1.781 0
 endloop
endfacet
facet normal -0 0 -1
 outer loop
  vertex -0.165 -1.781 0
  vertex -0.481 -2.198 0
  vertex -0.383 -1.747 0
 endloop
endfacet
facet normal 0 0 -1
 outer loop
  vertex -0.481 -2.198 0
  vertex -0.748 -2.122 0
  vertex -0.383 -1.747 0
 endloop
endfacet
facet normal -0 0 -1
 outer loop
  vertex -0.383 -1.747 0
  vertex -0.748 -2.122 0
  vertex -0.594 -1.687 0
 endloop
endfacet
facet normal 0 0 -1
 outer loop
  vertex -0.748 -2.122 0
  vertex -1.003 -2.014 0
  vertex -0.594 -1.687 0
 endloop
endfacet
facet normal -0 0 -1
 outer loop
  vertex -0.594 -1.687 0
  vertex -1.003 -2.014 0
  vertex -0.797 -1.601 0
 endloop
endfacet
facet normal 0 0 -1
 outer loop
  vertex -1.003 -2.014 0
  vertex -1.243 -1.876 0
  vertex -0.797 -1.601 0
 endloop
endfacet
facet normal -0 0 -1
 outer loop
  vertex -0.797 -1.601 0
  vertex -1.243 -1.876 0
  vertex -0.988 -1.491 0
 endloop
endfacet
facet normal 0 0 -1
 outer loop
  vertex -1.243 -1.876 0
  vertex -1.464 -1.709 0
  vertex -0.988 -1.491 0
 endloop
endfacet
facet normal -0 0 -1
 outer loop
  vertex -0.988 -1.491 0
  vertex -1.464 -1.709 0
  vertex -1.164 -1.358 0
 endloop
endfacet
facet normal 0 0 -1
 outer loop
  vertex -1.464 -1.709 0
  vertex -1.663 -1.516 0
  vertex -1.164 -1.358 0
 endloop
endfacet
facet normal -0 0 -1
 outer loop
  vertex -1.164 -1.358 0
  vertex -1.663 -1.516 0
  vertex -1.322 -1.205 0
 endloop
endfacet
facet normal 0 0 -1
 outer loop
  vertex -1.663 -1.516 0
  vertex -1.836 -1.3 0
  vertex -1.322 -1.205 0
 endloop
endfacet
facet normal -0 0 -1
 outer loop
  vertex -1.322 -1.205 0
  vertex -1.836 -1.3 0
  vertex -1.46 -1.033 0
 endloop
endfacet
facet normal 0 0 -1
 outer loop
  vertex -1.836 -1.3 0
  vertex -1.982 -1.064 0
  vertex -1.46 -1.033 0
 endloop
endfacet
facet normal -0 0 -1
 outer loop
  vertex -1.46 -1.033 0
  vertex -1.982 -1.064 0
  vertex -1.576 -0.846 0
 endloop
endfacet
facet normal 0 0 -1
 outer loop
  vertex -1.982 -1.064 0
  vertex -2.098 -0.813 0
  vertex -1.576 -0.846 0
 endloop
endfacet
facet normal 0 0 -1
 outer loop
  vertex -1.576 -0.846 0
  vertex -2.098 -0.813 0
  vertex -1.668 -0.646 0
 endloop
endfacet
facet normal 0 0 -1
 outer loop
  vertex -2.098 -0.813 0
  vertex -2.182 -0.549 0
  vertex -1.668 -0.646 0
 endloop
endfacet
facet normal 0 0 -1
 outer loop
  vertex -1.668 -0.646 0
  vertex -2.182 -0.549 0
  vertex -1.735 -0.436 0
 endloop
endfacet
facet normal 0 0 -1
 outer loop
  vertex -2.182 -0.549 0
  vertex -2.233 -0.276 0
  vertex -1.735 -0.436 0
 endloop
endfacet
facet normal 0 0 -1
 outer loop
  vertex -1.735 -0.436 0
  vertex -2.233 -0.276 0
  vertex -1.775 -0.22 0
 endloop
endfacet
facet normal -0 0 -1
 outer loop
  vertex -1.775 -0.22 0
  vertex -2.233 -0.276 0
  vertex -1.789 0 0
 endloop
endfacet
facet normal -0 0 -1
 outer loop
  vertex -1.789 0 0
  vertex -2.233 -0.276 0
  vertex -2.25 0 0
 endloop
endfacet
facet normal 0 0 -1
 outer loop
  vertex -1.789 0 0
  vertex -2.25 0 0
  vertex -1.775 0.22 0
 endloop
endfacet
facet normal -0 0 -1
 outer loop
  vertex -1.775 0.22 0
  vertex -2.25 0 0
  vertex -2.233 0.276 0
 endloop
endfacet
facet normal 0 0 -1
 outer loop
  vertex -1.775 0.22 0
  vertex -2.233 0.276 0
  vertex -1.735 0.436 0
 endloop
endfacet
facet normal -0 0 -1
 outer loop
  vertex -1.735 0.436 0
  vertex -2.233 0.276 0
  vertex -2.182 0.549 0
 endloop
endfacet
facet normal 0 0 -1
 outer loop
  vertex -1.735 0.436 0
  vertex -2.182 0.549 0
  vertex -1.668 0.646 0
 endloop
endfacet
facet normal -0 0 -1
 outer loop
  vertex -1.668 0.646 0
  vertex -2.182 0.549 0
  vertex -2.098 0.813 0
 endloop
endfacet
facet normal 0 0 -1
 outer loop
  vertex -1.668 0.646 0
  vertex -2.098 0.813 0
  vertex -1.576 0.846 0
 endloop
endfacet
facet normal -0 0 -1
 outer loop
  vertex -1.576 0.846 0
  vertex -2.098 0.813 0
  vertex -1.982 1.064 0
 endloop
endfacet
facet normal 0 0 -1
 outer loop
  vertex -1.576 0.846 0
  vertex -1.982 1.064 0
  vertex -1.46 1.033 0
 endloop
endfacet
facet normal 0 0 -1
 outer loop
  vertex -1.46 1.033 0
  vertex -1.982 1.064 0
  vertex -1.836 1.3 0
 endloop
endfacet
facet normal 0 0 -1
 outer loop
  vertex -1.46 1.033 0
  vertex -1.836 1.3 0
  vertex -1.322 1.205 0
 endloop
endfacet
facet normal 0 0 -1
 outer loop
  vertex -1.322 1.205 0
  vertex -1.836 1.3 0
  vertex -1.663 1.516 0
 endloop
endfacet
facet normal 0 0 -1
 outer loop
  vertex -1.322 1.205 0
  vertex -1.663 1.516 0
  vertex -1.164 1.358 0
 endloop
endfacet
facet normal 0 0 -1
 outer loop
  vertex -1.164 1.358 0
  vertex -1.663 1.516 0
  vertex -1.464 1.709 0
 endloop
endfacet
facet normal 0 0 -1
 outer loop
  vertex -1.164 1.358 0
  vertex -1.464 1.709 0
  vertex -0.988 1.491 0
 endloop
endfacet
facet normal 0 0 -1
 outer loop
  vertex -0.988 1.491 0
  vertex -1.464 1.709 0
  vertex -1.243 1.876 0
 endloop
endfacet
facet normal 0 0 -1
 outer loop
  vertex -0.988 1.491 0
  vertex -1.243 1.876 0
  vertex -0.797 1.601 0
 endloop
endfacet
facet normal 0 0 -1
 outer loop
  vertex -0.797 1.601 0
  vertex -1.243 1.876 0
  vertex -1.003 2.014 0
 endloop
endfacet
facet normal 0 0 -1
 outer loop
  vertex -0.797 1.601 0
  vertex -1.003 2.014 0
  vertex -0.594 1.687 0
 endloop
endfacet
facet normal 0 0 -1
 outer loop
  vertex -0.594 1.687 0
  vertex -1.003 2.014 0
  vertex -0.748 2.122 0
 endloop
endfacet
facet normal 0 0 -1
 outer loop
  vertex -0.594 1.687 0
  vertex -0.748 2.122 0
  vertex -0.383 1.747 0
 endloop
endfacet
facet normal 0 0 -1
 outer loop
  vertex -0.383 1.747 0
  vertex -0.748 2.122 0
  vertex -0.481 2.198 0
 endloop
endfacet
facet normal 0 0 -1
 outer loop
  vertex -0.383 1.747 0
  vertex -0.481 2.198 0
  vertex -0.165 1.781 0
 endloop
endfacet
facet normal 0 0 -1
 outer loop
  vertex -0.165 1.781 0
  vertex -0.481 2.198 0
  vertex -0.208 2.24 0
 endloop
endfacet
facet normal 0 0 -1
 outer loop
  vertex -0.165 1.781 0
  vertex -0.208 2.24 0
  vertex 0.055 1.788 0
 endloop
endfacet
facet normal 0 0 -1
 outer loop
  vertex 0.055 1.788 0
  vertex -0.208 2.24 0
  vertex 0.069 2.249 0
 endloop
endfacet
facet normal 0 0 -1
 outer loop
  vertex 0.055 1.788 0
  vertex 0.069 2.249 0
  vertex 0.345 2.223 0
 endloop
endfacet
facet normal 0 0 -1
 outer loop
  vertex 0.055 1.788 0
  vertex 0.345 2.223 0
  vertex 0.274 1.768 0
 endloop
endfacet
facet normal 0 0 -1
 outer loop
  vertex 0.274 1.768 0
  vertex 0.345 2.223 0
  vertex 0.616 2.164 0
 endloop
endfacet
facet normal 0 0 -1
 outer loop
  vertex 0.274 1.768 0
  vertex 0.616 2.164 0
  vertex 0.489 1.72 0
 endloop
endfacet
facet normal 0 0 -1
 outer loop
  vertex 0.489 1.72 0
  vertex 0.616 2.164 0
  vertex 0.877 2.072 0
 endloop
endfacet
facet normal 0 0 -1
 outer loop
  vertex 0.489 1.72 0
  vertex 0.877 2.072 0
  vertex 0.697 1.647 0
 endloop
endfacet
facet normal 0 0 -1
 outer loop
  vertex 0.697 1.647 0
  vertex 0.877 2.072 0
  vertex 1.125 1.949 0
 endloop
endfacet
facet normal 0 0 -1
 outer loop
  vertex 0.697 1.647 0
  vertex 1.125 1.949 0
  vertex 0.894 1.549 0
 endloop
endfacet
facet normal 0 0 -1
 outer loop
  vertex 0.894 1.549 0
  vertex 1.125 1.949 0
  vertex 1.356 1.796 0
 endloop
endfacet
facet normal 0 0 -1
 outer loop
  vertex 0.894 1.549 0
  vertex 1.356 1.796 0
  vertex 1.078 1.427 0
 endloop
endfacet
facet normal 0 0 -1
 outer loop
  vertex 1.078 1.427 0
  vertex 1.356 1.796 0
  vertex 1.566 1.615 0
 endloop
endfacet
facet normal 0 0 -1
 outer loop
  vertex 1.078 1.427 0
  vertex 1.566 1.615 0
  vertex 1.245 1.284 0
 endloop
endfacet
facet normal 0 0 -1
 outer loop
  vertex 1.245 1.284 0
  vertex 1.566 1.615 0
  vertex 1.753 1.411 0
 endloop
endfacet
facet normal 0 0 -1
 outer loop
  vertex 1.245 1.284 0
  vertex 1.753 1.411 0
  vertex 1.394 1.121 0
 endloop
endfacet
facet normal 0 0 -1
 outer loop
  vertex 1.394 1.121 0
  vertex 1.753 1.411 0
  vertex 1.913 1.184 0
 endloop
endfacet
facet normal 0 0 -1
 outer loop
  vertex 1.394 1.121 0
  vertex 1.913 1.184 0
  vertex 1.521 0.942 0
 endloop
endfacet
facet normal 0 0 -1
 outer loop
  vertex 1.521 0.942 0
  vertex 1.913 1.184 0
  vertex 2.044 0.94 0
 endloop
endfacet
facet normal 0 0 -1
 outer loop
  vertex 1.521 0.942 0
  vertex 2.044 0.94 0
  vertex 1.625 0.748 0
 endloop
endfacet
facet normal 0 0 -1
 outer loop
  vertex 1.625 0.748 0
  vertex 2.044 0.94 0
  vertex 2.144 0.682 0
 endloop
endfacet
facet normal 0 0 -1
 outer loop
  vertex 1.625 0.748 0
  vertex 2.144 0.682 0
  vertex 1.704 0.542 0
 endloop
endfacet
facet normal 0 0 -1
 outer loop
  vertex 1.704 0.542 0
  vertex 2.144 0.682 0
  vertex 2.212 0.413 0
 endloop
endfacet
facet normal 0 0 -1
 outer loop
  vertex 1.704 0.542 0
  vertex 2.212 0.413 0
  vertex 1.758 0.329 0
 endloop
endfacet
facet normal 0 0 -1
 outer loop
  vertex 1.758 0.329 0
  vertex 2.212 0.413 0
  vertex 2.246 0.139 0
 endloop
endfacet
facet normal 0 0 -1
 outer loop
  vertex 1.758 0.329 0
  vertex 2.246 0.139 0
  vertex 1.785 0.11 0
 endloop
endfacet
facet normal 0 0 -1
 outer loop
  vertex 1.785 0.11 0
  vertex 2.246 0.139 0
  vertex 2.25 0 0
 endloop
endfacet
facet normal 1 -0.031 0
 outer loop
  vertex 2.246 -0.139 5.7
  vertex 2.246 -0.139 0
  vertex 2.25 0 5.7
 endloop
endfacet
facet normal 1 -0.031 0
 outer loop
  vertex 2.25 0 5.7
  vertex 2.246 -0.139 0
  vertex 2.25 0 0
 endloop
endfacet
facet normal 1 0.031 0
 outer loop
  vertex 2.25 0 5.7
  vertex 2.25 0 0
  vertex 2.246 0.139 5.7
 endloop
endfacet
facet normal 1 0.031 0
 outer loop
  vertex 2.246 0.139 5.7
  vertex 2.25 0 0
  vertex 2.246 0.139 0
 endloop
endfacet
facet normal 0.992 0.123 0
 outer loop
  vertex 2.246 0.139 5.7
  vertex 2.246 0.139 0
  vertex 2.212 0.413 5.7
 endloop
endfacet
facet normal 0.992 0.123 0
 outer loop
  vertex 2.212 0.413 5.7
  vertex 2.246 0.139 0
  vertex 2.212 0.413 0
 endloop
endfacet
facet normal 0.97 0.244 0
 outer loop
  vertex 2.212 0.413 5.7
  vertex 2.212 0.413 0
  vertex 2.144 0.682 5.7
 endloop
endfacet
facet normal 0.97 0.244 0
 outer loop
  vertex 2.144 0.682 5.7
  vertex 2.212 0.413 0
  vertex 2.144 0.682 0
 endloop
endfacet
facet normal 0.932 0.361 0
 outer loop
  vertex 2.144 0.682 5.7
  vertex 2.144 0.682 0
  vertex 2.044 0.94 5.7
 endloop
endfacet
facet normal 0.932 0.361 0
 outer loop
  vertex 2.044 0.94 5.7
  vertex 2.144 0.682 0
  vertex 2.044 0.94 0
 endloop
endfacet
facet normal 0.881 0.473 0
 outer loop
  vertex 2.044 0.94 5.7
  vertex 2.044 0.94 0
  vertex 1.913 1.184 5.7
 endloop
endfacet
facet normal 0.881 0.473 0
 outer loop
  vertex 1.913 1.184 5.7
  vertex 2.044 0.94 0
  vertex 1.913 1.184 0
 endloop
endfacet
facet normal 0.816 0.578 0
 outer loop
  vertex 1.913 1.184 5.7
  vertex 1.913 1.184 0
  vertex 1.753 1.411 5.7
 endloop
endfacet
facet normal 0.816 0.578 0
 outer loop
  vertex 1.753 1.411 5.7
  vertex 1.913 1.184 0
  vertex 1.753 1.411 0
 endloop
endfacet
facet normal 0.739 0.674 0
 outer loop
  vertex 1.753 1.411 5.7
  vertex 1.753 1.411 0
  vertex 1.566 1.615 5.7
 endloop
endfacet
facet normal 0.739 0.674 0
 outer loop
  vertex 1.566 1.615 5.7
  vertex 1.753 1.411 0
  vertex 1.566 1.615 0
 endloop
endfacet
facet normal 0.651 0.759 0
 outer loop
  vertex 1.566 1.615 5.7
  vertex 1.566 1.615 0
  vertex 1.356 1.796 5.7
 endloop
endfacet
facet normal 0.651 0.759 0
 outer loop
  vertex 1.356 1.796 5.7
  vertex 1.566 1.615 0
  vertex 1.356 1.796 0
 endloop
endfacet
facet normal 0.552 0.834 0
 outer loop
  vertex 1.356 1.796 5.7
  vertex 1.356 1.796 0
  vertex 1.125 1.949 5.7
 endloop
endfacet
facet normal 0.552 0.834 0
 outer loop
  vertex 1.125 1.949 5.7
  vertex 1.356 1.796 0
  vertex 1.125 1.949 0
 endloop
endfacet
facet normal 0.446 0.895 0
 outer loop
  vertex 1.125 1.949 5.7
  vertex 1.125 1.949 0
  vertex 0.877 2.072 5.7
 endloop
endfacet
facet normal 0.446 0.895 0
 outer loop
  vertex 0.877 2.072 5.7
  vertex 1.125 1.949 0
  vertex 0.877 2.072 0
 endloop
endfacet
facet normal 0.332 0.943 0
 outer loop
  vertex 0.877 2.072 5.7
  vertex 0.877 2.072 0
  vertex 0.616 2.164 5.7
 endloop
endfacet
facet normal 0.332 0.943 0
 outer loop
  vertex 0.616 2.164 5.7
  vertex 0.877 2.072 0
  vertex 0.616 2.164 0
 endloop
endfacet
facet normal 0.214 0.977 0
 outer loop
  vertex 0.616 2.164 5.7
  vertex 0.616 2.164 0
  vertex 0.345 2.223 5.7
 endloop
endfacet
facet normal 0.214 0.977 0
 outer loop
  vertex 0.345 2.223 5.7
  vertex 0.616 2.164 0
  vertex 0.345 2.223 0
 endloop
endfacet
facet normal 0.092 0.996 0
 outer loop
  vertex 0.345 2.223 5.7
  vertex 0.345 2.223 0
  vertex 0.069 2.249 5.7
 endloop
endfacet
facet normal 0.092 0.996 0
 outer loop
  vertex 0.069 2.249 5.7
  vertex 0.345 2.223 0
  vertex 0.069 2.249 0
 endloop
endfacet
facet normal -0.031 1 0
 outer loop
  vertex 0.069 2.249 5.7
  vertex 0.069 2.249 0
  vertex -0.208 2.24 5.7
 endloop
endfacet
facet normal -0.031 1 0
 outer loop
  vertex -0.208 2.24 5.7
  vertex 0.069 2.249 0
  vertex -0.208 2.24 0
 endloop
endfacet
facet normal -0.153 0.988 0
 outer loop
  vertex -0.208 2.24 5.7
  vertex -0.208 2.24 0
  vertex -0.481 2.198 5.7
 endloop
endfacet
facet normal -0.153 0.988 0
 outer loop
  vertex -0.481 2.198 5.7
  vertex -0.208 2.24 0
  vertex -0.481 2.198 0
 endloop
endfacet
facet normal -0.274 0.962 0
 outer loop
  vertex -0.481 2.198 5.7
  vertex -0.481 2.198 0
  vertex -0.748 2.122 5.7
 endloop
endfacet
facet normal -0.274 0.962 0
 outer loop
  vertex -0.748 2.122 5.7
  vertex -0.481 2.198 0
  vertex -0.748 2.122 0
 endloop
endfacet
facet normal -0.39 0.921 0
 outer loop
  vertex -0.748 2.122 5.7
  vertex -0.748 2.122 0
  vertex -1.003 2.014 5.7
 endloop
endfacet
facet normal -0.39 0.921 0
 outer loop
  vertex -1.003 2.014 5.7
  vertex -0.748 2.122 0
  vertex -1.003 2.014 0
 endloop
endfacet
facet normal -0.5 0.866 0
 outer loop
  vertex -1.003 2.014 5.7
  vertex -1.003 2.014 0
  vertex -1.243 1.876 5.7
 endloop
endfacet
facet normal -0.5 0.866 0
 outer loop
  vertex -1.243 1.876 5.7
  vertex -1.003 2.014 0
  vertex -1.243 1.876 0
 endloop
endfacet
facet normal -0.603 0.798 0
 outer loop
  vertex -1.243 1.876 5.7
  vertex -1.243 1.876 0
  vertex -1.464 1.709 5.7
 endloop
endfacet
facet normal -0.603 0.798 0
 outer loop
  vertex -1.464 1.709 5.7
  vertex -1.243 1.876 0
  vertex -1.464 1.709 0
 endloop
endfacet
facet normal -0.696 0.718 0
 outer loop
  vertex -1.464 1.709 5.7
  vertex -1.464 1.709 0
  vertex -1.663 1.516 5.7
 endloop
endfacet
facet normal -0.696 0.718 0
 outer loop
  vertex -1.663 1.516 5.7
  vertex -1.464 1.709 0
  vertex -1.663 1.516 0
 endloop
endfacet
facet normal -0.779 0.627 0
 outer loop
  vertex -1.663 1.516 5.7
  vertex -1.663 1.516 0
  vertex -1.836 1.3 5.7
 endloop
endfacet
facet normal -0.779 0.627 0
 outer loop
  vertex -1.836 1.3 5.7
  vertex -1.663 1.516 0
  vertex -1.836 1.3 0
 endloop
endfacet
facet normal -0.85 0.526 0
 outer loop
  vertex -1.836 1.3 5.7
  vertex -1.836 1.3 0
  vertex -1.982 1.064 5.7
 endloop
endfacet
facet normal -0.85 0.526 0
 outer loop
  vertex -1.982 1.064 5.7
  vertex -1.836 1.3 0
  vertex -1.982 1.064 0
 endloop
endfacet
facet normal -0.908 0.418 0
 outer loop
  vertex -1.982 1.064 5.7
  vertex -1.982 1.064 0
  vertex -2.098 0.813 5.7
 endloop
endfacet
facet normal -0.908 0.418 0
 outer loop
  vertex -2.098 0.813 5.7
  vertex -1.982 1.064 0
  vertex -2.098 0.813 0
 endloop
endfacet
facet normal -0.953 0.303 0
 outer loop
  vertex -2.098 0.813 5.7
  vertex -2.098 0.813 0
  vertex -2.182 0.549 5.7
 endloop
endfacet
facet normal -0.953 0.303 0
 outer loop
  vertex -2.182 0.549 5.7
  vertex -2.098 0.813 0
  vertex -2.182 0.549 0
 endloop
endfacet
facet normal -0.983 0.184 0
 outer loop
  vertex -2.182 0.549 5.7
  vertex -2.182 0.549 0
  vertex -2.233 0.276 5.7
 endloop
endfacet
facet normal -0.983 0.184 0
 outer loop
  vertex -2.233 0.276 5.7
  vertex -2.182 0.549 0
  vertex -2.233 0.276 0
 endloop
endfacet
facet normal -0.998 0.062 0
 outer loop
  vertex -2.233 0.276 5.7
  vertex -2.233 0.276 0
  vertex -2.25 0 5.7
 endloop
endfacet
facet normal -0.998 0.062 0
 outer loop
  vertex -2.25 0 5.7
  vertex -2.233 0.276 0
  vertex -2.25 0 0
 endloop
endfacet
facet normal -0.998 -0.062 -0
 outer loop
  vertex -2.25 0 5.7
  vertex -2.25 0 0
  vertex -2.233 -0.276 5.7
 endloop
endfacet
facet normal -0.998 -0.062 -0
 outer loop
  vertex -2.233 -0.276 5.7
  vertex -2.25 0 0
  vertex -2.233 -0.276 0
 endloop
endfacet
facet normal -0.983 -0.184 -0
 outer loop
  vertex -2.233 -0.276 5.7
  vertex -2.233 -0.276 0
  vertex -2.182 -0.549 5.7
 endloop
endfacet
facet normal -0.983 -0.184 -0
 outer loop
  vertex -2.182 -0.549 5.7
  vertex -2.233 -0.276 0
  vertex -2.182 -0.549 0
 endloop
endfacet
facet normal -0.953 -0.303 -0
 outer loop
  vertex -2.182 -0.549 5.7
  vertex -2.182 -0.549 0
  vertex -2.098 -0.813 5.7
 endloop
endfacet
facet normal -0.953 -0.303 -0
 outer loop
  vertex -2.098 -0.813 5.7
  vertex -2.182 -0.549 0
  vertex -2.098 -0.813 0
 endloop
endfacet
facet normal -0.908 -0.418 -0
 outer loop
  vertex -2.098 -0.813 5.7
  vertex -2.098 -0.813 0
  vertex -1.982 -1.064 5.7
 endloop
endfacet
facet normal -0.908 -0.418 -0
 outer loop
  vertex -1.982 -1.064 5.7
  vertex -2.098 -0.813 0
  vertex -1.982 -1.064 0
 endloop
endfacet
facet normal -0.85 -0.526 -0
 outer loop
  vertex -1.982 -1.064 5.7
  vertex -1.982 -1.064 0
  vertex -1.836 -1.3 5.7
 endloop
endfacet
facet normal -0.85 -0.526 -0
 outer loop
  vertex -1.836 -1.3 5.7
  vertex -1.982 -1.064 0
  vertex -1.836 -1.3 0
 endloop
endfacet
facet normal -0.779 -0.627 -0
 outer loop
  vertex -1.836 -1.3 5.7
  vertex -1.836 -1.3 0
  vertex -1.663 -1.516 5.7
 endloop
endfacet
facet normal -0.779 -0.627 -0
 outer loop
  vertex -1.663 -1.516 5.7
  vertex -1.836 -1.3 0
  vertex -1.663 -1.516 0
 endloop
endfacet
facet normal -0.696 -0.718 -0
 outer loop
  vertex -1.663 -1.516 5.7
  vertex -1.663 -1.516 0
  vertex -1.464 -1.709 5.7
 endloop
endfacet
facet normal -0.696 -0.718 -0
 outer loop
  vertex -1.464 -1.709 5.7
  vertex -1.663 -1.516 0
  vertex -1.464 -1.709 0
 endloop
endfacet
facet normal -0.603 -0.798 -0
 outer loop
  vertex -1.464 -1.709 5.7
  vertex -1.464 -1.709 0
  vertex -1.243 -1.876 5.7
 endloop
endfacet
facet normal -0.603 -0.798 -0
 outer loop
  vertex -1.243 -1.876 5.7
  vertex -1.464 -1.709 0
  vertex -1.243 -1.876 0
 endloop
endfacet
facet normal -0.5 -0.866 -0
 outer loop
  vertex -1.243 -1.876 5.7
  vertex -1.243 -1.876 0
  vertex -1.003 -2.014 5.7
 endloop
endfacet
facet normal -0.5 -0.866 -0
 outer loop
  vertex -1.003 -2.014 5.7
  vertex -1.243 -1.876 0
  vertex -1.003 -2.014 0
 endloop
endfacet
facet normal -0.39 -0.921 -0
 outer loop
  vertex -1.003 -2.014 5.7
  vertex -1.003 -2.014 0
  vertex -0.748 -2.122 5.7
 endloop
endfacet
facet normal -0.39 -0.921 -0
 outer loop
  vertex -0.748 -2.122 5.7
  vertex -1.003 -2.014 0
  vertex -0.748 -2.122 0
 endloop
endfacet
facet normal -0.274 -0.962 -0
 outer loop
  vertex -0.748 -2.122 5.7
  vertex -0.748 -2.122 0
  vertex -0.481 -2.198 5.7
 endloop
endfacet
facet normal -0.274 -0.962 -0
 outer loop
  vertex -0.481 -2.198 5.7
  vertex -0.748 -2.122 0
  vertex -0.481 -2.198 0
 endloop
endfacet
facet normal -0.153 -0.988 -0
 outer loop
  vertex -0.481 -2.198 5.7
  vertex -0.481 -2.198 0
  vertex -0.208 -2.24 5.7
 endloop
endfacet
facet normal -0.153 -0.988 -0
 outer loop
  vertex -0.208 -2.24 5.7
  vertex -0.481 -2.198 0
  vertex -0.208 -2.24 0
 endloop
endfacet
facet normal -0.031 -1 -0
 outer loop
  vertex -0.208 -2.24 5.7
  vertex -0.208 -2.24 0
  vertex 0.069 -2.249 5.7
 endloop
endfacet
facet normal -0.031 -1 -0
 outer loop
  vertex 0.069 -2.249 5.7
  vertex -0.208 -2.24 0
  vertex 0.069 -2.249 0
 endloop
endfacet
facet normal 0.092 -0.996 0
 outer loop
  vertex 0.069 -2.249 5.7
  vertex 0.069 -2.249 0
  vertex 0.345 -2.223 5.7
 endloop
endfacet
facet normal 0.092 -0.996 0
 outer loop
  vertex 0.345 -2.223 5.7
  vertex 0.069 -2.249 0
  vertex 0.345 -2.223 0
 endloop
endfacet
facet normal 0.214 -0.977 0
 outer loop
  vertex 0.345 -2.223 5.7
  vertex 0.345 -2.223 0
  vertex 0.616 -2.164 5.7
 endloop
endfacet
facet normal 0.214 -0.977 0
 outer loop
  vertex 0.616 -2.164 5.7
  vertex 0.345 -2.223 0
  vertex 0.616 -2.164 0
 endloop
endfacet
facet normal 0.332 -0.943 0
 outer loop
  vertex 0.616 -2.164 5.7
  vertex 0.616 -2.164 0
  vertex 0.877 -2.072 5.7
 endloop
endfacet
facet normal 0.332 -0.943 0
 outer loop
  vertex 0.877 -2.072 5.7
  vertex 0.616 -2.164 0
  vertex 0.877 -2.072 0
 endloop
endfacet
facet normal 0.446 -0.895 0
 outer loop
  vertex 0.877 -2.072 5.7
  vertex 0.877 -2.072 0
  vertex 1.125 -1.949 5.7
 endloop
endfacet
facet normal 0.446 -0.895 0
 outer loop
  vertex 1.125 -1.949 5.7
  vertex 0.877 -2.072 0
  vertex 1.125 -1.949 0
 endloop
endfacet
facet normal 0.552 -0.834 0
 outer loop
  vertex 1.125 -1.949 5.7
  vertex 1.125 -1.949 0
  vertex 1.356 -1.796 5.7
 endloop
endfacet
facet normal 0.552 -0.834 0
 outer loop
  vertex 1.356 -1.796 5.7
  vertex 1.125 -1.949 0
  vertex 1.356 -1.796 0
 endloop
endfacet
facet normal 0.651 -0.759 0
 outer loop
  vertex 1.356 -1.796 5.7
  vertex 1.356 -1.796 0
  vertex 1.566 -1.615 5.7
 endloop
endfacet
facet normal 0.651 -0.759 0
 outer loop
  vertex 1.566 -1.615 5.7
  vertex 1.356 -1.796 0
  vertex 1.566 -1.615 0
 endloop
endfacet
facet normal 0.739 -0.674 0
 outer loop
  vertex 1.566 -1.615 5.7
  vertex 1.566 -1.615 0
  vertex 1.753 -1.411 5.7
 endloop
endfacet
facet normal 0.739 -0.674 0
 outer loop
  vertex 1.753 -1.411 5.7
  vertex 1.566 -1.615 0
  vertex 1.753 -1.411 0
 endloop
endfacet
facet normal 0.816 -0.578 0
 outer loop
  vertex 1.753 -1.411 5.7
  vertex 1.753 -1.411 0
  vertex 1.913 -1.184 5.7
 endloop
endfacet
facet normal 0.816 -0.578 0
 outer loop
  vertex 1.913 -1.184 5.7
  vertex 1.753 -1.411 0
  vertex 1.913 -1.184 0
 endloop
endfacet
facet normal 0.881 -0.473 0
 outer loop
  vertex 1.913 -1.184 5.7
  vertex 1.913 -1.184 0
  vertex 2.044 -0.94 5.7
 endloop
endfacet
facet normal 0.881 -0.473 0
 outer loop
  vertex 2.044 -0.94 5.7
  vertex 1.913 -1.184 0
  vertex 2.044 -0.94 0
 endloop
endfacet
facet normal 0.932 -0.361 0
 outer loop
  vertex 2.044 -0.94 5.7
  vertex 2.044 -0.94 0
  vertex 2.144 -0.682 5.7
 endloop
endfacet
facet normal 0.932 -0.361 0
 outer loop
  vertex 2.144 -0.682 5.7
  vertex 2.044 -0.94 0
  vertex 2.144 -0.682 0
 endloop
endfacet
facet normal 0.97 -0.244 0
 outer loop
  vertex 2.144 -0.682 5.7
  vertex 2.144 -0.682 0
  vertex 2.212 -0.413 5.7
 endloop
endfacet
facet normal 0.97 -0.244 0
 outer loop
  vertex 2.212 -0.413 5.7
  vertex 2.144 -0.682 0
  vertex 2.212 -0.413 0
 endloop
endfacet
facet normal 0.992 -0.123 0
 outer loop
  vertex 2.212 -0.413 5.7
  vertex 2.212 -0.413 0
  vertex 2.246 -0.139 5.7
 endloop
endfacet
facet normal 0.992 -0.123 0
 outer loop
  vertex 2.246 -0.139 5.7
  vertex 2.212 -0.413 0
  vertex 2.246 -0.139 0
 endloop
endfacet
facet normal 0.866 -0.027 0.5
 outer loop
  vertex 2.073 -0.128 6
  vertex 2.246 -0.139 5.7
  vertex 2.077 0 6
 endloop
endfacet
facet normal 0.866 -0.027 0.5
 outer loop
  vertex 2.077 0 6
  vertex 2.246 -0.139 5.7
  vertex 2.25 0 5.7
 endloop
endfacet
facet normal 0.866 0.027 0.5
 outer loop
  vertex 2.077 0 6
  vertex 2.25 0 5.7
  vertex 2.073 0.128 6
 endloop
endfacet
facet normal 0.866 0.027 0.5
 outer loop
  vertex 2.073 0.128 6
  vertex 2.25 0 5.7
  vertex 2.246 0.139 5.7
 endloop
endfacet
facet normal 0.86 0.107 0.499
 outer loop
  vertex 2.073 0.128 6
  vertex 2.246 0.139 5.7
  vertex 2.041 0.382 6
 endloop
endfacet
facet normal 0.86 0.106 0.499
 outer loop
  vertex 2.041 0.382 6
  vertex 2.246 0.139 5.7
  vertex 2.212 0.413 5.7
 endloop
endfacet
facet normal 0.84 0.211 0.499
 outer loop
  vertex 2.041 0.382 6
  vertex 2.212 0.413 5.7
  vertex 1.979 0.63 6
 endloop
endfacet
facet normal 0.84 0.211 0.499
 outer loop
  vertex 1.979 0.63 6
  vertex 2.212 0.413 5.7
  vertex 2.144 0.682 5.7
 endloop
endfacet
facet normal 0.808 0.313 0.499
 outer loop
  vertex 1.979 0.63 6
  vertex 2.144 0.682 5.7
  vertex 1.887 0.868 6
 endloop
endfacet
facet normal 0.808 0.313 0.499
 outer loop
  vertex 1.887 0.868 6
  vertex 2.144 0.682 5.7
  vertex 2.044 0.94 5.7
 endloop
endfacet
facet normal 0.763 0.41 0.499
 outer loop
  vertex 1.887 0.868 6
  vertex 2.044 0.94 5.7
  vertex 1.766 1.093 6
 endloop
endfacet
facet normal 0.763 0.41 0.499
 outer loop
  vertex 1.766 1.093 6
  vertex 2.044 0.94 5.7
  vertex 1.913 1.184 5.7
 endloop
endfacet
facet normal 0.707 0.501 0.499
 outer loop
  vertex 1.766 1.093 6
  vertex 1.913 1.184 5.7
  vertex 1.618 1.302 6
 endloop
endfacet
facet normal 0.707 0.501 0.499
 outer loop
  vertex 1.618 1.302 6
  vertex 1.913 1.184 5.7
  vertex 1.753 1.411 5.7
 endloop
endfacet
facet normal 0.64 0.584 0.499
 outer loop
  vertex 1.618 1.302 6
  vertex 1.753 1.411 5.7
  vertex 1.446 1.491 6
 endloop
endfacet
facet normal 0.64 0.584 0.499
 outer loop
  vertex 1.446 1.491 6
  vertex 1.753 1.411 5.7
  vertex 1.566 1.615 5.7
 endloop
endfacet
facet normal 0.564 0.658 0.499
 outer loop
  vertex 1.446 1.491 6
  vertex 1.566 1.615 5.7
  vertex 1.252 1.657 6
 endloop
endfacet
facet normal 0.564 0.658 0.499
 outer loop
  vertex 1.252 1.657 6
  vertex 1.566 1.615 5.7
  vertex 1.356 1.796 5.7
 endloop
endfacet
facet normal 0.479 0.722 0.499
 outer loop
  vertex 1.252 1.657 6
  vertex 1.356 1.796 5.7
  vertex 1.038 1.799 6
 endloop
endfacet
facet normal 0.479 0.722 0.499
 outer loop
  vertex 1.038 1.799 6
  vertex 1.356 1.796 5.7
  vertex 1.125 1.949 5.7
 endloop
endfacet
facet normal 0.386 0.776 0.499
 outer loop
  vertex 1.038 1.799 6
  vertex 1.125 1.949 5.7
  vertex 0.81 1.913 6
 endloop
endfacet
facet normal 0.386 0.776 0.499
 outer loop
  vertex 0.81 1.913 6
  vertex 1.125 1.949 5.7
  vertex 0.877 2.072 5.7
 endloop
endfacet
facet normal 0.288 0.817 0.499
 outer loop
  vertex 0.81 1.913 6
  vertex 0.877 2.072 5.7
  vertex 0.568 1.998 6
 endloop
endfacet
facet normal 0.288 0.817 0.499
 outer loop
  vertex 0.568 1.998 6
  vertex 0.877 2.072 5.7
  vertex 0.616 2.164 5.7
 endloop
endfacet
facet normal 0.185 0.846 0.499
 outer loop
  vertex 0.568 1.998 6
  vertex 0.616 2.164 5.7
  vertex 0.319 2.052 6
 endloop
endfacet
facet normal 0.185 0.846 0.499
 outer loop
  vertex 0.319 2.052 6
  vertex 0.616 2.164 5.7
  vertex 0.345 2.223 5.7
 endloop
endfacet
facet normal 0.08 0.863 0.499
 outer loop
  vertex 0.319 2.052 6
  vertex 0.345 2.223 5.7
  vertex 0.064 2.076 6
 endloop
endfacet
facet normal 0.08 0.863 0.499
 outer loop
  vertex 0.064 2.076 6
  vertex 0.345 2.223 5.7
  vertex 0.069 2.249 5.7
 endloop
endfacet
facet normal -0.027 0.866 0.499
 outer loop
  vertex 0.064 2.076 6
  vertex 0.069 2.249 5.7
  vertex -0.192 2.068 6
 endloop
endfacet
facet normal -0.027 0.866 0.499
 outer loop
  vertex -0.192 2.068 6
  vertex 0.069 2.249 5.7
  vertex -0.208 2.24 5.7
 endloop
endfacet
facet normal -0.133 0.856 0.499
 outer loop
  vertex -0.192 2.068 6
  vertex -0.208 2.24 5.7
  vertex -0.444 2.029 6
 endloop
endfacet
facet normal -0.133 0.856 0.499
 outer loop
  vertex -0.444 2.029 6
  vertex -0.208 2.24 5.7
  vertex -0.481 2.198 5.7
 endloop
endfacet
facet normal -0.237 0.833 0.499
 outer loop
  vertex -0.444 2.029 6
  vertex -0.481 2.198 5.7
  vertex -0.69 1.959 6
 endloop
endfacet
facet normal -0.237 0.833 0.499
 outer loop
  vertex -0.69 1.959 6
  vertex -0.481 2.198 5.7
  vertex -0.748 2.122 5.7
 endloop
endfacet
facet normal -0.338 0.798 0.499
 outer loop
  vertex -0.69 1.959 6
  vertex -0.748 2.122 5.7
  vertex -0.926 1.859 6
 endloop
endfacet
facet normal -0.338 0.798 0.499
 outer loop
  vertex -0.926 1.859 6
  vertex -0.748 2.122 5.7
  vertex -1.003 2.014 5.7
 endloop
endfacet
facet normal -0.433 0.75 0.499
 outer loop
  vertex -0.926 1.859 6
  vertex -1.003 2.014 5.7
  vertex -1.147 1.731 6
 endloop
endfacet
facet normal -0.433 0.75 0.499
 outer loop
  vertex -1.147 1.731 6
  vertex -1.003 2.014 5.7
  vertex -1.243 1.876 5.7
 endloop
endfacet
facet normal -0.522 0.691 0.499
 outer loop
  vertex -1.147 1.731 6
  vertex -1.243 1.876 5.7
  vertex -1.351 1.577 6
 endloop
endfacet
facet normal -0.522 0.691 0.499
 outer loop
  vertex -1.351 1.577 6
  vertex -1.243 1.876 5.7
  vertex -1.464 1.709 5.7
 endloop
endfacet
facet normal -0.603 0.622 0.499
 outer loop
  vertex -1.351 1.577 6
  vertex -1.464 1.709 5.7
  vertex -1.535 1.399 6
 endloop
endfacet
facet normal -0.603 0.622 0.499
 outer loop
  vertex -1.535 1.399 6
  vertex -1.464 1.709 5.7
  vertex -1.663 1.516 5.7
 endloop
endfacet
facet normal -0.675 0.543 0.499
 outer loop
  vertex -1.535 1.399 6
  vertex -1.663 1.516 5.7
  vertex -1.695 1.2 6
 endloop
endfacet
facet normal -0.675 0.543 0.499
 outer loop
  vertex -1.695 1.2 6
  vertex -1.663 1.516 5.7
  vertex -1.836 1.3 5.7
 endloop
endfacet
facet normal -0.737 0.456 0.499
 outer loop
  vertex -1.695 1.2 6
  vertex -1.836 1.3 5.7
  vertex -1.83 0.983 6
 endloop
endfacet
facet normal -0.737 0.456 0.499
 outer loop
  vertex -1.83 0.983 6
  vertex -1.836 1.3 5.7
  vertex -1.982 1.064 5.7
 endloop
endfacet
facet normal -0.787 0.362 0.499
 outer loop
  vertex -1.83 0.983 6
  vertex -1.982 1.064 5.7
  vertex -1.937 0.75 6
 endloop
endfacet
facet normal -0.787 0.362 0.499
 outer loop
  vertex -1.937 0.75 6
  vertex -1.982 1.064 5.7
  vertex -2.098 0.813 5.7
 endloop
endfacet
facet normal -0.826 0.263 0.499
 outer loop
  vertex -1.937 0.75 6
  vertex -2.098 0.813 5.7
  vertex -2.014 0.507 6
 endloop
endfacet
facet normal -0.826 0.263 0.499
 outer loop
  vertex -2.014 0.507 6
  vertex -2.098 0.813 5.7
  vertex -2.182 0.549 5.7
 endloop
endfacet
facet normal -0.852 0.159 0.499
 outer loop
  vertex -2.014 0.507 6
  vertex -2.182 0.549 5.7
  vertex -2.061 0.255 6
 endloop
endfacet
facet normal -0.852 0.159 0.499
 outer loop
  vertex -2.061 0.255 6
  vertex -2.182 0.549 5.7
  vertex -2.233 0.276 5.7
 endloop
endfacet
facet normal -0.865 0.053 0.499
 outer loop
  vertex -2.061 0.255 6
  vertex -2.233 0.276 5.7
  vertex -2.077 0 6
 endloop
endfacet
facet normal -0.865 0.053 0.499
 outer loop
  vertex -2.077 0 6
  vertex -2.233 0.276 5.7
  vertex -2.25 0 5.7
 endloop
endfacet
facet normal -0.865 -0.053 0.499
 outer loop
  vertex -2.077 0 6
  vertex -2.25 0 5.7
  vertex -2.061 -0.255 6
 endloop
endfacet
facet normal -0.865 -0.053 0.499
 outer loop
  vertex -2.061 -0.255 6
  vertex -2.25 0 5.7
  vertex -2.233 -0.276 5.7
 endloop
endfacet
facet normal -0.852 -0.159 0.499
 outer loop
  vertex -2.061 -0.255 6
  vertex -2.233 -0.276 5.7
  vertex -2.014 -0.507 6
 endloop
endfacet
facet normal -0.852 -0.159 0.499
 outer loop
  vertex -2.014 -0.507 6
  vertex -2.233 -0.276 5.7
  vertex -2.182 -0.549 5.7
 endloop
endfacet
facet normal -0.826 -0.263 0.499
 outer loop
  vertex -2.014 -0.507 6
  vertex -2.182 -0.549 5.7
  vertex -1.937 -0.75 6
 endloop
endfacet
facet normal -0.826 -0.263 0.499
 outer loop
  vertex -1.937 -0.75 6
  vertex -2.182 -0.549 5.7
  vertex -2.098 -0.813 5.7
 endloop
endfacet
facet normal -0.787 -0.362 0.499
 outer loop
  vertex -1.937 -0.75 6
  vertex -2.098 -0.813 5.7
  vertex -1.83 -0.983 6
 endloop
endfacet
facet normal -0.787 -0.362 0.499
 outer loop
  vertex -1.83 -0.983 6
  vertex -2.098 -0.813 5.7
  vertex -1.982 -1.064 5.7
 endloop
endfacet
facet normal -0.737 -0.456 0.499
 outer loop
  vertex -1.83 -0.983 6
  vertex -1.982 -1.064 5.7
  vertex -1.695 -1.2 6
 endloop
endfacet
facet normal -0.737 -0.456 0.499
 outer loop
  vertex -1.695 -1.2 6
  vertex -1.982 -1.064 5.7
  vertex -1.836 -1.3 5.7
 endloop
endfacet
facet normal -0.675 -0.543 0.499
 outer loop
  vertex -1.695 -1.2 6
  vertex -1.836 -1.3 5.7
  vertex -1.535 -1.399 6
 endloop
endfacet
facet normal -0.675 -0.543 0.499
 outer loop
  vertex -1.535 -1.399 6
  vertex -1.836 -1.3 5.7
  vertex -1.663 -1.516 5.7
 endloop
endfacet
facet normal -0.603 -0.622 0.499
 outer loop
  vertex -1.535 -1.399 6
  vertex -1.663 -1.516 5.7
  vertex -1.351 -1.577 6
 endloop
endfacet
facet normal -0.603 -0.622 0.499
 outer loop
  vertex -1.351 -1.577 6
  vertex -1.663 -1.516 5.7
  vertex -1.464 -1.709 5.7
 endloop
endfacet
facet normal -0.522 -0.691 0.499
 outer loop
  vertex -1.351 -1.577 6
  vertex -1.464 -1.709 5.7
  vertex -1.147 -1.731 6
 endloop
endfacet
facet normal -0.522 -0.691 0.499
 outer loop
  vertex -1.147 -1.731 6
  vertex -1.464 -1.709 5.7
  vertex -1.243 -1.876 5.7
 endloop
endfacet
facet normal -0.433 -0.75 0.499
 outer loop
  vertex -1.147 -1.731 6
  vertex -1.243 -1.876 5.7
  vertex -0.926 -1.859 6
 endloop
endfacet
facet normal -0.433 -0.75 0.499
 outer loop
  vertex -0.926 -1.859 6
  vertex -1.243 -1.876 5.7
  vertex -1.003 -2.014 5.7
 endloop
endfacet
facet normal -0.338 -0.798 0.499
 outer loop
  vertex -0.926 -1.859 6
  vertex -1.003 -2.014 5.7
  vertex -0.69 -1.959 6
 endloop
endfacet
facet normal -0.338 -0.798 0.499
 outer loop
  vertex -0.69 -1.959 6
  vertex -1.003 -2.014 5.7
  vertex -0.748 -2.122 5.7
 endloop
endfacet
facet normal -0.237 -0.833 0.499
 outer loop
  vertex -0.69 -1.959 6
  vertex -0.748 -2.122 5.7
  vertex -0.444 -2.029 6
 endloop
endfacet
facet normal -0.237 -0.833 0.499
 outer loop
  vertex -0.444 -2.029 6
  vertex -0.748 -2.122 5.7
  vertex -0.481 -2.198 5.7
 endloop
endfacet
facet normal -0.133 -0.856 0.499
 outer loop
  vertex -0.444 -2.029 6
  vertex -0.481 -2.198 5.7
  vertex -0.192 -2.068 6
 endloop
endfacet
facet normal -0.133 -0.856 0.499
 outer loop
  vertex -0.192 -2.068 6
  vertex -0.481 -2.198 5.7
  vertex -0.208 -2.24 5.7
 endloop
endfacet
facet normal -0.027 -0.866 0.499
 outer loop
  vertex -0.192 -2.068 6
  vertex -0.208 -2.24 5.7
  vertex 0.064 -2.076 6
 endloop
endfacet
facet normal -0.027 -0.866 0.499
 outer loop
  vertex 0.064 -2.076 6
  vertex -0.208 -2.24 5.7
  vertex 0.069 -2.249 5.7
 endloop
endfacet
facet normal 0.08 -0.863 0.499
 outer loop
  vertex 0.064 -2.076 6
  vertex 0.069 -2.249 5.7
  vertex 0.319 -2.052 6
 endloop
endfacet
facet normal 0.08 -0.863 0.499
 outer loop
  vertex 0.319 -2.052 6
  vertex 0.069 -2.249 5.7
  vertex 0.345 -2.223 5.7
 endloop
endfacet
facet normal 0.185 -0.846 0.499
 outer loop
  vertex 0.319 -2.052 6
  vertex 0.345 -2.223 5.7
  vertex 0.568 -1.998 6
 endloop
endfacet
facet normal 0.185 -0.846 0.499
 outer loop
  vertex 0.568 -1.998 6
  vertex 0.345 -2.223 5.7
  vertex 0.616 -2.164 5.7
 endloop
endfacet
facet normal 0.288 -0.817 0.499
 outer loop
  vertex 0.568 -1.998 6
  vertex 0.616 -2.164 5.7
  vertex 0.81 -1.913 6
 endloop
endfacet
facet normal 0.288 -0.817 0.499
 outer loop
  vertex 0.81 -1.913 6
  vertex 0.616 -2.164 5.7
  vertex 0.877 -2.072 5.7
 endloop
endfacet
facet normal 0.386 -0.776 0.499
 outer loop
  vertex 0.81 -1.913 6
  vertex 0.877 -2.072 5.7
  vertex 1.038 -1.799 6
 endloop
endfacet
facet normal 0.386 -0.776 0.499
 outer loop
  vertex 1.038 -1.799 6
  vertex 0.877 -2.072 5.7
  vertex 1.125 -1.949 5.7
 endloop
endfacet
facet normal 0.479 -0.722 0.499
 outer loop
  vertex 1.038 -1.799 6
  vertex 1.125 -1.949 5.7
  vertex 1.252 -1.657 6
 endloop
endfacet
facet normal 0.479 -0.722 0.499
 outer loop
  vertex 1.252 -1.657 6
  vertex 1.125 -1.949 5.7
  vertex 1.356 -1.796 5.7
 endloop
endfacet
facet normal 0.564 -0.658 0.499
 outer loop
  vertex 1.252 -1.657 6
  vertex 1.356 -1.796 5.7
  vertex 1.446 -1.491 6
 endloop
endfacet
facet normal 0.564 -0.658 0.499
 outer loop
  vertex 1.446 -1.491 6
  vertex 1.356 -1.796 5.7
  vertex 1.566 -1.615 5.7
 endloop
endfacet
facet normal 0.64 -0.584 0.499
 outer loop
  vertex 1.446 -1.491 6
  vertex 1.566 -1.615 5.7
  vertex 1.618 -1.302 6
 endloop
endfacet
facet normal 0.64 -0.584 0.499
 outer loop
  vertex 1.618 -1.302 6
  vertex 1.566 -1.615 5.7
  vertex 1.753 -1.411 5.7
 endloop
endfacet
facet normal 0.707 -0.501 0.499
 outer loop
  vertex 1.618 -1.302 6
  vertex 1.753 -1.411 5.7
  vertex 1.766 -1.093 6
 endloop
endfacet
facet normal 0.707 -0.501 0.499
 outer loop
  vertex 1.766 -1.093 6
  vertex 1.753 -1.411 5.7
  vertex 1.913 -1.184 5.7
 endloop
endfacet
facet normal 0.763 -0.41 0.499
 outer loop
  vertex 1.766 -1.093 6
  vertex 1.913 -1.184 5.7
  vertex 1.887 -0.868 6
 endloop
endfacet
facet normal 0.763 -0.41 0.499
 outer loop
  vertex 1.887 -0.868 6
  vertex 1.913 -1.184 5.7
  vertex 2.044 -0.94 5.7
 endloop
endfacet
facet normal 0.808 -0.313 0.499
 outer loop
  vertex 1.887 -0.868 6
  vertex 2.044 -0.94 5.7
  vertex 1.979 -0.63 6
 endloop
endfacet
facet normal 0.808 -0.313 0.499
 outer loop
  vertex 1.979 -0.63 6
  vertex 2.044 -0.94 5.7
  vertex 2.144 -0.682 5.7
 endloop
endfacet
facet normal 0.84 -0.211 0.499
 outer loop
  vertex 1.979 -0.63 6
  vertex 2.144 -0.682 5.7
  vertex 2.041 -0.382 6
 endloop
endfacet
facet normal 0.84 -0.211 0.499
 outer loop
  vertex 2.041 -0.382 6
  vertex 2.144 -0.682 5.7
  vertex 2.212 -0.413 5.7
 endloop
endfacet
facet normal 0.86 -0.106 0.499
 outer loop
  vertex 2.041 -0.382 6
  vertex 2.212 -0.413 5.7
  vertex 2.073 -0.128 6
 endloop
endfacet
facet normal 0.86 -0.106 0.499
 outer loop
  vertex 2.073 -0.128 6
  vertex 2.212 -0.413 5.7
  vertex 2.246 -0.139 5.7
 endloop
endfacet
facet normal -0 0 1
 outer loop
  vertex 1.497 -0.092 6
  vertex 2.073 -0.128 6
  vertex 1.5 0 6
 endloop
endfacet
facet normal -0 0 1
 outer loop
  vertex 1.5 0 6
  vertex 2.073 -0.128 6
  vertex 2.077 0 6
 endloop
endfacet
facet normal 0 -0 1
 outer loop
  vertex 1.5 0 6
  vertex 2.077 0 6
  vertex 1.497 0.092 6
 endloop
endfacet
facet normal -0 0 1
 outer loop
  vertex 1.497 0.092 6
  vertex 2.077 0 6
  vertex 2.073 0.128 6
 endloop
endfacet
facet normal 0 -0 1
 outer loop
  vertex 1.497 0.092 6
  vertex 2.073 0.128 6
  vertex 1.474 0.276 6
 endloop
endfacet
facet normal -0 0 1
 outer loop
  vertex 1.474 0.276 6
  vertex 2.073 0.128 6
  vertex 2.041 0.382 6
 endloop
endfacet
facet normal 0 -0 1
 outer loop
  vertex 1.474 0.276 6
  vertex 2.041 0.382 6
  vertex 1.429 0.455 6
 endloop
endfacet
facet normal -0 0 1
 outer loop
  vertex 1.429 0.455 6
  vertex 2.041 0.382 6
  vertex 1.979 0.63 6
 endloop
endfacet
facet normal 0 -0 1
 outer loop
  vertex 1.429 0.455 6
  vertex 1.979 0.63 6
  vertex 1.363 0.627 6
 endloop
endfacet
facet normal 0 0 1
 outer loop
  vertex 1.363 0.627 6
  vertex 1.979 0.63 6
  vertex 1.887 0.868 6
 endloop
endfacet
facet normal 0 -0 1
 outer loop
  vertex 1.363 0.627 6
  vertex 1.887 0.868 6
  vertex 1.275 0.79 6
 endloop
endfacet
facet normal 0 0 1
 outer loop
  vertex 1.275 0.79 6
  vertex 1.887 0.868 6
  vertex 1.766 1.093 6
 endloop
endfacet
facet normal 0 -0 1
 outer loop
  vertex 1.275 0.79 6
  vertex 1.766 1.093 6
  vertex 1.169 0.94 6
 endloop
endfacet
facet normal 0 0 1
 outer loop
  vertex 1.169 0.94 6
  vertex 1.766 1.093 6
  vertex 1.618 1.302 6
 endloop
endfacet
facet normal 0 -0 1
 outer loop
  vertex 1.169 0.94 6
  vertex 1.618 1.302 6
  vertex 1.044 1.077 6
 endloop
endfacet
facet normal 0 0 1
 outer loop
  vertex 1.044 1.077 6
  vertex 1.618 1.302 6
  vertex 1.446 1.491 6
 endloop
endfacet
facet normal 0 -0 1
 outer loop
  vertex 1.044 1.077 6
  vertex 1.446 1.491 6
  vertex 0.904 1.197 6
 endloop
endfacet
facet normal 0 0 1
 outer loop
  vertex 0.904 1.197 6
  vertex 1.446 1.491 6
  vertex 1.252 1.657 6
 endloop
endfacet
facet normal 0 -0 1
 outer loop
  vertex 0.904 1.197 6
  vertex 1.252 1.657 6
  vertex 0.75 1.299 6
 endloop
endfacet
facet normal 0 0 1
 outer loop
  vertex 0.75 1.299 6
  vertex 1.252 1.657 6
  vertex 1.038 1.799 6
 endloop
endfacet
facet normal 0 -0 1
 outer loop
  vertex 0.75 1.299 6
  vertex 1.038 1.799 6
  vertex 0.585 1.381 6
 endloop
endfacet
facet normal 0 0 1
 outer loop
  vertex 0.585 1.381 6
  vertex 1.038 1.799 6
  vertex 0.81 1.913 6
 endloop
endfacet
facet normal 0 -0 1
 outer loop
  vertex 0.585 1.381 6
  vertex 0.81 1.913 6
  vertex 0.41 1.443 6
 endloop
endfacet
facet normal 0 0 1
 outer loop
  vertex 0.41 1.443 6
  vertex 0.81 1.913 6
  vertex 0.568 1.998 6
 endloop
endfacet
facet normal 0 -0 1
 outer loop
  vertex 0.41 1.443 6
  vertex 0.568 1.998 6
  vertex 0.23 1.482 6
 endloop
endfacet
facet normal 0 0 1
 outer loop
  vertex 0.23 1.482 6
  vertex 0.568 1.998 6
  vertex 0.319 2.052 6
 endloop
endfacet
facet normal 0 -0 1
 outer loop
  vertex 0.23 1.482 6
  vertex 0.319 2.052 6
  vertex 0.046 1.499 6
 endloop
endfacet
facet normal 0 0 1
 outer loop
  vertex 0.046 1.499 6
  vertex 0.319 2.052 6
  vertex 0.064 2.076 6
 endloop
endfacet
facet normal 0 -0 1
 outer loop
  vertex 0.046 1.499 6
  vertex 0.064 2.076 6
  vertex -0.192 2.068 6
 endloop
endfacet
facet normal 0 0 1
 outer loop
  vertex 1.497 -0.092 6
  vertex 1.474 -0.276 6
  vertex 2.073 -0.128 6
 endloop
endfacet
facet normal 0 0 1
 outer loop
  vertex 2.073 -0.128 6
  vertex 1.474 -0.276 6
  vertex 2.041 -0.382 6
 endloop
endfacet
facet normal 0 0 1
 outer loop
  vertex 1.474 -0.276 6
  vertex 1.429 -0.455 6
  vertex 2.041 -0.382 6
 endloop
endfacet
facet normal 0 0 1
 outer loop
  vertex 2.041 -0.382 6
  vertex 1.429 -0.455 6
  vertex 1.979 -0.63 6
 endloop
endfacet
facet normal 0 0 1
 outer loop
  vertex 1.429 -0.455 6
  vertex 1.363 -0.627 6
  vertex 1.979 -0.63 6
 endloop
endfacet
facet normal 0 0 1
 outer loop
  vertex 1.979 -0.63 6
  vertex 1.363 -0.627 6
  vertex 1.887 -0.868 6
 endloop
endfacet
facet normal 0 0 1
 outer loop
  vertex 1.363 -0.627 6
  vertex 1.275 -0.79 6
  vertex 1.887 -0.868 6
 endloop
endfacet
facet normal 0 0 1
 outer loop
  vertex 1.887 -0.868 6
  vertex 1.275 -0.79 6
  vertex 1.766 -1.093 6
 endloop
endfacet
facet normal 0 0 1
 outer loop
  vertex 1.275 -0.79 6
  vertex 1.169 -0.94 6
  vertex 1.766 -1.093 6
 endloop
endfacet
facet normal 0 0 1
 outer loop
  vertex 1.766 -1.093 6
  vertex 1.169 -0.94 6
  vertex 1.618 -1.302 6
 endloop
endfacet
facet normal 0 0 1
 outer loop
  vertex 1.169 -0.94 6
  vertex 1.044 -1.077 6
  vertex 1.618 -1.302 6
 endloop
endfacet
facet normal 0 0 1
 outer loop
  vertex 1.618 -1.302 6
  vertex 1.044 -1.077 6
  vertex 1.446 -1.491 6
 endloop
endfacet
facet normal 0 0 1
 outer loop
  vertex 1.044 -1.077 6
  vertex 0.904 -1.197 6
  vertex 1.446 -1.491 6
 endloop
endfacet
facet normal 0 0 1
 outer loop
  vertex 1.446 -1.491 6
  vertex 0.904 -1.197 6
  vertex 1.252 -1.657 6
 endloop
endfacet
facet normal 0 0 1
 outer loop
  vertex 0.904 -1.197 6
  vertex 0.75 -1.299 6
  vertex 1.252 -1.657 6
 endloop
endfacet
facet normal 0 0 1
 outer loop
  vertex 1.252 -1.657 6
  vertex 0.75 -1.299 6
  vertex 1.038 -1.799 6
 endloop
endfacet
facet normal 0 0 1
 outer loop
  vertex 0.75 -1.299 6
  vertex 0.585 -1.381 6
  vertex 1.038 -1.799 6
 endloop
endfacet
facet normal 0 0 1
 outer loop
  vertex 1.038 -1.799 6
  vertex 0.585 -1.381 6
  vertex 0.81 -1.913 6
 endloop
endfacet
facet normal 0 0 1
 outer loop
  vertex 0.585 -1.381 6
  vertex 0.41 -1.443 6
  vertex 0.81 -1.913 6
 endloop
endfacet
facet normal 0 0 1
 outer loop
  vertex 0.81 -1.913 6
  vertex 0.41 -1.443 6
  vertex 0.568 -1.998 6
 endloop
endfacet
facet normal 0 0 1
 outer loop
  vertex 0.41 -1.443 6
  vertex 0.23 -1.482 6
  vertex 0.568 -1.998 6
 endloop
endfacet
facet normal 0 0 1
 outer loop
  vertex 0.568 -1.998 6
  vertex 0.23 -1.482 6
  vertex 0.319 -2.052 6
 endloop
endfacet
facet normal 0 0 1
 outer loop
  vertex 0.23 -1.482 6
  vertex 0.046 -1.499 6
  vertex 0.319 -2.052 6
 endloop
endfacet
facet normal 0 0 1
 outer loop
  vertex 0.319 -2.052 6
  vertex 0.046 -1.499 6
  vertex 0.064 -2.076 6
 endloop
endfacet
facet normal 0 0 1
 outer loop
  vertex 0.064 -2.076 6
  vertex 0.046 -1.499 6
  vertex -0.192 -2.068 6
 endloop
endfacet
facet normal 0 0 1
 outer loop
  vertex -0.192 -2.068 6
  vertex 0.046 -1.499 6
  vertex -0.138 -1.494 6
 endloop
endfacet
facet normal 0 -0 1
 outer loop
  vertex -0.192 -2.068 6
  vertex -0.138 -1.494 6
  vertex -0.444 -2.029 6
 endloop
endfacet
facet normal 0 0 1
 outer loop
  vertex -0.444 -2.029 6
  vertex -0.138 -1.494 6
  vertex -0.321 -1.465 6
 endloop
endfacet
facet normal 0 -0 1
 outer loop
  vertex -0.444 -2.029 6
  vertex -0.321 -1.465 6
  vertex -0.69 -1.959 6
 endloop
endfacet
facet normal 0 0 1
 outer loop
  vertex -0.69 -1.959 6
  vertex -0.321 -1.465 6
  vertex -0.499 -1.415 6
 endloop
endfacet
facet normal 0 -0 1
 outer loop
  vertex -0.69 -1.959 6
  vertex -0.499 -1.415 6
  vertex -0.926 -1.859 6
 endloop
endfacet
facet normal 0 0 1
 outer loop
  vertex -0.926 -1.859 6
  vertex -0.499 -1.415 6
  vertex -0.669 -1.343 6
 endloop
endfacet
facet normal 0 -0 1
 outer loop
  vertex -0.926 -1.859 6
  vertex -0.669 -1.343 6
  vertex -1.147 -1.731 6
 endloop
endfacet
facet normal 0 0 1
 outer loop
  vertex -1.147 -1.731 6
  vertex -0.669 -1.343 6
  vertex -0.829 -1.25 6
 endloop
endfacet
facet normal 0 -0 1
 outer loop
  vertex -1.147 -1.731 6
  vertex -0.829 -1.25 6
  vertex -1.351 -1.577 6
 endloop
endfacet
facet normal 0 0 1
 outer loop
  vertex -1.351 -1.577 6
  vertex -0.829 -1.25 6
  vertex -0.976 -1.139 6
 endloop
endfacet
facet normal 0 -0 1
 outer loop
  vertex -1.351 -1.577 6
  vertex -0.976 -1.139 6
  vertex -1.535 -1.399 6
 endloop
endfacet
facet normal 0 0 1
 outer loop
  vertex -1.535 -1.399 6
  vertex -0.976 -1.139 6
  vertex -1.109 -1.011 6
 endloop
endfacet
facet normal 0 -0 1
 outer loop
  vertex -1.535 -1.399 6
  vertex -1.109 -1.011 6
  vertex -1.695 -1.2 6
 endloop
endfacet
facet normal 0 0 1
 outer loop
  vertex -1.695 -1.2 6
  vertex -1.109 -1.011 6
  vertex -1.224 -0.867 6
 endloop
endfacet
facet normal 0 -0 1
 outer loop
  vertex -1.695 -1.2 6
  vertex -1.224 -0.867 6
  vertex -1.83 -0.983 6
 endloop
endfacet
facet normal 0 0 1
 outer loop
  vertex -1.83 -0.983 6
  vertex -1.224 -0.867 6
  vertex -1.322 -0.71 6
 endloop
endfacet
facet normal 0 -0 1
 outer loop
  vertex -1.83 -0.983 6
  vertex -1.322 -0.71 6
  vertex -1.937 -0.75 6
 endloop
endfacet
facet normal 0 0 1
 outer loop
  vertex -1.937 -0.75 6
  vertex -1.322 -0.71 6
  vertex -1.399 -0.542 6
 endloop
endfacet
facet normal 0 -0 1
 outer loop
  vertex -1.937 -0.75 6
  vertex -1.399 -0.542 6
  vertex -2.014 -0.507 6
 endloop
endfacet
facet normal -0 0 1
 outer loop
  vertex -2.014 -0.507 6
  vertex -1.399 -0.542 6
  vertex -1.455 -0.366 6
 endloop
endfacet
facet normal 0 -0 1
 outer loop
  vertex -2.014 -0.507 6
  vertex -1.455 -0.366 6
  vertex -2.061 -0.255 6
 endloop
endfacet
facet normal -0 0 1
 outer loop
  vertex -2.061 -0.255 6
  vertex -1.455 -0.366 6
  vertex -1.489 -0.184 6
 endloop
endfacet
facet normal 0 -0 1
 outer loop
  vertex -2.061 -0.255 6
  vertex -1.489 -0.184 6
  vertex -2.077 0 6
 endloop
endfacet
facet normal 0 0 1
 outer loop
  vertex -2.077 0 6
  vertex -1.489 -0.184 6
  vertex -1.5 0 6
 endloop
endfacet
facet normal -0 0 1
 outer loop
  vertex -2.077 0 6
  vertex -1.5 0 6
  vertex -1.489 0.184 6
 endloop
endfacet
facet normal 0 0 1
 outer loop
  vertex -2.077 0 6
  vertex -1.489 0.184 6
  vertex -2.061 0.255 6
 endloop
endfacet
facet normal -0 0 1
 outer loop
  vertex -2.061 0.255 6
  vertex -1.489 0.184 6
  vertex -1.455 0.366 6
 endloop
endfacet
facet normal 0 0 1
 outer loop
  vertex -2.061 0.255 6
  vertex -1.455 0.366 6
  vertex -2.014 0.507 6
 endloop
endfacet
facet normal -0 0 1
 outer loop
  vertex -2.014 0.507 6
  vertex -1.455 0.366 6
  vertex -1.399 0.542 6
 endloop
endfacet
facet normal 0 0 1
 outer loop
  vertex -2.014 0.507 6
  vertex -1.399 0.542 6
  vertex -1.937 0.75 6
 endloop
endfacet
facet normal 0 0 1
 outer loop
  vertex -1.937 0.75 6
  vertex -1.399 0.542 6
  vertex -1.322 0.71 6
 endloop
endfacet
facet normal -0 0 1
 outer loop
  vertex -1.937 0.75 6
  vertex -1.322 0.71 6
  vertex -1.83 0.983 6
 endloop
endfacet
facet normal 0 0 1
 outer loop
  vertex -1.83 0.983 6
  vertex -1.322 0.71 6
  vertex -1.224 0.867 6
 endloop
endfacet
facet normal -0 0 1
 outer loop
  vertex -1.83 0.983 6
  vertex -1.224 0.867 6
  vertex -1.695 1.2 6
 endloop
endfacet
facet normal 0 0 1
 outer loop
  vertex -1.695 1.2 6
  vertex -1.224 0.867 6
  vertex -1.109 1.011 6
 endloop
endfacet
facet normal -0 0 1
 outer loop
  vertex -1.695 1.2 6
  vertex -1.109 1.011 6
  vertex -1.535 1.399 6
 endloop
endfacet
facet normal 0 0 1
 outer loop
  vertex -1.535 1.399 6
  vertex -1.109 1.011 6
  vertex -0.976 1.139 6
 endloop
endfacet
facet normal -0 0 1
 outer loop
  vertex -1.535 1.399 6
  vertex -0.976 1.139 6
  vertex -1.351 1.577 6
 endloop
endfacet
facet normal 0 0 1
 outer loop
  vertex -1.351 1.577 6
  vertex -0.976 1.139 6
  vertex -0.829 1.25 6
 endloop
endfacet
facet normal -0 0 1
 outer loop
  vertex -1.351 1.577 6
  vertex -0.829 1.25 6
  vertex -1.147 1.731 6
 endloop
endfacet
facet normal 0 0 1
 outer loop
  vertex -1.147 1.731 6
  vertex -0.829 1.25 6
  vertex -0.669 1.343 6
 endloop
endfacet
facet normal -0 0 1
 outer loop
  vertex -1.147 1.731 6
  vertex -0.669 1.343 6
  vertex -0.926 1.859 6
 endloop
endfacet
facet normal 0 0 1
 outer loop
  vertex -0.926 1.859 6
  vertex -0.669 1.343 6
  vertex -0.499 1.415 6
 endloop
endfacet
facet normal -0 0 1
 outer loop
  vertex -0.926 1.859 6
  vertex -0.499 1.415 6
  vertex -0.69 1.959 6
 endloop
endfacet
facet normal 0 0 1
 outer loop
  vertex -0.69 1.959 6
  vertex -0.499 1.415 6
  vertex -0.321 1.465 6
 endloop
endfacet
facet normal -0 0 1
 outer loop
  vertex -0.69 1.959 6
  vertex -0.321 1.465 6
  vertex -0.444 2.029 6
 endloop
endfacet
facet normal 0 0 1
 outer loop
  vertex -0.444 2.029 6
  vertex -0.321 1.465 6
  vertex -0.138 1.494 6
 endloop
endfacet
facet normal -0 0 1
 outer loop
  vertex -0.444 2.029 6
  vertex -0.138 1.494 6
  vertex -0.192 2.068 6
 endloop
endfacet
facet normal 0 0 1
 outer loop
  vertex -0.192 2.068 6
  vertex -0.138 1.494 6
  vertex 0.046 1.499 6
 endloop
endfacet
facet normal -1 0.031 0
 outer loop
  vertex 1.497 -0.092 0.5
  vertex 1.497 -0.092 6
  vertex 1.5 0 0.5
 endloop
endfacet
facet normal -1 0.031 0
 outer loop
  vertex 1.5 0 0.5
  vertex 1.497 -0.092 6
  vertex 1.5 0 6
 endloop
endfacet
facet normal -1 -0.031 0
 outer loop
  vertex 1.5 0 0.5
  vertex 1.5 0 6
  vertex 1.497 0.092 0.5
 endloop
endfacet
facet normal -1 -0.031 0
 outer loop
  vertex 1.497 0.092 0.5
  vertex 1.5 0 6
  vertex 1.497 0.092 6
 endloop
endfacet
facet normal -0.992 -0.123 0
 outer loop
  vertex 1.497 0.092 0.5
  vertex 1.497 0.092 6
  vertex 1.474 0.276 0.5
 endloop
endfacet
facet normal -0.992 -0.123 0
 outer loop
  vertex 1.474 0.276 0.5
  vertex 1.497 0.092 6
  vertex 1.474 0.276 6
 endloop
endfacet
facet normal -0.97 -0.244 0
 outer loop
  vertex 1.474 0.276 0.5
  vertex 1.474 0.276 6
  vertex 1.429 0.455 0.5
 endloop
endfacet
facet normal -0.97 -0.244 0
 outer loop
  vertex 1.429 0.455 0.5
  vertex 1.474 0.276 6
  vertex 1.429 0.455 6
 endloop
endfacet
facet normal -0.932 -0.361 0
 outer loop
  vertex 1.429 0.455 0.5
  vertex 1.429 0.455 6
  vertex 1.363 0.627 0.5
 endloop
endfacet
facet normal -0.932 -0.361 0
 outer loop
  vertex 1.363 0.627 0.5
  vertex 1.429 0.455 6
  vertex 1.363 0.627 6
 endloop
endfacet
facet normal -0.881 -0.473 0
 outer loop
  vertex 1.363 0.627 0.5
  vertex 1.363 0.627 6
  vertex 1.275 0.79 0.5
 endloop
endfacet
facet normal -0.881 -0.473 0
 outer loop
  vertex 1.275 0.79 0.5
  vertex 1.363 0.627 6
  vertex 1.275 0.79 6
 endloop
endfacet
facet normal -0.816 -0.578 0
 outer loop
  vertex 1.275 0.79 0.5
  vertex 1.275 0.79 6
  vertex 1.169 0.94 0.5
 endloop
endfacet
facet normal -0.816 -0.578 0
 outer loop
  vertex 1.169 0.94 0.5
  vertex 1.275 0.79 6
  vertex 1.169 0.94 6
 endloop
endfacet
facet normal -0.739 -0.674 0
 outer loop
  vertex 1.169 0.94 0.5
  vertex 1.169 0.94 6
  vertex 1.044 1.077 0.5
 endloop
endfacet
facet normal -0.739 -0.674 0
 outer loop
  vertex 1.044 1.077 0.5
  vertex 1.169 0.94 6
  vertex 1.044 1.077 6
 endloop
endfacet
facet normal -0.651 -0.759 0
 outer loop
  vertex 1.044 1.077 0.5
  vertex 1.044 1.077 6
  vertex 0.904 1.197 0.5
 endloop
endfacet
facet normal -0.651 -0.759 0
 outer loop
  vertex 0.904 1.197 0.5
  vertex 1.044 1.077 6
  vertex 0.904 1.197 6
 endloop
endfacet
facet normal -0.552 -0.834 0
 outer loop
  vertex 0.904 1.197 0.5
  vertex 0.904 1.197 6
  vertex 0.75 1.299 0.5
 endloop
endfacet
facet normal -0.552 -0.834 0
 outer loop
  vertex 0.75 1.299 0.5
  vertex 0.904 1.197 6
  vertex 0.75 1.299 6
 endloop
endfacet
facet normal -0.446 -0.895 0
 outer loop
  vertex 0.75 1.299 0.5
  vertex 0.75 1.299 6
  vertex 0.585 1.381 0.5
 endloop
endfacet
facet normal -0.446 -0.895 0
 outer loop
  vertex 0.585 1.381 0.5
  vertex 0.75 1.299 6
  vertex 0.585 1.381 6
 endloop
endfacet
facet normal -0.332 -0.943 0
 outer loop
  vertex 0.585 1.381 0.5
  vertex 0.585 1.381 6
  vertex 0.41 1.443 0.5
 endloop
endfacet
facet normal -0.332 -0.943 0
 outer loop
  vertex 0.41 1.443 0.5
  vertex 0.585 1.381 6
  vertex 0.41 1.443 6
 endloop
endfacet
facet normal -0.214 -0.977 0
 outer loop
  vertex 0.41 1.443 0.5
  vertex 0.41 1.443 6
  vertex 0.23 1.482 0.5
 endloop
endfacet
facet normal -0.214 -0.977 0
 outer loop
  vertex 0.23 1.482 0.5
  vertex 0.41 1.443 6
  vertex 0.23 1.482 6
 endloop
endfacet
facet normal -0.092 -0.996 0
 outer loop
  vertex 0.23 1.482 0.5
  vertex 0.23 1.482 6
  vertex 0.046 1.499 0.5
 endloop
endfacet
facet normal -0.092 -0.996 0
 outer loop
  vertex 0.046 1.499 0.5
  vertex 0.23 1.482 6
  vertex 0.046 1.499 6
 endloop
endfacet
facet normal 0.031 -1 0
 outer loop
  vertex 0.046 1.499 0.5
  vertex 0.046 1.499 6
  vertex -0.138 1.494 0.5
 endloop
endfacet
facet normal 0.031 -1 0
 outer loop
  vertex -0.138 1.494 0.5
  vertex 0.046 1.499 6
  vertex -0.138 1.494 6
 endloop
endfacet
facet normal 0.153 -0.988 0
 outer loop
  vertex -0.138 1.494 0.5
  vertex -0.138 1.494 6
  vertex -0.321 1.465 0.5
 endloop
endfacet
facet normal 0.153 -0.988 0
 outer loop
  vertex -0.321 1.465 0.5
  vertex -0.138 1.494 6
  vertex -0.321 1.465 6
 endloop
endfacet
facet normal 0.274 -0.962 0
 outer loop
  vertex -0.321 1.465 0.5
  vertex -0.321 1.465 6
  vertex -0.499 1.415 0.5
 endloop
endfacet
facet normal 0.274 -0.962 0
 outer loop
  vertex -0.499 1.415 0.5
  vertex -0.321 1.465 6
  vertex -0.499 1.415 6
 endloop
endfacet
facet normal 0.39 -0.921 0
 outer loop
  vertex -0.499 1.415 0.5
  vertex -0.499 1.415 6
  vertex -0.669 1.343 0.5
 endloop
endfacet
facet normal 0.39 -0.921 0
 outer loop
  vertex -0.669 1.343 0.5
  vertex -0.499 1.415 6
  vertex -0.669 1.343 6
 endloop
endfacet
facet normal 0.5 -0.866 0
 outer loop
  vertex -0.669 1.343 0.5
  vertex -0.669 1.343 6
  vertex -0.829 1.25 0.5
 endloop
endfacet
facet normal 0.5 -0.866 0
 outer loop
  vertex -0.829 1.25 0.5
  vertex -0.669 1.343 6
  vertex -0.829 1.25 6
 endloop
endfacet
facet normal 0.603 -0.798 0
 outer loop
  vertex -0.829 1.25 0.5
  vertex -0.829 1.25 6
  vertex -0.976 1.139 0.5
 endloop
endfacet
facet normal 0.603 -0.798 0
 outer loop
  vertex -0.976 1.139 0.5
  vertex -0.829 1.25 6
  vertex -0.976 1.139 6
 endloop
endfacet
facet normal 0.696 -0.718 0
 outer loop
  vertex -0.976 1.139 0.5
  vertex -0.976 1.139 6
  vertex -1.109 1.011 0.5
 endloop
endfacet
facet normal 0.696 -0.718 0
 outer loop
  vertex -1.109 1.011 0.5
  vertex -0.976 1.139 6
  vertex -1.109 1.011 6
 endloop
endfacet
facet normal 0.779 -0.627 0
 outer loop
  vertex -1.109 1.011 0.5
  vertex -1.109 1.011 6
  vertex -1.224 0.867 0.5
 endloop
endfacet
facet normal 0.779 -0.627 0
 outer loop
  vertex -1.224 0.867 0.5
  vertex -1.109 1.011 6
  vertex -1.224 0.867 6
 endloop
endfacet
facet normal 0.85 -0.526 0
 outer loop
  vertex -1.224 0.867 0.5
  vertex -1.224 0.867 6
  vertex -1.322 0.71 0.5
 endloop
endfacet
facet normal 0.85 -0.526 0
 outer loop
  vertex -1.322 0.71 0.5
  vertex -1.224 0.867 6
  vertex -1.322 0.71 6
 endloop
endfacet
facet normal 0.908 -0.418 0
 outer loop
  vertex -1.322 0.71 0.5
  vertex -1.322 0.71 6
  vertex -1.399 0.542 0.5
 endloop
endfacet
facet normal 0.908 -0.418 0
 outer loop
  vertex -1.399 0.542 0.5
  vertex -1.322 0.71 6
  vertex -1.399 0.542 6
 endloop
endfacet
facet normal 0.953 -0.303 0
 outer loop
  vertex -1.399 0.542 0.5
  vertex -1.399 0.542 6
  vertex -1.455 0.366 0.5
 endloop
endfacet
facet normal 0.953 -0.303 0
 outer loop
  vertex -1.455 0.366 0.5
  vertex -1.399 0.542 6
  vertex -1.455 0.366 6
 endloop
endfacet
facet normal 0.983 -0.184 0
 outer loop
  vertex -1.455 0.366 0.5
  vertex -1.455 0.366 6
  vertex -1.489 0.184 0.5
 endloop
endfacet
facet normal 0.983 -0.184 0
 outer loop
  vertex -1.489 0.184 0.5
  vertex -1.455 0.366 6
  vertex -1.489 0.184 6
 endloop
endfacet
facet normal 0.998 -0.062 0
 outer loop
  vertex -1.489 0.184 0.5
  vertex -1.489 0.184 6
  vertex -1.5 0 0.5
 endloop
endfacet
facet normal 0.998 -0.062 0
 outer loop
  vertex -1.5 0 0.5
  vertex -1.489 0.184 6
  vertex -1.5 0 6
 endloop
endfacet
facet normal 0.998 0.062 -0
 outer loop
  vertex -1.5 0 0.5
  vertex -1.5 0 6
  vertex -1.489 -0.184 0.5
 endloop
endfacet
facet normal 0.998 0.062 -0
 outer loop
  vertex -1.489 -0.184 0.5
  vertex -1.5 0 6
  vertex -1.489 -0.184 6
 endloop
endfacet
facet normal 0.983 0.184 -0
 outer loop
  vertex -1.489 -0.184 0.5
  vertex -1.489 -0.184 6
  vertex -1.455 -0.366 0.5
 endloop
endfacet
facet normal 0.983 0.184 -0
 outer loop
  vertex -1.455 -0.366 0.5
  vertex -1.489 -0.184 6
  vertex -1.455 -0.366 6
 endloop
endfacet
facet normal 0.953 0.303 -0
 outer loop
  vertex -1.455 -0.366 0.5
  vertex -1.455 -0.366 6
  vertex -1.399 -0.542 0.5
 endloop
endfacet
facet normal 0.953 0.303 -0
 outer loop
  vertex -1.399 -0.542 0.5
  vertex -1.455 -0.366 6
  vertex -1.399 -0.542 6
 endloop
endfacet
facet normal 0.908 0.418 -0
 outer loop
  vertex -1.399 -0.542 0.5
  vertex -1.399 -0.542 6
  vertex -1.322 -0.71 0.5
 endloop
endfacet
facet normal 0.908 0.418 -0
 outer loop
  vertex -1.322 -0.71 0.5
  vertex -1.399 -0.542 6
  vertex -1.322 -0.71 6
 endloop
endfacet
facet normal 0.85 0.526 -0
 outer loop
  vertex -1.322 -0.71 0.5
  vertex -1.322 -0.71 6
  vertex -1.224 -0.867 0.5
 endloop
endfacet
facet normal 0.85 0.526 -0
 outer loop
  vertex -1.224 -0.867 0.5
  vertex -1.322 -0.71 6
  vertex -1.224 -0.867 6
 endloop
endfacet
facet normal 0.779 0.627 -0
 outer loop
  vertex -1.224 -0.867 0.5
  vertex -1.224 -0.867 6
  vertex -1.109 -1.011 0.5
 endloop
endfacet
facet normal 0.779 0.627 -0
 outer loop
  vertex -1.109 -1.011 0.5
  vertex -1.224 -0.867 6
  vertex -1.109 -1.011 6
 endloop
endfacet
facet normal 0.696 0.718 -0
 outer loop
  vertex -1.109 -1.011 0.5
  vertex -1.109 -1.011 6
  vertex -0.976 -1.139 0.5
 endloop
endfacet
facet normal 0.696 0.718 -0
 outer loop
  vertex -0.976 -1.139 0.5
  vertex -1.109 -1.011 6
  vertex -0.976 -1.139 6
 endloop
endfacet
facet normal 0.603 0.798 -0
 outer loop
  vertex -0.976 -1.139 0.5
  vertex -0.976 -1.139 6
  vertex -0.829 -1.25 0.5
 endloop
endfacet
facet normal 0.603 0.798 -0
 outer loop
  vertex -0.829 -1.25 0.5
  vertex -0.976 -1.139 6
  vertex -0.829 -1.25 6
 endloop
endfacet
facet normal 0.5 0.866 -0
 outer loop
  vertex -0.829 -1.25 0.5
  vertex -0.829 -1.25 6
  vertex -0.669 -1.343 0.5
 endloop
endfacet
facet normal 0.5 0.866 -0
 outer loop
  vertex -0.669 -1.343 0.5
  vertex -0.829 -1.25 6
  vertex -0.669 -1.343 6
 endloop
endfacet
facet normal 0.39 0.921 -0
 outer loop
  vertex -0.669 -1.343 0.5
  vertex -0.669 -1.343 6
  vertex -0.499 -1.415 0.5
 endloop
endfacet
facet normal 0.39 0.921 -0
 outer loop
  vertex -0.499 -1.415 0.5
  vertex -0.669 -1.343 6
  vertex -0.499 -1.415 6
 endloop
endfacet
facet normal 0.274 0.962 -0
 outer loop
  vertex -0.499 -1.415 0.5
  vertex -0.499 -1.415 6
  vertex -0.321 -1.465 0.5
 endloop
endfacet
facet normal 0.274 0.962 -0
 outer loop
  vertex -0.321 -1.465 0.5
  vertex -0.499 -1.415 6
  vertex -0.321 -1.465 6
 endloop
endfacet
facet normal 0.153 0.988 -0
 outer loop
  vertex -0.321 -1.465 0.5
  vertex -0.321 -1.465 6
  vertex -0.138 -1.494 0.5
 endloop
endfacet
facet normal 0.153 0.988 -0
 outer loop
  vertex -0.138 -1.494 0.5
  vertex -0.321 -1.465 6
  vertex -0.138 -1.494 6
 endloop
endfacet
facet normal 0.031 1 -0
 outer loop
  vertex -0.138 -1.494 0.5
  vertex -0.138 -1.494 6
  vertex 0.046 -1.499 0.5
 endloop
endfacet
facet normal 0.031 1 -0
 outer loop
  vertex 0.046 -1.499 0.5
  vertex -0.138 -1.494 6
  vertex 0.046 -1.499 6
 endloop
endfacet
facet normal -0.092 0.996 0
 outer loop
  vertex 0.046 -1.499 0.5
  vertex 0.046 -1.499 6
  vertex 0.23 -1.482 0.5
 endloop
endfacet
facet normal -0.092 0.996 0
 outer loop
  vertex 0.23 -1.482 0.5
  vertex 0.046 -1.499 6
  vertex 0.23 -1.482 6
 endloop
endfacet
facet normal -0.214 0.977 0
 outer loop
  vertex 0.23 -1.482 0.5
  vertex 0.23 -1.482 6
  vertex 0.41 -1.443 0.5
 endloop
endfacet
facet normal -0.214 0.977 0
 outer loop
  vertex 0.41 -1.443 0.5
  vertex 0.23 -1.482 6
  vertex 0.41 -1.443 6
 endloop
endfacet
facet normal -0.332 0.943 0
 outer loop
  vertex 0.41 -1.443 0.5
  vertex 0.41 -1.443 6
  vertex 0.585 -1.381 0.5
 endloop
endfacet
facet normal -0.332 0.943 0
 outer loop
  vertex 0.585 -1.381 0.5
  vertex 0.41 -1.443 6
  vertex 0.585 -1.381 6
 endloop
endfacet
facet normal -0.446 0.895 0
 outer loop
  vertex 0.585 -1.381 0.5
  vertex 0.585 -1.381 6
  vertex 0.75 -1.299 0.5
 endloop
endfacet
facet normal -0.446 0.895 0
 outer loop
  vertex 0.75 -1.299 0.5
  vertex 0.585 -1.381 6
  vertex 0.75 -1.299 6
 endloop
endfacet
facet normal -0.552 0.834 0
 outer loop
  vertex 0.75 -1.299 0.5
  vertex 0.75 -1.299 6
  vertex 0.904 -1.197 0.5
 endloop
endfacet
facet normal -0.552 0.834 0
 outer loop
  vertex 0.904 -1.197 0.5
  vertex 0.75 -1.299 6
  vertex 0.904 -1.197 6
 endloop
endfacet
facet normal -0.651 0.759 0
 outer loop
  vertex 0.904 -1.197 0.5
  vertex 0.904 -1.197 6
  vertex 1.044 -1.077 0.5
 endloop
endfacet
facet normal -0.651 0.759 0
 outer loop
  vertex 1.044 -1.077 0.5
  vertex 0.904 -1.197 6
  vertex 1.044 -1.077 6
 endloop
endfacet
facet normal -0.739 0.674 0
 outer loop
  vertex 1.044 -1.077 0.5
  vertex 1.044 -1.077 6
  vertex 1.169 -0.94 0.5
 endloop
endfacet
facet normal -0.739 0.674 0
 outer loop
  vertex 1.169 -0.94 0.5
  vertex 1.044 -1.077 6
  vertex 1.169 -0.94 6
 endloop
endfacet
facet normal -0.816 0.578 0
 outer loop
  vertex 1.169 -0.94 0.5
  vertex 1.169 -0.94 6
  vertex 1.275 -0.79 0.5
 endloop
endfacet
facet normal -0.816 0.578 0
 outer loop
  vertex 1.275 -0.79 0.5
  vertex 1.169 -0.94 6
  vertex 1.275 -0.79 6
 endloop
endfacet
facet normal -0.881 0.473 0
 outer loop
  vertex 1.275 -0.79 0.5
  vertex 1.275 -0.79 6
  vertex 1.363 -0.627 0.5
 endloop
endfacet
facet normal -0.881 0.473 0
 outer loop
  vertex 1.363 -0.627 0.5
  vertex 1.275 -0.79 6
  vertex 1.363 -0.627 6
 endloop
endfacet
facet normal -0.932 0.361 0
 outer loop
  vertex 1.363 -0.627 0.5
  vertex 1.363 -0.627 6
  vertex 1.429 -0.455 0.5
 endloop
endfacet
facet normal -0.932 0.361 0
 outer loop
  vertex 1.429 -0.455 0.5
  vertex 1.363 -0.627 6
  vertex 1.429 -0.455 6
 endloop
endfacet
facet normal -0.97 0.244 0
 outer loop
  vertex 1.429 -0.455 0.5
  vertex 1.429 -0.455 6
  vertex 1.474 -0.276 0.5
 endloop
endfacet
facet normal -0.97 0.244 0
 outer loop
  vertex 1.474 -0.276 0.5
  vertex 1.429 -0.455 6
  vertex 1.474 -0.276 6
 endloop
endfacet
facet normal -0.992 0.123 0
 outer loop
  vertex 1.474 -0.276 0.5
  vertex 1.474 -0.276 6
  vertex 1.497 -0.092 0.5
 endloop
endfacet
facet normal -0.992 0.123 0
 outer loop
  vertex 1.497 -0.092 0.5
  vertex 1.474 -0.276 6
  vertex 1.497 -0.092 6
 endloop
endfacet
facet normal -0.866 0.027 -0.5
 outer loop
  vertex 1.785 -0.11 0
  vertex 1.497 -0.092 0.5
  vertex 1.789 0 0
 endloop
endfacet
facet normal -0.866 0.027 -0.5
 outer loop
  vertex 1.789 0 0
  vertex 1.497 -0.092 0.5
  vertex 1.5 0 0.5
 endloop
endfacet
facet normal -0.866 -0.027 -0.5
 outer loop
  vertex 1.789 0 0
  vertex 1.5 0 0.5
  vertex 1.785 0.11 0
 endloop
endfacet
facet normal -0.866 -0.027 -0.5
 outer loop
  vertex 1.785 0.11 0
  vertex 1.5 0 0.5
  vertex 1.497 0.092 0.5
 endloop
endfacet
facet normal -0.86 -0.106 -0.499
 outer loop
  vertex 1.785 0.11 0
  vertex 1.497 0.092 0.5
  vertex 1.758 0.329 0
 endloop
endfacet
facet normal -0.86 -0.106 -0.499
 outer loop
  vertex 1.758 0.329 0
  vertex 1.497 0.092 0.5
  vertex 1.474 0.276 0.5
 endloop
endfacet
facet normal -0.84 -0.211 -0.499
 outer loop
  vertex 1.758 0.329 0
  vertex 1.474 0.276 0.5
  vertex 1.704 0.542 0
 endloop
endfacet
facet normal -0.84 -0.211 -0.499
 outer loop
  vertex 1.704 0.542 0
  vertex 1.474 0.276 0.5
  vertex 1.429 0.455 0.5
 endloop
endfacet
facet normal -0.808 -0.313 -0.499
 outer loop
  vertex 1.704 0.542 0
  vertex 1.429 0.455 0.5
  vertex 1.625 0.748 0
 endloop
endfacet
facet normal -0.808 -0.313 -0.499
 outer loop
  vertex 1.625 0.748 0
  vertex 1.429 0.455 0.5
  vertex 1.363 0.627 0.5
 endloop
endfacet
facet normal -0.763 -0.41 -0.499
 outer loop
  vertex 1.625 0.748 0
  vertex 1.363 0.627 0.5
  vertex 1.521 0.942 0
 endloop
endfacet
facet normal -0.763 -0.41 -0.499
 outer loop
  vertex 1.521 0.942 0
  vertex 1.363 0.627 0.5
  vertex 1.275 0.79 0.5
 endloop
endfacet
facet normal -0.707 -0.501 -0.499
 outer loop
  vertex 1.521 0.942 0
  vertex 1.275 0.79 0.5
  vertex 1.394 1.121 0
 endloop
endfacet
facet normal -0.707 -0.501 -0.499
 outer loop
  vertex 1.394 1.121 0
  vertex 1.275 0.79 0.5
  vertex 1.169 0.94 0.5
 endloop
endfacet
facet normal -0.64 -0.584 -0.499
 outer loop
  vertex 1.394 1.121 0
  vertex 1.169 0.94 0.5
  vertex 1.245 1.284 0
 endloop
endfacet
facet normal -0.64 -0.584 -0.499
 outer loop
  vertex 1.245 1.284 0
  vertex 1.169 0.94 0.5
  vertex 1.044 1.077 0.5
 endloop
endfacet
facet normal -0.564 -0.658 -0.499
 outer loop
  vertex 1.245 1.284 0
  vertex 1.044 1.077 0.5
  vertex 1.078 1.427 0
 endloop
endfacet
facet normal -0.564 -0.658 -0.499
 outer loop
  vertex 1.078 1.427 0
  vertex 1.044 1.077 0.5
  vertex 0.904 1.197 0.5
 endloop
endfacet
facet normal -0.479 -0.722 -0.499
 outer loop
  vertex 1.078 1.427 0
  vertex 0.904 1.197 0.5
  vertex 0.894 1.549 0
 endloop
endfacet
facet normal -0.479 -0.722 -0.499
 outer loop
  vertex 0.894 1.549 0
  vertex 0.904 1.197 0.5
  vertex 0.75 1.299 0.5
 endloop
endfacet
facet normal -0.386 -0.776 -0.499
 outer loop
  vertex 0.894 1.549 0
  vertex 0.75 1.299 0.5
  vertex 0.697 1.647 0
 endloop
endfacet
facet normal -0.386 -0.776 -0.499
 outer loop
  vertex 0.697 1.647 0
  vertex 0.75 1.299 0.5
  vertex 0.585 1.381 0.5
 endloop
endfacet
facet normal -0.288 -0.817 -0.499
 outer loop
  vertex 0.697 1.647 0
  vertex 0.585 1.381 0.5
  vertex 0.489 1.72 0
 endloop
endfacet
facet normal -0.288 -0.817 -0.499
 outer loop
  vertex 0.489 1.72 0
  vertex 0.585 1.381 0.5
  vertex 0.41 1.443 0.5
 endloop
endfacet
facet normal -0.185 -0.846 -0.499
 outer loop
  vertex 0.489 1.72 0
  vertex 0.41 1.443 0.5
  vertex 0.274 1.768 0
 endloop
endfacet
facet normal -0.185 -0.846 -0.499
 outer loop
  vertex 0.274 1.768 0
  vertex 0.41 1.443 0.5
  vertex 0.23 1.482 0.5
 endloop
endfacet
facet normal -0.08 -0.863 -0.499
 outer loop
  vertex 0.274 1.768 0
  vertex 0.23 1.482 0.5
  vertex 0.055 1.788 0
 endloop
endfacet
facet normal -0.08 -0.863 -0.499
 outer loop
  vertex 0.055 1.788 0
  vertex 0.23 1.482 0.5
  vertex 0.046 1.499 0.5
 endloop
endfacet
facet normal 0.027 -0.866 -0.499
 outer loop
  vertex 0.055 1.788 0
  vertex 0.046 1.499 0.5
  vertex -0.165 1.781 0
 endloop
endfacet
facet normal 0.027 -0.866 -0.499
 outer loop
  vertex -0.165 1.781 0
  vertex 0.046 1.499 0.5
  vertex -0.138 1.494 0.5
 endloop
endfacet
facet normal 0.133 -0.856 -0.499
 outer loop
  vertex -0.165 1.781 0
  vertex -0.138 1.494 0.5
  vertex -0.383 1.747 0
 endloop
endfacet
facet normal 0.133 -0.856 -0.499
 outer loop
  vertex -0.383 1.747 0
  vertex -0.138 1.494 0.5
  vertex -0.321 1.465 0.5
 endloop
endfacet
facet normal 0.237 -0.833 -0.499
 outer loop
  vertex -0.383 1.747 0
  vertex -0.321 1.465 0.5
  vertex -0.594 1.687 0
 endloop
endfacet
facet normal 0.237 -0.833 -0.499
 outer loop
  vertex -0.594 1.687 0
  vertex -0.321 1.465 0.5
  vertex -0.499 1.415 0.5
 endloop
endfacet
facet normal 0.338 -0.798 -0.499
 outer loop
  vertex -0.594 1.687 0
  vertex -0.499 1.415 0.5
  vertex -0.797 1.601 0
 endloop
endfacet
facet normal 0.338 -0.798 -0.499
 outer loop
  vertex -0.797 1.601 0
  vertex -0.499 1.415 0.5
  vertex -0.669 1.343 0.5
 endloop
endfacet
facet normal 0.433 -0.75 -0.499
 outer loop
  vertex -0.797 1.601 0
  vertex -0.669 1.343 0.5
  vertex -0.988 1.491 0
 endloop
endfacet
facet normal 0.433 -0.75 -0.499
 outer loop
  vertex -0.988 1.491 0
  vertex -0.669 1.343 0.5
  vertex -0.829 1.25 0.5
 endloop
endfacet
facet normal 0.522 -0.691 -0.499
 outer loop
  vertex -0.988 1.491 0
  vertex -0.829 1.25 0.5
  vertex -1.164 1.358 0
 endloop
endfacet
facet normal 0.522 -0.691 -0.499
 outer loop
  vertex -1.164 1.358 0
  vertex -0.829 1.25 0.5
  vertex -0.976 1.139 0.5
 endloop
endfacet
facet normal 0.603 -0.622 -0.499
 outer loop
  vertex -1.164 1.358 0
  vertex -0.976 1.139 0.5
  vertex -1.322 1.205 0
 endloop
endfacet
facet normal 0.603 -0.622 -0.499
 outer loop
  vertex -1.322 1.205 0
  vertex -0.976 1.139 0.5
  vertex -1.109 1.011 0.5
 endloop
endfacet
facet normal 0.675 -0.543 -0.499
 outer loop
  vertex -1.322 1.205 0
  vertex -1.109 1.011 0.5
  vertex -1.46 1.033 0
 endloop
endfacet
facet normal 0.675 -0.543 -0.499
 outer loop
  vertex -1.46 1.033 0
  vertex -1.109 1.011 0.5
  vertex -1.224 0.867 0.5
 endloop
endfacet
facet normal 0.737 -0.456 -0.499
 outer loop
  vertex -1.46 1.033 0
  vertex -1.224 0.867 0.5
  vertex -1.576 0.846 0
 endloop
endfacet
facet normal 0.737 -0.456 -0.499
 outer loop
  vertex -1.576 0.846 0
  vertex -1.224 0.867 0.5
  vertex -1.322 0.71 0.5
 endloop
endfacet
facet normal 0.787 -0.362 -0.499
 outer loop
  vertex -1.576 0.846 0
  vertex -1.322 0.71 0.5
  vertex -1.668 0.646 0
 endloop
endfacet
facet normal 0.787 -0.362 -0.499
 outer loop
  vertex -1.668 0.646 0
  vertex -1.322 0.71 0.5
  vertex -1.399 0.542 0.5
 endloop
endfacet
facet normal 0.826 -0.263 -0.499
 outer loop
  vertex -1.668 0.646 0
  vertex -1.399 0.542 0.5
  vertex -1.735 0.436 0
 endloop
endfacet
facet normal 0.826 -0.263 -0.499
 outer loop
  vertex -1.735 0.436 0
  vertex -1.399 0.542 0.5
  vertex -1.455 0.366 0.5
 endloop
endfacet
facet normal 0.852 -0.159 -0.499
 outer loop
  vertex -1.735 0.436 0
  vertex -1.455 0.366 0.5
  vertex -1.775 0.22 0
 endloop
endfacet
facet normal 0.852 -0.159 -0.499
 outer loop
  vertex -1.775 0.22 0
  vertex -1.455 0.366 0.5
  vertex -1.489 0.184 0.5
 endloop
endfacet
facet normal 0.865 -0.053 -0.499
 outer loop
  vertex -1.775 0.22 0
  vertex -1.489 0.184 0.5
  vertex -1.789 0 0
 endloop
endfacet
facet normal 0.865 -0.053 -0.499
 outer loop
  vertex -1.789 0 0
  vertex -1.489 0.184 0.5
  vertex -1.5 0 0.5
 endloop
endfacet
facet normal 0.865 0.053 -0.499
 outer loop
  vertex -1.789 0 0
  vertex -1.5 0 0.5
  vertex -1.775 -0.22 0
 endloop
endfacet
facet normal 0.865 0.053 -0.499
 outer loop
  vertex -1.775 -0.22 0
  vertex -1.5 0 0.5
  vertex -1.489 -0.184 0.5
 endloop
endfacet
facet normal 0.852 0.159 -0.499
 outer loop
  vertex -1.775 -0.22 0
  vertex -1.489 -0.184 0.5
  vertex -1.735 -0.436 0
 endloop
endfacet
facet normal 0.852 0.159 -0.499
 outer loop
  vertex -1.735 -0.436 0
  vertex -1.489 -0.184 0.5
  vertex -1.455 -0.366 0.5
 endloop
endfacet
facet normal 0.826 0.263 -0.499
 outer loop
  vertex -1.735 -0.436 0
  vertex -1.455 -0.366 0.5
  vertex -1.668 -0.646 0
 endloop
endfacet
facet normal 0.826 0.263 -0.499
 outer loop
  vertex -1.668 -0.646 0
  vertex -1.455 -0.366 0.5
  vertex -1.399 -0.542 0.5
 endloop
endfacet
facet normal 0.787 0.362 -0.499
 outer loop
  vertex -1.668 -0.646 0
  vertex -1.399 -0.542 0.5
  vertex -1.576 -0.846 0
 endloop
endfacet
facet normal 0.787 0.362 -0.499
 outer loop
  vertex -1.576 -0.846 0
  vertex -1.399 -0.542 0.5
  vertex -1.322 -0.71 0.5
 endloop
endfacet
facet normal 0.737 0.456 -0.499
 outer loop
  vertex -1.576 -0.846 0
  vertex -1.322 -0.71 0.5
  vertex -1.46 -1.033 0
 endloop
endfacet
facet normal 0.737 0.456 -0.499
 outer loop
  vertex -1.46 -1.033 0
  vertex -1.322 -0.71 0.5
  vertex -1.224 -0.867 0.5
 endloop
endfacet
facet normal 0.675 0.543 -0.499
 outer loop
  vertex -1.46 -1.033 0
  vertex -1.224 -0.867 0.5
  vertex -1.322 -1.205 0
 endloop
endfacet
facet normal 0.675 0.543 -0.499
 outer loop
  vertex -1.322 -1.205 0
  vertex -1.224 -0.867 0.5
  vertex -1.109 -1.011 0.5
 endloop
endfacet
facet normal 0.603 0.622 -0.499
 outer loop
  vertex -1.322 -1.205 0
  vertex -1.109 -1.011 0.5
  vertex -1.164 -1.358 0
 endloop
endfacet
facet normal 0.603 0.622 -0.499
 outer loop
  vertex -1.164 -1.358 0
  vertex -1.109 -1.011 0.5
  vertex -0.976 -1.139 0.5
 endloop
endfacet
facet normal 0.522 0.691 -0.499
 outer loop
  vertex -1.164 -1.358 0
  vertex -0.976 -1.139 0.5
  vertex -0.988 -1.491 0
 endloop
endfacet
facet normal 0.522 0.691 -0.499
 outer loop
  vertex -0.988 -1.491 0
  vertex -0.976 -1.139 0.5
  vertex -0.829 -1.25 0.5
 endloop
endfacet
facet normal 0.433 0.75 -0.499
 outer loop
  vertex -0.988 -1.491 0
  vertex -0.829 -1.25 0.5
  vertex -0.797 -1.601 0
 endloop
endfacet
facet normal 0.433 0.75 -0.499
 outer loop
  vertex -0.797 -1.601 0
  vertex -0.829 -1.25 0.5
  vertex -0.669 -1.343 0.5
 endloop
endfacet
facet normal 0.338 0.798 -0.499
 outer loop
  vertex -0.797 -1.601 0
  vertex -0.669 -1.343 0.5
  vertex -0.594 -1.687 0
 endloop
endfacet
facet normal 0.338 0.798 -0.499
 outer loop
  vertex -0.594 -1.687 0
  vertex -0.669 -1.343 0.5
  vertex -0.499 -1.415 0.5
 endloop
endfacet
facet normal 0.237 0.833 -0.499
 outer loop
  vertex -0.594 -1.687 0
  vertex -0.499 -1.415 0.5
  vertex -0.383 -1.747 0
 endloop
endfacet
facet normal 0.237 0.833 -0.499
 outer loop
  vertex -0.383 -1.747 0
  vertex -0.499 -1.415 0.5
  vertex -0.321 -1.465 0.5
 endloop
endfacet
facet normal 0.133 0.856 -0.499
 outer loop
  vertex -0.383 -1.747 0
  vertex -0.321 -1.465 0.5
  vertex -0.165 -1.781 0
 endloop
endfacet
facet normal 0.133 0.856 -0.499
 outer loop
  vertex -0.165 -1.781 0
  vertex -0.321 -1.465 0.5
  vertex -0.138 -1.494 0.5
 endloop
endfacet
facet normal 0.027 0.866 -0.499
 outer loop
  vertex -0.165 -1.781 0
  vertex -0.138 -1.494 0.5
  vertex 0.055 -1.788 0
 endloop
endfacet
facet normal 0.027 0.866 -0.499
 outer loop
  vertex 0.055 -1.788 0
  vertex -0.138 -1.494 0.5
  vertex 0.046 -1.499 0.5
 endloop
endfacet
facet normal -0.08 0.863 -0.499
 outer loop
  vertex 0.055 -1.788 0
  vertex 0.046 -1.499 0.5
  vertex 0.274 -1.768 0
 endloop
endfacet
facet normal -0.08 0.863 -0.499
 outer loop
  vertex 0.274 -1.768 0
  vertex 0.046 -1.499 0.5
  vertex 0.23 -1.482 0.5
 endloop
endfacet
facet normal -0.185 0.846 -0.499
 outer loop
  vertex 0.274 -1.768 0
  vertex 0.23 -1.482 0.5
  vertex 0.489 -1.72 0
 endloop
endfacet
facet normal -0.185 0.846 -0.499
 outer loop
  vertex 0.489 -1.72 0
  vertex 0.23 -1.482 0.5
  vertex 0.41 -1.443 0.5
 endloop
endfacet
facet normal -0.288 0.817 -0.499
 outer loop
  vertex 0.489 -1.72 0
  vertex 0.41 -1.443 0.5
  vertex 0.697 -1.647 0
 endloop
endfacet
facet normal -0.288 0.817 -0.499
 outer loop
  vertex 0.697 -1.647 0
  vertex 0.41 -1.443 0.5
  vertex 0.585 -1.381 0.5
 endloop
endfacet
facet normal -0.386 0.776 -0.499
 outer loop
  vertex 0.697 -1.647 0
  vertex 0.585 -1.381 0.5
  vertex 0.894 -1.549 0
 endloop
endfacet
facet normal -0.386 0.776 -0.499
 outer loop
  vertex 0.894 -1.549 0
  vertex 0.585 -1.381 0.5
  vertex 0.75 -1.299 0.5
 endloop
endfacet
facet normal -0.479 0.722 -0.499
 outer loop
  vertex 0.894 -1.549 0
  vertex 0.75 -1.299 0.5
  vertex 1.078 -1.427 0
 endloop
endfacet
facet normal -0.479 0.722 -0.499
 outer loop
  vertex 1.078 -1.427 0
  vertex 0.75 -1.299 0.5
  vertex 0.904 -1.197 0.5
 endloop
endfacet
facet normal -0.564 0.658 -0.499
 outer loop
  vertex 1.078 -1.427 0
  vertex 0.904 -1.197 0.5
  vertex 1.245 -1.284 0
 endloop
endfacet
facet normal -0.564 0.658 -0.499
 outer loop
  vertex 1.245 -1.284 0
  vertex 0.904 -1.197 0.5
  vertex 1.044 -1.077 0.5
 endloop
endfacet
facet normal -0.64 0.584 -0.499
 outer loop
  vertex 1.245 -1.284 0
  vertex 1.044 -1.077 0.5
  vertex 1.394 -1.121 0
 endloop
endfacet
facet normal -0.64 0.584 -0.499
 outer loop
  vertex 1.394 -1.121 0
  vertex 1.044 -1.077 0.5
  vertex 1.169 -0.94 0.5
 endloop
endfacet
facet normal -0.707 0.501 -0.499
 outer loop
  vertex 1.394 -1.121 0
  vertex 1.169 -0.94 0.5
  vertex 1.521 -0.942 0
 endloop
endfacet
facet normal -0.707 0.501 -0.499
 outer loop
  vertex 1.521 -0.942 0
  vertex 1.169 -0.94 0.5
  vertex 1.275 -0.79 0.5
 endloop
endfacet
facet normal -0.763 0.41 -0.499
 outer loop
  vertex 1.521 -0.942 0
  vertex 1.275 -0.79 0.5
  vertex 1.625 -0.748 0
 endloop
endfacet
facet normal -0.763 0.41 -0.499
 outer loop
  vertex 1.625 -0.748 0
  vertex 1.275 -0.79 0.5
  vertex 1.363 -0.627 0.5
 endloop
endfacet
facet normal -0.808 0.313 -0.499
 outer loop
  vertex 1.625 -0.748 0
  vertex 1.363 -0.627 0.5
  vertex 1.704 -0.542 0
 endloop
endfacet
facet normal -0.808 0.313 -0.499
 outer loop
  vertex 1.704 -0.542 0
  vertex 1.363 -0.627 0.5
  vertex 1.429 -0.455 0.5
 endloop
endfacet
facet normal -0.84 0.211 -0.499
 outer loop
  vertex 1.704 -0.542 0
  vertex 1.429 -0.455 0.5
  vertex 1.758 -0.329 0
 endloop
endfacet
facet normal -0.84 0.211 -0.499
 outer loop
  vertex 1.758 -0.329 0
  vertex 1.429 -0.455 0.5
  vertex 1.474 -0.276 0.5
 endloop
endfacet
facet normal -0.86 0.106 -0.499
 outer loop
  vertex 1.758 -0.329 0
  vertex 1.474 -0.276 0.5
  vertex 1.785 -0.11 0
 endloop
endfacet
facet normal -0.86 0.106 -0.499
 outer loop
  vertex 1.785 -0.11 0
  vertex 1.474 -0.276 0.5
  vertex 1.497 -0.092 0.5
 endloop
endfacet
endsolid CADClick
