solid CADClick
facet normal -1 0.031 0
 outer loop
  vertex 4.991 -0.308 0
  vertex 4.991 -0.308 1.5
  vertex 5 0 0
 endloop
endfacet
facet normal -1 0.031 0
 outer loop
  vertex 5 0 0
  vertex 4.991 -0.308 1.5
  vertex 5 0 1.5
 endloop
endfacet
facet normal -1 -0.031 0
 outer loop
  vertex 5 0 0
  vertex 5 0 1.5
  vertex 4.991 0.308 0
 endloop
endfacet
facet normal -1 -0.031 0
 outer loop
  vertex 4.991 0.308 0
  vertex 5 0 1.5
  vertex 4.991 0.308 1.5
 endloop
endfacet
facet normal -0.992 -0.123 0
 outer loop
  vertex 4.991 0.308 0
  vertex 4.991 0.308 1.5
  vertex 4.915 0.919 0
 endloop
endfacet
facet normal -0.992 -0.123 0
 outer loop
  vertex 4.915 0.919 0
  vertex 4.991 0.308 1.5
  vertex 4.915 0.919 1.5
 endloop
endfacet
facet normal -0.97 -0.244 0
 outer loop
  vertex 4.915 0.919 0
  vertex 4.915 0.919 1.5
  vertex 4.765 1.516 0
 endloop
endfacet
facet normal -0.97 -0.244 0
 outer loop
  vertex 4.765 1.516 0
  vertex 4.915 0.919 1.5
  vertex 4.765 1.516 1.5
 endloop
endfacet
facet normal -0.932 -0.361 0
 outer loop
  vertex 4.765 1.516 0
  vertex 4.765 1.516 1.5
  vertex 4.542 2.09 0
 endloop
endfacet
facet normal -0.932 -0.361 0
 outer loop
  vertex 4.542 2.09 0
  vertex 4.765 1.516 1.5
  vertex 4.542 2.09 1.5
 endloop
endfacet
facet normal -0.881 -0.473 0
 outer loop
  vertex 4.542 2.09 0
  vertex 4.542 2.09 1.5
  vertex 4.251 2.632 0
 endloop
endfacet
facet normal -0.881 -0.473 0
 outer loop
  vertex 4.251 2.632 0
  vertex 4.542 2.09 1.5
  vertex 4.251 2.632 1.5
 endloop
endfacet
facet normal -0.816 -0.578 0
 outer loop
  vertex 4.251 2.632 0
  vertex 4.251 2.632 1.5
  vertex 3.895 3.135 0
 endloop
endfacet
facet normal -0.816 -0.578 0
 outer loop
  vertex 3.895 3.135 0
  vertex 4.251 2.632 1.5
  vertex 3.895 3.135 1.5
 endloop
endfacet
facet normal -0.739 -0.674 0
 outer loop
  vertex 3.895 3.135 0
  vertex 3.895 3.135 1.5
  vertex 3.481 3.59 0
 endloop
endfacet
facet normal -0.739 -0.674 0
 outer loop
  vertex 3.481 3.59 0
  vertex 3.895 3.135 1.5
  vertex 3.481 3.59 1.5
 endloop
endfacet
facet normal -0.651 -0.759 0
 outer loop
  vertex 3.481 3.59 0
  vertex 3.481 3.59 1.5
  vertex 3.013 3.99 0
 endloop
endfacet
facet normal -0.651 -0.759 0
 outer loop
  vertex 3.013 3.99 0
  vertex 3.481 3.59 1.5
  vertex 3.013 3.99 1.5
 endloop
endfacet
facet normal -0.552 -0.834 0
 outer loop
  vertex 3.013 3.99 0
  vertex 3.013 3.99 1.5
  vertex 2.5 4.33 0
 endloop
endfacet
facet normal -0.552 -0.834 0
 outer loop
  vertex 2.5 4.33 0
  vertex 3.013 3.99 1.5
  vertex 2.5 4.33 1.5
 endloop
endfacet
facet normal -0.446 -0.895 0
 outer loop
  vertex 2.5 4.33 0
  vertex 2.5 4.33 1.5
  vertex 1.949 4.605 0
 endloop
endfacet
facet normal -0.446 -0.895 0
 outer loop
  vertex 1.949 4.605 0
  vertex 2.5 4.33 1.5
  vertex 1.949 4.605 1.5
 endloop
endfacet
facet normal -0.332 -0.943 0
 outer loop
  vertex 1.949 4.605 0
  vertex 1.949 4.605 1.5
  vertex 1.368 4.809 0
 endloop
endfacet
facet normal -0.332 -0.943 0
 outer loop
  vertex 1.368 4.809 0
  vertex 1.949 4.605 1.5
  vertex 1.368 4.809 1.5
 endloop
endfacet
facet normal -0.214 -0.977 0
 outer loop
  vertex 1.368 4.809 0
  vertex 1.368 4.809 1.5
  vertex 0.767 4.941 0
 endloop
endfacet
facet normal -0.214 -0.977 0
 outer loop
  vertex 0.767 4.941 0
  vertex 1.368 4.809 1.5
  vertex 0.767 4.941 1.5
 endloop
endfacet
facet normal -0.092 -0.996 0
 outer loop
  vertex 0.767 4.941 0
  vertex 0.767 4.941 1.5
  vertex 0.154 4.998 0
 endloop
endfacet
facet normal -0.092 -0.996 0
 outer loop
  vertex 0.154 4.998 0
  vertex 0.767 4.941 1.5
  vertex 0.154 4.998 1.5
 endloop
endfacet
facet normal 0.031 -1 0
 outer loop
  vertex 0.154 4.998 0
  vertex 0.154 4.998 1.5
  vertex -0.461 4.979 0
 endloop
endfacet
facet normal 0.031 -1 0
 outer loop
  vertex -0.461 4.979 0
  vertex 0.154 4.998 1.5
  vertex -0.461 4.979 1.5
 endloop
endfacet
facet normal 0.153 -0.988 0
 outer loop
  vertex -0.461 4.979 0
  vertex -0.461 4.979 1.5
  vertex -1.07 4.884 0
 endloop
endfacet
facet normal 0.153 -0.988 0
 outer loop
  vertex -1.07 4.884 0
  vertex -0.461 4.979 1.5
  vertex -1.07 4.884 1.5
 endloop
endfacet
facet normal 0.274 -0.962 0
 outer loop
  vertex -1.07 4.884 0
  vertex -1.07 4.884 1.5
  vertex -1.662 4.716 0
 endloop
endfacet
facet normal 0.274 -0.962 0
 outer loop
  vertex -1.662 4.716 0
  vertex -1.07 4.884 1.5
  vertex -1.662 4.716 1.5
 endloop
endfacet
facet normal 0.39 -0.921 0
 outer loop
  vertex -1.662 4.716 0
  vertex -1.662 4.716 1.5
  vertex -2.229 4.476 0
 endloop
endfacet
facet normal 0.39 -0.921 0
 outer loop
  vertex -2.229 4.476 0
  vertex -1.662 4.716 1.5
  vertex -2.229 4.476 1.5
 endloop
endfacet
facet normal 0.5 -0.866 0
 outer loop
  vertex -2.229 4.476 0
  vertex -2.229 4.476 1.5
  vertex -2.762 4.168 0
 endloop
endfacet
facet normal 0.5 -0.866 0
 outer loop
  vertex -2.762 4.168 0
  vertex -2.229 4.476 1.5
  vertex -2.762 4.168 1.5
 endloop
endfacet
facet normal 0.603 -0.798 0
 outer loop
  vertex -2.762 4.168 0
  vertex -2.762 4.168 1.5
  vertex -3.253 3.797 0
 endloop
endfacet
facet normal 0.603 -0.798 0
 outer loop
  vertex -3.253 3.797 0
  vertex -2.762 4.168 1.5
  vertex -3.253 3.797 1.5
 endloop
endfacet
facet normal 0.696 -0.718 0
 outer loop
  vertex -3.253 3.797 0
  vertex -3.253 3.797 1.5
  vertex -3.695 3.368 0
 endloop
endfacet
facet normal 0.696 -0.718 0
 outer loop
  vertex -3.695 3.368 0
  vertex -3.253 3.797 1.5
  vertex -3.695 3.368 1.5
 endloop
endfacet
facet normal 0.779 -0.627 0
 outer loop
  vertex -3.695 3.368 0
  vertex -3.695 3.368 1.5
  vertex -4.081 2.889 0
 endloop
endfacet
facet normal 0.779 -0.627 0
 outer loop
  vertex -4.081 2.889 0
  vertex -3.695 3.368 1.5
  vertex -4.081 2.889 1.5
 endloop
endfacet
facet normal 0.85 -0.526 0
 outer loop
  vertex -4.081 2.889 0
  vertex -4.081 2.889 1.5
  vertex -4.405 2.365 0
 endloop
endfacet
facet normal 0.85 -0.526 0
 outer loop
  vertex -4.405 2.365 0
  vertex -4.081 2.889 1.5
  vertex -4.405 2.365 1.5
 endloop
endfacet
facet normal 0.908 -0.418 0
 outer loop
  vertex -4.405 2.365 0
  vertex -4.405 2.365 1.5
  vertex -4.662 1.806 0
 endloop
endfacet
facet normal 0.908 -0.418 0
 outer loop
  vertex -4.662 1.806 0
  vertex -4.405 2.365 1.5
  vertex -4.662 1.806 1.5
 endloop
endfacet
facet normal 0.953 -0.303 0
 outer loop
  vertex -4.662 1.806 0
  vertex -4.662 1.806 1.5
  vertex -4.849 1.22 0
 endloop
endfacet
facet normal 0.953 -0.303 0
 outer loop
  vertex -4.849 1.22 0
  vertex -4.662 1.806 1.5
  vertex -4.849 1.22 1.5
 endloop
endfacet
facet normal 0.983 -0.184 0
 outer loop
  vertex -4.849 1.22 0
  vertex -4.849 1.22 1.5
  vertex -4.962 0.614 0
 endloop
endfacet
facet normal 0.983 -0.184 0
 outer loop
  vertex -4.962 0.614 0
  vertex -4.849 1.22 1.5
  vertex -4.962 0.614 1.5
 endloop
endfacet
facet normal 0.998 -0.062 0
 outer loop
  vertex -4.962 0.614 0
  vertex -4.962 0.614 1.5
  vertex -5 0 0
 endloop
endfacet
facet normal 0.998 -0.062 -0
 outer loop
  vertex -5 0 0
  vertex -4.962 0.614 1.5
  vertex -5 -0 1.5
 endloop
endfacet
facet normal 0.998 0.062 0
 outer loop
  vertex -5 0 0
  vertex -5 -0 1.5
  vertex -4.962 -0.614 0
 endloop
endfacet
facet normal 0.998 0.062 -0
 outer loop
  vertex -4.962 -0.614 0
  vertex -5 -0 1.5
  vertex -4.962 -0.614 1.5
 endloop
endfacet
facet normal 0.983 0.184 -0
 outer loop
  vertex -4.962 -0.614 0
  vertex -4.962 -0.614 1.5
  vertex -4.849 -1.22 0
 endloop
endfacet
facet normal 0.983 0.184 -0
 outer loop
  vertex -4.849 -1.22 0
  vertex -4.962 -0.614 1.5
  vertex -4.849 -1.22 1.5
 endloop
endfacet
facet normal 0.953 0.303 -0
 outer loop
  vertex -4.849 -1.22 0
  vertex -4.849 -1.22 1.5
  vertex -4.662 -1.806 0
 endloop
endfacet
facet normal 0.953 0.303 -0
 outer loop
  vertex -4.662 -1.806 0
  vertex -4.849 -1.22 1.5
  vertex -4.662 -1.806 1.5
 endloop
endfacet
facet normal 0.908 0.418 -0
 outer loop
  vertex -4.662 -1.806 0
  vertex -4.662 -1.806 1.5
  vertex -4.405 -2.365 0
 endloop
endfacet
facet normal 0.908 0.418 -0
 outer loop
  vertex -4.405 -2.365 0
  vertex -4.662 -1.806 1.5
  vertex -4.405 -2.365 1.5
 endloop
endfacet
facet normal 0.85 0.526 -0
 outer loop
  vertex -4.405 -2.365 0
  vertex -4.405 -2.365 1.5
  vertex -4.081 -2.889 0
 endloop
endfacet
facet normal 0.85 0.526 -0
 outer loop
  vertex -4.081 -2.889 0
  vertex -4.405 -2.365 1.5
  vertex -4.081 -2.889 1.5
 endloop
endfacet
facet normal 0.779 0.627 -0
 outer loop
  vertex -4.081 -2.889 0
  vertex -4.081 -2.889 1.5
  vertex -3.695 -3.368 0
 endloop
endfacet
facet normal 0.779 0.627 -0
 outer loop
  vertex -3.695 -3.368 0
  vertex -4.081 -2.889 1.5
  vertex -3.695 -3.368 1.5
 endloop
endfacet
facet normal 0.696 0.718 -0
 outer loop
  vertex -3.695 -3.368 0
  vertex -3.695 -3.368 1.5
  vertex -3.253 -3.797 0
 endloop
endfacet
facet normal 0.696 0.718 -0
 outer loop
  vertex -3.253 -3.797 0
  vertex -3.695 -3.368 1.5
  vertex -3.253 -3.797 1.5
 endloop
endfacet
facet normal 0.603 0.798 -0
 outer loop
  vertex -3.253 -3.797 0
  vertex -3.253 -3.797 1.5
  vertex -2.762 -4.168 0
 endloop
endfacet
facet normal 0.603 0.798 -0
 outer loop
  vertex -2.762 -4.168 0
  vertex -3.253 -3.797 1.5
  vertex -2.762 -4.168 1.5
 endloop
endfacet
facet normal 0.5 0.866 -0
 outer loop
  vertex -2.762 -4.168 0
  vertex -2.762 -4.168 1.5
  vertex -2.229 -4.476 0
 endloop
endfacet
facet normal 0.5 0.866 -0
 outer loop
  vertex -2.229 -4.476 0
  vertex -2.762 -4.168 1.5
  vertex -2.229 -4.476 1.5
 endloop
endfacet
facet normal 0.39 0.921 -0
 outer loop
  vertex -2.229 -4.476 0
  vertex -2.229 -4.476 1.5
  vertex -1.662 -4.716 0
 endloop
endfacet
facet normal 0.39 0.921 -0
 outer loop
  vertex -1.662 -4.716 0
  vertex -2.229 -4.476 1.5
  vertex -1.662 -4.716 1.5
 endloop
endfacet
facet normal 0.274 0.962 -0
 outer loop
  vertex -1.662 -4.716 0
  vertex -1.662 -4.716 1.5
  vertex -1.07 -4.884 0
 endloop
endfacet
facet normal 0.274 0.962 -0
 outer loop
  vertex -1.07 -4.884 0
  vertex -1.662 -4.716 1.5
  vertex -1.07 -4.884 1.5
 endloop
endfacet
facet normal 0.153 0.988 -0
 outer loop
  vertex -1.07 -4.884 0
  vertex -1.07 -4.884 1.5
  vertex -0.461 -4.979 0
 endloop
endfacet
facet normal 0.153 0.988 -0
 outer loop
  vertex -0.461 -4.979 0
  vertex -1.07 -4.884 1.5
  vertex -0.461 -4.979 1.5
 endloop
endfacet
facet normal 0.031 1 -0
 outer loop
  vertex -0.461 -4.979 0
  vertex -0.461 -4.979 1.5
  vertex 0.154 -4.998 0
 endloop
endfacet
facet normal 0.031 1 -0
 outer loop
  vertex 0.154 -4.998 0
  vertex -0.461 -4.979 1.5
  vertex 0.154 -4.998 1.5
 endloop
endfacet
facet normal -0.092 0.996 0
 outer loop
  vertex 0.154 -4.998 0
  vertex 0.154 -4.998 1.5
  vertex 0.767 -4.941 0
 endloop
endfacet
facet normal -0.092 0.996 0
 outer loop
  vertex 0.767 -4.941 0
  vertex 0.154 -4.998 1.5
  vertex 0.767 -4.941 1.5
 endloop
endfacet
facet normal -0.214 0.977 0
 outer loop
  vertex 0.767 -4.941 0
  vertex 0.767 -4.941 1.5
  vertex 1.368 -4.809 0
 endloop
endfacet
facet normal -0.214 0.977 0
 outer loop
  vertex 1.368 -4.809 0
  vertex 0.767 -4.941 1.5
  vertex 1.368 -4.809 1.5
 endloop
endfacet
facet normal -0.332 0.943 0
 outer loop
  vertex 1.368 -4.809 0
  vertex 1.368 -4.809 1.5
  vertex 1.949 -4.605 0
 endloop
endfacet
facet normal -0.332 0.943 0
 outer loop
  vertex 1.949 -4.605 0
  vertex 1.368 -4.809 1.5
  vertex 1.949 -4.605 1.5
 endloop
endfacet
facet normal -0.446 0.895 0
 outer loop
  vertex 1.949 -4.605 0
  vertex 1.949 -4.605 1.5
  vertex 2.5 -4.33 0
 endloop
endfacet
facet normal -0.446 0.895 0
 outer loop
  vertex 2.5 -4.33 0
  vertex 1.949 -4.605 1.5
  vertex 2.5 -4.33 1.5
 endloop
endfacet
facet normal -0.552 0.834 0
 outer loop
  vertex 2.5 -4.33 0
  vertex 2.5 -4.33 1.5
  vertex 3.013 -3.99 0
 endloop
endfacet
facet normal -0.552 0.834 0
 outer loop
  vertex 3.013 -3.99 0
  vertex 2.5 -4.33 1.5
  vertex 3.013 -3.99 1.5
 endloop
endfacet
facet normal -0.651 0.759 0
 outer loop
  vertex 3.013 -3.99 0
  vertex 3.013 -3.99 1.5
  vertex 3.481 -3.59 0
 endloop
endfacet
facet normal -0.651 0.759 0
 outer loop
  vertex 3.481 -3.59 0
  vertex 3.013 -3.99 1.5
  vertex 3.481 -3.59 1.5
 endloop
endfacet
facet normal -0.739 0.674 0
 outer loop
  vertex 3.481 -3.59 0
  vertex 3.481 -3.59 1.5
  vertex 3.895 -3.135 0
 endloop
endfacet
facet normal -0.739 0.674 0
 outer loop
  vertex 3.895 -3.135 0
  vertex 3.481 -3.59 1.5
  vertex 3.895 -3.135 1.5
 endloop
endfacet
facet normal -0.816 0.578 0
 outer loop
  vertex 3.895 -3.135 0
  vertex 3.895 -3.135 1.5
  vertex 4.251 -2.632 0
 endloop
endfacet
facet normal -0.816 0.578 0
 outer loop
  vertex 4.251 -2.632 0
  vertex 3.895 -3.135 1.5
  vertex 4.251 -2.632 1.5
 endloop
endfacet
facet normal -0.881 0.473 0
 outer loop
  vertex 4.251 -2.632 0
  vertex 4.251 -2.632 1.5
  vertex 4.542 -2.09 0
 endloop
endfacet
facet normal -0.881 0.473 0
 outer loop
  vertex 4.542 -2.09 0
  vertex 4.251 -2.632 1.5
  vertex 4.542 -2.09 1.5
 endloop
endfacet
facet normal -0.932 0.361 0
 outer loop
  vertex 4.542 -2.09 0
  vertex 4.542 -2.09 1.5
  vertex 4.765 -1.516 0
 endloop
endfacet
facet normal -0.932 0.361 0
 outer loop
  vertex 4.765 -1.516 0
  vertex 4.542 -2.09 1.5
  vertex 4.765 -1.516 1.5
 endloop
endfacet
facet normal -0.97 0.244 0
 outer loop
  vertex 4.765 -1.516 0
  vertex 4.765 -1.516 1.5
  vertex 4.915 -0.919 0
 endloop
endfacet
facet normal -0.97 0.244 0
 outer loop
  vertex 4.915 -0.919 0
  vertex 4.765 -1.516 1.5
  vertex 4.915 -0.919 1.5
 endloop
endfacet
facet normal -0.992 0.123 0
 outer loop
  vertex 4.915 -0.919 0
  vertex 4.915 -0.919 1.5
  vertex 4.991 -0.308 0
 endloop
endfacet
facet normal -0.992 0.123 0
 outer loop
  vertex 4.991 -0.308 0
  vertex 4.915 -0.919 1.5
  vertex 4.991 -0.308 1.5
 endloop
endfacet
facet normal 1 0.031 -0
 outer loop
  vertex 9.981 0.616 0
  vertex 9.981 0.616 1.5
  vertex 10 0 0
 endloop
endfacet
facet normal 1 0.031 -0
 outer loop
  vertex 10 0 0
  vertex 9.981 0.616 1.5
  vertex 10 0 1.5
 endloop
endfacet
facet normal 1 -0.031 0
 outer loop
  vertex 10 0 0
  vertex 10 0 1.5
  vertex 9.981 -0.616 0
 endloop
endfacet
facet normal 1 -0.031 0
 outer loop
  vertex 9.981 -0.616 0
  vertex 10 0 1.5
  vertex 9.981 -0.616 1.5
 endloop
endfacet
facet normal 0.992 -0.123 0
 outer loop
  vertex 9.981 -0.616 0
  vertex 9.981 -0.616 1.5
  vertex 9.83 -1.837 0
 endloop
endfacet
facet normal 0.992 -0.123 0
 outer loop
  vertex 9.83 -1.837 0
  vertex 9.981 -0.616 1.5
  vertex 9.83 -1.837 1.5
 endloop
endfacet
facet normal 0.97 -0.244 0
 outer loop
  vertex 9.83 -1.837 0
  vertex 9.83 -1.837 1.5
  vertex 9.529 -3.032 0
 endloop
endfacet
facet normal 0.97 -0.244 0
 outer loop
  vertex 9.529 -3.032 0
  vertex 9.83 -1.837 1.5
  vertex 9.529 -3.032 1.5
 endloop
endfacet
facet normal 0.932 -0.361 0
 outer loop
  vertex 9.529 -3.032 0
  vertex 9.529 -3.032 1.5
  vertex 9.085 -4.18 0
 endloop
endfacet
facet normal 0.932 -0.361 0
 outer loop
  vertex 9.085 -4.18 0
  vertex 9.529 -3.032 1.5
  vertex 9.085 -4.18 1.5
 endloop
endfacet
facet normal 0.881 -0.473 0
 outer loop
  vertex 9.085 -4.18 0
  vertex 9.085 -4.18 1.5
  vertex 8.502 -5.264 0
 endloop
endfacet
facet normal 0.881 -0.473 0
 outer loop
  vertex 8.502 -5.264 0
  vertex 9.085 -4.18 1.5
  vertex 8.502 -5.264 1.5
 endloop
endfacet
facet normal 0.816 -0.578 0
 outer loop
  vertex 8.502 -5.264 0
  vertex 8.502 -5.264 1.5
  vertex 7.791 -6.269 0
 endloop
endfacet
facet normal 0.816 -0.578 0
 outer loop
  vertex 7.791 -6.269 0
  vertex 8.502 -5.264 1.5
  vertex 7.791 -6.269 1.5
 endloop
endfacet
facet normal 0.739 -0.674 0
 outer loop
  vertex 7.791 -6.269 0
  vertex 7.791 -6.269 1.5
  vertex 6.961 -7.179 0
 endloop
endfacet
facet normal 0.739 -0.674 0
 outer loop
  vertex 6.961 -7.179 0
  vertex 7.791 -6.269 1.5
  vertex 6.961 -7.179 1.5
 endloop
endfacet
facet normal 0.651 -0.759 0
 outer loop
  vertex 6.961 -7.179 0
  vertex 6.961 -7.179 1.5
  vertex 6.026 -7.98 0
 endloop
endfacet
facet normal 0.651 -0.759 0
 outer loop
  vertex 6.026 -7.98 0
  vertex 6.961 -7.179 1.5
  vertex 6.026 -7.98 1.5
 endloop
endfacet
facet normal 0.552 -0.834 0
 outer loop
  vertex 6.026 -7.98 0
  vertex 6.026 -7.98 1.5
  vertex 5 -8.66 0
 endloop
endfacet
facet normal 0.552 -0.834 0
 outer loop
  vertex 5 -8.66 0
  vertex 6.026 -7.98 1.5
  vertex 5 -8.66 1.5
 endloop
endfacet
facet normal 0.446 -0.895 0
 outer loop
  vertex 5 -8.66 0
  vertex 5 -8.66 1.5
  vertex 3.898 -9.209 0
 endloop
endfacet
facet normal 0.446 -0.895 0
 outer loop
  vertex 3.898 -9.209 0
  vertex 5 -8.66 1.5
  vertex 3.898 -9.209 1.5
 endloop
endfacet
facet normal 0.332 -0.943 0
 outer loop
  vertex 3.898 -9.209 0
  vertex 3.898 -9.209 1.5
  vertex 2.737 -9.618 0
 endloop
endfacet
facet normal 0.332 -0.943 0
 outer loop
  vertex 2.737 -9.618 0
  vertex 3.898 -9.209 1.5
  vertex 2.737 -9.618 1.5
 endloop
endfacet
facet normal 0.214 -0.977 0
 outer loop
  vertex 2.737 -9.618 0
  vertex 2.737 -9.618 1.5
  vertex 1.534 -9.882 0
 endloop
endfacet
facet normal 0.214 -0.977 0
 outer loop
  vertex 1.534 -9.882 0
  vertex 2.737 -9.618 1.5
  vertex 1.534 -9.882 1.5
 endloop
endfacet
facet normal 0.092 -0.996 0
 outer loop
  vertex 1.534 -9.882 0
  vertex 1.534 -9.882 1.5
  vertex 0.308 -9.995 0
 endloop
endfacet
facet normal 0.092 -0.996 0
 outer loop
  vertex 0.308 -9.995 0
  vertex 1.534 -9.882 1.5
  vertex 0.308 -9.995 1.5
 endloop
endfacet
facet normal -0.031 -1 0
 outer loop
  vertex 0.308 -9.995 0
  vertex 0.308 -9.995 1.5
  vertex -0.923 -9.957 0
 endloop
endfacet
facet normal -0.031 -1 0
 outer loop
  vertex -0.923 -9.957 0
  vertex 0.308 -9.995 1.5
  vertex -0.923 -9.957 1.5
 endloop
endfacet
facet normal -0.153 -0.988 0
 outer loop
  vertex -0.923 -9.957 0
  vertex -0.923 -9.957 1.5
  vertex -2.139 -9.768 0
 endloop
endfacet
facet normal -0.153 -0.988 0
 outer loop
  vertex -2.139 -9.768 0
  vertex -0.923 -9.957 1.5
  vertex -2.139 -9.768 1.5
 endloop
endfacet
facet normal -0.274 -0.962 0
 outer loop
  vertex -2.139 -9.768 0
  vertex -2.139 -9.768 1.5
  vertex -3.324 -9.432 0
 endloop
endfacet
facet normal -0.274 -0.962 0
 outer loop
  vertex -3.324 -9.432 0
  vertex -2.139 -9.768 1.5
  vertex -3.324 -9.432 1.5
 endloop
endfacet
facet normal -0.39 -0.921 0
 outer loop
  vertex -3.324 -9.432 0
  vertex -3.324 -9.432 1.5
  vertex -4.457 -8.952 0
 endloop
endfacet
facet normal -0.39 -0.921 0
 outer loop
  vertex -4.457 -8.952 0
  vertex -3.324 -9.432 1.5
  vertex -4.457 -8.952 1.5
 endloop
endfacet
facet normal -0.5 -0.866 0
 outer loop
  vertex -4.457 -8.952 0
  vertex -4.457 -8.952 1.5
  vertex -5.524 -8.336 0
 endloop
endfacet
facet normal -0.5 -0.866 0
 outer loop
  vertex -5.524 -8.336 0
  vertex -4.457 -8.952 1.5
  vertex -5.524 -8.336 1.5
 endloop
endfacet
facet normal -0.603 -0.798 0
 outer loop
  vertex -5.524 -8.336 0
  vertex -5.524 -8.336 1.5
  vertex -6.506 -7.594 0
 endloop
endfacet
facet normal -0.603 -0.798 0
 outer loop
  vertex -6.506 -7.594 0
  vertex -5.524 -8.336 1.5
  vertex -6.506 -7.594 1.5
 endloop
endfacet
facet normal -0.696 -0.718 0
 outer loop
  vertex -6.506 -7.594 0
  vertex -6.506 -7.594 1.5
  vertex -7.39 -6.737 0
 endloop
endfacet
facet normal -0.696 -0.718 0
 outer loop
  vertex -7.39 -6.737 0
  vertex -6.506 -7.594 1.5
  vertex -7.39 -6.737 1.5
 endloop
endfacet
facet normal -0.779 -0.627 0
 outer loop
  vertex -7.39 -6.737 0
  vertex -7.39 -6.737 1.5
  vertex -8.162 -5.778 0
 endloop
endfacet
facet normal -0.779 -0.627 0
 outer loop
  vertex -8.162 -5.778 0
  vertex -7.39 -6.737 1.5
  vertex -8.162 -5.778 1.5
 endloop
endfacet
facet normal -0.85 -0.526 0
 outer loop
  vertex -8.162 -5.778 0
  vertex -8.162 -5.778 1.5
  vertex -8.81 -4.731 0
 endloop
endfacet
facet normal -0.85 -0.526 0
 outer loop
  vertex -8.81 -4.731 0
  vertex -8.162 -5.778 1.5
  vertex -8.81 -4.731 1.5
 endloop
endfacet
facet normal -0.908 -0.418 0
 outer loop
  vertex -8.81 -4.731 0
  vertex -8.81 -4.731 1.5
  vertex -9.325 -3.612 0
 endloop
endfacet
facet normal -0.908 -0.418 0
 outer loop
  vertex -9.325 -3.612 0
  vertex -8.81 -4.731 1.5
  vertex -9.325 -3.612 1.5
 endloop
endfacet
facet normal -0.953 -0.303 0
 outer loop
  vertex -9.325 -3.612 0
  vertex -9.325 -3.612 1.5
  vertex -9.698 -2.439 0
 endloop
endfacet
facet normal -0.953 -0.303 0
 outer loop
  vertex -9.698 -2.439 0
  vertex -9.325 -3.612 1.5
  vertex -9.698 -2.439 1.5
 endloop
endfacet
facet normal -0.983 -0.184 0
 outer loop
  vertex -9.698 -2.439 0
  vertex -9.698 -2.439 1.5
  vertex -9.924 -1.229 0
 endloop
endfacet
facet normal -0.983 -0.184 0
 outer loop
  vertex -9.924 -1.229 0
  vertex -9.698 -2.439 1.5
  vertex -9.924 -1.229 1.5
 endloop
endfacet
facet normal -0.998 -0.062 0
 outer loop
  vertex -9.924 -1.229 0
  vertex -9.924 -1.229 1.5
  vertex -10 -0 0
 endloop
endfacet
facet normal -0.998 -0.062 0
 outer loop
  vertex -10 -0 0
  vertex -9.924 -1.229 1.5
  vertex -10 0 1.5
 endloop
endfacet
facet normal -0.998 0.062 -0
 outer loop
  vertex -10 -0 0
  vertex -10 0 1.5
  vertex -9.924 1.229 0
 endloop
endfacet
facet normal -0.998 0.062 0
 outer loop
  vertex -9.924 1.229 0
  vertex -10 0 1.5
  vertex -9.924 1.229 1.5
 endloop
endfacet
facet normal -0.983 0.184 0
 outer loop
  vertex -9.924 1.229 0
  vertex -9.924 1.229 1.5
  vertex -9.698 2.439 0
 endloop
endfacet
facet normal -0.983 0.184 0
 outer loop
  vertex -9.698 2.439 0
  vertex -9.924 1.229 1.5
  vertex -9.698 2.439 1.5
 endloop
endfacet
facet normal -0.953 0.303 0
 outer loop
  vertex -9.698 2.439 0
  vertex -9.698 2.439 1.5
  vertex -9.325 3.612 0
 endloop
endfacet
facet normal -0.953 0.303 0
 outer loop
  vertex -9.325 3.612 0
  vertex -9.698 2.439 1.5
  vertex -9.325 3.612 1.5
 endloop
endfacet
facet normal -0.908 0.418 0
 outer loop
  vertex -9.325 3.612 0
  vertex -9.325 3.612 1.5
  vertex -8.81 4.731 0
 endloop
endfacet
facet normal -0.908 0.418 0
 outer loop
  vertex -8.81 4.731 0
  vertex -9.325 3.612 1.5
  vertex -8.81 4.731 1.5
 endloop
endfacet
facet normal -0.85 0.526 0
 outer loop
  vertex -8.81 4.731 0
  vertex -8.81 4.731 1.5
  vertex -8.162 5.778 0
 endloop
endfacet
facet normal -0.85 0.526 0
 outer loop
  vertex -8.162 5.778 0
  vertex -8.81 4.731 1.5
  vertex -8.162 5.778 1.5
 endloop
endfacet
facet normal -0.779 0.627 0
 outer loop
  vertex -8.162 5.778 0
  vertex -8.162 5.778 1.5
  vertex -7.39 6.737 0
 endloop
endfacet
facet normal -0.779 0.627 0
 outer loop
  vertex -7.39 6.737 0
  vertex -8.162 5.778 1.5
  vertex -7.39 6.737 1.5
 endloop
endfacet
facet normal -0.696 0.718 0
 outer loop
  vertex -7.39 6.737 0
  vertex -7.39 6.737 1.5
  vertex -6.506 7.594 0
 endloop
endfacet
facet normal -0.696 0.718 0
 outer loop
  vertex -6.506 7.594 0
  vertex -7.39 6.737 1.5
  vertex -6.506 7.594 1.5
 endloop
endfacet
facet normal -0.603 0.798 0
 outer loop
  vertex -6.506 7.594 0
  vertex -6.506 7.594 1.5
  vertex -5.524 8.336 0
 endloop
endfacet
facet normal -0.603 0.798 0
 outer loop
  vertex -5.524 8.336 0
  vertex -6.506 7.594 1.5
  vertex -5.524 8.336 1.5
 endloop
endfacet
facet normal -0.5 0.866 0
 outer loop
  vertex -5.524 8.336 0
  vertex -5.524 8.336 1.5
  vertex -4.457 8.952 0
 endloop
endfacet
facet normal -0.5 0.866 0
 outer loop
  vertex -4.457 8.952 0
  vertex -5.524 8.336 1.5
  vertex -4.457 8.952 1.5
 endloop
endfacet
facet normal -0.39 0.921 0
 outer loop
  vertex -4.457 8.952 0
  vertex -4.457 8.952 1.5
  vertex -3.324 9.432 0
 endloop
endfacet
facet normal -0.39 0.921 0
 outer loop
  vertex -3.324 9.432 0
  vertex -4.457 8.952 1.5
  vertex -3.324 9.432 1.5
 endloop
endfacet
facet normal -0.274 0.962 0
 outer loop
  vertex -3.324 9.432 0
  vertex -3.324 9.432 1.5
  vertex -2.139 9.768 0
 endloop
endfacet
facet normal -0.274 0.962 0
 outer loop
  vertex -2.139 9.768 0
  vertex -3.324 9.432 1.5
  vertex -2.139 9.768 1.5
 endloop
endfacet
facet normal -0.153 0.988 0
 outer loop
  vertex -2.139 9.768 0
  vertex -2.139 9.768 1.5
  vertex -0.923 9.957 0
 endloop
endfacet
facet normal -0.153 0.988 0
 outer loop
  vertex -0.923 9.957 0
  vertex -2.139 9.768 1.5
  vertex -0.923 9.957 1.5
 endloop
endfacet
facet normal -0.031 1 0
 outer loop
  vertex -0.923 9.957 0
  vertex -0.923 9.957 1.5
  vertex 0.308 9.995 0
 endloop
endfacet
facet normal -0.031 1 0
 outer loop
  vertex 0.308 9.995 0
  vertex -0.923 9.957 1.5
  vertex 0.308 9.995 1.5
 endloop
endfacet
facet normal 0.092 0.996 -0
 outer loop
  vertex 0.308 9.995 0
  vertex 0.308 9.995 1.5
  vertex 1.534 9.882 0
 endloop
endfacet
facet normal 0.092 0.996 -0
 outer loop
  vertex 1.534 9.882 0
  vertex 0.308 9.995 1.5
  vertex 1.534 9.882 1.5
 endloop
endfacet
facet normal 0.214 0.977 -0
 outer loop
  vertex 1.534 9.882 0
  vertex 1.534 9.882 1.5
  vertex 2.737 9.618 0
 endloop
endfacet
facet normal 0.214 0.977 -0
 outer loop
  vertex 2.737 9.618 0
  vertex 1.534 9.882 1.5
  vertex 2.737 9.618 1.5
 endloop
endfacet
facet normal 0.332 0.943 -0
 outer loop
  vertex 2.737 9.618 0
  vertex 2.737 9.618 1.5
  vertex 3.898 9.209 0
 endloop
endfacet
facet normal 0.332 0.943 -0
 outer loop
  vertex 3.898 9.209 0
  vertex 2.737 9.618 1.5
  vertex 3.898 9.209 1.5
 endloop
endfacet
facet normal 0.446 0.895 -0
 outer loop
  vertex 3.898 9.209 0
  vertex 3.898 9.209 1.5
  vertex 5 8.66 0
 endloop
endfacet
facet normal 0.446 0.895 -0
 outer loop
  vertex 5 8.66 0
  vertex 3.898 9.209 1.5
  vertex 5 8.66 1.5
 endloop
endfacet
facet normal 0.552 0.834 -0
 outer loop
  vertex 5 8.66 0
  vertex 5 8.66 1.5
  vertex 6.026 7.98 0
 endloop
endfacet
facet normal 0.552 0.834 -0
 outer loop
  vertex 6.026 7.98 0
  vertex 5 8.66 1.5
  vertex 6.026 7.98 1.5
 endloop
endfacet
facet normal 0.651 0.759 -0
 outer loop
  vertex 6.026 7.98 0
  vertex 6.026 7.98 1.5
  vertex 6.961 7.179 0
 endloop
endfacet
facet normal 0.651 0.759 -0
 outer loop
  vertex 6.961 7.179 0
  vertex 6.026 7.98 1.5
  vertex 6.961 7.179 1.5
 endloop
endfacet
facet normal 0.739 0.674 -0
 outer loop
  vertex 6.961 7.179 0
  vertex 6.961 7.179 1.5
  vertex 7.791 6.269 0
 endloop
endfacet
facet normal 0.739 0.674 -0
 outer loop
  vertex 7.791 6.269 0
  vertex 6.961 7.179 1.5
  vertex 7.791 6.269 1.5
 endloop
endfacet
facet normal 0.816 0.578 -0
 outer loop
  vertex 7.791 6.269 0
  vertex 7.791 6.269 1.5
  vertex 8.502 5.264 0
 endloop
endfacet
facet normal 0.816 0.578 -0
 outer loop
  vertex 8.502 5.264 0
  vertex 7.791 6.269 1.5
  vertex 8.502 5.264 1.5
 endloop
endfacet
facet normal 0.881 0.473 -0
 outer loop
  vertex 8.502 5.264 0
  vertex 8.502 5.264 1.5
  vertex 9.085 4.18 0
 endloop
endfacet
facet normal 0.881 0.473 -0
 outer loop
  vertex 9.085 4.18 0
  vertex 8.502 5.264 1.5
  vertex 9.085 4.18 1.5
 endloop
endfacet
facet normal 0.932 0.361 -0
 outer loop
  vertex 9.085 4.18 0
  vertex 9.085 4.18 1.5
  vertex 9.529 3.032 0
 endloop
endfacet
facet normal 0.932 0.361 -0
 outer loop
  vertex 9.529 3.032 0
  vertex 9.085 4.18 1.5
  vertex 9.529 3.032 1.5
 endloop
endfacet
facet normal 0.97 0.244 -0
 outer loop
  vertex 9.529 3.032 0
  vertex 9.529 3.032 1.5
  vertex 9.83 1.837 0
 endloop
endfacet
facet normal 0.97 0.244 -0
 outer loop
  vertex 9.83 1.837 0
  vertex 9.529 3.032 1.5
  vertex 9.83 1.837 1.5
 endloop
endfacet
facet normal 0.992 0.123 -0
 outer loop
  vertex 9.83 1.837 0
  vertex 9.83 1.837 1.5
  vertex 9.981 0.616 0
 endloop
endfacet
facet normal 0.992 0.123 -0
 outer loop
  vertex 9.981 0.616 0
  vertex 9.83 1.837 1.5
  vertex 9.981 0.616 1.5
 endloop
endfacet
facet normal 0 0 -1
 outer loop
  vertex 4.991 -0.308 0
  vertex 5 0 0
  vertex 10 0 0
 endloop
endfacet
facet normal 0 0 -1
 outer loop
  vertex 10 0 0
  vertex 5 0 0
  vertex 4.991 0.308 0
 endloop
endfacet
facet normal 0 0 -1
 outer loop
  vertex 10 0 0
  vertex 4.991 0.308 0
  vertex 9.981 0.616 0
 endloop
endfacet
facet normal -0 0 -1
 outer loop
  vertex 9.981 0.616 0
  vertex 4.991 0.308 0
  vertex 4.915 0.919 0
 endloop
endfacet
facet normal 0 0 -1
 outer loop
  vertex 9.981 0.616 0
  vertex 4.915 0.919 0
  vertex 9.83 1.837 0
 endloop
endfacet
facet normal 0 0 -1
 outer loop
  vertex 9.83 1.837 0
  vertex 4.915 0.919 0
  vertex 4.765 1.516 0
 endloop
endfacet
facet normal -0 0 -1
 outer loop
  vertex 9.83 1.837 0
  vertex 4.765 1.516 0
  vertex 9.529 3.032 0
 endloop
endfacet
facet normal 0 0 -1
 outer loop
  vertex 9.529 3.032 0
  vertex 4.765 1.516 0
  vertex 4.542 2.09 0
 endloop
endfacet
facet normal -0 0 -1
 outer loop
  vertex 9.529 3.032 0
  vertex 4.542 2.09 0
  vertex 9.085 4.18 0
 endloop
endfacet
facet normal 0 0 -1
 outer loop
  vertex 9.085 4.18 0
  vertex 4.542 2.09 0
  vertex 4.251 2.632 0
 endloop
endfacet
facet normal -0 0 -1
 outer loop
  vertex 9.085 4.18 0
  vertex 4.251 2.632 0
  vertex 8.502 5.264 0
 endloop
endfacet
facet normal 0 0 -1
 outer loop
  vertex 8.502 5.264 0
  vertex 4.251 2.632 0
  vertex 3.895 3.135 0
 endloop
endfacet
facet normal -0 0 -1
 outer loop
  vertex 8.502 5.264 0
  vertex 3.895 3.135 0
  vertex 7.791 6.269 0
 endloop
endfacet
facet normal 0 0 -1
 outer loop
  vertex 7.791 6.269 0
  vertex 3.895 3.135 0
  vertex 3.481 3.59 0
 endloop
endfacet
facet normal -0 0 -1
 outer loop
  vertex 7.791 6.269 0
  vertex 3.481 3.59 0
  vertex 6.961 7.179 0
 endloop
endfacet
facet normal 0 0 -1
 outer loop
  vertex 6.961 7.179 0
  vertex 3.481 3.59 0
  vertex 3.013 3.99 0
 endloop
endfacet
facet normal -0 0 -1
 outer loop
  vertex 6.961 7.179 0
  vertex 3.013 3.99 0
  vertex 6.026 7.98 0
 endloop
endfacet
facet normal 0 0 -1
 outer loop
  vertex 6.026 7.98 0
  vertex 3.013 3.99 0
  vertex 2.5 4.33 0
 endloop
endfacet
facet normal -0 0 -1
 outer loop
  vertex 6.026 7.98 0
  vertex 2.5 4.33 0
  vertex 5 8.66 0
 endloop
endfacet
facet normal 0 0 -1
 outer loop
  vertex 5 8.66 0
  vertex 2.5 4.33 0
  vertex 1.949 4.605 0
 endloop
endfacet
facet normal -0 0 -1
 outer loop
  vertex 5 8.66 0
  vertex 1.949 4.605 0
  vertex 3.898 9.209 0
 endloop
endfacet
facet normal 0 0 -1
 outer loop
  vertex 3.898 9.209 0
  vertex 1.949 4.605 0
  vertex 1.368 4.809 0
 endloop
endfacet
facet normal -0 0 -1
 outer loop
  vertex 3.898 9.209 0
  vertex 1.368 4.809 0
  vertex 2.737 9.618 0
 endloop
endfacet
facet normal 0 0 -1
 outer loop
  vertex 2.737 9.618 0
  vertex 1.368 4.809 0
  vertex 0.767 4.941 0
 endloop
endfacet
facet normal -0 0 -1
 outer loop
  vertex 2.737 9.618 0
  vertex 0.767 4.941 0
  vertex 1.534 9.882 0
 endloop
endfacet
facet normal 0 0 -1
 outer loop
  vertex 1.534 9.882 0
  vertex 0.767 4.941 0
  vertex 0.154 4.998 0
 endloop
endfacet
facet normal -0 0 -1
 outer loop
  vertex 1.534 9.882 0
  vertex 0.154 4.998 0
  vertex 0.308 9.995 0
 endloop
endfacet
facet normal 0 0 -1
 outer loop
  vertex 0.308 9.995 0
  vertex 0.154 4.998 0
  vertex -0.923 9.957 0
 endloop
endfacet
facet normal -0 0 -1
 outer loop
  vertex 0.154 4.998 0
  vertex -0.461 4.979 0
  vertex -0.923 9.957 0
 endloop
endfacet
facet normal 0 -0 -1
 outer loop
  vertex -0.923 9.957 0
  vertex -0.461 4.979 0
  vertex -2.139 9.768 0
 endloop
endfacet
facet normal -0 0 -1
 outer loop
  vertex -0.461 4.979 0
  vertex -1.07 4.884 0
  vertex -2.139 9.768 0
 endloop
endfacet
facet normal 0 -0 -1
 outer loop
  vertex -2.139 9.768 0
  vertex -1.07 4.884 0
  vertex -3.324 9.432 0
 endloop
endfacet
facet normal -0 0 -1
 outer loop
  vertex -1.07 4.884 0
  vertex -1.662 4.716 0
  vertex -3.324 9.432 0
 endloop
endfacet
facet normal 0 -0 -1
 outer loop
  vertex -3.324 9.432 0
  vertex -1.662 4.716 0
  vertex -4.457 8.952 0
 endloop
endfacet
facet normal -0 0 -1
 outer loop
  vertex -1.662 4.716 0
  vertex -2.229 4.476 0
  vertex -4.457 8.952 0
 endloop
endfacet
facet normal 0 -0 -1
 outer loop
  vertex -4.457 8.952 0
  vertex -2.229 4.476 0
  vertex -5.524 8.336 0
 endloop
endfacet
facet normal -0 0 -1
 outer loop
  vertex -2.229 4.476 0
  vertex -2.762 4.168 0
  vertex -5.524 8.336 0
 endloop
endfacet
facet normal 0 -0 -1
 outer loop
  vertex -5.524 8.336 0
  vertex -2.762 4.168 0
  vertex -6.506 7.594 0
 endloop
endfacet
facet normal -0 0 -1
 outer loop
  vertex -2.762 4.168 0
  vertex -3.253 3.797 0
  vertex -6.506 7.594 0
 endloop
endfacet
facet normal 0 -0 -1
 outer loop
  vertex -6.506 7.594 0
  vertex -3.253 3.797 0
  vertex -7.39 6.737 0
 endloop
endfacet
facet normal -0 0 -1
 outer loop
  vertex -3.253 3.797 0
  vertex -3.695 3.368 0
  vertex -7.39 6.737 0
 endloop
endfacet
facet normal 0 -0 -1
 outer loop
  vertex -7.39 6.737 0
  vertex -3.695 3.368 0
  vertex -8.162 5.778 0
 endloop
endfacet
facet normal -0 0 -1
 outer loop
  vertex -3.695 3.368 0
  vertex -4.081 2.889 0
  vertex -8.162 5.778 0
 endloop
endfacet
facet normal 0 -0 -1
 outer loop
  vertex -8.162 5.778 0
  vertex -4.081 2.889 0
  vertex -8.81 4.731 0
 endloop
endfacet
facet normal -0 0 -1
 outer loop
  vertex -4.081 2.889 0
  vertex -4.405 2.365 0
  vertex -8.81 4.731 0
 endloop
endfacet
facet normal 0 -0 -1
 outer loop
  vertex -8.81 4.731 0
  vertex -4.405 2.365 0
  vertex -9.325 3.612 0
 endloop
endfacet
facet normal -0 0 -1
 outer loop
  vertex -4.405 2.365 0
  vertex -4.662 1.806 0
  vertex -9.325 3.612 0
 endloop
endfacet
facet normal 0 -0 -1
 outer loop
  vertex -9.325 3.612 0
  vertex -4.662 1.806 0
  vertex -9.698 2.439 0
 endloop
endfacet
facet normal -0 0 -1
 outer loop
  vertex -4.662 1.806 0
  vertex -4.849 1.22 0
  vertex -9.698 2.439 0
 endloop
endfacet
facet normal 0 -0 -1
 outer loop
  vertex -9.698 2.439 0
  vertex -4.849 1.22 0
  vertex -9.924 1.229 0
 endloop
endfacet
facet normal -0 0 -1
 outer loop
  vertex -4.849 1.22 0
  vertex -4.962 0.614 0
  vertex -9.924 1.229 0
 endloop
endfacet
facet normal 0 -0 -1
 outer loop
  vertex -9.924 1.229 0
  vertex -4.962 0.614 0
  vertex -10 -0 0
 endloop
endfacet
facet normal 0 0 -1
 outer loop
  vertex -4.962 0.614 0
  vertex -5 0 0
  vertex -10 -0 0
 endloop
endfacet
facet normal 0 0 -1
 outer loop
  vertex -10 -0 0
  vertex -5 0 0
  vertex -9.924 -1.229 0
 endloop
endfacet
facet normal 0 -0 -1
 outer loop
  vertex -5 0 0
  vertex -4.962 -0.614 0
  vertex -9.924 -1.229 0
 endloop
endfacet
facet normal 0 0 -1
 outer loop
  vertex -9.924 -1.229 0
  vertex -4.962 -0.614 0
  vertex -4.849 -1.22 0
 endloop
endfacet
facet normal 0 0 -1
 outer loop
  vertex -9.924 -1.229 0
  vertex -4.849 -1.22 0
  vertex -9.698 -2.439 0
 endloop
endfacet
facet normal 0 0 -1
 outer loop
  vertex -9.698 -2.439 0
  vertex -4.849 -1.22 0
  vertex -4.662 -1.806 0
 endloop
endfacet
facet normal 0 0 -1
 outer loop
  vertex -9.698 -2.439 0
  vertex -4.662 -1.806 0
  vertex -9.325 -3.612 0
 endloop
endfacet
facet normal 0 0 -1
 outer loop
  vertex -9.325 -3.612 0
  vertex -4.662 -1.806 0
  vertex -4.405 -2.365 0
 endloop
endfacet
facet normal 0 0 -1
 outer loop
  vertex -9.325 -3.612 0
  vertex -4.405 -2.365 0
  vertex -8.81 -4.731 0
 endloop
endfacet
facet normal 0 0 -1
 outer loop
  vertex -8.81 -4.731 0
  vertex -4.405 -2.365 0
  vertex -4.081 -2.889 0
 endloop
endfacet
facet normal 0 0 -1
 outer loop
  vertex -8.81 -4.731 0
  vertex -4.081 -2.889 0
  vertex -8.162 -5.778 0
 endloop
endfacet
facet normal 0 0 -1
 outer loop
  vertex -8.162 -5.778 0
  vertex -4.081 -2.889 0
  vertex -3.695 -3.368 0
 endloop
endfacet
facet normal 0 0 -1
 outer loop
  vertex -8.162 -5.778 0
  vertex -3.695 -3.368 0
  vertex -7.39 -6.737 0
 endloop
endfacet
facet normal 0 0 -1
 outer loop
  vertex -7.39 -6.737 0
  vertex -3.695 -3.368 0
  vertex -3.253 -3.797 0
 endloop
endfacet
facet normal 0 0 -1
 outer loop
  vertex -7.39 -6.737 0
  vertex -3.253 -3.797 0
  vertex -6.506 -7.594 0
 endloop
endfacet
facet normal 0 0 -1
 outer loop
  vertex -6.506 -7.594 0
  vertex -3.253 -3.797 0
  vertex -2.762 -4.168 0
 endloop
endfacet
facet normal 0 0 -1
 outer loop
  vertex -6.506 -7.594 0
  vertex -2.762 -4.168 0
  vertex -5.524 -8.336 0
 endloop
endfacet
facet normal 0 0 -1
 outer loop
  vertex -5.524 -8.336 0
  vertex -2.762 -4.168 0
  vertex -2.229 -4.476 0
 endloop
endfacet
facet normal 0 0 -1
 outer loop
  vertex -5.524 -8.336 0
  vertex -2.229 -4.476 0
  vertex -4.457 -8.952 0
 endloop
endfacet
facet normal 0 0 -1
 outer loop
  vertex -4.457 -8.952 0
  vertex -2.229 -4.476 0
  vertex -1.662 -4.716 0
 endloop
endfacet
facet normal 0 0 -1
 outer loop
  vertex -4.457 -8.952 0
  vertex -1.662 -4.716 0
  vertex -3.324 -9.432 0
 endloop
endfacet
facet normal 0 0 -1
 outer loop
  vertex -3.324 -9.432 0
  vertex -1.662 -4.716 0
  vertex -1.07 -4.884 0
 endloop
endfacet
facet normal 0 0 -1
 outer loop
  vertex -3.324 -9.432 0
  vertex -1.07 -4.884 0
  vertex -2.139 -9.768 0
 endloop
endfacet
facet normal 0 0 -1
 outer loop
  vertex -2.139 -9.768 0
  vertex -1.07 -4.884 0
  vertex -0.461 -4.979 0
 endloop
endfacet
facet normal 0 0 -1
 outer loop
  vertex -2.139 -9.768 0
  vertex -0.461 -4.979 0
  vertex -0.923 -9.957 0
 endloop
endfacet
facet normal 0 0 -1
 outer loop
  vertex -0.923 -9.957 0
  vertex -0.461 -4.979 0
  vertex 0.154 -4.998 0
 endloop
endfacet
facet normal 0 0 -1
 outer loop
  vertex -0.923 -9.957 0
  vertex 0.154 -4.998 0
  vertex 0.308 -9.995 0
 endloop
endfacet
facet normal 0 0 -1
 outer loop
  vertex 0.308 -9.995 0
  vertex 0.154 -4.998 0
  vertex 1.534 -9.882 0
 endloop
endfacet
facet normal 0 0 -1
 outer loop
  vertex 0.154 -4.998 0
  vertex 0.767 -4.941 0
  vertex 1.534 -9.882 0
 endloop
endfacet
facet normal 0 0 -1
 outer loop
  vertex 1.534 -9.882 0
  vertex 0.767 -4.941 0
  vertex 2.737 -9.618 0
 endloop
endfacet
facet normal 0 0 -1
 outer loop
  vertex 0.767 -4.941 0
  vertex 1.368 -4.809 0
  vertex 2.737 -9.618 0
 endloop
endfacet
facet normal 0 0 -1
 outer loop
  vertex 2.737 -9.618 0
  vertex 1.368 -4.809 0
  vertex 3.898 -9.209 0
 endloop
endfacet
facet normal 0 0 -1
 outer loop
  vertex 1.368 -4.809 0
  vertex 1.949 -4.605 0
  vertex 3.898 -9.209 0
 endloop
endfacet
facet normal 0 0 -1
 outer loop
  vertex 3.898 -9.209 0
  vertex 1.949 -4.605 0
  vertex 5 -8.66 0
 endloop
endfacet
facet normal 0 0 -1
 outer loop
  vertex 1.949 -4.605 0
  vertex 2.5 -4.33 0
  vertex 5 -8.66 0
 endloop
endfacet
facet normal 0 0 -1
 outer loop
  vertex 5 -8.66 0
  vertex 2.5 -4.33 0
  vertex 6.026 -7.98 0
 endloop
endfacet
facet normal 0 0 -1
 outer loop
  vertex 2.5 -4.33 0
  vertex 3.013 -3.99 0
  vertex 6.026 -7.98 0
 endloop
endfacet
facet normal 0 0 -1
 outer loop
  vertex 6.026 -7.98 0
  vertex 3.013 -3.99 0
  vertex 6.961 -7.179 0
 endloop
endfacet
facet normal 0 0 -1
 outer loop
  vertex 3.013 -3.99 0
  vertex 3.481 -3.59 0
  vertex 6.961 -7.179 0
 endloop
endfacet
facet normal 0 0 -1
 outer loop
  vertex 6.961 -7.179 0
  vertex 3.481 -3.59 0
  vertex 7.791 -6.269 0
 endloop
endfacet
facet normal 0 0 -1
 outer loop
  vertex 3.481 -3.59 0
  vertex 3.895 -3.135 0
  vertex 7.791 -6.269 0
 endloop
endfacet
facet normal 0 0 -1
 outer loop
  vertex 7.791 -6.269 0
  vertex 3.895 -3.135 0
  vertex 8.502 -5.264 0
 endloop
endfacet
facet normal 0 0 -1
 outer loop
  vertex 3.895 -3.135 0
  vertex 4.251 -2.632 0
  vertex 8.502 -5.264 0
 endloop
endfacet
facet normal 0 0 -1
 outer loop
  vertex 8.502 -5.264 0
  vertex 4.251 -2.632 0
  vertex 9.085 -4.18 0
 endloop
endfacet
facet normal 0 0 -1
 outer loop
  vertex 4.251 -2.632 0
  vertex 4.542 -2.09 0
  vertex 9.085 -4.18 0
 endloop
endfacet
facet normal 0 0 -1
 outer loop
  vertex 9.085 -4.18 0
  vertex 4.542 -2.09 0
  vertex 9.529 -3.032 0
 endloop
endfacet
facet normal 0 0 -1
 outer loop
  vertex 4.542 -2.09 0
  vertex 4.765 -1.516 0
  vertex 9.529 -3.032 0
 endloop
endfacet
facet normal 0 0 -1
 outer loop
  vertex 9.529 -3.032 0
  vertex 4.765 -1.516 0
  vertex 9.83 -1.837 0
 endloop
endfacet
facet normal 0 0 -1
 outer loop
  vertex 4.765 -1.516 0
  vertex 4.915 -0.919 0
  vertex 9.83 -1.837 0
 endloop
endfacet
facet normal 0 0 -1
 outer loop
  vertex 9.83 -1.837 0
  vertex 4.915 -0.919 0
  vertex 9.981 -0.616 0
 endloop
endfacet
facet normal 0 0 -1
 outer loop
  vertex 4.915 -0.919 0
  vertex 4.991 -0.308 0
  vertex 9.981 -0.616 0
 endloop
endfacet
facet normal 0 0 -1
 outer loop
  vertex 9.981 -0.616 0
  vertex 4.991 -0.308 0
  vertex 10 0 0
 endloop
endfacet
facet normal -0 0 1
 outer loop
  vertex 4.991 -0.308 1.5
  vertex 9.981 -0.616 1.5
  vertex 5 0 1.5
 endloop
endfacet
facet normal -0 0 1
 outer loop
  vertex 5 0 1.5
  vertex 9.981 -0.616 1.5
  vertex 10 0 1.5
 endloop
endfacet
facet normal 0 -0 1
 outer loop
  vertex 5 0 1.5
  vertex 10 0 1.5
  vertex 4.991 0.308 1.5
 endloop
endfacet
facet normal -0 0 1
 outer loop
  vertex 4.991 0.308 1.5
  vertex 10 0 1.5
  vertex 9.981 0.616 1.5
 endloop
endfacet
facet normal 0 -0 1
 outer loop
  vertex 4.991 0.308 1.5
  vertex 9.981 0.616 1.5
  vertex 4.915 0.919 1.5
 endloop
endfacet
facet normal -0 0 1
 outer loop
  vertex 4.915 0.919 1.5
  vertex 9.981 0.616 1.5
  vertex 9.83 1.837 1.5
 endloop
endfacet
facet normal 0 -0 1
 outer loop
  vertex 4.915 0.919 1.5
  vertex 9.83 1.837 1.5
  vertex 4.765 1.516 1.5
 endloop
endfacet
facet normal 0 0 1
 outer loop
  vertex 4.765 1.516 1.5
  vertex 9.83 1.837 1.5
  vertex 9.529 3.032 1.5
 endloop
endfacet
facet normal 0 -0 1
 outer loop
  vertex 4.765 1.516 1.5
  vertex 9.529 3.032 1.5
  vertex 4.542 2.09 1.5
 endloop
endfacet
facet normal 0 0 1
 outer loop
  vertex 4.542 2.09 1.5
  vertex 9.529 3.032 1.5
  vertex 9.085 4.18 1.5
 endloop
endfacet
facet normal 0 -0 1
 outer loop
  vertex 4.542 2.09 1.5
  vertex 9.085 4.18 1.5
  vertex 4.251 2.632 1.5
 endloop
endfacet
facet normal 0 0 1
 outer loop
  vertex 4.251 2.632 1.5
  vertex 9.085 4.18 1.5
  vertex 8.502 5.264 1.5
 endloop
endfacet
facet normal 0 -0 1
 outer loop
  vertex 4.251 2.632 1.5
  vertex 8.502 5.264 1.5
  vertex 3.895 3.135 1.5
 endloop
endfacet
facet normal 0 0 1
 outer loop
  vertex 3.895 3.135 1.5
  vertex 8.502 5.264 1.5
  vertex 7.791 6.269 1.5
 endloop
endfacet
facet normal 0 -0 1
 outer loop
  vertex 3.895 3.135 1.5
  vertex 7.791 6.269 1.5
  vertex 3.481 3.59 1.5
 endloop
endfacet
facet normal 0 0 1
 outer loop
  vertex 3.481 3.59 1.5
  vertex 7.791 6.269 1.5
  vertex 6.961 7.179 1.5
 endloop
endfacet
facet normal 0 -0 1
 outer loop
  vertex 3.481 3.59 1.5
  vertex 6.961 7.179 1.5
  vertex 3.013 3.99 1.5
 endloop
endfacet
facet normal 0 0 1
 outer loop
  vertex 3.013 3.99 1.5
  vertex 6.961 7.179 1.5
  vertex 6.026 7.98 1.5
 endloop
endfacet
facet normal 0 -0 1
 outer loop
  vertex 3.013 3.99 1.5
  vertex 6.026 7.98 1.5
  vertex 2.5 4.33 1.5
 endloop
endfacet
facet normal 0 0 1
 outer loop
  vertex 2.5 4.33 1.5
  vertex 6.026 7.98 1.5
  vertex 5 8.66 1.5
 endloop
endfacet
facet normal 0 -0 1
 outer loop
  vertex 2.5 4.33 1.5
  vertex 5 8.66 1.5
  vertex 1.949 4.605 1.5
 endloop
endfacet
facet normal 0 0 1
 outer loop
  vertex 1.949 4.605 1.5
  vertex 5 8.66 1.5
  vertex 3.898 9.209 1.5
 endloop
endfacet
facet normal 0 -0 1
 outer loop
  vertex 1.949 4.605 1.5
  vertex 3.898 9.209 1.5
  vertex 1.368 4.809 1.5
 endloop
endfacet
facet normal 0 0 1
 outer loop
  vertex 1.368 4.809 1.5
  vertex 3.898 9.209 1.5
  vertex 2.737 9.618 1.5
 endloop
endfacet
facet normal 0 -0 1
 outer loop
  vertex 1.368 4.809 1.5
  vertex 2.737 9.618 1.5
  vertex 0.767 4.941 1.5
 endloop
endfacet
facet normal 0 0 1
 outer loop
  vertex 0.767 4.941 1.5
  vertex 2.737 9.618 1.5
  vertex 1.534 9.882 1.5
 endloop
endfacet
facet normal 0 -0 1
 outer loop
  vertex 0.767 4.941 1.5
  vertex 1.534 9.882 1.5
  vertex 0.154 4.998 1.5
 endloop
endfacet
facet normal 0 0 1
 outer loop
  vertex 0.154 4.998 1.5
  vertex 1.534 9.882 1.5
  vertex 0.308 9.995 1.5
 endloop
endfacet
facet normal 0 -0 1
 outer loop
  vertex 0.154 4.998 1.5
  vertex 0.308 9.995 1.5
  vertex -0.923 9.957 1.5
 endloop
endfacet
facet normal 0 0 1
 outer loop
  vertex 4.991 -0.308 1.5
  vertex 4.915 -0.919 1.5
  vertex 9.981 -0.616 1.5
 endloop
endfacet
facet normal 0 0 1
 outer loop
  vertex 9.981 -0.616 1.5
  vertex 4.915 -0.919 1.5
  vertex 9.83 -1.837 1.5
 endloop
endfacet
facet normal 0 0 1
 outer loop
  vertex 4.915 -0.919 1.5
  vertex 4.765 -1.516 1.5
  vertex 9.83 -1.837 1.5
 endloop
endfacet
facet normal 0 0 1
 outer loop
  vertex 9.83 -1.837 1.5
  vertex 4.765 -1.516 1.5
  vertex 9.529 -3.032 1.5
 endloop
endfacet
facet normal 0 0 1
 outer loop
  vertex 4.765 -1.516 1.5
  vertex 4.542 -2.09 1.5
  vertex 9.529 -3.032 1.5
 endloop
endfacet
facet normal 0 0 1
 outer loop
  vertex 9.529 -3.032 1.5
  vertex 4.542 -2.09 1.5
  vertex 9.085 -4.18 1.5
 endloop
endfacet
facet normal 0 0 1
 outer loop
  vertex 4.542 -2.09 1.5
  vertex 4.251 -2.632 1.5
  vertex 9.085 -4.18 1.5
 endloop
endfacet
facet normal 0 0 1
 outer loop
  vertex 9.085 -4.18 1.5
  vertex 4.251 -2.632 1.5
  vertex 8.502 -5.264 1.5
 endloop
endfacet
facet normal 0 0 1
 outer loop
  vertex 4.251 -2.632 1.5
  vertex 3.895 -3.135 1.5
  vertex 8.502 -5.264 1.5
 endloop
endfacet
facet normal 0 0 1
 outer loop
  vertex 8.502 -5.264 1.5
  vertex 3.895 -3.135 1.5
  vertex 7.791 -6.269 1.5
 endloop
endfacet
facet normal 0 0 1
 outer loop
  vertex 3.895 -3.135 1.5
  vertex 3.481 -3.59 1.5
  vertex 7.791 -6.269 1.5
 endloop
endfacet
facet normal 0 0 1
 outer loop
  vertex 7.791 -6.269 1.5
  vertex 3.481 -3.59 1.5
  vertex 6.961 -7.179 1.5
 endloop
endfacet
facet normal 0 0 1
 outer loop
  vertex 3.481 -3.59 1.5
  vertex 3.013 -3.99 1.5
  vertex 6.961 -7.179 1.5
 endloop
endfacet
facet normal 0 0 1
 outer loop
  vertex 6.961 -7.179 1.5
  vertex 3.013 -3.99 1.5
  vertex 6.026 -7.98 1.5
 endloop
endfacet
facet normal 0 0 1
 outer loop
  vertex 3.013 -3.99 1.5
  vertex 2.5 -4.33 1.5
  vertex 6.026 -7.98 1.5
 endloop
endfacet
facet normal 0 0 1
 outer loop
  vertex 6.026 -7.98 1.5
  vertex 2.5 -4.33 1.5
  vertex 5 -8.66 1.5
 endloop
endfacet
facet normal 0 0 1
 outer loop
  vertex 2.5 -4.33 1.5
  vertex 1.949 -4.605 1.5
  vertex 5 -8.66 1.5
 endloop
endfacet
facet normal 0 0 1
 outer loop
  vertex 5 -8.66 1.5
  vertex 1.949 -4.605 1.5
  vertex 3.898 -9.209 1.5
 endloop
endfacet
facet normal 0 0 1
 outer loop
  vertex 1.949 -4.605 1.5
  vertex 1.368 -4.809 1.5
  vertex 3.898 -9.209 1.5
 endloop
endfacet
facet normal 0 0 1
 outer loop
  vertex 3.898 -9.209 1.5
  vertex 1.368 -4.809 1.5
  vertex 2.737 -9.618 1.5
 endloop
endfacet
facet normal 0 0 1
 outer loop
  vertex 1.368 -4.809 1.5
  vertex 0.767 -4.941 1.5
  vertex 2.737 -9.618 1.5
 endloop
endfacet
facet normal 0 0 1
 outer loop
  vertex 2.737 -9.618 1.5
  vertex 0.767 -4.941 1.5
  vertex 1.534 -9.882 1.5
 endloop
endfacet
facet normal 0 0 1
 outer loop
  vertex 0.767 -4.941 1.5
  vertex 0.154 -4.998 1.5
  vertex 1.534 -9.882 1.5
 endloop
endfacet
facet normal 0 0 1
 outer loop
  vertex 1.534 -9.882 1.5
  vertex 0.154 -4.998 1.5
  vertex 0.308 -9.995 1.5
 endloop
endfacet
facet normal 0 0 1
 outer loop
  vertex 0.308 -9.995 1.5
  vertex 0.154 -4.998 1.5
  vertex -0.923 -9.957 1.5
 endloop
endfacet
facet normal 0 0 1
 outer loop
  vertex -0.923 -9.957 1.5
  vertex 0.154 -4.998 1.5
  vertex -0.461 -4.979 1.5
 endloop
endfacet
facet normal 0 -0 1
 outer loop
  vertex -0.923 -9.957 1.5
  vertex -0.461 -4.979 1.5
  vertex -2.139 -9.768 1.5
 endloop
endfacet
facet normal 0 0 1
 outer loop
  vertex -2.139 -9.768 1.5
  vertex -0.461 -4.979 1.5
  vertex -1.07 -4.884 1.5
 endloop
endfacet
facet normal 0 -0 1
 outer loop
  vertex -2.139 -9.768 1.5
  vertex -1.07 -4.884 1.5
  vertex -3.324 -9.432 1.5
 endloop
endfacet
facet normal 0 0 1
 outer loop
  vertex -3.324 -9.432 1.5
  vertex -1.07 -4.884 1.5
  vertex -1.662 -4.716 1.5
 endloop
endfacet
facet normal 0 -0 1
 outer loop
  vertex -3.324 -9.432 1.5
  vertex -1.662 -4.716 1.5
  vertex -4.457 -8.952 1.5
 endloop
endfacet
facet normal 0 0 1
 outer loop
  vertex -4.457 -8.952 1.5
  vertex -1.662 -4.716 1.5
  vertex -2.229 -4.476 1.5
 endloop
endfacet
facet normal 0 -0 1
 outer loop
  vertex -4.457 -8.952 1.5
  vertex -2.229 -4.476 1.5
  vertex -5.524 -8.336 1.5
 endloop
endfacet
facet normal 0 0 1
 outer loop
  vertex -5.524 -8.336 1.5
  vertex -2.229 -4.476 1.5
  vertex -2.762 -4.168 1.5
 endloop
endfacet
facet normal 0 -0 1
 outer loop
  vertex -5.524 -8.336 1.5
  vertex -2.762 -4.168 1.5
  vertex -6.506 -7.594 1.5
 endloop
endfacet
facet normal 0 0 1
 outer loop
  vertex -6.506 -7.594 1.5
  vertex -2.762 -4.168 1.5
  vertex -3.253 -3.797 1.5
 endloop
endfacet
facet normal 0 -0 1
 outer loop
  vertex -6.506 -7.594 1.5
  vertex -3.253 -3.797 1.5
  vertex -7.39 -6.737 1.5
 endloop
endfacet
facet normal 0 0 1
 outer loop
  vertex -7.39 -6.737 1.5
  vertex -3.253 -3.797 1.5
  vertex -3.695 -3.368 1.5
 endloop
endfacet
facet normal 0 -0 1
 outer loop
  vertex -7.39 -6.737 1.5
  vertex -3.695 -3.368 1.5
  vertex -8.162 -5.778 1.5
 endloop
endfacet
facet normal 0 0 1
 outer loop
  vertex -8.162 -5.778 1.5
  vertex -3.695 -3.368 1.5
  vertex -4.081 -2.889 1.5
 endloop
endfacet
facet normal 0 -0 1
 outer loop
  vertex -8.162 -5.778 1.5
  vertex -4.081 -2.889 1.5
  vertex -8.81 -4.731 1.5
 endloop
endfacet
facet normal 0 0 1
 outer loop
  vertex -8.81 -4.731 1.5
  vertex -4.081 -2.889 1.5
  vertex -4.405 -2.365 1.5
 endloop
endfacet
facet normal 0 -0 1
 outer loop
  vertex -8.81 -4.731 1.5
  vertex -4.405 -2.365 1.5
  vertex -9.325 -3.612 1.5
 endloop
endfacet
facet normal 0 0 1
 outer loop
  vertex -9.325 -3.612 1.5
  vertex -4.405 -2.365 1.5
  vertex -4.662 -1.806 1.5
 endloop
endfacet
facet normal 0 -0 1
 outer loop
  vertex -9.325 -3.612 1.5
  vertex -4.662 -1.806 1.5
  vertex -9.698 -2.439 1.5
 endloop
endfacet
facet normal 0 0 1
 outer loop
  vertex -9.698 -2.439 1.5
  vertex -4.662 -1.806 1.5
  vertex -4.849 -1.22 1.5
 endloop
endfacet
facet normal 0 -0 1
 outer loop
  vertex -9.698 -2.439 1.5
  vertex -4.849 -1.22 1.5
  vertex -9.924 -1.229 1.5
 endloop
endfacet
facet normal 0 0 1
 outer loop
  vertex -9.924 -1.229 1.5
  vertex -4.849 -1.22 1.5
  vertex -4.962 -0.614 1.5
 endloop
endfacet
facet normal 0 -0 1
 outer loop
  vertex -9.924 -1.229 1.5
  vertex -4.962 -0.614 1.5
  vertex -10 0 1.5
 endloop
endfacet
facet normal 0 0 1
 outer loop
  vertex -10 0 1.5
  vertex -4.962 -0.614 1.5
  vertex -5 -0 1.5
 endloop
endfacet
facet normal -0 0 1
 outer loop
  vertex -10 0 1.5
  vertex -5 -0 1.5
  vertex -4.962 0.614 1.5
 endloop
endfacet
facet normal 0 0 1
 outer loop
  vertex -10 0 1.5
  vertex -4.962 0.614 1.5
  vertex -9.924 1.229 1.5
 endloop
endfacet
facet normal 0 0 1
 outer loop
  vertex -9.924 1.229 1.5
  vertex -4.962 0.614 1.5
  vertex -4.849 1.22 1.5
 endloop
endfacet
facet normal -0 0 1
 outer loop
  vertex -9.924 1.229 1.5
  vertex -4.849 1.22 1.5
  vertex -9.698 2.439 1.5
 endloop
endfacet
facet normal 0 0 1
 outer loop
  vertex -9.698 2.439 1.5
  vertex -4.849 1.22 1.5
  vertex -4.662 1.806 1.5
 endloop
endfacet
facet normal -0 0 1
 outer loop
  vertex -9.698 2.439 1.5
  vertex -4.662 1.806 1.5
  vertex -9.325 3.612 1.5
 endloop
endfacet
facet normal 0 0 1
 outer loop
  vertex -9.325 3.612 1.5
  vertex -4.662 1.806 1.5
  vertex -4.405 2.365 1.5
 endloop
endfacet
facet normal -0 0 1
 outer loop
  vertex -9.325 3.612 1.5
  vertex -4.405 2.365 1.5
  vertex -8.81 4.731 1.5
 endloop
endfacet
facet normal 0 0 1
 outer loop
  vertex -8.81 4.731 1.5
  vertex -4.405 2.365 1.5
  vertex -4.081 2.889 1.5
 endloop
endfacet
facet normal -0 0 1
 outer loop
  vertex -8.81 4.731 1.5
  vertex -4.081 2.889 1.5
  vertex -8.162 5.778 1.5
 endloop
endfacet
facet normal 0 0 1
 outer loop
  vertex -8.162 5.778 1.5
  vertex -4.081 2.889 1.5
  vertex -3.695 3.368 1.5
 endloop
endfacet
facet normal -0 0 1
 outer loop
  vertex -8.162 5.778 1.5
  vertex -3.695 3.368 1.5
  vertex -7.39 6.737 1.5
 endloop
endfacet
facet normal 0 0 1
 outer loop
  vertex -7.39 6.737 1.5
  vertex -3.695 3.368 1.5
  vertex -3.253 3.797 1.5
 endloop
endfacet
facet normal -0 0 1
 outer loop
  vertex -7.39 6.737 1.5
  vertex -3.253 3.797 1.5
  vertex -6.506 7.594 1.5
 endloop
endfacet
facet normal 0 0 1
 outer loop
  vertex -6.506 7.594 1.5
  vertex -3.253 3.797 1.5
  vertex -2.762 4.168 1.5
 endloop
endfacet
facet normal -0 0 1
 outer loop
  vertex -6.506 7.594 1.5
  vertex -2.762 4.168 1.5
  vertex -5.524 8.336 1.5
 endloop
endfacet
facet normal 0 0 1
 outer loop
  vertex -5.524 8.336 1.5
  vertex -2.762 4.168 1.5
  vertex -2.229 4.476 1.5
 endloop
endfacet
facet normal -0 0 1
 outer loop
  vertex -5.524 8.336 1.5
  vertex -2.229 4.476 1.5
  vertex -4.457 8.952 1.5
 endloop
endfacet
facet normal 0 0 1
 outer loop
  vertex -4.457 8.952 1.5
  vertex -2.229 4.476 1.5
  vertex -1.662 4.716 1.5
 endloop
endfacet
facet normal -0 0 1
 outer loop
  vertex -4.457 8.952 1.5
  vertex -1.662 4.716 1.5
  vertex -3.324 9.432 1.5
 endloop
endfacet
facet normal 0 0 1
 outer loop
  vertex -3.324 9.432 1.5
  vertex -1.662 4.716 1.5
  vertex -1.07 4.884 1.5
 endloop
endfacet
facet normal -0 0 1
 outer loop
  vertex -3.324 9.432 1.5
  vertex -1.07 4.884 1.5
  vertex -2.139 9.768 1.5
 endloop
endfacet
facet normal 0 0 1
 outer loop
  vertex -2.139 9.768 1.5
  vertex -1.07 4.884 1.5
  vertex -0.461 4.979 1.5
 endloop
endfacet
facet normal -0 0 1
 outer loop
  vertex -2.139 9.768 1.5
  vertex -0.461 4.979 1.5
  vertex -0.923 9.957 1.5
 endloop
endfacet
facet normal 0 0 1
 outer loop
  vertex -0.923 9.957 1.5
  vertex -0.461 4.979 1.5
  vertex 0.154 4.998 1.5
 endloop
endfacet
endsolid CADClick
