solid CADClick
facet normal -1 0.031 0
 outer loop
  vertex 4.991 -0.308 0
  vertex 4.991 -0.308 1.5
  vertex 5 0 0
 endloop
endfacet
facet normal -1 0.031 0
 outer loop
  vertex 5 0 0
  vertex 4.991 -0.308 1.5
  vertex 5 0 1.5
 endloop
endfacet
facet normal -1 -0.031 0
 outer loop
  vertex 5 0 0
  vertex 5 0 1.5
  vertex 4.991 0.308 0
 endloop
endfacet
facet normal -1 -0.031 0
 outer loop
  vertex 4.991 0.308 0
  vertex 5 0 1.5
  vertex 4.991 0.308 1.5
 endloop
endfacet
facet normal -0.992 -0.123 0
 outer loop
  vertex 4.991 0.308 0
  vertex 4.991 0.308 1.5
  vertex 4.915 0.919 0
 endloop
endfacet
facet normal -0.992 -0.123 0
 outer loop
  vertex 4.915 0.919 0
  vertex 4.991 0.308 1.5
  vertex 4.915 0.919 1.5
 endloop
endfacet
facet normal -0.97 -0.244 0
 outer loop
  vertex 4.915 0.919 0
  vertex 4.915 0.919 1.5
  vertex 4.765 1.516 0
 endloop
endfacet
facet normal -0.97 -0.244 0
 outer loop
  vertex 4.765 1.516 0
  vertex 4.915 0.919 1.5
  vertex 4.765 1.516 1.5
 endloop
endfacet
facet normal -0.932 -0.361 0
 outer loop
  vertex 4.765 1.516 0
  vertex 4.765 1.516 1.5
  vertex 4.542 2.09 0
 endloop
endfacet
facet normal -0.932 -0.361 0
 outer loop
  vertex 4.542 2.09 0
  vertex 4.765 1.516 1.5
  vertex 4.542 2.09 1.5
 endloop
endfacet
facet normal -0.881 -0.473 0
 outer loop
  vertex 4.542 2.09 0
  vertex 4.542 2.09 1.5
  vertex 4.251 2.632 0
 endloop
endfacet
facet normal -0.881 -0.473 0
 outer loop
  vertex 4.251 2.632 0
  vertex 4.542 2.09 1.5
  vertex 4.251 2.632 1.5
 endloop
endfacet
facet normal -0.816 -0.578 0
 outer loop
  vertex 4.251 2.632 0
  vertex 4.251 2.632 1.5
  vertex 3.895 3.135 0
 endloop
endfacet
facet normal -0.816 -0.578 0
 outer loop
  vertex 3.895 3.135 0
  vertex 4.251 2.632 1.5
  vertex 3.895 3.135 1.5
 endloop
endfacet
facet normal -0.739 -0.674 0
 outer loop
  vertex 3.895 3.135 0
  vertex 3.895 3.135 1.5
  vertex 3.481 3.59 0
 endloop
endfacet
facet normal -0.739 -0.674 0
 outer loop
  vertex 3.481 3.59 0
  vertex 3.895 3.135 1.5
  vertex 3.481 3.59 1.5
 endloop
endfacet
facet normal -0.651 -0.759 0
 outer loop
  vertex 3.481 3.59 0
  vertex 3.481 3.59 1.5
  vertex 3.013 3.99 0
 endloop
endfacet
facet normal -0.651 -0.759 0
 outer loop
  vertex 3.013 3.99 0
  vertex 3.481 3.59 1.5
  vertex 3.013 3.99 1.5
 endloop
endfacet
facet normal -0.552 -0.834 0
 outer loop
  vertex 3.013 3.99 0
  vertex 3.013 3.99 1.5
  vertex 2.5 4.33 0
 endloop
endfacet
facet normal -0.552 -0.834 0
 outer loop
  vertex 2.5 4.33 0
  vertex 3.013 3.99 1.5
  vertex 2.5 4.33 1.5
 endloop
endfacet
facet normal -0.446 -0.895 0
 outer loop
  vertex 2.5 4.33 0
  vertex 2.5 4.33 1.5
  vertex 1.949 4.605 0
 endloop
endfacet
facet normal -0.446 -0.895 0
 outer loop
  vertex 1.949 4.605 0
  vertex 2.5 4.33 1.5
  vertex 1.949 4.605 1.5
 endloop
endfacet
facet normal -0.332 -0.943 0
 outer loop
  vertex 1.949 4.605 0
  vertex 1.949 4.605 1.5
  vertex 1.368 4.809 0
 endloop
endfacet
facet normal -0.332 -0.943 0
 outer loop
  vertex 1.368 4.809 0
  vertex 1.949 4.605 1.5
  vertex 1.368 4.809 1.5
 endloop
endfacet
facet normal -0.214 -0.977 0
 outer loop
  vertex 1.368 4.809 0
  vertex 1.368 4.809 1.5
  vertex 0.767 4.941 0
 endloop
endfacet
facet normal -0.214 -0.977 0
 outer loop
  vertex 0.767 4.941 0
  vertex 1.368 4.809 1.5
  vertex 0.767 4.941 1.5
 endloop
endfacet
facet normal -0.092 -0.996 0
 outer loop
  vertex 0.767 4.941 0
  vertex 0.767 4.941 1.5
  vertex 0.154 4.998 0
 endloop
endfacet
facet normal -0.092 -0.996 0
 outer loop
  vertex 0.154 4.998 0
  vertex 0.767 4.941 1.5
  vertex 0.154 4.998 1.5
 endloop
endfacet
facet normal 0.031 -1 0
 outer loop
  vertex 0.154 4.998 0
  vertex 0.154 4.998 1.5
  vertex -0.461 4.979 0
 endloop
endfacet
facet normal 0.031 -1 0
 outer loop
  vertex -0.461 4.979 0
  vertex 0.154 4.998 1.5
  vertex -0.461 4.979 1.5
 endloop
endfacet
facet normal 0.153 -0.988 0
 outer loop
  vertex -0.461 4.979 0
  vertex -0.461 4.979 1.5
  vertex -1.07 4.884 0
 endloop
endfacet
facet normal 0.153 -0.988 0
 outer loop
  vertex -1.07 4.884 0
  vertex -0.461 4.979 1.5
  vertex -1.07 4.884 1.5
 endloop
endfacet
facet normal 0.274 -0.962 0
 outer loop
  vertex -1.07 4.884 0
  vertex -1.07 4.884 1.5
  vertex -1.662 4.716 0
 endloop
endfacet
facet normal 0.274 -0.962 0
 outer loop
  vertex -1.662 4.716 0
  vertex -1.07 4.884 1.5
  vertex -1.662 4.716 1.5
 endloop
endfacet
facet normal 0.39 -0.921 0
 outer loop
  vertex -1.662 4.716 0
  vertex -1.662 4.716 1.5
  vertex -2.229 4.476 0
 endloop
endfacet
facet normal 0.39 -0.921 0
 outer loop
  vertex -2.229 4.476 0
  vertex -1.662 4.716 1.5
  vertex -2.229 4.476 1.5
 endloop
endfacet
facet normal 0.5 -0.866 0
 outer loop
  vertex -2.229 4.476 0
  vertex -2.229 4.476 1.5
  vertex -2.762 4.168 0
 endloop
endfacet
facet normal 0.5 -0.866 0
 outer loop
  vertex -2.762 4.168 0
  vertex -2.229 4.476 1.5
  vertex -2.762 4.168 1.5
 endloop
endfacet
facet normal 0.603 -0.798 0
 outer loop
  vertex -2.762 4.168 0
  vertex -2.762 4.168 1.5
  vertex -3.253 3.797 0
 endloop
endfacet
facet normal 0.603 -0.798 0
 outer loop
  vertex -3.253 3.797 0
  vertex -2.762 4.168 1.5
  vertex -3.253 3.797 1.5
 endloop
endfacet
facet normal 0.696 -0.718 0
 outer loop
  vertex -3.253 3.797 0
  vertex -3.253 3.797 1.5
  vertex -3.695 3.368 0
 endloop
endfacet
facet normal 0.696 -0.718 0
 outer loop
  vertex -3.695 3.368 0
  vertex -3.253 3.797 1.5
  vertex -3.695 3.368 1.5
 endloop
endfacet
facet normal 0.779 -0.627 0
 outer loop
  vertex -3.695 3.368 0
  vertex -3.695 3.368 1.5
  vertex -4.081 2.889 0
 endloop
endfacet
facet normal 0.779 -0.627 0
 outer loop
  vertex -4.081 2.889 0
  vertex -3.695 3.368 1.5
  vertex -4.081 2.889 1.5
 endloop
endfacet
facet normal 0.85 -0.526 0
 outer loop
  vertex -4.081 2.889 0
  vertex -4.081 2.889 1.5
  vertex -4.405 2.365 0
 endloop
endfacet
facet normal 0.85 -0.526 0
 outer loop
  vertex -4.405 2.365 0
  vertex -4.081 2.889 1.5
  vertex -4.405 2.365 1.5
 endloop
endfacet
facet normal 0.908 -0.418 0
 outer loop
  vertex -4.405 2.365 0
  vertex -4.405 2.365 1.5
  vertex -4.662 1.806 0
 endloop
endfacet
facet normal 0.908 -0.418 0
 outer loop
  vertex -4.662 1.806 0
  vertex -4.405 2.365 1.5
  vertex -4.662 1.806 1.5
 endloop
endfacet
facet normal 0.953 -0.303 0
 outer loop
  vertex -4.662 1.806 0
  vertex -4.662 1.806 1.5
  vertex -4.849 1.22 0
 endloop
endfacet
facet normal 0.953 -0.303 0
 outer loop
  vertex -4.849 1.22 0
  vertex -4.662 1.806 1.5
  vertex -4.849 1.22 1.5
 endloop
endfacet
facet normal 0.983 -0.184 0
 outer loop
  vertex -4.849 1.22 0
  vertex -4.849 1.22 1.5
  vertex -4.962 0.614 0
 endloop
endfacet
facet normal 0.983 -0.184 0
 outer loop
  vertex -4.962 0.614 0
  vertex -4.849 1.22 1.5
  vertex -4.962 0.614 1.5
 endloop
endfacet
facet normal 0.998 -0.062 0
 outer loop
  vertex -4.962 0.614 0
  vertex -4.962 0.614 1.5
  vertex -5 0 0
 endloop
endfacet
facet normal 0.998 -0.062 -0
 outer loop
  vertex -5 0 0
  vertex -4.962 0.614 1.5
  vertex -5 -0 1.5
 endloop
endfacet
facet normal 0.998 0.062 0
 outer loop
  vertex -5 0 0
  vertex -5 -0 1.5
  vertex -4.962 -0.614 0
 endloop
endfacet
facet normal 0.998 0.062 -0
 outer loop
  vertex -4.962 -0.614 0
  vertex -5 -0 1.5
  vertex -4.962 -0.614 1.5
 endloop
endfacet
facet normal 0.983 0.184 -0
 outer loop
  vertex -4.962 -0.614 0
  vertex -4.962 -0.614 1.5
  vertex -4.849 -1.22 0
 endloop
endfacet
facet normal 0.983 0.184 -0
 outer loop
  vertex -4.849 -1.22 0
  vertex -4.962 -0.614 1.5
  vertex -4.849 -1.22 1.5
 endloop
endfacet
facet normal 0.953 0.303 -0
 outer loop
  vertex -4.849 -1.22 0
  vertex -4.849 -1.22 1.5
  vertex -4.662 -1.806 0
 endloop
endfacet
facet normal 0.953 0.303 -0
 outer loop
  vertex -4.662 -1.806 0
  vertex -4.849 -1.22 1.5
  vertex -4.662 -1.806 1.5
 endloop
endfacet
facet normal 0.908 0.418 -0
 outer loop
  vertex -4.662 -1.806 0
  vertex -4.662 -1.806 1.5
  vertex -4.405 -2.365 0
 endloop
endfacet
facet normal 0.908 0.418 -0
 outer loop
  vertex -4.405 -2.365 0
  vertex -4.662 -1.806 1.5
  vertex -4.405 -2.365 1.5
 endloop
endfacet
facet normal 0.85 0.526 -0
 outer loop
  vertex -4.405 -2.365 0
  vertex -4.405 -2.365 1.5
  vertex -4.081 -2.889 0
 endloop
endfacet
facet normal 0.85 0.526 -0
 outer loop
  vertex -4.081 -2.889 0
  vertex -4.405 -2.365 1.5
  vertex -4.081 -2.889 1.5
 endloop
endfacet
facet normal 0.779 0.627 -0
 outer loop
  vertex -4.081 -2.889 0
  vertex -4.081 -2.889 1.5
  vertex -3.695 -3.368 0
 endloop
endfacet
facet normal 0.779 0.627 -0
 outer loop
  vertex -3.695 -3.368 0
  vertex -4.081 -2.889 1.5
  vertex -3.695 -3.368 1.5
 endloop
endfacet
facet normal 0.696 0.718 -0
 outer loop
  vertex -3.695 -3.368 0
  vertex -3.695 -3.368 1.5
  vertex -3.253 -3.797 0
 endloop
endfacet
facet normal 0.696 0.718 -0
 outer loop
  vertex -3.253 -3.797 0
  vertex -3.695 -3.368 1.5
  vertex -3.253 -3.797 1.5
 endloop
endfacet
facet normal 0.603 0.798 -0
 outer loop
  vertex -3.253 -3.797 0
  vertex -3.253 -3.797 1.5
  vertex -2.762 -4.168 0
 endloop
endfacet
facet normal 0.603 0.798 -0
 outer loop
  vertex -2.762 -4.168 0
  vertex -3.253 -3.797 1.5
  vertex -2.762 -4.168 1.5
 endloop
endfacet
facet normal 0.5 0.866 -0
 outer loop
  vertex -2.762 -4.168 0
  vertex -2.762 -4.168 1.5
  vertex -2.229 -4.476 0
 endloop
endfacet
facet normal 0.5 0.866 -0
 outer loop
  vertex -2.229 -4.476 0
  vertex -2.762 -4.168 1.5
  vertex -2.229 -4.476 1.5
 endloop
endfacet
facet normal 0.39 0.921 -0
 outer loop
  vertex -2.229 -4.476 0
  vertex -2.229 -4.476 1.5
  vertex -1.662 -4.716 0
 endloop
endfacet
facet normal 0.39 0.921 -0
 outer loop
  vertex -1.662 -4.716 0
  vertex -2.229 -4.476 1.5
  vertex -1.662 -4.716 1.5
 endloop
endfacet
facet normal 0.274 0.962 -0
 outer loop
  vertex -1.662 -4.716 0
  vertex -1.662 -4.716 1.5
  vertex -1.07 -4.884 0
 endloop
endfacet
facet normal 0.274 0.962 -0
 outer loop
  vertex -1.07 -4.884 0
  vertex -1.662 -4.716 1.5
  vertex -1.07 -4.884 1.5
 endloop
endfacet
facet normal 0.153 0.988 -0
 outer loop
  vertex -1.07 -4.884 0
  vertex -1.07 -4.884 1.5
  vertex -0.461 -4.979 0
 endloop
endfacet
facet normal 0.153 0.988 -0
 outer loop
  vertex -0.461 -4.979 0
  vertex -1.07 -4.884 1.5
  vertex -0.461 -4.979 1.5
 endloop
endfacet
facet normal 0.031 1 -0
 outer loop
  vertex -0.461 -4.979 0
  vertex -0.461 -4.979 1.5
  vertex 0.154 -4.998 0
 endloop
endfacet
facet normal 0.031 1 -0
 outer loop
  vertex 0.154 -4.998 0
  vertex -0.461 -4.979 1.5
  vertex 0.154 -4.998 1.5
 endloop
endfacet
facet normal -0.092 0.996 0
 outer loop
  vertex 0.154 -4.998 0
  vertex 0.154 -4.998 1.5
  vertex 0.767 -4.941 0
 endloop
endfacet
facet normal -0.092 0.996 0
 outer loop
  vertex 0.767 -4.941 0
  vertex 0.154 -4.998 1.5
  vertex 0.767 -4.941 1.5
 endloop
endfacet
facet normal -0.214 0.977 0
 outer loop
  vertex 0.767 -4.941 0
  vertex 0.767 -4.941 1.5
  vertex 1.368 -4.809 0
 endloop
endfacet
facet normal -0.214 0.977 0
 outer loop
  vertex 1.368 -4.809 0
  vertex 0.767 -4.941 1.5
  vertex 1.368 -4.809 1.5
 endloop
endfacet
facet normal -0.332 0.943 0
 outer loop
  vertex 1.368 -4.809 0
  vertex 1.368 -4.809 1.5
  vertex 1.949 -4.605 0
 endloop
endfacet
facet normal -0.332 0.943 0
 outer loop
  vertex 1.949 -4.605 0
  vertex 1.368 -4.809 1.5
  vertex 1.949 -4.605 1.5
 endloop
endfacet
facet normal -0.446 0.895 0
 outer loop
  vertex 1.949 -4.605 0
  vertex 1.949 -4.605 1.5
  vertex 2.5 -4.33 0
 endloop
endfacet
facet normal -0.446 0.895 0
 outer loop
  vertex 2.5 -4.33 0
  vertex 1.949 -4.605 1.5
  vertex 2.5 -4.33 1.5
 endloop
endfacet
facet normal -0.552 0.834 0
 outer loop
  vertex 2.5 -4.33 0
  vertex 2.5 -4.33 1.5
  vertex 3.013 -3.99 0
 endloop
endfacet
facet normal -0.552 0.834 0
 outer loop
  vertex 3.013 -3.99 0
  vertex 2.5 -4.33 1.5
  vertex 3.013 -3.99 1.5
 endloop
endfacet
facet normal -0.651 0.759 0
 outer loop
  vertex 3.013 -3.99 0
  vertex 3.013 -3.99 1.5
  vertex 3.481 -3.59 0
 endloop
endfacet
facet normal -0.651 0.759 0
 outer loop
  vertex 3.481 -3.59 0
  vertex 3.013 -3.99 1.5
  vertex 3.481 -3.59 1.5
 endloop
endfacet
facet normal -0.739 0.674 0
 outer loop
  vertex 3.481 -3.59 0
  vertex 3.481 -3.59 1.5
  vertex 3.895 -3.135 0
 endloop
endfacet
facet normal -0.739 0.674 0
 outer loop
  vertex 3.895 -3.135 0
  vertex 3.481 -3.59 1.5
  vertex 3.895 -3.135 1.5
 endloop
endfacet
facet normal -0.816 0.578 0
 outer loop
  vertex 3.895 -3.135 0
  vertex 3.895 -3.135 1.5
  vertex 4.251 -2.632 0
 endloop
endfacet
facet normal -0.816 0.578 0
 outer loop
  vertex 4.251 -2.632 0
  vertex 3.895 -3.135 1.5
  vertex 4.251 -2.632 1.5
 endloop
endfacet
facet normal -0.881 0.473 0
 outer loop
  vertex 4.251 -2.632 0
  vertex 4.251 -2.632 1.5
  vertex 4.542 -2.09 0
 endloop
endfacet
facet normal -0.881 0.473 0
 outer loop
  vertex 4.542 -2.09 0
  vertex 4.251 -2.632 1.5
  vertex 4.542 -2.09 1.5
 endloop
endfacet
facet normal -0.932 0.361 0
 outer loop
  vertex 4.542 -2.09 0
  vertex 4.542 -2.09 1.5
  vertex 4.765 -1.516 0
 endloop
endfacet
facet normal -0.932 0.361 0
 outer loop
  vertex 4.765 -1.516 0
  vertex 4.542 -2.09 1.5
  vertex 4.765 -1.516 1.5
 endloop
endfacet
facet normal -0.97 0.244 0
 outer loop
  vertex 4.765 -1.516 0
  vertex 4.765 -1.516 1.5
  vertex 4.915 -0.919 0
 endloop
endfacet
facet normal -0.97 0.244 0
 outer loop
  vertex 4.915 -0.919 0
  vertex 4.765 -1.516 1.5
  vertex 4.915 -0.919 1.5
 endloop
endfacet
facet normal -0.992 0.123 0
 outer loop
  vertex 4.915 -0.919 0
  vertex 4.915 -0.919 1.5
  vertex 4.991 -0.308 0
 endloop
endfacet
facet normal -0.992 0.123 0
 outer loop
  vertex 4.991 -0.308 0
  vertex 4.915 -0.919 1.5
  vertex 4.991 -0.308 1.5
 endloop
endfacet
facet normal 1 0.031 -0
 outer loop
  vertex 8.983 0.554 0
  vertex 8.983 0.554 1.5
  vertex 9 0 0
 endloop
endfacet
facet normal 1 0.031 -0
 outer loop
  vertex 9 0 0
  vertex 8.983 0.554 1.5
  vertex 9 0 1.5
 endloop
endfacet
facet normal 1 -0.031 0
 outer loop
  vertex 9 0 0
  vertex 9 0 1.5
  vertex 8.983 -0.554 0
 endloop
endfacet
facet normal 1 -0.031 0
 outer loop
  vertex 8.983 -0.554 0
  vertex 9 0 1.5
  vertex 8.983 -0.554 1.5
 endloop
endfacet
facet normal 0.992 -0.123 0
 outer loop
  vertex 8.983 -0.554 0
  vertex 8.983 -0.554 1.5
  vertex 8.847 -1.654 0
 endloop
endfacet
facet normal 0.992 -0.123 0
 outer loop
  vertex 8.847 -1.654 0
  vertex 8.983 -0.554 1.5
  vertex 8.847 -1.654 1.5
 endloop
endfacet
facet normal 0.97 -0.244 0
 outer loop
  vertex 8.847 -1.654 0
  vertex 8.847 -1.654 1.5
  vertex 8.576 -2.728 0
 endloop
endfacet
facet normal 0.97 -0.244 0
 outer loop
  vertex 8.576 -2.728 0
  vertex 8.847 -1.654 1.5
  vertex 8.576 -2.728 1.5
 endloop
endfacet
facet normal 0.932 -0.361 0
 outer loop
  vertex 8.576 -2.728 0
  vertex 8.576 -2.728 1.5
  vertex 8.176 -3.762 0
 endloop
endfacet
facet normal 0.932 -0.361 0
 outer loop
  vertex 8.176 -3.762 0
  vertex 8.576 -2.728 1.5
  vertex 8.176 -3.762 1.5
 endloop
endfacet
facet normal 0.881 -0.473 0
 outer loop
  vertex 8.176 -3.762 0
  vertex 8.176 -3.762 1.5
  vertex 7.652 -4.738 0
 endloop
endfacet
facet normal 0.881 -0.473 0
 outer loop
  vertex 7.652 -4.738 0
  vertex 8.176 -3.762 1.5
  vertex 7.652 -4.738 1.5
 endloop
endfacet
facet normal 0.816 -0.578 0
 outer loop
  vertex 7.652 -4.738 0
  vertex 7.652 -4.738 1.5
  vertex 7.012 -5.642 0
 endloop
endfacet
facet normal 0.816 -0.578 0
 outer loop
  vertex 7.012 -5.642 0
  vertex 7.652 -4.738 1.5
  vertex 7.012 -5.642 1.5
 endloop
endfacet
facet normal 0.739 -0.674 0
 outer loop
  vertex 7.012 -5.642 0
  vertex 7.012 -5.642 1.5
  vertex 6.265 -6.461 0
 endloop
endfacet
facet normal 0.739 -0.674 0
 outer loop
  vertex 6.265 -6.461 0
  vertex 7.012 -5.642 1.5
  vertex 6.265 -6.461 1.5
 endloop
endfacet
facet normal 0.651 -0.759 0
 outer loop
  vertex 6.265 -6.461 0
  vertex 6.265 -6.461 1.5
  vertex 5.424 -7.182 0
 endloop
endfacet
facet normal 0.651 -0.759 0
 outer loop
  vertex 5.424 -7.182 0
  vertex 6.265 -6.461 1.5
  vertex 5.424 -7.182 1.5
 endloop
endfacet
facet normal 0.552 -0.834 0
 outer loop
  vertex 5.424 -7.182 0
  vertex 5.424 -7.182 1.5
  vertex 4.5 -7.794 0
 endloop
endfacet
facet normal 0.552 -0.834 0
 outer loop
  vertex 4.5 -7.794 0
  vertex 5.424 -7.182 1.5
  vertex 4.5 -7.794 1.5
 endloop
endfacet
facet normal 0.446 -0.895 0
 outer loop
  vertex 4.5 -7.794 0
  vertex 4.5 -7.794 1.5
  vertex 3.508 -8.288 0
 endloop
endfacet
facet normal 0.446 -0.895 0
 outer loop
  vertex 3.508 -8.288 0
  vertex 4.5 -7.794 1.5
  vertex 3.508 -8.288 1.5
 endloop
endfacet
facet normal 0.332 -0.943 0
 outer loop
  vertex 3.508 -8.288 0
  vertex 3.508 -8.288 1.5
  vertex 2.463 -8.656 0
 endloop
endfacet
facet normal 0.332 -0.943 0
 outer loop
  vertex 2.463 -8.656 0
  vertex 3.508 -8.288 1.5
  vertex 2.463 -8.656 1.5
 endloop
endfacet
facet normal 0.214 -0.977 0
 outer loop
  vertex 2.463 -8.656 0
  vertex 2.463 -8.656 1.5
  vertex 1.381 -8.893 0
 endloop
endfacet
facet normal 0.214 -0.977 0
 outer loop
  vertex 1.381 -8.893 0
  vertex 2.463 -8.656 1.5
  vertex 1.381 -8.893 1.5
 endloop
endfacet
facet normal 0.092 -0.996 0
 outer loop
  vertex 1.381 -8.893 0
  vertex 1.381 -8.893 1.5
  vertex 0.277 -8.996 0
 endloop
endfacet
facet normal 0.092 -0.996 0
 outer loop
  vertex 0.277 -8.996 0
  vertex 1.381 -8.893 1.5
  vertex 0.277 -8.996 1.5
 endloop
endfacet
facet normal -0.031 -1 0
 outer loop
  vertex 0.277 -8.996 0
  vertex 0.277 -8.996 1.5
  vertex -0.83 -8.962 0
 endloop
endfacet
facet normal -0.031 -1 0
 outer loop
  vertex -0.83 -8.962 0
  vertex 0.277 -8.996 1.5
  vertex -0.83 -8.962 1.5
 endloop
endfacet
facet normal -0.153 -0.988 0
 outer loop
  vertex -0.83 -8.962 0
  vertex -0.83 -8.962 1.5
  vertex -1.925 -8.792 0
 endloop
endfacet
facet normal -0.153 -0.988 0
 outer loop
  vertex -1.925 -8.792 0
  vertex -0.83 -8.962 1.5
  vertex -1.925 -8.792 1.5
 endloop
endfacet
facet normal -0.274 -0.962 0
 outer loop
  vertex -1.925 -8.792 0
  vertex -1.925 -8.792 1.5
  vertex -2.991 -8.488 0
 endloop
endfacet
facet normal -0.274 -0.962 0
 outer loop
  vertex -2.991 -8.488 0
  vertex -1.925 -8.792 1.5
  vertex -2.991 -8.488 1.5
 endloop
endfacet
facet normal -0.39 -0.921 0
 outer loop
  vertex -2.991 -8.488 0
  vertex -2.991 -8.488 1.5
  vertex -4.012 -8.056 0
 endloop
endfacet
facet normal -0.39 -0.921 0
 outer loop
  vertex -4.012 -8.056 0
  vertex -2.991 -8.488 1.5
  vertex -4.012 -8.056 1.5
 endloop
endfacet
facet normal -0.5 -0.866 0
 outer loop
  vertex -4.012 -8.056 0
  vertex -4.012 -8.056 1.5
  vertex -4.971 -7.502 0
 endloop
endfacet
facet normal -0.5 -0.866 0
 outer loop
  vertex -4.971 -7.502 0
  vertex -4.012 -8.056 1.5
  vertex -4.971 -7.502 1.5
 endloop
endfacet
facet normal -0.603 -0.798 0
 outer loop
  vertex -4.971 -7.502 0
  vertex -4.971 -7.502 1.5
  vertex -5.856 -6.835 0
 endloop
endfacet
facet normal -0.603 -0.798 0
 outer loop
  vertex -5.856 -6.835 0
  vertex -4.971 -7.502 1.5
  vertex -5.856 -6.835 1.5
 endloop
endfacet
facet normal -0.696 -0.718 0
 outer loop
  vertex -5.856 -6.835 0
  vertex -5.856 -6.835 1.5
  vertex -6.651 -6.063 0
 endloop
endfacet
facet normal -0.696 -0.718 0
 outer loop
  vertex -6.651 -6.063 0
  vertex -5.856 -6.835 1.5
  vertex -6.651 -6.063 1.5
 endloop
endfacet
facet normal -0.779 -0.627 0
 outer loop
  vertex -6.651 -6.063 0
  vertex -6.651 -6.063 1.5
  vertex -7.346 -5.2 0
 endloop
endfacet
facet normal -0.779 -0.627 0
 outer loop
  vertex -7.346 -5.2 0
  vertex -6.651 -6.063 1.5
  vertex -7.346 -5.2 1.5
 endloop
endfacet
facet normal -0.85 -0.526 0
 outer loop
  vertex -7.346 -5.2 0
  vertex -7.346 -5.2 1.5
  vertex -7.929 -4.258 0
 endloop
endfacet
facet normal -0.85 -0.526 0
 outer loop
  vertex -7.929 -4.258 0
  vertex -7.346 -5.2 1.5
  vertex -7.929 -4.258 1.5
 endloop
endfacet
facet normal -0.908 -0.418 0
 outer loop
  vertex -7.929 -4.258 0
  vertex -7.929 -4.258 1.5
  vertex -8.392 -3.251 0
 endloop
endfacet
facet normal -0.908 -0.418 0
 outer loop
  vertex -8.392 -3.251 0
  vertex -7.929 -4.258 1.5
  vertex -8.392 -3.251 1.5
 endloop
endfacet
facet normal -0.953 -0.303 0
 outer loop
  vertex -8.392 -3.251 0
  vertex -8.392 -3.251 1.5
  vertex -8.728 -2.195 0
 endloop
endfacet
facet normal -0.953 -0.303 0
 outer loop
  vertex -8.728 -2.195 0
  vertex -8.392 -3.251 1.5
  vertex -8.728 -2.195 1.5
 endloop
endfacet
facet normal -0.983 -0.184 0
 outer loop
  vertex -8.728 -2.195 0
  vertex -8.728 -2.195 1.5
  vertex -8.932 -1.106 0
 endloop
endfacet
facet normal -0.983 -0.184 0
 outer loop
  vertex -8.932 -1.106 0
  vertex -8.728 -2.195 1.5
  vertex -8.932 -1.106 1.5
 endloop
endfacet
facet normal -0.998 -0.062 0
 outer loop
  vertex -8.932 -1.106 0
  vertex -8.932 -1.106 1.5
  vertex -9 -0 0
 endloop
endfacet
facet normal -0.998 -0.062 0
 outer loop
  vertex -9 -0 0
  vertex -8.932 -1.106 1.5
  vertex -9 0 1.5
 endloop
endfacet
facet normal -0.998 0.062 -0
 outer loop
  vertex -9 -0 0
  vertex -9 0 1.5
  vertex -8.932 1.106 0
 endloop
endfacet
facet normal -0.998 0.062 0
 outer loop
  vertex -8.932 1.106 0
  vertex -9 0 1.5
  vertex -8.932 1.106 1.5
 endloop
endfacet
facet normal -0.983 0.184 0
 outer loop
  vertex -8.932 1.106 0
  vertex -8.932 1.106 1.5
  vertex -8.728 2.195 0
 endloop
endfacet
facet normal -0.983 0.184 0
 outer loop
  vertex -8.728 2.195 0
  vertex -8.932 1.106 1.5
  vertex -8.728 2.195 1.5
 endloop
endfacet
facet normal -0.953 0.303 0
 outer loop
  vertex -8.728 2.195 0
  vertex -8.728 2.195 1.5
  vertex -8.392 3.251 0
 endloop
endfacet
facet normal -0.953 0.303 0
 outer loop
  vertex -8.392 3.251 0
  vertex -8.728 2.195 1.5
  vertex -8.392 3.251 1.5
 endloop
endfacet
facet normal -0.908 0.418 0
 outer loop
  vertex -8.392 3.251 0
  vertex -8.392 3.251 1.5
  vertex -7.929 4.258 0
 endloop
endfacet
facet normal -0.908 0.418 0
 outer loop
  vertex -7.929 4.258 0
  vertex -8.392 3.251 1.5
  vertex -7.929 4.258 1.5
 endloop
endfacet
facet normal -0.85 0.526 0
 outer loop
  vertex -7.929 4.258 0
  vertex -7.929 4.258 1.5
  vertex -7.346 5.2 0
 endloop
endfacet
facet normal -0.85 0.526 0
 outer loop
  vertex -7.346 5.2 0
  vertex -7.929 4.258 1.5
  vertex -7.346 5.2 1.5
 endloop
endfacet
facet normal -0.779 0.627 0
 outer loop
  vertex -7.346 5.2 0
  vertex -7.346 5.2 1.5
  vertex -6.651 6.063 0
 endloop
endfacet
facet normal -0.779 0.627 0
 outer loop
  vertex -6.651 6.063 0
  vertex -7.346 5.2 1.5
  vertex -6.651 6.063 1.5
 endloop
endfacet
facet normal -0.696 0.718 0
 outer loop
  vertex -6.651 6.063 0
  vertex -6.651 6.063 1.5
  vertex -5.856 6.835 0
 endloop
endfacet
facet normal -0.696 0.718 0
 outer loop
  vertex -5.856 6.835 0
  vertex -6.651 6.063 1.5
  vertex -5.856 6.835 1.5
 endloop
endfacet
facet normal -0.603 0.798 0
 outer loop
  vertex -5.856 6.835 0
  vertex -5.856 6.835 1.5
  vertex -4.971 7.502 0
 endloop
endfacet
facet normal -0.603 0.798 0
 outer loop
  vertex -4.971 7.502 0
  vertex -5.856 6.835 1.5
  vertex -4.971 7.502 1.5
 endloop
endfacet
facet normal -0.5 0.866 0
 outer loop
  vertex -4.971 7.502 0
  vertex -4.971 7.502 1.5
  vertex -4.012 8.056 0
 endloop
endfacet
facet normal -0.5 0.866 0
 outer loop
  vertex -4.012 8.056 0
  vertex -4.971 7.502 1.5
  vertex -4.012 8.056 1.5
 endloop
endfacet
facet normal -0.39 0.921 0
 outer loop
  vertex -4.012 8.056 0
  vertex -4.012 8.056 1.5
  vertex -2.991 8.488 0
 endloop
endfacet
facet normal -0.39 0.921 0
 outer loop
  vertex -2.991 8.488 0
  vertex -4.012 8.056 1.5
  vertex -2.991 8.488 1.5
 endloop
endfacet
facet normal -0.274 0.962 0
 outer loop
  vertex -2.991 8.488 0
  vertex -2.991 8.488 1.5
  vertex -1.925 8.792 0
 endloop
endfacet
facet normal -0.274 0.962 0
 outer loop
  vertex -1.925 8.792 0
  vertex -2.991 8.488 1.5
  vertex -1.925 8.792 1.5
 endloop
endfacet
facet normal -0.153 0.988 0
 outer loop
  vertex -1.925 8.792 0
  vertex -1.925 8.792 1.5
  vertex -0.83 8.962 0
 endloop
endfacet
facet normal -0.153 0.988 0
 outer loop
  vertex -0.83 8.962 0
  vertex -1.925 8.792 1.5
  vertex -0.83 8.962 1.5
 endloop
endfacet
facet normal -0.031 1 0
 outer loop
  vertex -0.83 8.962 0
  vertex -0.83 8.962 1.5
  vertex 0.277 8.996 0
 endloop
endfacet
facet normal -0.031 1 0
 outer loop
  vertex 0.277 8.996 0
  vertex -0.83 8.962 1.5
  vertex 0.277 8.996 1.5
 endloop
endfacet
facet normal 0.092 0.996 -0
 outer loop
  vertex 0.277 8.996 0
  vertex 0.277 8.996 1.5
  vertex 1.381 8.893 0
 endloop
endfacet
facet normal 0.092 0.996 -0
 outer loop
  vertex 1.381 8.893 0
  vertex 0.277 8.996 1.5
  vertex 1.381 8.893 1.5
 endloop
endfacet
facet normal 0.214 0.977 -0
 outer loop
  vertex 1.381 8.893 0
  vertex 1.381 8.893 1.5
  vertex 2.463 8.656 0
 endloop
endfacet
facet normal 0.214 0.977 -0
 outer loop
  vertex 2.463 8.656 0
  vertex 1.381 8.893 1.5
  vertex 2.463 8.656 1.5
 endloop
endfacet
facet normal 0.332 0.943 -0
 outer loop
  vertex 2.463 8.656 0
  vertex 2.463 8.656 1.5
  vertex 3.508 8.288 0
 endloop
endfacet
facet normal 0.332 0.943 -0
 outer loop
  vertex 3.508 8.288 0
  vertex 2.463 8.656 1.5
  vertex 3.508 8.288 1.5
 endloop
endfacet
facet normal 0.446 0.895 -0
 outer loop
  vertex 3.508 8.288 0
  vertex 3.508 8.288 1.5
  vertex 4.5 7.794 0
 endloop
endfacet
facet normal 0.446 0.895 -0
 outer loop
  vertex 4.5 7.794 0
  vertex 3.508 8.288 1.5
  vertex 4.5 7.794 1.5
 endloop
endfacet
facet normal 0.552 0.834 -0
 outer loop
  vertex 4.5 7.794 0
  vertex 4.5 7.794 1.5
  vertex 5.424 7.182 0
 endloop
endfacet
facet normal 0.552 0.834 -0
 outer loop
  vertex 5.424 7.182 0
  vertex 4.5 7.794 1.5
  vertex 5.424 7.182 1.5
 endloop
endfacet
facet normal 0.651 0.759 -0
 outer loop
  vertex 5.424 7.182 0
  vertex 5.424 7.182 1.5
  vertex 6.265 6.461 0
 endloop
endfacet
facet normal 0.651 0.759 -0
 outer loop
  vertex 6.265 6.461 0
  vertex 5.424 7.182 1.5
  vertex 6.265 6.461 1.5
 endloop
endfacet
facet normal 0.739 0.674 -0
 outer loop
  vertex 6.265 6.461 0
  vertex 6.265 6.461 1.5
  vertex 7.012 5.642 0
 endloop
endfacet
facet normal 0.739 0.674 -0
 outer loop
  vertex 7.012 5.642 0
  vertex 6.265 6.461 1.5
  vertex 7.012 5.642 1.5
 endloop
endfacet
facet normal 0.816 0.578 -0
 outer loop
  vertex 7.012 5.642 0
  vertex 7.012 5.642 1.5
  vertex 7.652 4.738 0
 endloop
endfacet
facet normal 0.816 0.578 -0
 outer loop
  vertex 7.652 4.738 0
  vertex 7.012 5.642 1.5
  vertex 7.652 4.738 1.5
 endloop
endfacet
facet normal 0.881 0.473 -0
 outer loop
  vertex 7.652 4.738 0
  vertex 7.652 4.738 1.5
  vertex 8.176 3.762 0
 endloop
endfacet
facet normal 0.881 0.473 -0
 outer loop
  vertex 8.176 3.762 0
  vertex 7.652 4.738 1.5
  vertex 8.176 3.762 1.5
 endloop
endfacet
facet normal 0.932 0.361 -0
 outer loop
  vertex 8.176 3.762 0
  vertex 8.176 3.762 1.5
  vertex 8.576 2.728 0
 endloop
endfacet
facet normal 0.932 0.361 -0
 outer loop
  vertex 8.576 2.728 0
  vertex 8.176 3.762 1.5
  vertex 8.576 2.728 1.5
 endloop
endfacet
facet normal 0.97 0.244 -0
 outer loop
  vertex 8.576 2.728 0
  vertex 8.576 2.728 1.5
  vertex 8.847 1.654 0
 endloop
endfacet
facet normal 0.97 0.244 -0
 outer loop
  vertex 8.847 1.654 0
  vertex 8.576 2.728 1.5
  vertex 8.847 1.654 1.5
 endloop
endfacet
facet normal 0.992 0.123 -0
 outer loop
  vertex 8.847 1.654 0
  vertex 8.847 1.654 1.5
  vertex 8.983 0.554 0
 endloop
endfacet
facet normal 0.992 0.123 -0
 outer loop
  vertex 8.983 0.554 0
  vertex 8.847 1.654 1.5
  vertex 8.983 0.554 1.5
 endloop
endfacet
facet normal 0 0 -1
 outer loop
  vertex 4.991 -0.308 0
  vertex 5 0 0
  vertex 9 0 0
 endloop
endfacet
facet normal 0 0 -1
 outer loop
  vertex 9 0 0
  vertex 5 0 0
  vertex 4.991 0.308 0
 endloop
endfacet
facet normal 0 0 -1
 outer loop
  vertex 9 0 0
  vertex 4.991 0.308 0
  vertex 8.983 0.554 0
 endloop
endfacet
facet normal -0 0 -1
 outer loop
  vertex 8.983 0.554 0
  vertex 4.991 0.308 0
  vertex 4.915 0.919 0
 endloop
endfacet
facet normal 0 0 -1
 outer loop
  vertex 8.983 0.554 0
  vertex 4.915 0.919 0
  vertex 8.847 1.654 0
 endloop
endfacet
facet normal 0 0 -1
 outer loop
  vertex 8.847 1.654 0
  vertex 4.915 0.919 0
  vertex 4.765 1.516 0
 endloop
endfacet
facet normal -0 0 -1
 outer loop
  vertex 8.847 1.654 0
  vertex 4.765 1.516 0
  vertex 8.576 2.728 0
 endloop
endfacet
facet normal 0 0 -1
 outer loop
  vertex 8.576 2.728 0
  vertex 4.765 1.516 0
  vertex 4.542 2.09 0
 endloop
endfacet
facet normal -0 0 -1
 outer loop
  vertex 8.576 2.728 0
  vertex 4.542 2.09 0
  vertex 8.176 3.762 0
 endloop
endfacet
facet normal 0 0 -1
 outer loop
  vertex 8.176 3.762 0
  vertex 4.542 2.09 0
  vertex 4.251 2.632 0
 endloop
endfacet
facet normal -0 0 -1
 outer loop
  vertex 8.176 3.762 0
  vertex 4.251 2.632 0
  vertex 7.652 4.738 0
 endloop
endfacet
facet normal 0 0 -1
 outer loop
  vertex 7.652 4.738 0
  vertex 4.251 2.632 0
  vertex 3.895 3.135 0
 endloop
endfacet
facet normal -0 0 -1
 outer loop
  vertex 7.652 4.738 0
  vertex 3.895 3.135 0
  vertex 7.012 5.642 0
 endloop
endfacet
facet normal 0 0 -1
 outer loop
  vertex 7.012 5.642 0
  vertex 3.895 3.135 0
  vertex 3.481 3.59 0
 endloop
endfacet
facet normal -0 0 -1
 outer loop
  vertex 7.012 5.642 0
  vertex 3.481 3.59 0
  vertex 6.265 6.461 0
 endloop
endfacet
facet normal 0 0 -1
 outer loop
  vertex 6.265 6.461 0
  vertex 3.481 3.59 0
  vertex 3.013 3.99 0
 endloop
endfacet
facet normal -0 0 -1
 outer loop
  vertex 6.265 6.461 0
  vertex 3.013 3.99 0
  vertex 5.424 7.182 0
 endloop
endfacet
facet normal 0 0 -1
 outer loop
  vertex 5.424 7.182 0
  vertex 3.013 3.99 0
  vertex 2.5 4.33 0
 endloop
endfacet
facet normal -0 0 -1
 outer loop
  vertex 5.424 7.182 0
  vertex 2.5 4.33 0
  vertex 4.5 7.794 0
 endloop
endfacet
facet normal 0 0 -1
 outer loop
  vertex 4.5 7.794 0
  vertex 2.5 4.33 0
  vertex 1.949 4.605 0
 endloop
endfacet
facet normal -0 0 -1
 outer loop
  vertex 4.5 7.794 0
  vertex 1.949 4.605 0
  vertex 3.508 8.288 0
 endloop
endfacet
facet normal 0 0 -1
 outer loop
  vertex 3.508 8.288 0
  vertex 1.949 4.605 0
  vertex 1.368 4.809 0
 endloop
endfacet
facet normal -0 0 -1
 outer loop
  vertex 3.508 8.288 0
  vertex 1.368 4.809 0
  vertex 2.463 8.656 0
 endloop
endfacet
facet normal 0 0 -1
 outer loop
  vertex 2.463 8.656 0
  vertex 1.368 4.809 0
  vertex 0.767 4.941 0
 endloop
endfacet
facet normal -0 0 -1
 outer loop
  vertex 2.463 8.656 0
  vertex 0.767 4.941 0
  vertex 1.381 8.893 0
 endloop
endfacet
facet normal 0 0 -1
 outer loop
  vertex 1.381 8.893 0
  vertex 0.767 4.941 0
  vertex 0.154 4.998 0
 endloop
endfacet
facet normal -0 0 -1
 outer loop
  vertex 1.381 8.893 0
  vertex 0.154 4.998 0
  vertex 0.277 8.996 0
 endloop
endfacet
facet normal 0 0 -1
 outer loop
  vertex 0.277 8.996 0
  vertex 0.154 4.998 0
  vertex -0.83 8.962 0
 endloop
endfacet
facet normal -0 0 -1
 outer loop
  vertex 0.154 4.998 0
  vertex -0.461 4.979 0
  vertex -0.83 8.962 0
 endloop
endfacet
facet normal 0 -0 -1
 outer loop
  vertex -0.83 8.962 0
  vertex -0.461 4.979 0
  vertex -1.925 8.792 0
 endloop
endfacet
facet normal -0 0 -1
 outer loop
  vertex -0.461 4.979 0
  vertex -1.07 4.884 0
  vertex -1.925 8.792 0
 endloop
endfacet
facet normal 0 -0 -1
 outer loop
  vertex -1.925 8.792 0
  vertex -1.07 4.884 0
  vertex -2.991 8.488 0
 endloop
endfacet
facet normal -0 0 -1
 outer loop
  vertex -1.07 4.884 0
  vertex -1.662 4.716 0
  vertex -2.991 8.488 0
 endloop
endfacet
facet normal 0 -0 -1
 outer loop
  vertex -2.991 8.488 0
  vertex -1.662 4.716 0
  vertex -4.012 8.056 0
 endloop
endfacet
facet normal -0 0 -1
 outer loop
  vertex -1.662 4.716 0
  vertex -2.229 4.476 0
  vertex -4.012 8.056 0
 endloop
endfacet
facet normal 0 -0 -1
 outer loop
  vertex -4.012 8.056 0
  vertex -2.229 4.476 0
  vertex -4.971 7.502 0
 endloop
endfacet
facet normal -0 0 -1
 outer loop
  vertex -2.229 4.476 0
  vertex -2.762 4.168 0
  vertex -4.971 7.502 0
 endloop
endfacet
facet normal 0 -0 -1
 outer loop
  vertex -4.971 7.502 0
  vertex -2.762 4.168 0
  vertex -5.856 6.835 0
 endloop
endfacet
facet normal -0 0 -1
 outer loop
  vertex -2.762 4.168 0
  vertex -3.253 3.797 0
  vertex -5.856 6.835 0
 endloop
endfacet
facet normal 0 -0 -1
 outer loop
  vertex -5.856 6.835 0
  vertex -3.253 3.797 0
  vertex -6.651 6.063 0
 endloop
endfacet
facet normal -0 0 -1
 outer loop
  vertex -3.253 3.797 0
  vertex -3.695 3.368 0
  vertex -6.651 6.063 0
 endloop
endfacet
facet normal 0 -0 -1
 outer loop
  vertex -6.651 6.063 0
  vertex -3.695 3.368 0
  vertex -7.346 5.2 0
 endloop
endfacet
facet normal -0 0 -1
 outer loop
  vertex -3.695 3.368 0
  vertex -4.081 2.889 0
  vertex -7.346 5.2 0
 endloop
endfacet
facet normal 0 -0 -1
 outer loop
  vertex -7.346 5.2 0
  vertex -4.081 2.889 0
  vertex -7.929 4.258 0
 endloop
endfacet
facet normal -0 0 -1
 outer loop
  vertex -4.081 2.889 0
  vertex -4.405 2.365 0
  vertex -7.929 4.258 0
 endloop
endfacet
facet normal 0 -0 -1
 outer loop
  vertex -7.929 4.258 0
  vertex -4.405 2.365 0
  vertex -8.392 3.251 0
 endloop
endfacet
facet normal -0 0 -1
 outer loop
  vertex -4.405 2.365 0
  vertex -4.662 1.806 0
  vertex -8.392 3.251 0
 endloop
endfacet
facet normal 0 -0 -1
 outer loop
  vertex -8.392 3.251 0
  vertex -4.662 1.806 0
  vertex -8.728 2.195 0
 endloop
endfacet
facet normal -0 0 -1
 outer loop
  vertex -4.662 1.806 0
  vertex -4.849 1.22 0
  vertex -8.728 2.195 0
 endloop
endfacet
facet normal 0 -0 -1
 outer loop
  vertex -8.728 2.195 0
  vertex -4.849 1.22 0
  vertex -8.932 1.106 0
 endloop
endfacet
facet normal 0 0 -1
 outer loop
  vertex -4.849 1.22 0
  vertex -4.962 0.614 0
  vertex -8.932 1.106 0
 endloop
endfacet
facet normal 0 -0 -1
 outer loop
  vertex -8.932 1.106 0
  vertex -4.962 0.614 0
  vertex -9 -0 0
 endloop
endfacet
facet normal 0 0 -1
 outer loop
  vertex -4.962 0.614 0
  vertex -5 0 0
  vertex -9 -0 0
 endloop
endfacet
facet normal 0 0 -1
 outer loop
  vertex -9 -0 0
  vertex -5 0 0
  vertex -8.932 -1.106 0
 endloop
endfacet
facet normal 0 -0 -1
 outer loop
  vertex -5 0 0
  vertex -4.962 -0.614 0
  vertex -8.932 -1.106 0
 endloop
endfacet
facet normal 0 0 -1
 outer loop
  vertex -8.932 -1.106 0
  vertex -4.962 -0.614 0
  vertex -4.849 -1.22 0
 endloop
endfacet
facet normal 0 0 -1
 outer loop
  vertex -8.932 -1.106 0
  vertex -4.849 -1.22 0
  vertex -8.728 -2.195 0
 endloop
endfacet
facet normal 0 0 -1
 outer loop
  vertex -8.728 -2.195 0
  vertex -4.849 -1.22 0
  vertex -4.662 -1.806 0
 endloop
endfacet
facet normal 0 0 -1
 outer loop
  vertex -8.728 -2.195 0
  vertex -4.662 -1.806 0
  vertex -8.392 -3.251 0
 endloop
endfacet
facet normal 0 0 -1
 outer loop
  vertex -8.392 -3.251 0
  vertex -4.662 -1.806 0
  vertex -4.405 -2.365 0
 endloop
endfacet
facet normal 0 0 -1
 outer loop
  vertex -8.392 -3.251 0
  vertex -4.405 -2.365 0
  vertex -7.929 -4.258 0
 endloop
endfacet
facet normal 0 0 -1
 outer loop
  vertex -7.929 -4.258 0
  vertex -4.405 -2.365 0
  vertex -4.081 -2.889 0
 endloop
endfacet
facet normal 0 0 -1
 outer loop
  vertex -7.929 -4.258 0
  vertex -4.081 -2.889 0
  vertex -7.346 -5.2 0
 endloop
endfacet
facet normal 0 0 -1
 outer loop
  vertex -7.346 -5.2 0
  vertex -4.081 -2.889 0
  vertex -3.695 -3.368 0
 endloop
endfacet
facet normal 0 0 -1
 outer loop
  vertex -7.346 -5.2 0
  vertex -3.695 -3.368 0
  vertex -6.651 -6.063 0
 endloop
endfacet
facet normal 0 0 -1
 outer loop
  vertex -6.651 -6.063 0
  vertex -3.695 -3.368 0
  vertex -3.253 -3.797 0
 endloop
endfacet
facet normal 0 0 -1
 outer loop
  vertex -6.651 -6.063 0
  vertex -3.253 -3.797 0
  vertex -5.856 -6.835 0
 endloop
endfacet
facet normal 0 0 -1
 outer loop
  vertex -5.856 -6.835 0
  vertex -3.253 -3.797 0
  vertex -2.762 -4.168 0
 endloop
endfacet
facet normal 0 0 -1
 outer loop
  vertex -5.856 -6.835 0
  vertex -2.762 -4.168 0
  vertex -4.971 -7.502 0
 endloop
endfacet
facet normal 0 0 -1
 outer loop
  vertex -4.971 -7.502 0
  vertex -2.762 -4.168 0
  vertex -2.229 -4.476 0
 endloop
endfacet
facet normal 0 0 -1
 outer loop
  vertex -4.971 -7.502 0
  vertex -2.229 -4.476 0
  vertex -4.012 -8.056 0
 endloop
endfacet
facet normal 0 0 -1
 outer loop
  vertex -4.012 -8.056 0
  vertex -2.229 -4.476 0
  vertex -1.662 -4.716 0
 endloop
endfacet
facet normal 0 0 -1
 outer loop
  vertex -4.012 -8.056 0
  vertex -1.662 -4.716 0
  vertex -2.991 -8.488 0
 endloop
endfacet
facet normal 0 0 -1
 outer loop
  vertex -2.991 -8.488 0
  vertex -1.662 -4.716 0
  vertex -1.07 -4.884 0
 endloop
endfacet
facet normal 0 0 -1
 outer loop
  vertex -2.991 -8.488 0
  vertex -1.07 -4.884 0
  vertex -1.925 -8.792 0
 endloop
endfacet
facet normal 0 0 -1
 outer loop
  vertex -1.925 -8.792 0
  vertex -1.07 -4.884 0
  vertex -0.461 -4.979 0
 endloop
endfacet
facet normal 0 0 -1
 outer loop
  vertex -1.925 -8.792 0
  vertex -0.461 -4.979 0
  vertex -0.83 -8.962 0
 endloop
endfacet
facet normal 0 0 -1
 outer loop
  vertex -0.83 -8.962 0
  vertex -0.461 -4.979 0
  vertex 0.154 -4.998 0
 endloop
endfacet
facet normal 0 0 -1
 outer loop
  vertex -0.83 -8.962 0
  vertex 0.154 -4.998 0
  vertex 0.277 -8.996 0
 endloop
endfacet
facet normal 0 0 -1
 outer loop
  vertex 0.277 -8.996 0
  vertex 0.154 -4.998 0
  vertex 1.381 -8.893 0
 endloop
endfacet
facet normal 0 0 -1
 outer loop
  vertex 0.154 -4.998 0
  vertex 0.767 -4.941 0
  vertex 1.381 -8.893 0
 endloop
endfacet
facet normal 0 0 -1
 outer loop
  vertex 1.381 -8.893 0
  vertex 0.767 -4.941 0
  vertex 2.463 -8.656 0
 endloop
endfacet
facet normal 0 0 -1
 outer loop
  vertex 0.767 -4.941 0
  vertex 1.368 -4.809 0
  vertex 2.463 -8.656 0
 endloop
endfacet
facet normal 0 0 -1
 outer loop
  vertex 2.463 -8.656 0
  vertex 1.368 -4.809 0
  vertex 3.508 -8.288 0
 endloop
endfacet
facet normal 0 0 -1
 outer loop
  vertex 1.368 -4.809 0
  vertex 1.949 -4.605 0
  vertex 3.508 -8.288 0
 endloop
endfacet
facet normal 0 0 -1
 outer loop
  vertex 3.508 -8.288 0
  vertex 1.949 -4.605 0
  vertex 4.5 -7.794 0
 endloop
endfacet
facet normal 0 0 -1
 outer loop
  vertex 1.949 -4.605 0
  vertex 2.5 -4.33 0
  vertex 4.5 -7.794 0
 endloop
endfacet
facet normal 0 0 -1
 outer loop
  vertex 4.5 -7.794 0
  vertex 2.5 -4.33 0
  vertex 5.424 -7.182 0
 endloop
endfacet
facet normal 0 0 -1
 outer loop
  vertex 2.5 -4.33 0
  vertex 3.013 -3.99 0
  vertex 5.424 -7.182 0
 endloop
endfacet
facet normal 0 0 -1
 outer loop
  vertex 5.424 -7.182 0
  vertex 3.013 -3.99 0
  vertex 6.265 -6.461 0
 endloop
endfacet
facet normal 0 0 -1
 outer loop
  vertex 3.013 -3.99 0
  vertex 3.481 -3.59 0
  vertex 6.265 -6.461 0
 endloop
endfacet
facet normal 0 0 -1
 outer loop
  vertex 6.265 -6.461 0
  vertex 3.481 -3.59 0
  vertex 7.012 -5.642 0
 endloop
endfacet
facet normal 0 0 -1
 outer loop
  vertex 3.481 -3.59 0
  vertex 3.895 -3.135 0
  vertex 7.012 -5.642 0
 endloop
endfacet
facet normal 0 0 -1
 outer loop
  vertex 7.012 -5.642 0
  vertex 3.895 -3.135 0
  vertex 7.652 -4.738 0
 endloop
endfacet
facet normal 0 0 -1
 outer loop
  vertex 3.895 -3.135 0
  vertex 4.251 -2.632 0
  vertex 7.652 -4.738 0
 endloop
endfacet
facet normal 0 0 -1
 outer loop
  vertex 7.652 -4.738 0
  vertex 4.251 -2.632 0
  vertex 8.176 -3.762 0
 endloop
endfacet
facet normal 0 0 -1
 outer loop
  vertex 4.251 -2.632 0
  vertex 4.542 -2.09 0
  vertex 8.176 -3.762 0
 endloop
endfacet
facet normal 0 0 -1
 outer loop
  vertex 8.176 -3.762 0
  vertex 4.542 -2.09 0
  vertex 8.576 -2.728 0
 endloop
endfacet
facet normal 0 0 -1
 outer loop
  vertex 4.542 -2.09 0
  vertex 4.765 -1.516 0
  vertex 8.576 -2.728 0
 endloop
endfacet
facet normal 0 0 -1
 outer loop
  vertex 8.576 -2.728 0
  vertex 4.765 -1.516 0
  vertex 8.847 -1.654 0
 endloop
endfacet
facet normal 0 0 -1
 outer loop
  vertex 4.765 -1.516 0
  vertex 4.915 -0.919 0
  vertex 8.847 -1.654 0
 endloop
endfacet
facet normal 0 0 -1
 outer loop
  vertex 8.847 -1.654 0
  vertex 4.915 -0.919 0
  vertex 8.983 -0.554 0
 endloop
endfacet
facet normal 0 0 -1
 outer loop
  vertex 4.915 -0.919 0
  vertex 4.991 -0.308 0
  vertex 8.983 -0.554 0
 endloop
endfacet
facet normal 0 0 -1
 outer loop
  vertex 8.983 -0.554 0
  vertex 4.991 -0.308 0
  vertex 9 0 0
 endloop
endfacet
facet normal -0 0 1
 outer loop
  vertex 4.991 -0.308 1.5
  vertex 8.983 -0.554 1.5
  vertex 5 0 1.5
 endloop
endfacet
facet normal -0 0 1
 outer loop
  vertex 5 0 1.5
  vertex 8.983 -0.554 1.5
  vertex 9 0 1.5
 endloop
endfacet
facet normal 0 -0 1
 outer loop
  vertex 5 0 1.5
  vertex 9 0 1.5
  vertex 4.991 0.308 1.5
 endloop
endfacet
facet normal -0 0 1
 outer loop
  vertex 4.991 0.308 1.5
  vertex 9 0 1.5
  vertex 8.983 0.554 1.5
 endloop
endfacet
facet normal 0 -0 1
 outer loop
  vertex 4.991 0.308 1.5
  vertex 8.983 0.554 1.5
  vertex 4.915 0.919 1.5
 endloop
endfacet
facet normal -0 0 1
 outer loop
  vertex 4.915 0.919 1.5
  vertex 8.983 0.554 1.5
  vertex 8.847 1.654 1.5
 endloop
endfacet
facet normal 0 -0 1
 outer loop
  vertex 4.915 0.919 1.5
  vertex 8.847 1.654 1.5
  vertex 4.765 1.516 1.5
 endloop
endfacet
facet normal 0 0 1
 outer loop
  vertex 4.765 1.516 1.5
  vertex 8.847 1.654 1.5
  vertex 8.576 2.728 1.5
 endloop
endfacet
facet normal 0 -0 1
 outer loop
  vertex 4.765 1.516 1.5
  vertex 8.576 2.728 1.5
  vertex 4.542 2.09 1.5
 endloop
endfacet
facet normal 0 0 1
 outer loop
  vertex 4.542 2.09 1.5
  vertex 8.576 2.728 1.5
  vertex 8.176 3.762 1.5
 endloop
endfacet
facet normal 0 -0 1
 outer loop
  vertex 4.542 2.09 1.5
  vertex 8.176 3.762 1.5
  vertex 4.251 2.632 1.5
 endloop
endfacet
facet normal 0 0 1
 outer loop
  vertex 4.251 2.632 1.5
  vertex 8.176 3.762 1.5
  vertex 7.652 4.738 1.5
 endloop
endfacet
facet normal 0 -0 1
 outer loop
  vertex 4.251 2.632 1.5
  vertex 7.652 4.738 1.5
  vertex 3.895 3.135 1.5
 endloop
endfacet
facet normal 0 0 1
 outer loop
  vertex 3.895 3.135 1.5
  vertex 7.652 4.738 1.5
  vertex 7.012 5.642 1.5
 endloop
endfacet
facet normal 0 -0 1
 outer loop
  vertex 3.895 3.135 1.5
  vertex 7.012 5.642 1.5
  vertex 3.481 3.59 1.5
 endloop
endfacet
facet normal 0 0 1
 outer loop
  vertex 3.481 3.59 1.5
  vertex 7.012 5.642 1.5
  vertex 6.265 6.461 1.5
 endloop
endfacet
facet normal 0 -0 1
 outer loop
  vertex 3.481 3.59 1.5
  vertex 6.265 6.461 1.5
  vertex 3.013 3.99 1.5
 endloop
endfacet
facet normal 0 0 1
 outer loop
  vertex 3.013 3.99 1.5
  vertex 6.265 6.461 1.5
  vertex 5.424 7.182 1.5
 endloop
endfacet
facet normal 0 -0 1
 outer loop
  vertex 3.013 3.99 1.5
  vertex 5.424 7.182 1.5
  vertex 2.5 4.33 1.5
 endloop
endfacet
facet normal 0 0 1
 outer loop
  vertex 2.5 4.33 1.5
  vertex 5.424 7.182 1.5
  vertex 4.5 7.794 1.5
 endloop
endfacet
facet normal 0 -0 1
 outer loop
  vertex 2.5 4.33 1.5
  vertex 4.5 7.794 1.5
  vertex 1.949 4.605 1.5
 endloop
endfacet
facet normal 0 0 1
 outer loop
  vertex 1.949 4.605 1.5
  vertex 4.5 7.794 1.5
  vertex 3.508 8.288 1.5
 endloop
endfacet
facet normal 0 -0 1
 outer loop
  vertex 1.949 4.605 1.5
  vertex 3.508 8.288 1.5
  vertex 1.368 4.809 1.5
 endloop
endfacet
facet normal 0 0 1
 outer loop
  vertex 1.368 4.809 1.5
  vertex 3.508 8.288 1.5
  vertex 2.463 8.656 1.5
 endloop
endfacet
facet normal 0 -0 1
 outer loop
  vertex 1.368 4.809 1.5
  vertex 2.463 8.656 1.5
  vertex 0.767 4.941 1.5
 endloop
endfacet
facet normal 0 0 1
 outer loop
  vertex 0.767 4.941 1.5
  vertex 2.463 8.656 1.5
  vertex 1.381 8.893 1.5
 endloop
endfacet
facet normal 0 -0 1
 outer loop
  vertex 0.767 4.941 1.5
  vertex 1.381 8.893 1.5
  vertex 0.154 4.998 1.5
 endloop
endfacet
facet normal 0 0 1
 outer loop
  vertex 0.154 4.998 1.5
  vertex 1.381 8.893 1.5
  vertex 0.277 8.996 1.5
 endloop
endfacet
facet normal 0 -0 1
 outer loop
  vertex 0.154 4.998 1.5
  vertex 0.277 8.996 1.5
  vertex -0.83 8.962 1.5
 endloop
endfacet
facet normal 0 0 1
 outer loop
  vertex 4.991 -0.308 1.5
  vertex 4.915 -0.919 1.5
  vertex 8.983 -0.554 1.5
 endloop
endfacet
facet normal 0 0 1
 outer loop
  vertex 8.983 -0.554 1.5
  vertex 4.915 -0.919 1.5
  vertex 8.847 -1.654 1.5
 endloop
endfacet
facet normal 0 0 1
 outer loop
  vertex 4.915 -0.919 1.5
  vertex 4.765 -1.516 1.5
  vertex 8.847 -1.654 1.5
 endloop
endfacet
facet normal 0 0 1
 outer loop
  vertex 8.847 -1.654 1.5
  vertex 4.765 -1.516 1.5
  vertex 8.576 -2.728 1.5
 endloop
endfacet
facet normal 0 0 1
 outer loop
  vertex 4.765 -1.516 1.5
  vertex 4.542 -2.09 1.5
  vertex 8.576 -2.728 1.5
 endloop
endfacet
facet normal 0 0 1
 outer loop
  vertex 8.576 -2.728 1.5
  vertex 4.542 -2.09 1.5
  vertex 8.176 -3.762 1.5
 endloop
endfacet
facet normal 0 0 1
 outer loop
  vertex 4.542 -2.09 1.5
  vertex 4.251 -2.632 1.5
  vertex 8.176 -3.762 1.5
 endloop
endfacet
facet normal 0 0 1
 outer loop
  vertex 8.176 -3.762 1.5
  vertex 4.251 -2.632 1.5
  vertex 7.652 -4.738 1.5
 endloop
endfacet
facet normal 0 0 1
 outer loop
  vertex 4.251 -2.632 1.5
  vertex 3.895 -3.135 1.5
  vertex 7.652 -4.738 1.5
 endloop
endfacet
facet normal 0 0 1
 outer loop
  vertex 7.652 -4.738 1.5
  vertex 3.895 -3.135 1.5
  vertex 7.012 -5.642 1.5
 endloop
endfacet
facet normal 0 0 1
 outer loop
  vertex 3.895 -3.135 1.5
  vertex 3.481 -3.59 1.5
  vertex 7.012 -5.642 1.5
 endloop
endfacet
facet normal 0 0 1
 outer loop
  vertex 7.012 -5.642 1.5
  vertex 3.481 -3.59 1.5
  vertex 6.265 -6.461 1.5
 endloop
endfacet
facet normal 0 0 1
 outer loop
  vertex 3.481 -3.59 1.5
  vertex 3.013 -3.99 1.5
  vertex 6.265 -6.461 1.5
 endloop
endfacet
facet normal 0 0 1
 outer loop
  vertex 6.265 -6.461 1.5
  vertex 3.013 -3.99 1.5
  vertex 5.424 -7.182 1.5
 endloop
endfacet
facet normal 0 0 1
 outer loop
  vertex 3.013 -3.99 1.5
  vertex 2.5 -4.33 1.5
  vertex 5.424 -7.182 1.5
 endloop
endfacet
facet normal 0 0 1
 outer loop
  vertex 5.424 -7.182 1.5
  vertex 2.5 -4.33 1.5
  vertex 4.5 -7.794 1.5
 endloop
endfacet
facet normal 0 0 1
 outer loop
  vertex 2.5 -4.33 1.5
  vertex 1.949 -4.605 1.5
  vertex 4.5 -7.794 1.5
 endloop
endfacet
facet normal 0 0 1
 outer loop
  vertex 4.5 -7.794 1.5
  vertex 1.949 -4.605 1.5
  vertex 3.508 -8.288 1.5
 endloop
endfacet
facet normal 0 0 1
 outer loop
  vertex 1.949 -4.605 1.5
  vertex 1.368 -4.809 1.5
  vertex 3.508 -8.288 1.5
 endloop
endfacet
facet normal 0 0 1
 outer loop
  vertex 3.508 -8.288 1.5
  vertex 1.368 -4.809 1.5
  vertex 2.463 -8.656 1.5
 endloop
endfacet
facet normal 0 0 1
 outer loop
  vertex 1.368 -4.809 1.5
  vertex 0.767 -4.941 1.5
  vertex 2.463 -8.656 1.5
 endloop
endfacet
facet normal 0 0 1
 outer loop
  vertex 2.463 -8.656 1.5
  vertex 0.767 -4.941 1.5
  vertex 1.381 -8.893 1.5
 endloop
endfacet
facet normal 0 0 1
 outer loop
  vertex 0.767 -4.941 1.5
  vertex 0.154 -4.998 1.5
  vertex 1.381 -8.893 1.5
 endloop
endfacet
facet normal 0 0 1
 outer loop
  vertex 1.381 -8.893 1.5
  vertex 0.154 -4.998 1.5
  vertex 0.277 -8.996 1.5
 endloop
endfacet
facet normal 0 0 1
 outer loop
  vertex 0.277 -8.996 1.5
  vertex 0.154 -4.998 1.5
  vertex -0.83 -8.962 1.5
 endloop
endfacet
facet normal 0 0 1
 outer loop
  vertex -0.83 -8.962 1.5
  vertex 0.154 -4.998 1.5
  vertex -0.461 -4.979 1.5
 endloop
endfacet
facet normal 0 -0 1
 outer loop
  vertex -0.83 -8.962 1.5
  vertex -0.461 -4.979 1.5
  vertex -1.925 -8.792 1.5
 endloop
endfacet
facet normal 0 0 1
 outer loop
  vertex -1.925 -8.792 1.5
  vertex -0.461 -4.979 1.5
  vertex -1.07 -4.884 1.5
 endloop
endfacet
facet normal 0 -0 1
 outer loop
  vertex -1.925 -8.792 1.5
  vertex -1.07 -4.884 1.5
  vertex -2.991 -8.488 1.5
 endloop
endfacet
facet normal 0 0 1
 outer loop
  vertex -2.991 -8.488 1.5
  vertex -1.07 -4.884 1.5
  vertex -1.662 -4.716 1.5
 endloop
endfacet
facet normal 0 -0 1
 outer loop
  vertex -2.991 -8.488 1.5
  vertex -1.662 -4.716 1.5
  vertex -4.012 -8.056 1.5
 endloop
endfacet
facet normal 0 0 1
 outer loop
  vertex -4.012 -8.056 1.5
  vertex -1.662 -4.716 1.5
  vertex -2.229 -4.476 1.5
 endloop
endfacet
facet normal 0 -0 1
 outer loop
  vertex -4.012 -8.056 1.5
  vertex -2.229 -4.476 1.5
  vertex -4.971 -7.502 1.5
 endloop
endfacet
facet normal 0 0 1
 outer loop
  vertex -4.971 -7.502 1.5
  vertex -2.229 -4.476 1.5
  vertex -2.762 -4.168 1.5
 endloop
endfacet
facet normal 0 -0 1
 outer loop
  vertex -4.971 -7.502 1.5
  vertex -2.762 -4.168 1.5
  vertex -5.856 -6.835 1.5
 endloop
endfacet
facet normal 0 0 1
 outer loop
  vertex -5.856 -6.835 1.5
  vertex -2.762 -4.168 1.5
  vertex -3.253 -3.797 1.5
 endloop
endfacet
facet normal 0 -0 1
 outer loop
  vertex -5.856 -6.835 1.5
  vertex -3.253 -3.797 1.5
  vertex -6.651 -6.063 1.5
 endloop
endfacet
facet normal 0 0 1
 outer loop
  vertex -6.651 -6.063 1.5
  vertex -3.253 -3.797 1.5
  vertex -3.695 -3.368 1.5
 endloop
endfacet
facet normal 0 -0 1
 outer loop
  vertex -6.651 -6.063 1.5
  vertex -3.695 -3.368 1.5
  vertex -7.346 -5.2 1.5
 endloop
endfacet
facet normal 0 0 1
 outer loop
  vertex -7.346 -5.2 1.5
  vertex -3.695 -3.368 1.5
  vertex -4.081 -2.889 1.5
 endloop
endfacet
facet normal 0 -0 1
 outer loop
  vertex -7.346 -5.2 1.5
  vertex -4.081 -2.889 1.5
  vertex -7.929 -4.258 1.5
 endloop
endfacet
facet normal 0 0 1
 outer loop
  vertex -7.929 -4.258 1.5
  vertex -4.081 -2.889 1.5
  vertex -4.405 -2.365 1.5
 endloop
endfacet
facet normal 0 -0 1
 outer loop
  vertex -7.929 -4.258 1.5
  vertex -4.405 -2.365 1.5
  vertex -8.392 -3.251 1.5
 endloop
endfacet
facet normal 0 0 1
 outer loop
  vertex -8.392 -3.251 1.5
  vertex -4.405 -2.365 1.5
  vertex -4.662 -1.806 1.5
 endloop
endfacet
facet normal 0 -0 1
 outer loop
  vertex -8.392 -3.251 1.5
  vertex -4.662 -1.806 1.5
  vertex -8.728 -2.195 1.5
 endloop
endfacet
facet normal 0 0 1
 outer loop
  vertex -8.728 -2.195 1.5
  vertex -4.662 -1.806 1.5
  vertex -4.849 -1.22 1.5
 endloop
endfacet
facet normal 0 -0 1
 outer loop
  vertex -8.728 -2.195 1.5
  vertex -4.849 -1.22 1.5
  vertex -8.932 -1.106 1.5
 endloop
endfacet
facet normal -0 0 1
 outer loop
  vertex -8.932 -1.106 1.5
  vertex -4.849 -1.22 1.5
  vertex -4.962 -0.614 1.5
 endloop
endfacet
facet normal 0 -0 1
 outer loop
  vertex -8.932 -1.106 1.5
  vertex -4.962 -0.614 1.5
  vertex -9 0 1.5
 endloop
endfacet
facet normal 0 0 1
 outer loop
  vertex -9 0 1.5
  vertex -4.962 -0.614 1.5
  vertex -5 -0 1.5
 endloop
endfacet
facet normal -0 0 1
 outer loop
  vertex -9 0 1.5
  vertex -5 -0 1.5
  vertex -4.962 0.614 1.5
 endloop
endfacet
facet normal 0 0 1
 outer loop
  vertex -9 0 1.5
  vertex -4.962 0.614 1.5
  vertex -8.932 1.106 1.5
 endloop
endfacet
facet normal -0 0 1
 outer loop
  vertex -8.932 1.106 1.5
  vertex -4.962 0.614 1.5
  vertex -4.849 1.22 1.5
 endloop
endfacet
facet normal 0 0 1
 outer loop
  vertex -8.932 1.106 1.5
  vertex -4.849 1.22 1.5
  vertex -8.728 2.195 1.5
 endloop
endfacet
facet normal 0 0 1
 outer loop
  vertex -8.728 2.195 1.5
  vertex -4.849 1.22 1.5
  vertex -4.662 1.806 1.5
 endloop
endfacet
facet normal -0 0 1
 outer loop
  vertex -8.728 2.195 1.5
  vertex -4.662 1.806 1.5
  vertex -8.392 3.251 1.5
 endloop
endfacet
facet normal 0 0 1
 outer loop
  vertex -8.392 3.251 1.5
  vertex -4.662 1.806 1.5
  vertex -4.405 2.365 1.5
 endloop
endfacet
facet normal -0 0 1
 outer loop
  vertex -8.392 3.251 1.5
  vertex -4.405 2.365 1.5
  vertex -7.929 4.258 1.5
 endloop
endfacet
facet normal 0 0 1
 outer loop
  vertex -7.929 4.258 1.5
  vertex -4.405 2.365 1.5
  vertex -4.081 2.889 1.5
 endloop
endfacet
facet normal -0 0 1
 outer loop
  vertex -7.929 4.258 1.5
  vertex -4.081 2.889 1.5
  vertex -7.346 5.2 1.5
 endloop
endfacet
facet normal 0 0 1
 outer loop
  vertex -7.346 5.2 1.5
  vertex -4.081 2.889 1.5
  vertex -3.695 3.368 1.5
 endloop
endfacet
facet normal -0 0 1
 outer loop
  vertex -7.346 5.2 1.5
  vertex -3.695 3.368 1.5
  vertex -6.651 6.063 1.5
 endloop
endfacet
facet normal 0 0 1
 outer loop
  vertex -6.651 6.063 1.5
  vertex -3.695 3.368 1.5
  vertex -3.253 3.797 1.5
 endloop
endfacet
facet normal -0 0 1
 outer loop
  vertex -6.651 6.063 1.5
  vertex -3.253 3.797 1.5
  vertex -5.856 6.835 1.5
 endloop
endfacet
facet normal 0 0 1
 outer loop
  vertex -5.856 6.835 1.5
  vertex -3.253 3.797 1.5
  vertex -2.762 4.168 1.5
 endloop
endfacet
facet normal -0 0 1
 outer loop
  vertex -5.856 6.835 1.5
  vertex -2.762 4.168 1.5
  vertex -4.971 7.502 1.5
 endloop
endfacet
facet normal 0 0 1
 outer loop
  vertex -4.971 7.502 1.5
  vertex -2.762 4.168 1.5
  vertex -2.229 4.476 1.5
 endloop
endfacet
facet normal -0 0 1
 outer loop
  vertex -4.971 7.502 1.5
  vertex -2.229 4.476 1.5
  vertex -4.012 8.056 1.5
 endloop
endfacet
facet normal 0 0 1
 outer loop
  vertex -4.012 8.056 1.5
  vertex -2.229 4.476 1.5
  vertex -1.662 4.716 1.5
 endloop
endfacet
facet normal -0 0 1
 outer loop
  vertex -4.012 8.056 1.5
  vertex -1.662 4.716 1.5
  vertex -2.991 8.488 1.5
 endloop
endfacet
facet normal 0 0 1
 outer loop
  vertex -2.991 8.488 1.5
  vertex -1.662 4.716 1.5
  vertex -1.07 4.884 1.5
 endloop
endfacet
facet normal -0 0 1
 outer loop
  vertex -2.991 8.488 1.5
  vertex -1.07 4.884 1.5
  vertex -1.925 8.792 1.5
 endloop
endfacet
facet normal 0 0 1
 outer loop
  vertex -1.925 8.792 1.5
  vertex -1.07 4.884 1.5
  vertex -0.461 4.979 1.5
 endloop
endfacet
facet normal -0 0 1
 outer loop
  vertex -1.925 8.792 1.5
  vertex -0.461 4.979 1.5
  vertex -0.83 8.962 1.5
 endloop
endfacet
facet normal 0 0 1
 outer loop
  vertex -0.83 8.962 1.5
  vertex -0.461 4.979 1.5
  vertex 0.154 4.998 1.5
 endloop
endfacet
endsolid CADClick
