solid CADClick
facet normal 0 0 -1
 outer loop
  vertex 0.098 -3.173 0
  vertex 0.082 -2.669 0
  vertex 0.487 -3.137 0
 endloop
endfacet
facet normal 0 0 -1
 outer loop
  vertex 0.487 -3.137 0
  vertex 0.082 -2.669 0
  vertex 0.41 -2.638 0
 endloop
endfacet
facet normal 0 0 -1
 outer loop
  vertex 0.487 -3.137 0
  vertex 0.41 -2.638 0
  vertex 0.869 -3.054 0
 endloop
endfacet
facet normal 0 0 -1
 outer loop
  vertex 0.869 -3.054 0
  vertex 0.41 -2.638 0
  vertex 0.731 -2.568 0
 endloop
endfacet
facet normal 0 0 -1
 outer loop
  vertex 0.869 -3.054 0
  vertex 0.731 -2.568 0
  vertex 1.238 -2.924 0
 endloop
endfacet
facet normal 0 0 -1
 outer loop
  vertex 1.238 -2.924 0
  vertex 0.731 -2.568 0
  vertex 1.041 -2.459 0
 endloop
endfacet
facet normal 0 0 -1
 outer loop
  vertex 1.238 -2.924 0
  vertex 1.041 -2.459 0
  vertex 1.587 -2.75 0
 endloop
endfacet
facet normal 0 0 -1
 outer loop
  vertex 1.587 -2.75 0
  vertex 1.041 -2.459 0
  vertex 1.335 -2.312 0
 endloop
endfacet
facet normal 0 0 -1
 outer loop
  vertex 1.587 -2.75 0
  vertex 1.335 -2.312 0
  vertex 1.913 -2.534 0
 endloop
endfacet
facet normal 0 0 -1
 outer loop
  vertex 1.913 -2.534 0
  vertex 1.335 -2.312 0
  vertex 1.609 -2.131 0
 endloop
endfacet
facet normal 0 0 -1
 outer loop
  vertex 1.913 -2.534 0
  vertex 1.609 -2.131 0
  vertex 2.21 -2.279 0
 endloop
endfacet
facet normal 0 0 -1
 outer loop
  vertex 2.21 -2.279 0
  vertex 1.609 -2.131 0
  vertex 1.859 -1.917 0
 endloop
endfacet
facet normal 0 0 -1
 outer loop
  vertex 2.21 -2.279 0
  vertex 1.859 -1.917 0
  vertex 2.474 -1.99 0
 endloop
endfacet
facet normal 0 0 -1
 outer loop
  vertex 2.474 -1.99 0
  vertex 1.859 -1.917 0
  vertex 2.08 -1.674 0
 endloop
endfacet
facet normal 0 0 -1
 outer loop
  vertex 2.474 -1.99 0
  vertex 2.08 -1.674 0
  vertex 2.699 -1.671 0
 endloop
endfacet
facet normal -0 0 -1
 outer loop
  vertex 2.699 -1.671 0
  vertex 2.08 -1.674 0
  vertex 2.27 -1.406 0
 endloop
endfacet
facet normal 0 0 -1
 outer loop
  vertex 2.699 -1.671 0
  vertex 2.27 -1.406 0
  vertex 2.884 -1.327 0
 endloop
endfacet
facet normal -0 0 -1
 outer loop
  vertex 2.884 -1.327 0
  vertex 2.27 -1.406 0
  vertex 2.426 -1.116 0
 endloop
endfacet
facet normal 0 0 -1
 outer loop
  vertex 2.884 -1.327 0
  vertex 2.426 -1.116 0
  vertex 3.026 -0.963 0
 endloop
endfacet
facet normal -0 0 -1
 outer loop
  vertex 3.026 -0.963 0
  vertex 2.426 -1.116 0
  vertex 2.544 -0.809 0
 endloop
endfacet
facet normal 0 0 -1
 outer loop
  vertex 3.026 -0.963 0
  vertex 2.544 -0.809 0
  vertex 3.121 -0.583 0
 endloop
endfacet
facet normal -0 0 -1
 outer loop
  vertex 3.121 -0.583 0
  vertex 2.544 -0.809 0
  vertex 2.624 -0.491 0
 endloop
endfacet
facet normal 0 0 -1
 outer loop
  vertex 3.121 -0.583 0
  vertex 2.624 -0.491 0
  vertex 3.169 -0.195 0
 endloop
endfacet
facet normal -0 0 -1
 outer loop
  vertex 3.169 -0.195 0
  vertex 2.624 -0.491 0
  vertex 2.665 -0.164 0
 endloop
endfacet
facet normal 0 0 -1
 outer loop
  vertex 3.169 -0.195 0
  vertex 2.665 -0.164 0
  vertex 3.175 0 0
 endloop
endfacet
facet normal -0 0 -1
 outer loop
  vertex 3.175 0 0
  vertex 2.665 -0.164 0
  vertex 2.67 0 0
 endloop
endfacet
facet normal 0 0 -1
 outer loop
  vertex 3.175 0 0
  vertex 2.67 0 0
  vertex 2.665 0.164 0
 endloop
endfacet
facet normal 0 0 -1
 outer loop
  vertex 0.098 -3.173 0
  vertex -0.293 -3.161 0
  vertex 0.082 -2.669 0
 endloop
endfacet
facet normal -0 0 -1
 outer loop
  vertex 0.082 -2.669 0
  vertex -0.293 -3.161 0
  vertex -0.246 -2.659 0
 endloop
endfacet
facet normal 0 0 -1
 outer loop
  vertex -0.293 -3.161 0
  vertex -0.679 -3.101 0
  vertex -0.246 -2.659 0
 endloop
endfacet
facet normal -0 0 -1
 outer loop
  vertex -0.246 -2.659 0
  vertex -0.679 -3.101 0
  vertex -0.571 -2.608 0
 endloop
endfacet
facet normal 0 0 -1
 outer loop
  vertex -0.679 -3.101 0
  vertex -1.055 -2.995 0
  vertex -0.571 -2.608 0
 endloop
endfacet
facet normal -0 0 -1
 outer loop
  vertex -0.571 -2.608 0
  vertex -1.055 -2.995 0
  vertex -0.887 -2.518 0
 endloop
endfacet
facet normal 0 0 -1
 outer loop
  vertex -1.055 -2.995 0
  vertex -1.415 -2.842 0
  vertex -0.887 -2.518 0
 endloop
endfacet
facet normal -0 0 -1
 outer loop
  vertex -0.887 -2.518 0
  vertex -1.415 -2.842 0
  vertex -1.19 -2.39 0
 endloop
endfacet
facet normal 0 0 -1
 outer loop
  vertex -1.415 -2.842 0
  vertex -1.754 -2.647 0
  vertex -1.19 -2.39 0
 endloop
endfacet
facet normal -0 0 -1
 outer loop
  vertex -1.19 -2.39 0
  vertex -1.754 -2.647 0
  vertex -1.475 -2.226 0
 endloop
endfacet
facet normal 0 0 -1
 outer loop
  vertex -1.754 -2.647 0
  vertex -2.066 -2.411 0
  vertex -1.475 -2.226 0
 endloop
endfacet
facet normal -0 0 -1
 outer loop
  vertex -1.475 -2.226 0
  vertex -2.066 -2.411 0
  vertex -1.737 -2.028 0
 endloop
endfacet
facet normal 0 0 -1
 outer loop
  vertex -2.066 -2.411 0
  vertex -2.346 -2.139 0
  vertex -1.737 -2.028 0
 endloop
endfacet
facet normal -0 0 -1
 outer loop
  vertex -1.737 -2.028 0
  vertex -2.346 -2.139 0
  vertex -1.973 -1.799 0
 endloop
endfacet
facet normal 0 0 -1
 outer loop
  vertex -2.346 -2.139 0
  vertex -2.591 -1.834 0
  vertex -1.973 -1.799 0
 endloop
endfacet
facet normal -0 0 -1
 outer loop
  vertex -1.973 -1.799 0
  vertex -2.591 -1.834 0
  vertex -2.179 -1.543 0
 endloop
endfacet
facet normal 0 0 -1
 outer loop
  vertex -2.591 -1.834 0
  vertex -2.797 -1.502 0
  vertex -2.179 -1.543 0
 endloop
endfacet
facet normal 0 0 -1
 outer loop
  vertex -2.179 -1.543 0
  vertex -2.797 -1.502 0
  vertex -2.352 -1.263 0
 endloop
endfacet
facet normal 0 0 -1
 outer loop
  vertex -2.797 -1.502 0
  vertex -2.961 -1.147 0
  vertex -2.352 -1.263 0
 endloop
endfacet
facet normal 0 0 -1
 outer loop
  vertex -2.352 -1.263 0
  vertex -2.961 -1.147 0
  vertex -2.49 -0.964 0
 endloop
endfacet
facet normal 0 0 -1
 outer loop
  vertex -2.961 -1.147 0
  vertex -3.079 -0.774 0
  vertex -2.49 -0.964 0
 endloop
endfacet
facet normal 0 0 -1
 outer loop
  vertex -2.49 -0.964 0
  vertex -3.079 -0.774 0
  vertex -2.589 -0.651 0
 endloop
endfacet
facet normal 0 0 -1
 outer loop
  vertex -3.079 -0.774 0
  vertex -3.151 -0.39 0
  vertex -2.589 -0.651 0
 endloop
endfacet
facet normal 0 0 -1
 outer loop
  vertex -2.589 -0.651 0
  vertex -3.151 -0.39 0
  vertex -2.65 -0.328 0
 endloop
endfacet
facet normal -0 0 -1
 outer loop
  vertex -2.65 -0.328 0
  vertex -3.151 -0.39 0
  vertex -2.67 0 0
 endloop
endfacet
facet normal -0 0 -1
 outer loop
  vertex -2.67 0 0
  vertex -3.151 -0.39 0
  vertex -3.175 0 0
 endloop
endfacet
facet normal 0 0 -1
 outer loop
  vertex -2.67 0 0
  vertex -3.175 0 0
  vertex -2.65 0.328 0
 endloop
endfacet
facet normal -0 0 -1
 outer loop
  vertex -2.65 0.328 0
  vertex -3.175 0 0
  vertex -3.151 0.39 0
 endloop
endfacet
facet normal 0 0 -1
 outer loop
  vertex -2.65 0.328 0
  vertex -3.151 0.39 0
  vertex -2.589 0.651 0
 endloop
endfacet
facet normal -0 0 -1
 outer loop
  vertex -2.589 0.651 0
  vertex -3.151 0.39 0
  vertex -3.079 0.774 0
 endloop
endfacet
facet normal 0 0 -1
 outer loop
  vertex -2.589 0.651 0
  vertex -3.079 0.774 0
  vertex -2.49 0.964 0
 endloop
endfacet
facet normal -0 0 -1
 outer loop
  vertex -2.49 0.964 0
  vertex -3.079 0.774 0
  vertex -2.961 1.147 0
 endloop
endfacet
facet normal 0 0 -1
 outer loop
  vertex -2.49 0.964 0
  vertex -2.961 1.147 0
  vertex -2.352 1.263 0
 endloop
endfacet
facet normal -0 0 -1
 outer loop
  vertex -2.352 1.263 0
  vertex -2.961 1.147 0
  vertex -2.797 1.502 0
 endloop
endfacet
facet normal 0 0 -1
 outer loop
  vertex -2.352 1.263 0
  vertex -2.797 1.502 0
  vertex -2.179 1.543 0
 endloop
endfacet
facet normal -0 0 -1
 outer loop
  vertex -2.179 1.543 0
  vertex -2.797 1.502 0
  vertex -2.591 1.834 0
 endloop
endfacet
facet normal 0 0 -1
 outer loop
  vertex -2.179 1.543 0
  vertex -2.591 1.834 0
  vertex -1.973 1.799 0
 endloop
endfacet
facet normal 0 0 -1
 outer loop
  vertex -1.973 1.799 0
  vertex -2.591 1.834 0
  vertex -2.346 2.139 0
 endloop
endfacet
facet normal 0 0 -1
 outer loop
  vertex -1.973 1.799 0
  vertex -2.346 2.139 0
  vertex -1.737 2.028 0
 endloop
endfacet
facet normal 0 0 -1
 outer loop
  vertex -1.737 2.028 0
  vertex -2.346 2.139 0
  vertex -2.066 2.411 0
 endloop
endfacet
facet normal 0 0 -1
 outer loop
  vertex -1.737 2.028 0
  vertex -2.066 2.411 0
  vertex -1.475 2.226 0
 endloop
endfacet
facet normal 0 0 -1
 outer loop
  vertex -1.475 2.226 0
  vertex -2.066 2.411 0
  vertex -1.754 2.647 0
 endloop
endfacet
facet normal 0 0 -1
 outer loop
  vertex -1.475 2.226 0
  vertex -1.754 2.647 0
  vertex -1.19 2.39 0
 endloop
endfacet
facet normal 0 0 -1
 outer loop
  vertex -1.19 2.39 0
  vertex -1.754 2.647 0
  vertex -1.415 2.842 0
 endloop
endfacet
facet normal 0 0 -1
 outer loop
  vertex -1.19 2.39 0
  vertex -1.415 2.842 0
  vertex -0.887 2.518 0
 endloop
endfacet
facet normal 0 0 -1
 outer loop
  vertex -0.887 2.518 0
  vertex -1.415 2.842 0
  vertex -1.055 2.995 0
 endloop
endfacet
facet normal 0 0 -1
 outer loop
  vertex -0.887 2.518 0
  vertex -1.055 2.995 0
  vertex -0.571 2.608 0
 endloop
endfacet
facet normal 0 0 -1
 outer loop
  vertex -0.571 2.608 0
  vertex -1.055 2.995 0
  vertex -0.679 3.101 0
 endloop
endfacet
facet normal 0 0 -1
 outer loop
  vertex -0.571 2.608 0
  vertex -0.679 3.101 0
  vertex -0.246 2.659 0
 endloop
endfacet
facet normal 0 0 -1
 outer loop
  vertex -0.246 2.659 0
  vertex -0.679 3.101 0
  vertex -0.293 3.161 0
 endloop
endfacet
facet normal 0 0 -1
 outer loop
  vertex -0.246 2.659 0
  vertex -0.293 3.161 0
  vertex 0.082 2.669 0
 endloop
endfacet
facet normal 0 0 -1
 outer loop
  vertex 0.082 2.669 0
  vertex -0.293 3.161 0
  vertex 0.098 3.173 0
 endloop
endfacet
facet normal 0 0 -1
 outer loop
  vertex 0.082 2.669 0
  vertex 0.098 3.173 0
  vertex 0.487 3.137 0
 endloop
endfacet
facet normal 0 0 -1
 outer loop
  vertex 0.082 2.669 0
  vertex 0.487 3.137 0
  vertex 0.41 2.638 0
 endloop
endfacet
facet normal 0 0 -1
 outer loop
  vertex 0.41 2.638 0
  vertex 0.487 3.137 0
  vertex 0.869 3.054 0
 endloop
endfacet
facet normal 0 0 -1
 outer loop
  vertex 0.41 2.638 0
  vertex 0.869 3.054 0
  vertex 0.731 2.568 0
 endloop
endfacet
facet normal 0 0 -1
 outer loop
  vertex 0.731 2.568 0
  vertex 0.869 3.054 0
  vertex 1.238 2.924 0
 endloop
endfacet
facet normal 0 0 -1
 outer loop
  vertex 0.731 2.568 0
  vertex 1.238 2.924 0
  vertex 1.041 2.459 0
 endloop
endfacet
facet normal 0 0 -1
 outer loop
  vertex 1.041 2.459 0
  vertex 1.238 2.924 0
  vertex 1.587 2.75 0
 endloop
endfacet
facet normal 0 0 -1
 outer loop
  vertex 1.041 2.459 0
  vertex 1.587 2.75 0
  vertex 1.335 2.312 0
 endloop
endfacet
facet normal 0 0 -1
 outer loop
  vertex 1.335 2.312 0
  vertex 1.587 2.75 0
  vertex 1.913 2.534 0
 endloop
endfacet
facet normal 0 0 -1
 outer loop
  vertex 1.335 2.312 0
  vertex 1.913 2.534 0
  vertex 1.609 2.131 0
 endloop
endfacet
facet normal 0 0 -1
 outer loop
  vertex 1.609 2.131 0
  vertex 1.913 2.534 0
  vertex 2.21 2.279 0
 endloop
endfacet
facet normal 0 0 -1
 outer loop
  vertex 1.609 2.131 0
  vertex 2.21 2.279 0
  vertex 1.859 1.917 0
 endloop
endfacet
facet normal 0 0 -1
 outer loop
  vertex 1.859 1.917 0
  vertex 2.21 2.279 0
  vertex 2.474 1.99 0
 endloop
endfacet
facet normal 0 0 -1
 outer loop
  vertex 1.859 1.917 0
  vertex 2.474 1.99 0
  vertex 2.08 1.674 0
 endloop
endfacet
facet normal 0 0 -1
 outer loop
  vertex 2.08 1.674 0
  vertex 2.474 1.99 0
  vertex 2.699 1.671 0
 endloop
endfacet
facet normal 0 0 -1
 outer loop
  vertex 2.08 1.674 0
  vertex 2.699 1.671 0
  vertex 2.27 1.406 0
 endloop
endfacet
facet normal 0 0 -1
 outer loop
  vertex 2.27 1.406 0
  vertex 2.699 1.671 0
  vertex 2.884 1.327 0
 endloop
endfacet
facet normal 0 0 -1
 outer loop
  vertex 2.27 1.406 0
  vertex 2.884 1.327 0
  vertex 2.426 1.116 0
 endloop
endfacet
facet normal 0 0 -1
 outer loop
  vertex 2.426 1.116 0
  vertex 2.884 1.327 0
  vertex 3.026 0.963 0
 endloop
endfacet
facet normal 0 0 -1
 outer loop
  vertex 2.426 1.116 0
  vertex 3.026 0.963 0
  vertex 2.544 0.809 0
 endloop
endfacet
facet normal 0 0 -1
 outer loop
  vertex 2.544 0.809 0
  vertex 3.026 0.963 0
  vertex 3.121 0.583 0
 endloop
endfacet
facet normal 0 0 -1
 outer loop
  vertex 2.544 0.809 0
  vertex 3.121 0.583 0
  vertex 2.624 0.491 0
 endloop
endfacet
facet normal 0 0 -1
 outer loop
  vertex 2.624 0.491 0
  vertex 3.121 0.583 0
  vertex 3.169 0.195 0
 endloop
endfacet
facet normal 0 0 -1
 outer loop
  vertex 2.624 0.491 0
  vertex 3.169 0.195 0
  vertex 2.665 0.164 0
 endloop
endfacet
facet normal 0 0 -1
 outer loop
  vertex 2.665 0.164 0
  vertex 3.169 0.195 0
  vertex 3.175 0 0
 endloop
endfacet
facet normal 1 -0.031 0
 outer loop
  vertex 3.169 -0.195 4.463
  vertex 3.169 -0.195 0
  vertex 3.175 0 4.463
 endloop
endfacet
facet normal 1 -0.031 0
 outer loop
  vertex 3.175 0 4.463
  vertex 3.169 -0.195 0
  vertex 3.175 0 0
 endloop
endfacet
facet normal 1 0.031 0
 outer loop
  vertex 3.175 0 4.463
  vertex 3.175 0 0
  vertex 3.169 0.195 4.463
 endloop
endfacet
facet normal 1 0.031 0
 outer loop
  vertex 3.169 0.195 4.463
  vertex 3.175 0 0
  vertex 3.169 0.195 0
 endloop
endfacet
facet normal 0.992 0.123 0
 outer loop
  vertex 3.169 0.195 4.463
  vertex 3.169 0.195 0
  vertex 3.121 0.583 4.463
 endloop
endfacet
facet normal 0.992 0.123 0
 outer loop
  vertex 3.121 0.583 4.463
  vertex 3.169 0.195 0
  vertex 3.121 0.583 0
 endloop
endfacet
facet normal 0.97 0.244 0
 outer loop
  vertex 3.121 0.583 4.463
  vertex 3.121 0.583 0
  vertex 3.026 0.963 4.463
 endloop
endfacet
facet normal 0.97 0.244 0
 outer loop
  vertex 3.026 0.963 4.463
  vertex 3.121 0.583 0
  vertex 3.026 0.963 0
 endloop
endfacet
facet normal 0.932 0.361 0
 outer loop
  vertex 3.026 0.963 4.463
  vertex 3.026 0.963 0
  vertex 2.884 1.327 4.463
 endloop
endfacet
facet normal 0.932 0.361 0
 outer loop
  vertex 2.884 1.327 4.463
  vertex 3.026 0.963 0
  vertex 2.884 1.327 0
 endloop
endfacet
facet normal 0.881 0.473 0
 outer loop
  vertex 2.884 1.327 4.463
  vertex 2.884 1.327 0
  vertex 2.699 1.671 4.463
 endloop
endfacet
facet normal 0.881 0.473 0
 outer loop
  vertex 2.699 1.671 4.463
  vertex 2.884 1.327 0
  vertex 2.699 1.671 0
 endloop
endfacet
facet normal 0.816 0.578 0
 outer loop
  vertex 2.699 1.671 4.463
  vertex 2.699 1.671 0
  vertex 2.474 1.99 4.463
 endloop
endfacet
facet normal 0.816 0.578 0
 outer loop
  vertex 2.474 1.99 4.463
  vertex 2.699 1.671 0
  vertex 2.474 1.99 0
 endloop
endfacet
facet normal 0.739 0.674 0
 outer loop
  vertex 2.474 1.99 4.463
  vertex 2.474 1.99 0
  vertex 2.21 2.279 4.463
 endloop
endfacet
facet normal 0.739 0.674 0
 outer loop
  vertex 2.21 2.279 4.463
  vertex 2.474 1.99 0
  vertex 2.21 2.279 0
 endloop
endfacet
facet normal 0.651 0.759 0
 outer loop
  vertex 2.21 2.279 4.463
  vertex 2.21 2.279 0
  vertex 1.913 2.534 4.463
 endloop
endfacet
facet normal 0.651 0.759 0
 outer loop
  vertex 1.913 2.534 4.463
  vertex 2.21 2.279 0
  vertex 1.913 2.534 0
 endloop
endfacet
facet normal 0.552 0.834 0
 outer loop
  vertex 1.913 2.534 4.463
  vertex 1.913 2.534 0
  vertex 1.587 2.75 4.463
 endloop
endfacet
facet normal 0.552 0.834 0
 outer loop
  vertex 1.587 2.75 4.463
  vertex 1.913 2.534 0
  vertex 1.587 2.75 0
 endloop
endfacet
facet normal 0.446 0.895 0
 outer loop
  vertex 1.587 2.75 4.463
  vertex 1.587 2.75 0
  vertex 1.238 2.924 4.463
 endloop
endfacet
facet normal 0.446 0.895 0
 outer loop
  vertex 1.238 2.924 4.463
  vertex 1.587 2.75 0
  vertex 1.238 2.924 0
 endloop
endfacet
facet normal 0.332 0.943 0
 outer loop
  vertex 1.238 2.924 4.463
  vertex 1.238 2.924 0
  vertex 0.869 3.054 4.463
 endloop
endfacet
facet normal 0.332 0.943 0
 outer loop
  vertex 0.869 3.054 4.463
  vertex 1.238 2.924 0
  vertex 0.869 3.054 0
 endloop
endfacet
facet normal 0.214 0.977 0
 outer loop
  vertex 0.869 3.054 4.463
  vertex 0.869 3.054 0
  vertex 0.487 3.137 4.463
 endloop
endfacet
facet normal 0.214 0.977 0
 outer loop
  vertex 0.487 3.137 4.463
  vertex 0.869 3.054 0
  vertex 0.487 3.137 0
 endloop
endfacet
facet normal 0.092 0.996 0
 outer loop
  vertex 0.487 3.137 4.463
  vertex 0.487 3.137 0
  vertex 0.098 3.173 4.463
 endloop
endfacet
facet normal 0.092 0.996 0
 outer loop
  vertex 0.098 3.173 4.463
  vertex 0.487 3.137 0
  vertex 0.098 3.173 0
 endloop
endfacet
facet normal -0.031 1 0
 outer loop
  vertex 0.098 3.173 4.463
  vertex 0.098 3.173 0
  vertex -0.293 3.161 4.463
 endloop
endfacet
facet normal -0.031 1 0
 outer loop
  vertex -0.293 3.161 4.463
  vertex 0.098 3.173 0
  vertex -0.293 3.161 0
 endloop
endfacet
facet normal -0.153 0.988 0
 outer loop
  vertex -0.293 3.161 4.463
  vertex -0.293 3.161 0
  vertex -0.679 3.101 4.463
 endloop
endfacet
facet normal -0.153 0.988 0
 outer loop
  vertex -0.679 3.101 4.463
  vertex -0.293 3.161 0
  vertex -0.679 3.101 0
 endloop
endfacet
facet normal -0.274 0.962 0
 outer loop
  vertex -0.679 3.101 4.463
  vertex -0.679 3.101 0
  vertex -1.055 2.995 4.463
 endloop
endfacet
facet normal -0.274 0.962 0
 outer loop
  vertex -1.055 2.995 4.463
  vertex -0.679 3.101 0
  vertex -1.055 2.995 0
 endloop
endfacet
facet normal -0.39 0.921 0
 outer loop
  vertex -1.055 2.995 4.463
  vertex -1.055 2.995 0
  vertex -1.415 2.842 4.463
 endloop
endfacet
facet normal -0.39 0.921 0
 outer loop
  vertex -1.415 2.842 4.463
  vertex -1.055 2.995 0
  vertex -1.415 2.842 0
 endloop
endfacet
facet normal -0.5 0.866 0
 outer loop
  vertex -1.415 2.842 4.463
  vertex -1.415 2.842 0
  vertex -1.754 2.647 4.463
 endloop
endfacet
facet normal -0.5 0.866 0
 outer loop
  vertex -1.754 2.647 4.463
  vertex -1.415 2.842 0
  vertex -1.754 2.647 0
 endloop
endfacet
facet normal -0.603 0.798 0
 outer loop
  vertex -1.754 2.647 4.463
  vertex -1.754 2.647 0
  vertex -2.066 2.411 4.463
 endloop
endfacet
facet normal -0.603 0.798 0
 outer loop
  vertex -2.066 2.411 4.463
  vertex -1.754 2.647 0
  vertex -2.066 2.411 0
 endloop
endfacet
facet normal -0.696 0.718 0
 outer loop
  vertex -2.066 2.411 4.463
  vertex -2.066 2.411 0
  vertex -2.346 2.139 4.463
 endloop
endfacet
facet normal -0.696 0.718 0
 outer loop
  vertex -2.346 2.139 4.463
  vertex -2.066 2.411 0
  vertex -2.346 2.139 0
 endloop
endfacet
facet normal -0.779 0.627 0
 outer loop
  vertex -2.346 2.139 4.463
  vertex -2.346 2.139 0
  vertex -2.591 1.834 4.463
 endloop
endfacet
facet normal -0.779 0.627 0
 outer loop
  vertex -2.591 1.834 4.463
  vertex -2.346 2.139 0
  vertex -2.591 1.834 0
 endloop
endfacet
facet normal -0.85 0.526 0
 outer loop
  vertex -2.591 1.834 4.463
  vertex -2.591 1.834 0
  vertex -2.797 1.502 4.463
 endloop
endfacet
facet normal -0.85 0.526 0
 outer loop
  vertex -2.797 1.502 4.463
  vertex -2.591 1.834 0
  vertex -2.797 1.502 0
 endloop
endfacet
facet normal -0.908 0.418 0
 outer loop
  vertex -2.797 1.502 4.463
  vertex -2.797 1.502 0
  vertex -2.961 1.147 4.463
 endloop
endfacet
facet normal -0.908 0.418 0
 outer loop
  vertex -2.961 1.147 4.463
  vertex -2.797 1.502 0
  vertex -2.961 1.147 0
 endloop
endfacet
facet normal -0.953 0.303 0
 outer loop
  vertex -2.961 1.147 4.463
  vertex -2.961 1.147 0
  vertex -3.079 0.774 4.463
 endloop
endfacet
facet normal -0.953 0.303 0
 outer loop
  vertex -3.079 0.774 4.463
  vertex -2.961 1.147 0
  vertex -3.079 0.774 0
 endloop
endfacet
facet normal -0.983 0.184 0
 outer loop
  vertex -3.079 0.774 4.463
  vertex -3.079 0.774 0
  vertex -3.151 0.39 4.463
 endloop
endfacet
facet normal -0.983 0.184 0
 outer loop
  vertex -3.151 0.39 4.463
  vertex -3.079 0.774 0
  vertex -3.151 0.39 0
 endloop
endfacet
facet normal -0.998 0.062 0
 outer loop
  vertex -3.151 0.39 4.463
  vertex -3.151 0.39 0
  vertex -3.175 0 4.463
 endloop
endfacet
facet normal -0.998 0.062 0
 outer loop
  vertex -3.175 0 4.463
  vertex -3.151 0.39 0
  vertex -3.175 0 0
 endloop
endfacet
facet normal -0.998 -0.062 -0
 outer loop
  vertex -3.175 0 4.463
  vertex -3.175 0 0
  vertex -3.151 -0.39 4.463
 endloop
endfacet
facet normal -0.998 -0.062 -0
 outer loop
  vertex -3.151 -0.39 4.463
  vertex -3.175 0 0
  vertex -3.151 -0.39 0
 endloop
endfacet
facet normal -0.983 -0.184 -0
 outer loop
  vertex -3.151 -0.39 4.463
  vertex -3.151 -0.39 0
  vertex -3.079 -0.774 4.463
 endloop
endfacet
facet normal -0.983 -0.184 -0
 outer loop
  vertex -3.079 -0.774 4.463
  vertex -3.151 -0.39 0
  vertex -3.079 -0.774 0
 endloop
endfacet
facet normal -0.953 -0.303 -0
 outer loop
  vertex -3.079 -0.774 4.463
  vertex -3.079 -0.774 0
  vertex -2.961 -1.147 4.463
 endloop
endfacet
facet normal -0.953 -0.303 -0
 outer loop
  vertex -2.961 -1.147 4.463
  vertex -3.079 -0.774 0
  vertex -2.961 -1.147 0
 endloop
endfacet
facet normal -0.908 -0.418 -0
 outer loop
  vertex -2.961 -1.147 4.463
  vertex -2.961 -1.147 0
  vertex -2.797 -1.502 4.463
 endloop
endfacet
facet normal -0.908 -0.418 -0
 outer loop
  vertex -2.797 -1.502 4.463
  vertex -2.961 -1.147 0
  vertex -2.797 -1.502 0
 endloop
endfacet
facet normal -0.85 -0.526 -0
 outer loop
  vertex -2.797 -1.502 4.463
  vertex -2.797 -1.502 0
  vertex -2.591 -1.834 4.463
 endloop
endfacet
facet normal -0.85 -0.526 -0
 outer loop
  vertex -2.591 -1.834 4.463
  vertex -2.797 -1.502 0
  vertex -2.591 -1.834 0
 endloop
endfacet
facet normal -0.779 -0.627 -0
 outer loop
  vertex -2.591 -1.834 4.463
  vertex -2.591 -1.834 0
  vertex -2.346 -2.139 4.463
 endloop
endfacet
facet normal -0.779 -0.627 -0
 outer loop
  vertex -2.346 -2.139 4.463
  vertex -2.591 -1.834 0
  vertex -2.346 -2.139 0
 endloop
endfacet
facet normal -0.696 -0.718 -0
 outer loop
  vertex -2.346 -2.139 4.463
  vertex -2.346 -2.139 0
  vertex -2.066 -2.411 4.463
 endloop
endfacet
facet normal -0.696 -0.718 -0
 outer loop
  vertex -2.066 -2.411 4.463
  vertex -2.346 -2.139 0
  vertex -2.066 -2.411 0
 endloop
endfacet
facet normal -0.603 -0.798 -0
 outer loop
  vertex -2.066 -2.411 4.463
  vertex -2.066 -2.411 0
  vertex -1.754 -2.647 4.463
 endloop
endfacet
facet normal -0.603 -0.798 -0
 outer loop
  vertex -1.754 -2.647 4.463
  vertex -2.066 -2.411 0
  vertex -1.754 -2.647 0
 endloop
endfacet
facet normal -0.5 -0.866 -0
 outer loop
  vertex -1.754 -2.647 4.463
  vertex -1.754 -2.647 0
  vertex -1.415 -2.842 4.463
 endloop
endfacet
facet normal -0.5 -0.866 -0
 outer loop
  vertex -1.415 -2.842 4.463
  vertex -1.754 -2.647 0
  vertex -1.415 -2.842 0
 endloop
endfacet
facet normal -0.39 -0.921 -0
 outer loop
  vertex -1.415 -2.842 4.463
  vertex -1.415 -2.842 0
  vertex -1.055 -2.995 4.463
 endloop
endfacet
facet normal -0.39 -0.921 -0
 outer loop
  vertex -1.055 -2.995 4.463
  vertex -1.415 -2.842 0
  vertex -1.055 -2.995 0
 endloop
endfacet
facet normal -0.274 -0.962 -0
 outer loop
  vertex -1.055 -2.995 4.463
  vertex -1.055 -2.995 0
  vertex -0.679 -3.101 4.463
 endloop
endfacet
facet normal -0.274 -0.962 -0
 outer loop
  vertex -0.679 -3.101 4.463
  vertex -1.055 -2.995 0
  vertex -0.679 -3.101 0
 endloop
endfacet
facet normal -0.153 -0.988 -0
 outer loop
  vertex -0.679 -3.101 4.463
  vertex -0.679 -3.101 0
  vertex -0.293 -3.161 4.463
 endloop
endfacet
facet normal -0.153 -0.988 -0
 outer loop
  vertex -0.293 -3.161 4.463
  vertex -0.679 -3.101 0
  vertex -0.293 -3.161 0
 endloop
endfacet
facet normal -0.031 -1 -0
 outer loop
  vertex -0.293 -3.161 4.463
  vertex -0.293 -3.161 0
  vertex 0.098 -3.173 4.463
 endloop
endfacet
facet normal -0.031 -1 -0
 outer loop
  vertex 0.098 -3.173 4.463
  vertex -0.293 -3.161 0
  vertex 0.098 -3.173 0
 endloop
endfacet
facet normal 0.092 -0.996 0
 outer loop
  vertex 0.098 -3.173 4.463
  vertex 0.098 -3.173 0
  vertex 0.487 -3.137 4.463
 endloop
endfacet
facet normal 0.092 -0.996 0
 outer loop
  vertex 0.487 -3.137 4.463
  vertex 0.098 -3.173 0
  vertex 0.487 -3.137 0
 endloop
endfacet
facet normal 0.214 -0.977 0
 outer loop
  vertex 0.487 -3.137 4.463
  vertex 0.487 -3.137 0
  vertex 0.869 -3.054 4.463
 endloop
endfacet
facet normal 0.214 -0.977 0
 outer loop
  vertex 0.869 -3.054 4.463
  vertex 0.487 -3.137 0
  vertex 0.869 -3.054 0
 endloop
endfacet
facet normal 0.332 -0.943 0
 outer loop
  vertex 0.869 -3.054 4.463
  vertex 0.869 -3.054 0
  vertex 1.238 -2.924 4.463
 endloop
endfacet
facet normal 0.332 -0.943 0
 outer loop
  vertex 1.238 -2.924 4.463
  vertex 0.869 -3.054 0
  vertex 1.238 -2.924 0
 endloop
endfacet
facet normal 0.446 -0.895 0
 outer loop
  vertex 1.238 -2.924 4.463
  vertex 1.238 -2.924 0
  vertex 1.587 -2.75 4.463
 endloop
endfacet
facet normal 0.446 -0.895 0
 outer loop
  vertex 1.587 -2.75 4.463
  vertex 1.238 -2.924 0
  vertex 1.587 -2.75 0
 endloop
endfacet
facet normal 0.552 -0.834 0
 outer loop
  vertex 1.587 -2.75 4.463
  vertex 1.587 -2.75 0
  vertex 1.913 -2.534 4.463
 endloop
endfacet
facet normal 0.552 -0.834 0
 outer loop
  vertex 1.913 -2.534 4.463
  vertex 1.587 -2.75 0
  vertex 1.913 -2.534 0
 endloop
endfacet
facet normal 0.651 -0.759 0
 outer loop
  vertex 1.913 -2.534 4.463
  vertex 1.913 -2.534 0
  vertex 2.21 -2.279 4.463
 endloop
endfacet
facet normal 0.651 -0.759 0
 outer loop
  vertex 2.21 -2.279 4.463
  vertex 1.913 -2.534 0
  vertex 2.21 -2.279 0
 endloop
endfacet
facet normal 0.739 -0.674 0
 outer loop
  vertex 2.21 -2.279 4.463
  vertex 2.21 -2.279 0
  vertex 2.474 -1.99 4.463
 endloop
endfacet
facet normal 0.739 -0.674 0
 outer loop
  vertex 2.474 -1.99 4.463
  vertex 2.21 -2.279 0
  vertex 2.474 -1.99 0
 endloop
endfacet
facet normal 0.816 -0.578 0
 outer loop
  vertex 2.474 -1.99 4.463
  vertex 2.474 -1.99 0
  vertex 2.699 -1.671 4.463
 endloop
endfacet
facet normal 0.816 -0.578 0
 outer loop
  vertex 2.699 -1.671 4.463
  vertex 2.474 -1.99 0
  vertex 2.699 -1.671 0
 endloop
endfacet
facet normal 0.881 -0.473 0
 outer loop
  vertex 2.699 -1.671 4.463
  vertex 2.699 -1.671 0
  vertex 2.884 -1.327 4.463
 endloop
endfacet
facet normal 0.881 -0.473 0
 outer loop
  vertex 2.884 -1.327 4.463
  vertex 2.699 -1.671 0
  vertex 2.884 -1.327 0
 endloop
endfacet
facet normal 0.932 -0.361 0
 outer loop
  vertex 2.884 -1.327 4.463
  vertex 2.884 -1.327 0
  vertex 3.026 -0.963 4.463
 endloop
endfacet
facet normal 0.932 -0.361 0
 outer loop
  vertex 3.026 -0.963 4.463
  vertex 2.884 -1.327 0
  vertex 3.026 -0.963 0
 endloop
endfacet
facet normal 0.97 -0.244 0
 outer loop
  vertex 3.026 -0.963 4.463
  vertex 3.026 -0.963 0
  vertex 3.121 -0.583 4.463
 endloop
endfacet
facet normal 0.97 -0.244 0
 outer loop
  vertex 3.121 -0.583 4.463
  vertex 3.026 -0.963 0
  vertex 3.121 -0.583 0
 endloop
endfacet
facet normal 0.992 -0.123 0
 outer loop
  vertex 3.121 -0.583 4.463
  vertex 3.121 -0.583 0
  vertex 3.169 -0.195 4.463
 endloop
endfacet
facet normal 0.992 -0.123 0
 outer loop
  vertex 3.169 -0.195 4.463
  vertex 3.121 -0.583 0
  vertex 3.169 -0.195 0
 endloop
endfacet
facet normal 0.866 -0.027 0.5
 outer loop
  vertex 2.996 -0.185 4.763
  vertex 3.169 -0.195 4.463
  vertex 3.002 0 4.763
 endloop
endfacet
facet normal 0.866 -0.027 0.5
 outer loop
  vertex 3.002 0 4.763
  vertex 3.169 -0.195 4.463
  vertex 3.175 0 4.463
 endloop
endfacet
facet normal 0.866 0.027 0.5
 outer loop
  vertex 3.002 0 4.763
  vertex 3.175 0 4.463
  vertex 2.996 0.185 4.763
 endloop
endfacet
facet normal 0.866 0.027 0.5
 outer loop
  vertex 2.996 0.185 4.763
  vertex 3.175 0 4.463
  vertex 3.169 0.195 4.463
 endloop
endfacet
facet normal 0.86 0.106 0.499
 outer loop
  vertex 2.996 0.185 4.763
  vertex 3.169 0.195 4.463
  vertex 2.951 0.552 4.763
 endloop
endfacet
facet normal 0.86 0.106 0.499
 outer loop
  vertex 2.951 0.552 4.763
  vertex 3.169 0.195 4.463
  vertex 3.121 0.583 4.463
 endloop
endfacet
facet normal 0.84 0.211 0.499
 outer loop
  vertex 2.951 0.552 4.763
  vertex 3.121 0.583 4.463
  vertex 2.861 0.91 4.763
 endloop
endfacet
facet normal 0.84 0.211 0.499
 outer loop
  vertex 2.861 0.91 4.763
  vertex 3.121 0.583 4.463
  vertex 3.026 0.963 4.463
 endloop
endfacet
facet normal 0.808 0.313 0.499
 outer loop
  vertex 2.861 0.91 4.763
  vertex 3.026 0.963 4.463
  vertex 2.727 1.255 4.763
 endloop
endfacet
facet normal 0.808 0.313 0.499
 outer loop
  vertex 2.727 1.255 4.763
  vertex 3.026 0.963 4.463
  vertex 2.884 1.327 4.463
 endloop
endfacet
facet normal 0.763 0.41 0.499
 outer loop
  vertex 2.727 1.255 4.763
  vertex 2.884 1.327 4.463
  vertex 2.552 1.58 4.763
 endloop
endfacet
facet normal 0.763 0.41 0.499
 outer loop
  vertex 2.552 1.58 4.763
  vertex 2.884 1.327 4.463
  vertex 2.699 1.671 4.463
 endloop
endfacet
facet normal 0.707 0.501 0.499
 outer loop
  vertex 2.552 1.58 4.763
  vertex 2.699 1.671 4.463
  vertex 2.339 1.882 4.763
 endloop
endfacet
facet normal 0.707 0.501 0.499
 outer loop
  vertex 2.339 1.882 4.763
  vertex 2.699 1.671 4.463
  vertex 2.474 1.99 4.463
 endloop
endfacet
facet normal 0.64 0.584 0.499
 outer loop
  vertex 2.339 1.882 4.763
  vertex 2.474 1.99 4.463
  vertex 2.09 2.155 4.763
 endloop
endfacet
facet normal 0.64 0.584 0.499
 outer loop
  vertex 2.09 2.155 4.763
  vertex 2.474 1.99 4.463
  vertex 2.21 2.279 4.463
 endloop
endfacet
facet normal 0.564 0.658 0.499
 outer loop
  vertex 2.09 2.155 4.763
  vertex 2.21 2.279 4.463
  vertex 1.809 2.395 4.763
 endloop
endfacet
facet normal 0.564 0.658 0.499
 outer loop
  vertex 1.809 2.395 4.763
  vertex 2.21 2.279 4.463
  vertex 1.913 2.534 4.463
 endloop
endfacet
facet normal 0.479 0.722 0.499
 outer loop
  vertex 1.809 2.395 4.763
  vertex 1.913 2.534 4.463
  vertex 1.501 2.6 4.763
 endloop
endfacet
facet normal 0.479 0.722 0.499
 outer loop
  vertex 1.501 2.6 4.763
  vertex 1.913 2.534 4.463
  vertex 1.587 2.75 4.463
 endloop
endfacet
facet normal 0.386 0.776 0.499
 outer loop
  vertex 1.501 2.6 4.763
  vertex 1.587 2.75 4.463
  vertex 1.17 2.764 4.763
 endloop
endfacet
facet normal 0.386 0.776 0.499
 outer loop
  vertex 1.17 2.764 4.763
  vertex 1.587 2.75 4.463
  vertex 1.238 2.924 4.463
 endloop
endfacet
facet normal 0.288 0.817 0.499
 outer loop
  vertex 1.17 2.764 4.763
  vertex 1.238 2.924 4.463
  vertex 0.821 2.887 4.763
 endloop
endfacet
facet normal 0.288 0.817 0.499
 outer loop
  vertex 0.821 2.887 4.763
  vertex 1.238 2.924 4.463
  vertex 0.869 3.054 4.463
 endloop
endfacet
facet normal 0.185 0.846 0.499
 outer loop
  vertex 0.821 2.887 4.763
  vertex 0.869 3.054 4.463
  vertex 0.46 2.966 4.763
 endloop
endfacet
facet normal 0.185 0.846 0.499
 outer loop
  vertex 0.46 2.966 4.763
  vertex 0.869 3.054 4.463
  vertex 0.487 3.137 4.463
 endloop
endfacet
facet normal 0.08 0.863 0.499
 outer loop
  vertex 0.46 2.966 4.763
  vertex 0.487 3.137 4.463
  vertex 0.092 3 4.763
 endloop
endfacet
facet normal 0.08 0.863 0.499
 outer loop
  vertex 0.092 3 4.763
  vertex 0.487 3.137 4.463
  vertex 0.098 3.173 4.463
 endloop
endfacet
facet normal -0.027 0.866 0.499
 outer loop
  vertex 0.092 3 4.763
  vertex 0.098 3.173 4.463
  vertex -0.277 2.989 4.763
 endloop
endfacet
facet normal -0.027 0.866 0.499
 outer loop
  vertex -0.277 2.989 4.763
  vertex 0.098 3.173 4.463
  vertex -0.293 3.161 4.463
 endloop
endfacet
facet normal -0.133 0.856 0.499
 outer loop
  vertex -0.277 2.989 4.763
  vertex -0.293 3.161 4.463
  vertex -0.642 2.932 4.763
 endloop
endfacet
facet normal -0.133 0.856 0.499
 outer loop
  vertex -0.642 2.932 4.763
  vertex -0.293 3.161 4.463
  vertex -0.679 3.101 4.463
 endloop
endfacet
facet normal -0.237 0.833 0.499
 outer loop
  vertex -0.642 2.932 4.763
  vertex -0.679 3.101 4.463
  vertex -0.998 2.831 4.763
 endloop
endfacet
facet normal -0.237 0.833 0.499
 outer loop
  vertex -0.998 2.831 4.763
  vertex -0.679 3.101 4.463
  vertex -1.055 2.995 4.463
 endloop
endfacet
facet normal -0.338 0.798 0.499
 outer loop
  vertex -0.998 2.831 4.763
  vertex -1.055 2.995 4.463
  vertex -1.338 2.687 4.763
 endloop
endfacet
facet normal -0.338 0.798 0.499
 outer loop
  vertex -1.338 2.687 4.763
  vertex -1.055 2.995 4.463
  vertex -1.415 2.842 4.463
 endloop
endfacet
facet normal -0.433 0.75 0.499
 outer loop
  vertex -1.338 2.687 4.763
  vertex -1.415 2.842 4.463
  vertex -1.658 2.502 4.763
 endloop
endfacet
facet normal -0.433 0.75 0.499
 outer loop
  vertex -1.658 2.502 4.763
  vertex -1.415 2.842 4.463
  vertex -1.754 2.647 4.463
 endloop
endfacet
facet normal -0.522 0.691 0.499
 outer loop
  vertex -1.658 2.502 4.763
  vertex -1.754 2.647 4.463
  vertex -1.953 2.28 4.763
 endloop
endfacet
facet normal -0.522 0.691 0.499
 outer loop
  vertex -1.953 2.28 4.763
  vertex -1.754 2.647 4.463
  vertex -2.066 2.411 4.463
 endloop
endfacet
facet normal -0.603 0.622 0.499
 outer loop
  vertex -1.953 2.28 4.763
  vertex -2.066 2.411 4.463
  vertex -2.218 2.022 4.763
 endloop
endfacet
facet normal -0.603 0.622 0.499
 outer loop
  vertex -2.218 2.022 4.763
  vertex -2.066 2.411 4.463
  vertex -2.346 2.139 4.463
 endloop
endfacet
facet normal -0.675 0.543 0.499
 outer loop
  vertex -2.218 2.022 4.763
  vertex -2.346 2.139 4.463
  vertex -2.45 1.734 4.763
 endloop
endfacet
facet normal -0.675 0.543 0.499
 outer loop
  vertex -2.45 1.734 4.763
  vertex -2.346 2.139 4.463
  vertex -2.591 1.834 4.463
 endloop
endfacet
facet normal -0.737 0.456 0.499
 outer loop
  vertex -2.45 1.734 4.763
  vertex -2.591 1.834 4.463
  vertex -2.645 1.42 4.763
 endloop
endfacet
facet normal -0.737 0.456 0.499
 outer loop
  vertex -2.645 1.42 4.763
  vertex -2.591 1.834 4.463
  vertex -2.797 1.502 4.463
 endloop
endfacet
facet normal -0.787 0.362 0.499
 outer loop
  vertex -2.645 1.42 4.763
  vertex -2.797 1.502 4.463
  vertex -2.799 1.084 4.763
 endloop
endfacet
facet normal -0.787 0.362 0.499
 outer loop
  vertex -2.799 1.084 4.763
  vertex -2.797 1.502 4.463
  vertex -2.961 1.147 4.463
 endloop
endfacet
facet normal -0.826 0.263 0.499
 outer loop
  vertex -2.799 1.084 4.763
  vertex -2.961 1.147 4.463
  vertex -2.911 0.732 4.763
 endloop
endfacet
facet normal -0.826 0.263 0.499
 outer loop
  vertex -2.911 0.732 4.763
  vertex -2.961 1.147 4.463
  vertex -3.079 0.774 4.463
 endloop
endfacet
facet normal -0.852 0.159 0.499
 outer loop
  vertex -2.911 0.732 4.763
  vertex -3.079 0.774 4.463
  vertex -2.979 0.369 4.763
 endloop
endfacet
facet normal -0.852 0.159 0.499
 outer loop
  vertex -2.979 0.369 4.763
  vertex -3.079 0.774 4.463
  vertex -3.151 0.39 4.463
 endloop
endfacet
facet normal -0.865 0.053 0.499
 outer loop
  vertex -2.979 0.369 4.763
  vertex -3.151 0.39 4.463
  vertex -3.002 0 4.763
 endloop
endfacet
facet normal -0.865 0.053 0.499
 outer loop
  vertex -3.002 0 4.763
  vertex -3.151 0.39 4.463
  vertex -3.175 0 4.463
 endloop
endfacet
facet normal -0.865 -0.053 0.499
 outer loop
  vertex -3.002 0 4.763
  vertex -3.175 0 4.463
  vertex -2.979 -0.369 4.763
 endloop
endfacet
facet normal -0.865 -0.053 0.499
 outer loop
  vertex -2.979 -0.369 4.763
  vertex -3.175 0 4.463
  vertex -3.151 -0.39 4.463
 endloop
endfacet
facet normal -0.852 -0.159 0.499
 outer loop
  vertex -2.979 -0.369 4.763
  vertex -3.151 -0.39 4.463
  vertex -2.911 -0.732 4.763
 endloop
endfacet
facet normal -0.852 -0.159 0.499
 outer loop
  vertex -2.911 -0.732 4.763
  vertex -3.151 -0.39 4.463
  vertex -3.079 -0.774 4.463
 endloop
endfacet
facet normal -0.826 -0.263 0.499
 outer loop
  vertex -2.911 -0.732 4.763
  vertex -3.079 -0.774 4.463
  vertex -2.799 -1.084 4.763
 endloop
endfacet
facet normal -0.826 -0.263 0.499
 outer loop
  vertex -2.799 -1.084 4.763
  vertex -3.079 -0.774 4.463
  vertex -2.961 -1.147 4.463
 endloop
endfacet
facet normal -0.787 -0.362 0.499
 outer loop
  vertex -2.799 -1.084 4.763
  vertex -2.961 -1.147 4.463
  vertex -2.645 -1.42 4.763
 endloop
endfacet
facet normal -0.787 -0.362 0.499
 outer loop
  vertex -2.645 -1.42 4.763
  vertex -2.961 -1.147 4.463
  vertex -2.797 -1.502 4.463
 endloop
endfacet
facet normal -0.737 -0.456 0.499
 outer loop
  vertex -2.645 -1.42 4.763
  vertex -2.797 -1.502 4.463
  vertex -2.45 -1.734 4.763
 endloop
endfacet
facet normal -0.737 -0.456 0.499
 outer loop
  vertex -2.45 -1.734 4.763
  vertex -2.797 -1.502 4.463
  vertex -2.591 -1.834 4.463
 endloop
endfacet
facet normal -0.675 -0.543 0.499
 outer loop
  vertex -2.45 -1.734 4.763
  vertex -2.591 -1.834 4.463
  vertex -2.218 -2.022 4.763
 endloop
endfacet
facet normal -0.675 -0.543 0.499
 outer loop
  vertex -2.218 -2.022 4.763
  vertex -2.591 -1.834 4.463
  vertex -2.346 -2.139 4.463
 endloop
endfacet
facet normal -0.603 -0.622 0.499
 outer loop
  vertex -2.218 -2.022 4.763
  vertex -2.346 -2.139 4.463
  vertex -1.953 -2.28 4.763
 endloop
endfacet
facet normal -0.603 -0.622 0.499
 outer loop
  vertex -1.953 -2.28 4.763
  vertex -2.346 -2.139 4.463
  vertex -2.066 -2.411 4.463
 endloop
endfacet
facet normal -0.522 -0.691 0.499
 outer loop
  vertex -1.953 -2.28 4.763
  vertex -2.066 -2.411 4.463
  vertex -1.658 -2.502 4.763
 endloop
endfacet
facet normal -0.522 -0.691 0.499
 outer loop
  vertex -1.658 -2.502 4.763
  vertex -2.066 -2.411 4.463
  vertex -1.754 -2.647 4.463
 endloop
endfacet
facet normal -0.433 -0.75 0.499
 outer loop
  vertex -1.658 -2.502 4.763
  vertex -1.754 -2.647 4.463
  vertex -1.338 -2.687 4.763
 endloop
endfacet
facet normal -0.433 -0.75 0.499
 outer loop
  vertex -1.338 -2.687 4.763
  vertex -1.754 -2.647 4.463
  vertex -1.415 -2.842 4.463
 endloop
endfacet
facet normal -0.338 -0.798 0.499
 outer loop
  vertex -1.338 -2.687 4.763
  vertex -1.415 -2.842 4.463
  vertex -0.998 -2.831 4.763
 endloop
endfacet
facet normal -0.338 -0.798 0.499
 outer loop
  vertex -0.998 -2.831 4.763
  vertex -1.415 -2.842 4.463
  vertex -1.055 -2.995 4.463
 endloop
endfacet
facet normal -0.237 -0.833 0.499
 outer loop
  vertex -0.998 -2.831 4.763
  vertex -1.055 -2.995 4.463
  vertex -0.642 -2.932 4.763
 endloop
endfacet
facet normal -0.237 -0.833 0.499
 outer loop
  vertex -0.642 -2.932 4.763
  vertex -1.055 -2.995 4.463
  vertex -0.679 -3.101 4.463
 endloop
endfacet
facet normal -0.133 -0.856 0.499
 outer loop
  vertex -0.642 -2.932 4.763
  vertex -0.679 -3.101 4.463
  vertex -0.277 -2.989 4.763
 endloop
endfacet
facet normal -0.133 -0.856 0.499
 outer loop
  vertex -0.277 -2.989 4.763
  vertex -0.679 -3.101 4.463
  vertex -0.293 -3.161 4.463
 endloop
endfacet
facet normal -0.027 -0.866 0.499
 outer loop
  vertex -0.277 -2.989 4.763
  vertex -0.293 -3.161 4.463
  vertex 0.092 -3 4.763
 endloop
endfacet
facet normal -0.027 -0.866 0.499
 outer loop
  vertex 0.092 -3 4.763
  vertex -0.293 -3.161 4.463
  vertex 0.098 -3.173 4.463
 endloop
endfacet
facet normal 0.08 -0.863 0.499
 outer loop
  vertex 0.092 -3 4.763
  vertex 0.098 -3.173 4.463
  vertex 0.46 -2.966 4.763
 endloop
endfacet
facet normal 0.08 -0.863 0.499
 outer loop
  vertex 0.46 -2.966 4.763
  vertex 0.098 -3.173 4.463
  vertex 0.487 -3.137 4.463
 endloop
endfacet
facet normal 0.185 -0.846 0.499
 outer loop
  vertex 0.46 -2.966 4.763
  vertex 0.487 -3.137 4.463
  vertex 0.821 -2.887 4.763
 endloop
endfacet
facet normal 0.185 -0.846 0.499
 outer loop
  vertex 0.821 -2.887 4.763
  vertex 0.487 -3.137 4.463
  vertex 0.869 -3.054 4.463
 endloop
endfacet
facet normal 0.288 -0.817 0.499
 outer loop
  vertex 0.821 -2.887 4.763
  vertex 0.869 -3.054 4.463
  vertex 1.17 -2.764 4.763
 endloop
endfacet
facet normal 0.288 -0.817 0.499
 outer loop
  vertex 1.17 -2.764 4.763
  vertex 0.869 -3.054 4.463
  vertex 1.238 -2.924 4.463
 endloop
endfacet
facet normal 0.386 -0.776 0.499
 outer loop
  vertex 1.17 -2.764 4.763
  vertex 1.238 -2.924 4.463
  vertex 1.501 -2.6 4.763
 endloop
endfacet
facet normal 0.386 -0.776 0.499
 outer loop
  vertex 1.501 -2.6 4.763
  vertex 1.238 -2.924 4.463
  vertex 1.587 -2.75 4.463
 endloop
endfacet
facet normal 0.479 -0.722 0.499
 outer loop
  vertex 1.501 -2.6 4.763
  vertex 1.587 -2.75 4.463
  vertex 1.809 -2.395 4.763
 endloop
endfacet
facet normal 0.479 -0.722 0.499
 outer loop
  vertex 1.809 -2.395 4.763
  vertex 1.587 -2.75 4.463
  vertex 1.913 -2.534 4.463
 endloop
endfacet
facet normal 0.564 -0.658 0.499
 outer loop
  vertex 1.809 -2.395 4.763
  vertex 1.913 -2.534 4.463
  vertex 2.09 -2.155 4.763
 endloop
endfacet
facet normal 0.564 -0.658 0.499
 outer loop
  vertex 2.09 -2.155 4.763
  vertex 1.913 -2.534 4.463
  vertex 2.21 -2.279 4.463
 endloop
endfacet
facet normal 0.64 -0.584 0.499
 outer loop
  vertex 2.09 -2.155 4.763
  vertex 2.21 -2.279 4.463
  vertex 2.339 -1.882 4.763
 endloop
endfacet
facet normal 0.64 -0.584 0.499
 outer loop
  vertex 2.339 -1.882 4.763
  vertex 2.21 -2.279 4.463
  vertex 2.474 -1.99 4.463
 endloop
endfacet
facet normal 0.707 -0.501 0.499
 outer loop
  vertex 2.339 -1.882 4.763
  vertex 2.474 -1.99 4.463
  vertex 2.552 -1.58 4.763
 endloop
endfacet
facet normal 0.707 -0.501 0.499
 outer loop
  vertex 2.552 -1.58 4.763
  vertex 2.474 -1.99 4.463
  vertex 2.699 -1.671 4.463
 endloop
endfacet
facet normal 0.763 -0.41 0.499
 outer loop
  vertex 2.552 -1.58 4.763
  vertex 2.699 -1.671 4.463
  vertex 2.727 -1.255 4.763
 endloop
endfacet
facet normal 0.763 -0.41 0.499
 outer loop
  vertex 2.727 -1.255 4.763
  vertex 2.699 -1.671 4.463
  vertex 2.884 -1.327 4.463
 endloop
endfacet
facet normal 0.808 -0.313 0.499
 outer loop
  vertex 2.727 -1.255 4.763
  vertex 2.884 -1.327 4.463
  vertex 2.861 -0.91 4.763
 endloop
endfacet
facet normal 0.808 -0.313 0.499
 outer loop
  vertex 2.861 -0.91 4.763
  vertex 2.884 -1.327 4.463
  vertex 3.026 -0.963 4.463
 endloop
endfacet
facet normal 0.84 -0.211 0.499
 outer loop
  vertex 2.861 -0.91 4.763
  vertex 3.026 -0.963 4.463
  vertex 2.951 -0.552 4.763
 endloop
endfacet
facet normal 0.84 -0.211 0.499
 outer loop
  vertex 2.951 -0.552 4.763
  vertex 3.026 -0.963 4.463
  vertex 3.121 -0.583 4.463
 endloop
endfacet
facet normal 0.86 -0.106 0.499
 outer loop
  vertex 2.951 -0.552 4.763
  vertex 3.121 -0.583 4.463
  vertex 2.996 -0.185 4.763
 endloop
endfacet
facet normal 0.86 -0.106 0.499
 outer loop
  vertex 2.996 -0.185 4.763
  vertex 3.121 -0.583 4.463
  vertex 3.169 -0.195 4.463
 endloop
endfacet
facet normal -0 0 1
 outer loop
  vertex 2.377 -0.147 4.763
  vertex 2.996 -0.185 4.763
  vertex 2.381 0 4.763
 endloop
endfacet
facet normal -0 0 1
 outer loop
  vertex 2.381 0 4.763
  vertex 2.996 -0.185 4.763
  vertex 3.002 0 4.763
 endloop
endfacet
facet normal 0 -0 1
 outer loop
  vertex 2.381 0 4.763
  vertex 3.002 0 4.763
  vertex 2.377 0.147 4.763
 endloop
endfacet
facet normal -0 0 1
 outer loop
  vertex 2.377 0.147 4.763
  vertex 3.002 0 4.763
  vertex 2.996 0.185 4.763
 endloop
endfacet
facet normal 0 -0 1
 outer loop
  vertex 2.377 0.147 4.763
  vertex 2.996 0.185 4.763
  vertex 2.341 0.438 4.763
 endloop
endfacet
facet normal -0 0 1
 outer loop
  vertex 2.341 0.438 4.763
  vertex 2.996 0.185 4.763
  vertex 2.951 0.552 4.763
 endloop
endfacet
facet normal 0 -0 1
 outer loop
  vertex 2.341 0.438 4.763
  vertex 2.951 0.552 4.763
  vertex 2.269 0.722 4.763
 endloop
endfacet
facet normal -0 0 1
 outer loop
  vertex 2.269 0.722 4.763
  vertex 2.951 0.552 4.763
  vertex 2.861 0.91 4.763
 endloop
endfacet
facet normal 0 -0 1
 outer loop
  vertex 2.269 0.722 4.763
  vertex 2.861 0.91 4.763
  vertex 2.163 0.995 4.763
 endloop
endfacet
facet normal -0 0 1
 outer loop
  vertex 2.163 0.995 4.763
  vertex 2.861 0.91 4.763
  vertex 2.727 1.255 4.763
 endloop
endfacet
facet normal 0 -0 1
 outer loop
  vertex 2.163 0.995 4.763
  vertex 2.727 1.255 4.763
  vertex 2.025 1.254 4.763
 endloop
endfacet
facet normal 0 0 1
 outer loop
  vertex 2.025 1.254 4.763
  vertex 2.727 1.255 4.763
  vertex 2.552 1.58 4.763
 endloop
endfacet
facet normal 0 -0 1
 outer loop
  vertex 2.025 1.254 4.763
  vertex 2.552 1.58 4.763
  vertex 1.855 1.493 4.763
 endloop
endfacet
facet normal 0 0 1
 outer loop
  vertex 1.855 1.493 4.763
  vertex 2.552 1.58 4.763
  vertex 2.339 1.882 4.763
 endloop
endfacet
facet normal 0 -0 1
 outer loop
  vertex 1.855 1.493 4.763
  vertex 2.339 1.882 4.763
  vertex 1.658 1.71 4.763
 endloop
endfacet
facet normal 0 0 1
 outer loop
  vertex 1.658 1.71 4.763
  vertex 2.339 1.882 4.763
  vertex 2.09 2.155 4.763
 endloop
endfacet
facet normal 0 -0 1
 outer loop
  vertex 1.658 1.71 4.763
  vertex 2.09 2.155 4.763
  vertex 1.435 1.9 4.763
 endloop
endfacet
facet normal 0 0 1
 outer loop
  vertex 1.435 1.9 4.763
  vertex 2.09 2.155 4.763
  vertex 1.809 2.395 4.763
 endloop
endfacet
facet normal 0 -0 1
 outer loop
  vertex 1.435 1.9 4.763
  vertex 1.809 2.395 4.763
  vertex 1.191 2.062 4.763
 endloop
endfacet
facet normal 0 0 1
 outer loop
  vertex 1.191 2.062 4.763
  vertex 1.809 2.395 4.763
  vertex 1.501 2.6 4.763
 endloop
endfacet
facet normal 0 -0 1
 outer loop
  vertex 1.191 2.062 4.763
  vertex 1.501 2.6 4.763
  vertex 0.928 2.193 4.763
 endloop
endfacet
facet normal 0 0 1
 outer loop
  vertex 0.928 2.193 4.763
  vertex 1.501 2.6 4.763
  vertex 1.17 2.764 4.763
 endloop
endfacet
facet normal 0 -0 1
 outer loop
  vertex 0.928 2.193 4.763
  vertex 1.17 2.764 4.763
  vertex 0.652 2.29 4.763
 endloop
endfacet
facet normal 0 0 1
 outer loop
  vertex 0.652 2.29 4.763
  vertex 1.17 2.764 4.763
  vertex 0.821 2.887 4.763
 endloop
endfacet
facet normal 0 -0 1
 outer loop
  vertex 0.652 2.29 4.763
  vertex 0.821 2.887 4.763
  vertex 0.365 2.353 4.763
 endloop
endfacet
facet normal 0 0 1
 outer loop
  vertex 0.365 2.353 4.763
  vertex 0.821 2.887 4.763
  vertex 0.46 2.966 4.763
 endloop
endfacet
facet normal 0 -0 1
 outer loop
  vertex 0.365 2.353 4.763
  vertex 0.46 2.966 4.763
  vertex 0.073 2.38 4.763
 endloop
endfacet
facet normal 0 0 1
 outer loop
  vertex 0.073 2.38 4.763
  vertex 0.46 2.966 4.763
  vertex 0.092 3 4.763
 endloop
endfacet
facet normal 0 -0 1
 outer loop
  vertex 0.073 2.38 4.763
  vertex 0.092 3 4.763
  vertex -0.277 2.989 4.763
 endloop
endfacet
facet normal 0 0 1
 outer loop
  vertex 2.377 -0.147 4.763
  vertex 2.341 -0.438 4.763
  vertex 2.996 -0.185 4.763
 endloop
endfacet
facet normal 0 0 1
 outer loop
  vertex 2.996 -0.185 4.763
  vertex 2.341 -0.438 4.763
  vertex 2.951 -0.552 4.763
 endloop
endfacet
facet normal 0 0 1
 outer loop
  vertex 2.341 -0.438 4.763
  vertex 2.269 -0.722 4.763
  vertex 2.951 -0.552 4.763
 endloop
endfacet
facet normal 0 0 1
 outer loop
  vertex 2.951 -0.552 4.763
  vertex 2.269 -0.722 4.763
  vertex 2.861 -0.91 4.763
 endloop
endfacet
facet normal 0 0 1
 outer loop
  vertex 2.269 -0.722 4.763
  vertex 2.163 -0.995 4.763
  vertex 2.861 -0.91 4.763
 endloop
endfacet
facet normal 0 0 1
 outer loop
  vertex 2.861 -0.91 4.763
  vertex 2.163 -0.995 4.763
  vertex 2.727 -1.255 4.763
 endloop
endfacet
facet normal 0 0 1
 outer loop
  vertex 2.163 -0.995 4.763
  vertex 2.025 -1.254 4.763
  vertex 2.727 -1.255 4.763
 endloop
endfacet
facet normal 0 0 1
 outer loop
  vertex 2.727 -1.255 4.763
  vertex 2.025 -1.254 4.763
  vertex 2.552 -1.58 4.763
 endloop
endfacet
facet normal 0 0 1
 outer loop
  vertex 2.025 -1.254 4.763
  vertex 1.855 -1.493 4.763
  vertex 2.552 -1.58 4.763
 endloop
endfacet
facet normal 0 0 1
 outer loop
  vertex 2.552 -1.58 4.763
  vertex 1.855 -1.493 4.763
  vertex 2.339 -1.882 4.763
 endloop
endfacet
facet normal 0 0 1
 outer loop
  vertex 1.855 -1.493 4.763
  vertex 1.658 -1.71 4.763
  vertex 2.339 -1.882 4.763
 endloop
endfacet
facet normal 0 0 1
 outer loop
  vertex 2.339 -1.882 4.763
  vertex 1.658 -1.71 4.763
  vertex 2.09 -2.155 4.763
 endloop
endfacet
facet normal 0 0 1
 outer loop
  vertex 1.658 -1.71 4.763
  vertex 1.435 -1.9 4.763
  vertex 2.09 -2.155 4.763
 endloop
endfacet
facet normal 0 0 1
 outer loop
  vertex 2.09 -2.155 4.763
  vertex 1.435 -1.9 4.763
  vertex 1.809 -2.395 4.763
 endloop
endfacet
facet normal 0 0 1
 outer loop
  vertex 1.435 -1.9 4.763
  vertex 1.191 -2.062 4.763
  vertex 1.809 -2.395 4.763
 endloop
endfacet
facet normal 0 0 1
 outer loop
  vertex 1.809 -2.395 4.763
  vertex 1.191 -2.062 4.763
  vertex 1.501 -2.6 4.763
 endloop
endfacet
facet normal 0 0 1
 outer loop
  vertex 1.191 -2.062 4.763
  vertex 0.928 -2.193 4.763
  vertex 1.501 -2.6 4.763
 endloop
endfacet
facet normal 0 0 1
 outer loop
  vertex 1.501 -2.6 4.763
  vertex 0.928 -2.193 4.763
  vertex 1.17 -2.764 4.763
 endloop
endfacet
facet normal 0 0 1
 outer loop
  vertex 0.928 -2.193 4.763
  vertex 0.652 -2.29 4.763
  vertex 1.17 -2.764 4.763
 endloop
endfacet
facet normal 0 0 1
 outer loop
  vertex 1.17 -2.764 4.763
  vertex 0.652 -2.29 4.763
  vertex 0.821 -2.887 4.763
 endloop
endfacet
facet normal 0 0 1
 outer loop
  vertex 0.652 -2.29 4.763
  vertex 0.365 -2.353 4.763
  vertex 0.821 -2.887 4.763
 endloop
endfacet
facet normal 0 0 1
 outer loop
  vertex 0.821 -2.887 4.763
  vertex 0.365 -2.353 4.763
  vertex 0.46 -2.966 4.763
 endloop
endfacet
facet normal 0 0 1
 outer loop
  vertex 0.365 -2.353 4.763
  vertex 0.073 -2.38 4.763
  vertex 0.46 -2.966 4.763
 endloop
endfacet
facet normal 0 0 1
 outer loop
  vertex 0.46 -2.966 4.763
  vertex 0.073 -2.38 4.763
  vertex 0.092 -3 4.763
 endloop
endfacet
facet normal 0 0 1
 outer loop
  vertex 0.092 -3 4.763
  vertex 0.073 -2.38 4.763
  vertex -0.277 -2.989 4.763
 endloop
endfacet
facet normal 0 0 1
 outer loop
  vertex -0.277 -2.989 4.763
  vertex 0.073 -2.38 4.763
  vertex -0.22 -2.371 4.763
 endloop
endfacet
facet normal 0 -0 1
 outer loop
  vertex -0.277 -2.989 4.763
  vertex -0.22 -2.371 4.763
  vertex -0.642 -2.932 4.763
 endloop
endfacet
facet normal 0 0 1
 outer loop
  vertex -0.642 -2.932 4.763
  vertex -0.22 -2.371 4.763
  vertex -0.509 -2.326 4.763
 endloop
endfacet
facet normal 0 -0 1
 outer loop
  vertex -0.642 -2.932 4.763
  vertex -0.509 -2.326 4.763
  vertex -0.998 -2.831 4.763
 endloop
endfacet
facet normal 0 0 1
 outer loop
  vertex -0.998 -2.831 4.763
  vertex -0.509 -2.326 4.763
  vertex -0.791 -2.246 4.763
 endloop
endfacet
facet normal 0 -0 1
 outer loop
  vertex -0.998 -2.831 4.763
  vertex -0.791 -2.246 4.763
  vertex -1.338 -2.687 4.763
 endloop
endfacet
facet normal 0 0 1
 outer loop
  vertex -1.338 -2.687 4.763
  vertex -0.791 -2.246 4.763
  vertex -1.061 -2.132 4.763
 endloop
endfacet
facet normal 0 -0 1
 outer loop
  vertex -1.338 -2.687 4.763
  vertex -1.061 -2.132 4.763
  vertex -1.658 -2.502 4.763
 endloop
endfacet
facet normal 0 0 1
 outer loop
  vertex -1.658 -2.502 4.763
  vertex -1.061 -2.132 4.763
  vertex -1.315 -1.985 4.763
 endloop
endfacet
facet normal 0 -0 1
 outer loop
  vertex -1.658 -2.502 4.763
  vertex -1.315 -1.985 4.763
  vertex -1.953 -2.28 4.763
 endloop
endfacet
facet normal 0 0 1
 outer loop
  vertex -1.953 -2.28 4.763
  vertex -1.315 -1.985 4.763
  vertex -1.549 -1.808 4.763
 endloop
endfacet
facet normal 0 -0 1
 outer loop
  vertex -1.953 -2.28 4.763
  vertex -1.549 -1.808 4.763
  vertex -2.218 -2.022 4.763
 endloop
endfacet
facet normal 0 0 1
 outer loop
  vertex -2.218 -2.022 4.763
  vertex -1.549 -1.808 4.763
  vertex -1.76 -1.604 4.763
 endloop
endfacet
facet normal 0 -0 1
 outer loop
  vertex -2.218 -2.022 4.763
  vertex -1.76 -1.604 4.763
  vertex -2.45 -1.734 4.763
 endloop
endfacet
facet normal 0 0 1
 outer loop
  vertex -2.45 -1.734 4.763
  vertex -1.76 -1.604 4.763
  vertex -1.944 -1.376 4.763
 endloop
endfacet
facet normal 0 -0 1
 outer loop
  vertex -2.45 -1.734 4.763
  vertex -1.944 -1.376 4.763
  vertex -2.645 -1.42 4.763
 endloop
endfacet
facet normal 0 0 1
 outer loop
  vertex -2.645 -1.42 4.763
  vertex -1.944 -1.376 4.763
  vertex -2.098 -1.127 4.763
 endloop
endfacet
facet normal 0 -0 1
 outer loop
  vertex -2.645 -1.42 4.763
  vertex -2.098 -1.127 4.763
  vertex -2.799 -1.084 4.763
 endloop
endfacet
facet normal -0 0 1
 outer loop
  vertex -2.799 -1.084 4.763
  vertex -2.098 -1.127 4.763
  vertex -2.22 -0.86 4.763
 endloop
endfacet
facet normal 0 -0 1
 outer loop
  vertex -2.799 -1.084 4.763
  vertex -2.22 -0.86 4.763
  vertex -2.911 -0.732 4.763
 endloop
endfacet
facet normal -0 0 1
 outer loop
  vertex -2.911 -0.732 4.763
  vertex -2.22 -0.86 4.763
  vertex -2.309 -0.581 4.763
 endloop
endfacet
facet normal 0 -0 1
 outer loop
  vertex -2.911 -0.732 4.763
  vertex -2.309 -0.581 4.763
  vertex -2.979 -0.369 4.763
 endloop
endfacet
facet normal -0 0 1
 outer loop
  vertex -2.979 -0.369 4.763
  vertex -2.309 -0.581 4.763
  vertex -2.363 -0.293 4.763
 endloop
endfacet
facet normal 0 -0 1
 outer loop
  vertex -2.979 -0.369 4.763
  vertex -2.363 -0.293 4.763
  vertex -3.002 0 4.763
 endloop
endfacet
facet normal 0 0 1
 outer loop
  vertex -3.002 0 4.763
  vertex -2.363 -0.293 4.763
  vertex -2.381 0 4.763
 endloop
endfacet
facet normal -0 0 1
 outer loop
  vertex -3.002 0 4.763
  vertex -2.381 0 4.763
  vertex -2.363 0.293 4.763
 endloop
endfacet
facet normal 0 0 1
 outer loop
  vertex -3.002 0 4.763
  vertex -2.363 0.293 4.763
  vertex -2.979 0.369 4.763
 endloop
endfacet
facet normal -0 0 1
 outer loop
  vertex -2.979 0.369 4.763
  vertex -2.363 0.293 4.763
  vertex -2.309 0.581 4.763
 endloop
endfacet
facet normal 0 0 1
 outer loop
  vertex -2.979 0.369 4.763
  vertex -2.309 0.581 4.763
  vertex -2.911 0.732 4.763
 endloop
endfacet
facet normal -0 0 1
 outer loop
  vertex -2.911 0.732 4.763
  vertex -2.309 0.581 4.763
  vertex -2.22 0.86 4.763
 endloop
endfacet
facet normal 0 0 1
 outer loop
  vertex -2.911 0.732 4.763
  vertex -2.22 0.86 4.763
  vertex -2.799 1.084 4.763
 endloop
endfacet
facet normal -0 0 1
 outer loop
  vertex -2.799 1.084 4.763
  vertex -2.22 0.86 4.763
  vertex -2.098 1.127 4.763
 endloop
endfacet
facet normal 0 0 1
 outer loop
  vertex -2.799 1.084 4.763
  vertex -2.098 1.127 4.763
  vertex -2.645 1.42 4.763
 endloop
endfacet
facet normal 0 0 1
 outer loop
  vertex -2.645 1.42 4.763
  vertex -2.098 1.127 4.763
  vertex -1.944 1.376 4.763
 endloop
endfacet
facet normal -0 0 1
 outer loop
  vertex -2.645 1.42 4.763
  vertex -1.944 1.376 4.763
  vertex -2.45 1.734 4.763
 endloop
endfacet
facet normal 0 0 1
 outer loop
  vertex -2.45 1.734 4.763
  vertex -1.944 1.376 4.763
  vertex -1.76 1.604 4.763
 endloop
endfacet
facet normal -0 0 1
 outer loop
  vertex -2.45 1.734 4.763
  vertex -1.76 1.604 4.763
  vertex -2.218 2.022 4.763
 endloop
endfacet
facet normal 0 0 1
 outer loop
  vertex -2.218 2.022 4.763
  vertex -1.76 1.604 4.763
  vertex -1.549 1.808 4.763
 endloop
endfacet
facet normal -0 0 1
 outer loop
  vertex -2.218 2.022 4.763
  vertex -1.549 1.808 4.763
  vertex -1.953 2.28 4.763
 endloop
endfacet
facet normal 0 0 1
 outer loop
  vertex -1.953 2.28 4.763
  vertex -1.549 1.808 4.763
  vertex -1.315 1.985 4.763
 endloop
endfacet
facet normal -0 0 1
 outer loop
  vertex -1.953 2.28 4.763
  vertex -1.315 1.985 4.763
  vertex -1.658 2.502 4.763
 endloop
endfacet
facet normal 0 0 1
 outer loop
  vertex -1.658 2.502 4.763
  vertex -1.315 1.985 4.763
  vertex -1.061 2.132 4.763
 endloop
endfacet
facet normal -0 0 1
 outer loop
  vertex -1.658 2.502 4.763
  vertex -1.061 2.132 4.763
  vertex -1.338 2.687 4.763
 endloop
endfacet
facet normal 0 0 1
 outer loop
  vertex -1.338 2.687 4.763
  vertex -1.061 2.132 4.763
  vertex -0.791 2.246 4.763
 endloop
endfacet
facet normal -0 0 1
 outer loop
  vertex -1.338 2.687 4.763
  vertex -0.791 2.246 4.763
  vertex -0.998 2.831 4.763
 endloop
endfacet
facet normal 0 0 1
 outer loop
  vertex -0.998 2.831 4.763
  vertex -0.791 2.246 4.763
  vertex -0.509 2.326 4.763
 endloop
endfacet
facet normal -0 0 1
 outer loop
  vertex -0.998 2.831 4.763
  vertex -0.509 2.326 4.763
  vertex -0.642 2.932 4.763
 endloop
endfacet
facet normal 0 0 1
 outer loop
  vertex -0.642 2.932 4.763
  vertex -0.509 2.326 4.763
  vertex -0.22 2.371 4.763
 endloop
endfacet
facet normal -0 0 1
 outer loop
  vertex -0.642 2.932 4.763
  vertex -0.22 2.371 4.763
  vertex -0.277 2.989 4.763
 endloop
endfacet
facet normal 0 0 1
 outer loop
  vertex -0.277 2.989 4.763
  vertex -0.22 2.371 4.763
  vertex 0.073 2.38 4.763
 endloop
endfacet
facet normal -1 0.031 0
 outer loop
  vertex 2.377 -0.147 0.5
  vertex 2.377 -0.147 4.763
  vertex 2.381 0 0.5
 endloop
endfacet
facet normal -1 0.031 0
 outer loop
  vertex 2.381 0 0.5
  vertex 2.377 -0.147 4.763
  vertex 2.381 0 4.763
 endloop
endfacet
facet normal -1 -0.031 0
 outer loop
  vertex 2.381 0 0.5
  vertex 2.381 0 4.763
  vertex 2.377 0.147 0.5
 endloop
endfacet
facet normal -1 -0.031 0
 outer loop
  vertex 2.377 0.147 0.5
  vertex 2.381 0 4.763
  vertex 2.377 0.147 4.763
 endloop
endfacet
facet normal -0.992 -0.123 0
 outer loop
  vertex 2.377 0.147 0.5
  vertex 2.377 0.147 4.763
  vertex 2.341 0.438 0.5
 endloop
endfacet
facet normal -0.992 -0.123 0
 outer loop
  vertex 2.341 0.438 0.5
  vertex 2.377 0.147 4.763
  vertex 2.341 0.438 4.763
 endloop
endfacet
facet normal -0.97 -0.244 0
 outer loop
  vertex 2.341 0.438 0.5
  vertex 2.341 0.438 4.763
  vertex 2.269 0.722 0.5
 endloop
endfacet
facet normal -0.97 -0.244 0
 outer loop
  vertex 2.269 0.722 0.5
  vertex 2.341 0.438 4.763
  vertex 2.269 0.722 4.763
 endloop
endfacet
facet normal -0.932 -0.361 0
 outer loop
  vertex 2.269 0.722 0.5
  vertex 2.269 0.722 4.763
  vertex 2.163 0.995 0.5
 endloop
endfacet
facet normal -0.932 -0.361 0
 outer loop
  vertex 2.163 0.995 0.5
  vertex 2.269 0.722 4.763
  vertex 2.163 0.995 4.763
 endloop
endfacet
facet normal -0.881 -0.473 0
 outer loop
  vertex 2.163 0.995 0.5
  vertex 2.163 0.995 4.763
  vertex 2.025 1.254 0.5
 endloop
endfacet
facet normal -0.881 -0.473 0
 outer loop
  vertex 2.025 1.254 0.5
  vertex 2.163 0.995 4.763
  vertex 2.025 1.254 4.763
 endloop
endfacet
facet normal -0.816 -0.578 0
 outer loop
  vertex 2.025 1.254 0.5
  vertex 2.025 1.254 4.763
  vertex 1.855 1.493 0.5
 endloop
endfacet
facet normal -0.816 -0.578 0
 outer loop
  vertex 1.855 1.493 0.5
  vertex 2.025 1.254 4.763
  vertex 1.855 1.493 4.763
 endloop
endfacet
facet normal -0.739 -0.674 0
 outer loop
  vertex 1.855 1.493 0.5
  vertex 1.855 1.493 4.763
  vertex 1.658 1.71 0.5
 endloop
endfacet
facet normal -0.739 -0.674 0
 outer loop
  vertex 1.658 1.71 0.5
  vertex 1.855 1.493 4.763
  vertex 1.658 1.71 4.763
 endloop
endfacet
facet normal -0.651 -0.759 0
 outer loop
  vertex 1.658 1.71 0.5
  vertex 1.658 1.71 4.763
  vertex 1.435 1.9 0.5
 endloop
endfacet
facet normal -0.651 -0.759 0
 outer loop
  vertex 1.435 1.9 0.5
  vertex 1.658 1.71 4.763
  vertex 1.435 1.9 4.763
 endloop
endfacet
facet normal -0.552 -0.834 0
 outer loop
  vertex 1.435 1.9 0.5
  vertex 1.435 1.9 4.763
  vertex 1.191 2.062 0.5
 endloop
endfacet
facet normal -0.552 -0.834 0
 outer loop
  vertex 1.191 2.062 0.5
  vertex 1.435 1.9 4.763
  vertex 1.191 2.062 4.763
 endloop
endfacet
facet normal -0.446 -0.895 0
 outer loop
  vertex 1.191 2.062 0.5
  vertex 1.191 2.062 4.763
  vertex 0.928 2.193 0.5
 endloop
endfacet
facet normal -0.446 -0.895 0
 outer loop
  vertex 0.928 2.193 0.5
  vertex 1.191 2.062 4.763
  vertex 0.928 2.193 4.763
 endloop
endfacet
facet normal -0.332 -0.943 0
 outer loop
  vertex 0.928 2.193 0.5
  vertex 0.928 2.193 4.763
  vertex 0.652 2.29 0.5
 endloop
endfacet
facet normal -0.332 -0.943 0
 outer loop
  vertex 0.652 2.29 0.5
  vertex 0.928 2.193 4.763
  vertex 0.652 2.29 4.763
 endloop
endfacet
facet normal -0.214 -0.977 0
 outer loop
  vertex 0.652 2.29 0.5
  vertex 0.652 2.29 4.763
  vertex 0.365 2.353 0.5
 endloop
endfacet
facet normal -0.214 -0.977 0
 outer loop
  vertex 0.365 2.353 0.5
  vertex 0.652 2.29 4.763
  vertex 0.365 2.353 4.763
 endloop
endfacet
facet normal -0.092 -0.996 0
 outer loop
  vertex 0.365 2.353 0.5
  vertex 0.365 2.353 4.763
  vertex 0.073 2.38 0.5
 endloop
endfacet
facet normal -0.092 -0.996 0
 outer loop
  vertex 0.073 2.38 0.5
  vertex 0.365 2.353 4.763
  vertex 0.073 2.38 4.763
 endloop
endfacet
facet normal 0.031 -1 0
 outer loop
  vertex 0.073 2.38 0.5
  vertex 0.073 2.38 4.763
  vertex -0.22 2.371 0.5
 endloop
endfacet
facet normal 0.031 -1 0
 outer loop
  vertex -0.22 2.371 0.5
  vertex 0.073 2.38 4.763
  vertex -0.22 2.371 4.763
 endloop
endfacet
facet normal 0.153 -0.988 0
 outer loop
  vertex -0.22 2.371 0.5
  vertex -0.22 2.371 4.763
  vertex -0.509 2.326 0.5
 endloop
endfacet
facet normal 0.153 -0.988 0
 outer loop
  vertex -0.509 2.326 0.5
  vertex -0.22 2.371 4.763
  vertex -0.509 2.326 4.763
 endloop
endfacet
facet normal 0.274 -0.962 0
 outer loop
  vertex -0.509 2.326 0.5
  vertex -0.509 2.326 4.763
  vertex -0.791 2.246 0.5
 endloop
endfacet
facet normal 0.274 -0.962 0
 outer loop
  vertex -0.791 2.246 0.5
  vertex -0.509 2.326 4.763
  vertex -0.791 2.246 4.763
 endloop
endfacet
facet normal 0.39 -0.921 0
 outer loop
  vertex -0.791 2.246 0.5
  vertex -0.791 2.246 4.763
  vertex -1.061 2.132 0.5
 endloop
endfacet
facet normal 0.39 -0.921 0
 outer loop
  vertex -1.061 2.132 0.5
  vertex -0.791 2.246 4.763
  vertex -1.061 2.132 4.763
 endloop
endfacet
facet normal 0.5 -0.866 0
 outer loop
  vertex -1.061 2.132 0.5
  vertex -1.061 2.132 4.763
  vertex -1.315 1.985 0.5
 endloop
endfacet
facet normal 0.5 -0.866 0
 outer loop
  vertex -1.315 1.985 0.5
  vertex -1.061 2.132 4.763
  vertex -1.315 1.985 4.763
 endloop
endfacet
facet normal 0.603 -0.798 0
 outer loop
  vertex -1.315 1.985 0.5
  vertex -1.315 1.985 4.763
  vertex -1.549 1.808 0.5
 endloop
endfacet
facet normal 0.603 -0.798 0
 outer loop
  vertex -1.549 1.808 0.5
  vertex -1.315 1.985 4.763
  vertex -1.549 1.808 4.763
 endloop
endfacet
facet normal 0.696 -0.718 0
 outer loop
  vertex -1.549 1.808 0.5
  vertex -1.549 1.808 4.763
  vertex -1.76 1.604 0.5
 endloop
endfacet
facet normal 0.696 -0.718 0
 outer loop
  vertex -1.76 1.604 0.5
  vertex -1.549 1.808 4.763
  vertex -1.76 1.604 4.763
 endloop
endfacet
facet normal 0.779 -0.627 0
 outer loop
  vertex -1.76 1.604 0.5
  vertex -1.76 1.604 4.763
  vertex -1.944 1.376 0.5
 endloop
endfacet
facet normal 0.779 -0.627 0
 outer loop
  vertex -1.944 1.376 0.5
  vertex -1.76 1.604 4.763
  vertex -1.944 1.376 4.763
 endloop
endfacet
facet normal 0.85 -0.526 0
 outer loop
  vertex -1.944 1.376 0.5
  vertex -1.944 1.376 4.763
  vertex -2.098 1.127 0.5
 endloop
endfacet
facet normal 0.85 -0.526 0
 outer loop
  vertex -2.098 1.127 0.5
  vertex -1.944 1.376 4.763
  vertex -2.098 1.127 4.763
 endloop
endfacet
facet normal 0.908 -0.418 0
 outer loop
  vertex -2.098 1.127 0.5
  vertex -2.098 1.127 4.763
  vertex -2.22 0.86 0.5
 endloop
endfacet
facet normal 0.908 -0.418 0
 outer loop
  vertex -2.22 0.86 0.5
  vertex -2.098 1.127 4.763
  vertex -2.22 0.86 4.763
 endloop
endfacet
facet normal 0.953 -0.303 0
 outer loop
  vertex -2.22 0.86 0.5
  vertex -2.22 0.86 4.763
  vertex -2.309 0.581 0.5
 endloop
endfacet
facet normal 0.953 -0.303 0
 outer loop
  vertex -2.309 0.581 0.5
  vertex -2.22 0.86 4.763
  vertex -2.309 0.581 4.763
 endloop
endfacet
facet normal 0.983 -0.184 0
 outer loop
  vertex -2.309 0.581 0.5
  vertex -2.309 0.581 4.763
  vertex -2.363 0.293 0.5
 endloop
endfacet
facet normal 0.983 -0.184 0
 outer loop
  vertex -2.363 0.293 0.5
  vertex -2.309 0.581 4.763
  vertex -2.363 0.293 4.763
 endloop
endfacet
facet normal 0.998 -0.062 0
 outer loop
  vertex -2.363 0.293 0.5
  vertex -2.363 0.293 4.763
  vertex -2.381 0 0.5
 endloop
endfacet
facet normal 0.998 -0.062 0
 outer loop
  vertex -2.381 0 0.5
  vertex -2.363 0.293 4.763
  vertex -2.381 0 4.763
 endloop
endfacet
facet normal 0.998 0.062 -0
 outer loop
  vertex -2.381 0 0.5
  vertex -2.381 0 4.763
  vertex -2.363 -0.293 0.5
 endloop
endfacet
facet normal 0.998 0.062 -0
 outer loop
  vertex -2.363 -0.293 0.5
  vertex -2.381 0 4.763
  vertex -2.363 -0.293 4.763
 endloop
endfacet
facet normal 0.983 0.184 -0
 outer loop
  vertex -2.363 -0.293 0.5
  vertex -2.363 -0.293 4.763
  vertex -2.309 -0.581 0.5
 endloop
endfacet
facet normal 0.983 0.184 -0
 outer loop
  vertex -2.309 -0.581 0.5
  vertex -2.363 -0.293 4.763
  vertex -2.309 -0.581 4.763
 endloop
endfacet
facet normal 0.953 0.303 -0
 outer loop
  vertex -2.309 -0.581 0.5
  vertex -2.309 -0.581 4.763
  vertex -2.22 -0.86 0.5
 endloop
endfacet
facet normal 0.953 0.303 -0
 outer loop
  vertex -2.22 -0.86 0.5
  vertex -2.309 -0.581 4.763
  vertex -2.22 -0.86 4.763
 endloop
endfacet
facet normal 0.908 0.418 -0
 outer loop
  vertex -2.22 -0.86 0.5
  vertex -2.22 -0.86 4.763
  vertex -2.098 -1.127 0.5
 endloop
endfacet
facet normal 0.908 0.418 -0
 outer loop
  vertex -2.098 -1.127 0.5
  vertex -2.22 -0.86 4.763
  vertex -2.098 -1.127 4.763
 endloop
endfacet
facet normal 0.85 0.526 -0
 outer loop
  vertex -2.098 -1.127 0.5
  vertex -2.098 -1.127 4.763
  vertex -1.944 -1.376 0.5
 endloop
endfacet
facet normal 0.85 0.526 -0
 outer loop
  vertex -1.944 -1.376 0.5
  vertex -2.098 -1.127 4.763
  vertex -1.944 -1.376 4.763
 endloop
endfacet
facet normal 0.779 0.627 -0
 outer loop
  vertex -1.944 -1.376 0.5
  vertex -1.944 -1.376 4.763
  vertex -1.76 -1.604 0.5
 endloop
endfacet
facet normal 0.779 0.627 -0
 outer loop
  vertex -1.76 -1.604 0.5
  vertex -1.944 -1.376 4.763
  vertex -1.76 -1.604 4.763
 endloop
endfacet
facet normal 0.696 0.718 -0
 outer loop
  vertex -1.76 -1.604 0.5
  vertex -1.76 -1.604 4.763
  vertex -1.549 -1.808 0.5
 endloop
endfacet
facet normal 0.696 0.718 -0
 outer loop
  vertex -1.549 -1.808 0.5
  vertex -1.76 -1.604 4.763
  vertex -1.549 -1.808 4.763
 endloop
endfacet
facet normal 0.603 0.798 -0
 outer loop
  vertex -1.549 -1.808 0.5
  vertex -1.549 -1.808 4.763
  vertex -1.315 -1.985 0.5
 endloop
endfacet
facet normal 0.603 0.798 -0
 outer loop
  vertex -1.315 -1.985 0.5
  vertex -1.549 -1.808 4.763
  vertex -1.315 -1.985 4.763
 endloop
endfacet
facet normal 0.5 0.866 -0
 outer loop
  vertex -1.315 -1.985 0.5
  vertex -1.315 -1.985 4.763
  vertex -1.061 -2.132 0.5
 endloop
endfacet
facet normal 0.5 0.866 -0
 outer loop
  vertex -1.061 -2.132 0.5
  vertex -1.315 -1.985 4.763
  vertex -1.061 -2.132 4.763
 endloop
endfacet
facet normal 0.39 0.921 -0
 outer loop
  vertex -1.061 -2.132 0.5
  vertex -1.061 -2.132 4.763
  vertex -0.791 -2.246 0.5
 endloop
endfacet
facet normal 0.39 0.921 -0
 outer loop
  vertex -0.791 -2.246 0.5
  vertex -1.061 -2.132 4.763
  vertex -0.791 -2.246 4.763
 endloop
endfacet
facet normal 0.274 0.962 -0
 outer loop
  vertex -0.791 -2.246 0.5
  vertex -0.791 -2.246 4.763
  vertex -0.509 -2.326 0.5
 endloop
endfacet
facet normal 0.274 0.962 -0
 outer loop
  vertex -0.509 -2.326 0.5
  vertex -0.791 -2.246 4.763
  vertex -0.509 -2.326 4.763
 endloop
endfacet
facet normal 0.153 0.988 -0
 outer loop
  vertex -0.509 -2.326 0.5
  vertex -0.509 -2.326 4.763
  vertex -0.22 -2.371 0.5
 endloop
endfacet
facet normal 0.153 0.988 -0
 outer loop
  vertex -0.22 -2.371 0.5
  vertex -0.509 -2.326 4.763
  vertex -0.22 -2.371 4.763
 endloop
endfacet
facet normal 0.031 1 -0
 outer loop
  vertex -0.22 -2.371 0.5
  vertex -0.22 -2.371 4.763
  vertex 0.073 -2.38 0.5
 endloop
endfacet
facet normal 0.031 1 -0
 outer loop
  vertex 0.073 -2.38 0.5
  vertex -0.22 -2.371 4.763
  vertex 0.073 -2.38 4.763
 endloop
endfacet
facet normal -0.092 0.996 0
 outer loop
  vertex 0.073 -2.38 0.5
  vertex 0.073 -2.38 4.763
  vertex 0.365 -2.353 0.5
 endloop
endfacet
facet normal -0.092 0.996 0
 outer loop
  vertex 0.365 -2.353 0.5
  vertex 0.073 -2.38 4.763
  vertex 0.365 -2.353 4.763
 endloop
endfacet
facet normal -0.214 0.977 0
 outer loop
  vertex 0.365 -2.353 0.5
  vertex 0.365 -2.353 4.763
  vertex 0.652 -2.29 0.5
 endloop
endfacet
facet normal -0.214 0.977 0
 outer loop
  vertex 0.652 -2.29 0.5
  vertex 0.365 -2.353 4.763
  vertex 0.652 -2.29 4.763
 endloop
endfacet
facet normal -0.332 0.943 0
 outer loop
  vertex 0.652 -2.29 0.5
  vertex 0.652 -2.29 4.763
  vertex 0.928 -2.193 0.5
 endloop
endfacet
facet normal -0.332 0.943 0
 outer loop
  vertex 0.928 -2.193 0.5
  vertex 0.652 -2.29 4.763
  vertex 0.928 -2.193 4.763
 endloop
endfacet
facet normal -0.446 0.895 0
 outer loop
  vertex 0.928 -2.193 0.5
  vertex 0.928 -2.193 4.763
  vertex 1.191 -2.062 0.5
 endloop
endfacet
facet normal -0.446 0.895 0
 outer loop
  vertex 1.191 -2.062 0.5
  vertex 0.928 -2.193 4.763
  vertex 1.191 -2.062 4.763
 endloop
endfacet
facet normal -0.552 0.834 0
 outer loop
  vertex 1.191 -2.062 0.5
  vertex 1.191 -2.062 4.763
  vertex 1.435 -1.9 0.5
 endloop
endfacet
facet normal -0.552 0.834 0
 outer loop
  vertex 1.435 -1.9 0.5
  vertex 1.191 -2.062 4.763
  vertex 1.435 -1.9 4.763
 endloop
endfacet
facet normal -0.651 0.759 0
 outer loop
  vertex 1.435 -1.9 0.5
  vertex 1.435 -1.9 4.763
  vertex 1.658 -1.71 0.5
 endloop
endfacet
facet normal -0.651 0.759 0
 outer loop
  vertex 1.658 -1.71 0.5
  vertex 1.435 -1.9 4.763
  vertex 1.658 -1.71 4.763
 endloop
endfacet
facet normal -0.739 0.674 0
 outer loop
  vertex 1.658 -1.71 0.5
  vertex 1.658 -1.71 4.763
  vertex 1.855 -1.493 0.5
 endloop
endfacet
facet normal -0.739 0.674 0
 outer loop
  vertex 1.855 -1.493 0.5
  vertex 1.658 -1.71 4.763
  vertex 1.855 -1.493 4.763
 endloop
endfacet
facet normal -0.816 0.578 0
 outer loop
  vertex 1.855 -1.493 0.5
  vertex 1.855 -1.493 4.763
  vertex 2.025 -1.254 0.5
 endloop
endfacet
facet normal -0.816 0.578 0
 outer loop
  vertex 2.025 -1.254 0.5
  vertex 1.855 -1.493 4.763
  vertex 2.025 -1.254 4.763
 endloop
endfacet
facet normal -0.881 0.473 0
 outer loop
  vertex 2.025 -1.254 0.5
  vertex 2.025 -1.254 4.763
  vertex 2.163 -0.995 0.5
 endloop
endfacet
facet normal -0.881 0.473 0
 outer loop
  vertex 2.163 -0.995 0.5
  vertex 2.025 -1.254 4.763
  vertex 2.163 -0.995 4.763
 endloop
endfacet
facet normal -0.932 0.361 0
 outer loop
  vertex 2.163 -0.995 0.5
  vertex 2.163 -0.995 4.763
  vertex 2.269 -0.722 0.5
 endloop
endfacet
facet normal -0.932 0.361 0
 outer loop
  vertex 2.269 -0.722 0.5
  vertex 2.163 -0.995 4.763
  vertex 2.269 -0.722 4.763
 endloop
endfacet
facet normal -0.97 0.244 0
 outer loop
  vertex 2.269 -0.722 0.5
  vertex 2.269 -0.722 4.763
  vertex 2.341 -0.438 0.5
 endloop
endfacet
facet normal -0.97 0.244 0
 outer loop
  vertex 2.341 -0.438 0.5
  vertex 2.269 -0.722 4.763
  vertex 2.341 -0.438 4.763
 endloop
endfacet
facet normal -0.992 0.123 0
 outer loop
  vertex 2.341 -0.438 0.5
  vertex 2.341 -0.438 4.763
  vertex 2.377 -0.147 0.5
 endloop
endfacet
facet normal -0.992 0.123 0
 outer loop
  vertex 2.377 -0.147 0.5
  vertex 2.341 -0.438 4.763
  vertex 2.377 -0.147 4.763
 endloop
endfacet
facet normal -0.866 0.027 -0.5
 outer loop
  vertex 2.665 -0.164 0
  vertex 2.377 -0.147 0.5
  vertex 2.67 0 0
 endloop
endfacet
facet normal -0.866 0.027 -0.5
 outer loop
  vertex 2.67 0 0
  vertex 2.377 -0.147 0.5
  vertex 2.381 0 0.5
 endloop
endfacet
facet normal -0.866 -0.027 -0.5
 outer loop
  vertex 2.67 0 0
  vertex 2.381 0 0.5
  vertex 2.665 0.164 0
 endloop
endfacet
facet normal -0.866 -0.027 -0.5
 outer loop
  vertex 2.665 0.164 0
  vertex 2.381 0 0.5
  vertex 2.377 0.147 0.5
 endloop
endfacet
facet normal -0.86 -0.106 -0.499
 outer loop
  vertex 2.665 0.164 0
  vertex 2.377 0.147 0.5
  vertex 2.624 0.491 0
 endloop
endfacet
facet normal -0.86 -0.106 -0.499
 outer loop
  vertex 2.624 0.491 0
  vertex 2.377 0.147 0.5
  vertex 2.341 0.438 0.5
 endloop
endfacet
facet normal -0.84 -0.211 -0.499
 outer loop
  vertex 2.624 0.491 0
  vertex 2.341 0.438 0.5
  vertex 2.544 0.809 0
 endloop
endfacet
facet normal -0.84 -0.211 -0.499
 outer loop
  vertex 2.544 0.809 0
  vertex 2.341 0.438 0.5
  vertex 2.269 0.722 0.5
 endloop
endfacet
facet normal -0.808 -0.313 -0.499
 outer loop
  vertex 2.544 0.809 0
  vertex 2.269 0.722 0.5
  vertex 2.426 1.116 0
 endloop
endfacet
facet normal -0.808 -0.313 -0.499
 outer loop
  vertex 2.426 1.116 0
  vertex 2.269 0.722 0.5
  vertex 2.163 0.995 0.5
 endloop
endfacet
facet normal -0.763 -0.41 -0.499
 outer loop
  vertex 2.426 1.116 0
  vertex 2.163 0.995 0.5
  vertex 2.27 1.406 0
 endloop
endfacet
facet normal -0.763 -0.41 -0.499
 outer loop
  vertex 2.27 1.406 0
  vertex 2.163 0.995 0.5
  vertex 2.025 1.254 0.5
 endloop
endfacet
facet normal -0.707 -0.501 -0.499
 outer loop
  vertex 2.27 1.406 0
  vertex 2.025 1.254 0.5
  vertex 2.08 1.674 0
 endloop
endfacet
facet normal -0.707 -0.501 -0.499
 outer loop
  vertex 2.08 1.674 0
  vertex 2.025 1.254 0.5
  vertex 1.855 1.493 0.5
 endloop
endfacet
facet normal -0.64 -0.584 -0.499
 outer loop
  vertex 2.08 1.674 0
  vertex 1.855 1.493 0.5
  vertex 1.859 1.917 0
 endloop
endfacet
facet normal -0.64 -0.584 -0.499
 outer loop
  vertex 1.859 1.917 0
  vertex 1.855 1.493 0.5
  vertex 1.658 1.71 0.5
 endloop
endfacet
facet normal -0.564 -0.658 -0.499
 outer loop
  vertex 1.859 1.917 0
  vertex 1.658 1.71 0.5
  vertex 1.609 2.131 0
 endloop
endfacet
facet normal -0.564 -0.658 -0.499
 outer loop
  vertex 1.609 2.131 0
  vertex 1.658 1.71 0.5
  vertex 1.435 1.9 0.5
 endloop
endfacet
facet normal -0.479 -0.722 -0.499
 outer loop
  vertex 1.609 2.131 0
  vertex 1.435 1.9 0.5
  vertex 1.335 2.312 0
 endloop
endfacet
facet normal -0.479 -0.722 -0.499
 outer loop
  vertex 1.335 2.312 0
  vertex 1.435 1.9 0.5
  vertex 1.191 2.062 0.5
 endloop
endfacet
facet normal -0.386 -0.776 -0.499
 outer loop
  vertex 1.335 2.312 0
  vertex 1.191 2.062 0.5
  vertex 1.041 2.459 0
 endloop
endfacet
facet normal -0.386 -0.776 -0.499
 outer loop
  vertex 1.041 2.459 0
  vertex 1.191 2.062 0.5
  vertex 0.928 2.193 0.5
 endloop
endfacet
facet normal -0.288 -0.817 -0.499
 outer loop
  vertex 1.041 2.459 0
  vertex 0.928 2.193 0.5
  vertex 0.731 2.568 0
 endloop
endfacet
facet normal -0.288 -0.817 -0.499
 outer loop
  vertex 0.731 2.568 0
  vertex 0.928 2.193 0.5
  vertex 0.652 2.29 0.5
 endloop
endfacet
facet normal -0.185 -0.846 -0.499
 outer loop
  vertex 0.731 2.568 0
  vertex 0.652 2.29 0.5
  vertex 0.41 2.638 0
 endloop
endfacet
facet normal -0.185 -0.846 -0.499
 outer loop
  vertex 0.41 2.638 0
  vertex 0.652 2.29 0.5
  vertex 0.365 2.353 0.5
 endloop
endfacet
facet normal -0.08 -0.863 -0.499
 outer loop
  vertex 0.41 2.638 0
  vertex 0.365 2.353 0.5
  vertex 0.082 2.669 0
 endloop
endfacet
facet normal -0.08 -0.863 -0.499
 outer loop
  vertex 0.082 2.669 0
  vertex 0.365 2.353 0.5
  vertex 0.073 2.38 0.5
 endloop
endfacet
facet normal 0.027 -0.866 -0.499
 outer loop
  vertex 0.082 2.669 0
  vertex 0.073 2.38 0.5
  vertex -0.246 2.659 0
 endloop
endfacet
facet normal 0.027 -0.866 -0.499
 outer loop
  vertex -0.246 2.659 0
  vertex 0.073 2.38 0.5
  vertex -0.22 2.371 0.5
 endloop
endfacet
facet normal 0.133 -0.856 -0.499
 outer loop
  vertex -0.246 2.659 0
  vertex -0.22 2.371 0.5
  vertex -0.571 2.608 0
 endloop
endfacet
facet normal 0.133 -0.856 -0.499
 outer loop
  vertex -0.571 2.608 0
  vertex -0.22 2.371 0.5
  vertex -0.509 2.326 0.5
 endloop
endfacet
facet normal 0.237 -0.833 -0.499
 outer loop
  vertex -0.571 2.608 0
  vertex -0.509 2.326 0.5
  vertex -0.887 2.518 0
 endloop
endfacet
facet normal 0.237 -0.833 -0.499
 outer loop
  vertex -0.887 2.518 0
  vertex -0.509 2.326 0.5
  vertex -0.791 2.246 0.5
 endloop
endfacet
facet normal 0.338 -0.798 -0.499
 outer loop
  vertex -0.887 2.518 0
  vertex -0.791 2.246 0.5
  vertex -1.19 2.39 0
 endloop
endfacet
facet normal 0.338 -0.798 -0.499
 outer loop
  vertex -1.19 2.39 0
  vertex -0.791 2.246 0.5
  vertex -1.061 2.132 0.5
 endloop
endfacet
facet normal 0.433 -0.75 -0.499
 outer loop
  vertex -1.19 2.39 0
  vertex -1.061 2.132 0.5
  vertex -1.475 2.226 0
 endloop
endfacet
facet normal 0.433 -0.75 -0.499
 outer loop
  vertex -1.475 2.226 0
  vertex -1.061 2.132 0.5
  vertex -1.315 1.985 0.5
 endloop
endfacet
facet normal 0.522 -0.691 -0.499
 outer loop
  vertex -1.475 2.226 0
  vertex -1.315 1.985 0.5
  vertex -1.737 2.028 0
 endloop
endfacet
facet normal 0.522 -0.691 -0.499
 outer loop
  vertex -1.737 2.028 0
  vertex -1.315 1.985 0.5
  vertex -1.549 1.808 0.5
 endloop
endfacet
facet normal 0.603 -0.622 -0.499
 outer loop
  vertex -1.737 2.028 0
  vertex -1.549 1.808 0.5
  vertex -1.973 1.799 0
 endloop
endfacet
facet normal 0.603 -0.622 -0.499
 outer loop
  vertex -1.973 1.799 0
  vertex -1.549 1.808 0.5
  vertex -1.76 1.604 0.5
 endloop
endfacet
facet normal 0.675 -0.543 -0.499
 outer loop
  vertex -1.973 1.799 0
  vertex -1.76 1.604 0.5
  vertex -2.179 1.543 0
 endloop
endfacet
facet normal 0.675 -0.543 -0.499
 outer loop
  vertex -2.179 1.543 0
  vertex -1.76 1.604 0.5
  vertex -1.944 1.376 0.5
 endloop
endfacet
facet normal 0.737 -0.456 -0.499
 outer loop
  vertex -2.179 1.543 0
  vertex -1.944 1.376 0.5
  vertex -2.352 1.263 0
 endloop
endfacet
facet normal 0.737 -0.456 -0.499
 outer loop
  vertex -2.352 1.263 0
  vertex -1.944 1.376 0.5
  vertex -2.098 1.127 0.5
 endloop
endfacet
facet normal 0.787 -0.362 -0.499
 outer loop
  vertex -2.352 1.263 0
  vertex -2.098 1.127 0.5
  vertex -2.49 0.964 0
 endloop
endfacet
facet normal 0.787 -0.362 -0.499
 outer loop
  vertex -2.49 0.964 0
  vertex -2.098 1.127 0.5
  vertex -2.22 0.86 0.5
 endloop
endfacet
facet normal 0.826 -0.263 -0.499
 outer loop
  vertex -2.49 0.964 0
  vertex -2.22 0.86 0.5
  vertex -2.589 0.651 0
 endloop
endfacet
facet normal 0.826 -0.263 -0.499
 outer loop
  vertex -2.589 0.651 0
  vertex -2.22 0.86 0.5
  vertex -2.309 0.581 0.5
 endloop
endfacet
facet normal 0.852 -0.159 -0.499
 outer loop
  vertex -2.589 0.651 0
  vertex -2.309 0.581 0.5
  vertex -2.65 0.328 0
 endloop
endfacet
facet normal 0.852 -0.159 -0.499
 outer loop
  vertex -2.65 0.328 0
  vertex -2.309 0.581 0.5
  vertex -2.363 0.293 0.5
 endloop
endfacet
facet normal 0.865 -0.053 -0.499
 outer loop
  vertex -2.65 0.328 0
  vertex -2.363 0.293 0.5
  vertex -2.67 0 0
 endloop
endfacet
facet normal 0.865 -0.053 -0.499
 outer loop
  vertex -2.67 0 0
  vertex -2.363 0.293 0.5
  vertex -2.381 0 0.5
 endloop
endfacet
facet normal 0.865 0.053 -0.499
 outer loop
  vertex -2.67 0 0
  vertex -2.381 0 0.5
  vertex -2.65 -0.328 0
 endloop
endfacet
facet normal 0.865 0.053 -0.499
 outer loop
  vertex -2.65 -0.328 0
  vertex -2.381 0 0.5
  vertex -2.363 -0.293 0.5
 endloop
endfacet
facet normal 0.852 0.159 -0.499
 outer loop
  vertex -2.65 -0.328 0
  vertex -2.363 -0.293 0.5
  vertex -2.589 -0.651 0
 endloop
endfacet
facet normal 0.852 0.159 -0.499
 outer loop
  vertex -2.589 -0.651 0
  vertex -2.363 -0.293 0.5
  vertex -2.309 -0.581 0.5
 endloop
endfacet
facet normal 0.826 0.263 -0.499
 outer loop
  vertex -2.589 -0.651 0
  vertex -2.309 -0.581 0.5
  vertex -2.49 -0.964 0
 endloop
endfacet
facet normal 0.826 0.263 -0.499
 outer loop
  vertex -2.49 -0.964 0
  vertex -2.309 -0.581 0.5
  vertex -2.22 -0.86 0.5
 endloop
endfacet
facet normal 0.787 0.362 -0.499
 outer loop
  vertex -2.49 -0.964 0
  vertex -2.22 -0.86 0.5
  vertex -2.352 -1.263 0
 endloop
endfacet
facet normal 0.787 0.362 -0.499
 outer loop
  vertex -2.352 -1.263 0
  vertex -2.22 -0.86 0.5
  vertex -2.098 -1.127 0.5
 endloop
endfacet
facet normal 0.737 0.456 -0.499
 outer loop
  vertex -2.352 -1.263 0
  vertex -2.098 -1.127 0.5
  vertex -2.179 -1.543 0
 endloop
endfacet
facet normal 0.737 0.456 -0.499
 outer loop
  vertex -2.179 -1.543 0
  vertex -2.098 -1.127 0.5
  vertex -1.944 -1.376 0.5
 endloop
endfacet
facet normal 0.675 0.543 -0.499
 outer loop
  vertex -2.179 -1.543 0
  vertex -1.944 -1.376 0.5
  vertex -1.973 -1.799 0
 endloop
endfacet
facet normal 0.675 0.543 -0.499
 outer loop
  vertex -1.973 -1.799 0
  vertex -1.944 -1.376 0.5
  vertex -1.76 -1.604 0.5
 endloop
endfacet
facet normal 0.603 0.622 -0.499
 outer loop
  vertex -1.973 -1.799 0
  vertex -1.76 -1.604 0.5
  vertex -1.737 -2.028 0
 endloop
endfacet
facet normal 0.603 0.622 -0.499
 outer loop
  vertex -1.737 -2.028 0
  vertex -1.76 -1.604 0.5
  vertex -1.549 -1.808 0.5
 endloop
endfacet
facet normal 0.522 0.691 -0.499
 outer loop
  vertex -1.737 -2.028 0
  vertex -1.549 -1.808 0.5
  vertex -1.475 -2.226 0
 endloop
endfacet
facet normal 0.522 0.691 -0.499
 outer loop
  vertex -1.475 -2.226 0
  vertex -1.549 -1.808 0.5
  vertex -1.315 -1.985 0.5
 endloop
endfacet
facet normal 0.433 0.75 -0.499
 outer loop
  vertex -1.475 -2.226 0
  vertex -1.315 -1.985 0.5
  vertex -1.19 -2.39 0
 endloop
endfacet
facet normal 0.433 0.75 -0.499
 outer loop
  vertex -1.19 -2.39 0
  vertex -1.315 -1.985 0.5
  vertex -1.061 -2.132 0.5
 endloop
endfacet
facet normal 0.338 0.798 -0.499
 outer loop
  vertex -1.19 -2.39 0
  vertex -1.061 -2.132 0.5
  vertex -0.887 -2.518 0
 endloop
endfacet
facet normal 0.338 0.798 -0.499
 outer loop
  vertex -0.887 -2.518 0
  vertex -1.061 -2.132 0.5
  vertex -0.791 -2.246 0.5
 endloop
endfacet
facet normal 0.237 0.833 -0.499
 outer loop
  vertex -0.887 -2.518 0
  vertex -0.791 -2.246 0.5
  vertex -0.571 -2.608 0
 endloop
endfacet
facet normal 0.237 0.833 -0.499
 outer loop
  vertex -0.571 -2.608 0
  vertex -0.791 -2.246 0.5
  vertex -0.509 -2.326 0.5
 endloop
endfacet
facet normal 0.133 0.856 -0.499
 outer loop
  vertex -0.571 -2.608 0
  vertex -0.509 -2.326 0.5
  vertex -0.246 -2.659 0
 endloop
endfacet
facet normal 0.133 0.856 -0.499
 outer loop
  vertex -0.246 -2.659 0
  vertex -0.509 -2.326 0.5
  vertex -0.22 -2.371 0.5
 endloop
endfacet
facet normal 0.027 0.866 -0.499
 outer loop
  vertex -0.246 -2.659 0
  vertex -0.22 -2.371 0.5
  vertex 0.082 -2.669 0
 endloop
endfacet
facet normal 0.027 0.866 -0.499
 outer loop
  vertex 0.082 -2.669 0
  vertex -0.22 -2.371 0.5
  vertex 0.073 -2.38 0.5
 endloop
endfacet
facet normal -0.08 0.863 -0.499
 outer loop
  vertex 0.082 -2.669 0
  vertex 0.073 -2.38 0.5
  vertex 0.41 -2.638 0
 endloop
endfacet
facet normal -0.08 0.863 -0.499
 outer loop
  vertex 0.41 -2.638 0
  vertex 0.073 -2.38 0.5
  vertex 0.365 -2.353 0.5
 endloop
endfacet
facet normal -0.185 0.846 -0.499
 outer loop
  vertex 0.41 -2.638 0
  vertex 0.365 -2.353 0.5
  vertex 0.731 -2.568 0
 endloop
endfacet
facet normal -0.185 0.846 -0.499
 outer loop
  vertex 0.731 -2.568 0
  vertex 0.365 -2.353 0.5
  vertex 0.652 -2.29 0.5
 endloop
endfacet
facet normal -0.288 0.817 -0.499
 outer loop
  vertex 0.731 -2.568 0
  vertex 0.652 -2.29 0.5
  vertex 1.041 -2.459 0
 endloop
endfacet
facet normal -0.288 0.817 -0.499
 outer loop
  vertex 1.041 -2.459 0
  vertex 0.652 -2.29 0.5
  vertex 0.928 -2.193 0.5
 endloop
endfacet
facet normal -0.386 0.776 -0.499
 outer loop
  vertex 1.041 -2.459 0
  vertex 0.928 -2.193 0.5
  vertex 1.335 -2.312 0
 endloop
endfacet
facet normal -0.386 0.776 -0.499
 outer loop
  vertex 1.335 -2.312 0
  vertex 0.928 -2.193 0.5
  vertex 1.191 -2.062 0.5
 endloop
endfacet
facet normal -0.479 0.722 -0.499
 outer loop
  vertex 1.335 -2.312 0
  vertex 1.191 -2.062 0.5
  vertex 1.609 -2.131 0
 endloop
endfacet
facet normal -0.479 0.722 -0.499
 outer loop
  vertex 1.609 -2.131 0
  vertex 1.191 -2.062 0.5
  vertex 1.435 -1.9 0.5
 endloop
endfacet
facet normal -0.564 0.658 -0.499
 outer loop
  vertex 1.609 -2.131 0
  vertex 1.435 -1.9 0.5
  vertex 1.859 -1.917 0
 endloop
endfacet
facet normal -0.564 0.658 -0.499
 outer loop
  vertex 1.859 -1.917 0
  vertex 1.435 -1.9 0.5
  vertex 1.658 -1.71 0.5
 endloop
endfacet
facet normal -0.64 0.584 -0.499
 outer loop
  vertex 1.859 -1.917 0
  vertex 1.658 -1.71 0.5
  vertex 2.08 -1.674 0
 endloop
endfacet
facet normal -0.64 0.584 -0.499
 outer loop
  vertex 2.08 -1.674 0
  vertex 1.658 -1.71 0.5
  vertex 1.855 -1.493 0.5
 endloop
endfacet
facet normal -0.707 0.501 -0.499
 outer loop
  vertex 2.08 -1.674 0
  vertex 1.855 -1.493 0.5
  vertex 2.27 -1.406 0
 endloop
endfacet
facet normal -0.707 0.501 -0.499
 outer loop
  vertex 2.27 -1.406 0
  vertex 1.855 -1.493 0.5
  vertex 2.025 -1.254 0.5
 endloop
endfacet
facet normal -0.763 0.41 -0.499
 outer loop
  vertex 2.27 -1.406 0
  vertex 2.025 -1.254 0.5
  vertex 2.426 -1.116 0
 endloop
endfacet
facet normal -0.763 0.41 -0.499
 outer loop
  vertex 2.426 -1.116 0
  vertex 2.025 -1.254 0.5
  vertex 2.163 -0.995 0.5
 endloop
endfacet
facet normal -0.808 0.313 -0.499
 outer loop
  vertex 2.426 -1.116 0
  vertex 2.163 -0.995 0.5
  vertex 2.544 -0.809 0
 endloop
endfacet
facet normal -0.808 0.313 -0.499
 outer loop
  vertex 2.544 -0.809 0
  vertex 2.163 -0.995 0.5
  vertex 2.269 -0.722 0.5
 endloop
endfacet
facet normal -0.84 0.211 -0.499
 outer loop
  vertex 2.544 -0.809 0
  vertex 2.269 -0.722 0.5
  vertex 2.624 -0.491 0
 endloop
endfacet
facet normal -0.84 0.211 -0.499
 outer loop
  vertex 2.624 -0.491 0
  vertex 2.269 -0.722 0.5
  vertex 2.341 -0.438 0.5
 endloop
endfacet
facet normal -0.86 0.106 -0.499
 outer loop
  vertex 2.624 -0.491 0
  vertex 2.341 -0.438 0.5
  vertex 2.665 -0.164 0
 endloop
endfacet
facet normal -0.86 0.106 -0.499
 outer loop
  vertex 2.665 -0.164 0
  vertex 2.341 -0.438 0.5
  vertex 2.377 -0.147 0.5
 endloop
endfacet
endsolid CADClick
