solid CADClick
facet normal 0 0 -1
 outer loop
  vertex 0.073 -2.38 0
  vertex 0.058 -1.875 0
  vertex 0.365 -2.353 0
 endloop
endfacet
facet normal 0 0 -1
 outer loop
  vertex 0.365 -2.353 0
  vertex 0.058 -1.875 0
  vertex 0.288 -1.854 0
 endloop
endfacet
facet normal 0 0 -1
 outer loop
  vertex 0.365 -2.353 0
  vertex 0.288 -1.854 0
  vertex 0.652 -2.29 0
 endloop
endfacet
facet normal 0 0 -1
 outer loop
  vertex 0.652 -2.29 0
  vertex 0.288 -1.854 0
  vertex 0.513 -1.805 0
 endloop
endfacet
facet normal 0 0 -1
 outer loop
  vertex 0.652 -2.29 0
  vertex 0.513 -1.805 0
  vertex 0.928 -2.193 0
 endloop
endfacet
facet normal 0 0 -1
 outer loop
  vertex 0.928 -2.193 0
  vertex 0.513 -1.805 0
  vertex 0.731 -1.728 0
 endloop
endfacet
facet normal 0 0 -1
 outer loop
  vertex 0.928 -2.193 0
  vertex 0.731 -1.728 0
  vertex 1.191 -2.062 0
 endloop
endfacet
facet normal 0 0 -1
 outer loop
  vertex 1.191 -2.062 0
  vertex 0.731 -1.728 0
  vertex 0.938 -1.625 0
 endloop
endfacet
facet normal 0 0 -1
 outer loop
  vertex 1.191 -2.062 0
  vertex 0.938 -1.625 0
  vertex 1.435 -1.9 0
 endloop
endfacet
facet normal 0 0 -1
 outer loop
  vertex 1.435 -1.9 0
  vertex 0.938 -1.625 0
  vertex 1.131 -1.497 0
 endloop
endfacet
facet normal 0 0 -1
 outer loop
  vertex 1.435 -1.9 0
  vertex 1.131 -1.497 0
  vertex 1.658 -1.71 0
 endloop
endfacet
facet normal 0 0 -1
 outer loop
  vertex 1.658 -1.71 0
  vertex 1.131 -1.497 0
  vertex 1.306 -1.347 0
 endloop
endfacet
facet normal 0 0 -1
 outer loop
  vertex 1.658 -1.71 0
  vertex 1.306 -1.347 0
  vertex 1.855 -1.493 0
 endloop
endfacet
facet normal 0 0 -1
 outer loop
  vertex 1.855 -1.493 0
  vertex 1.306 -1.347 0
  vertex 1.462 -1.176 0
 endloop
endfacet
facet normal 0 0 -1
 outer loop
  vertex 1.855 -1.493 0
  vertex 1.462 -1.176 0
  vertex 2.025 -1.254 0
 endloop
endfacet
facet normal 0 0 -1
 outer loop
  vertex 2.025 -1.254 0
  vertex 1.462 -1.176 0
  vertex 1.595 -0.988 0
 endloop
endfacet
facet normal 0 0 -1
 outer loop
  vertex 2.025 -1.254 0
  vertex 1.595 -0.988 0
  vertex 2.163 -0.995 0
 endloop
endfacet
facet normal 0 0 -1
 outer loop
  vertex 2.163 -0.995 0
  vertex 1.595 -0.988 0
  vertex 1.704 -0.784 0
 endloop
endfacet
facet normal 0 0 -1
 outer loop
  vertex 2.163 -0.995 0
  vertex 1.704 -0.784 0
  vertex 2.269 -0.722 0
 endloop
endfacet
facet normal -0 0 -1
 outer loop
  vertex 2.269 -0.722 0
  vertex 1.704 -0.784 0
  vertex 1.788 -0.569 0
 endloop
endfacet
facet normal 0 0 -1
 outer loop
  vertex 2.269 -0.722 0
  vertex 1.788 -0.569 0
  vertex 2.341 -0.438 0
 endloop
endfacet
facet normal -0 0 -1
 outer loop
  vertex 2.341 -0.438 0
  vertex 1.788 -0.569 0
  vertex 1.844 -0.345 0
 endloop
endfacet
facet normal 0 0 -1
 outer loop
  vertex 2.341 -0.438 0
  vertex 1.844 -0.345 0
  vertex 2.377 -0.147 0
 endloop
endfacet
facet normal -0 0 -1
 outer loop
  vertex 2.377 -0.147 0
  vertex 1.844 -0.345 0
  vertex 1.873 -0.115 0
 endloop
endfacet
facet normal 0 0 -1
 outer loop
  vertex 2.377 -0.147 0
  vertex 1.873 -0.115 0
  vertex 2.381 0 0
 endloop
endfacet
facet normal -0 0 -1
 outer loop
  vertex 2.381 0 0
  vertex 1.873 -0.115 0
  vertex 1.876 0 0
 endloop
endfacet
facet normal 0 0 -1
 outer loop
  vertex 2.381 0 0
  vertex 1.876 0 0
  vertex 1.873 0.115 0
 endloop
endfacet
facet normal 0 0 -1
 outer loop
  vertex 0.073 -2.38 0
  vertex -0.22 -2.371 0
  vertex 0.058 -1.875 0
 endloop
endfacet
facet normal -0 0 -1
 outer loop
  vertex 0.058 -1.875 0
  vertex -0.22 -2.371 0
  vertex -0.173 -1.868 0
 endloop
endfacet
facet normal 0 0 -1
 outer loop
  vertex -0.22 -2.371 0
  vertex -0.509 -2.326 0
  vertex -0.173 -1.868 0
 endloop
endfacet
facet normal -0 0 -1
 outer loop
  vertex -0.173 -1.868 0
  vertex -0.509 -2.326 0
  vertex -0.401 -1.833 0
 endloop
endfacet
facet normal 0 0 -1
 outer loop
  vertex -0.509 -2.326 0
  vertex -0.791 -2.246 0
  vertex -0.401 -1.833 0
 endloop
endfacet
facet normal -0 0 -1
 outer loop
  vertex -0.401 -1.833 0
  vertex -0.791 -2.246 0
  vertex -0.624 -1.77 0
 endloop
endfacet
facet normal 0 0 -1
 outer loop
  vertex -0.791 -2.246 0
  vertex -1.061 -2.132 0
  vertex -0.624 -1.77 0
 endloop
endfacet
facet normal -0 0 -1
 outer loop
  vertex -0.624 -1.77 0
  vertex -1.061 -2.132 0
  vertex -0.836 -1.679 0
 endloop
endfacet
facet normal 0 0 -1
 outer loop
  vertex -1.061 -2.132 0
  vertex -1.315 -1.985 0
  vertex -0.836 -1.679 0
 endloop
endfacet
facet normal -0 0 -1
 outer loop
  vertex -0.836 -1.679 0
  vertex -1.315 -1.985 0
  vertex -1.036 -1.564 0
 endloop
endfacet
facet normal 0 0 -1
 outer loop
  vertex -1.315 -1.985 0
  vertex -1.549 -1.808 0
  vertex -1.036 -1.564 0
 endloop
endfacet
facet normal -0 0 -1
 outer loop
  vertex -1.036 -1.564 0
  vertex -1.549 -1.808 0
  vertex -1.221 -1.425 0
 endloop
endfacet
facet normal 0 0 -1
 outer loop
  vertex -1.549 -1.808 0
  vertex -1.76 -1.604 0
  vertex -1.221 -1.425 0
 endloop
endfacet
facet normal -0 0 -1
 outer loop
  vertex -1.221 -1.425 0
  vertex -1.76 -1.604 0
  vertex -1.387 -1.264 0
 endloop
endfacet
facet normal 0 0 -1
 outer loop
  vertex -1.76 -1.604 0
  vertex -1.944 -1.376 0
  vertex -1.387 -1.264 0
 endloop
endfacet
facet normal -0 0 -1
 outer loop
  vertex -1.387 -1.264 0
  vertex -1.944 -1.376 0
  vertex -1.531 -1.084 0
 endloop
endfacet
facet normal 0 0 -1
 outer loop
  vertex -1.944 -1.376 0
  vertex -2.098 -1.127 0
  vertex -1.531 -1.084 0
 endloop
endfacet
facet normal -0 0 -1
 outer loop
  vertex -1.531 -1.084 0
  vertex -2.098 -1.127 0
  vertex -1.653 -0.888 0
 endloop
endfacet
facet normal 0 0 -1
 outer loop
  vertex -2.098 -1.127 0
  vertex -2.22 -0.86 0
  vertex -1.653 -0.888 0
 endloop
endfacet
facet normal 0 0 -1
 outer loop
  vertex -1.653 -0.888 0
  vertex -2.22 -0.86 0
  vertex -1.749 -0.678 0
 endloop
endfacet
facet normal 0 0 -1
 outer loop
  vertex -2.22 -0.86 0
  vertex -2.309 -0.581 0
  vertex -1.749 -0.678 0
 endloop
endfacet
facet normal 0 0 -1
 outer loop
  vertex -1.749 -0.678 0
  vertex -2.309 -0.581 0
  vertex -1.82 -0.458 0
 endloop
endfacet
facet normal 0 0 -1
 outer loop
  vertex -2.309 -0.581 0
  vertex -2.363 -0.293 0
  vertex -1.82 -0.458 0
 endloop
endfacet
facet normal 0 0 -1
 outer loop
  vertex -1.82 -0.458 0
  vertex -2.363 -0.293 0
  vertex -1.862 -0.231 0
 endloop
endfacet
facet normal -0 0 -1
 outer loop
  vertex -1.862 -0.231 0
  vertex -2.363 -0.293 0
  vertex -1.876 0 0
 endloop
endfacet
facet normal -0 0 -1
 outer loop
  vertex -1.876 0 0
  vertex -2.363 -0.293 0
  vertex -2.381 0 0
 endloop
endfacet
facet normal 0 0 -1
 outer loop
  vertex -1.876 0 0
  vertex -2.381 0 0
  vertex -1.862 0.231 0
 endloop
endfacet
facet normal -0 0 -1
 outer loop
  vertex -1.862 0.231 0
  vertex -2.381 0 0
  vertex -2.363 0.293 0
 endloop
endfacet
facet normal 0 0 -1
 outer loop
  vertex -1.862 0.231 0
  vertex -2.363 0.293 0
  vertex -1.82 0.458 0
 endloop
endfacet
facet normal -0 0 -1
 outer loop
  vertex -1.82 0.458 0
  vertex -2.363 0.293 0
  vertex -2.309 0.581 0
 endloop
endfacet
facet normal 0 0 -1
 outer loop
  vertex -1.82 0.458 0
  vertex -2.309 0.581 0
  vertex -1.749 0.678 0
 endloop
endfacet
facet normal -0 0 -1
 outer loop
  vertex -1.749 0.678 0
  vertex -2.309 0.581 0
  vertex -2.22 0.86 0
 endloop
endfacet
facet normal 0 0 -1
 outer loop
  vertex -1.749 0.678 0
  vertex -2.22 0.86 0
  vertex -1.653 0.888 0
 endloop
endfacet
facet normal -0 0 -1
 outer loop
  vertex -1.653 0.888 0
  vertex -2.22 0.86 0
  vertex -2.098 1.127 0
 endloop
endfacet
facet normal 0 0 -1
 outer loop
  vertex -1.653 0.888 0
  vertex -2.098 1.127 0
  vertex -1.531 1.084 0
 endloop
endfacet
facet normal 0 0 -1
 outer loop
  vertex -1.531 1.084 0
  vertex -2.098 1.127 0
  vertex -1.944 1.376 0
 endloop
endfacet
facet normal 0 0 -1
 outer loop
  vertex -1.531 1.084 0
  vertex -1.944 1.376 0
  vertex -1.387 1.264 0
 endloop
endfacet
facet normal 0 0 -1
 outer loop
  vertex -1.387 1.264 0
  vertex -1.944 1.376 0
  vertex -1.76 1.604 0
 endloop
endfacet
facet normal 0 0 -1
 outer loop
  vertex -1.387 1.264 0
  vertex -1.76 1.604 0
  vertex -1.221 1.425 0
 endloop
endfacet
facet normal 0 0 -1
 outer loop
  vertex -1.221 1.425 0
  vertex -1.76 1.604 0
  vertex -1.549 1.808 0
 endloop
endfacet
facet normal 0 0 -1
 outer loop
  vertex -1.221 1.425 0
  vertex -1.549 1.808 0
  vertex -1.036 1.564 0
 endloop
endfacet
facet normal 0 0 -1
 outer loop
  vertex -1.036 1.564 0
  vertex -1.549 1.808 0
  vertex -1.315 1.985 0
 endloop
endfacet
facet normal 0 0 -1
 outer loop
  vertex -1.036 1.564 0
  vertex -1.315 1.985 0
  vertex -0.836 1.679 0
 endloop
endfacet
facet normal 0 0 -1
 outer loop
  vertex -0.836 1.679 0
  vertex -1.315 1.985 0
  vertex -1.061 2.132 0
 endloop
endfacet
facet normal 0 0 -1
 outer loop
  vertex -0.836 1.679 0
  vertex -1.061 2.132 0
  vertex -0.624 1.77 0
 endloop
endfacet
facet normal 0 0 -1
 outer loop
  vertex -0.624 1.77 0
  vertex -1.061 2.132 0
  vertex -0.791 2.246 0
 endloop
endfacet
facet normal 0 0 -1
 outer loop
  vertex -0.624 1.77 0
  vertex -0.791 2.246 0
  vertex -0.401 1.833 0
 endloop
endfacet
facet normal 0 0 -1
 outer loop
  vertex -0.401 1.833 0
  vertex -0.791 2.246 0
  vertex -0.509 2.326 0
 endloop
endfacet
facet normal 0 0 -1
 outer loop
  vertex -0.401 1.833 0
  vertex -0.509 2.326 0
  vertex -0.173 1.868 0
 endloop
endfacet
facet normal 0 0 -1
 outer loop
  vertex -0.173 1.868 0
  vertex -0.509 2.326 0
  vertex -0.22 2.371 0
 endloop
endfacet
facet normal 0 0 -1
 outer loop
  vertex -0.173 1.868 0
  vertex -0.22 2.371 0
  vertex 0.058 1.875 0
 endloop
endfacet
facet normal 0 0 -1
 outer loop
  vertex 0.058 1.875 0
  vertex -0.22 2.371 0
  vertex 0.073 2.38 0
 endloop
endfacet
facet normal 0 0 -1
 outer loop
  vertex 0.058 1.875 0
  vertex 0.073 2.38 0
  vertex 0.365 2.353 0
 endloop
endfacet
facet normal 0 0 -1
 outer loop
  vertex 0.058 1.875 0
  vertex 0.365 2.353 0
  vertex 0.288 1.854 0
 endloop
endfacet
facet normal 0 0 -1
 outer loop
  vertex 0.288 1.854 0
  vertex 0.365 2.353 0
  vertex 0.652 2.29 0
 endloop
endfacet
facet normal 0 0 -1
 outer loop
  vertex 0.288 1.854 0
  vertex 0.652 2.29 0
  vertex 0.513 1.805 0
 endloop
endfacet
facet normal 0 0 -1
 outer loop
  vertex 0.513 1.805 0
  vertex 0.652 2.29 0
  vertex 0.928 2.193 0
 endloop
endfacet
facet normal 0 0 -1
 outer loop
  vertex 0.513 1.805 0
  vertex 0.928 2.193 0
  vertex 0.731 1.728 0
 endloop
endfacet
facet normal 0 0 -1
 outer loop
  vertex 0.731 1.728 0
  vertex 0.928 2.193 0
  vertex 1.191 2.062 0
 endloop
endfacet
facet normal 0 0 -1
 outer loop
  vertex 0.731 1.728 0
  vertex 1.191 2.062 0
  vertex 0.938 1.625 0
 endloop
endfacet
facet normal 0 0 -1
 outer loop
  vertex 0.938 1.625 0
  vertex 1.191 2.062 0
  vertex 1.435 1.9 0
 endloop
endfacet
facet normal 0 0 -1
 outer loop
  vertex 0.938 1.625 0
  vertex 1.435 1.9 0
  vertex 1.131 1.497 0
 endloop
endfacet
facet normal 0 0 -1
 outer loop
  vertex 1.131 1.497 0
  vertex 1.435 1.9 0
  vertex 1.658 1.71 0
 endloop
endfacet
facet normal 0 0 -1
 outer loop
  vertex 1.131 1.497 0
  vertex 1.658 1.71 0
  vertex 1.306 1.347 0
 endloop
endfacet
facet normal 0 0 -1
 outer loop
  vertex 1.306 1.347 0
  vertex 1.658 1.71 0
  vertex 1.855 1.493 0
 endloop
endfacet
facet normal 0 0 -1
 outer loop
  vertex 1.306 1.347 0
  vertex 1.855 1.493 0
  vertex 1.462 1.176 0
 endloop
endfacet
facet normal 0 0 -1
 outer loop
  vertex 1.462 1.176 0
  vertex 1.855 1.493 0
  vertex 2.025 1.254 0
 endloop
endfacet
facet normal 0 0 -1
 outer loop
  vertex 1.462 1.176 0
  vertex 2.025 1.254 0
  vertex 1.595 0.988 0
 endloop
endfacet
facet normal 0 0 -1
 outer loop
  vertex 1.595 0.988 0
  vertex 2.025 1.254 0
  vertex 2.163 0.995 0
 endloop
endfacet
facet normal 0 0 -1
 outer loop
  vertex 1.595 0.988 0
  vertex 2.163 0.995 0
  vertex 1.704 0.784 0
 endloop
endfacet
facet normal 0 0 -1
 outer loop
  vertex 1.704 0.784 0
  vertex 2.163 0.995 0
  vertex 2.269 0.722 0
 endloop
endfacet
facet normal 0 0 -1
 outer loop
  vertex 1.704 0.784 0
  vertex 2.269 0.722 0
  vertex 1.788 0.569 0
 endloop
endfacet
facet normal 0 0 -1
 outer loop
  vertex 1.788 0.569 0
  vertex 2.269 0.722 0
  vertex 2.341 0.438 0
 endloop
endfacet
facet normal 0 0 -1
 outer loop
  vertex 1.788 0.569 0
  vertex 2.341 0.438 0
  vertex 1.844 0.345 0
 endloop
endfacet
facet normal 0 0 -1
 outer loop
  vertex 1.844 0.345 0
  vertex 2.341 0.438 0
  vertex 2.377 0.147 0
 endloop
endfacet
facet normal 0 0 -1
 outer loop
  vertex 1.844 0.345 0
  vertex 2.377 0.147 0
  vertex 1.873 0.115 0
 endloop
endfacet
facet normal 0 0 -1
 outer loop
  vertex 1.873 0.115 0
  vertex 2.377 0.147 0
  vertex 2.381 0 0
 endloop
endfacet
facet normal 1 -0.031 0
 outer loop
  vertex 2.377 -0.147 7.638
  vertex 2.377 -0.147 0
  vertex 2.381 0 7.638
 endloop
endfacet
facet normal 1 -0.031 0
 outer loop
  vertex 2.381 0 7.638
  vertex 2.377 -0.147 0
  vertex 2.381 0 0
 endloop
endfacet
facet normal 1 0.031 0
 outer loop
  vertex 2.381 0 7.638
  vertex 2.381 0 0
  vertex 2.377 0.147 7.638
 endloop
endfacet
facet normal 1 0.031 0
 outer loop
  vertex 2.377 0.147 7.638
  vertex 2.381 0 0
  vertex 2.377 0.147 0
 endloop
endfacet
facet normal 0.992 0.123 0
 outer loop
  vertex 2.377 0.147 7.638
  vertex 2.377 0.147 0
  vertex 2.341 0.438 7.638
 endloop
endfacet
facet normal 0.992 0.123 0
 outer loop
  vertex 2.341 0.438 7.638
  vertex 2.377 0.147 0
  vertex 2.341 0.438 0
 endloop
endfacet
facet normal 0.97 0.244 0
 outer loop
  vertex 2.341 0.438 7.638
  vertex 2.341 0.438 0
  vertex 2.269 0.722 7.638
 endloop
endfacet
facet normal 0.97 0.244 0
 outer loop
  vertex 2.269 0.722 7.638
  vertex 2.341 0.438 0
  vertex 2.269 0.722 0
 endloop
endfacet
facet normal 0.932 0.361 0
 outer loop
  vertex 2.269 0.722 7.638
  vertex 2.269 0.722 0
  vertex 2.163 0.995 7.638
 endloop
endfacet
facet normal 0.932 0.361 0
 outer loop
  vertex 2.163 0.995 7.638
  vertex 2.269 0.722 0
  vertex 2.163 0.995 0
 endloop
endfacet
facet normal 0.881 0.473 0
 outer loop
  vertex 2.163 0.995 7.638
  vertex 2.163 0.995 0
  vertex 2.025 1.254 7.638
 endloop
endfacet
facet normal 0.881 0.473 0
 outer loop
  vertex 2.025 1.254 7.638
  vertex 2.163 0.995 0
  vertex 2.025 1.254 0
 endloop
endfacet
facet normal 0.816 0.578 0
 outer loop
  vertex 2.025 1.254 7.638
  vertex 2.025 1.254 0
  vertex 1.855 1.493 7.638
 endloop
endfacet
facet normal 0.816 0.578 0
 outer loop
  vertex 1.855 1.493 7.638
  vertex 2.025 1.254 0
  vertex 1.855 1.493 0
 endloop
endfacet
facet normal 0.739 0.674 0
 outer loop
  vertex 1.855 1.493 7.638
  vertex 1.855 1.493 0
  vertex 1.658 1.71 7.638
 endloop
endfacet
facet normal 0.739 0.674 0
 outer loop
  vertex 1.658 1.71 7.638
  vertex 1.855 1.493 0
  vertex 1.658 1.71 0
 endloop
endfacet
facet normal 0.651 0.759 0
 outer loop
  vertex 1.658 1.71 7.638
  vertex 1.658 1.71 0
  vertex 1.435 1.9 7.638
 endloop
endfacet
facet normal 0.651 0.759 0
 outer loop
  vertex 1.435 1.9 7.638
  vertex 1.658 1.71 0
  vertex 1.435 1.9 0
 endloop
endfacet
facet normal 0.552 0.834 0
 outer loop
  vertex 1.435 1.9 7.638
  vertex 1.435 1.9 0
  vertex 1.191 2.062 7.638
 endloop
endfacet
facet normal 0.552 0.834 0
 outer loop
  vertex 1.191 2.062 7.638
  vertex 1.435 1.9 0
  vertex 1.191 2.062 0
 endloop
endfacet
facet normal 0.446 0.895 0
 outer loop
  vertex 1.191 2.062 7.638
  vertex 1.191 2.062 0
  vertex 0.928 2.193 7.638
 endloop
endfacet
facet normal 0.446 0.895 0
 outer loop
  vertex 0.928 2.193 7.638
  vertex 1.191 2.062 0
  vertex 0.928 2.193 0
 endloop
endfacet
facet normal 0.332 0.943 0
 outer loop
  vertex 0.928 2.193 7.638
  vertex 0.928 2.193 0
  vertex 0.652 2.29 7.638
 endloop
endfacet
facet normal 0.332 0.943 0
 outer loop
  vertex 0.652 2.29 7.638
  vertex 0.928 2.193 0
  vertex 0.652 2.29 0
 endloop
endfacet
facet normal 0.214 0.977 0
 outer loop
  vertex 0.652 2.29 7.638
  vertex 0.652 2.29 0
  vertex 0.365 2.353 7.638
 endloop
endfacet
facet normal 0.214 0.977 0
 outer loop
  vertex 0.365 2.353 7.638
  vertex 0.652 2.29 0
  vertex 0.365 2.353 0
 endloop
endfacet
facet normal 0.092 0.996 0
 outer loop
  vertex 0.365 2.353 7.638
  vertex 0.365 2.353 0
  vertex 0.073 2.38 7.638
 endloop
endfacet
facet normal 0.092 0.996 0
 outer loop
  vertex 0.073 2.38 7.638
  vertex 0.365 2.353 0
  vertex 0.073 2.38 0
 endloop
endfacet
facet normal -0.031 1 0
 outer loop
  vertex 0.073 2.38 7.638
  vertex 0.073 2.38 0
  vertex -0.22 2.371 7.638
 endloop
endfacet
facet normal -0.031 1 0
 outer loop
  vertex -0.22 2.371 7.638
  vertex 0.073 2.38 0
  vertex -0.22 2.371 0
 endloop
endfacet
facet normal -0.153 0.988 0
 outer loop
  vertex -0.22 2.371 7.638
  vertex -0.22 2.371 0
  vertex -0.509 2.326 7.638
 endloop
endfacet
facet normal -0.153 0.988 0
 outer loop
  vertex -0.509 2.326 7.638
  vertex -0.22 2.371 0
  vertex -0.509 2.326 0
 endloop
endfacet
facet normal -0.274 0.962 0
 outer loop
  vertex -0.509 2.326 7.638
  vertex -0.509 2.326 0
  vertex -0.791 2.246 7.638
 endloop
endfacet
facet normal -0.274 0.962 0
 outer loop
  vertex -0.791 2.246 7.638
  vertex -0.509 2.326 0
  vertex -0.791 2.246 0
 endloop
endfacet
facet normal -0.39 0.921 0
 outer loop
  vertex -0.791 2.246 7.638
  vertex -0.791 2.246 0
  vertex -1.061 2.132 7.638
 endloop
endfacet
facet normal -0.39 0.921 0
 outer loop
  vertex -1.061 2.132 7.638
  vertex -0.791 2.246 0
  vertex -1.061 2.132 0
 endloop
endfacet
facet normal -0.5 0.866 0
 outer loop
  vertex -1.061 2.132 7.638
  vertex -1.061 2.132 0
  vertex -1.315 1.985 7.638
 endloop
endfacet
facet normal -0.5 0.866 0
 outer loop
  vertex -1.315 1.985 7.638
  vertex -1.061 2.132 0
  vertex -1.315 1.985 0
 endloop
endfacet
facet normal -0.603 0.798 0
 outer loop
  vertex -1.315 1.985 7.638
  vertex -1.315 1.985 0
  vertex -1.549 1.808 7.638
 endloop
endfacet
facet normal -0.603 0.798 0
 outer loop
  vertex -1.549 1.808 7.638
  vertex -1.315 1.985 0
  vertex -1.549 1.808 0
 endloop
endfacet
facet normal -0.696 0.718 0
 outer loop
  vertex -1.549 1.808 7.638
  vertex -1.549 1.808 0
  vertex -1.76 1.604 7.638
 endloop
endfacet
facet normal -0.696 0.718 0
 outer loop
  vertex -1.76 1.604 7.638
  vertex -1.549 1.808 0
  vertex -1.76 1.604 0
 endloop
endfacet
facet normal -0.779 0.627 0
 outer loop
  vertex -1.76 1.604 7.638
  vertex -1.76 1.604 0
  vertex -1.944 1.376 7.638
 endloop
endfacet
facet normal -0.779 0.627 0
 outer loop
  vertex -1.944 1.376 7.638
  vertex -1.76 1.604 0
  vertex -1.944 1.376 0
 endloop
endfacet
facet normal -0.85 0.526 0
 outer loop
  vertex -1.944 1.376 7.638
  vertex -1.944 1.376 0
  vertex -2.098 1.127 7.638
 endloop
endfacet
facet normal -0.85 0.526 0
 outer loop
  vertex -2.098 1.127 7.638
  vertex -1.944 1.376 0
  vertex -2.098 1.127 0
 endloop
endfacet
facet normal -0.908 0.418 0
 outer loop
  vertex -2.098 1.127 7.638
  vertex -2.098 1.127 0
  vertex -2.22 0.86 7.638
 endloop
endfacet
facet normal -0.908 0.418 0
 outer loop
  vertex -2.22 0.86 7.638
  vertex -2.098 1.127 0
  vertex -2.22 0.86 0
 endloop
endfacet
facet normal -0.953 0.303 0
 outer loop
  vertex -2.22 0.86 7.638
  vertex -2.22 0.86 0
  vertex -2.309 0.581 7.638
 endloop
endfacet
facet normal -0.953 0.303 0
 outer loop
  vertex -2.309 0.581 7.638
  vertex -2.22 0.86 0
  vertex -2.309 0.581 0
 endloop
endfacet
facet normal -0.983 0.184 0
 outer loop
  vertex -2.309 0.581 7.638
  vertex -2.309 0.581 0
  vertex -2.363 0.293 7.638
 endloop
endfacet
facet normal -0.983 0.184 0
 outer loop
  vertex -2.363 0.293 7.638
  vertex -2.309 0.581 0
  vertex -2.363 0.293 0
 endloop
endfacet
facet normal -0.998 0.062 0
 outer loop
  vertex -2.363 0.293 7.638
  vertex -2.363 0.293 0
  vertex -2.381 0 7.638
 endloop
endfacet
facet normal -0.998 0.062 0
 outer loop
  vertex -2.381 0 7.638
  vertex -2.363 0.293 0
  vertex -2.381 0 0
 endloop
endfacet
facet normal -0.998 -0.062 -0
 outer loop
  vertex -2.381 0 7.638
  vertex -2.381 0 0
  vertex -2.363 -0.293 7.638
 endloop
endfacet
facet normal -0.998 -0.062 -0
 outer loop
  vertex -2.363 -0.293 7.638
  vertex -2.381 0 0
  vertex -2.363 -0.293 0
 endloop
endfacet
facet normal -0.983 -0.184 -0
 outer loop
  vertex -2.363 -0.293 7.638
  vertex -2.363 -0.293 0
  vertex -2.309 -0.581 7.638
 endloop
endfacet
facet normal -0.983 -0.184 -0
 outer loop
  vertex -2.309 -0.581 7.638
  vertex -2.363 -0.293 0
  vertex -2.309 -0.581 0
 endloop
endfacet
facet normal -0.953 -0.303 -0
 outer loop
  vertex -2.309 -0.581 7.638
  vertex -2.309 -0.581 0
  vertex -2.22 -0.86 7.638
 endloop
endfacet
facet normal -0.953 -0.303 -0
 outer loop
  vertex -2.22 -0.86 7.638
  vertex -2.309 -0.581 0
  vertex -2.22 -0.86 0
 endloop
endfacet
facet normal -0.908 -0.418 -0
 outer loop
  vertex -2.22 -0.86 7.638
  vertex -2.22 -0.86 0
  vertex -2.098 -1.127 7.638
 endloop
endfacet
facet normal -0.908 -0.418 -0
 outer loop
  vertex -2.098 -1.127 7.638
  vertex -2.22 -0.86 0
  vertex -2.098 -1.127 0
 endloop
endfacet
facet normal -0.85 -0.526 -0
 outer loop
  vertex -2.098 -1.127 7.638
  vertex -2.098 -1.127 0
  vertex -1.944 -1.376 7.638
 endloop
endfacet
facet normal -0.85 -0.526 -0
 outer loop
  vertex -1.944 -1.376 7.638
  vertex -2.098 -1.127 0
  vertex -1.944 -1.376 0
 endloop
endfacet
facet normal -0.779 -0.627 -0
 outer loop
  vertex -1.944 -1.376 7.638
  vertex -1.944 -1.376 0
  vertex -1.76 -1.604 7.638
 endloop
endfacet
facet normal -0.779 -0.627 -0
 outer loop
  vertex -1.76 -1.604 7.638
  vertex -1.944 -1.376 0
  vertex -1.76 -1.604 0
 endloop
endfacet
facet normal -0.696 -0.718 -0
 outer loop
  vertex -1.76 -1.604 7.638
  vertex -1.76 -1.604 0
  vertex -1.549 -1.808 7.638
 endloop
endfacet
facet normal -0.696 -0.718 -0
 outer loop
  vertex -1.549 -1.808 7.638
  vertex -1.76 -1.604 0
  vertex -1.549 -1.808 0
 endloop
endfacet
facet normal -0.603 -0.798 -0
 outer loop
  vertex -1.549 -1.808 7.638
  vertex -1.549 -1.808 0
  vertex -1.315 -1.985 7.638
 endloop
endfacet
facet normal -0.603 -0.798 -0
 outer loop
  vertex -1.315 -1.985 7.638
  vertex -1.549 -1.808 0
  vertex -1.315 -1.985 0
 endloop
endfacet
facet normal -0.5 -0.866 -0
 outer loop
  vertex -1.315 -1.985 7.638
  vertex -1.315 -1.985 0
  vertex -1.061 -2.132 7.638
 endloop
endfacet
facet normal -0.5 -0.866 -0
 outer loop
  vertex -1.061 -2.132 7.638
  vertex -1.315 -1.985 0
  vertex -1.061 -2.132 0
 endloop
endfacet
facet normal -0.39 -0.921 -0
 outer loop
  vertex -1.061 -2.132 7.638
  vertex -1.061 -2.132 0
  vertex -0.791 -2.246 7.638
 endloop
endfacet
facet normal -0.39 -0.921 -0
 outer loop
  vertex -0.791 -2.246 7.638
  vertex -1.061 -2.132 0
  vertex -0.791 -2.246 0
 endloop
endfacet
facet normal -0.274 -0.962 -0
 outer loop
  vertex -0.791 -2.246 7.638
  vertex -0.791 -2.246 0
  vertex -0.509 -2.326 7.638
 endloop
endfacet
facet normal -0.274 -0.962 -0
 outer loop
  vertex -0.509 -2.326 7.638
  vertex -0.791 -2.246 0
  vertex -0.509 -2.326 0
 endloop
endfacet
facet normal -0.153 -0.988 -0
 outer loop
  vertex -0.509 -2.326 7.638
  vertex -0.509 -2.326 0
  vertex -0.22 -2.371 7.638
 endloop
endfacet
facet normal -0.153 -0.988 -0
 outer loop
  vertex -0.22 -2.371 7.638
  vertex -0.509 -2.326 0
  vertex -0.22 -2.371 0
 endloop
endfacet
facet normal -0.031 -1 -0
 outer loop
  vertex -0.22 -2.371 7.638
  vertex -0.22 -2.371 0
  vertex 0.073 -2.38 7.638
 endloop
endfacet
facet normal -0.031 -1 -0
 outer loop
  vertex 0.073 -2.38 7.638
  vertex -0.22 -2.371 0
  vertex 0.073 -2.38 0
 endloop
endfacet
facet normal 0.092 -0.996 0
 outer loop
  vertex 0.073 -2.38 7.638
  vertex 0.073 -2.38 0
  vertex 0.365 -2.353 7.638
 endloop
endfacet
facet normal 0.092 -0.996 0
 outer loop
  vertex 0.365 -2.353 7.638
  vertex 0.073 -2.38 0
  vertex 0.365 -2.353 0
 endloop
endfacet
facet normal 0.214 -0.977 0
 outer loop
  vertex 0.365 -2.353 7.638
  vertex 0.365 -2.353 0
  vertex 0.652 -2.29 7.638
 endloop
endfacet
facet normal 0.214 -0.977 0
 outer loop
  vertex 0.652 -2.29 7.638
  vertex 0.365 -2.353 0
  vertex 0.652 -2.29 0
 endloop
endfacet
facet normal 0.332 -0.943 0
 outer loop
  vertex 0.652 -2.29 7.638
  vertex 0.652 -2.29 0
  vertex 0.928 -2.193 7.638
 endloop
endfacet
facet normal 0.332 -0.943 0
 outer loop
  vertex 0.928 -2.193 7.638
  vertex 0.652 -2.29 0
  vertex 0.928 -2.193 0
 endloop
endfacet
facet normal 0.446 -0.895 0
 outer loop
  vertex 0.928 -2.193 7.638
  vertex 0.928 -2.193 0
  vertex 1.191 -2.062 7.638
 endloop
endfacet
facet normal 0.446 -0.895 0
 outer loop
  vertex 1.191 -2.062 7.638
  vertex 0.928 -2.193 0
  vertex 1.191 -2.062 0
 endloop
endfacet
facet normal 0.552 -0.834 0
 outer loop
  vertex 1.191 -2.062 7.638
  vertex 1.191 -2.062 0
  vertex 1.435 -1.9 7.638
 endloop
endfacet
facet normal 0.552 -0.834 0
 outer loop
  vertex 1.435 -1.9 7.638
  vertex 1.191 -2.062 0
  vertex 1.435 -1.9 0
 endloop
endfacet
facet normal 0.651 -0.759 0
 outer loop
  vertex 1.435 -1.9 7.638
  vertex 1.435 -1.9 0
  vertex 1.658 -1.71 7.638
 endloop
endfacet
facet normal 0.651 -0.759 0
 outer loop
  vertex 1.658 -1.71 7.638
  vertex 1.435 -1.9 0
  vertex 1.658 -1.71 0
 endloop
endfacet
facet normal 0.739 -0.674 0
 outer loop
  vertex 1.658 -1.71 7.638
  vertex 1.658 -1.71 0
  vertex 1.855 -1.493 7.638
 endloop
endfacet
facet normal 0.739 -0.674 0
 outer loop
  vertex 1.855 -1.493 7.638
  vertex 1.658 -1.71 0
  vertex 1.855 -1.493 0
 endloop
endfacet
facet normal 0.816 -0.578 0
 outer loop
  vertex 1.855 -1.493 7.638
  vertex 1.855 -1.493 0
  vertex 2.025 -1.254 7.638
 endloop
endfacet
facet normal 0.816 -0.578 0
 outer loop
  vertex 2.025 -1.254 7.638
  vertex 1.855 -1.493 0
  vertex 2.025 -1.254 0
 endloop
endfacet
facet normal 0.881 -0.473 0
 outer loop
  vertex 2.025 -1.254 7.638
  vertex 2.025 -1.254 0
  vertex 2.163 -0.995 7.638
 endloop
endfacet
facet normal 0.881 -0.473 0
 outer loop
  vertex 2.163 -0.995 7.638
  vertex 2.025 -1.254 0
  vertex 2.163 -0.995 0
 endloop
endfacet
facet normal 0.932 -0.361 0
 outer loop
  vertex 2.163 -0.995 7.638
  vertex 2.163 -0.995 0
  vertex 2.269 -0.722 7.638
 endloop
endfacet
facet normal 0.932 -0.361 0
 outer loop
  vertex 2.269 -0.722 7.638
  vertex 2.163 -0.995 0
  vertex 2.269 -0.722 0
 endloop
endfacet
facet normal 0.97 -0.244 0
 outer loop
  vertex 2.269 -0.722 7.638
  vertex 2.269 -0.722 0
  vertex 2.341 -0.438 7.638
 endloop
endfacet
facet normal 0.97 -0.244 0
 outer loop
  vertex 2.341 -0.438 7.638
  vertex 2.269 -0.722 0
  vertex 2.341 -0.438 0
 endloop
endfacet
facet normal 0.992 -0.123 0
 outer loop
  vertex 2.341 -0.438 7.638
  vertex 2.341 -0.438 0
  vertex 2.377 -0.147 7.638
 endloop
endfacet
facet normal 0.992 -0.123 0
 outer loop
  vertex 2.377 -0.147 7.638
  vertex 2.341 -0.438 0
  vertex 2.377 -0.147 0
 endloop
endfacet
facet normal 0.866 -0.027 0.5
 outer loop
  vertex 2.204 -0.136 7.938
  vertex 2.377 -0.147 7.638
  vertex 2.208 0 7.938
 endloop
endfacet
facet normal 0.866 -0.027 0.5
 outer loop
  vertex 2.208 0 7.938
  vertex 2.377 -0.147 7.638
  vertex 2.381 0 7.638
 endloop
endfacet
facet normal 0.866 0.027 0.5
 outer loop
  vertex 2.208 0 7.938
  vertex 2.381 0 7.638
  vertex 2.204 0.136 7.938
 endloop
endfacet
facet normal 0.866 0.027 0.5
 outer loop
  vertex 2.204 0.136 7.938
  vertex 2.381 0 7.638
  vertex 2.377 0.147 7.638
 endloop
endfacet
facet normal 0.86 0.106 0.499
 outer loop
  vertex 2.204 0.136 7.938
  vertex 2.377 0.147 7.638
  vertex 2.17 0.406 7.938
 endloop
endfacet
facet normal 0.86 0.106 0.499
 outer loop
  vertex 2.17 0.406 7.938
  vertex 2.377 0.147 7.638
  vertex 2.341 0.438 7.638
 endloop
endfacet
facet normal 0.84 0.211 0.499
 outer loop
  vertex 2.17 0.406 7.938
  vertex 2.341 0.438 7.638
  vertex 2.104 0.669 7.938
 endloop
endfacet
facet normal 0.84 0.211 0.499
 outer loop
  vertex 2.104 0.669 7.938
  vertex 2.341 0.438 7.638
  vertex 2.269 0.722 7.638
 endloop
endfacet
facet normal 0.808 0.313 0.499
 outer loop
  vertex 2.104 0.669 7.938
  vertex 2.269 0.722 7.638
  vertex 2.006 0.923 7.938
 endloop
endfacet
facet normal 0.808 0.313 0.499
 outer loop
  vertex 2.006 0.923 7.938
  vertex 2.269 0.722 7.638
  vertex 2.163 0.995 7.638
 endloop
endfacet
facet normal 0.763 0.41 0.499
 outer loop
  vertex 2.006 0.923 7.938
  vertex 2.163 0.995 7.638
  vertex 1.877 1.162 7.938
 endloop
endfacet
facet normal 0.763 0.41 0.499
 outer loop
  vertex 1.877 1.162 7.938
  vertex 2.163 0.995 7.638
  vertex 2.025 1.254 7.638
 endloop
endfacet
facet normal 0.707 0.501 0.499
 outer loop
  vertex 1.877 1.162 7.938
  vertex 2.025 1.254 7.638
  vertex 1.72 1.384 7.938
 endloop
endfacet
facet normal 0.707 0.501 0.499
 outer loop
  vertex 1.72 1.384 7.938
  vertex 2.025 1.254 7.638
  vertex 1.855 1.493 7.638
 endloop
endfacet
facet normal 0.64 0.584 0.499
 outer loop
  vertex 1.72 1.384 7.938
  vertex 1.855 1.493 7.638
  vertex 1.537 1.585 7.938
 endloop
endfacet
facet normal 0.64 0.584 0.499
 outer loop
  vertex 1.537 1.585 7.938
  vertex 1.855 1.493 7.638
  vertex 1.658 1.71 7.638
 endloop
endfacet
facet normal 0.564 0.658 0.499
 outer loop
  vertex 1.537 1.585 7.938
  vertex 1.658 1.71 7.638
  vertex 1.331 1.762 7.938
 endloop
endfacet
facet normal 0.564 0.658 0.499
 outer loop
  vertex 1.331 1.762 7.938
  vertex 1.658 1.71 7.638
  vertex 1.435 1.9 7.638
 endloop
endfacet
facet normal 0.479 0.722 0.499
 outer loop
  vertex 1.331 1.762 7.938
  vertex 1.435 1.9 7.638
  vertex 1.104 1.912 7.938
 endloop
endfacet
facet normal 0.479 0.722 0.499
 outer loop
  vertex 1.104 1.912 7.938
  vertex 1.435 1.9 7.638
  vertex 1.191 2.062 7.638
 endloop
endfacet
facet normal 0.386 0.776 0.499
 outer loop
  vertex 1.104 1.912 7.938
  vertex 1.191 2.062 7.638
  vertex 0.861 2.033 7.938
 endloop
endfacet
facet normal 0.386 0.776 0.499
 outer loop
  vertex 0.861 2.033 7.938
  vertex 1.191 2.062 7.638
  vertex 0.928 2.193 7.638
 endloop
endfacet
facet normal 0.288 0.817 0.499
 outer loop
  vertex 0.861 2.033 7.938
  vertex 0.928 2.193 7.638
  vertex 0.604 2.124 7.938
 endloop
endfacet
facet normal 0.288 0.817 0.499
 outer loop
  vertex 0.604 2.124 7.938
  vertex 0.928 2.193 7.638
  vertex 0.652 2.29 7.638
 endloop
endfacet
facet normal 0.185 0.846 0.499
 outer loop
  vertex 0.604 2.124 7.938
  vertex 0.652 2.29 7.638
  vertex 0.339 2.182 7.938
 endloop
endfacet
facet normal 0.185 0.846 0.499
 outer loop
  vertex 0.339 2.182 7.938
  vertex 0.652 2.29 7.638
  vertex 0.365 2.353 7.638
 endloop
endfacet
facet normal 0.08 0.863 0.499
 outer loop
  vertex 0.339 2.182 7.938
  vertex 0.365 2.353 7.638
  vertex 0.068 2.207 7.938
 endloop
endfacet
facet normal 0.08 0.863 0.499
 outer loop
  vertex 0.068 2.207 7.938
  vertex 0.365 2.353 7.638
  vertex 0.073 2.38 7.638
 endloop
endfacet
facet normal -0.027 0.866 0.499
 outer loop
  vertex 0.068 2.207 7.938
  vertex 0.073 2.38 7.638
  vertex -0.204 2.199 7.938
 endloop
endfacet
facet normal -0.027 0.866 0.499
 outer loop
  vertex -0.204 2.199 7.938
  vertex 0.073 2.38 7.638
  vertex -0.22 2.371 7.638
 endloop
endfacet
facet normal -0.133 0.856 0.499
 outer loop
  vertex -0.204 2.199 7.938
  vertex -0.22 2.371 7.638
  vertex -0.472 2.157 7.938
 endloop
endfacet
facet normal -0.133 0.856 0.499
 outer loop
  vertex -0.472 2.157 7.938
  vertex -0.22 2.371 7.638
  vertex -0.509 2.326 7.638
 endloop
endfacet
facet normal -0.237 0.833 0.499
 outer loop
  vertex -0.472 2.157 7.938
  vertex -0.509 2.326 7.638
  vertex -0.734 2.083 7.938
 endloop
endfacet
facet normal -0.237 0.833 0.499
 outer loop
  vertex -0.734 2.083 7.938
  vertex -0.509 2.326 7.638
  vertex -0.791 2.246 7.638
 endloop
endfacet
facet normal -0.338 0.798 0.499
 outer loop
  vertex -0.734 2.083 7.938
  vertex -0.791 2.246 7.638
  vertex -0.984 1.977 7.938
 endloop
endfacet
facet normal -0.338 0.798 0.499
 outer loop
  vertex -0.984 1.977 7.938
  vertex -0.791 2.246 7.638
  vertex -1.061 2.132 7.638
 endloop
endfacet
facet normal -0.433 0.75 0.499
 outer loop
  vertex -0.984 1.977 7.938
  vertex -1.061 2.132 7.638
  vertex -1.22 1.841 7.938
 endloop
endfacet
facet normal -0.433 0.75 0.499
 outer loop
  vertex -1.22 1.841 7.938
  vertex -1.061 2.132 7.638
  vertex -1.315 1.985 7.638
 endloop
endfacet
facet normal -0.522 0.691 0.499
 outer loop
  vertex -1.22 1.841 7.938
  vertex -1.315 1.985 7.638
  vertex -1.437 1.677 7.938
 endloop
endfacet
facet normal -0.522 0.691 0.499
 outer loop
  vertex -1.437 1.677 7.938
  vertex -1.315 1.985 7.638
  vertex -1.549 1.808 7.638
 endloop
endfacet
facet normal -0.603 0.622 0.499
 outer loop
  vertex -1.437 1.677 7.938
  vertex -1.549 1.808 7.638
  vertex -1.632 1.488 7.938
 endloop
endfacet
facet normal -0.603 0.622 0.499
 outer loop
  vertex -1.632 1.488 7.938
  vertex -1.549 1.808 7.638
  vertex -1.76 1.604 7.638
 endloop
endfacet
facet normal -0.675 0.543 0.499
 outer loop
  vertex -1.632 1.488 7.938
  vertex -1.76 1.604 7.638
  vertex -1.802 1.276 7.938
 endloop
endfacet
facet normal -0.675 0.543 0.499
 outer loop
  vertex -1.802 1.276 7.938
  vertex -1.76 1.604 7.638
  vertex -1.944 1.376 7.638
 endloop
endfacet
facet normal -0.737 0.456 0.499
 outer loop
  vertex -1.802 1.276 7.938
  vertex -1.944 1.376 7.638
  vertex -1.945 1.045 7.938
 endloop
endfacet
facet normal -0.737 0.456 0.499
 outer loop
  vertex -1.945 1.045 7.938
  vertex -1.944 1.376 7.638
  vertex -2.098 1.127 7.638
 endloop
endfacet
facet normal -0.787 0.362 0.499
 outer loop
  vertex -1.945 1.045 7.938
  vertex -2.098 1.127 7.638
  vertex -2.059 0.798 7.938
 endloop
endfacet
facet normal -0.787 0.362 0.499
 outer loop
  vertex -2.059 0.798 7.938
  vertex -2.098 1.127 7.638
  vertex -2.22 0.86 7.638
 endloop
endfacet
facet normal -0.826 0.263 0.499
 outer loop
  vertex -2.059 0.798 7.938
  vertex -2.22 0.86 7.638
  vertex -2.141 0.539 7.938
 endloop
endfacet
facet normal -0.826 0.263 0.499
 outer loop
  vertex -2.141 0.539 7.938
  vertex -2.22 0.86 7.638
  vertex -2.309 0.581 7.638
 endloop
endfacet
facet normal -0.852 0.159 0.499
 outer loop
  vertex -2.141 0.539 7.938
  vertex -2.309 0.581 7.638
  vertex -2.191 0.271 7.938
 endloop
endfacet
facet normal -0.852 0.159 0.499
 outer loop
  vertex -2.191 0.271 7.938
  vertex -2.309 0.581 7.638
  vertex -2.363 0.293 7.638
 endloop
endfacet
facet normal -0.865 0.053 0.499
 outer loop
  vertex -2.191 0.271 7.938
  vertex -2.363 0.293 7.638
  vertex -2.208 0 7.938
 endloop
endfacet
facet normal -0.865 0.053 0.499
 outer loop
  vertex -2.208 0 7.938
  vertex -2.363 0.293 7.638
  vertex -2.381 0 7.638
 endloop
endfacet
facet normal -0.865 -0.053 0.499
 outer loop
  vertex -2.208 0 7.938
  vertex -2.381 0 7.638
  vertex -2.191 -0.271 7.938
 endloop
endfacet
facet normal -0.865 -0.053 0.499
 outer loop
  vertex -2.191 -0.271 7.938
  vertex -2.381 0 7.638
  vertex -2.363 -0.293 7.638
 endloop
endfacet
facet normal -0.852 -0.159 0.499
 outer loop
  vertex -2.191 -0.271 7.938
  vertex -2.363 -0.293 7.638
  vertex -2.141 -0.539 7.938
 endloop
endfacet
facet normal -0.852 -0.159 0.499
 outer loop
  vertex -2.141 -0.539 7.938
  vertex -2.363 -0.293 7.638
  vertex -2.309 -0.581 7.638
 endloop
endfacet
facet normal -0.826 -0.263 0.499
 outer loop
  vertex -2.141 -0.539 7.938
  vertex -2.309 -0.581 7.638
  vertex -2.059 -0.798 7.938
 endloop
endfacet
facet normal -0.826 -0.263 0.499
 outer loop
  vertex -2.059 -0.798 7.938
  vertex -2.309 -0.581 7.638
  vertex -2.22 -0.86 7.638
 endloop
endfacet
facet normal -0.787 -0.362 0.499
 outer loop
  vertex -2.059 -0.798 7.938
  vertex -2.22 -0.86 7.638
  vertex -1.945 -1.045 7.938
 endloop
endfacet
facet normal -0.787 -0.362 0.499
 outer loop
  vertex -1.945 -1.045 7.938
  vertex -2.22 -0.86 7.638
  vertex -2.098 -1.127 7.638
 endloop
endfacet
facet normal -0.737 -0.456 0.499
 outer loop
  vertex -1.945 -1.045 7.938
  vertex -2.098 -1.127 7.638
  vertex -1.802 -1.276 7.938
 endloop
endfacet
facet normal -0.737 -0.456 0.499
 outer loop
  vertex -1.802 -1.276 7.938
  vertex -2.098 -1.127 7.638
  vertex -1.944 -1.376 7.638
 endloop
endfacet
facet normal -0.675 -0.543 0.499
 outer loop
  vertex -1.802 -1.276 7.938
  vertex -1.944 -1.376 7.638
  vertex -1.632 -1.488 7.938
 endloop
endfacet
facet normal -0.675 -0.543 0.499
 outer loop
  vertex -1.632 -1.488 7.938
  vertex -1.944 -1.376 7.638
  vertex -1.76 -1.604 7.638
 endloop
endfacet
facet normal -0.603 -0.622 0.499
 outer loop
  vertex -1.632 -1.488 7.938
  vertex -1.76 -1.604 7.638
  vertex -1.437 -1.677 7.938
 endloop
endfacet
facet normal -0.603 -0.622 0.499
 outer loop
  vertex -1.437 -1.677 7.938
  vertex -1.76 -1.604 7.638
  vertex -1.549 -1.808 7.638
 endloop
endfacet
facet normal -0.522 -0.691 0.499
 outer loop
  vertex -1.437 -1.677 7.938
  vertex -1.549 -1.808 7.638
  vertex -1.22 -1.841 7.938
 endloop
endfacet
facet normal -0.522 -0.691 0.499
 outer loop
  vertex -1.22 -1.841 7.938
  vertex -1.549 -1.808 7.638
  vertex -1.315 -1.985 7.638
 endloop
endfacet
facet normal -0.433 -0.75 0.499
 outer loop
  vertex -1.22 -1.841 7.938
  vertex -1.315 -1.985 7.638
  vertex -0.984 -1.977 7.938
 endloop
endfacet
facet normal -0.433 -0.75 0.499
 outer loop
  vertex -0.984 -1.977 7.938
  vertex -1.315 -1.985 7.638
  vertex -1.061 -2.132 7.638
 endloop
endfacet
facet normal -0.338 -0.798 0.499
 outer loop
  vertex -0.984 -1.977 7.938
  vertex -1.061 -2.132 7.638
  vertex -0.734 -2.083 7.938
 endloop
endfacet
facet normal -0.338 -0.798 0.499
 outer loop
  vertex -0.734 -2.083 7.938
  vertex -1.061 -2.132 7.638
  vertex -0.791 -2.246 7.638
 endloop
endfacet
facet normal -0.237 -0.833 0.499
 outer loop
  vertex -0.734 -2.083 7.938
  vertex -0.791 -2.246 7.638
  vertex -0.472 -2.157 7.938
 endloop
endfacet
facet normal -0.237 -0.833 0.499
 outer loop
  vertex -0.472 -2.157 7.938
  vertex -0.791 -2.246 7.638
  vertex -0.509 -2.326 7.638
 endloop
endfacet
facet normal -0.133 -0.856 0.499
 outer loop
  vertex -0.472 -2.157 7.938
  vertex -0.509 -2.326 7.638
  vertex -0.204 -2.199 7.938
 endloop
endfacet
facet normal -0.133 -0.856 0.499
 outer loop
  vertex -0.204 -2.199 7.938
  vertex -0.509 -2.326 7.638
  vertex -0.22 -2.371 7.638
 endloop
endfacet
facet normal -0.027 -0.866 0.499
 outer loop
  vertex -0.204 -2.199 7.938
  vertex -0.22 -2.371 7.638
  vertex 0.068 -2.207 7.938
 endloop
endfacet
facet normal -0.027 -0.866 0.499
 outer loop
  vertex 0.068 -2.207 7.938
  vertex -0.22 -2.371 7.638
  vertex 0.073 -2.38 7.638
 endloop
endfacet
facet normal 0.08 -0.863 0.499
 outer loop
  vertex 0.068 -2.207 7.938
  vertex 0.073 -2.38 7.638
  vertex 0.339 -2.182 7.938
 endloop
endfacet
facet normal 0.08 -0.863 0.499
 outer loop
  vertex 0.339 -2.182 7.938
  vertex 0.073 -2.38 7.638
  vertex 0.365 -2.353 7.638
 endloop
endfacet
facet normal 0.185 -0.846 0.499
 outer loop
  vertex 0.339 -2.182 7.938
  vertex 0.365 -2.353 7.638
  vertex 0.604 -2.124 7.938
 endloop
endfacet
facet normal 0.185 -0.846 0.499
 outer loop
  vertex 0.604 -2.124 7.938
  vertex 0.365 -2.353 7.638
  vertex 0.652 -2.29 7.638
 endloop
endfacet
facet normal 0.288 -0.817 0.499
 outer loop
  vertex 0.604 -2.124 7.938
  vertex 0.652 -2.29 7.638
  vertex 0.861 -2.033 7.938
 endloop
endfacet
facet normal 0.288 -0.817 0.499
 outer loop
  vertex 0.861 -2.033 7.938
  vertex 0.652 -2.29 7.638
  vertex 0.928 -2.193 7.638
 endloop
endfacet
facet normal 0.386 -0.776 0.499
 outer loop
  vertex 0.861 -2.033 7.938
  vertex 0.928 -2.193 7.638
  vertex 1.104 -1.912 7.938
 endloop
endfacet
facet normal 0.386 -0.776 0.499
 outer loop
  vertex 1.104 -1.912 7.938
  vertex 0.928 -2.193 7.638
  vertex 1.191 -2.062 7.638
 endloop
endfacet
facet normal 0.479 -0.722 0.499
 outer loop
  vertex 1.104 -1.912 7.938
  vertex 1.191 -2.062 7.638
  vertex 1.331 -1.762 7.938
 endloop
endfacet
facet normal 0.479 -0.722 0.499
 outer loop
  vertex 1.331 -1.762 7.938
  vertex 1.191 -2.062 7.638
  vertex 1.435 -1.9 7.638
 endloop
endfacet
facet normal 0.564 -0.658 0.499
 outer loop
  vertex 1.331 -1.762 7.938
  vertex 1.435 -1.9 7.638
  vertex 1.537 -1.585 7.938
 endloop
endfacet
facet normal 0.564 -0.658 0.499
 outer loop
  vertex 1.537 -1.585 7.938
  vertex 1.435 -1.9 7.638
  vertex 1.658 -1.71 7.638
 endloop
endfacet
facet normal 0.64 -0.584 0.499
 outer loop
  vertex 1.537 -1.585 7.938
  vertex 1.658 -1.71 7.638
  vertex 1.72 -1.384 7.938
 endloop
endfacet
facet normal 0.64 -0.584 0.499
 outer loop
  vertex 1.72 -1.384 7.938
  vertex 1.658 -1.71 7.638
  vertex 1.855 -1.493 7.638
 endloop
endfacet
facet normal 0.707 -0.501 0.499
 outer loop
  vertex 1.72 -1.384 7.938
  vertex 1.855 -1.493 7.638
  vertex 1.877 -1.162 7.938
 endloop
endfacet
facet normal 0.707 -0.501 0.499
 outer loop
  vertex 1.877 -1.162 7.938
  vertex 1.855 -1.493 7.638
  vertex 2.025 -1.254 7.638
 endloop
endfacet
facet normal 0.763 -0.41 0.499
 outer loop
  vertex 1.877 -1.162 7.938
  vertex 2.025 -1.254 7.638
  vertex 2.006 -0.923 7.938
 endloop
endfacet
facet normal 0.763 -0.41 0.499
 outer loop
  vertex 2.006 -0.923 7.938
  vertex 2.025 -1.254 7.638
  vertex 2.163 -0.995 7.638
 endloop
endfacet
facet normal 0.808 -0.313 0.499
 outer loop
  vertex 2.006 -0.923 7.938
  vertex 2.163 -0.995 7.638
  vertex 2.104 -0.669 7.938
 endloop
endfacet
facet normal 0.808 -0.313 0.499
 outer loop
  vertex 2.104 -0.669 7.938
  vertex 2.163 -0.995 7.638
  vertex 2.269 -0.722 7.638
 endloop
endfacet
facet normal 0.84 -0.211 0.499
 outer loop
  vertex 2.104 -0.669 7.938
  vertex 2.269 -0.722 7.638
  vertex 2.17 -0.406 7.938
 endloop
endfacet
facet normal 0.84 -0.211 0.499
 outer loop
  vertex 2.17 -0.406 7.938
  vertex 2.269 -0.722 7.638
  vertex 2.341 -0.438 7.638
 endloop
endfacet
facet normal 0.86 -0.106 0.499
 outer loop
  vertex 2.17 -0.406 7.938
  vertex 2.341 -0.438 7.638
  vertex 2.204 -0.136 7.938
 endloop
endfacet
facet normal 0.86 -0.106 0.499
 outer loop
  vertex 2.204 -0.136 7.938
  vertex 2.341 -0.438 7.638
  vertex 2.377 -0.147 7.638
 endloop
endfacet
facet normal -0 0 1
 outer loop
  vertex 1.584 -0.098 7.938
  vertex 2.204 -0.136 7.938
  vertex 1.587 0 7.938
 endloop
endfacet
facet normal -0 0 1
 outer loop
  vertex 1.587 0 7.938
  vertex 2.204 -0.136 7.938
  vertex 2.208 0 7.938
 endloop
endfacet
facet normal 0 -0 1
 outer loop
  vertex 1.587 0 7.938
  vertex 2.208 0 7.938
  vertex 1.584 0.098 7.938
 endloop
endfacet
facet normal -0 0 1
 outer loop
  vertex 1.584 0.098 7.938
  vertex 2.208 0 7.938
  vertex 2.204 0.136 7.938
 endloop
endfacet
facet normal 0 -0 1
 outer loop
  vertex 1.584 0.098 7.938
  vertex 2.204 0.136 7.938
  vertex 1.56 0.292 7.938
 endloop
endfacet
facet normal -0 0 1
 outer loop
  vertex 1.56 0.292 7.938
  vertex 2.204 0.136 7.938
  vertex 2.17 0.406 7.938
 endloop
endfacet
facet normal 0 -0 1
 outer loop
  vertex 1.56 0.292 7.938
  vertex 2.17 0.406 7.938
  vertex 1.513 0.481 7.938
 endloop
endfacet
facet normal -0 0 1
 outer loop
  vertex 1.513 0.481 7.938
  vertex 2.17 0.406 7.938
  vertex 2.104 0.669 7.938
 endloop
endfacet
facet normal 0 -0 1
 outer loop
  vertex 1.513 0.481 7.938
  vertex 2.104 0.669 7.938
  vertex 1.442 0.664 7.938
 endloop
endfacet
facet normal 0 0 1
 outer loop
  vertex 1.442 0.664 7.938
  vertex 2.104 0.669 7.938
  vertex 2.006 0.923 7.938
 endloop
endfacet
facet normal 0 -0 1
 outer loop
  vertex 1.442 0.664 7.938
  vertex 2.006 0.923 7.938
  vertex 1.35 0.836 7.938
 endloop
endfacet
facet normal 0 0 1
 outer loop
  vertex 1.35 0.836 7.938
  vertex 2.006 0.923 7.938
  vertex 1.877 1.162 7.938
 endloop
endfacet
facet normal 0 -0 1
 outer loop
  vertex 1.35 0.836 7.938
  vertex 1.877 1.162 7.938
  vertex 1.237 0.995 7.938
 endloop
endfacet
facet normal 0 0 1
 outer loop
  vertex 1.237 0.995 7.938
  vertex 1.877 1.162 7.938
  vertex 1.72 1.384 7.938
 endloop
endfacet
facet normal 0 -0 1
 outer loop
  vertex 1.237 0.995 7.938
  vertex 1.72 1.384 7.938
  vertex 1.105 1.14 7.938
 endloop
endfacet
facet normal 0 0 1
 outer loop
  vertex 1.105 1.14 7.938
  vertex 1.72 1.384 7.938
  vertex 1.537 1.585 7.938
 endloop
endfacet
facet normal 0 -0 1
 outer loop
  vertex 1.105 1.14 7.938
  vertex 1.537 1.585 7.938
  vertex 0.957 1.267 7.938
 endloop
endfacet
facet normal 0 0 1
 outer loop
  vertex 0.957 1.267 7.938
  vertex 1.537 1.585 7.938
  vertex 1.331 1.762 7.938
 endloop
endfacet
facet normal 0 -0 1
 outer loop
  vertex 0.957 1.267 7.938
  vertex 1.331 1.762 7.938
  vertex 0.794 1.375 7.938
 endloop
endfacet
facet normal 0 0 1
 outer loop
  vertex 0.794 1.375 7.938
  vertex 1.331 1.762 7.938
  vertex 1.104 1.912 7.938
 endloop
endfacet
facet normal 0 -0 1
 outer loop
  vertex 0.794 1.375 7.938
  vertex 1.104 1.912 7.938
  vertex 0.619 1.462 7.938
 endloop
endfacet
facet normal 0 0 1
 outer loop
  vertex 0.619 1.462 7.938
  vertex 1.104 1.912 7.938
  vertex 0.861 2.033 7.938
 endloop
endfacet
facet normal 0 -0 1
 outer loop
  vertex 0.619 1.462 7.938
  vertex 0.861 2.033 7.938
  vertex 0.434 1.527 7.938
 endloop
endfacet
facet normal 0 0 1
 outer loop
  vertex 0.434 1.527 7.938
  vertex 0.861 2.033 7.938
  vertex 0.604 2.124 7.938
 endloop
endfacet
facet normal 0 -0 1
 outer loop
  vertex 0.434 1.527 7.938
  vertex 0.604 2.124 7.938
  vertex 0.244 1.569 7.938
 endloop
endfacet
facet normal 0 0 1
 outer loop
  vertex 0.244 1.569 7.938
  vertex 0.604 2.124 7.938
  vertex 0.339 2.182 7.938
 endloop
endfacet
facet normal 0 -0 1
 outer loop
  vertex 0.244 1.569 7.938
  vertex 0.339 2.182 7.938
  vertex 0.049 1.587 7.938
 endloop
endfacet
facet normal 0 0 1
 outer loop
  vertex 0.049 1.587 7.938
  vertex 0.339 2.182 7.938
  vertex 0.068 2.207 7.938
 endloop
endfacet
facet normal 0 -0 1
 outer loop
  vertex 0.049 1.587 7.938
  vertex 0.068 2.207 7.938
  vertex -0.204 2.199 7.938
 endloop
endfacet
facet normal 0 0 1
 outer loop
  vertex 1.584 -0.098 7.938
  vertex 1.56 -0.292 7.938
  vertex 2.204 -0.136 7.938
 endloop
endfacet
facet normal 0 0 1
 outer loop
  vertex 2.204 -0.136 7.938
  vertex 1.56 -0.292 7.938
  vertex 2.17 -0.406 7.938
 endloop
endfacet
facet normal 0 0 1
 outer loop
  vertex 1.56 -0.292 7.938
  vertex 1.513 -0.481 7.938
  vertex 2.17 -0.406 7.938
 endloop
endfacet
facet normal 0 0 1
 outer loop
  vertex 2.17 -0.406 7.938
  vertex 1.513 -0.481 7.938
  vertex 2.104 -0.669 7.938
 endloop
endfacet
facet normal 0 0 1
 outer loop
  vertex 1.513 -0.481 7.938
  vertex 1.442 -0.664 7.938
  vertex 2.104 -0.669 7.938
 endloop
endfacet
facet normal 0 0 1
 outer loop
  vertex 2.104 -0.669 7.938
  vertex 1.442 -0.664 7.938
  vertex 2.006 -0.923 7.938
 endloop
endfacet
facet normal 0 0 1
 outer loop
  vertex 1.442 -0.664 7.938
  vertex 1.35 -0.836 7.938
  vertex 2.006 -0.923 7.938
 endloop
endfacet
facet normal 0 0 1
 outer loop
  vertex 2.006 -0.923 7.938
  vertex 1.35 -0.836 7.938
  vertex 1.877 -1.162 7.938
 endloop
endfacet
facet normal 0 0 1
 outer loop
  vertex 1.35 -0.836 7.938
  vertex 1.237 -0.995 7.938
  vertex 1.877 -1.162 7.938
 endloop
endfacet
facet normal 0 0 1
 outer loop
  vertex 1.877 -1.162 7.938
  vertex 1.237 -0.995 7.938
  vertex 1.72 -1.384 7.938
 endloop
endfacet
facet normal 0 0 1
 outer loop
  vertex 1.237 -0.995 7.938
  vertex 1.105 -1.14 7.938
  vertex 1.72 -1.384 7.938
 endloop
endfacet
facet normal 0 0 1
 outer loop
  vertex 1.72 -1.384 7.938
  vertex 1.105 -1.14 7.938
  vertex 1.537 -1.585 7.938
 endloop
endfacet
facet normal 0 0 1
 outer loop
  vertex 1.105 -1.14 7.938
  vertex 0.957 -1.267 7.938
  vertex 1.537 -1.585 7.938
 endloop
endfacet
facet normal 0 0 1
 outer loop
  vertex 1.537 -1.585 7.938
  vertex 0.957 -1.267 7.938
  vertex 1.331 -1.762 7.938
 endloop
endfacet
facet normal 0 0 1
 outer loop
  vertex 0.957 -1.267 7.938
  vertex 0.794 -1.375 7.938
  vertex 1.331 -1.762 7.938
 endloop
endfacet
facet normal 0 0 1
 outer loop
  vertex 1.331 -1.762 7.938
  vertex 0.794 -1.375 7.938
  vertex 1.104 -1.912 7.938
 endloop
endfacet
facet normal 0 0 1
 outer loop
  vertex 0.794 -1.375 7.938
  vertex 0.619 -1.462 7.938
  vertex 1.104 -1.912 7.938
 endloop
endfacet
facet normal 0 0 1
 outer loop
  vertex 1.104 -1.912 7.938
  vertex 0.619 -1.462 7.938
  vertex 0.861 -2.033 7.938
 endloop
endfacet
facet normal 0 0 1
 outer loop
  vertex 0.619 -1.462 7.938
  vertex 0.434 -1.527 7.938
  vertex 0.861 -2.033 7.938
 endloop
endfacet
facet normal 0 0 1
 outer loop
  vertex 0.861 -2.033 7.938
  vertex 0.434 -1.527 7.938
  vertex 0.604 -2.124 7.938
 endloop
endfacet
facet normal 0 0 1
 outer loop
  vertex 0.434 -1.527 7.938
  vertex 0.244 -1.569 7.938
  vertex 0.604 -2.124 7.938
 endloop
endfacet
facet normal 0 0 1
 outer loop
  vertex 0.604 -2.124 7.938
  vertex 0.244 -1.569 7.938
  vertex 0.339 -2.182 7.938
 endloop
endfacet
facet normal 0 0 1
 outer loop
  vertex 0.244 -1.569 7.938
  vertex 0.049 -1.587 7.938
  vertex 0.339 -2.182 7.938
 endloop
endfacet
facet normal 0 0 1
 outer loop
  vertex 0.339 -2.182 7.938
  vertex 0.049 -1.587 7.938
  vertex 0.068 -2.207 7.938
 endloop
endfacet
facet normal 0 0 1
 outer loop
  vertex 0.068 -2.207 7.938
  vertex 0.049 -1.587 7.938
  vertex -0.204 -2.199 7.938
 endloop
endfacet
facet normal 0 0 1
 outer loop
  vertex -0.204 -2.199 7.938
  vertex 0.049 -1.587 7.938
  vertex -0.146 -1.581 7.938
 endloop
endfacet
facet normal 0 -0 1
 outer loop
  vertex -0.204 -2.199 7.938
  vertex -0.146 -1.581 7.938
  vertex -0.472 -2.157 7.938
 endloop
endfacet
facet normal 0 0 1
 outer loop
  vertex -0.472 -2.157 7.938
  vertex -0.146 -1.581 7.938
  vertex -0.34 -1.551 7.938
 endloop
endfacet
facet normal 0 -0 1
 outer loop
  vertex -0.472 -2.157 7.938
  vertex -0.34 -1.551 7.938
  vertex -0.734 -2.083 7.938
 endloop
endfacet
facet normal 0 0 1
 outer loop
  vertex -0.734 -2.083 7.938
  vertex -0.34 -1.551 7.938
  vertex -0.528 -1.497 7.938
 endloop
endfacet
facet normal 0 -0 1
 outer loop
  vertex -0.734 -2.083 7.938
  vertex -0.528 -1.497 7.938
  vertex -0.984 -1.977 7.938
 endloop
endfacet
facet normal 0 0 1
 outer loop
  vertex -0.984 -1.977 7.938
  vertex -0.528 -1.497 7.938
  vertex -0.708 -1.421 7.938
 endloop
endfacet
facet normal 0 -0 1
 outer loop
  vertex -0.984 -1.977 7.938
  vertex -0.708 -1.421 7.938
  vertex -1.22 -1.841 7.938
 endloop
endfacet
facet normal 0 0 1
 outer loop
  vertex -1.22 -1.841 7.938
  vertex -0.708 -1.421 7.938
  vertex -0.877 -1.323 7.938
 endloop
endfacet
facet normal 0 -0 1
 outer loop
  vertex -1.22 -1.841 7.938
  vertex -0.877 -1.323 7.938
  vertex -1.437 -1.677 7.938
 endloop
endfacet
facet normal 0 0 1
 outer loop
  vertex -1.437 -1.677 7.938
  vertex -0.877 -1.323 7.938
  vertex -1.033 -1.206 7.938
 endloop
endfacet
facet normal 0 -0 1
 outer loop
  vertex -1.437 -1.677 7.938
  vertex -1.033 -1.206 7.938
  vertex -1.632 -1.488 7.938
 endloop
endfacet
facet normal 0 0 1
 outer loop
  vertex -1.632 -1.488 7.938
  vertex -1.033 -1.206 7.938
  vertex -1.173 -1.069 7.938
 endloop
endfacet
facet normal 0 -0 1
 outer loop
  vertex -1.632 -1.488 7.938
  vertex -1.173 -1.069 7.938
  vertex -1.802 -1.276 7.938
 endloop
endfacet
facet normal 0 0 1
 outer loop
  vertex -1.802 -1.276 7.938
  vertex -1.173 -1.069 7.938
  vertex -1.296 -0.917 7.938
 endloop
endfacet
facet normal 0 -0 1
 outer loop
  vertex -1.802 -1.276 7.938
  vertex -1.296 -0.917 7.938
  vertex -1.945 -1.045 7.938
 endloop
endfacet
facet normal 0 0 1
 outer loop
  vertex -1.945 -1.045 7.938
  vertex -1.296 -0.917 7.938
  vertex -1.399 -0.751 7.938
 endloop
endfacet
facet normal 0 -0 1
 outer loop
  vertex -1.945 -1.045 7.938
  vertex -1.399 -0.751 7.938
  vertex -2.059 -0.798 7.938
 endloop
endfacet
facet normal 0 0 1
 outer loop
  vertex -2.059 -0.798 7.938
  vertex -1.399 -0.751 7.938
  vertex -1.48 -0.573 7.938
 endloop
endfacet
facet normal 0 -0 1
 outer loop
  vertex -2.059 -0.798 7.938
  vertex -1.48 -0.573 7.938
  vertex -2.141 -0.539 7.938
 endloop
endfacet
facet normal -0 0 1
 outer loop
  vertex -2.141 -0.539 7.938
  vertex -1.48 -0.573 7.938
  vertex -1.54 -0.387 7.938
 endloop
endfacet
facet normal 0 -0 1
 outer loop
  vertex -2.141 -0.539 7.938
  vertex -1.54 -0.387 7.938
  vertex -2.191 -0.271 7.938
 endloop
endfacet
facet normal -0 0 1
 outer loop
  vertex -2.191 -0.271 7.938
  vertex -1.54 -0.387 7.938
  vertex -1.575 -0.195 7.938
 endloop
endfacet
facet normal 0 -0 1
 outer loop
  vertex -2.191 -0.271 7.938
  vertex -1.575 -0.195 7.938
  vertex -2.208 0 7.938
 endloop
endfacet
facet normal 0 0 1
 outer loop
  vertex -2.208 0 7.938
  vertex -1.575 -0.195 7.938
  vertex -1.587 0 7.938
 endloop
endfacet
facet normal -0 0 1
 outer loop
  vertex -2.208 0 7.938
  vertex -1.587 0 7.938
  vertex -1.575 0.195 7.938
 endloop
endfacet
facet normal 0 0 1
 outer loop
  vertex -2.208 0 7.938
  vertex -1.575 0.195 7.938
  vertex -2.191 0.271 7.938
 endloop
endfacet
facet normal -0 0 1
 outer loop
  vertex -2.191 0.271 7.938
  vertex -1.575 0.195 7.938
  vertex -1.54 0.387 7.938
 endloop
endfacet
facet normal 0 0 1
 outer loop
  vertex -2.191 0.271 7.938
  vertex -1.54 0.387 7.938
  vertex -2.141 0.539 7.938
 endloop
endfacet
facet normal -0 0 1
 outer loop
  vertex -2.141 0.539 7.938
  vertex -1.54 0.387 7.938
  vertex -1.48 0.573 7.938
 endloop
endfacet
facet normal 0 0 1
 outer loop
  vertex -2.141 0.539 7.938
  vertex -1.48 0.573 7.938
  vertex -2.059 0.798 7.938
 endloop
endfacet
facet normal 0 0 1
 outer loop
  vertex -2.059 0.798 7.938
  vertex -1.48 0.573 7.938
  vertex -1.399 0.751 7.938
 endloop
endfacet
facet normal -0 0 1
 outer loop
  vertex -2.059 0.798 7.938
  vertex -1.399 0.751 7.938
  vertex -1.945 1.045 7.938
 endloop
endfacet
facet normal 0 0 1
 outer loop
  vertex -1.945 1.045 7.938
  vertex -1.399 0.751 7.938
  vertex -1.296 0.917 7.938
 endloop
endfacet
facet normal -0 0 1
 outer loop
  vertex -1.945 1.045 7.938
  vertex -1.296 0.917 7.938
  vertex -1.802 1.276 7.938
 endloop
endfacet
facet normal 0 0 1
 outer loop
  vertex -1.802 1.276 7.938
  vertex -1.296 0.917 7.938
  vertex -1.173 1.069 7.938
 endloop
endfacet
facet normal -0 0 1
 outer loop
  vertex -1.802 1.276 7.938
  vertex -1.173 1.069 7.938
  vertex -1.632 1.488 7.938
 endloop
endfacet
facet normal 0 0 1
 outer loop
  vertex -1.632 1.488 7.938
  vertex -1.173 1.069 7.938
  vertex -1.033 1.206 7.938
 endloop
endfacet
facet normal -0 0 1
 outer loop
  vertex -1.632 1.488 7.938
  vertex -1.033 1.206 7.938
  vertex -1.437 1.677 7.938
 endloop
endfacet
facet normal 0 0 1
 outer loop
  vertex -1.437 1.677 7.938
  vertex -1.033 1.206 7.938
  vertex -0.877 1.323 7.938
 endloop
endfacet
facet normal -0 0 1
 outer loop
  vertex -1.437 1.677 7.938
  vertex -0.877 1.323 7.938
  vertex -1.22 1.841 7.938
 endloop
endfacet
facet normal 0 0 1
 outer loop
  vertex -1.22 1.841 7.938
  vertex -0.877 1.323 7.938
  vertex -0.708 1.421 7.938
 endloop
endfacet
facet normal -0 0 1
 outer loop
  vertex -1.22 1.841 7.938
  vertex -0.708 1.421 7.938
  vertex -0.984 1.977 7.938
 endloop
endfacet
facet normal 0 0 1
 outer loop
  vertex -0.984 1.977 7.938
  vertex -0.708 1.421 7.938
  vertex -0.528 1.497 7.938
 endloop
endfacet
facet normal -0 0 1
 outer loop
  vertex -0.984 1.977 7.938
  vertex -0.528 1.497 7.938
  vertex -0.734 2.083 7.938
 endloop
endfacet
facet normal 0 0 1
 outer loop
  vertex -0.734 2.083 7.938
  vertex -0.528 1.497 7.938
  vertex -0.34 1.551 7.938
 endloop
endfacet
facet normal -0 0 1
 outer loop
  vertex -0.734 2.083 7.938
  vertex -0.34 1.551 7.938
  vertex -0.472 2.157 7.938
 endloop
endfacet
facet normal 0 0 1
 outer loop
  vertex -0.472 2.157 7.938
  vertex -0.34 1.551 7.938
  vertex -0.146 1.581 7.938
 endloop
endfacet
facet normal -0 0 1
 outer loop
  vertex -0.472 2.157 7.938
  vertex -0.146 1.581 7.938
  vertex -0.204 2.199 7.938
 endloop
endfacet
facet normal 0 0 1
 outer loop
  vertex -0.204 2.199 7.938
  vertex -0.146 1.581 7.938
  vertex 0.049 1.587 7.938
 endloop
endfacet
facet normal -1 0.031 0
 outer loop
  vertex 1.584 -0.098 0.5
  vertex 1.584 -0.098 7.938
  vertex 1.587 0 0.5
 endloop
endfacet
facet normal -1 0.031 0
 outer loop
  vertex 1.587 0 0.5
  vertex 1.584 -0.098 7.938
  vertex 1.587 0 7.938
 endloop
endfacet
facet normal -1 -0.031 0
 outer loop
  vertex 1.587 0 0.5
  vertex 1.587 0 7.938
  vertex 1.584 0.098 0.5
 endloop
endfacet
facet normal -1 -0.031 0
 outer loop
  vertex 1.584 0.098 0.5
  vertex 1.587 0 7.938
  vertex 1.584 0.098 7.938
 endloop
endfacet
facet normal -0.992 -0.123 0
 outer loop
  vertex 1.584 0.098 0.5
  vertex 1.584 0.098 7.938
  vertex 1.56 0.292 0.5
 endloop
endfacet
facet normal -0.992 -0.123 0
 outer loop
  vertex 1.56 0.292 0.5
  vertex 1.584 0.098 7.938
  vertex 1.56 0.292 7.938
 endloop
endfacet
facet normal -0.97 -0.244 0
 outer loop
  vertex 1.56 0.292 0.5
  vertex 1.56 0.292 7.938
  vertex 1.513 0.481 0.5
 endloop
endfacet
facet normal -0.97 -0.244 0
 outer loop
  vertex 1.513 0.481 0.5
  vertex 1.56 0.292 7.938
  vertex 1.513 0.481 7.938
 endloop
endfacet
facet normal -0.932 -0.361 0
 outer loop
  vertex 1.513 0.481 0.5
  vertex 1.513 0.481 7.938
  vertex 1.442 0.664 0.5
 endloop
endfacet
facet normal -0.932 -0.361 0
 outer loop
  vertex 1.442 0.664 0.5
  vertex 1.513 0.481 7.938
  vertex 1.442 0.664 7.938
 endloop
endfacet
facet normal -0.881 -0.473 0
 outer loop
  vertex 1.442 0.664 0.5
  vertex 1.442 0.664 7.938
  vertex 1.35 0.836 0.5
 endloop
endfacet
facet normal -0.881 -0.473 0
 outer loop
  vertex 1.35 0.836 0.5
  vertex 1.442 0.664 7.938
  vertex 1.35 0.836 7.938
 endloop
endfacet
facet normal -0.816 -0.578 0
 outer loop
  vertex 1.35 0.836 0.5
  vertex 1.35 0.836 7.938
  vertex 1.237 0.995 0.5
 endloop
endfacet
facet normal -0.816 -0.578 0
 outer loop
  vertex 1.237 0.995 0.5
  vertex 1.35 0.836 7.938
  vertex 1.237 0.995 7.938
 endloop
endfacet
facet normal -0.739 -0.674 0
 outer loop
  vertex 1.237 0.995 0.5
  vertex 1.237 0.995 7.938
  vertex 1.105 1.14 0.5
 endloop
endfacet
facet normal -0.739 -0.674 0
 outer loop
  vertex 1.105 1.14 0.5
  vertex 1.237 0.995 7.938
  vertex 1.105 1.14 7.938
 endloop
endfacet
facet normal -0.651 -0.759 0
 outer loop
  vertex 1.105 1.14 0.5
  vertex 1.105 1.14 7.938
  vertex 0.957 1.267 0.5
 endloop
endfacet
facet normal -0.651 -0.759 0
 outer loop
  vertex 0.957 1.267 0.5
  vertex 1.105 1.14 7.938
  vertex 0.957 1.267 7.938
 endloop
endfacet
facet normal -0.552 -0.834 0
 outer loop
  vertex 0.957 1.267 0.5
  vertex 0.957 1.267 7.938
  vertex 0.794 1.375 0.5
 endloop
endfacet
facet normal -0.552 -0.834 0
 outer loop
  vertex 0.794 1.375 0.5
  vertex 0.957 1.267 7.938
  vertex 0.794 1.375 7.938
 endloop
endfacet
facet normal -0.446 -0.895 0
 outer loop
  vertex 0.794 1.375 0.5
  vertex 0.794 1.375 7.938
  vertex 0.619 1.462 0.5
 endloop
endfacet
facet normal -0.446 -0.895 0
 outer loop
  vertex 0.619 1.462 0.5
  vertex 0.794 1.375 7.938
  vertex 0.619 1.462 7.938
 endloop
endfacet
facet normal -0.332 -0.943 0
 outer loop
  vertex 0.619 1.462 0.5
  vertex 0.619 1.462 7.938
  vertex 0.434 1.527 0.5
 endloop
endfacet
facet normal -0.332 -0.943 0
 outer loop
  vertex 0.434 1.527 0.5
  vertex 0.619 1.462 7.938
  vertex 0.434 1.527 7.938
 endloop
endfacet
facet normal -0.214 -0.977 0
 outer loop
  vertex 0.434 1.527 0.5
  vertex 0.434 1.527 7.938
  vertex 0.244 1.569 0.5
 endloop
endfacet
facet normal -0.214 -0.977 0
 outer loop
  vertex 0.244 1.569 0.5
  vertex 0.434 1.527 7.938
  vertex 0.244 1.569 7.938
 endloop
endfacet
facet normal -0.092 -0.996 0
 outer loop
  vertex 0.244 1.569 0.5
  vertex 0.244 1.569 7.938
  vertex 0.049 1.587 0.5
 endloop
endfacet
facet normal -0.092 -0.996 0
 outer loop
  vertex 0.049 1.587 0.5
  vertex 0.244 1.569 7.938
  vertex 0.049 1.587 7.938
 endloop
endfacet
facet normal 0.031 -1 0
 outer loop
  vertex 0.049 1.587 0.5
  vertex 0.049 1.587 7.938
  vertex -0.146 1.581 0.5
 endloop
endfacet
facet normal 0.031 -1 0
 outer loop
  vertex -0.146 1.581 0.5
  vertex 0.049 1.587 7.938
  vertex -0.146 1.581 7.938
 endloop
endfacet
facet normal 0.153 -0.988 0
 outer loop
  vertex -0.146 1.581 0.5
  vertex -0.146 1.581 7.938
  vertex -0.34 1.551 0.5
 endloop
endfacet
facet normal 0.153 -0.988 0
 outer loop
  vertex -0.34 1.551 0.5
  vertex -0.146 1.581 7.938
  vertex -0.34 1.551 7.938
 endloop
endfacet
facet normal 0.274 -0.962 0
 outer loop
  vertex -0.34 1.551 0.5
  vertex -0.34 1.551 7.938
  vertex -0.528 1.497 0.5
 endloop
endfacet
facet normal 0.274 -0.962 0
 outer loop
  vertex -0.528 1.497 0.5
  vertex -0.34 1.551 7.938
  vertex -0.528 1.497 7.938
 endloop
endfacet
facet normal 0.39 -0.921 0
 outer loop
  vertex -0.528 1.497 0.5
  vertex -0.528 1.497 7.938
  vertex -0.708 1.421 0.5
 endloop
endfacet
facet normal 0.39 -0.921 0
 outer loop
  vertex -0.708 1.421 0.5
  vertex -0.528 1.497 7.938
  vertex -0.708 1.421 7.938
 endloop
endfacet
facet normal 0.5 -0.866 0
 outer loop
  vertex -0.708 1.421 0.5
  vertex -0.708 1.421 7.938
  vertex -0.877 1.323 0.5
 endloop
endfacet
facet normal 0.5 -0.866 0
 outer loop
  vertex -0.877 1.323 0.5
  vertex -0.708 1.421 7.938
  vertex -0.877 1.323 7.938
 endloop
endfacet
facet normal 0.603 -0.798 0
 outer loop
  vertex -0.877 1.323 0.5
  vertex -0.877 1.323 7.938
  vertex -1.033 1.206 0.5
 endloop
endfacet
facet normal 0.603 -0.798 0
 outer loop
  vertex -1.033 1.206 0.5
  vertex -0.877 1.323 7.938
  vertex -1.033 1.206 7.938
 endloop
endfacet
facet normal 0.696 -0.718 0
 outer loop
  vertex -1.033 1.206 0.5
  vertex -1.033 1.206 7.938
  vertex -1.173 1.069 0.5
 endloop
endfacet
facet normal 0.696 -0.718 0
 outer loop
  vertex -1.173 1.069 0.5
  vertex -1.033 1.206 7.938
  vertex -1.173 1.069 7.938
 endloop
endfacet
facet normal 0.779 -0.627 0
 outer loop
  vertex -1.173 1.069 0.5
  vertex -1.173 1.069 7.938
  vertex -1.296 0.917 0.5
 endloop
endfacet
facet normal 0.779 -0.627 0
 outer loop
  vertex -1.296 0.917 0.5
  vertex -1.173 1.069 7.938
  vertex -1.296 0.917 7.938
 endloop
endfacet
facet normal 0.85 -0.526 0
 outer loop
  vertex -1.296 0.917 0.5
  vertex -1.296 0.917 7.938
  vertex -1.399 0.751 0.5
 endloop
endfacet
facet normal 0.85 -0.526 0
 outer loop
  vertex -1.399 0.751 0.5
  vertex -1.296 0.917 7.938
  vertex -1.399 0.751 7.938
 endloop
endfacet
facet normal 0.908 -0.418 0
 outer loop
  vertex -1.399 0.751 0.5
  vertex -1.399 0.751 7.938
  vertex -1.48 0.573 0.5
 endloop
endfacet
facet normal 0.908 -0.418 0
 outer loop
  vertex -1.48 0.573 0.5
  vertex -1.399 0.751 7.938
  vertex -1.48 0.573 7.938
 endloop
endfacet
facet normal 0.953 -0.303 0
 outer loop
  vertex -1.48 0.573 0.5
  vertex -1.48 0.573 7.938
  vertex -1.54 0.387 0.5
 endloop
endfacet
facet normal 0.953 -0.303 0
 outer loop
  vertex -1.54 0.387 0.5
  vertex -1.48 0.573 7.938
  vertex -1.54 0.387 7.938
 endloop
endfacet
facet normal 0.983 -0.184 0
 outer loop
  vertex -1.54 0.387 0.5
  vertex -1.54 0.387 7.938
  vertex -1.575 0.195 0.5
 endloop
endfacet
facet normal 0.983 -0.184 0
 outer loop
  vertex -1.575 0.195 0.5
  vertex -1.54 0.387 7.938
  vertex -1.575 0.195 7.938
 endloop
endfacet
facet normal 0.998 -0.062 0
 outer loop
  vertex -1.575 0.195 0.5
  vertex -1.575 0.195 7.938
  vertex -1.587 0 0.5
 endloop
endfacet
facet normal 0.998 -0.062 0
 outer loop
  vertex -1.587 0 0.5
  vertex -1.575 0.195 7.938
  vertex -1.587 0 7.938
 endloop
endfacet
facet normal 0.998 0.062 -0
 outer loop
  vertex -1.587 0 0.5
  vertex -1.587 0 7.938
  vertex -1.575 -0.195 0.5
 endloop
endfacet
facet normal 0.998 0.062 -0
 outer loop
  vertex -1.575 -0.195 0.5
  vertex -1.587 0 7.938
  vertex -1.575 -0.195 7.938
 endloop
endfacet
facet normal 0.983 0.184 -0
 outer loop
  vertex -1.575 -0.195 0.5
  vertex -1.575 -0.195 7.938
  vertex -1.54 -0.387 0.5
 endloop
endfacet
facet normal 0.983 0.184 -0
 outer loop
  vertex -1.54 -0.387 0.5
  vertex -1.575 -0.195 7.938
  vertex -1.54 -0.387 7.938
 endloop
endfacet
facet normal 0.953 0.303 -0
 outer loop
  vertex -1.54 -0.387 0.5
  vertex -1.54 -0.387 7.938
  vertex -1.48 -0.573 0.5
 endloop
endfacet
facet normal 0.953 0.303 -0
 outer loop
  vertex -1.48 -0.573 0.5
  vertex -1.54 -0.387 7.938
  vertex -1.48 -0.573 7.938
 endloop
endfacet
facet normal 0.908 0.418 -0
 outer loop
  vertex -1.48 -0.573 0.5
  vertex -1.48 -0.573 7.938
  vertex -1.399 -0.751 0.5
 endloop
endfacet
facet normal 0.908 0.418 -0
 outer loop
  vertex -1.399 -0.751 0.5
  vertex -1.48 -0.573 7.938
  vertex -1.399 -0.751 7.938
 endloop
endfacet
facet normal 0.85 0.526 -0
 outer loop
  vertex -1.399 -0.751 0.5
  vertex -1.399 -0.751 7.938
  vertex -1.296 -0.917 0.5
 endloop
endfacet
facet normal 0.85 0.526 -0
 outer loop
  vertex -1.296 -0.917 0.5
  vertex -1.399 -0.751 7.938
  vertex -1.296 -0.917 7.938
 endloop
endfacet
facet normal 0.779 0.627 -0
 outer loop
  vertex -1.296 -0.917 0.5
  vertex -1.296 -0.917 7.938
  vertex -1.173 -1.069 0.5
 endloop
endfacet
facet normal 0.779 0.627 -0
 outer loop
  vertex -1.173 -1.069 0.5
  vertex -1.296 -0.917 7.938
  vertex -1.173 -1.069 7.938
 endloop
endfacet
facet normal 0.696 0.718 -0
 outer loop
  vertex -1.173 -1.069 0.5
  vertex -1.173 -1.069 7.938
  vertex -1.033 -1.206 0.5
 endloop
endfacet
facet normal 0.696 0.718 -0
 outer loop
  vertex -1.033 -1.206 0.5
  vertex -1.173 -1.069 7.938
  vertex -1.033 -1.206 7.938
 endloop
endfacet
facet normal 0.603 0.798 -0
 outer loop
  vertex -1.033 -1.206 0.5
  vertex -1.033 -1.206 7.938
  vertex -0.877 -1.323 0.5
 endloop
endfacet
facet normal 0.603 0.798 -0
 outer loop
  vertex -0.877 -1.323 0.5
  vertex -1.033 -1.206 7.938
  vertex -0.877 -1.323 7.938
 endloop
endfacet
facet normal 0.5 0.866 -0
 outer loop
  vertex -0.877 -1.323 0.5
  vertex -0.877 -1.323 7.938
  vertex -0.708 -1.421 0.5
 endloop
endfacet
facet normal 0.5 0.866 -0
 outer loop
  vertex -0.708 -1.421 0.5
  vertex -0.877 -1.323 7.938
  vertex -0.708 -1.421 7.938
 endloop
endfacet
facet normal 0.39 0.921 -0
 outer loop
  vertex -0.708 -1.421 0.5
  vertex -0.708 -1.421 7.938
  vertex -0.528 -1.497 0.5
 endloop
endfacet
facet normal 0.39 0.921 -0
 outer loop
  vertex -0.528 -1.497 0.5
  vertex -0.708 -1.421 7.938
  vertex -0.528 -1.497 7.938
 endloop
endfacet
facet normal 0.274 0.962 -0
 outer loop
  vertex -0.528 -1.497 0.5
  vertex -0.528 -1.497 7.938
  vertex -0.34 -1.551 0.5
 endloop
endfacet
facet normal 0.274 0.962 -0
 outer loop
  vertex -0.34 -1.551 0.5
  vertex -0.528 -1.497 7.938
  vertex -0.34 -1.551 7.938
 endloop
endfacet
facet normal 0.153 0.988 -0
 outer loop
  vertex -0.34 -1.551 0.5
  vertex -0.34 -1.551 7.938
  vertex -0.146 -1.581 0.5
 endloop
endfacet
facet normal 0.153 0.988 -0
 outer loop
  vertex -0.146 -1.581 0.5
  vertex -0.34 -1.551 7.938
  vertex -0.146 -1.581 7.938
 endloop
endfacet
facet normal 0.031 1 -0
 outer loop
  vertex -0.146 -1.581 0.5
  vertex -0.146 -1.581 7.938
  vertex 0.049 -1.587 0.5
 endloop
endfacet
facet normal 0.031 1 -0
 outer loop
  vertex 0.049 -1.587 0.5
  vertex -0.146 -1.581 7.938
  vertex 0.049 -1.587 7.938
 endloop
endfacet
facet normal -0.092 0.996 0
 outer loop
  vertex 0.049 -1.587 0.5
  vertex 0.049 -1.587 7.938
  vertex 0.244 -1.569 0.5
 endloop
endfacet
facet normal -0.092 0.996 0
 outer loop
  vertex 0.244 -1.569 0.5
  vertex 0.049 -1.587 7.938
  vertex 0.244 -1.569 7.938
 endloop
endfacet
facet normal -0.214 0.977 0
 outer loop
  vertex 0.244 -1.569 0.5
  vertex 0.244 -1.569 7.938
  vertex 0.434 -1.527 0.5
 endloop
endfacet
facet normal -0.214 0.977 0
 outer loop
  vertex 0.434 -1.527 0.5
  vertex 0.244 -1.569 7.938
  vertex 0.434 -1.527 7.938
 endloop
endfacet
facet normal -0.332 0.943 0
 outer loop
  vertex 0.434 -1.527 0.5
  vertex 0.434 -1.527 7.938
  vertex 0.619 -1.462 0.5
 endloop
endfacet
facet normal -0.332 0.943 0
 outer loop
  vertex 0.619 -1.462 0.5
  vertex 0.434 -1.527 7.938
  vertex 0.619 -1.462 7.938
 endloop
endfacet
facet normal -0.446 0.895 0
 outer loop
  vertex 0.619 -1.462 0.5
  vertex 0.619 -1.462 7.938
  vertex 0.794 -1.375 0.5
 endloop
endfacet
facet normal -0.446 0.895 0
 outer loop
  vertex 0.794 -1.375 0.5
  vertex 0.619 -1.462 7.938
  vertex 0.794 -1.375 7.938
 endloop
endfacet
facet normal -0.552 0.834 0
 outer loop
  vertex 0.794 -1.375 0.5
  vertex 0.794 -1.375 7.938
  vertex 0.957 -1.267 0.5
 endloop
endfacet
facet normal -0.552 0.834 0
 outer loop
  vertex 0.957 -1.267 0.5
  vertex 0.794 -1.375 7.938
  vertex 0.957 -1.267 7.938
 endloop
endfacet
facet normal -0.651 0.759 0
 outer loop
  vertex 0.957 -1.267 0.5
  vertex 0.957 -1.267 7.938
  vertex 1.105 -1.14 0.5
 endloop
endfacet
facet normal -0.651 0.759 0
 outer loop
  vertex 1.105 -1.14 0.5
  vertex 0.957 -1.267 7.938
  vertex 1.105 -1.14 7.938
 endloop
endfacet
facet normal -0.739 0.674 0
 outer loop
  vertex 1.105 -1.14 0.5
  vertex 1.105 -1.14 7.938
  vertex 1.237 -0.995 0.5
 endloop
endfacet
facet normal -0.739 0.674 0
 outer loop
  vertex 1.237 -0.995 0.5
  vertex 1.105 -1.14 7.938
  vertex 1.237 -0.995 7.938
 endloop
endfacet
facet normal -0.816 0.578 0
 outer loop
  vertex 1.237 -0.995 0.5
  vertex 1.237 -0.995 7.938
  vertex 1.35 -0.836 0.5
 endloop
endfacet
facet normal -0.816 0.578 0
 outer loop
  vertex 1.35 -0.836 0.5
  vertex 1.237 -0.995 7.938
  vertex 1.35 -0.836 7.938
 endloop
endfacet
facet normal -0.881 0.473 0
 outer loop
  vertex 1.35 -0.836 0.5
  vertex 1.35 -0.836 7.938
  vertex 1.442 -0.664 0.5
 endloop
endfacet
facet normal -0.881 0.473 0
 outer loop
  vertex 1.442 -0.664 0.5
  vertex 1.35 -0.836 7.938
  vertex 1.442 -0.664 7.938
 endloop
endfacet
facet normal -0.932 0.361 0
 outer loop
  vertex 1.442 -0.664 0.5
  vertex 1.442 -0.664 7.938
  vertex 1.513 -0.481 0.5
 endloop
endfacet
facet normal -0.932 0.361 0
 outer loop
  vertex 1.513 -0.481 0.5
  vertex 1.442 -0.664 7.938
  vertex 1.513 -0.481 7.938
 endloop
endfacet
facet normal -0.97 0.244 0
 outer loop
  vertex 1.513 -0.481 0.5
  vertex 1.513 -0.481 7.938
  vertex 1.56 -0.292 0.5
 endloop
endfacet
facet normal -0.97 0.244 0
 outer loop
  vertex 1.56 -0.292 0.5
  vertex 1.513 -0.481 7.938
  vertex 1.56 -0.292 7.938
 endloop
endfacet
facet normal -0.992 0.123 0
 outer loop
  vertex 1.56 -0.292 0.5
  vertex 1.56 -0.292 7.938
  vertex 1.584 -0.098 0.5
 endloop
endfacet
facet normal -0.992 0.123 0
 outer loop
  vertex 1.584 -0.098 0.5
  vertex 1.56 -0.292 7.938
  vertex 1.584 -0.098 7.938
 endloop
endfacet
facet normal -0.866 0.027 -0.5
 outer loop
  vertex 1.873 -0.115 0
  vertex 1.584 -0.098 0.5
  vertex 1.876 0 0
 endloop
endfacet
facet normal -0.866 0.027 -0.5
 outer loop
  vertex 1.876 0 0
  vertex 1.584 -0.098 0.5
  vertex 1.587 0 0.5
 endloop
endfacet
facet normal -0.866 -0.027 -0.5
 outer loop
  vertex 1.876 0 0
  vertex 1.587 0 0.5
  vertex 1.873 0.115 0
 endloop
endfacet
facet normal -0.866 -0.027 -0.5
 outer loop
  vertex 1.873 0.115 0
  vertex 1.587 0 0.5
  vertex 1.584 0.098 0.5
 endloop
endfacet
facet normal -0.86 -0.106 -0.499
 outer loop
  vertex 1.873 0.115 0
  vertex 1.584 0.098 0.5
  vertex 1.844 0.345 0
 endloop
endfacet
facet normal -0.86 -0.106 -0.499
 outer loop
  vertex 1.844 0.345 0
  vertex 1.584 0.098 0.5
  vertex 1.56 0.292 0.5
 endloop
endfacet
facet normal -0.84 -0.211 -0.499
 outer loop
  vertex 1.844 0.345 0
  vertex 1.56 0.292 0.5
  vertex 1.788 0.569 0
 endloop
endfacet
facet normal -0.84 -0.211 -0.499
 outer loop
  vertex 1.788 0.569 0
  vertex 1.56 0.292 0.5
  vertex 1.513 0.481 0.5
 endloop
endfacet
facet normal -0.808 -0.313 -0.499
 outer loop
  vertex 1.788 0.569 0
  vertex 1.513 0.481 0.5
  vertex 1.704 0.784 0
 endloop
endfacet
facet normal -0.808 -0.313 -0.499
 outer loop
  vertex 1.704 0.784 0
  vertex 1.513 0.481 0.5
  vertex 1.442 0.664 0.5
 endloop
endfacet
facet normal -0.763 -0.41 -0.499
 outer loop
  vertex 1.704 0.784 0
  vertex 1.442 0.664 0.5
  vertex 1.595 0.988 0
 endloop
endfacet
facet normal -0.763 -0.41 -0.499
 outer loop
  vertex 1.595 0.988 0
  vertex 1.442 0.664 0.5
  vertex 1.35 0.836 0.5
 endloop
endfacet
facet normal -0.707 -0.501 -0.499
 outer loop
  vertex 1.595 0.988 0
  vertex 1.35 0.836 0.5
  vertex 1.462 1.176 0
 endloop
endfacet
facet normal -0.707 -0.501 -0.499
 outer loop
  vertex 1.462 1.176 0
  vertex 1.35 0.836 0.5
  vertex 1.237 0.995 0.5
 endloop
endfacet
facet normal -0.64 -0.584 -0.499
 outer loop
  vertex 1.462 1.176 0
  vertex 1.237 0.995 0.5
  vertex 1.306 1.347 0
 endloop
endfacet
facet normal -0.64 -0.584 -0.499
 outer loop
  vertex 1.306 1.347 0
  vertex 1.237 0.995 0.5
  vertex 1.105 1.14 0.5
 endloop
endfacet
facet normal -0.564 -0.658 -0.499
 outer loop
  vertex 1.306 1.347 0
  vertex 1.105 1.14 0.5
  vertex 1.131 1.497 0
 endloop
endfacet
facet normal -0.564 -0.658 -0.499
 outer loop
  vertex 1.131 1.497 0
  vertex 1.105 1.14 0.5
  vertex 0.957 1.267 0.5
 endloop
endfacet
facet normal -0.479 -0.722 -0.499
 outer loop
  vertex 1.131 1.497 0
  vertex 0.957 1.267 0.5
  vertex 0.938 1.625 0
 endloop
endfacet
facet normal -0.479 -0.722 -0.499
 outer loop
  vertex 0.938 1.625 0
  vertex 0.957 1.267 0.5
  vertex 0.794 1.375 0.5
 endloop
endfacet
facet normal -0.386 -0.776 -0.499
 outer loop
  vertex 0.938 1.625 0
  vertex 0.794 1.375 0.5
  vertex 0.731 1.728 0
 endloop
endfacet
facet normal -0.386 -0.776 -0.499
 outer loop
  vertex 0.731 1.728 0
  vertex 0.794 1.375 0.5
  vertex 0.619 1.462 0.5
 endloop
endfacet
facet normal -0.288 -0.817 -0.499
 outer loop
  vertex 0.731 1.728 0
  vertex 0.619 1.462 0.5
  vertex 0.513 1.805 0
 endloop
endfacet
facet normal -0.288 -0.817 -0.499
 outer loop
  vertex 0.513 1.805 0
  vertex 0.619 1.462 0.5
  vertex 0.434 1.527 0.5
 endloop
endfacet
facet normal -0.185 -0.846 -0.499
 outer loop
  vertex 0.513 1.805 0
  vertex 0.434 1.527 0.5
  vertex 0.288 1.854 0
 endloop
endfacet
facet normal -0.185 -0.846 -0.499
 outer loop
  vertex 0.288 1.854 0
  vertex 0.434 1.527 0.5
  vertex 0.244 1.569 0.5
 endloop
endfacet
facet normal -0.08 -0.863 -0.499
 outer loop
  vertex 0.288 1.854 0
  vertex 0.244 1.569 0.5
  vertex 0.058 1.875 0
 endloop
endfacet
facet normal -0.08 -0.863 -0.499
 outer loop
  vertex 0.058 1.875 0
  vertex 0.244 1.569 0.5
  vertex 0.049 1.587 0.5
 endloop
endfacet
facet normal 0.027 -0.866 -0.499
 outer loop
  vertex 0.058 1.875 0
  vertex 0.049 1.587 0.5
  vertex -0.173 1.868 0
 endloop
endfacet
facet normal 0.027 -0.866 -0.499
 outer loop
  vertex -0.173 1.868 0
  vertex 0.049 1.587 0.5
  vertex -0.146 1.581 0.5
 endloop
endfacet
facet normal 0.133 -0.856 -0.499
 outer loop
  vertex -0.173 1.868 0
  vertex -0.146 1.581 0.5
  vertex -0.401 1.833 0
 endloop
endfacet
facet normal 0.133 -0.856 -0.499
 outer loop
  vertex -0.401 1.833 0
  vertex -0.146 1.581 0.5
  vertex -0.34 1.551 0.5
 endloop
endfacet
facet normal 0.237 -0.833 -0.499
 outer loop
  vertex -0.401 1.833 0
  vertex -0.34 1.551 0.5
  vertex -0.624 1.77 0
 endloop
endfacet
facet normal 0.237 -0.833 -0.499
 outer loop
  vertex -0.624 1.77 0
  vertex -0.34 1.551 0.5
  vertex -0.528 1.497 0.5
 endloop
endfacet
facet normal 0.338 -0.798 -0.499
 outer loop
  vertex -0.624 1.77 0
  vertex -0.528 1.497 0.5
  vertex -0.836 1.679 0
 endloop
endfacet
facet normal 0.338 -0.798 -0.499
 outer loop
  vertex -0.836 1.679 0
  vertex -0.528 1.497 0.5
  vertex -0.708 1.421 0.5
 endloop
endfacet
facet normal 0.433 -0.75 -0.499
 outer loop
  vertex -0.836 1.679 0
  vertex -0.708 1.421 0.5
  vertex -1.036 1.564 0
 endloop
endfacet
facet normal 0.433 -0.75 -0.499
 outer loop
  vertex -1.036 1.564 0
  vertex -0.708 1.421 0.5
  vertex -0.877 1.323 0.5
 endloop
endfacet
facet normal 0.522 -0.691 -0.499
 outer loop
  vertex -1.036 1.564 0
  vertex -0.877 1.323 0.5
  vertex -1.221 1.425 0
 endloop
endfacet
facet normal 0.522 -0.691 -0.499
 outer loop
  vertex -1.221 1.425 0
  vertex -0.877 1.323 0.5
  vertex -1.033 1.206 0.5
 endloop
endfacet
facet normal 0.603 -0.622 -0.499
 outer loop
  vertex -1.221 1.425 0
  vertex -1.033 1.206 0.5
  vertex -1.387 1.264 0
 endloop
endfacet
facet normal 0.603 -0.622 -0.499
 outer loop
  vertex -1.387 1.264 0
  vertex -1.033 1.206 0.5
  vertex -1.173 1.069 0.5
 endloop
endfacet
facet normal 0.675 -0.543 -0.499
 outer loop
  vertex -1.387 1.264 0
  vertex -1.173 1.069 0.5
  vertex -1.531 1.084 0
 endloop
endfacet
facet normal 0.675 -0.543 -0.499
 outer loop
  vertex -1.531 1.084 0
  vertex -1.173 1.069 0.5
  vertex -1.296 0.917 0.5
 endloop
endfacet
facet normal 0.737 -0.456 -0.499
 outer loop
  vertex -1.531 1.084 0
  vertex -1.296 0.917 0.5
  vertex -1.653 0.888 0
 endloop
endfacet
facet normal 0.737 -0.456 -0.499
 outer loop
  vertex -1.653 0.888 0
  vertex -1.296 0.917 0.5
  vertex -1.399 0.751 0.5
 endloop
endfacet
facet normal 0.787 -0.362 -0.499
 outer loop
  vertex -1.653 0.888 0
  vertex -1.399 0.751 0.5
  vertex -1.749 0.678 0
 endloop
endfacet
facet normal 0.787 -0.362 -0.499
 outer loop
  vertex -1.749 0.678 0
  vertex -1.399 0.751 0.5
  vertex -1.48 0.573 0.5
 endloop
endfacet
facet normal 0.826 -0.263 -0.499
 outer loop
  vertex -1.749 0.678 0
  vertex -1.48 0.573 0.5
  vertex -1.82 0.458 0
 endloop
endfacet
facet normal 0.826 -0.263 -0.499
 outer loop
  vertex -1.82 0.458 0
  vertex -1.48 0.573 0.5
  vertex -1.54 0.387 0.5
 endloop
endfacet
facet normal 0.852 -0.159 -0.499
 outer loop
  vertex -1.82 0.458 0
  vertex -1.54 0.387 0.5
  vertex -1.862 0.231 0
 endloop
endfacet
facet normal 0.852 -0.159 -0.499
 outer loop
  vertex -1.862 0.231 0
  vertex -1.54 0.387 0.5
  vertex -1.575 0.195 0.5
 endloop
endfacet
facet normal 0.865 -0.053 -0.499
 outer loop
  vertex -1.862 0.231 0
  vertex -1.575 0.195 0.5
  vertex -1.876 0 0
 endloop
endfacet
facet normal 0.865 -0.053 -0.499
 outer loop
  vertex -1.876 0 0
  vertex -1.575 0.195 0.5
  vertex -1.587 0 0.5
 endloop
endfacet
facet normal 0.865 0.053 -0.499
 outer loop
  vertex -1.876 0 0
  vertex -1.587 0 0.5
  vertex -1.862 -0.231 0
 endloop
endfacet
facet normal 0.865 0.053 -0.499
 outer loop
  vertex -1.862 -0.231 0
  vertex -1.587 0 0.5
  vertex -1.575 -0.195 0.5
 endloop
endfacet
facet normal 0.852 0.159 -0.499
 outer loop
  vertex -1.862 -0.231 0
  vertex -1.575 -0.195 0.5
  vertex -1.82 -0.458 0
 endloop
endfacet
facet normal 0.852 0.159 -0.499
 outer loop
  vertex -1.82 -0.458 0
  vertex -1.575 -0.195 0.5
  vertex -1.54 -0.387 0.5
 endloop
endfacet
facet normal 0.826 0.263 -0.499
 outer loop
  vertex -1.82 -0.458 0
  vertex -1.54 -0.387 0.5
  vertex -1.749 -0.678 0
 endloop
endfacet
facet normal 0.826 0.263 -0.499
 outer loop
  vertex -1.749 -0.678 0
  vertex -1.54 -0.387 0.5
  vertex -1.48 -0.573 0.5
 endloop
endfacet
facet normal 0.787 0.362 -0.499
 outer loop
  vertex -1.749 -0.678 0
  vertex -1.48 -0.573 0.5
  vertex -1.653 -0.888 0
 endloop
endfacet
facet normal 0.787 0.362 -0.499
 outer loop
  vertex -1.653 -0.888 0
  vertex -1.48 -0.573 0.5
  vertex -1.399 -0.751 0.5
 endloop
endfacet
facet normal 0.737 0.456 -0.499
 outer loop
  vertex -1.653 -0.888 0
  vertex -1.399 -0.751 0.5
  vertex -1.531 -1.084 0
 endloop
endfacet
facet normal 0.737 0.456 -0.499
 outer loop
  vertex -1.531 -1.084 0
  vertex -1.399 -0.751 0.5
  vertex -1.296 -0.917 0.5
 endloop
endfacet
facet normal 0.675 0.543 -0.499
 outer loop
  vertex -1.531 -1.084 0
  vertex -1.296 -0.917 0.5
  vertex -1.387 -1.264 0
 endloop
endfacet
facet normal 0.675 0.543 -0.499
 outer loop
  vertex -1.387 -1.264 0
  vertex -1.296 -0.917 0.5
  vertex -1.173 -1.069 0.5
 endloop
endfacet
facet normal 0.603 0.622 -0.499
 outer loop
  vertex -1.387 -1.264 0
  vertex -1.173 -1.069 0.5
  vertex -1.221 -1.425 0
 endloop
endfacet
facet normal 0.603 0.622 -0.499
 outer loop
  vertex -1.221 -1.425 0
  vertex -1.173 -1.069 0.5
  vertex -1.033 -1.206 0.5
 endloop
endfacet
facet normal 0.522 0.691 -0.499
 outer loop
  vertex -1.221 -1.425 0
  vertex -1.033 -1.206 0.5
  vertex -1.036 -1.564 0
 endloop
endfacet
facet normal 0.522 0.691 -0.499
 outer loop
  vertex -1.036 -1.564 0
  vertex -1.033 -1.206 0.5
  vertex -0.877 -1.323 0.5
 endloop
endfacet
facet normal 0.433 0.75 -0.499
 outer loop
  vertex -1.036 -1.564 0
  vertex -0.877 -1.323 0.5
  vertex -0.836 -1.679 0
 endloop
endfacet
facet normal 0.433 0.75 -0.499
 outer loop
  vertex -0.836 -1.679 0
  vertex -0.877 -1.323 0.5
  vertex -0.708 -1.421 0.5
 endloop
endfacet
facet normal 0.338 0.798 -0.499
 outer loop
  vertex -0.836 -1.679 0
  vertex -0.708 -1.421 0.5
  vertex -0.624 -1.77 0
 endloop
endfacet
facet normal 0.338 0.798 -0.499
 outer loop
  vertex -0.624 -1.77 0
  vertex -0.708 -1.421 0.5
  vertex -0.528 -1.497 0.5
 endloop
endfacet
facet normal 0.237 0.833 -0.499
 outer loop
  vertex -0.624 -1.77 0
  vertex -0.528 -1.497 0.5
  vertex -0.401 -1.833 0
 endloop
endfacet
facet normal 0.237 0.833 -0.499
 outer loop
  vertex -0.401 -1.833 0
  vertex -0.528 -1.497 0.5
  vertex -0.34 -1.551 0.5
 endloop
endfacet
facet normal 0.133 0.856 -0.499
 outer loop
  vertex -0.401 -1.833 0
  vertex -0.34 -1.551 0.5
  vertex -0.173 -1.868 0
 endloop
endfacet
facet normal 0.133 0.856 -0.499
 outer loop
  vertex -0.173 -1.868 0
  vertex -0.34 -1.551 0.5
  vertex -0.146 -1.581 0.5
 endloop
endfacet
facet normal 0.027 0.866 -0.499
 outer loop
  vertex -0.173 -1.868 0
  vertex -0.146 -1.581 0.5
  vertex 0.058 -1.875 0
 endloop
endfacet
facet normal 0.027 0.866 -0.499
 outer loop
  vertex 0.058 -1.875 0
  vertex -0.146 -1.581 0.5
  vertex 0.049 -1.587 0.5
 endloop
endfacet
facet normal -0.08 0.863 -0.499
 outer loop
  vertex 0.058 -1.875 0
  vertex 0.049 -1.587 0.5
  vertex 0.288 -1.854 0
 endloop
endfacet
facet normal -0.08 0.863 -0.499
 outer loop
  vertex 0.288 -1.854 0
  vertex 0.049 -1.587 0.5
  vertex 0.244 -1.569 0.5
 endloop
endfacet
facet normal -0.185 0.846 -0.499
 outer loop
  vertex 0.288 -1.854 0
  vertex 0.244 -1.569 0.5
  vertex 0.513 -1.805 0
 endloop
endfacet
facet normal -0.185 0.846 -0.499
 outer loop
  vertex 0.513 -1.805 0
  vertex 0.244 -1.569 0.5
  vertex 0.434 -1.527 0.5
 endloop
endfacet
facet normal -0.288 0.817 -0.499
 outer loop
  vertex 0.513 -1.805 0
  vertex 0.434 -1.527 0.5
  vertex 0.731 -1.728 0
 endloop
endfacet
facet normal -0.288 0.817 -0.499
 outer loop
  vertex 0.731 -1.728 0
  vertex 0.434 -1.527 0.5
  vertex 0.619 -1.462 0.5
 endloop
endfacet
facet normal -0.386 0.776 -0.499
 outer loop
  vertex 0.731 -1.728 0
  vertex 0.619 -1.462 0.5
  vertex 0.938 -1.625 0
 endloop
endfacet
facet normal -0.386 0.776 -0.499
 outer loop
  vertex 0.938 -1.625 0
  vertex 0.619 -1.462 0.5
  vertex 0.794 -1.375 0.5
 endloop
endfacet
facet normal -0.479 0.722 -0.499
 outer loop
  vertex 0.938 -1.625 0
  vertex 0.794 -1.375 0.5
  vertex 1.131 -1.497 0
 endloop
endfacet
facet normal -0.479 0.722 -0.499
 outer loop
  vertex 1.131 -1.497 0
  vertex 0.794 -1.375 0.5
  vertex 0.957 -1.267 0.5
 endloop
endfacet
facet normal -0.564 0.658 -0.499
 outer loop
  vertex 1.131 -1.497 0
  vertex 0.957 -1.267 0.5
  vertex 1.306 -1.347 0
 endloop
endfacet
facet normal -0.564 0.658 -0.499
 outer loop
  vertex 1.306 -1.347 0
  vertex 0.957 -1.267 0.5
  vertex 1.105 -1.14 0.5
 endloop
endfacet
facet normal -0.64 0.584 -0.499
 outer loop
  vertex 1.306 -1.347 0
  vertex 1.105 -1.14 0.5
  vertex 1.462 -1.176 0
 endloop
endfacet
facet normal -0.64 0.584 -0.499
 outer loop
  vertex 1.462 -1.176 0
  vertex 1.105 -1.14 0.5
  vertex 1.237 -0.995 0.5
 endloop
endfacet
facet normal -0.707 0.501 -0.499
 outer loop
  vertex 1.462 -1.176 0
  vertex 1.237 -0.995 0.5
  vertex 1.595 -0.988 0
 endloop
endfacet
facet normal -0.707 0.501 -0.499
 outer loop
  vertex 1.595 -0.988 0
  vertex 1.237 -0.995 0.5
  vertex 1.35 -0.836 0.5
 endloop
endfacet
facet normal -0.763 0.41 -0.499
 outer loop
  vertex 1.595 -0.988 0
  vertex 1.35 -0.836 0.5
  vertex 1.704 -0.784 0
 endloop
endfacet
facet normal -0.763 0.41 -0.499
 outer loop
  vertex 1.704 -0.784 0
  vertex 1.35 -0.836 0.5
  vertex 1.442 -0.664 0.5
 endloop
endfacet
facet normal -0.808 0.313 -0.499
 outer loop
  vertex 1.704 -0.784 0
  vertex 1.442 -0.664 0.5
  vertex 1.788 -0.569 0
 endloop
endfacet
facet normal -0.808 0.313 -0.499
 outer loop
  vertex 1.788 -0.569 0
  vertex 1.442 -0.664 0.5
  vertex 1.513 -0.481 0.5
 endloop
endfacet
facet normal -0.84 0.211 -0.499
 outer loop
  vertex 1.788 -0.569 0
  vertex 1.513 -0.481 0.5
  vertex 1.844 -0.345 0
 endloop
endfacet
facet normal -0.84 0.211 -0.499
 outer loop
  vertex 1.844 -0.345 0
  vertex 1.513 -0.481 0.5
  vertex 1.56 -0.292 0.5
 endloop
endfacet
facet normal -0.86 0.106 -0.499
 outer loop
  vertex 1.844 -0.345 0
  vertex 1.56 -0.292 0.5
  vertex 1.873 -0.115 0
 endloop
endfacet
facet normal -0.86 0.106 -0.499
 outer loop
  vertex 1.873 -0.115 0
  vertex 1.56 -0.292 0.5
  vertex 1.584 -0.098 0.5
 endloop
endfacet
endsolid CADClick
