solid CADClick
facet normal 0 0 -1
 outer loop
  vertex 0.054 -1.749 0
  vertex 0.04 -1.288 0
  vertex 0.268 -1.729 0
 endloop
endfacet
facet normal 0 0 -1
 outer loop
  vertex 0.268 -1.729 0
  vertex 0.04 -1.288 0
  vertex 0.198 -1.273 0
 endloop
endfacet
facet normal 0 0 -1
 outer loop
  vertex 0.268 -1.729 0
  vertex 0.198 -1.273 0
  vertex 0.479 -1.683 0
 endloop
endfacet
facet normal 0 0 -1
 outer loop
  vertex 0.479 -1.683 0
  vertex 0.198 -1.273 0
  vertex 0.353 -1.239 0
 endloop
endfacet
facet normal 0 0 -1
 outer loop
  vertex 0.479 -1.683 0
  vertex 0.353 -1.239 0
  vertex 0.682 -1.612 0
 endloop
endfacet
facet normal 0 0 -1
 outer loop
  vertex 0.682 -1.612 0
  vertex 0.353 -1.239 0
  vertex 0.502 -1.187 0
 endloop
endfacet
facet normal 0 0 -1
 outer loop
  vertex 0.682 -1.612 0
  vertex 0.502 -1.187 0
  vertex 0.875 -1.516 0
 endloop
endfacet
facet normal 0 0 -1
 outer loop
  vertex 0.875 -1.516 0
  vertex 0.502 -1.187 0
  vertex 0.644 -1.116 0
 endloop
endfacet
facet normal 0 0 -1
 outer loop
  vertex 0.875 -1.516 0
  vertex 0.644 -1.116 0
  vertex 1.055 -1.397 0
 endloop
endfacet
facet normal 0 0 -1
 outer loop
  vertex 1.055 -1.397 0
  vertex 0.644 -1.116 0
  vertex 0.777 -1.028 0
 endloop
endfacet
facet normal 0 0 -1
 outer loop
  vertex 1.055 -1.397 0
  vertex 0.777 -1.028 0
  vertex 1.218 -1.256 0
 endloop
endfacet
facet normal 0 0 -1
 outer loop
  vertex 1.218 -1.256 0
  vertex 0.777 -1.028 0
  vertex 0.897 -0.925 0
 endloop
endfacet
facet normal 0 0 -1
 outer loop
  vertex 1.218 -1.256 0
  vertex 0.897 -0.925 0
  vertex 1.363 -1.097 0
 endloop
endfacet
facet normal 0 0 -1
 outer loop
  vertex 1.363 -1.097 0
  vertex 0.897 -0.925 0
  vertex 1.004 -0.808 0
 endloop
endfacet
facet normal 0 0 -1
 outer loop
  vertex 1.363 -1.097 0
  vertex 1.004 -0.808 0
  vertex 1.488 -0.921 0
 endloop
endfacet
facet normal 0 0 -1
 outer loop
  vertex 1.488 -0.921 0
  vertex 1.004 -0.808 0
  vertex 1.096 -0.678 0
 endloop
endfacet
facet normal 0 0 -1
 outer loop
  vertex 1.488 -0.921 0
  vertex 1.096 -0.678 0
  vertex 1.59 -0.731 0
 endloop
endfacet
facet normal 0 0 -1
 outer loop
  vertex 1.59 -0.731 0
  vertex 1.096 -0.678 0
  vertex 1.171 -0.539 0
 endloop
endfacet
facet normal 0 0 -1
 outer loop
  vertex 1.59 -0.731 0
  vertex 1.171 -0.539 0
  vertex 1.668 -0.531 0
 endloop
endfacet
facet normal -0 0 -1
 outer loop
  vertex 1.668 -0.531 0
  vertex 1.171 -0.539 0
  vertex 1.228 -0.391 0
 endloop
endfacet
facet normal 0 0 -1
 outer loop
  vertex 1.668 -0.531 0
  vertex 1.228 -0.391 0
  vertex 1.72 -0.322 0
 endloop
endfacet
facet normal -0 0 -1
 outer loop
  vertex 1.72 -0.322 0
  vertex 1.228 -0.391 0
  vertex 1.267 -0.237 0
 endloop
endfacet
facet normal 0 0 -1
 outer loop
  vertex 1.72 -0.322 0
  vertex 1.267 -0.237 0
  vertex 1.747 -0.108 0
 endloop
endfacet
facet normal -0 0 -1
 outer loop
  vertex 1.747 -0.108 0
  vertex 1.267 -0.237 0
  vertex 1.286 -0.079 0
 endloop
endfacet
facet normal 0 0 -1
 outer loop
  vertex 1.747 -0.108 0
  vertex 1.286 -0.079 0
  vertex 1.75 0 0
 endloop
endfacet
facet normal -0 0 -1
 outer loop
  vertex 1.75 0 0
  vertex 1.286 -0.079 0
  vertex 1.289 0 0
 endloop
endfacet
facet normal 0 0 -1
 outer loop
  vertex 1.75 0 0
  vertex 1.289 0 0
  vertex 1.286 0.079 0
 endloop
endfacet
facet normal 0 0 -1
 outer loop
  vertex 0.054 -1.749 0
  vertex -0.161 -1.743 0
  vertex 0.04 -1.288 0
 endloop
endfacet
facet normal -0 0 -1
 outer loop
  vertex 0.04 -1.288 0
  vertex -0.161 -1.743 0
  vertex -0.119 -1.283 0
 endloop
endfacet
facet normal 0 0 -1
 outer loop
  vertex -0.161 -1.743 0
  vertex -0.374 -1.709 0
  vertex -0.119 -1.283 0
 endloop
endfacet
facet normal -0 0 -1
 outer loop
  vertex -0.119 -1.283 0
  vertex -0.374 -1.709 0
  vertex -0.276 -1.259 0
 endloop
endfacet
facet normal 0 0 -1
 outer loop
  vertex -0.374 -1.709 0
  vertex -0.582 -1.651 0
  vertex -0.276 -1.259 0
 endloop
endfacet
facet normal -0 0 -1
 outer loop
  vertex -0.276 -1.259 0
  vertex -0.582 -1.651 0
  vertex -0.428 -1.215 0
 endloop
endfacet
facet normal 0 0 -1
 outer loop
  vertex -0.582 -1.651 0
  vertex -0.78 -1.567 0
  vertex -0.428 -1.215 0
 endloop
endfacet
facet normal -0 0 -1
 outer loop
  vertex -0.428 -1.215 0
  vertex -0.78 -1.567 0
  vertex -0.574 -1.154 0
 endloop
endfacet
facet normal 0 0 -1
 outer loop
  vertex -0.78 -1.567 0
  vertex -0.967 -1.459 0
  vertex -0.574 -1.154 0
 endloop
endfacet
facet normal -0 0 -1
 outer loop
  vertex -0.574 -1.154 0
  vertex -0.967 -1.459 0
  vertex -0.712 -1.074 0
 endloop
endfacet
facet normal 0 0 -1
 outer loop
  vertex -0.967 -1.459 0
  vertex -1.139 -1.329 0
  vertex -0.712 -1.074 0
 endloop
endfacet
facet normal -0 0 -1
 outer loop
  vertex -0.712 -1.074 0
  vertex -1.139 -1.329 0
  vertex -0.838 -0.979 0
 endloop
endfacet
facet normal 0 0 -1
 outer loop
  vertex -1.139 -1.329 0
  vertex -1.293 -1.179 0
  vertex -0.838 -0.979 0
 endloop
endfacet
facet normal -0 0 -1
 outer loop
  vertex -0.838 -0.979 0
  vertex -1.293 -1.179 0
  vertex -0.952 -0.868 0
 endloop
endfacet
facet normal 0 0 -1
 outer loop
  vertex -1.293 -1.179 0
  vertex -1.428 -1.011 0
  vertex -0.952 -0.868 0
 endloop
endfacet
facet normal -0 0 -1
 outer loop
  vertex -0.952 -0.868 0
  vertex -1.428 -1.011 0
  vertex -1.052 -0.745 0
 endloop
endfacet
facet normal 0 0 -1
 outer loop
  vertex -1.428 -1.011 0
  vertex -1.542 -0.828 0
  vertex -1.052 -0.745 0
 endloop
endfacet
facet normal -0 0 -1
 outer loop
  vertex -1.052 -0.745 0
  vertex -1.542 -0.828 0
  vertex -1.135 -0.61 0
 endloop
endfacet
facet normal 0 0 -1
 outer loop
  vertex -1.542 -0.828 0
  vertex -1.632 -0.632 0
  vertex -1.135 -0.61 0
 endloop
endfacet
facet normal -0 0 -1
 outer loop
  vertex -1.135 -0.61 0
  vertex -1.632 -0.632 0
  vertex -1.202 -0.466 0
 endloop
endfacet
facet normal 0 0 -1
 outer loop
  vertex -1.632 -0.632 0
  vertex -1.697 -0.427 0
  vertex -1.202 -0.466 0
 endloop
endfacet
facet normal 0 0 -1
 outer loop
  vertex -1.202 -0.466 0
  vertex -1.697 -0.427 0
  vertex -1.25 -0.314 0
 endloop
endfacet
facet normal 0 0 -1
 outer loop
  vertex -1.697 -0.427 0
  vertex -1.737 -0.215 0
  vertex -1.25 -0.314 0
 endloop
endfacet
facet normal 0 0 -1
 outer loop
  vertex -1.25 -0.314 0
  vertex -1.737 -0.215 0
  vertex -1.279 -0.158 0
 endloop
endfacet
facet normal -0 0 -1
 outer loop
  vertex -1.279 -0.158 0
  vertex -1.737 -0.215 0
  vertex -1.289 0 0
 endloop
endfacet
facet normal -0 0 -1
 outer loop
  vertex -1.289 0 0
  vertex -1.737 -0.215 0
  vertex -1.75 0 0
 endloop
endfacet
facet normal 0 0 -1
 outer loop
  vertex -1.289 0 0
  vertex -1.75 0 0
  vertex -1.279 0.158 0
 endloop
endfacet
facet normal -0 0 -1
 outer loop
  vertex -1.279 0.158 0
  vertex -1.75 0 0
  vertex -1.737 0.215 0
 endloop
endfacet
facet normal 0 0 -1
 outer loop
  vertex -1.279 0.158 0
  vertex -1.737 0.215 0
  vertex -1.25 0.314 0
 endloop
endfacet
facet normal -0 0 -1
 outer loop
  vertex -1.25 0.314 0
  vertex -1.737 0.215 0
  vertex -1.697 0.427 0
 endloop
endfacet
facet normal 0 0 -1
 outer loop
  vertex -1.25 0.314 0
  vertex -1.697 0.427 0
  vertex -1.202 0.466 0
 endloop
endfacet
facet normal -0 0 -1
 outer loop
  vertex -1.202 0.466 0
  vertex -1.697 0.427 0
  vertex -1.632 0.632 0
 endloop
endfacet
facet normal 0 0 -1
 outer loop
  vertex -1.202 0.466 0
  vertex -1.632 0.632 0
  vertex -1.135 0.61 0
 endloop
endfacet
facet normal 0 0 -1
 outer loop
  vertex -1.135 0.61 0
  vertex -1.632 0.632 0
  vertex -1.542 0.828 0
 endloop
endfacet
facet normal 0 0 -1
 outer loop
  vertex -1.135 0.61 0
  vertex -1.542 0.828 0
  vertex -1.052 0.745 0
 endloop
endfacet
facet normal 0 0 -1
 outer loop
  vertex -1.052 0.745 0
  vertex -1.542 0.828 0
  vertex -1.428 1.011 0
 endloop
endfacet
facet normal 0 0 -1
 outer loop
  vertex -1.052 0.745 0
  vertex -1.428 1.011 0
  vertex -0.952 0.868 0
 endloop
endfacet
facet normal 0 0 -1
 outer loop
  vertex -0.952 0.868 0
  vertex -1.428 1.011 0
  vertex -1.293 1.179 0
 endloop
endfacet
facet normal 0 0 -1
 outer loop
  vertex -0.952 0.868 0
  vertex -1.293 1.179 0
  vertex -0.838 0.979 0
 endloop
endfacet
facet normal 0 0 -1
 outer loop
  vertex -0.838 0.979 0
  vertex -1.293 1.179 0
  vertex -1.139 1.329 0
 endloop
endfacet
facet normal 0 0 -1
 outer loop
  vertex -0.838 0.979 0
  vertex -1.139 1.329 0
  vertex -0.712 1.074 0
 endloop
endfacet
facet normal 0 0 -1
 outer loop
  vertex -0.712 1.074 0
  vertex -1.139 1.329 0
  vertex -0.967 1.459 0
 endloop
endfacet
facet normal 0 0 -1
 outer loop
  vertex -0.712 1.074 0
  vertex -0.967 1.459 0
  vertex -0.574 1.154 0
 endloop
endfacet
facet normal 0 0 -1
 outer loop
  vertex -0.574 1.154 0
  vertex -0.967 1.459 0
  vertex -0.78 1.567 0
 endloop
endfacet
facet normal 0 0 -1
 outer loop
  vertex -0.574 1.154 0
  vertex -0.78 1.567 0
  vertex -0.428 1.215 0
 endloop
endfacet
facet normal 0 0 -1
 outer loop
  vertex -0.428 1.215 0
  vertex -0.78 1.567 0
  vertex -0.582 1.651 0
 endloop
endfacet
facet normal 0 0 -1
 outer loop
  vertex -0.428 1.215 0
  vertex -0.582 1.651 0
  vertex -0.276 1.259 0
 endloop
endfacet
facet normal 0 0 -1
 outer loop
  vertex -0.276 1.259 0
  vertex -0.582 1.651 0
  vertex -0.374 1.709 0
 endloop
endfacet
facet normal 0 0 -1
 outer loop
  vertex -0.276 1.259 0
  vertex -0.374 1.709 0
  vertex -0.119 1.283 0
 endloop
endfacet
facet normal 0 0 -1
 outer loop
  vertex -0.119 1.283 0
  vertex -0.374 1.709 0
  vertex -0.161 1.743 0
 endloop
endfacet
facet normal 0 0 -1
 outer loop
  vertex -0.119 1.283 0
  vertex -0.161 1.743 0
  vertex 0.04 1.288 0
 endloop
endfacet
facet normal 0 0 -1
 outer loop
  vertex 0.04 1.288 0
  vertex -0.161 1.743 0
  vertex 0.054 1.749 0
 endloop
endfacet
facet normal 0 0 -1
 outer loop
  vertex 0.04 1.288 0
  vertex 0.054 1.749 0
  vertex 0.268 1.729 0
 endloop
endfacet
facet normal 0 0 -1
 outer loop
  vertex 0.04 1.288 0
  vertex 0.268 1.729 0
  vertex 0.198 1.273 0
 endloop
endfacet
facet normal 0 0 -1
 outer loop
  vertex 0.198 1.273 0
  vertex 0.268 1.729 0
  vertex 0.479 1.683 0
 endloop
endfacet
facet normal 0 0 -1
 outer loop
  vertex 0.198 1.273 0
  vertex 0.479 1.683 0
  vertex 0.353 1.239 0
 endloop
endfacet
facet normal 0 0 -1
 outer loop
  vertex 0.353 1.239 0
  vertex 0.479 1.683 0
  vertex 0.682 1.612 0
 endloop
endfacet
facet normal 0 0 -1
 outer loop
  vertex 0.353 1.239 0
  vertex 0.682 1.612 0
  vertex 0.502 1.187 0
 endloop
endfacet
facet normal 0 0 -1
 outer loop
  vertex 0.502 1.187 0
  vertex 0.682 1.612 0
  vertex 0.875 1.516 0
 endloop
endfacet
facet normal 0 0 -1
 outer loop
  vertex 0.502 1.187 0
  vertex 0.875 1.516 0
  vertex 0.644 1.116 0
 endloop
endfacet
facet normal 0 0 -1
 outer loop
  vertex 0.644 1.116 0
  vertex 0.875 1.516 0
  vertex 1.055 1.397 0
 endloop
endfacet
facet normal 0 0 -1
 outer loop
  vertex 0.644 1.116 0
  vertex 1.055 1.397 0
  vertex 0.777 1.028 0
 endloop
endfacet
facet normal 0 0 -1
 outer loop
  vertex 0.777 1.028 0
  vertex 1.055 1.397 0
  vertex 1.218 1.256 0
 endloop
endfacet
facet normal 0 0 -1
 outer loop
  vertex 0.777 1.028 0
  vertex 1.218 1.256 0
  vertex 0.897 0.925 0
 endloop
endfacet
facet normal 0 0 -1
 outer loop
  vertex 0.897 0.925 0
  vertex 1.218 1.256 0
  vertex 1.363 1.097 0
 endloop
endfacet
facet normal 0 0 -1
 outer loop
  vertex 0.897 0.925 0
  vertex 1.363 1.097 0
  vertex 1.004 0.808 0
 endloop
endfacet
facet normal 0 0 -1
 outer loop
  vertex 1.004 0.808 0
  vertex 1.363 1.097 0
  vertex 1.488 0.921 0
 endloop
endfacet
facet normal 0 0 -1
 outer loop
  vertex 1.004 0.808 0
  vertex 1.488 0.921 0
  vertex 1.096 0.678 0
 endloop
endfacet
facet normal 0 0 -1
 outer loop
  vertex 1.096 0.678 0
  vertex 1.488 0.921 0
  vertex 1.59 0.731 0
 endloop
endfacet
facet normal 0 0 -1
 outer loop
  vertex 1.096 0.678 0
  vertex 1.59 0.731 0
  vertex 1.171 0.539 0
 endloop
endfacet
facet normal 0 0 -1
 outer loop
  vertex 1.171 0.539 0
  vertex 1.59 0.731 0
  vertex 1.668 0.531 0
 endloop
endfacet
facet normal 0 0 -1
 outer loop
  vertex 1.171 0.539 0
  vertex 1.668 0.531 0
  vertex 1.228 0.391 0
 endloop
endfacet
facet normal 0 0 -1
 outer loop
  vertex 1.228 0.391 0
  vertex 1.668 0.531 0
  vertex 1.72 0.322 0
 endloop
endfacet
facet normal 0 0 -1
 outer loop
  vertex 1.228 0.391 0
  vertex 1.72 0.322 0
  vertex 1.267 0.237 0
 endloop
endfacet
facet normal 0 0 -1
 outer loop
  vertex 1.267 0.237 0
  vertex 1.72 0.322 0
  vertex 1.747 0.108 0
 endloop
endfacet
facet normal 0 0 -1
 outer loop
  vertex 1.267 0.237 0
  vertex 1.747 0.108 0
  vertex 1.286 0.079 0
 endloop
endfacet
facet normal 0 0 -1
 outer loop
  vertex 1.286 0.079 0
  vertex 1.747 0.108 0
  vertex 1.75 0 0
 endloop
endfacet
facet normal 1 -0.031 0
 outer loop
  vertex 1.747 -0.108 2.7
  vertex 1.747 -0.108 0
  vertex 1.75 0 2.7
 endloop
endfacet
facet normal 1 -0.031 0
 outer loop
  vertex 1.75 0 2.7
  vertex 1.747 -0.108 0
  vertex 1.75 0 0
 endloop
endfacet
facet normal 1 0.031 0
 outer loop
  vertex 1.75 0 2.7
  vertex 1.75 0 0
  vertex 1.747 0.108 2.7
 endloop
endfacet
facet normal 1 0.031 0
 outer loop
  vertex 1.747 0.108 2.7
  vertex 1.75 0 0
  vertex 1.747 0.108 0
 endloop
endfacet
facet normal 0.992 0.123 0
 outer loop
  vertex 1.747 0.108 2.7
  vertex 1.747 0.108 0
  vertex 1.72 0.322 2.7
 endloop
endfacet
facet normal 0.992 0.123 0
 outer loop
  vertex 1.72 0.322 2.7
  vertex 1.747 0.108 0
  vertex 1.72 0.322 0
 endloop
endfacet
facet normal 0.97 0.244 0
 outer loop
  vertex 1.72 0.322 2.7
  vertex 1.72 0.322 0
  vertex 1.668 0.531 2.7
 endloop
endfacet
facet normal 0.97 0.244 0
 outer loop
  vertex 1.668 0.531 2.7
  vertex 1.72 0.322 0
  vertex 1.668 0.531 0
 endloop
endfacet
facet normal 0.932 0.361 0
 outer loop
  vertex 1.668 0.531 2.7
  vertex 1.668 0.531 0
  vertex 1.59 0.731 2.7
 endloop
endfacet
facet normal 0.932 0.361 0
 outer loop
  vertex 1.59 0.731 2.7
  vertex 1.668 0.531 0
  vertex 1.59 0.731 0
 endloop
endfacet
facet normal 0.881 0.473 0
 outer loop
  vertex 1.59 0.731 2.7
  vertex 1.59 0.731 0
  vertex 1.488 0.921 2.7
 endloop
endfacet
facet normal 0.881 0.473 0
 outer loop
  vertex 1.488 0.921 2.7
  vertex 1.59 0.731 0
  vertex 1.488 0.921 0
 endloop
endfacet
facet normal 0.816 0.578 0
 outer loop
  vertex 1.488 0.921 2.7
  vertex 1.488 0.921 0
  vertex 1.363 1.097 2.7
 endloop
endfacet
facet normal 0.816 0.578 0
 outer loop
  vertex 1.363 1.097 2.7
  vertex 1.488 0.921 0
  vertex 1.363 1.097 0
 endloop
endfacet
facet normal 0.739 0.674 0
 outer loop
  vertex 1.363 1.097 2.7
  vertex 1.363 1.097 0
  vertex 1.218 1.256 2.7
 endloop
endfacet
facet normal 0.739 0.674 0
 outer loop
  vertex 1.218 1.256 2.7
  vertex 1.363 1.097 0
  vertex 1.218 1.256 0
 endloop
endfacet
facet normal 0.651 0.759 0
 outer loop
  vertex 1.218 1.256 2.7
  vertex 1.218 1.256 0
  vertex 1.055 1.397 2.7
 endloop
endfacet
facet normal 0.651 0.759 0
 outer loop
  vertex 1.055 1.397 2.7
  vertex 1.218 1.256 0
  vertex 1.055 1.397 0
 endloop
endfacet
facet normal 0.552 0.834 0
 outer loop
  vertex 1.055 1.397 2.7
  vertex 1.055 1.397 0
  vertex 0.875 1.516 2.7
 endloop
endfacet
facet normal 0.552 0.834 0
 outer loop
  vertex 0.875 1.516 2.7
  vertex 1.055 1.397 0
  vertex 0.875 1.516 0
 endloop
endfacet
facet normal 0.446 0.895 0
 outer loop
  vertex 0.875 1.516 2.7
  vertex 0.875 1.516 0
  vertex 0.682 1.612 2.7
 endloop
endfacet
facet normal 0.446 0.895 0
 outer loop
  vertex 0.682 1.612 2.7
  vertex 0.875 1.516 0
  vertex 0.682 1.612 0
 endloop
endfacet
facet normal 0.332 0.943 0
 outer loop
  vertex 0.682 1.612 2.7
  vertex 0.682 1.612 0
  vertex 0.479 1.683 2.7
 endloop
endfacet
facet normal 0.332 0.943 0
 outer loop
  vertex 0.479 1.683 2.7
  vertex 0.682 1.612 0
  vertex 0.479 1.683 0
 endloop
endfacet
facet normal 0.214 0.977 0
 outer loop
  vertex 0.479 1.683 2.7
  vertex 0.479 1.683 0
  vertex 0.268 1.729 2.7
 endloop
endfacet
facet normal 0.214 0.977 0
 outer loop
  vertex 0.268 1.729 2.7
  vertex 0.479 1.683 0
  vertex 0.268 1.729 0
 endloop
endfacet
facet normal 0.092 0.996 0
 outer loop
  vertex 0.268 1.729 2.7
  vertex 0.268 1.729 0
  vertex 0.054 1.749 2.7
 endloop
endfacet
facet normal 0.092 0.996 0
 outer loop
  vertex 0.054 1.749 2.7
  vertex 0.268 1.729 0
  vertex 0.054 1.749 0
 endloop
endfacet
facet normal -0.031 1 0
 outer loop
  vertex 0.054 1.749 2.7
  vertex 0.054 1.749 0
  vertex -0.161 1.743 2.7
 endloop
endfacet
facet normal -0.031 1 0
 outer loop
  vertex -0.161 1.743 2.7
  vertex 0.054 1.749 0
  vertex -0.161 1.743 0
 endloop
endfacet
facet normal -0.153 0.988 0
 outer loop
  vertex -0.161 1.743 2.7
  vertex -0.161 1.743 0
  vertex -0.374 1.709 2.7
 endloop
endfacet
facet normal -0.153 0.988 0
 outer loop
  vertex -0.374 1.709 2.7
  vertex -0.161 1.743 0
  vertex -0.374 1.709 0
 endloop
endfacet
facet normal -0.274 0.962 0
 outer loop
  vertex -0.374 1.709 2.7
  vertex -0.374 1.709 0
  vertex -0.582 1.651 2.7
 endloop
endfacet
facet normal -0.274 0.962 0
 outer loop
  vertex -0.582 1.651 2.7
  vertex -0.374 1.709 0
  vertex -0.582 1.651 0
 endloop
endfacet
facet normal -0.39 0.921 0
 outer loop
  vertex -0.582 1.651 2.7
  vertex -0.582 1.651 0
  vertex -0.78 1.567 2.7
 endloop
endfacet
facet normal -0.39 0.921 0
 outer loop
  vertex -0.78 1.567 2.7
  vertex -0.582 1.651 0
  vertex -0.78 1.567 0
 endloop
endfacet
facet normal -0.5 0.866 0
 outer loop
  vertex -0.78 1.567 2.7
  vertex -0.78 1.567 0
  vertex -0.967 1.459 2.7
 endloop
endfacet
facet normal -0.5 0.866 0
 outer loop
  vertex -0.967 1.459 2.7
  vertex -0.78 1.567 0
  vertex -0.967 1.459 0
 endloop
endfacet
facet normal -0.603 0.798 0
 outer loop
  vertex -0.967 1.459 2.7
  vertex -0.967 1.459 0
  vertex -1.139 1.329 2.7
 endloop
endfacet
facet normal -0.603 0.798 0
 outer loop
  vertex -1.139 1.329 2.7
  vertex -0.967 1.459 0
  vertex -1.139 1.329 0
 endloop
endfacet
facet normal -0.696 0.718 0
 outer loop
  vertex -1.139 1.329 2.7
  vertex -1.139 1.329 0
  vertex -1.293 1.179 2.7
 endloop
endfacet
facet normal -0.696 0.718 0
 outer loop
  vertex -1.293 1.179 2.7
  vertex -1.139 1.329 0
  vertex -1.293 1.179 0
 endloop
endfacet
facet normal -0.779 0.627 0
 outer loop
  vertex -1.293 1.179 2.7
  vertex -1.293 1.179 0
  vertex -1.428 1.011 2.7
 endloop
endfacet
facet normal -0.779 0.627 0
 outer loop
  vertex -1.428 1.011 2.7
  vertex -1.293 1.179 0
  vertex -1.428 1.011 0
 endloop
endfacet
facet normal -0.85 0.526 0
 outer loop
  vertex -1.428 1.011 2.7
  vertex -1.428 1.011 0
  vertex -1.542 0.828 2.7
 endloop
endfacet
facet normal -0.85 0.526 0
 outer loop
  vertex -1.542 0.828 2.7
  vertex -1.428 1.011 0
  vertex -1.542 0.828 0
 endloop
endfacet
facet normal -0.908 0.418 0
 outer loop
  vertex -1.542 0.828 2.7
  vertex -1.542 0.828 0
  vertex -1.632 0.632 2.7
 endloop
endfacet
facet normal -0.908 0.418 0
 outer loop
  vertex -1.632 0.632 2.7
  vertex -1.542 0.828 0
  vertex -1.632 0.632 0
 endloop
endfacet
facet normal -0.953 0.303 0
 outer loop
  vertex -1.632 0.632 2.7
  vertex -1.632 0.632 0
  vertex -1.697 0.427 2.7
 endloop
endfacet
facet normal -0.953 0.303 0
 outer loop
  vertex -1.697 0.427 2.7
  vertex -1.632 0.632 0
  vertex -1.697 0.427 0
 endloop
endfacet
facet normal -0.983 0.184 0
 outer loop
  vertex -1.697 0.427 2.7
  vertex -1.697 0.427 0
  vertex -1.737 0.215 2.7
 endloop
endfacet
facet normal -0.983 0.184 0
 outer loop
  vertex -1.737 0.215 2.7
  vertex -1.697 0.427 0
  vertex -1.737 0.215 0
 endloop
endfacet
facet normal -0.998 0.062 0
 outer loop
  vertex -1.737 0.215 2.7
  vertex -1.737 0.215 0
  vertex -1.75 0 2.7
 endloop
endfacet
facet normal -0.998 0.062 0
 outer loop
  vertex -1.75 0 2.7
  vertex -1.737 0.215 0
  vertex -1.75 0 0
 endloop
endfacet
facet normal -0.998 -0.062 -0
 outer loop
  vertex -1.75 0 2.7
  vertex -1.75 0 0
  vertex -1.737 -0.215 2.7
 endloop
endfacet
facet normal -0.998 -0.062 -0
 outer loop
  vertex -1.737 -0.215 2.7
  vertex -1.75 0 0
  vertex -1.737 -0.215 0
 endloop
endfacet
facet normal -0.983 -0.184 -0
 outer loop
  vertex -1.737 -0.215 2.7
  vertex -1.737 -0.215 0
  vertex -1.697 -0.427 2.7
 endloop
endfacet
facet normal -0.983 -0.184 -0
 outer loop
  vertex -1.697 -0.427 2.7
  vertex -1.737 -0.215 0
  vertex -1.697 -0.427 0
 endloop
endfacet
facet normal -0.953 -0.303 -0
 outer loop
  vertex -1.697 -0.427 2.7
  vertex -1.697 -0.427 0
  vertex -1.632 -0.632 2.7
 endloop
endfacet
facet normal -0.953 -0.303 -0
 outer loop
  vertex -1.632 -0.632 2.7
  vertex -1.697 -0.427 0
  vertex -1.632 -0.632 0
 endloop
endfacet
facet normal -0.908 -0.418 -0
 outer loop
  vertex -1.632 -0.632 2.7
  vertex -1.632 -0.632 0
  vertex -1.542 -0.828 2.7
 endloop
endfacet
facet normal -0.908 -0.418 -0
 outer loop
  vertex -1.542 -0.828 2.7
  vertex -1.632 -0.632 0
  vertex -1.542 -0.828 0
 endloop
endfacet
facet normal -0.85 -0.526 -0
 outer loop
  vertex -1.542 -0.828 2.7
  vertex -1.542 -0.828 0
  vertex -1.428 -1.011 2.7
 endloop
endfacet
facet normal -0.85 -0.526 -0
 outer loop
  vertex -1.428 -1.011 2.7
  vertex -1.542 -0.828 0
  vertex -1.428 -1.011 0
 endloop
endfacet
facet normal -0.779 -0.627 -0
 outer loop
  vertex -1.428 -1.011 2.7
  vertex -1.428 -1.011 0
  vertex -1.293 -1.179 2.7
 endloop
endfacet
facet normal -0.779 -0.627 -0
 outer loop
  vertex -1.293 -1.179 2.7
  vertex -1.428 -1.011 0
  vertex -1.293 -1.179 0
 endloop
endfacet
facet normal -0.696 -0.718 -0
 outer loop
  vertex -1.293 -1.179 2.7
  vertex -1.293 -1.179 0
  vertex -1.139 -1.329 2.7
 endloop
endfacet
facet normal -0.696 -0.718 -0
 outer loop
  vertex -1.139 -1.329 2.7
  vertex -1.293 -1.179 0
  vertex -1.139 -1.329 0
 endloop
endfacet
facet normal -0.603 -0.798 -0
 outer loop
  vertex -1.139 -1.329 2.7
  vertex -1.139 -1.329 0
  vertex -0.967 -1.459 2.7
 endloop
endfacet
facet normal -0.603 -0.798 -0
 outer loop
  vertex -0.967 -1.459 2.7
  vertex -1.139 -1.329 0
  vertex -0.967 -1.459 0
 endloop
endfacet
facet normal -0.5 -0.866 -0
 outer loop
  vertex -0.967 -1.459 2.7
  vertex -0.967 -1.459 0
  vertex -0.78 -1.567 2.7
 endloop
endfacet
facet normal -0.5 -0.866 -0
 outer loop
  vertex -0.78 -1.567 2.7
  vertex -0.967 -1.459 0
  vertex -0.78 -1.567 0
 endloop
endfacet
facet normal -0.39 -0.921 -0
 outer loop
  vertex -0.78 -1.567 2.7
  vertex -0.78 -1.567 0
  vertex -0.582 -1.651 2.7
 endloop
endfacet
facet normal -0.39 -0.921 -0
 outer loop
  vertex -0.582 -1.651 2.7
  vertex -0.78 -1.567 0
  vertex -0.582 -1.651 0
 endloop
endfacet
facet normal -0.274 -0.962 -0
 outer loop
  vertex -0.582 -1.651 2.7
  vertex -0.582 -1.651 0
  vertex -0.374 -1.709 2.7
 endloop
endfacet
facet normal -0.274 -0.962 -0
 outer loop
  vertex -0.374 -1.709 2.7
  vertex -0.582 -1.651 0
  vertex -0.374 -1.709 0
 endloop
endfacet
facet normal -0.153 -0.988 -0
 outer loop
  vertex -0.374 -1.709 2.7
  vertex -0.374 -1.709 0
  vertex -0.161 -1.743 2.7
 endloop
endfacet
facet normal -0.153 -0.988 -0
 outer loop
  vertex -0.161 -1.743 2.7
  vertex -0.374 -1.709 0
  vertex -0.161 -1.743 0
 endloop
endfacet
facet normal -0.031 -1 -0
 outer loop
  vertex -0.161 -1.743 2.7
  vertex -0.161 -1.743 0
  vertex 0.054 -1.749 2.7
 endloop
endfacet
facet normal -0.031 -1 -0
 outer loop
  vertex 0.054 -1.749 2.7
  vertex -0.161 -1.743 0
  vertex 0.054 -1.749 0
 endloop
endfacet
facet normal 0.092 -0.996 0
 outer loop
  vertex 0.054 -1.749 2.7
  vertex 0.054 -1.749 0
  vertex 0.268 -1.729 2.7
 endloop
endfacet
facet normal 0.092 -0.996 0
 outer loop
  vertex 0.268 -1.729 2.7
  vertex 0.054 -1.749 0
  vertex 0.268 -1.729 0
 endloop
endfacet
facet normal 0.214 -0.977 0
 outer loop
  vertex 0.268 -1.729 2.7
  vertex 0.268 -1.729 0
  vertex 0.479 -1.683 2.7
 endloop
endfacet
facet normal 0.214 -0.977 0
 outer loop
  vertex 0.479 -1.683 2.7
  vertex 0.268 -1.729 0
  vertex 0.479 -1.683 0
 endloop
endfacet
facet normal 0.332 -0.943 0
 outer loop
  vertex 0.479 -1.683 2.7
  vertex 0.479 -1.683 0
  vertex 0.682 -1.612 2.7
 endloop
endfacet
facet normal 0.332 -0.943 0
 outer loop
  vertex 0.682 -1.612 2.7
  vertex 0.479 -1.683 0
  vertex 0.682 -1.612 0
 endloop
endfacet
facet normal 0.446 -0.895 0
 outer loop
  vertex 0.682 -1.612 2.7
  vertex 0.682 -1.612 0
  vertex 0.875 -1.516 2.7
 endloop
endfacet
facet normal 0.446 -0.895 0
 outer loop
  vertex 0.875 -1.516 2.7
  vertex 0.682 -1.612 0
  vertex 0.875 -1.516 0
 endloop
endfacet
facet normal 0.552 -0.834 0
 outer loop
  vertex 0.875 -1.516 2.7
  vertex 0.875 -1.516 0
  vertex 1.055 -1.397 2.7
 endloop
endfacet
facet normal 0.552 -0.834 0
 outer loop
  vertex 1.055 -1.397 2.7
  vertex 0.875 -1.516 0
  vertex 1.055 -1.397 0
 endloop
endfacet
facet normal 0.651 -0.759 0
 outer loop
  vertex 1.055 -1.397 2.7
  vertex 1.055 -1.397 0
  vertex 1.218 -1.256 2.7
 endloop
endfacet
facet normal 0.651 -0.759 0
 outer loop
  vertex 1.218 -1.256 2.7
  vertex 1.055 -1.397 0
  vertex 1.218 -1.256 0
 endloop
endfacet
facet normal 0.739 -0.674 0
 outer loop
  vertex 1.218 -1.256 2.7
  vertex 1.218 -1.256 0
  vertex 1.363 -1.097 2.7
 endloop
endfacet
facet normal 0.739 -0.674 0
 outer loop
  vertex 1.363 -1.097 2.7
  vertex 1.218 -1.256 0
  vertex 1.363 -1.097 0
 endloop
endfacet
facet normal 0.816 -0.578 0
 outer loop
  vertex 1.363 -1.097 2.7
  vertex 1.363 -1.097 0
  vertex 1.488 -0.921 2.7
 endloop
endfacet
facet normal 0.816 -0.578 0
 outer loop
  vertex 1.488 -0.921 2.7
  vertex 1.363 -1.097 0
  vertex 1.488 -0.921 0
 endloop
endfacet
facet normal 0.881 -0.473 0
 outer loop
  vertex 1.488 -0.921 2.7
  vertex 1.488 -0.921 0
  vertex 1.59 -0.731 2.7
 endloop
endfacet
facet normal 0.881 -0.473 0
 outer loop
  vertex 1.59 -0.731 2.7
  vertex 1.488 -0.921 0
  vertex 1.59 -0.731 0
 endloop
endfacet
facet normal 0.932 -0.361 0
 outer loop
  vertex 1.59 -0.731 2.7
  vertex 1.59 -0.731 0
  vertex 1.668 -0.531 2.7
 endloop
endfacet
facet normal 0.932 -0.361 0
 outer loop
  vertex 1.668 -0.531 2.7
  vertex 1.59 -0.731 0
  vertex 1.668 -0.531 0
 endloop
endfacet
facet normal 0.97 -0.244 0
 outer loop
  vertex 1.668 -0.531 2.7
  vertex 1.668 -0.531 0
  vertex 1.72 -0.322 2.7
 endloop
endfacet
facet normal 0.97 -0.244 0
 outer loop
  vertex 1.72 -0.322 2.7
  vertex 1.668 -0.531 0
  vertex 1.72 -0.322 0
 endloop
endfacet
facet normal 0.992 -0.123 0
 outer loop
  vertex 1.72 -0.322 2.7
  vertex 1.72 -0.322 0
  vertex 1.747 -0.108 2.7
 endloop
endfacet
facet normal 0.992 -0.123 0
 outer loop
  vertex 1.747 -0.108 2.7
  vertex 1.72 -0.322 0
  vertex 1.747 -0.108 0
 endloop
endfacet
facet normal 0.866 -0.027 0.5
 outer loop
  vertex 1.574 -0.097 3
  vertex 1.747 -0.108 2.7
  vertex 1.577 0 3
 endloop
endfacet
facet normal 0.866 -0.027 0.5
 outer loop
  vertex 1.577 0 3
  vertex 1.747 -0.108 2.7
  vertex 1.75 0 2.7
 endloop
endfacet
facet normal 0.866 0.027 0.5
 outer loop
  vertex 1.577 0 3
  vertex 1.75 0 2.7
  vertex 1.574 0.097 3
 endloop
endfacet
facet normal 0.866 0.027 0.5
 outer loop
  vertex 1.574 0.097 3
  vertex 1.75 0 2.7
  vertex 1.747 0.108 2.7
 endloop
endfacet
facet normal 0.86 0.106 0.499
 outer loop
  vertex 1.574 0.097 3
  vertex 1.747 0.108 2.7
  vertex 1.55 0.29 3
 endloop
endfacet
facet normal 0.86 0.106 0.499
 outer loop
  vertex 1.55 0.29 3
  vertex 1.747 0.108 2.7
  vertex 1.72 0.322 2.7
 endloop
endfacet
facet normal 0.84 0.211 0.499
 outer loop
  vertex 1.55 0.29 3
  vertex 1.72 0.322 2.7
  vertex 1.503 0.478 3
 endloop
endfacet
facet normal 0.84 0.211 0.499
 outer loop
  vertex 1.503 0.478 3
  vertex 1.72 0.322 2.7
  vertex 1.668 0.531 2.7
 endloop
endfacet
facet normal 0.808 0.313 0.499
 outer loop
  vertex 1.503 0.478 3
  vertex 1.668 0.531 2.7
  vertex 1.432 0.659 3
 endloop
endfacet
facet normal 0.808 0.313 0.499
 outer loop
  vertex 1.432 0.659 3
  vertex 1.668 0.531 2.7
  vertex 1.59 0.731 2.7
 endloop
endfacet
facet normal 0.763 0.41 0.499
 outer loop
  vertex 1.432 0.659 3
  vertex 1.59 0.731 2.7
  vertex 1.341 0.83 3
 endloop
endfacet
facet normal 0.763 0.41 0.499
 outer loop
  vertex 1.341 0.83 3
  vertex 1.59 0.731 2.7
  vertex 1.488 0.921 2.7
 endloop
endfacet
facet normal 0.707 0.501 0.499
 outer loop
  vertex 1.341 0.83 3
  vertex 1.488 0.921 2.7
  vertex 1.228 0.989 3
 endloop
endfacet
facet normal 0.707 0.501 0.499
 outer loop
  vertex 1.228 0.989 3
  vertex 1.488 0.921 2.7
  vertex 1.363 1.097 2.7
 endloop
endfacet
facet normal 0.64 0.584 0.499
 outer loop
  vertex 1.228 0.989 3
  vertex 1.363 1.097 2.7
  vertex 1.098 1.132 3
 endloop
endfacet
facet normal 0.64 0.584 0.499
 outer loop
  vertex 1.098 1.132 3
  vertex 1.363 1.097 2.7
  vertex 1.218 1.256 2.7
 endloop
endfacet
facet normal 0.564 0.658 0.499
 outer loop
  vertex 1.098 1.132 3
  vertex 1.218 1.256 2.7
  vertex 0.95 1.258 3
 endloop
endfacet
facet normal 0.564 0.658 0.499
 outer loop
  vertex 0.95 1.258 3
  vertex 1.218 1.256 2.7
  vertex 1.055 1.397 2.7
 endloop
endfacet
facet normal 0.479 0.722 0.499
 outer loop
  vertex 0.95 1.258 3
  vertex 1.055 1.397 2.7
  vertex 0.788 1.366 3
 endloop
endfacet
facet normal 0.479 0.722 0.499
 outer loop
  vertex 0.788 1.366 3
  vertex 1.055 1.397 2.7
  vertex 0.875 1.516 2.7
 endloop
endfacet
facet normal 0.386 0.776 0.499
 outer loop
  vertex 0.788 1.366 3
  vertex 0.875 1.516 2.7
  vertex 0.615 1.452 3
 endloop
endfacet
facet normal 0.386 0.776 0.499
 outer loop
  vertex 0.615 1.452 3
  vertex 0.875 1.516 2.7
  vertex 0.682 1.612 2.7
 endloop
endfacet
facet normal 0.288 0.817 0.499
 outer loop
  vertex 0.615 1.452 3
  vertex 0.682 1.612 2.7
  vertex 0.432 1.517 3
 endloop
endfacet
facet normal 0.288 0.817 0.499
 outer loop
  vertex 0.432 1.517 3
  vertex 0.682 1.612 2.7
  vertex 0.479 1.683 2.7
 endloop
endfacet
facet normal 0.185 0.846 0.499
 outer loop
  vertex 0.432 1.517 3
  vertex 0.479 1.683 2.7
  vertex 0.242 1.558 3
 endloop
endfacet
facet normal 0.185 0.846 0.499
 outer loop
  vertex 0.242 1.558 3
  vertex 0.479 1.683 2.7
  vertex 0.268 1.729 2.7
 endloop
endfacet
facet normal 0.08 0.863 0.499
 outer loop
  vertex 0.242 1.558 3
  vertex 0.268 1.729 2.7
  vertex 0.049 1.576 3
 endloop
endfacet
facet normal 0.08 0.863 0.499
 outer loop
  vertex 0.049 1.576 3
  vertex 0.268 1.729 2.7
  vertex 0.054 1.749 2.7
 endloop
endfacet
facet normal -0.027 0.866 0.499
 outer loop
  vertex 0.049 1.576 3
  vertex 0.054 1.749 2.7
  vertex -0.145 1.57 3
 endloop
endfacet
facet normal -0.027 0.866 0.499
 outer loop
  vertex -0.145 1.57 3
  vertex 0.054 1.749 2.7
  vertex -0.161 1.743 2.7
 endloop
endfacet
facet normal -0.133 0.856 0.499
 outer loop
  vertex -0.145 1.57 3
  vertex -0.161 1.743 2.7
  vertex -0.337 1.54 3
 endloop
endfacet
facet normal -0.133 0.856 0.499
 outer loop
  vertex -0.337 1.54 3
  vertex -0.161 1.743 2.7
  vertex -0.374 1.709 2.7
 endloop
endfacet
facet normal -0.237 0.833 0.499
 outer loop
  vertex -0.337 1.54 3
  vertex -0.374 1.709 2.7
  vertex -0.524 1.487 3
 endloop
endfacet
facet normal -0.237 0.833 0.499
 outer loop
  vertex -0.524 1.487 3
  vertex -0.374 1.709 2.7
  vertex -0.582 1.651 2.7
 endloop
endfacet
facet normal -0.338 0.798 0.499
 outer loop
  vertex -0.524 1.487 3
  vertex -0.582 1.651 2.7
  vertex -0.703 1.411 3
 endloop
endfacet
facet normal -0.338 0.798 0.499
 outer loop
  vertex -0.703 1.411 3
  vertex -0.582 1.651 2.7
  vertex -0.78 1.567 2.7
 endloop
endfacet
facet normal -0.433 0.75 0.499
 outer loop
  vertex -0.703 1.411 3
  vertex -0.78 1.567 2.7
  vertex -0.871 1.314 3
 endloop
endfacet
facet normal -0.433 0.75 0.499
 outer loop
  vertex -0.871 1.314 3
  vertex -0.78 1.567 2.7
  vertex -0.967 1.459 2.7
 endloop
endfacet
facet normal -0.522 0.691 0.499
 outer loop
  vertex -0.871 1.314 3
  vertex -0.967 1.459 2.7
  vertex -1.026 1.197 3
 endloop
endfacet
facet normal -0.522 0.691 0.499
 outer loop
  vertex -1.026 1.197 3
  vertex -0.967 1.459 2.7
  vertex -1.139 1.329 2.7
 endloop
endfacet
facet normal -0.603 0.622 0.499
 outer loop
  vertex -1.026 1.197 3
  vertex -1.139 1.329 2.7
  vertex -1.165 1.062 3
 endloop
endfacet
facet normal -0.603 0.622 0.499
 outer loop
  vertex -1.165 1.062 3
  vertex -1.139 1.329 2.7
  vertex -1.293 1.179 2.7
 endloop
endfacet
facet normal -0.675 0.543 0.499
 outer loop
  vertex -1.165 1.062 3
  vertex -1.293 1.179 2.7
  vertex -1.287 0.911 3
 endloop
endfacet
facet normal -0.675 0.543 0.499
 outer loop
  vertex -1.287 0.911 3
  vertex -1.293 1.179 2.7
  vertex -1.428 1.011 2.7
 endloop
endfacet
facet normal -0.737 0.456 0.499
 outer loop
  vertex -1.287 0.911 3
  vertex -1.428 1.011 2.7
  vertex -1.389 0.746 3
 endloop
endfacet
facet normal -0.737 0.456 0.499
 outer loop
  vertex -1.389 0.746 3
  vertex -1.428 1.011 2.7
  vertex -1.542 0.828 2.7
 endloop
endfacet
facet normal -0.787 0.362 0.499
 outer loop
  vertex -1.389 0.746 3
  vertex -1.542 0.828 2.7
  vertex -1.47 0.57 3
 endloop
endfacet
facet normal -0.787 0.362 0.499
 outer loop
  vertex -1.47 0.57 3
  vertex -1.542 0.828 2.7
  vertex -1.632 0.632 2.7
 endloop
endfacet
facet normal -0.826 0.263 0.499
 outer loop
  vertex -1.47 0.57 3
  vertex -1.632 0.632 2.7
  vertex -1.529 0.385 3
 endloop
endfacet
facet normal -0.826 0.263 0.499
 outer loop
  vertex -1.529 0.385 3
  vertex -1.632 0.632 2.7
  vertex -1.697 0.427 2.7
 endloop
endfacet
facet normal -0.852 0.159 0.499
 outer loop
  vertex -1.529 0.385 3
  vertex -1.697 0.427 2.7
  vertex -1.565 0.194 3
 endloop
endfacet
facet normal -0.852 0.159 0.499
 outer loop
  vertex -1.565 0.194 3
  vertex -1.697 0.427 2.7
  vertex -1.737 0.215 2.7
 endloop
endfacet
facet normal -0.865 0.053 0.499
 outer loop
  vertex -1.565 0.194 3
  vertex -1.737 0.215 2.7
  vertex -1.577 0 3
 endloop
endfacet
facet normal -0.865 0.053 0.499
 outer loop
  vertex -1.577 0 3
  vertex -1.737 0.215 2.7
  vertex -1.75 0 2.7
 endloop
endfacet
facet normal -0.865 -0.053 0.499
 outer loop
  vertex -1.577 0 3
  vertex -1.75 0 2.7
  vertex -1.565 -0.194 3
 endloop
endfacet
facet normal -0.865 -0.053 0.499
 outer loop
  vertex -1.565 -0.194 3
  vertex -1.75 0 2.7
  vertex -1.737 -0.215 2.7
 endloop
endfacet
facet normal -0.852 -0.159 0.499
 outer loop
  vertex -1.565 -0.194 3
  vertex -1.737 -0.215 2.7
  vertex -1.529 -0.385 3
 endloop
endfacet
facet normal -0.852 -0.159 0.499
 outer loop
  vertex -1.529 -0.385 3
  vertex -1.737 -0.215 2.7
  vertex -1.697 -0.427 2.7
 endloop
endfacet
facet normal -0.826 -0.263 0.499
 outer loop
  vertex -1.529 -0.385 3
  vertex -1.697 -0.427 2.7
  vertex -1.47 -0.57 3
 endloop
endfacet
facet normal -0.826 -0.263 0.499
 outer loop
  vertex -1.47 -0.57 3
  vertex -1.697 -0.427 2.7
  vertex -1.632 -0.632 2.7
 endloop
endfacet
facet normal -0.787 -0.362 0.499
 outer loop
  vertex -1.47 -0.57 3
  vertex -1.632 -0.632 2.7
  vertex -1.389 -0.746 3
 endloop
endfacet
facet normal -0.787 -0.362 0.499
 outer loop
  vertex -1.389 -0.746 3
  vertex -1.632 -0.632 2.7
  vertex -1.542 -0.828 2.7
 endloop
endfacet
facet normal -0.737 -0.456 0.499
 outer loop
  vertex -1.389 -0.746 3
  vertex -1.542 -0.828 2.7
  vertex -1.287 -0.911 3
 endloop
endfacet
facet normal -0.737 -0.456 0.499
 outer loop
  vertex -1.287 -0.911 3
  vertex -1.542 -0.828 2.7
  vertex -1.428 -1.011 2.7
 endloop
endfacet
facet normal -0.675 -0.543 0.499
 outer loop
  vertex -1.287 -0.911 3
  vertex -1.428 -1.011 2.7
  vertex -1.165 -1.062 3
 endloop
endfacet
facet normal -0.675 -0.543 0.499
 outer loop
  vertex -1.165 -1.062 3
  vertex -1.428 -1.011 2.7
  vertex -1.293 -1.179 2.7
 endloop
endfacet
facet normal -0.603 -0.622 0.499
 outer loop
  vertex -1.165 -1.062 3
  vertex -1.293 -1.179 2.7
  vertex -1.026 -1.197 3
 endloop
endfacet
facet normal -0.603 -0.622 0.499
 outer loop
  vertex -1.026 -1.197 3
  vertex -1.293 -1.179 2.7
  vertex -1.139 -1.329 2.7
 endloop
endfacet
facet normal -0.522 -0.691 0.499
 outer loop
  vertex -1.026 -1.197 3
  vertex -1.139 -1.329 2.7
  vertex -0.871 -1.314 3
 endloop
endfacet
facet normal -0.522 -0.691 0.499
 outer loop
  vertex -0.871 -1.314 3
  vertex -1.139 -1.329 2.7
  vertex -0.967 -1.459 2.7
 endloop
endfacet
facet normal -0.433 -0.75 0.499
 outer loop
  vertex -0.871 -1.314 3
  vertex -0.967 -1.459 2.7
  vertex -0.703 -1.411 3
 endloop
endfacet
facet normal -0.433 -0.75 0.499
 outer loop
  vertex -0.703 -1.411 3
  vertex -0.967 -1.459 2.7
  vertex -0.78 -1.567 2.7
 endloop
endfacet
facet normal -0.338 -0.798 0.499
 outer loop
  vertex -0.703 -1.411 3
  vertex -0.78 -1.567 2.7
  vertex -0.524 -1.487 3
 endloop
endfacet
facet normal -0.338 -0.798 0.499
 outer loop
  vertex -0.524 -1.487 3
  vertex -0.78 -1.567 2.7
  vertex -0.582 -1.651 2.7
 endloop
endfacet
facet normal -0.237 -0.833 0.499
 outer loop
  vertex -0.524 -1.487 3
  vertex -0.582 -1.651 2.7
  vertex -0.337 -1.54 3
 endloop
endfacet
facet normal -0.237 -0.833 0.499
 outer loop
  vertex -0.337 -1.54 3
  vertex -0.582 -1.651 2.7
  vertex -0.374 -1.709 2.7
 endloop
endfacet
facet normal -0.133 -0.856 0.499
 outer loop
  vertex -0.337 -1.54 3
  vertex -0.374 -1.709 2.7
  vertex -0.145 -1.57 3
 endloop
endfacet
facet normal -0.133 -0.856 0.499
 outer loop
  vertex -0.145 -1.57 3
  vertex -0.374 -1.709 2.7
  vertex -0.161 -1.743 2.7
 endloop
endfacet
facet normal -0.027 -0.866 0.499
 outer loop
  vertex -0.145 -1.57 3
  vertex -0.161 -1.743 2.7
  vertex 0.049 -1.576 3
 endloop
endfacet
facet normal -0.027 -0.866 0.499
 outer loop
  vertex 0.049 -1.576 3
  vertex -0.161 -1.743 2.7
  vertex 0.054 -1.749 2.7
 endloop
endfacet
facet normal 0.08 -0.863 0.499
 outer loop
  vertex 0.049 -1.576 3
  vertex 0.054 -1.749 2.7
  vertex 0.242 -1.558 3
 endloop
endfacet
facet normal 0.08 -0.863 0.499
 outer loop
  vertex 0.242 -1.558 3
  vertex 0.054 -1.749 2.7
  vertex 0.268 -1.729 2.7
 endloop
endfacet
facet normal 0.185 -0.846 0.499
 outer loop
  vertex 0.242 -1.558 3
  vertex 0.268 -1.729 2.7
  vertex 0.432 -1.517 3
 endloop
endfacet
facet normal 0.185 -0.846 0.499
 outer loop
  vertex 0.432 -1.517 3
  vertex 0.268 -1.729 2.7
  vertex 0.479 -1.683 2.7
 endloop
endfacet
facet normal 0.288 -0.817 0.499
 outer loop
  vertex 0.432 -1.517 3
  vertex 0.479 -1.683 2.7
  vertex 0.615 -1.452 3
 endloop
endfacet
facet normal 0.288 -0.817 0.499
 outer loop
  vertex 0.615 -1.452 3
  vertex 0.479 -1.683 2.7
  vertex 0.682 -1.612 2.7
 endloop
endfacet
facet normal 0.386 -0.776 0.499
 outer loop
  vertex 0.615 -1.452 3
  vertex 0.682 -1.612 2.7
  vertex 0.788 -1.366 3
 endloop
endfacet
facet normal 0.386 -0.776 0.499
 outer loop
  vertex 0.788 -1.366 3
  vertex 0.682 -1.612 2.7
  vertex 0.875 -1.516 2.7
 endloop
endfacet
facet normal 0.479 -0.722 0.499
 outer loop
  vertex 0.788 -1.366 3
  vertex 0.875 -1.516 2.7
  vertex 0.95 -1.258 3
 endloop
endfacet
facet normal 0.479 -0.722 0.499
 outer loop
  vertex 0.95 -1.258 3
  vertex 0.875 -1.516 2.7
  vertex 1.055 -1.397 2.7
 endloop
endfacet
facet normal 0.564 -0.658 0.499
 outer loop
  vertex 0.95 -1.258 3
  vertex 1.055 -1.397 2.7
  vertex 1.098 -1.132 3
 endloop
endfacet
facet normal 0.564 -0.658 0.499
 outer loop
  vertex 1.098 -1.132 3
  vertex 1.055 -1.397 2.7
  vertex 1.218 -1.256 2.7
 endloop
endfacet
facet normal 0.64 -0.584 0.499
 outer loop
  vertex 1.098 -1.132 3
  vertex 1.218 -1.256 2.7
  vertex 1.228 -0.989 3
 endloop
endfacet
facet normal 0.64 -0.584 0.499
 outer loop
  vertex 1.228 -0.989 3
  vertex 1.218 -1.256 2.7
  vertex 1.363 -1.097 2.7
 endloop
endfacet
facet normal 0.707 -0.501 0.499
 outer loop
  vertex 1.228 -0.989 3
  vertex 1.363 -1.097 2.7
  vertex 1.341 -0.83 3
 endloop
endfacet
facet normal 0.707 -0.501 0.499
 outer loop
  vertex 1.341 -0.83 3
  vertex 1.363 -1.097 2.7
  vertex 1.488 -0.921 2.7
 endloop
endfacet
facet normal 0.763 -0.41 0.499
 outer loop
  vertex 1.341 -0.83 3
  vertex 1.488 -0.921 2.7
  vertex 1.432 -0.659 3
 endloop
endfacet
facet normal 0.763 -0.41 0.499
 outer loop
  vertex 1.432 -0.659 3
  vertex 1.488 -0.921 2.7
  vertex 1.59 -0.731 2.7
 endloop
endfacet
facet normal 0.808 -0.313 0.499
 outer loop
  vertex 1.432 -0.659 3
  vertex 1.59 -0.731 2.7
  vertex 1.503 -0.478 3
 endloop
endfacet
facet normal 0.808 -0.313 0.499
 outer loop
  vertex 1.503 -0.478 3
  vertex 1.59 -0.731 2.7
  vertex 1.668 -0.531 2.7
 endloop
endfacet
facet normal 0.84 -0.211 0.499
 outer loop
  vertex 1.503 -0.478 3
  vertex 1.668 -0.531 2.7
  vertex 1.55 -0.29 3
 endloop
endfacet
facet normal 0.84 -0.211 0.499
 outer loop
  vertex 1.55 -0.29 3
  vertex 1.668 -0.531 2.7
  vertex 1.72 -0.322 2.7
 endloop
endfacet
facet normal 0.86 -0.106 0.499
 outer loop
  vertex 1.55 -0.29 3
  vertex 1.72 -0.322 2.7
  vertex 1.574 -0.097 3
 endloop
endfacet
facet normal 0.86 -0.106 0.499
 outer loop
  vertex 1.574 -0.097 3
  vertex 1.72 -0.322 2.7
  vertex 1.747 -0.108 2.7
 endloop
endfacet
facet normal -0 0 1
 outer loop
  vertex 0.998 -0.062 3
  vertex 1.574 -0.097 3
  vertex 1 0 3
 endloop
endfacet
facet normal -0 0 1
 outer loop
  vertex 1 0 3
  vertex 1.574 -0.097 3
  vertex 1.577 0 3
 endloop
endfacet
facet normal 0 -0 1
 outer loop
  vertex 1 0 3
  vertex 1.577 0 3
  vertex 0.998 0.062 3
 endloop
endfacet
facet normal -0 0 1
 outer loop
  vertex 0.998 0.062 3
  vertex 1.577 0 3
  vertex 1.574 0.097 3
 endloop
endfacet
facet normal 0 -0 1
 outer loop
  vertex 0.998 0.062 3
  vertex 1.574 0.097 3
  vertex 0.983 0.184 3
 endloop
endfacet
facet normal -0 0 1
 outer loop
  vertex 0.983 0.184 3
  vertex 1.574 0.097 3
  vertex 1.55 0.29 3
 endloop
endfacet
facet normal 0 -0 1
 outer loop
  vertex 0.983 0.184 3
  vertex 1.55 0.29 3
  vertex 0.953 0.303 3
 endloop
endfacet
facet normal -0 0 1
 outer loop
  vertex 0.953 0.303 3
  vertex 1.55 0.29 3
  vertex 1.503 0.478 3
 endloop
endfacet
facet normal 0 -0 1
 outer loop
  vertex 0.953 0.303 3
  vertex 1.503 0.478 3
  vertex 0.908 0.418 3
 endloop
endfacet
facet normal 0 0 1
 outer loop
  vertex 0.908 0.418 3
  vertex 1.503 0.478 3
  vertex 1.432 0.659 3
 endloop
endfacet
facet normal 0 -0 1
 outer loop
  vertex 0.908 0.418 3
  vertex 1.432 0.659 3
  vertex 0.85 0.526 3
 endloop
endfacet
facet normal 0 0 1
 outer loop
  vertex 0.85 0.526 3
  vertex 1.432 0.659 3
  vertex 1.341 0.83 3
 endloop
endfacet
facet normal 0 -0 1
 outer loop
  vertex 0.85 0.526 3
  vertex 1.341 0.83 3
  vertex 0.779 0.627 3
 endloop
endfacet
facet normal 0 0 1
 outer loop
  vertex 0.779 0.627 3
  vertex 1.341 0.83 3
  vertex 1.228 0.989 3
 endloop
endfacet
facet normal 0 -0 1
 outer loop
  vertex 0.779 0.627 3
  vertex 1.228 0.989 3
  vertex 0.696 0.718 3
 endloop
endfacet
facet normal 0 0 1
 outer loop
  vertex 0.696 0.718 3
  vertex 1.228 0.989 3
  vertex 1.098 1.132 3
 endloop
endfacet
facet normal 0 -0 1
 outer loop
  vertex 0.696 0.718 3
  vertex 1.098 1.132 3
  vertex 0.603 0.798 3
 endloop
endfacet
facet normal 0 0 1
 outer loop
  vertex 0.603 0.798 3
  vertex 1.098 1.132 3
  vertex 0.95 1.258 3
 endloop
endfacet
facet normal 0 -0 1
 outer loop
  vertex 0.603 0.798 3
  vertex 0.95 1.258 3
  vertex 0.5 0.866 3
 endloop
endfacet
facet normal 0 0 1
 outer loop
  vertex 0.5 0.866 3
  vertex 0.95 1.258 3
  vertex 0.788 1.366 3
 endloop
endfacet
facet normal 0 -0 1
 outer loop
  vertex 0.5 0.866 3
  vertex 0.788 1.366 3
  vertex 0.39 0.921 3
 endloop
endfacet
facet normal 0 0 1
 outer loop
  vertex 0.39 0.921 3
  vertex 0.788 1.366 3
  vertex 0.615 1.452 3
 endloop
endfacet
facet normal 0 -0 1
 outer loop
  vertex 0.39 0.921 3
  vertex 0.615 1.452 3
  vertex 0.274 0.962 3
 endloop
endfacet
facet normal 0 0 1
 outer loop
  vertex 0.274 0.962 3
  vertex 0.615 1.452 3
  vertex 0.432 1.517 3
 endloop
endfacet
facet normal 0 -0 1
 outer loop
  vertex 0.274 0.962 3
  vertex 0.432 1.517 3
  vertex 0.153 0.988 3
 endloop
endfacet
facet normal 0 0 1
 outer loop
  vertex 0.153 0.988 3
  vertex 0.432 1.517 3
  vertex 0.242 1.558 3
 endloop
endfacet
facet normal 0 -0 1
 outer loop
  vertex 0.153 0.988 3
  vertex 0.242 1.558 3
  vertex 0.031 1 3
 endloop
endfacet
facet normal 0 0 1
 outer loop
  vertex 0.031 1 3
  vertex 0.242 1.558 3
  vertex 0.049 1.576 3
 endloop
endfacet
facet normal 0 -0 1
 outer loop
  vertex 0.031 1 3
  vertex 0.049 1.576 3
  vertex -0.145 1.57 3
 endloop
endfacet
facet normal 0 0 1
 outer loop
  vertex 0.998 -0.062 3
  vertex 0.983 -0.184 3
  vertex 1.574 -0.097 3
 endloop
endfacet
facet normal 0 0 1
 outer loop
  vertex 1.574 -0.097 3
  vertex 0.983 -0.184 3
  vertex 1.55 -0.29 3
 endloop
endfacet
facet normal 0 0 1
 outer loop
  vertex 0.983 -0.184 3
  vertex 0.953 -0.303 3
  vertex 1.55 -0.29 3
 endloop
endfacet
facet normal 0 0 1
 outer loop
  vertex 1.55 -0.29 3
  vertex 0.953 -0.303 3
  vertex 1.503 -0.478 3
 endloop
endfacet
facet normal 0 0 1
 outer loop
  vertex 0.953 -0.303 3
  vertex 0.908 -0.418 3
  vertex 1.503 -0.478 3
 endloop
endfacet
facet normal 0 0 1
 outer loop
  vertex 1.503 -0.478 3
  vertex 0.908 -0.418 3
  vertex 1.432 -0.659 3
 endloop
endfacet
facet normal 0 0 1
 outer loop
  vertex 0.908 -0.418 3
  vertex 0.85 -0.526 3
  vertex 1.432 -0.659 3
 endloop
endfacet
facet normal 0 0 1
 outer loop
  vertex 1.432 -0.659 3
  vertex 0.85 -0.526 3
  vertex 1.341 -0.83 3
 endloop
endfacet
facet normal 0 0 1
 outer loop
  vertex 0.85 -0.526 3
  vertex 0.779 -0.627 3
  vertex 1.341 -0.83 3
 endloop
endfacet
facet normal 0 0 1
 outer loop
  vertex 1.341 -0.83 3
  vertex 0.779 -0.627 3
  vertex 1.228 -0.989 3
 endloop
endfacet
facet normal 0 0 1
 outer loop
  vertex 0.779 -0.627 3
  vertex 0.696 -0.718 3
  vertex 1.228 -0.989 3
 endloop
endfacet
facet normal 0 0 1
 outer loop
  vertex 1.228 -0.989 3
  vertex 0.696 -0.718 3
  vertex 1.098 -1.132 3
 endloop
endfacet
facet normal 0 0 1
 outer loop
  vertex 0.696 -0.718 3
  vertex 0.603 -0.798 3
  vertex 1.098 -1.132 3
 endloop
endfacet
facet normal 0 0 1
 outer loop
  vertex 1.098 -1.132 3
  vertex 0.603 -0.798 3
  vertex 0.95 -1.258 3
 endloop
endfacet
facet normal 0 0 1
 outer loop
  vertex 0.603 -0.798 3
  vertex 0.5 -0.866 3
  vertex 0.95 -1.258 3
 endloop
endfacet
facet normal 0 0 1
 outer loop
  vertex 0.95 -1.258 3
  vertex 0.5 -0.866 3
  vertex 0.788 -1.366 3
 endloop
endfacet
facet normal 0 0 1
 outer loop
  vertex 0.5 -0.866 3
  vertex 0.39 -0.921 3
  vertex 0.788 -1.366 3
 endloop
endfacet
facet normal 0 0 1
 outer loop
  vertex 0.788 -1.366 3
  vertex 0.39 -0.921 3
  vertex 0.615 -1.452 3
 endloop
endfacet
facet normal 0 0 1
 outer loop
  vertex 0.39 -0.921 3
  vertex 0.274 -0.962 3
  vertex 0.615 -1.452 3
 endloop
endfacet
facet normal 0 0 1
 outer loop
  vertex 0.615 -1.452 3
  vertex 0.274 -0.962 3
  vertex 0.432 -1.517 3
 endloop
endfacet
facet normal 0 0 1
 outer loop
  vertex 0.274 -0.962 3
  vertex 0.153 -0.988 3
  vertex 0.432 -1.517 3
 endloop
endfacet
facet normal 0 0 1
 outer loop
  vertex 0.432 -1.517 3
  vertex 0.153 -0.988 3
  vertex 0.242 -1.558 3
 endloop
endfacet
facet normal 0 0 1
 outer loop
  vertex 0.153 -0.988 3
  vertex 0.031 -1 3
  vertex 0.242 -1.558 3
 endloop
endfacet
facet normal 0 0 1
 outer loop
  vertex 0.242 -1.558 3
  vertex 0.031 -1 3
  vertex 0.049 -1.576 3
 endloop
endfacet
facet normal 0 0 1
 outer loop
  vertex 0.049 -1.576 3
  vertex 0.031 -1 3
  vertex -0.145 -1.57 3
 endloop
endfacet
facet normal 0 0 1
 outer loop
  vertex -0.145 -1.57 3
  vertex 0.031 -1 3
  vertex -0.092 -0.996 3
 endloop
endfacet
facet normal 0 -0 1
 outer loop
  vertex -0.145 -1.57 3
  vertex -0.092 -0.996 3
  vertex -0.337 -1.54 3
 endloop
endfacet
facet normal 0 0 1
 outer loop
  vertex -0.337 -1.54 3
  vertex -0.092 -0.996 3
  vertex -0.214 -0.977 3
 endloop
endfacet
facet normal 0 -0 1
 outer loop
  vertex -0.337 -1.54 3
  vertex -0.214 -0.977 3
  vertex -0.524 -1.487 3
 endloop
endfacet
facet normal 0 0 1
 outer loop
  vertex -0.524 -1.487 3
  vertex -0.214 -0.977 3
  vertex -0.332 -0.943 3
 endloop
endfacet
facet normal 0 -0 1
 outer loop
  vertex -0.524 -1.487 3
  vertex -0.332 -0.943 3
  vertex -0.703 -1.411 3
 endloop
endfacet
facet normal 0 0 1
 outer loop
  vertex -0.703 -1.411 3
  vertex -0.332 -0.943 3
  vertex -0.446 -0.895 3
 endloop
endfacet
facet normal 0 -0 1
 outer loop
  vertex -0.703 -1.411 3
  vertex -0.446 -0.895 3
  vertex -0.871 -1.314 3
 endloop
endfacet
facet normal 0 0 1
 outer loop
  vertex -0.871 -1.314 3
  vertex -0.446 -0.895 3
  vertex -0.552 -0.834 3
 endloop
endfacet
facet normal 0 -0 1
 outer loop
  vertex -0.871 -1.314 3
  vertex -0.552 -0.834 3
  vertex -1.026 -1.197 3
 endloop
endfacet
facet normal 0 0 1
 outer loop
  vertex -1.026 -1.197 3
  vertex -0.552 -0.834 3
  vertex -0.651 -0.759 3
 endloop
endfacet
facet normal 0 -0 1
 outer loop
  vertex -1.026 -1.197 3
  vertex -0.651 -0.759 3
  vertex -1.165 -1.062 3
 endloop
endfacet
facet normal 0 0 1
 outer loop
  vertex -1.165 -1.062 3
  vertex -0.651 -0.759 3
  vertex -0.739 -0.674 3
 endloop
endfacet
facet normal 0 -0 1
 outer loop
  vertex -1.165 -1.062 3
  vertex -0.739 -0.674 3
  vertex -1.287 -0.911 3
 endloop
endfacet
facet normal 0 0 1
 outer loop
  vertex -1.287 -0.911 3
  vertex -0.739 -0.674 3
  vertex -0.816 -0.578 3
 endloop
endfacet
facet normal 0 -0 1
 outer loop
  vertex -1.287 -0.911 3
  vertex -0.816 -0.578 3
  vertex -1.389 -0.746 3
 endloop
endfacet
facet normal 0 0 1
 outer loop
  vertex -1.389 -0.746 3
  vertex -0.816 -0.578 3
  vertex -0.881 -0.473 3
 endloop
endfacet
facet normal 0 -0 1
 outer loop
  vertex -1.389 -0.746 3
  vertex -0.881 -0.473 3
  vertex -1.47 -0.57 3
 endloop
endfacet
facet normal 0 0 1
 outer loop
  vertex -1.47 -0.57 3
  vertex -0.881 -0.473 3
  vertex -0.932 -0.361 3
 endloop
endfacet
facet normal 0 -0 1
 outer loop
  vertex -1.47 -0.57 3
  vertex -0.932 -0.361 3
  vertex -1.529 -0.385 3
 endloop
endfacet
facet normal 0 0 1
 outer loop
  vertex -1.529 -0.385 3
  vertex -0.932 -0.361 3
  vertex -0.97 -0.244 3
 endloop
endfacet
facet normal 0 -0 1
 outer loop
  vertex -1.529 -0.385 3
  vertex -0.97 -0.244 3
  vertex -1.565 -0.194 3
 endloop
endfacet
facet normal -0 0 1
 outer loop
  vertex -1.565 -0.194 3
  vertex -0.97 -0.244 3
  vertex -0.992 -0.123 3
 endloop
endfacet
facet normal 0 -0 1
 outer loop
  vertex -1.565 -0.194 3
  vertex -0.992 -0.123 3
  vertex -1.577 0 3
 endloop
endfacet
facet normal 0 0 1
 outer loop
  vertex -1.577 0 3
  vertex -0.992 -0.123 3
  vertex -1 0 3
 endloop
endfacet
facet normal -0 0 1
 outer loop
  vertex -1.577 0 3
  vertex -1 0 3
  vertex -0.992 0.123 3
 endloop
endfacet
facet normal 0 0 1
 outer loop
  vertex -1.577 0 3
  vertex -0.992 0.123 3
  vertex -1.565 0.194 3
 endloop
endfacet
facet normal -0 0 1
 outer loop
  vertex -1.565 0.194 3
  vertex -0.992 0.123 3
  vertex -0.97 0.244 3
 endloop
endfacet
facet normal 0 0 1
 outer loop
  vertex -1.565 0.194 3
  vertex -0.97 0.244 3
  vertex -1.529 0.385 3
 endloop
endfacet
facet normal 0 0 1
 outer loop
  vertex -1.529 0.385 3
  vertex -0.97 0.244 3
  vertex -0.932 0.361 3
 endloop
endfacet
facet normal -0 0 1
 outer loop
  vertex -1.529 0.385 3
  vertex -0.932 0.361 3
  vertex -1.47 0.57 3
 endloop
endfacet
facet normal 0 0 1
 outer loop
  vertex -1.47 0.57 3
  vertex -0.932 0.361 3
  vertex -0.881 0.473 3
 endloop
endfacet
facet normal -0 0 1
 outer loop
  vertex -1.47 0.57 3
  vertex -0.881 0.473 3
  vertex -1.389 0.746 3
 endloop
endfacet
facet normal 0 0 1
 outer loop
  vertex -1.389 0.746 3
  vertex -0.881 0.473 3
  vertex -0.816 0.578 3
 endloop
endfacet
facet normal -0 0 1
 outer loop
  vertex -1.389 0.746 3
  vertex -0.816 0.578 3
  vertex -1.287 0.911 3
 endloop
endfacet
facet normal 0 0 1
 outer loop
  vertex -1.287 0.911 3
  vertex -0.816 0.578 3
  vertex -0.739 0.674 3
 endloop
endfacet
facet normal -0 0 1
 outer loop
  vertex -1.287 0.911 3
  vertex -0.739 0.674 3
  vertex -1.165 1.062 3
 endloop
endfacet
facet normal 0 0 1
 outer loop
  vertex -1.165 1.062 3
  vertex -0.739 0.674 3
  vertex -0.651 0.759 3
 endloop
endfacet
facet normal -0 0 1
 outer loop
  vertex -1.165 1.062 3
  vertex -0.651 0.759 3
  vertex -1.026 1.197 3
 endloop
endfacet
facet normal 0 0 1
 outer loop
  vertex -1.026 1.197 3
  vertex -0.651 0.759 3
  vertex -0.552 0.834 3
 endloop
endfacet
facet normal -0 0 1
 outer loop
  vertex -1.026 1.197 3
  vertex -0.552 0.834 3
  vertex -0.871 1.314 3
 endloop
endfacet
facet normal 0 0 1
 outer loop
  vertex -0.871 1.314 3
  vertex -0.552 0.834 3
  vertex -0.446 0.895 3
 endloop
endfacet
facet normal -0 0 1
 outer loop
  vertex -0.871 1.314 3
  vertex -0.446 0.895 3
  vertex -0.703 1.411 3
 endloop
endfacet
facet normal 0 0 1
 outer loop
  vertex -0.703 1.411 3
  vertex -0.446 0.895 3
  vertex -0.332 0.943 3
 endloop
endfacet
facet normal -0 0 1
 outer loop
  vertex -0.703 1.411 3
  vertex -0.332 0.943 3
  vertex -0.524 1.487 3
 endloop
endfacet
facet normal 0 0 1
 outer loop
  vertex -0.524 1.487 3
  vertex -0.332 0.943 3
  vertex -0.214 0.977 3
 endloop
endfacet
facet normal -0 0 1
 outer loop
  vertex -0.524 1.487 3
  vertex -0.214 0.977 3
  vertex -0.337 1.54 3
 endloop
endfacet
facet normal 0 0 1
 outer loop
  vertex -0.337 1.54 3
  vertex -0.214 0.977 3
  vertex -0.092 0.996 3
 endloop
endfacet
facet normal -0 0 1
 outer loop
  vertex -0.337 1.54 3
  vertex -0.092 0.996 3
  vertex -0.145 1.57 3
 endloop
endfacet
facet normal 0 0 1
 outer loop
  vertex -0.145 1.57 3
  vertex -0.092 0.996 3
  vertex 0.031 1 3
 endloop
endfacet
facet normal -1 0.031 0
 outer loop
  vertex 0.998 -0.062 0.5
  vertex 0.998 -0.062 3
  vertex 1 0 0.5
 endloop
endfacet
facet normal -1 0.031 0
 outer loop
  vertex 1 0 0.5
  vertex 0.998 -0.062 3
  vertex 1 0 3
 endloop
endfacet
facet normal -1 -0.031 0
 outer loop
  vertex 1 0 0.5
  vertex 1 0 3
  vertex 0.998 0.062 0.5
 endloop
endfacet
facet normal -1 -0.031 0
 outer loop
  vertex 0.998 0.062 0.5
  vertex 1 0 3
  vertex 0.998 0.062 3
 endloop
endfacet
facet normal -0.992 -0.123 0
 outer loop
  vertex 0.998 0.062 0.5
  vertex 0.998 0.062 3
  vertex 0.983 0.184 0.5
 endloop
endfacet
facet normal -0.992 -0.123 0
 outer loop
  vertex 0.983 0.184 0.5
  vertex 0.998 0.062 3
  vertex 0.983 0.184 3
 endloop
endfacet
facet normal -0.97 -0.244 0
 outer loop
  vertex 0.983 0.184 0.5
  vertex 0.983 0.184 3
  vertex 0.953 0.303 0.5
 endloop
endfacet
facet normal -0.97 -0.244 0
 outer loop
  vertex 0.953 0.303 0.5
  vertex 0.983 0.184 3
  vertex 0.953 0.303 3
 endloop
endfacet
facet normal -0.932 -0.361 0
 outer loop
  vertex 0.953 0.303 0.5
  vertex 0.953 0.303 3
  vertex 0.908 0.418 0.5
 endloop
endfacet
facet normal -0.932 -0.361 0
 outer loop
  vertex 0.908 0.418 0.5
  vertex 0.953 0.303 3
  vertex 0.908 0.418 3
 endloop
endfacet
facet normal -0.881 -0.473 0
 outer loop
  vertex 0.908 0.418 0.5
  vertex 0.908 0.418 3
  vertex 0.85 0.526 0.5
 endloop
endfacet
facet normal -0.881 -0.473 0
 outer loop
  vertex 0.85 0.526 0.5
  vertex 0.908 0.418 3
  vertex 0.85 0.526 3
 endloop
endfacet
facet normal -0.816 -0.578 0
 outer loop
  vertex 0.85 0.526 0.5
  vertex 0.85 0.526 3
  vertex 0.779 0.627 0.5
 endloop
endfacet
facet normal -0.816 -0.578 0
 outer loop
  vertex 0.779 0.627 0.5
  vertex 0.85 0.526 3
  vertex 0.779 0.627 3
 endloop
endfacet
facet normal -0.739 -0.674 0
 outer loop
  vertex 0.779 0.627 0.5
  vertex 0.779 0.627 3
  vertex 0.696 0.718 0.5
 endloop
endfacet
facet normal -0.739 -0.674 0
 outer loop
  vertex 0.696 0.718 0.5
  vertex 0.779 0.627 3
  vertex 0.696 0.718 3
 endloop
endfacet
facet normal -0.651 -0.759 0
 outer loop
  vertex 0.696 0.718 0.5
  vertex 0.696 0.718 3
  vertex 0.603 0.798 0.5
 endloop
endfacet
facet normal -0.651 -0.759 0
 outer loop
  vertex 0.603 0.798 0.5
  vertex 0.696 0.718 3
  vertex 0.603 0.798 3
 endloop
endfacet
facet normal -0.552 -0.834 0
 outer loop
  vertex 0.603 0.798 0.5
  vertex 0.603 0.798 3
  vertex 0.5 0.866 0.5
 endloop
endfacet
facet normal -0.552 -0.834 0
 outer loop
  vertex 0.5 0.866 0.5
  vertex 0.603 0.798 3
  vertex 0.5 0.866 3
 endloop
endfacet
facet normal -0.446 -0.895 0
 outer loop
  vertex 0.5 0.866 0.5
  vertex 0.5 0.866 3
  vertex 0.39 0.921 0.5
 endloop
endfacet
facet normal -0.446 -0.895 0
 outer loop
  vertex 0.39 0.921 0.5
  vertex 0.5 0.866 3
  vertex 0.39 0.921 3
 endloop
endfacet
facet normal -0.332 -0.943 0
 outer loop
  vertex 0.39 0.921 0.5
  vertex 0.39 0.921 3
  vertex 0.274 0.962 0.5
 endloop
endfacet
facet normal -0.332 -0.943 0
 outer loop
  vertex 0.274 0.962 0.5
  vertex 0.39 0.921 3
  vertex 0.274 0.962 3
 endloop
endfacet
facet normal -0.214 -0.977 0
 outer loop
  vertex 0.274 0.962 0.5
  vertex 0.274 0.962 3
  vertex 0.153 0.988 0.5
 endloop
endfacet
facet normal -0.214 -0.977 0
 outer loop
  vertex 0.153 0.988 0.5
  vertex 0.274 0.962 3
  vertex 0.153 0.988 3
 endloop
endfacet
facet normal -0.092 -0.996 0
 outer loop
  vertex 0.153 0.988 0.5
  vertex 0.153 0.988 3
  vertex 0.031 1 0.5
 endloop
endfacet
facet normal -0.092 -0.996 0
 outer loop
  vertex 0.031 1 0.5
  vertex 0.153 0.988 3
  vertex 0.031 1 3
 endloop
endfacet
facet normal 0.031 -1 0
 outer loop
  vertex 0.031 1 0.5
  vertex 0.031 1 3
  vertex -0.092 0.996 0.5
 endloop
endfacet
facet normal 0.031 -1 0
 outer loop
  vertex -0.092 0.996 0.5
  vertex 0.031 1 3
  vertex -0.092 0.996 3
 endloop
endfacet
facet normal 0.153 -0.988 0
 outer loop
  vertex -0.092 0.996 0.5
  vertex -0.092 0.996 3
  vertex -0.214 0.977 0.5
 endloop
endfacet
facet normal 0.153 -0.988 0
 outer loop
  vertex -0.214 0.977 0.5
  vertex -0.092 0.996 3
  vertex -0.214 0.977 3
 endloop
endfacet
facet normal 0.274 -0.962 0
 outer loop
  vertex -0.214 0.977 0.5
  vertex -0.214 0.977 3
  vertex -0.332 0.943 0.5
 endloop
endfacet
facet normal 0.274 -0.962 0
 outer loop
  vertex -0.332 0.943 0.5
  vertex -0.214 0.977 3
  vertex -0.332 0.943 3
 endloop
endfacet
facet normal 0.39 -0.921 0
 outer loop
  vertex -0.332 0.943 0.5
  vertex -0.332 0.943 3
  vertex -0.446 0.895 0.5
 endloop
endfacet
facet normal 0.39 -0.921 0
 outer loop
  vertex -0.446 0.895 0.5
  vertex -0.332 0.943 3
  vertex -0.446 0.895 3
 endloop
endfacet
facet normal 0.5 -0.866 0
 outer loop
  vertex -0.446 0.895 0.5
  vertex -0.446 0.895 3
  vertex -0.552 0.834 0.5
 endloop
endfacet
facet normal 0.5 -0.866 0
 outer loop
  vertex -0.552 0.834 0.5
  vertex -0.446 0.895 3
  vertex -0.552 0.834 3
 endloop
endfacet
facet normal 0.603 -0.798 0
 outer loop
  vertex -0.552 0.834 0.5
  vertex -0.552 0.834 3
  vertex -0.651 0.759 0.5
 endloop
endfacet
facet normal 0.603 -0.798 0
 outer loop
  vertex -0.651 0.759 0.5
  vertex -0.552 0.834 3
  vertex -0.651 0.759 3
 endloop
endfacet
facet normal 0.696 -0.718 0
 outer loop
  vertex -0.651 0.759 0.5
  vertex -0.651 0.759 3
  vertex -0.739 0.674 0.5
 endloop
endfacet
facet normal 0.696 -0.718 0
 outer loop
  vertex -0.739 0.674 0.5
  vertex -0.651 0.759 3
  vertex -0.739 0.674 3
 endloop
endfacet
facet normal 0.779 -0.627 0
 outer loop
  vertex -0.739 0.674 0.5
  vertex -0.739 0.674 3
  vertex -0.816 0.578 0.5
 endloop
endfacet
facet normal 0.779 -0.627 0
 outer loop
  vertex -0.816 0.578 0.5
  vertex -0.739 0.674 3
  vertex -0.816 0.578 3
 endloop
endfacet
facet normal 0.85 -0.526 0
 outer loop
  vertex -0.816 0.578 0.5
  vertex -0.816 0.578 3
  vertex -0.881 0.473 0.5
 endloop
endfacet
facet normal 0.85 -0.526 0
 outer loop
  vertex -0.881 0.473 0.5
  vertex -0.816 0.578 3
  vertex -0.881 0.473 3
 endloop
endfacet
facet normal 0.908 -0.418 0
 outer loop
  vertex -0.881 0.473 0.5
  vertex -0.881 0.473 3
  vertex -0.932 0.361 0.5
 endloop
endfacet
facet normal 0.908 -0.418 0
 outer loop
  vertex -0.932 0.361 0.5
  vertex -0.881 0.473 3
  vertex -0.932 0.361 3
 endloop
endfacet
facet normal 0.953 -0.303 0
 outer loop
  vertex -0.932 0.361 0.5
  vertex -0.932 0.361 3
  vertex -0.97 0.244 0.5
 endloop
endfacet
facet normal 0.953 -0.303 0
 outer loop
  vertex -0.97 0.244 0.5
  vertex -0.932 0.361 3
  vertex -0.97 0.244 3
 endloop
endfacet
facet normal 0.983 -0.184 0
 outer loop
  vertex -0.97 0.244 0.5
  vertex -0.97 0.244 3
  vertex -0.992 0.123 0.5
 endloop
endfacet
facet normal 0.983 -0.184 0
 outer loop
  vertex -0.992 0.123 0.5
  vertex -0.97 0.244 3
  vertex -0.992 0.123 3
 endloop
endfacet
facet normal 0.998 -0.062 0
 outer loop
  vertex -0.992 0.123 0.5
  vertex -0.992 0.123 3
  vertex -1 0 0.5
 endloop
endfacet
facet normal 0.998 -0.062 0
 outer loop
  vertex -1 0 0.5
  vertex -0.992 0.123 3
  vertex -1 0 3
 endloop
endfacet
facet normal 0.998 0.062 -0
 outer loop
  vertex -1 0 0.5
  vertex -1 0 3
  vertex -0.992 -0.123 0.5
 endloop
endfacet
facet normal 0.998 0.062 -0
 outer loop
  vertex -0.992 -0.123 0.5
  vertex -1 0 3
  vertex -0.992 -0.123 3
 endloop
endfacet
facet normal 0.983 0.184 -0
 outer loop
  vertex -0.992 -0.123 0.5
  vertex -0.992 -0.123 3
  vertex -0.97 -0.244 0.5
 endloop
endfacet
facet normal 0.983 0.184 -0
 outer loop
  vertex -0.97 -0.244 0.5
  vertex -0.992 -0.123 3
  vertex -0.97 -0.244 3
 endloop
endfacet
facet normal 0.953 0.303 -0
 outer loop
  vertex -0.97 -0.244 0.5
  vertex -0.97 -0.244 3
  vertex -0.932 -0.361 0.5
 endloop
endfacet
facet normal 0.953 0.303 -0
 outer loop
  vertex -0.932 -0.361 0.5
  vertex -0.97 -0.244 3
  vertex -0.932 -0.361 3
 endloop
endfacet
facet normal 0.908 0.418 -0
 outer loop
  vertex -0.932 -0.361 0.5
  vertex -0.932 -0.361 3
  vertex -0.881 -0.473 0.5
 endloop
endfacet
facet normal 0.908 0.418 -0
 outer loop
  vertex -0.881 -0.473 0.5
  vertex -0.932 -0.361 3
  vertex -0.881 -0.473 3
 endloop
endfacet
facet normal 0.85 0.526 -0
 outer loop
  vertex -0.881 -0.473 0.5
  vertex -0.881 -0.473 3
  vertex -0.816 -0.578 0.5
 endloop
endfacet
facet normal 0.85 0.526 -0
 outer loop
  vertex -0.816 -0.578 0.5
  vertex -0.881 -0.473 3
  vertex -0.816 -0.578 3
 endloop
endfacet
facet normal 0.779 0.627 -0
 outer loop
  vertex -0.816 -0.578 0.5
  vertex -0.816 -0.578 3
  vertex -0.739 -0.674 0.5
 endloop
endfacet
facet normal 0.779 0.627 -0
 outer loop
  vertex -0.739 -0.674 0.5
  vertex -0.816 -0.578 3
  vertex -0.739 -0.674 3
 endloop
endfacet
facet normal 0.696 0.718 -0
 outer loop
  vertex -0.739 -0.674 0.5
  vertex -0.739 -0.674 3
  vertex -0.651 -0.759 0.5
 endloop
endfacet
facet normal 0.696 0.718 -0
 outer loop
  vertex -0.651 -0.759 0.5
  vertex -0.739 -0.674 3
  vertex -0.651 -0.759 3
 endloop
endfacet
facet normal 0.603 0.798 -0
 outer loop
  vertex -0.651 -0.759 0.5
  vertex -0.651 -0.759 3
  vertex -0.552 -0.834 0.5
 endloop
endfacet
facet normal 0.603 0.798 -0
 outer loop
  vertex -0.552 -0.834 0.5
  vertex -0.651 -0.759 3
  vertex -0.552 -0.834 3
 endloop
endfacet
facet normal 0.5 0.866 -0
 outer loop
  vertex -0.552 -0.834 0.5
  vertex -0.552 -0.834 3
  vertex -0.446 -0.895 0.5
 endloop
endfacet
facet normal 0.5 0.866 -0
 outer loop
  vertex -0.446 -0.895 0.5
  vertex -0.552 -0.834 3
  vertex -0.446 -0.895 3
 endloop
endfacet
facet normal 0.39 0.921 -0
 outer loop
  vertex -0.446 -0.895 0.5
  vertex -0.446 -0.895 3
  vertex -0.332 -0.943 0.5
 endloop
endfacet
facet normal 0.39 0.921 -0
 outer loop
  vertex -0.332 -0.943 0.5
  vertex -0.446 -0.895 3
  vertex -0.332 -0.943 3
 endloop
endfacet
facet normal 0.274 0.962 -0
 outer loop
  vertex -0.332 -0.943 0.5
  vertex -0.332 -0.943 3
  vertex -0.214 -0.977 0.5
 endloop
endfacet
facet normal 0.274 0.962 -0
 outer loop
  vertex -0.214 -0.977 0.5
  vertex -0.332 -0.943 3
  vertex -0.214 -0.977 3
 endloop
endfacet
facet normal 0.153 0.988 -0
 outer loop
  vertex -0.214 -0.977 0.5
  vertex -0.214 -0.977 3
  vertex -0.092 -0.996 0.5
 endloop
endfacet
facet normal 0.153 0.988 -0
 outer loop
  vertex -0.092 -0.996 0.5
  vertex -0.214 -0.977 3
  vertex -0.092 -0.996 3
 endloop
endfacet
facet normal 0.031 1 -0
 outer loop
  vertex -0.092 -0.996 0.5
  vertex -0.092 -0.996 3
  vertex 0.031 -1 0.5
 endloop
endfacet
facet normal 0.031 1 -0
 outer loop
  vertex 0.031 -1 0.5
  vertex -0.092 -0.996 3
  vertex 0.031 -1 3
 endloop
endfacet
facet normal -0.092 0.996 0
 outer loop
  vertex 0.031 -1 0.5
  vertex 0.031 -1 3
  vertex 0.153 -0.988 0.5
 endloop
endfacet
facet normal -0.092 0.996 0
 outer loop
  vertex 0.153 -0.988 0.5
  vertex 0.031 -1 3
  vertex 0.153 -0.988 3
 endloop
endfacet
facet normal -0.214 0.977 0
 outer loop
  vertex 0.153 -0.988 0.5
  vertex 0.153 -0.988 3
  vertex 0.274 -0.962 0.5
 endloop
endfacet
facet normal -0.214 0.977 0
 outer loop
  vertex 0.274 -0.962 0.5
  vertex 0.153 -0.988 3
  vertex 0.274 -0.962 3
 endloop
endfacet
facet normal -0.332 0.943 0
 outer loop
  vertex 0.274 -0.962 0.5
  vertex 0.274 -0.962 3
  vertex 0.39 -0.921 0.5
 endloop
endfacet
facet normal -0.332 0.943 0
 outer loop
  vertex 0.39 -0.921 0.5
  vertex 0.274 -0.962 3
  vertex 0.39 -0.921 3
 endloop
endfacet
facet normal -0.446 0.895 0
 outer loop
  vertex 0.39 -0.921 0.5
  vertex 0.39 -0.921 3
  vertex 0.5 -0.866 0.5
 endloop
endfacet
facet normal -0.446 0.895 0
 outer loop
  vertex 0.5 -0.866 0.5
  vertex 0.39 -0.921 3
  vertex 0.5 -0.866 3
 endloop
endfacet
facet normal -0.552 0.834 0
 outer loop
  vertex 0.5 -0.866 0.5
  vertex 0.5 -0.866 3
  vertex 0.603 -0.798 0.5
 endloop
endfacet
facet normal -0.552 0.834 0
 outer loop
  vertex 0.603 -0.798 0.5
  vertex 0.5 -0.866 3
  vertex 0.603 -0.798 3
 endloop
endfacet
facet normal -0.651 0.759 0
 outer loop
  vertex 0.603 -0.798 0.5
  vertex 0.603 -0.798 3
  vertex 0.696 -0.718 0.5
 endloop
endfacet
facet normal -0.651 0.759 0
 outer loop
  vertex 0.696 -0.718 0.5
  vertex 0.603 -0.798 3
  vertex 0.696 -0.718 3
 endloop
endfacet
facet normal -0.739 0.674 0
 outer loop
  vertex 0.696 -0.718 0.5
  vertex 0.696 -0.718 3
  vertex 0.779 -0.627 0.5
 endloop
endfacet
facet normal -0.739 0.674 0
 outer loop
  vertex 0.779 -0.627 0.5
  vertex 0.696 -0.718 3
  vertex 0.779 -0.627 3
 endloop
endfacet
facet normal -0.816 0.578 0
 outer loop
  vertex 0.779 -0.627 0.5
  vertex 0.779 -0.627 3
  vertex 0.85 -0.526 0.5
 endloop
endfacet
facet normal -0.816 0.578 0
 outer loop
  vertex 0.85 -0.526 0.5
  vertex 0.779 -0.627 3
  vertex 0.85 -0.526 3
 endloop
endfacet
facet normal -0.881 0.473 0
 outer loop
  vertex 0.85 -0.526 0.5
  vertex 0.85 -0.526 3
  vertex 0.908 -0.418 0.5
 endloop
endfacet
facet normal -0.881 0.473 0
 outer loop
  vertex 0.908 -0.418 0.5
  vertex 0.85 -0.526 3
  vertex 0.908 -0.418 3
 endloop
endfacet
facet normal -0.932 0.361 0
 outer loop
  vertex 0.908 -0.418 0.5
  vertex 0.908 -0.418 3
  vertex 0.953 -0.303 0.5
 endloop
endfacet
facet normal -0.932 0.361 0
 outer loop
  vertex 0.953 -0.303 0.5
  vertex 0.908 -0.418 3
  vertex 0.953 -0.303 3
 endloop
endfacet
facet normal -0.97 0.244 0
 outer loop
  vertex 0.953 -0.303 0.5
  vertex 0.953 -0.303 3
  vertex 0.983 -0.184 0.5
 endloop
endfacet
facet normal -0.97 0.244 0
 outer loop
  vertex 0.983 -0.184 0.5
  vertex 0.953 -0.303 3
  vertex 0.983 -0.184 3
 endloop
endfacet
facet normal -0.992 0.123 0
 outer loop
  vertex 0.983 -0.184 0.5
  vertex 0.983 -0.184 3
  vertex 0.998 -0.062 0.5
 endloop
endfacet
facet normal -0.992 0.123 0
 outer loop
  vertex 0.998 -0.062 0.5
  vertex 0.983 -0.184 3
  vertex 0.998 -0.062 3
 endloop
endfacet
facet normal -0.866 0.027 -0.5
 outer loop
  vertex 1.286 -0.079 0
  vertex 0.998 -0.062 0.5
  vertex 1.289 0 0
 endloop
endfacet
facet normal -0.866 0.027 -0.5
 outer loop
  vertex 1.289 0 0
  vertex 0.998 -0.062 0.5
  vertex 1 0 0.5
 endloop
endfacet
facet normal -0.866 -0.027 -0.5
 outer loop
  vertex 1.289 0 0
  vertex 1 0 0.5
  vertex 1.286 0.079 0
 endloop
endfacet
facet normal -0.866 -0.027 -0.5
 outer loop
  vertex 1.286 0.079 0
  vertex 1 0 0.5
  vertex 0.998 0.062 0.5
 endloop
endfacet
facet normal -0.86 -0.106 -0.499
 outer loop
  vertex 1.286 0.079 0
  vertex 0.998 0.062 0.5
  vertex 1.267 0.237 0
 endloop
endfacet
facet normal -0.86 -0.106 -0.499
 outer loop
  vertex 1.267 0.237 0
  vertex 0.998 0.062 0.5
  vertex 0.983 0.184 0.5
 endloop
endfacet
facet normal -0.84 -0.211 -0.499
 outer loop
  vertex 1.267 0.237 0
  vertex 0.983 0.184 0.5
  vertex 1.228 0.391 0
 endloop
endfacet
facet normal -0.84 -0.211 -0.499
 outer loop
  vertex 1.228 0.391 0
  vertex 0.983 0.184 0.5
  vertex 0.953 0.303 0.5
 endloop
endfacet
facet normal -0.808 -0.313 -0.499
 outer loop
  vertex 1.228 0.391 0
  vertex 0.953 0.303 0.5
  vertex 1.171 0.539 0
 endloop
endfacet
facet normal -0.808 -0.313 -0.499
 outer loop
  vertex 1.171 0.539 0
  vertex 0.953 0.303 0.5
  vertex 0.908 0.418 0.5
 endloop
endfacet
facet normal -0.763 -0.41 -0.499
 outer loop
  vertex 1.171 0.539 0
  vertex 0.908 0.418 0.5
  vertex 1.096 0.678 0
 endloop
endfacet
facet normal -0.763 -0.41 -0.499
 outer loop
  vertex 1.096 0.678 0
  vertex 0.908 0.418 0.5
  vertex 0.85 0.526 0.5
 endloop
endfacet
facet normal -0.707 -0.501 -0.499
 outer loop
  vertex 1.096 0.678 0
  vertex 0.85 0.526 0.5
  vertex 1.004 0.808 0
 endloop
endfacet
facet normal -0.707 -0.501 -0.499
 outer loop
  vertex 1.004 0.808 0
  vertex 0.85 0.526 0.5
  vertex 0.779 0.627 0.5
 endloop
endfacet
facet normal -0.64 -0.584 -0.499
 outer loop
  vertex 1.004 0.808 0
  vertex 0.779 0.627 0.5
  vertex 0.897 0.925 0
 endloop
endfacet
facet normal -0.64 -0.584 -0.499
 outer loop
  vertex 0.897 0.925 0
  vertex 0.779 0.627 0.5
  vertex 0.696 0.718 0.5
 endloop
endfacet
facet normal -0.564 -0.658 -0.499
 outer loop
  vertex 0.897 0.925 0
  vertex 0.696 0.718 0.5
  vertex 0.777 1.028 0
 endloop
endfacet
facet normal -0.564 -0.658 -0.499
 outer loop
  vertex 0.777 1.028 0
  vertex 0.696 0.718 0.5
  vertex 0.603 0.798 0.5
 endloop
endfacet
facet normal -0.479 -0.722 -0.499
 outer loop
  vertex 0.777 1.028 0
  vertex 0.603 0.798 0.5
  vertex 0.644 1.116 0
 endloop
endfacet
facet normal -0.479 -0.722 -0.499
 outer loop
  vertex 0.644 1.116 0
  vertex 0.603 0.798 0.5
  vertex 0.5 0.866 0.5
 endloop
endfacet
facet normal -0.386 -0.776 -0.499
 outer loop
  vertex 0.644 1.116 0
  vertex 0.5 0.866 0.5
  vertex 0.502 1.187 0
 endloop
endfacet
facet normal -0.386 -0.776 -0.499
 outer loop
  vertex 0.502 1.187 0
  vertex 0.5 0.866 0.5
  vertex 0.39 0.921 0.5
 endloop
endfacet
facet normal -0.288 -0.817 -0.499
 outer loop
  vertex 0.502 1.187 0
  vertex 0.39 0.921 0.5
  vertex 0.353 1.239 0
 endloop
endfacet
facet normal -0.288 -0.817 -0.499
 outer loop
  vertex 0.353 1.239 0
  vertex 0.39 0.921 0.5
  vertex 0.274 0.962 0.5
 endloop
endfacet
facet normal -0.185 -0.846 -0.499
 outer loop
  vertex 0.353 1.239 0
  vertex 0.274 0.962 0.5
  vertex 0.198 1.273 0
 endloop
endfacet
facet normal -0.185 -0.846 -0.499
 outer loop
  vertex 0.198 1.273 0
  vertex 0.274 0.962 0.5
  vertex 0.153 0.988 0.5
 endloop
endfacet
facet normal -0.08 -0.863 -0.499
 outer loop
  vertex 0.198 1.273 0
  vertex 0.153 0.988 0.5
  vertex 0.04 1.288 0
 endloop
endfacet
facet normal -0.08 -0.863 -0.499
 outer loop
  vertex 0.04 1.288 0
  vertex 0.153 0.988 0.5
  vertex 0.031 1 0.5
 endloop
endfacet
facet normal 0.027 -0.866 -0.499
 outer loop
  vertex 0.04 1.288 0
  vertex 0.031 1 0.5
  vertex -0.119 1.283 0
 endloop
endfacet
facet normal 0.027 -0.866 -0.499
 outer loop
  vertex -0.119 1.283 0
  vertex 0.031 1 0.5
  vertex -0.092 0.996 0.5
 endloop
endfacet
facet normal 0.133 -0.856 -0.499
 outer loop
  vertex -0.119 1.283 0
  vertex -0.092 0.996 0.5
  vertex -0.276 1.259 0
 endloop
endfacet
facet normal 0.133 -0.856 -0.499
 outer loop
  vertex -0.276 1.259 0
  vertex -0.092 0.996 0.5
  vertex -0.214 0.977 0.5
 endloop
endfacet
facet normal 0.237 -0.833 -0.499
 outer loop
  vertex -0.276 1.259 0
  vertex -0.214 0.977 0.5
  vertex -0.428 1.215 0
 endloop
endfacet
facet normal 0.237 -0.833 -0.499
 outer loop
  vertex -0.428 1.215 0
  vertex -0.214 0.977 0.5
  vertex -0.332 0.943 0.5
 endloop
endfacet
facet normal 0.338 -0.798 -0.499
 outer loop
  vertex -0.428 1.215 0
  vertex -0.332 0.943 0.5
  vertex -0.574 1.154 0
 endloop
endfacet
facet normal 0.338 -0.798 -0.499
 outer loop
  vertex -0.574 1.154 0
  vertex -0.332 0.943 0.5
  vertex -0.446 0.895 0.5
 endloop
endfacet
facet normal 0.433 -0.75 -0.499
 outer loop
  vertex -0.574 1.154 0
  vertex -0.446 0.895 0.5
  vertex -0.712 1.074 0
 endloop
endfacet
facet normal 0.433 -0.75 -0.499
 outer loop
  vertex -0.712 1.074 0
  vertex -0.446 0.895 0.5
  vertex -0.552 0.834 0.5
 endloop
endfacet
facet normal 0.522 -0.691 -0.499
 outer loop
  vertex -0.712 1.074 0
  vertex -0.552 0.834 0.5
  vertex -0.838 0.979 0
 endloop
endfacet
facet normal 0.522 -0.691 -0.499
 outer loop
  vertex -0.838 0.979 0
  vertex -0.552 0.834 0.5
  vertex -0.651 0.759 0.5
 endloop
endfacet
facet normal 0.603 -0.622 -0.499
 outer loop
  vertex -0.838 0.979 0
  vertex -0.651 0.759 0.5
  vertex -0.952 0.868 0
 endloop
endfacet
facet normal 0.603 -0.622 -0.499
 outer loop
  vertex -0.952 0.868 0
  vertex -0.651 0.759 0.5
  vertex -0.739 0.674 0.5
 endloop
endfacet
facet normal 0.675 -0.543 -0.499
 outer loop
  vertex -0.952 0.868 0
  vertex -0.739 0.674 0.5
  vertex -1.052 0.745 0
 endloop
endfacet
facet normal 0.675 -0.543 -0.499
 outer loop
  vertex -1.052 0.745 0
  vertex -0.739 0.674 0.5
  vertex -0.816 0.578 0.5
 endloop
endfacet
facet normal 0.737 -0.456 -0.499
 outer loop
  vertex -1.052 0.745 0
  vertex -0.816 0.578 0.5
  vertex -1.135 0.61 0
 endloop
endfacet
facet normal 0.737 -0.456 -0.499
 outer loop
  vertex -1.135 0.61 0
  vertex -0.816 0.578 0.5
  vertex -0.881 0.473 0.5
 endloop
endfacet
facet normal 0.787 -0.362 -0.499
 outer loop
  vertex -1.135 0.61 0
  vertex -0.881 0.473 0.5
  vertex -1.202 0.466 0
 endloop
endfacet
facet normal 0.787 -0.362 -0.499
 outer loop
  vertex -1.202 0.466 0
  vertex -0.881 0.473 0.5
  vertex -0.932 0.361 0.5
 endloop
endfacet
facet normal 0.826 -0.263 -0.499
 outer loop
  vertex -1.202 0.466 0
  vertex -0.932 0.361 0.5
  vertex -1.25 0.314 0
 endloop
endfacet
facet normal 0.826 -0.263 -0.499
 outer loop
  vertex -1.25 0.314 0
  vertex -0.932 0.361 0.5
  vertex -0.97 0.244 0.5
 endloop
endfacet
facet normal 0.852 -0.159 -0.499
 outer loop
  vertex -1.25 0.314 0
  vertex -0.97 0.244 0.5
  vertex -1.279 0.158 0
 endloop
endfacet
facet normal 0.852 -0.159 -0.499
 outer loop
  vertex -1.279 0.158 0
  vertex -0.97 0.244 0.5
  vertex -0.992 0.123 0.5
 endloop
endfacet
facet normal 0.865 -0.053 -0.499
 outer loop
  vertex -1.279 0.158 0
  vertex -0.992 0.123 0.5
  vertex -1.289 0 0
 endloop
endfacet
facet normal 0.865 -0.053 -0.499
 outer loop
  vertex -1.289 0 0
  vertex -0.992 0.123 0.5
  vertex -1 0 0.5
 endloop
endfacet
facet normal 0.865 0.053 -0.499
 outer loop
  vertex -1.289 0 0
  vertex -1 0 0.5
  vertex -1.279 -0.158 0
 endloop
endfacet
facet normal 0.865 0.053 -0.499
 outer loop
  vertex -1.279 -0.158 0
  vertex -1 0 0.5
  vertex -0.992 -0.123 0.5
 endloop
endfacet
facet normal 0.852 0.159 -0.499
 outer loop
  vertex -1.279 -0.158 0
  vertex -0.992 -0.123 0.5
  vertex -1.25 -0.314 0
 endloop
endfacet
facet normal 0.852 0.159 -0.499
 outer loop
  vertex -1.25 -0.314 0
  vertex -0.992 -0.123 0.5
  vertex -0.97 -0.244 0.5
 endloop
endfacet
facet normal 0.826 0.263 -0.499
 outer loop
  vertex -1.25 -0.314 0
  vertex -0.97 -0.244 0.5
  vertex -1.202 -0.466 0
 endloop
endfacet
facet normal 0.826 0.263 -0.499
 outer loop
  vertex -1.202 -0.466 0
  vertex -0.97 -0.244 0.5
  vertex -0.932 -0.361 0.5
 endloop
endfacet
facet normal 0.787 0.362 -0.499
 outer loop
  vertex -1.202 -0.466 0
  vertex -0.932 -0.361 0.5
  vertex -1.135 -0.61 0
 endloop
endfacet
facet normal 0.787 0.362 -0.499
 outer loop
  vertex -1.135 -0.61 0
  vertex -0.932 -0.361 0.5
  vertex -0.881 -0.473 0.5
 endloop
endfacet
facet normal 0.737 0.456 -0.499
 outer loop
  vertex -1.135 -0.61 0
  vertex -0.881 -0.473 0.5
  vertex -1.052 -0.745 0
 endloop
endfacet
facet normal 0.737 0.456 -0.499
 outer loop
  vertex -1.052 -0.745 0
  vertex -0.881 -0.473 0.5
  vertex -0.816 -0.578 0.5
 endloop
endfacet
facet normal 0.675 0.543 -0.499
 outer loop
  vertex -1.052 -0.745 0
  vertex -0.816 -0.578 0.5
  vertex -0.952 -0.868 0
 endloop
endfacet
facet normal 0.675 0.543 -0.499
 outer loop
  vertex -0.952 -0.868 0
  vertex -0.816 -0.578 0.5
  vertex -0.739 -0.674 0.5
 endloop
endfacet
facet normal 0.603 0.622 -0.499
 outer loop
  vertex -0.952 -0.868 0
  vertex -0.739 -0.674 0.5
  vertex -0.838 -0.979 0
 endloop
endfacet
facet normal 0.603 0.622 -0.499
 outer loop
  vertex -0.838 -0.979 0
  vertex -0.739 -0.674 0.5
  vertex -0.651 -0.759 0.5
 endloop
endfacet
facet normal 0.522 0.691 -0.499
 outer loop
  vertex -0.838 -0.979 0
  vertex -0.651 -0.759 0.5
  vertex -0.712 -1.074 0
 endloop
endfacet
facet normal 0.522 0.691 -0.499
 outer loop
  vertex -0.712 -1.074 0
  vertex -0.651 -0.759 0.5
  vertex -0.552 -0.834 0.5
 endloop
endfacet
facet normal 0.433 0.75 -0.499
 outer loop
  vertex -0.712 -1.074 0
  vertex -0.552 -0.834 0.5
  vertex -0.574 -1.154 0
 endloop
endfacet
facet normal 0.433 0.75 -0.499
 outer loop
  vertex -0.574 -1.154 0
  vertex -0.552 -0.834 0.5
  vertex -0.446 -0.895 0.5
 endloop
endfacet
facet normal 0.338 0.798 -0.499
 outer loop
  vertex -0.574 -1.154 0
  vertex -0.446 -0.895 0.5
  vertex -0.428 -1.215 0
 endloop
endfacet
facet normal 0.338 0.798 -0.499
 outer loop
  vertex -0.428 -1.215 0
  vertex -0.446 -0.895 0.5
  vertex -0.332 -0.943 0.5
 endloop
endfacet
facet normal 0.237 0.833 -0.499
 outer loop
  vertex -0.428 -1.215 0
  vertex -0.332 -0.943 0.5
  vertex -0.276 -1.259 0
 endloop
endfacet
facet normal 0.237 0.833 -0.499
 outer loop
  vertex -0.276 -1.259 0
  vertex -0.332 -0.943 0.5
  vertex -0.214 -0.977 0.5
 endloop
endfacet
facet normal 0.133 0.856 -0.499
 outer loop
  vertex -0.276 -1.259 0
  vertex -0.214 -0.977 0.5
  vertex -0.119 -1.283 0
 endloop
endfacet
facet normal 0.133 0.856 -0.499
 outer loop
  vertex -0.119 -1.283 0
  vertex -0.214 -0.977 0.5
  vertex -0.092 -0.996 0.5
 endloop
endfacet
facet normal 0.027 0.866 -0.499
 outer loop
  vertex -0.119 -1.283 0
  vertex -0.092 -0.996 0.5
  vertex 0.04 -1.288 0
 endloop
endfacet
facet normal 0.027 0.866 -0.499
 outer loop
  vertex 0.04 -1.288 0
  vertex -0.092 -0.996 0.5
  vertex 0.031 -1 0.5
 endloop
endfacet
facet normal -0.08 0.863 -0.499
 outer loop
  vertex 0.04 -1.288 0
  vertex 0.031 -1 0.5
  vertex 0.198 -1.273 0
 endloop
endfacet
facet normal -0.08 0.863 -0.499
 outer loop
  vertex 0.198 -1.273 0
  vertex 0.031 -1 0.5
  vertex 0.153 -0.988 0.5
 endloop
endfacet
facet normal -0.185 0.846 -0.499
 outer loop
  vertex 0.198 -1.273 0
  vertex 0.153 -0.988 0.5
  vertex 0.353 -1.239 0
 endloop
endfacet
facet normal -0.185 0.846 -0.499
 outer loop
  vertex 0.353 -1.239 0
  vertex 0.153 -0.988 0.5
  vertex 0.274 -0.962 0.5
 endloop
endfacet
facet normal -0.288 0.817 -0.499
 outer loop
  vertex 0.353 -1.239 0
  vertex 0.274 -0.962 0.5
  vertex 0.502 -1.187 0
 endloop
endfacet
facet normal -0.288 0.817 -0.499
 outer loop
  vertex 0.502 -1.187 0
  vertex 0.274 -0.962 0.5
  vertex 0.39 -0.921 0.5
 endloop
endfacet
facet normal -0.386 0.776 -0.499
 outer loop
  vertex 0.502 -1.187 0
  vertex 0.39 -0.921 0.5
  vertex 0.644 -1.116 0
 endloop
endfacet
facet normal -0.386 0.776 -0.499
 outer loop
  vertex 0.644 -1.116 0
  vertex 0.39 -0.921 0.5
  vertex 0.5 -0.866 0.5
 endloop
endfacet
facet normal -0.479 0.722 -0.499
 outer loop
  vertex 0.644 -1.116 0
  vertex 0.5 -0.866 0.5
  vertex 0.777 -1.028 0
 endloop
endfacet
facet normal -0.479 0.722 -0.499
 outer loop
  vertex 0.777 -1.028 0
  vertex 0.5 -0.866 0.5
  vertex 0.603 -0.798 0.5
 endloop
endfacet
facet normal -0.564 0.658 -0.499
 outer loop
  vertex 0.777 -1.028 0
  vertex 0.603 -0.798 0.5
  vertex 0.897 -0.925 0
 endloop
endfacet
facet normal -0.564 0.658 -0.499
 outer loop
  vertex 0.897 -0.925 0
  vertex 0.603 -0.798 0.5
  vertex 0.696 -0.718 0.5
 endloop
endfacet
facet normal -0.64 0.584 -0.499
 outer loop
  vertex 0.897 -0.925 0
  vertex 0.696 -0.718 0.5
  vertex 1.004 -0.808 0
 endloop
endfacet
facet normal -0.64 0.584 -0.499
 outer loop
  vertex 1.004 -0.808 0
  vertex 0.696 -0.718 0.5
  vertex 0.779 -0.627 0.5
 endloop
endfacet
facet normal -0.707 0.501 -0.499
 outer loop
  vertex 1.004 -0.808 0
  vertex 0.779 -0.627 0.5
  vertex 1.096 -0.678 0
 endloop
endfacet
facet normal -0.707 0.501 -0.499
 outer loop
  vertex 1.096 -0.678 0
  vertex 0.779 -0.627 0.5
  vertex 0.85 -0.526 0.5
 endloop
endfacet
facet normal -0.763 0.41 -0.499
 outer loop
  vertex 1.096 -0.678 0
  vertex 0.85 -0.526 0.5
  vertex 1.171 -0.539 0
 endloop
endfacet
facet normal -0.763 0.41 -0.499
 outer loop
  vertex 1.171 -0.539 0
  vertex 0.85 -0.526 0.5
  vertex 0.908 -0.418 0.5
 endloop
endfacet
facet normal -0.808 0.313 -0.499
 outer loop
  vertex 1.171 -0.539 0
  vertex 0.908 -0.418 0.5
  vertex 1.228 -0.391 0
 endloop
endfacet
facet normal -0.808 0.313 -0.499
 outer loop
  vertex 1.228 -0.391 0
  vertex 0.908 -0.418 0.5
  vertex 0.953 -0.303 0.5
 endloop
endfacet
facet normal -0.84 0.211 -0.499
 outer loop
  vertex 1.228 -0.391 0
  vertex 0.953 -0.303 0.5
  vertex 1.267 -0.237 0
 endloop
endfacet
facet normal -0.84 0.211 -0.499
 outer loop
  vertex 1.267 -0.237 0
  vertex 0.953 -0.303 0.5
  vertex 0.983 -0.184 0.5
 endloop
endfacet
facet normal -0.86 0.106 -0.499
 outer loop
  vertex 1.267 -0.237 0
  vertex 0.983 -0.184 0.5
  vertex 1.286 -0.079 0
 endloop
endfacet
facet normal -0.86 0.106 -0.499
 outer loop
  vertex 1.286 -0.079 0
  vertex 0.983 -0.184 0.5
  vertex 0.998 -0.062 0.5
 endloop
endfacet
endsolid CADClick
