solid CADClick
facet normal 0 0 -1
 outer loop
  vertex 0.108 -3.498 0
  vertex 0.086 -2.787 0
  vertex 0.537 -3.459 0
 endloop
endfacet
facet normal 0 0 -1
 outer loop
  vertex 0.537 -3.459 0
  vertex 0.086 -2.787 0
  vertex 0.428 -2.756 0
 endloop
endfacet
facet normal 0 0 -1
 outer loop
  vertex 0.537 -3.459 0
  vertex 0.428 -2.756 0
  vertex 0.958 -3.366 0
 endloop
endfacet
facet normal 0 0 -1
 outer loop
  vertex 0.958 -3.366 0
  vertex 0.428 -2.756 0
  vertex 0.763 -2.682 0
 endloop
endfacet
facet normal 0 0 -1
 outer loop
  vertex 0.958 -3.366 0
  vertex 0.763 -2.682 0
  vertex 1.364 -3.223 0
 endloop
endfacet
facet normal 0 0 -1
 outer loop
  vertex 1.364 -3.223 0
  vertex 0.763 -2.682 0
  vertex 1.087 -2.568 0
 endloop
endfacet
facet normal 0 0 -1
 outer loop
  vertex 1.364 -3.223 0
  vertex 1.087 -2.568 0
  vertex 1.75 -3.031 0
 endloop
endfacet
facet normal 0 0 -1
 outer loop
  vertex 1.75 -3.031 0
  vertex 1.087 -2.568 0
  vertex 1.394 -2.415 0
 endloop
endfacet
facet normal 0 0 -1
 outer loop
  vertex 1.75 -3.031 0
  vertex 1.394 -2.415 0
  vertex 2.109 -2.793 0
 endloop
endfacet
facet normal 0 0 -1
 outer loop
  vertex 2.109 -2.793 0
  vertex 1.394 -2.415 0
  vertex 1.681 -2.225 0
 endloop
endfacet
facet normal 0 0 -1
 outer loop
  vertex 2.109 -2.793 0
  vertex 1.681 -2.225 0
  vertex 2.436 -2.513 0
 endloop
endfacet
facet normal 0 0 -1
 outer loop
  vertex 2.436 -2.513 0
  vertex 1.681 -2.225 0
  vertex 1.941 -2.002 0
 endloop
endfacet
facet normal 0 0 -1
 outer loop
  vertex 2.436 -2.513 0
  vertex 1.941 -2.002 0
  vertex 2.727 -2.194 0
 endloop
endfacet
facet normal 0 0 -1
 outer loop
  vertex 2.727 -2.194 0
  vertex 1.941 -2.002 0
  vertex 2.173 -1.748 0
 endloop
endfacet
facet normal 0 0 -1
 outer loop
  vertex 2.727 -2.194 0
  vertex 2.173 -1.748 0
  vertex 2.976 -1.843 0
 endloop
endfacet
facet normal 0 0 -1
 outer loop
  vertex 2.976 -1.843 0
  vertex 2.173 -1.748 0
  vertex 2.371 -1.468 0
 endloop
endfacet
facet normal 0 0 -1
 outer loop
  vertex 2.976 -1.843 0
  vertex 2.371 -1.468 0
  vertex 3.18 -1.463 0
 endloop
endfacet
facet normal -0 0 -1
 outer loop
  vertex 3.18 -1.463 0
  vertex 2.371 -1.468 0
  vertex 2.533 -1.166 0
 endloop
endfacet
facet normal 0 0 -1
 outer loop
  vertex 3.18 -1.463 0
  vertex 2.533 -1.166 0
  vertex 3.335 -1.061 0
 endloop
endfacet
facet normal -0 0 -1
 outer loop
  vertex 3.335 -1.061 0
  vertex 2.533 -1.166 0
  vertex 2.657 -0.845 0
 endloop
endfacet
facet normal 0 0 -1
 outer loop
  vertex 3.335 -1.061 0
  vertex 2.657 -0.845 0
  vertex 3.44 -0.643 0
 endloop
endfacet
facet normal -0 0 -1
 outer loop
  vertex 3.44 -0.643 0
  vertex 2.657 -0.845 0
  vertex 2.741 -0.512 0
 endloop
endfacet
facet normal 0 0 -1
 outer loop
  vertex 3.44 -0.643 0
  vertex 2.741 -0.512 0
  vertex 3.493 -0.215 0
 endloop
endfacet
facet normal -0 0 -1
 outer loop
  vertex 3.493 -0.215 0
  vertex 2.741 -0.512 0
  vertex 2.783 -0.172 0
 endloop
endfacet
facet normal 0 0 -1
 outer loop
  vertex 3.493 -0.215 0
  vertex 2.783 -0.172 0
  vertex 3.5 0 0
 endloop
endfacet
facet normal -0 0 -1
 outer loop
  vertex 3.5 0 0
  vertex 2.783 -0.172 0
  vertex 2.789 0 0
 endloop
endfacet
facet normal 0 0 -1
 outer loop
  vertex 3.5 0 0
  vertex 2.789 0 0
  vertex 2.783 0.172 0
 endloop
endfacet
facet normal 0 0 -1
 outer loop
  vertex 0.108 -3.498 0
  vertex -0.323 -3.485 0
  vertex 0.086 -2.787 0
 endloop
endfacet
facet normal -0 0 -1
 outer loop
  vertex 0.086 -2.787 0
  vertex -0.323 -3.485 0
  vertex -0.257 -2.777 0
 endloop
endfacet
facet normal 0 0 -1
 outer loop
  vertex -0.323 -3.485 0
  vertex -0.749 -3.419 0
  vertex -0.257 -2.777 0
 endloop
endfacet
facet normal -0 0 -1
 outer loop
  vertex -0.257 -2.777 0
  vertex -0.749 -3.419 0
  vertex -0.597 -2.724 0
 endloop
endfacet
facet normal 0 0 -1
 outer loop
  vertex -0.749 -3.419 0
  vertex -1.163 -3.301 0
  vertex -0.597 -2.724 0
 endloop
endfacet
facet normal -0 0 -1
 outer loop
  vertex -0.597 -2.724 0
  vertex -1.163 -3.301 0
  vertex -0.927 -2.63 0
 endloop
endfacet
facet normal 0 0 -1
 outer loop
  vertex -1.163 -3.301 0
  vertex -1.56 -3.133 0
  vertex -0.927 -2.63 0
 endloop
endfacet
facet normal -0 0 -1
 outer loop
  vertex -0.927 -2.63 0
  vertex -1.56 -3.133 0
  vertex -1.243 -2.496 0
 endloop
endfacet
facet normal 0 0 -1
 outer loop
  vertex -1.56 -3.133 0
  vertex -1.933 -2.918 0
  vertex -1.243 -2.496 0
 endloop
endfacet
facet normal -0 0 -1
 outer loop
  vertex -1.243 -2.496 0
  vertex -1.933 -2.918 0
  vertex -1.54 -2.325 0
 endloop
endfacet
facet normal 0 0 -1
 outer loop
  vertex -1.933 -2.918 0
  vertex -2.277 -2.658 0
  vertex -1.54 -2.325 0
 endloop
endfacet
facet normal -0 0 -1
 outer loop
  vertex -1.54 -2.325 0
  vertex -2.277 -2.658 0
  vertex -1.814 -2.118 0
 endloop
endfacet
facet normal 0 0 -1
 outer loop
  vertex -2.277 -2.658 0
  vertex -2.587 -2.358 0
  vertex -1.814 -2.118 0
 endloop
endfacet
facet normal -0 0 -1
 outer loop
  vertex -1.814 -2.118 0
  vertex -2.587 -2.358 0
  vertex -2.061 -1.879 0
 endloop
endfacet
facet normal 0 0 -1
 outer loop
  vertex -2.587 -2.358 0
  vertex -2.857 -2.022 0
  vertex -2.061 -1.879 0
 endloop
endfacet
facet normal -0 0 -1
 outer loop
  vertex -2.061 -1.879 0
  vertex -2.857 -2.022 0
  vertex -2.276 -1.611 0
 endloop
endfacet
facet normal 0 0 -1
 outer loop
  vertex -2.857 -2.022 0
  vertex -3.084 -1.656 0
  vertex -2.276 -1.611 0
 endloop
endfacet
facet normal -0 0 -1
 outer loop
  vertex -2.276 -1.611 0
  vertex -3.084 -1.656 0
  vertex -2.457 -1.319 0
 endloop
endfacet
facet normal 0 0 -1
 outer loop
  vertex -3.084 -1.656 0
  vertex -3.264 -1.264 0
  vertex -2.457 -1.319 0
 endloop
endfacet
facet normal 0 0 -1
 outer loop
  vertex -2.457 -1.319 0
  vertex -3.264 -1.264 0
  vertex -2.6 -1.007 0
 endloop
endfacet
facet normal 0 0 -1
 outer loop
  vertex -3.264 -1.264 0
  vertex -3.394 -0.854 0
  vertex -2.6 -1.007 0
 endloop
endfacet
facet normal 0 0 -1
 outer loop
  vertex -2.6 -1.007 0
  vertex -3.394 -0.854 0
  vertex -2.704 -0.68 0
 endloop
endfacet
facet normal 0 0 -1
 outer loop
  vertex -3.394 -0.854 0
  vertex -3.473 -0.43 0
  vertex -2.704 -0.68 0
 endloop
endfacet
facet normal 0 0 -1
 outer loop
  vertex -2.704 -0.68 0
  vertex -3.473 -0.43 0
  vertex -2.768 -0.343 0
 endloop
endfacet
facet normal -0 0 -1
 outer loop
  vertex -2.768 -0.343 0
  vertex -3.473 -0.43 0
  vertex -2.789 0 0
 endloop
endfacet
facet normal -0 0 -1
 outer loop
  vertex -2.789 0 0
  vertex -3.473 -0.43 0
  vertex -3.5 0 0
 endloop
endfacet
facet normal 0 0 -1
 outer loop
  vertex -2.789 0 0
  vertex -3.5 0 0
  vertex -2.768 0.343 0
 endloop
endfacet
facet normal -0 0 -1
 outer loop
  vertex -2.768 0.343 0
  vertex -3.5 0 0
  vertex -3.473 0.43 0
 endloop
endfacet
facet normal 0 0 -1
 outer loop
  vertex -2.768 0.343 0
  vertex -3.473 0.43 0
  vertex -2.704 0.68 0
 endloop
endfacet
facet normal -0 0 -1
 outer loop
  vertex -2.704 0.68 0
  vertex -3.473 0.43 0
  vertex -3.394 0.854 0
 endloop
endfacet
facet normal 0 0 -1
 outer loop
  vertex -2.704 0.68 0
  vertex -3.394 0.854 0
  vertex -2.6 1.007 0
 endloop
endfacet
facet normal -0 0 -1
 outer loop
  vertex -2.6 1.007 0
  vertex -3.394 0.854 0
  vertex -3.264 1.264 0
 endloop
endfacet
facet normal 0 0 -1
 outer loop
  vertex -2.6 1.007 0
  vertex -3.264 1.264 0
  vertex -2.457 1.319 0
 endloop
endfacet
facet normal -0 0 -1
 outer loop
  vertex -2.457 1.319 0
  vertex -3.264 1.264 0
  vertex -3.084 1.656 0
 endloop
endfacet
facet normal 0 0 -1
 outer loop
  vertex -2.457 1.319 0
  vertex -3.084 1.656 0
  vertex -2.276 1.611 0
 endloop
endfacet
facet normal 0 0 -1
 outer loop
  vertex -2.276 1.611 0
  vertex -3.084 1.656 0
  vertex -2.857 2.022 0
 endloop
endfacet
facet normal 0 0 -1
 outer loop
  vertex -2.276 1.611 0
  vertex -2.857 2.022 0
  vertex -2.061 1.879 0
 endloop
endfacet
facet normal 0 0 -1
 outer loop
  vertex -2.061 1.879 0
  vertex -2.857 2.022 0
  vertex -2.587 2.358 0
 endloop
endfacet
facet normal 0 0 -1
 outer loop
  vertex -2.061 1.879 0
  vertex -2.587 2.358 0
  vertex -1.814 2.118 0
 endloop
endfacet
facet normal 0 0 -1
 outer loop
  vertex -1.814 2.118 0
  vertex -2.587 2.358 0
  vertex -2.277 2.658 0
 endloop
endfacet
facet normal 0 0 -1
 outer loop
  vertex -1.814 2.118 0
  vertex -2.277 2.658 0
  vertex -1.54 2.325 0
 endloop
endfacet
facet normal 0 0 -1
 outer loop
  vertex -1.54 2.325 0
  vertex -2.277 2.658 0
  vertex -1.933 2.918 0
 endloop
endfacet
facet normal 0 0 -1
 outer loop
  vertex -1.54 2.325 0
  vertex -1.933 2.918 0
  vertex -1.243 2.496 0
 endloop
endfacet
facet normal 0 0 -1
 outer loop
  vertex -1.243 2.496 0
  vertex -1.933 2.918 0
  vertex -1.56 3.133 0
 endloop
endfacet
facet normal 0 0 -1
 outer loop
  vertex -1.243 2.496 0
  vertex -1.56 3.133 0
  vertex -0.927 2.63 0
 endloop
endfacet
facet normal 0 0 -1
 outer loop
  vertex -0.927 2.63 0
  vertex -1.56 3.133 0
  vertex -1.163 3.301 0
 endloop
endfacet
facet normal 0 0 -1
 outer loop
  vertex -0.927 2.63 0
  vertex -1.163 3.301 0
  vertex -0.597 2.724 0
 endloop
endfacet
facet normal 0 0 -1
 outer loop
  vertex -0.597 2.724 0
  vertex -1.163 3.301 0
  vertex -0.749 3.419 0
 endloop
endfacet
facet normal 0 0 -1
 outer loop
  vertex -0.597 2.724 0
  vertex -0.749 3.419 0
  vertex -0.257 2.777 0
 endloop
endfacet
facet normal 0 0 -1
 outer loop
  vertex -0.257 2.777 0
  vertex -0.749 3.419 0
  vertex -0.323 3.485 0
 endloop
endfacet
facet normal 0 0 -1
 outer loop
  vertex -0.257 2.777 0
  vertex -0.323 3.485 0
  vertex 0.086 2.787 0
 endloop
endfacet
facet normal 0 0 -1
 outer loop
  vertex 0.086 2.787 0
  vertex -0.323 3.485 0
  vertex 0.108 3.498 0
 endloop
endfacet
facet normal 0 0 -1
 outer loop
  vertex 0.086 2.787 0
  vertex 0.108 3.498 0
  vertex 0.537 3.459 0
 endloop
endfacet
facet normal 0 0 -1
 outer loop
  vertex 0.086 2.787 0
  vertex 0.537 3.459 0
  vertex 0.428 2.756 0
 endloop
endfacet
facet normal 0 0 -1
 outer loop
  vertex 0.428 2.756 0
  vertex 0.537 3.459 0
  vertex 0.958 3.366 0
 endloop
endfacet
facet normal 0 0 -1
 outer loop
  vertex 0.428 2.756 0
  vertex 0.958 3.366 0
  vertex 0.763 2.682 0
 endloop
endfacet
facet normal 0 0 -1
 outer loop
  vertex 0.763 2.682 0
  vertex 0.958 3.366 0
  vertex 1.364 3.223 0
 endloop
endfacet
facet normal 0 0 -1
 outer loop
  vertex 0.763 2.682 0
  vertex 1.364 3.223 0
  vertex 1.087 2.568 0
 endloop
endfacet
facet normal 0 0 -1
 outer loop
  vertex 1.087 2.568 0
  vertex 1.364 3.223 0
  vertex 1.75 3.031 0
 endloop
endfacet
facet normal 0 0 -1
 outer loop
  vertex 1.087 2.568 0
  vertex 1.75 3.031 0
  vertex 1.394 2.415 0
 endloop
endfacet
facet normal 0 0 -1
 outer loop
  vertex 1.394 2.415 0
  vertex 1.75 3.031 0
  vertex 2.109 2.793 0
 endloop
endfacet
facet normal 0 0 -1
 outer loop
  vertex 1.394 2.415 0
  vertex 2.109 2.793 0
  vertex 1.681 2.225 0
 endloop
endfacet
facet normal 0 0 -1
 outer loop
  vertex 1.681 2.225 0
  vertex 2.109 2.793 0
  vertex 2.436 2.513 0
 endloop
endfacet
facet normal 0 0 -1
 outer loop
  vertex 1.681 2.225 0
  vertex 2.436 2.513 0
  vertex 1.941 2.002 0
 endloop
endfacet
facet normal 0 0 -1
 outer loop
  vertex 1.941 2.002 0
  vertex 2.436 2.513 0
  vertex 2.727 2.194 0
 endloop
endfacet
facet normal 0 0 -1
 outer loop
  vertex 1.941 2.002 0
  vertex 2.727 2.194 0
  vertex 2.173 1.748 0
 endloop
endfacet
facet normal 0 0 -1
 outer loop
  vertex 2.173 1.748 0
  vertex 2.727 2.194 0
  vertex 2.976 1.843 0
 endloop
endfacet
facet normal 0 0 -1
 outer loop
  vertex 2.173 1.748 0
  vertex 2.976 1.843 0
  vertex 2.371 1.468 0
 endloop
endfacet
facet normal 0 0 -1
 outer loop
  vertex 2.371 1.468 0
  vertex 2.976 1.843 0
  vertex 3.18 1.463 0
 endloop
endfacet
facet normal 0 0 -1
 outer loop
  vertex 2.371 1.468 0
  vertex 3.18 1.463 0
  vertex 2.533 1.166 0
 endloop
endfacet
facet normal 0 0 -1
 outer loop
  vertex 2.533 1.166 0
  vertex 3.18 1.463 0
  vertex 3.335 1.061 0
 endloop
endfacet
facet normal 0 0 -1
 outer loop
  vertex 2.533 1.166 0
  vertex 3.335 1.061 0
  vertex 2.657 0.845 0
 endloop
endfacet
facet normal 0 0 -1
 outer loop
  vertex 2.657 0.845 0
  vertex 3.335 1.061 0
  vertex 3.44 0.643 0
 endloop
endfacet
facet normal 0 0 -1
 outer loop
  vertex 2.657 0.845 0
  vertex 3.44 0.643 0
  vertex 2.741 0.512 0
 endloop
endfacet
facet normal 0 0 -1
 outer loop
  vertex 2.741 0.512 0
  vertex 3.44 0.643 0
  vertex 3.493 0.215 0
 endloop
endfacet
facet normal 0 0 -1
 outer loop
  vertex 2.741 0.512 0
  vertex 3.493 0.215 0
  vertex 2.783 0.172 0
 endloop
endfacet
facet normal 0 0 -1
 outer loop
  vertex 2.783 0.172 0
  vertex 3.493 0.215 0
  vertex 3.5 0 0
 endloop
endfacet
facet normal 1 -0.031 0
 outer loop
  vertex 3.493 -0.215 4.7
  vertex 3.493 -0.215 0
  vertex 3.5 0 4.7
 endloop
endfacet
facet normal 1 -0.031 0
 outer loop
  vertex 3.5 0 4.7
  vertex 3.493 -0.215 0
  vertex 3.5 0 0
 endloop
endfacet
facet normal 1 0.031 0
 outer loop
  vertex 3.5 0 4.7
  vertex 3.5 0 0
  vertex 3.493 0.215 4.7
 endloop
endfacet
facet normal 1 0.031 0
 outer loop
  vertex 3.493 0.215 4.7
  vertex 3.5 0 0
  vertex 3.493 0.215 0
 endloop
endfacet
facet normal 0.992 0.123 0
 outer loop
  vertex 3.493 0.215 4.7
  vertex 3.493 0.215 0
  vertex 3.44 0.643 4.7
 endloop
endfacet
facet normal 0.992 0.123 0
 outer loop
  vertex 3.44 0.643 4.7
  vertex 3.493 0.215 0
  vertex 3.44 0.643 0
 endloop
endfacet
facet normal 0.97 0.244 0
 outer loop
  vertex 3.44 0.643 4.7
  vertex 3.44 0.643 0
  vertex 3.335 1.061 4.7
 endloop
endfacet
facet normal 0.97 0.244 0
 outer loop
  vertex 3.335 1.061 4.7
  vertex 3.44 0.643 0
  vertex 3.335 1.061 0
 endloop
endfacet
facet normal 0.932 0.361 0
 outer loop
  vertex 3.335 1.061 4.7
  vertex 3.335 1.061 0
  vertex 3.18 1.463 4.7
 endloop
endfacet
facet normal 0.932 0.361 0
 outer loop
  vertex 3.18 1.463 4.7
  vertex 3.335 1.061 0
  vertex 3.18 1.463 0
 endloop
endfacet
facet normal 0.881 0.473 0
 outer loop
  vertex 3.18 1.463 4.7
  vertex 3.18 1.463 0
  vertex 2.976 1.843 4.7
 endloop
endfacet
facet normal 0.881 0.473 0
 outer loop
  vertex 2.976 1.843 4.7
  vertex 3.18 1.463 0
  vertex 2.976 1.843 0
 endloop
endfacet
facet normal 0.816 0.578 0
 outer loop
  vertex 2.976 1.843 4.7
  vertex 2.976 1.843 0
  vertex 2.727 2.194 4.7
 endloop
endfacet
facet normal 0.816 0.578 0
 outer loop
  vertex 2.727 2.194 4.7
  vertex 2.976 1.843 0
  vertex 2.727 2.194 0
 endloop
endfacet
facet normal 0.739 0.674 0
 outer loop
  vertex 2.727 2.194 4.7
  vertex 2.727 2.194 0
  vertex 2.436 2.513 4.7
 endloop
endfacet
facet normal 0.739 0.674 0
 outer loop
  vertex 2.436 2.513 4.7
  vertex 2.727 2.194 0
  vertex 2.436 2.513 0
 endloop
endfacet
facet normal 0.651 0.759 0
 outer loop
  vertex 2.436 2.513 4.7
  vertex 2.436 2.513 0
  vertex 2.109 2.793 4.7
 endloop
endfacet
facet normal 0.651 0.759 0
 outer loop
  vertex 2.109 2.793 4.7
  vertex 2.436 2.513 0
  vertex 2.109 2.793 0
 endloop
endfacet
facet normal 0.552 0.834 0
 outer loop
  vertex 2.109 2.793 4.7
  vertex 2.109 2.793 0
  vertex 1.75 3.031 4.7
 endloop
endfacet
facet normal 0.552 0.834 0
 outer loop
  vertex 1.75 3.031 4.7
  vertex 2.109 2.793 0
  vertex 1.75 3.031 0
 endloop
endfacet
facet normal 0.446 0.895 0
 outer loop
  vertex 1.75 3.031 4.7
  vertex 1.75 3.031 0
  vertex 1.364 3.223 4.7
 endloop
endfacet
facet normal 0.446 0.895 0
 outer loop
  vertex 1.364 3.223 4.7
  vertex 1.75 3.031 0
  vertex 1.364 3.223 0
 endloop
endfacet
facet normal 0.332 0.943 0
 outer loop
  vertex 1.364 3.223 4.7
  vertex 1.364 3.223 0
  vertex 0.958 3.366 4.7
 endloop
endfacet
facet normal 0.332 0.943 0
 outer loop
  vertex 0.958 3.366 4.7
  vertex 1.364 3.223 0
  vertex 0.958 3.366 0
 endloop
endfacet
facet normal 0.214 0.977 0
 outer loop
  vertex 0.958 3.366 4.7
  vertex 0.958 3.366 0
  vertex 0.537 3.459 4.7
 endloop
endfacet
facet normal 0.214 0.977 0
 outer loop
  vertex 0.537 3.459 4.7
  vertex 0.958 3.366 0
  vertex 0.537 3.459 0
 endloop
endfacet
facet normal 0.092 0.996 0
 outer loop
  vertex 0.537 3.459 4.7
  vertex 0.537 3.459 0
  vertex 0.108 3.498 4.7
 endloop
endfacet
facet normal 0.092 0.996 0
 outer loop
  vertex 0.108 3.498 4.7
  vertex 0.537 3.459 0
  vertex 0.108 3.498 0
 endloop
endfacet
facet normal -0.031 1 0
 outer loop
  vertex 0.108 3.498 4.7
  vertex 0.108 3.498 0
  vertex -0.323 3.485 4.7
 endloop
endfacet
facet normal -0.031 1 0
 outer loop
  vertex -0.323 3.485 4.7
  vertex 0.108 3.498 0
  vertex -0.323 3.485 0
 endloop
endfacet
facet normal -0.153 0.988 0
 outer loop
  vertex -0.323 3.485 4.7
  vertex -0.323 3.485 0
  vertex -0.749 3.419 4.7
 endloop
endfacet
facet normal -0.153 0.988 0
 outer loop
  vertex -0.749 3.419 4.7
  vertex -0.323 3.485 0
  vertex -0.749 3.419 0
 endloop
endfacet
facet normal -0.274 0.962 0
 outer loop
  vertex -0.749 3.419 4.7
  vertex -0.749 3.419 0
  vertex -1.163 3.301 4.7
 endloop
endfacet
facet normal -0.274 0.962 0
 outer loop
  vertex -1.163 3.301 4.7
  vertex -0.749 3.419 0
  vertex -1.163 3.301 0
 endloop
endfacet
facet normal -0.39 0.921 0
 outer loop
  vertex -1.163 3.301 4.7
  vertex -1.163 3.301 0
  vertex -1.56 3.133 4.7
 endloop
endfacet
facet normal -0.39 0.921 0
 outer loop
  vertex -1.56 3.133 4.7
  vertex -1.163 3.301 0
  vertex -1.56 3.133 0
 endloop
endfacet
facet normal -0.5 0.866 0
 outer loop
  vertex -1.56 3.133 4.7
  vertex -1.56 3.133 0
  vertex -1.933 2.918 4.7
 endloop
endfacet
facet normal -0.5 0.866 0
 outer loop
  vertex -1.933 2.918 4.7
  vertex -1.56 3.133 0
  vertex -1.933 2.918 0
 endloop
endfacet
facet normal -0.603 0.798 0
 outer loop
  vertex -1.933 2.918 4.7
  vertex -1.933 2.918 0
  vertex -2.277 2.658 4.7
 endloop
endfacet
facet normal -0.603 0.798 0
 outer loop
  vertex -2.277 2.658 4.7
  vertex -1.933 2.918 0
  vertex -2.277 2.658 0
 endloop
endfacet
facet normal -0.696 0.718 0
 outer loop
  vertex -2.277 2.658 4.7
  vertex -2.277 2.658 0
  vertex -2.587 2.358 4.7
 endloop
endfacet
facet normal -0.696 0.718 0
 outer loop
  vertex -2.587 2.358 4.7
  vertex -2.277 2.658 0
  vertex -2.587 2.358 0
 endloop
endfacet
facet normal -0.779 0.627 0
 outer loop
  vertex -2.587 2.358 4.7
  vertex -2.587 2.358 0
  vertex -2.857 2.022 4.7
 endloop
endfacet
facet normal -0.779 0.627 0
 outer loop
  vertex -2.857 2.022 4.7
  vertex -2.587 2.358 0
  vertex -2.857 2.022 0
 endloop
endfacet
facet normal -0.85 0.526 0
 outer loop
  vertex -2.857 2.022 4.7
  vertex -2.857 2.022 0
  vertex -3.084 1.656 4.7
 endloop
endfacet
facet normal -0.85 0.526 0
 outer loop
  vertex -3.084 1.656 4.7
  vertex -2.857 2.022 0
  vertex -3.084 1.656 0
 endloop
endfacet
facet normal -0.908 0.418 0
 outer loop
  vertex -3.084 1.656 4.7
  vertex -3.084 1.656 0
  vertex -3.264 1.264 4.7
 endloop
endfacet
facet normal -0.908 0.418 0
 outer loop
  vertex -3.264 1.264 4.7
  vertex -3.084 1.656 0
  vertex -3.264 1.264 0
 endloop
endfacet
facet normal -0.953 0.303 0
 outer loop
  vertex -3.264 1.264 4.7
  vertex -3.264 1.264 0
  vertex -3.394 0.854 4.7
 endloop
endfacet
facet normal -0.953 0.303 0
 outer loop
  vertex -3.394 0.854 4.7
  vertex -3.264 1.264 0
  vertex -3.394 0.854 0
 endloop
endfacet
facet normal -0.983 0.184 0
 outer loop
  vertex -3.394 0.854 4.7
  vertex -3.394 0.854 0
  vertex -3.473 0.43 4.7
 endloop
endfacet
facet normal -0.983 0.184 0
 outer loop
  vertex -3.473 0.43 4.7
  vertex -3.394 0.854 0
  vertex -3.473 0.43 0
 endloop
endfacet
facet normal -0.998 0.062 0
 outer loop
  vertex -3.473 0.43 4.7
  vertex -3.473 0.43 0
  vertex -3.5 0 4.7
 endloop
endfacet
facet normal -0.998 0.062 0
 outer loop
  vertex -3.5 0 4.7
  vertex -3.473 0.43 0
  vertex -3.5 0 0
 endloop
endfacet
facet normal -0.998 -0.062 -0
 outer loop
  vertex -3.5 0 4.7
  vertex -3.5 0 0
  vertex -3.473 -0.43 4.7
 endloop
endfacet
facet normal -0.998 -0.062 -0
 outer loop
  vertex -3.473 -0.43 4.7
  vertex -3.5 0 0
  vertex -3.473 -0.43 0
 endloop
endfacet
facet normal -0.983 -0.184 -0
 outer loop
  vertex -3.473 -0.43 4.7
  vertex -3.473 -0.43 0
  vertex -3.394 -0.854 4.7
 endloop
endfacet
facet normal -0.983 -0.184 -0
 outer loop
  vertex -3.394 -0.854 4.7
  vertex -3.473 -0.43 0
  vertex -3.394 -0.854 0
 endloop
endfacet
facet normal -0.953 -0.303 -0
 outer loop
  vertex -3.394 -0.854 4.7
  vertex -3.394 -0.854 0
  vertex -3.264 -1.264 4.7
 endloop
endfacet
facet normal -0.953 -0.303 -0
 outer loop
  vertex -3.264 -1.264 4.7
  vertex -3.394 -0.854 0
  vertex -3.264 -1.264 0
 endloop
endfacet
facet normal -0.908 -0.418 -0
 outer loop
  vertex -3.264 -1.264 4.7
  vertex -3.264 -1.264 0
  vertex -3.084 -1.656 4.7
 endloop
endfacet
facet normal -0.908 -0.418 -0
 outer loop
  vertex -3.084 -1.656 4.7
  vertex -3.264 -1.264 0
  vertex -3.084 -1.656 0
 endloop
endfacet
facet normal -0.85 -0.526 -0
 outer loop
  vertex -3.084 -1.656 4.7
  vertex -3.084 -1.656 0
  vertex -2.857 -2.022 4.7
 endloop
endfacet
facet normal -0.85 -0.526 -0
 outer loop
  vertex -2.857 -2.022 4.7
  vertex -3.084 -1.656 0
  vertex -2.857 -2.022 0
 endloop
endfacet
facet normal -0.779 -0.627 -0
 outer loop
  vertex -2.857 -2.022 4.7
  vertex -2.857 -2.022 0
  vertex -2.587 -2.358 4.7
 endloop
endfacet
facet normal -0.779 -0.627 -0
 outer loop
  vertex -2.587 -2.358 4.7
  vertex -2.857 -2.022 0
  vertex -2.587 -2.358 0
 endloop
endfacet
facet normal -0.696 -0.718 -0
 outer loop
  vertex -2.587 -2.358 4.7
  vertex -2.587 -2.358 0
  vertex -2.277 -2.658 4.7
 endloop
endfacet
facet normal -0.696 -0.718 -0
 outer loop
  vertex -2.277 -2.658 4.7
  vertex -2.587 -2.358 0
  vertex -2.277 -2.658 0
 endloop
endfacet
facet normal -0.603 -0.798 -0
 outer loop
  vertex -2.277 -2.658 4.7
  vertex -2.277 -2.658 0
  vertex -1.933 -2.918 4.7
 endloop
endfacet
facet normal -0.603 -0.798 -0
 outer loop
  vertex -1.933 -2.918 4.7
  vertex -2.277 -2.658 0
  vertex -1.933 -2.918 0
 endloop
endfacet
facet normal -0.5 -0.866 -0
 outer loop
  vertex -1.933 -2.918 4.7
  vertex -1.933 -2.918 0
  vertex -1.56 -3.133 4.7
 endloop
endfacet
facet normal -0.5 -0.866 -0
 outer loop
  vertex -1.56 -3.133 4.7
  vertex -1.933 -2.918 0
  vertex -1.56 -3.133 0
 endloop
endfacet
facet normal -0.39 -0.921 -0
 outer loop
  vertex -1.56 -3.133 4.7
  vertex -1.56 -3.133 0
  vertex -1.163 -3.301 4.7
 endloop
endfacet
facet normal -0.39 -0.921 -0
 outer loop
  vertex -1.163 -3.301 4.7
  vertex -1.56 -3.133 0
  vertex -1.163 -3.301 0
 endloop
endfacet
facet normal -0.274 -0.962 -0
 outer loop
  vertex -1.163 -3.301 4.7
  vertex -1.163 -3.301 0
  vertex -0.749 -3.419 4.7
 endloop
endfacet
facet normal -0.274 -0.962 -0
 outer loop
  vertex -0.749 -3.419 4.7
  vertex -1.163 -3.301 0
  vertex -0.749 -3.419 0
 endloop
endfacet
facet normal -0.153 -0.988 -0
 outer loop
  vertex -0.749 -3.419 4.7
  vertex -0.749 -3.419 0
  vertex -0.323 -3.485 4.7
 endloop
endfacet
facet normal -0.153 -0.988 -0
 outer loop
  vertex -0.323 -3.485 4.7
  vertex -0.749 -3.419 0
  vertex -0.323 -3.485 0
 endloop
endfacet
facet normal -0.031 -1 -0
 outer loop
  vertex -0.323 -3.485 4.7
  vertex -0.323 -3.485 0
  vertex 0.108 -3.498 4.7
 endloop
endfacet
facet normal -0.031 -1 -0
 outer loop
  vertex 0.108 -3.498 4.7
  vertex -0.323 -3.485 0
  vertex 0.108 -3.498 0
 endloop
endfacet
facet normal 0.092 -0.996 0
 outer loop
  vertex 0.108 -3.498 4.7
  vertex 0.108 -3.498 0
  vertex 0.537 -3.459 4.7
 endloop
endfacet
facet normal 0.092 -0.996 0
 outer loop
  vertex 0.537 -3.459 4.7
  vertex 0.108 -3.498 0
  vertex 0.537 -3.459 0
 endloop
endfacet
facet normal 0.214 -0.977 0
 outer loop
  vertex 0.537 -3.459 4.7
  vertex 0.537 -3.459 0
  vertex 0.958 -3.366 4.7
 endloop
endfacet
facet normal 0.214 -0.977 0
 outer loop
  vertex 0.958 -3.366 4.7
  vertex 0.537 -3.459 0
  vertex 0.958 -3.366 0
 endloop
endfacet
facet normal 0.332 -0.943 0
 outer loop
  vertex 0.958 -3.366 4.7
  vertex 0.958 -3.366 0
  vertex 1.364 -3.223 4.7
 endloop
endfacet
facet normal 0.332 -0.943 0
 outer loop
  vertex 1.364 -3.223 4.7
  vertex 0.958 -3.366 0
  vertex 1.364 -3.223 0
 endloop
endfacet
facet normal 0.446 -0.895 0
 outer loop
  vertex 1.364 -3.223 4.7
  vertex 1.364 -3.223 0
  vertex 1.75 -3.031 4.7
 endloop
endfacet
facet normal 0.446 -0.895 0
 outer loop
  vertex 1.75 -3.031 4.7
  vertex 1.364 -3.223 0
  vertex 1.75 -3.031 0
 endloop
endfacet
facet normal 0.552 -0.834 0
 outer loop
  vertex 1.75 -3.031 4.7
  vertex 1.75 -3.031 0
  vertex 2.109 -2.793 4.7
 endloop
endfacet
facet normal 0.552 -0.834 0
 outer loop
  vertex 2.109 -2.793 4.7
  vertex 1.75 -3.031 0
  vertex 2.109 -2.793 0
 endloop
endfacet
facet normal 0.651 -0.759 0
 outer loop
  vertex 2.109 -2.793 4.7
  vertex 2.109 -2.793 0
  vertex 2.436 -2.513 4.7
 endloop
endfacet
facet normal 0.651 -0.759 0
 outer loop
  vertex 2.436 -2.513 4.7
  vertex 2.109 -2.793 0
  vertex 2.436 -2.513 0
 endloop
endfacet
facet normal 0.739 -0.674 0
 outer loop
  vertex 2.436 -2.513 4.7
  vertex 2.436 -2.513 0
  vertex 2.727 -2.194 4.7
 endloop
endfacet
facet normal 0.739 -0.674 0
 outer loop
  vertex 2.727 -2.194 4.7
  vertex 2.436 -2.513 0
  vertex 2.727 -2.194 0
 endloop
endfacet
facet normal 0.816 -0.578 0
 outer loop
  vertex 2.727 -2.194 4.7
  vertex 2.727 -2.194 0
  vertex 2.976 -1.843 4.7
 endloop
endfacet
facet normal 0.816 -0.578 0
 outer loop
  vertex 2.976 -1.843 4.7
  vertex 2.727 -2.194 0
  vertex 2.976 -1.843 0
 endloop
endfacet
facet normal 0.881 -0.473 0
 outer loop
  vertex 2.976 -1.843 4.7
  vertex 2.976 -1.843 0
  vertex 3.18 -1.463 4.7
 endloop
endfacet
facet normal 0.881 -0.473 0
 outer loop
  vertex 3.18 -1.463 4.7
  vertex 2.976 -1.843 0
  vertex 3.18 -1.463 0
 endloop
endfacet
facet normal 0.932 -0.361 0
 outer loop
  vertex 3.18 -1.463 4.7
  vertex 3.18 -1.463 0
  vertex 3.335 -1.061 4.7
 endloop
endfacet
facet normal 0.932 -0.361 0
 outer loop
  vertex 3.335 -1.061 4.7
  vertex 3.18 -1.463 0
  vertex 3.335 -1.061 0
 endloop
endfacet
facet normal 0.97 -0.244 0
 outer loop
  vertex 3.335 -1.061 4.7
  vertex 3.335 -1.061 0
  vertex 3.44 -0.643 4.7
 endloop
endfacet
facet normal 0.97 -0.244 0
 outer loop
  vertex 3.44 -0.643 4.7
  vertex 3.335 -1.061 0
  vertex 3.44 -0.643 0
 endloop
endfacet
facet normal 0.992 -0.123 0
 outer loop
  vertex 3.44 -0.643 4.7
  vertex 3.44 -0.643 0
  vertex 3.493 -0.215 4.7
 endloop
endfacet
facet normal 0.992 -0.123 0
 outer loop
  vertex 3.493 -0.215 4.7
  vertex 3.44 -0.643 0
  vertex 3.493 -0.215 0
 endloop
endfacet
facet normal 0.866 -0.027 0.5
 outer loop
  vertex 3.32 -0.205 5
  vertex 3.493 -0.215 4.7
  vertex 3.327 0 5
 endloop
endfacet
facet normal 0.866 -0.027 0.5
 outer loop
  vertex 3.327 0 5
  vertex 3.493 -0.215 4.7
  vertex 3.5 0 4.7
 endloop
endfacet
facet normal 0.866 0.027 0.5
 outer loop
  vertex 3.327 0 5
  vertex 3.5 0 4.7
  vertex 3.32 0.205 5
 endloop
endfacet
facet normal 0.866 0.027 0.5
 outer loop
  vertex 3.32 0.205 5
  vertex 3.5 0 4.7
  vertex 3.493 0.215 4.7
 endloop
endfacet
facet normal 0.86 0.106 0.499
 outer loop
  vertex 3.32 0.205 5
  vertex 3.493 0.215 4.7
  vertex 3.27 0.611 5
 endloop
endfacet
facet normal 0.86 0.106 0.499
 outer loop
  vertex 3.27 0.611 5
  vertex 3.493 0.215 4.7
  vertex 3.44 0.643 4.7
 endloop
endfacet
facet normal 0.84 0.211 0.499
 outer loop
  vertex 3.27 0.611 5
  vertex 3.44 0.643 4.7
  vertex 3.17 1.009 5
 endloop
endfacet
facet normal 0.84 0.211 0.499
 outer loop
  vertex 3.17 1.009 5
  vertex 3.44 0.643 4.7
  vertex 3.335 1.061 4.7
 endloop
endfacet
facet normal 0.808 0.313 0.499
 outer loop
  vertex 3.17 1.009 5
  vertex 3.335 1.061 4.7
  vertex 3.022 1.39 5
 endloop
endfacet
facet normal 0.808 0.313 0.499
 outer loop
  vertex 3.022 1.39 5
  vertex 3.335 1.061 4.7
  vertex 3.18 1.463 4.7
 endloop
endfacet
facet normal 0.763 0.41 0.499
 outer loop
  vertex 3.022 1.39 5
  vertex 3.18 1.463 4.7
  vertex 2.829 1.751 5
 endloop
endfacet
facet normal 0.763 0.41 0.499
 outer loop
  vertex 2.829 1.751 5
  vertex 3.18 1.463 4.7
  vertex 2.976 1.843 4.7
 endloop
endfacet
facet normal 0.707 0.501 0.499
 outer loop
  vertex 2.829 1.751 5
  vertex 2.976 1.843 4.7
  vertex 2.592 2.086 5
 endloop
endfacet
facet normal 0.707 0.501 0.499
 outer loop
  vertex 2.592 2.086 5
  vertex 2.976 1.843 4.7
  vertex 2.727 2.194 4.7
 endloop
endfacet
facet normal 0.64 0.584 0.499
 outer loop
  vertex 2.592 2.086 5
  vertex 2.727 2.194 4.7
  vertex 2.316 2.388 5
 endloop
endfacet
facet normal 0.64 0.584 0.499
 outer loop
  vertex 2.316 2.388 5
  vertex 2.727 2.194 4.7
  vertex 2.436 2.513 4.7
 endloop
endfacet
facet normal 0.564 0.658 0.499
 outer loop
  vertex 2.316 2.388 5
  vertex 2.436 2.513 4.7
  vertex 2.005 2.655 5
 endloop
endfacet
facet normal 0.564 0.658 0.499
 outer loop
  vertex 2.005 2.655 5
  vertex 2.436 2.513 4.7
  vertex 2.109 2.793 4.7
 endloop
endfacet
facet normal 0.479 0.722 0.499
 outer loop
  vertex 2.005 2.655 5
  vertex 2.109 2.793 4.7
  vertex 1.663 2.881 5
 endloop
endfacet
facet normal 0.479 0.722 0.499
 outer loop
  vertex 1.663 2.881 5
  vertex 2.109 2.793 4.7
  vertex 1.75 3.031 4.7
 endloop
endfacet
facet normal 0.386 0.776 0.499
 outer loop
  vertex 1.663 2.881 5
  vertex 1.75 3.031 4.7
  vertex 1.297 3.064 5
 endloop
endfacet
facet normal 0.386 0.776 0.499
 outer loop
  vertex 1.297 3.064 5
  vertex 1.75 3.031 4.7
  vertex 1.364 3.223 4.7
 endloop
endfacet
facet normal 0.288 0.817 0.499
 outer loop
  vertex 1.297 3.064 5
  vertex 1.364 3.223 4.7
  vertex 0.91 3.2 5
 endloop
endfacet
facet normal 0.288 0.817 0.499
 outer loop
  vertex 0.91 3.2 5
  vertex 1.364 3.223 4.7
  vertex 0.958 3.366 4.7
 endloop
endfacet
facet normal 0.185 0.846 0.499
 outer loop
  vertex 0.91 3.2 5
  vertex 0.958 3.366 4.7
  vertex 0.51 3.287 5
 endloop
endfacet
facet normal 0.185 0.846 0.499
 outer loop
  vertex 0.51 3.287 5
  vertex 0.958 3.366 4.7
  vertex 0.537 3.459 4.7
 endloop
endfacet
facet normal 0.08 0.863 0.499
 outer loop
  vertex 0.51 3.287 5
  vertex 0.537 3.459 4.7
  vertex 0.102 3.325 5
 endloop
endfacet
facet normal 0.08 0.863 0.499
 outer loop
  vertex 0.102 3.325 5
  vertex 0.537 3.459 4.7
  vertex 0.108 3.498 4.7
 endloop
endfacet
facet normal -0.027 0.866 0.499
 outer loop
  vertex 0.102 3.325 5
  vertex 0.108 3.498 4.7
  vertex -0.307 3.313 5
 endloop
endfacet
facet normal -0.027 0.866 0.499
 outer loop
  vertex -0.307 3.313 5
  vertex 0.108 3.498 4.7
  vertex -0.323 3.485 4.7
 endloop
endfacet
facet normal -0.133 0.856 0.499
 outer loop
  vertex -0.307 3.313 5
  vertex -0.323 3.485 4.7
  vertex -0.712 3.25 5
 endloop
endfacet
facet normal -0.133 0.856 0.499
 outer loop
  vertex -0.712 3.25 5
  vertex -0.323 3.485 4.7
  vertex -0.749 3.419 4.7
 endloop
endfacet
facet normal -0.237 0.833 0.499
 outer loop
  vertex -0.712 3.25 5
  vertex -0.749 3.419 4.7
  vertex -1.106 3.138 5
 endloop
endfacet
facet normal -0.237 0.833 0.499
 outer loop
  vertex -1.106 3.138 5
  vertex -0.749 3.419 4.7
  vertex -1.163 3.301 4.7
 endloop
endfacet
facet normal -0.338 0.798 0.499
 outer loop
  vertex -1.106 3.138 5
  vertex -1.163 3.301 4.7
  vertex -1.483 2.978 5
 endloop
endfacet
facet normal -0.338 0.798 0.499
 outer loop
  vertex -1.483 2.978 5
  vertex -1.163 3.301 4.7
  vertex -1.56 3.133 4.7
 endloop
endfacet
facet normal -0.433 0.75 0.499
 outer loop
  vertex -1.483 2.978 5
  vertex -1.56 3.133 4.7
  vertex -1.838 2.773 5
 endloop
endfacet
facet normal -0.433 0.75 0.499
 outer loop
  vertex -1.838 2.773 5
  vertex -1.56 3.133 4.7
  vertex -1.933 2.918 4.7
 endloop
endfacet
facet normal -0.522 0.691 0.499
 outer loop
  vertex -1.838 2.773 5
  vertex -1.933 2.918 4.7
  vertex -2.164 2.526 5
 endloop
endfacet
facet normal -0.522 0.691 0.499
 outer loop
  vertex -2.164 2.526 5
  vertex -1.933 2.918 4.7
  vertex -2.277 2.658 4.7
 endloop
endfacet
facet normal -0.603 0.622 0.499
 outer loop
  vertex -2.164 2.526 5
  vertex -2.277 2.658 4.7
  vertex -2.459 2.241 5
 endloop
endfacet
facet normal -0.603 0.622 0.499
 outer loop
  vertex -2.459 2.241 5
  vertex -2.277 2.658 4.7
  vertex -2.587 2.358 4.7
 endloop
endfacet
facet normal -0.675 0.543 0.499
 outer loop
  vertex -2.459 2.241 5
  vertex -2.587 2.358 4.7
  vertex -2.715 1.922 5
 endloop
endfacet
facet normal -0.675 0.543 0.499
 outer loop
  vertex -2.715 1.922 5
  vertex -2.587 2.358 4.7
  vertex -2.857 2.022 4.7
 endloop
endfacet
facet normal -0.737 0.456 0.499
 outer loop
  vertex -2.715 1.922 5
  vertex -2.857 2.022 4.7
  vertex -2.931 1.574 5
 endloop
endfacet
facet normal -0.737 0.456 0.499
 outer loop
  vertex -2.931 1.574 5
  vertex -2.857 2.022 4.7
  vertex -3.084 1.656 4.7
 endloop
endfacet
facet normal -0.787 0.362 0.499
 outer loop
  vertex -2.931 1.574 5
  vertex -3.084 1.656 4.7
  vertex -3.102 1.202 5
 endloop
endfacet
facet normal -0.787 0.362 0.499
 outer loop
  vertex -3.102 1.202 5
  vertex -3.084 1.656 4.7
  vertex -3.264 1.264 4.7
 endloop
endfacet
facet normal -0.826 0.263 0.499
 outer loop
  vertex -3.102 1.202 5
  vertex -3.264 1.264 4.7
  vertex -3.226 0.811 5
 endloop
endfacet
facet normal -0.826 0.263 0.499
 outer loop
  vertex -3.226 0.811 5
  vertex -3.264 1.264 4.7
  vertex -3.394 0.854 4.7
 endloop
endfacet
facet normal -0.852 0.159 0.499
 outer loop
  vertex -3.226 0.811 5
  vertex -3.394 0.854 4.7
  vertex -3.302 0.409 5
 endloop
endfacet
facet normal -0.852 0.159 0.499
 outer loop
  vertex -3.302 0.409 5
  vertex -3.394 0.854 4.7
  vertex -3.473 0.43 4.7
 endloop
endfacet
facet normal -0.865 0.053 0.499
 outer loop
  vertex -3.302 0.409 5
  vertex -3.473 0.43 4.7
  vertex -3.327 0 5
 endloop
endfacet
facet normal -0.865 0.053 0.499
 outer loop
  vertex -3.327 0 5
  vertex -3.473 0.43 4.7
  vertex -3.5 0 4.7
 endloop
endfacet
facet normal -0.865 -0.053 0.499
 outer loop
  vertex -3.327 0 5
  vertex -3.5 0 4.7
  vertex -3.302 -0.409 5
 endloop
endfacet
facet normal -0.865 -0.053 0.499
 outer loop
  vertex -3.302 -0.409 5
  vertex -3.5 0 4.7
  vertex -3.473 -0.43 4.7
 endloop
endfacet
facet normal -0.852 -0.159 0.499
 outer loop
  vertex -3.302 -0.409 5
  vertex -3.473 -0.43 4.7
  vertex -3.226 -0.811 5
 endloop
endfacet
facet normal -0.852 -0.159 0.499
 outer loop
  vertex -3.226 -0.811 5
  vertex -3.473 -0.43 4.7
  vertex -3.394 -0.854 4.7
 endloop
endfacet
facet normal -0.826 -0.263 0.499
 outer loop
  vertex -3.226 -0.811 5
  vertex -3.394 -0.854 4.7
  vertex -3.102 -1.202 5
 endloop
endfacet
facet normal -0.826 -0.263 0.499
 outer loop
  vertex -3.102 -1.202 5
  vertex -3.394 -0.854 4.7
  vertex -3.264 -1.264 4.7
 endloop
endfacet
facet normal -0.787 -0.362 0.499
 outer loop
  vertex -3.102 -1.202 5
  vertex -3.264 -1.264 4.7
  vertex -2.931 -1.574 5
 endloop
endfacet
facet normal -0.787 -0.362 0.499
 outer loop
  vertex -2.931 -1.574 5
  vertex -3.264 -1.264 4.7
  vertex -3.084 -1.656 4.7
 endloop
endfacet
facet normal -0.737 -0.456 0.499
 outer loop
  vertex -2.931 -1.574 5
  vertex -3.084 -1.656 4.7
  vertex -2.715 -1.922 5
 endloop
endfacet
facet normal -0.737 -0.456 0.499
 outer loop
  vertex -2.715 -1.922 5
  vertex -3.084 -1.656 4.7
  vertex -2.857 -2.022 4.7
 endloop
endfacet
facet normal -0.675 -0.543 0.499
 outer loop
  vertex -2.715 -1.922 5
  vertex -2.857 -2.022 4.7
  vertex -2.459 -2.241 5
 endloop
endfacet
facet normal -0.675 -0.543 0.499
 outer loop
  vertex -2.459 -2.241 5
  vertex -2.857 -2.022 4.7
  vertex -2.587 -2.358 4.7
 endloop
endfacet
facet normal -0.603 -0.622 0.499
 outer loop
  vertex -2.459 -2.241 5
  vertex -2.587 -2.358 4.7
  vertex -2.164 -2.526 5
 endloop
endfacet
facet normal -0.603 -0.622 0.499
 outer loop
  vertex -2.164 -2.526 5
  vertex -2.587 -2.358 4.7
  vertex -2.277 -2.658 4.7
 endloop
endfacet
facet normal -0.522 -0.691 0.499
 outer loop
  vertex -2.164 -2.526 5
  vertex -2.277 -2.658 4.7
  vertex -1.838 -2.773 5
 endloop
endfacet
facet normal -0.522 -0.691 0.499
 outer loop
  vertex -1.838 -2.773 5
  vertex -2.277 -2.658 4.7
  vertex -1.933 -2.918 4.7
 endloop
endfacet
facet normal -0.433 -0.75 0.499
 outer loop
  vertex -1.838 -2.773 5
  vertex -1.933 -2.918 4.7
  vertex -1.483 -2.978 5
 endloop
endfacet
facet normal -0.433 -0.75 0.499
 outer loop
  vertex -1.483 -2.978 5
  vertex -1.933 -2.918 4.7
  vertex -1.56 -3.133 4.7
 endloop
endfacet
facet normal -0.338 -0.798 0.499
 outer loop
  vertex -1.483 -2.978 5
  vertex -1.56 -3.133 4.7
  vertex -1.106 -3.138 5
 endloop
endfacet
facet normal -0.338 -0.798 0.499
 outer loop
  vertex -1.106 -3.138 5
  vertex -1.56 -3.133 4.7
  vertex -1.163 -3.301 4.7
 endloop
endfacet
facet normal -0.237 -0.833 0.499
 outer loop
  vertex -1.106 -3.138 5
  vertex -1.163 -3.301 4.7
  vertex -0.712 -3.25 5
 endloop
endfacet
facet normal -0.237 -0.833 0.499
 outer loop
  vertex -0.712 -3.25 5
  vertex -1.163 -3.301 4.7
  vertex -0.749 -3.419 4.7
 endloop
endfacet
facet normal -0.133 -0.856 0.499
 outer loop
  vertex -0.712 -3.25 5
  vertex -0.749 -3.419 4.7
  vertex -0.307 -3.313 5
 endloop
endfacet
facet normal -0.133 -0.856 0.499
 outer loop
  vertex -0.307 -3.313 5
  vertex -0.749 -3.419 4.7
  vertex -0.323 -3.485 4.7
 endloop
endfacet
facet normal -0.027 -0.866 0.499
 outer loop
  vertex -0.307 -3.313 5
  vertex -0.323 -3.485 4.7
  vertex 0.102 -3.325 5
 endloop
endfacet
facet normal -0.027 -0.866 0.499
 outer loop
  vertex 0.102 -3.325 5
  vertex -0.323 -3.485 4.7
  vertex 0.108 -3.498 4.7
 endloop
endfacet
facet normal 0.08 -0.863 0.499
 outer loop
  vertex 0.102 -3.325 5
  vertex 0.108 -3.498 4.7
  vertex 0.51 -3.287 5
 endloop
endfacet
facet normal 0.08 -0.863 0.499
 outer loop
  vertex 0.51 -3.287 5
  vertex 0.108 -3.498 4.7
  vertex 0.537 -3.459 4.7
 endloop
endfacet
facet normal 0.185 -0.846 0.499
 outer loop
  vertex 0.51 -3.287 5
  vertex 0.537 -3.459 4.7
  vertex 0.91 -3.2 5
 endloop
endfacet
facet normal 0.185 -0.846 0.499
 outer loop
  vertex 0.91 -3.2 5
  vertex 0.537 -3.459 4.7
  vertex 0.958 -3.366 4.7
 endloop
endfacet
facet normal 0.288 -0.817 0.499
 outer loop
  vertex 0.91 -3.2 5
  vertex 0.958 -3.366 4.7
  vertex 1.297 -3.064 5
 endloop
endfacet
facet normal 0.288 -0.817 0.499
 outer loop
  vertex 1.297 -3.064 5
  vertex 0.958 -3.366 4.7
  vertex 1.364 -3.223 4.7
 endloop
endfacet
facet normal 0.386 -0.776 0.499
 outer loop
  vertex 1.297 -3.064 5
  vertex 1.364 -3.223 4.7
  vertex 1.663 -2.881 5
 endloop
endfacet
facet normal 0.386 -0.776 0.499
 outer loop
  vertex 1.663 -2.881 5
  vertex 1.364 -3.223 4.7
  vertex 1.75 -3.031 4.7
 endloop
endfacet
facet normal 0.479 -0.722 0.499
 outer loop
  vertex 1.663 -2.881 5
  vertex 1.75 -3.031 4.7
  vertex 2.005 -2.655 5
 endloop
endfacet
facet normal 0.479 -0.722 0.499
 outer loop
  vertex 2.005 -2.655 5
  vertex 1.75 -3.031 4.7
  vertex 2.109 -2.793 4.7
 endloop
endfacet
facet normal 0.564 -0.658 0.499
 outer loop
  vertex 2.005 -2.655 5
  vertex 2.109 -2.793 4.7
  vertex 2.316 -2.388 5
 endloop
endfacet
facet normal 0.564 -0.658 0.499
 outer loop
  vertex 2.316 -2.388 5
  vertex 2.109 -2.793 4.7
  vertex 2.436 -2.513 4.7
 endloop
endfacet
facet normal 0.64 -0.584 0.499
 outer loop
  vertex 2.316 -2.388 5
  vertex 2.436 -2.513 4.7
  vertex 2.592 -2.086 5
 endloop
endfacet
facet normal 0.64 -0.584 0.499
 outer loop
  vertex 2.592 -2.086 5
  vertex 2.436 -2.513 4.7
  vertex 2.727 -2.194 4.7
 endloop
endfacet
facet normal 0.707 -0.501 0.499
 outer loop
  vertex 2.592 -2.086 5
  vertex 2.727 -2.194 4.7
  vertex 2.829 -1.751 5
 endloop
endfacet
facet normal 0.707 -0.501 0.499
 outer loop
  vertex 2.829 -1.751 5
  vertex 2.727 -2.194 4.7
  vertex 2.976 -1.843 4.7
 endloop
endfacet
facet normal 0.763 -0.41 0.499
 outer loop
  vertex 2.829 -1.751 5
  vertex 2.976 -1.843 4.7
  vertex 3.022 -1.39 5
 endloop
endfacet
facet normal 0.763 -0.41 0.499
 outer loop
  vertex 3.022 -1.39 5
  vertex 2.976 -1.843 4.7
  vertex 3.18 -1.463 4.7
 endloop
endfacet
facet normal 0.808 -0.313 0.499
 outer loop
  vertex 3.022 -1.39 5
  vertex 3.18 -1.463 4.7
  vertex 3.17 -1.009 5
 endloop
endfacet
facet normal 0.808 -0.313 0.499
 outer loop
  vertex 3.17 -1.009 5
  vertex 3.18 -1.463 4.7
  vertex 3.335 -1.061 4.7
 endloop
endfacet
facet normal 0.84 -0.211 0.499
 outer loop
  vertex 3.17 -1.009 5
  vertex 3.335 -1.061 4.7
  vertex 3.27 -0.611 5
 endloop
endfacet
facet normal 0.84 -0.211 0.499
 outer loop
  vertex 3.27 -0.611 5
  vertex 3.335 -1.061 4.7
  vertex 3.44 -0.643 4.7
 endloop
endfacet
facet normal 0.86 -0.106 0.499
 outer loop
  vertex 3.27 -0.611 5
  vertex 3.44 -0.643 4.7
  vertex 3.32 -0.205 5
 endloop
endfacet
facet normal 0.86 -0.106 0.499
 outer loop
  vertex 3.32 -0.205 5
  vertex 3.44 -0.643 4.7
  vertex 3.493 -0.215 4.7
 endloop
endfacet
facet normal -0 0 1
 outer loop
  vertex 2.495 -0.154 5
  vertex 3.32 -0.205 5
  vertex 2.5 0 5
 endloop
endfacet
facet normal -0 0 1
 outer loop
  vertex 2.5 0 5
  vertex 3.32 -0.205 5
  vertex 3.327 0 5
 endloop
endfacet
facet normal 0 -0 1
 outer loop
  vertex 2.5 0 5
  vertex 3.327 0 5
  vertex 2.495 0.154 5
 endloop
endfacet
facet normal -0 0 1
 outer loop
  vertex 2.495 0.154 5
  vertex 3.327 0 5
  vertex 3.32 0.205 5
 endloop
endfacet
facet normal 0 -0 1
 outer loop
  vertex 2.495 0.154 5
  vertex 3.32 0.205 5
  vertex 2.457 0.459 5
 endloop
endfacet
facet normal -0 0 1
 outer loop
  vertex 2.457 0.459 5
  vertex 3.32 0.205 5
  vertex 3.27 0.611 5
 endloop
endfacet
facet normal 0 -0 1
 outer loop
  vertex 2.457 0.459 5
  vertex 3.27 0.611 5
  vertex 2.382 0.758 5
 endloop
endfacet
facet normal -0 0 1
 outer loop
  vertex 2.382 0.758 5
  vertex 3.27 0.611 5
  vertex 3.17 1.009 5
 endloop
endfacet
facet normal 0 -0 1
 outer loop
  vertex 2.382 0.758 5
  vertex 3.17 1.009 5
  vertex 2.271 1.045 5
 endloop
endfacet
facet normal -0 0 1
 outer loop
  vertex 2.271 1.045 5
  vertex 3.17 1.009 5
  vertex 3.022 1.39 5
 endloop
endfacet
facet normal 0 -0 1
 outer loop
  vertex 2.271 1.045 5
  vertex 3.022 1.39 5
  vertex 2.126 1.316 5
 endloop
endfacet
facet normal 0 0 1
 outer loop
  vertex 2.126 1.316 5
  vertex 3.022 1.39 5
  vertex 2.829 1.751 5
 endloop
endfacet
facet normal 0 -0 1
 outer loop
  vertex 2.126 1.316 5
  vertex 2.829 1.751 5
  vertex 1.948 1.567 5
 endloop
endfacet
facet normal 0 0 1
 outer loop
  vertex 1.948 1.567 5
  vertex 2.829 1.751 5
  vertex 2.592 2.086 5
 endloop
endfacet
facet normal 0 -0 1
 outer loop
  vertex 1.948 1.567 5
  vertex 2.592 2.086 5
  vertex 1.74 1.795 5
 endloop
endfacet
facet normal 0 0 1
 outer loop
  vertex 1.74 1.795 5
  vertex 2.592 2.086 5
  vertex 2.316 2.388 5
 endloop
endfacet
facet normal 0 -0 1
 outer loop
  vertex 1.74 1.795 5
  vertex 2.316 2.388 5
  vertex 1.507 1.995 5
 endloop
endfacet
facet normal 0 0 1
 outer loop
  vertex 1.507 1.995 5
  vertex 2.316 2.388 5
  vertex 2.005 2.655 5
 endloop
endfacet
facet normal 0 -0 1
 outer loop
  vertex 1.507 1.995 5
  vertex 2.005 2.655 5
  vertex 1.25 2.165 5
 endloop
endfacet
facet normal 0 0 1
 outer loop
  vertex 1.25 2.165 5
  vertex 2.005 2.655 5
  vertex 1.663 2.881 5
 endloop
endfacet
facet normal 0 -0 1
 outer loop
  vertex 1.25 2.165 5
  vertex 1.663 2.881 5
  vertex 0.974 2.302 5
 endloop
endfacet
facet normal 0 0 1
 outer loop
  vertex 0.974 2.302 5
  vertex 1.663 2.881 5
  vertex 1.297 3.064 5
 endloop
endfacet
facet normal 0 -0 1
 outer loop
  vertex 0.974 2.302 5
  vertex 1.297 3.064 5
  vertex 0.684 2.405 5
 endloop
endfacet
facet normal 0 0 1
 outer loop
  vertex 0.684 2.405 5
  vertex 1.297 3.064 5
  vertex 0.91 3.2 5
 endloop
endfacet
facet normal 0 -0 1
 outer loop
  vertex 0.684 2.405 5
  vertex 0.91 3.2 5
  vertex 0.383 2.47 5
 endloop
endfacet
facet normal 0 0 1
 outer loop
  vertex 0.383 2.47 5
  vertex 0.91 3.2 5
  vertex 0.51 3.287 5
 endloop
endfacet
facet normal 0 -0 1
 outer loop
  vertex 0.383 2.47 5
  vertex 0.51 3.287 5
  vertex 0.077 2.499 5
 endloop
endfacet
facet normal 0 0 1
 outer loop
  vertex 0.077 2.499 5
  vertex 0.51 3.287 5
  vertex 0.102 3.325 5
 endloop
endfacet
facet normal 0 -0 1
 outer loop
  vertex 0.077 2.499 5
  vertex 0.102 3.325 5
  vertex -0.307 3.313 5
 endloop
endfacet
facet normal 0 0 1
 outer loop
  vertex 2.495 -0.154 5
  vertex 2.457 -0.459 5
  vertex 3.32 -0.205 5
 endloop
endfacet
facet normal 0 0 1
 outer loop
  vertex 3.32 -0.205 5
  vertex 2.457 -0.459 5
  vertex 3.27 -0.611 5
 endloop
endfacet
facet normal 0 0 1
 outer loop
  vertex 2.457 -0.459 5
  vertex 2.382 -0.758 5
  vertex 3.27 -0.611 5
 endloop
endfacet
facet normal 0 0 1
 outer loop
  vertex 3.27 -0.611 5
  vertex 2.382 -0.758 5
  vertex 3.17 -1.009 5
 endloop
endfacet
facet normal 0 0 1
 outer loop
  vertex 2.382 -0.758 5
  vertex 2.271 -1.045 5
  vertex 3.17 -1.009 5
 endloop
endfacet
facet normal 0 0 1
 outer loop
  vertex 3.17 -1.009 5
  vertex 2.271 -1.045 5
  vertex 3.022 -1.39 5
 endloop
endfacet
facet normal 0 0 1
 outer loop
  vertex 2.271 -1.045 5
  vertex 2.126 -1.316 5
  vertex 3.022 -1.39 5
 endloop
endfacet
facet normal 0 0 1
 outer loop
  vertex 3.022 -1.39 5
  vertex 2.126 -1.316 5
  vertex 2.829 -1.751 5
 endloop
endfacet
facet normal 0 0 1
 outer loop
  vertex 2.126 -1.316 5
  vertex 1.948 -1.567 5
  vertex 2.829 -1.751 5
 endloop
endfacet
facet normal 0 0 1
 outer loop
  vertex 2.829 -1.751 5
  vertex 1.948 -1.567 5
  vertex 2.592 -2.086 5
 endloop
endfacet
facet normal 0 0 1
 outer loop
  vertex 1.948 -1.567 5
  vertex 1.74 -1.795 5
  vertex 2.592 -2.086 5
 endloop
endfacet
facet normal 0 0 1
 outer loop
  vertex 2.592 -2.086 5
  vertex 1.74 -1.795 5
  vertex 2.316 -2.388 5
 endloop
endfacet
facet normal 0 0 1
 outer loop
  vertex 1.74 -1.795 5
  vertex 1.507 -1.995 5
  vertex 2.316 -2.388 5
 endloop
endfacet
facet normal 0 0 1
 outer loop
  vertex 2.316 -2.388 5
  vertex 1.507 -1.995 5
  vertex 2.005 -2.655 5
 endloop
endfacet
facet normal 0 0 1
 outer loop
  vertex 1.507 -1.995 5
  vertex 1.25 -2.165 5
  vertex 2.005 -2.655 5
 endloop
endfacet
facet normal 0 0 1
 outer loop
  vertex 2.005 -2.655 5
  vertex 1.25 -2.165 5
  vertex 1.663 -2.881 5
 endloop
endfacet
facet normal 0 0 1
 outer loop
  vertex 1.25 -2.165 5
  vertex 0.974 -2.302 5
  vertex 1.663 -2.881 5
 endloop
endfacet
facet normal 0 0 1
 outer loop
  vertex 1.663 -2.881 5
  vertex 0.974 -2.302 5
  vertex 1.297 -3.064 5
 endloop
endfacet
facet normal 0 0 1
 outer loop
  vertex 0.974 -2.302 5
  vertex 0.684 -2.405 5
  vertex 1.297 -3.064 5
 endloop
endfacet
facet normal 0 0 1
 outer loop
  vertex 1.297 -3.064 5
  vertex 0.684 -2.405 5
  vertex 0.91 -3.2 5
 endloop
endfacet
facet normal 0 0 1
 outer loop
  vertex 0.684 -2.405 5
  vertex 0.383 -2.47 5
  vertex 0.91 -3.2 5
 endloop
endfacet
facet normal 0 0 1
 outer loop
  vertex 0.91 -3.2 5
  vertex 0.383 -2.47 5
  vertex 0.51 -3.287 5
 endloop
endfacet
facet normal 0 0 1
 outer loop
  vertex 0.383 -2.47 5
  vertex 0.077 -2.499 5
  vertex 0.51 -3.287 5
 endloop
endfacet
facet normal 0 0 1
 outer loop
  vertex 0.51 -3.287 5
  vertex 0.077 -2.499 5
  vertex 0.102 -3.325 5
 endloop
endfacet
facet normal 0 0 1
 outer loop
  vertex 0.102 -3.325 5
  vertex 0.077 -2.499 5
  vertex -0.307 -3.313 5
 endloop
endfacet
facet normal 0 0 1
 outer loop
  vertex -0.307 -3.313 5
  vertex 0.077 -2.499 5
  vertex -0.231 -2.489 5
 endloop
endfacet
facet normal 0 -0 1
 outer loop
  vertex -0.307 -3.313 5
  vertex -0.231 -2.489 5
  vertex -0.712 -3.25 5
 endloop
endfacet
facet normal 0 0 1
 outer loop
  vertex -0.712 -3.25 5
  vertex -0.231 -2.489 5
  vertex -0.535 -2.442 5
 endloop
endfacet
facet normal 0 -0 1
 outer loop
  vertex -0.712 -3.25 5
  vertex -0.535 -2.442 5
  vertex -1.106 -3.138 5
 endloop
endfacet
facet normal 0 0 1
 outer loop
  vertex -1.106 -3.138 5
  vertex -0.535 -2.442 5
  vertex -0.831 -2.358 5
 endloop
endfacet
facet normal 0 -0 1
 outer loop
  vertex -1.106 -3.138 5
  vertex -0.831 -2.358 5
  vertex -1.483 -2.978 5
 endloop
endfacet
facet normal 0 0 1
 outer loop
  vertex -1.483 -2.978 5
  vertex -0.831 -2.358 5
  vertex -1.114 -2.238 5
 endloop
endfacet
facet normal 0 -0 1
 outer loop
  vertex -1.483 -2.978 5
  vertex -1.114 -2.238 5
  vertex -1.838 -2.773 5
 endloop
endfacet
facet normal 0 0 1
 outer loop
  vertex -1.838 -2.773 5
  vertex -1.114 -2.238 5
  vertex -1.381 -2.084 5
 endloop
endfacet
facet normal 0 -0 1
 outer loop
  vertex -1.838 -2.773 5
  vertex -1.381 -2.084 5
  vertex -2.164 -2.526 5
 endloop
endfacet
facet normal 0 0 1
 outer loop
  vertex -2.164 -2.526 5
  vertex -1.381 -2.084 5
  vertex -1.627 -1.899 5
 endloop
endfacet
facet normal 0 -0 1
 outer loop
  vertex -2.164 -2.526 5
  vertex -1.627 -1.899 5
  vertex -2.459 -2.241 5
 endloop
endfacet
facet normal 0 0 1
 outer loop
  vertex -2.459 -2.241 5
  vertex -1.627 -1.899 5
  vertex -1.848 -1.684 5
 endloop
endfacet
facet normal 0 -0 1
 outer loop
  vertex -2.459 -2.241 5
  vertex -1.848 -1.684 5
  vertex -2.715 -1.922 5
 endloop
endfacet
facet normal 0 0 1
 outer loop
  vertex -2.715 -1.922 5
  vertex -1.848 -1.684 5
  vertex -2.04 -1.444 5
 endloop
endfacet
facet normal 0 -0 1
 outer loop
  vertex -2.715 -1.922 5
  vertex -2.04 -1.444 5
  vertex -2.931 -1.574 5
 endloop
endfacet
facet normal 0 0 1
 outer loop
  vertex -2.931 -1.574 5
  vertex -2.04 -1.444 5
  vertex -2.203 -1.183 5
 endloop
endfacet
facet normal 0 -0 1
 outer loop
  vertex -2.931 -1.574 5
  vertex -2.203 -1.183 5
  vertex -3.102 -1.202 5
 endloop
endfacet
facet normal 0 0 1
 outer loop
  vertex -3.102 -1.202 5
  vertex -2.203 -1.183 5
  vertex -2.331 -0.903 5
 endloop
endfacet
facet normal 0 -0 1
 outer loop
  vertex -3.102 -1.202 5
  vertex -2.331 -0.903 5
  vertex -3.226 -0.811 5
 endloop
endfacet
facet normal -0 0 1
 outer loop
  vertex -3.226 -0.811 5
  vertex -2.331 -0.903 5
  vertex -2.424 -0.61 5
 endloop
endfacet
facet normal 0 -0 1
 outer loop
  vertex -3.226 -0.811 5
  vertex -2.424 -0.61 5
  vertex -3.302 -0.409 5
 endloop
endfacet
facet normal -0 0 1
 outer loop
  vertex -3.302 -0.409 5
  vertex -2.424 -0.61 5
  vertex -2.481 -0.307 5
 endloop
endfacet
facet normal 0 -0 1
 outer loop
  vertex -3.302 -0.409 5
  vertex -2.481 -0.307 5
  vertex -3.327 0 5
 endloop
endfacet
facet normal 0 0 1
 outer loop
  vertex -3.327 0 5
  vertex -2.481 -0.307 5
  vertex -2.5 0 5
 endloop
endfacet
facet normal -0 0 1
 outer loop
  vertex -3.327 0 5
  vertex -2.5 0 5
  vertex -2.481 0.307 5
 endloop
endfacet
facet normal 0 0 1
 outer loop
  vertex -3.327 0 5
  vertex -2.481 0.307 5
  vertex -3.302 0.409 5
 endloop
endfacet
facet normal -0 0 1
 outer loop
  vertex -3.302 0.409 5
  vertex -2.481 0.307 5
  vertex -2.424 0.61 5
 endloop
endfacet
facet normal 0 0 1
 outer loop
  vertex -3.302 0.409 5
  vertex -2.424 0.61 5
  vertex -3.226 0.811 5
 endloop
endfacet
facet normal -0 0 1
 outer loop
  vertex -3.226 0.811 5
  vertex -2.424 0.61 5
  vertex -2.331 0.903 5
 endloop
endfacet
facet normal 0 0 1
 outer loop
  vertex -3.226 0.811 5
  vertex -2.331 0.903 5
  vertex -3.102 1.202 5
 endloop
endfacet
facet normal 0 0 1
 outer loop
  vertex -3.102 1.202 5
  vertex -2.331 0.903 5
  vertex -2.203 1.183 5
 endloop
endfacet
facet normal -0 0 1
 outer loop
  vertex -3.102 1.202 5
  vertex -2.203 1.183 5
  vertex -2.931 1.574 5
 endloop
endfacet
facet normal 0 0 1
 outer loop
  vertex -2.931 1.574 5
  vertex -2.203 1.183 5
  vertex -2.04 1.444 5
 endloop
endfacet
facet normal -0 0 1
 outer loop
  vertex -2.931 1.574 5
  vertex -2.04 1.444 5
  vertex -2.715 1.922 5
 endloop
endfacet
facet normal 0 0 1
 outer loop
  vertex -2.715 1.922 5
  vertex -2.04 1.444 5
  vertex -1.848 1.684 5
 endloop
endfacet
facet normal -0 0 1
 outer loop
  vertex -2.715 1.922 5
  vertex -1.848 1.684 5
  vertex -2.459 2.241 5
 endloop
endfacet
facet normal 0 0 1
 outer loop
  vertex -2.459 2.241 5
  vertex -1.848 1.684 5
  vertex -1.627 1.899 5
 endloop
endfacet
facet normal -0 0 1
 outer loop
  vertex -2.459 2.241 5
  vertex -1.627 1.899 5
  vertex -2.164 2.526 5
 endloop
endfacet
facet normal 0 0 1
 outer loop
  vertex -2.164 2.526 5
  vertex -1.627 1.899 5
  vertex -1.381 2.084 5
 endloop
endfacet
facet normal -0 0 1
 outer loop
  vertex -2.164 2.526 5
  vertex -1.381 2.084 5
  vertex -1.838 2.773 5
 endloop
endfacet
facet normal 0 0 1
 outer loop
  vertex -1.838 2.773 5
  vertex -1.381 2.084 5
  vertex -1.114 2.238 5
 endloop
endfacet
facet normal -0 0 1
 outer loop
  vertex -1.838 2.773 5
  vertex -1.114 2.238 5
  vertex -1.483 2.978 5
 endloop
endfacet
facet normal 0 0 1
 outer loop
  vertex -1.483 2.978 5
  vertex -1.114 2.238 5
  vertex -0.831 2.358 5
 endloop
endfacet
facet normal -0 0 1
 outer loop
  vertex -1.483 2.978 5
  vertex -0.831 2.358 5
  vertex -1.106 3.138 5
 endloop
endfacet
facet normal 0 0 1
 outer loop
  vertex -1.106 3.138 5
  vertex -0.831 2.358 5
  vertex -0.535 2.442 5
 endloop
endfacet
facet normal -0 0 1
 outer loop
  vertex -1.106 3.138 5
  vertex -0.535 2.442 5
  vertex -0.712 3.25 5
 endloop
endfacet
facet normal 0 0 1
 outer loop
  vertex -0.712 3.25 5
  vertex -0.535 2.442 5
  vertex -0.231 2.489 5
 endloop
endfacet
facet normal -0 0 1
 outer loop
  vertex -0.712 3.25 5
  vertex -0.231 2.489 5
  vertex -0.307 3.313 5
 endloop
endfacet
facet normal 0 0 1
 outer loop
  vertex -0.307 3.313 5
  vertex -0.231 2.489 5
  vertex 0.077 2.499 5
 endloop
endfacet
facet normal -1 0.031 0
 outer loop
  vertex 2.495 -0.154 0.5
  vertex 2.495 -0.154 5
  vertex 2.5 0 0.5
 endloop
endfacet
facet normal -1 0.031 0
 outer loop
  vertex 2.5 0 0.5
  vertex 2.495 -0.154 5
  vertex 2.5 0 5
 endloop
endfacet
facet normal -1 -0.031 0
 outer loop
  vertex 2.5 0 0.5
  vertex 2.5 0 5
  vertex 2.495 0.154 0.5
 endloop
endfacet
facet normal -1 -0.031 0
 outer loop
  vertex 2.495 0.154 0.5
  vertex 2.5 0 5
  vertex 2.495 0.154 5
 endloop
endfacet
facet normal -0.992 -0.123 0
 outer loop
  vertex 2.495 0.154 0.5
  vertex 2.495 0.154 5
  vertex 2.457 0.459 0.5
 endloop
endfacet
facet normal -0.992 -0.123 0
 outer loop
  vertex 2.457 0.459 0.5
  vertex 2.495 0.154 5
  vertex 2.457 0.459 5
 endloop
endfacet
facet normal -0.97 -0.244 0
 outer loop
  vertex 2.457 0.459 0.5
  vertex 2.457 0.459 5
  vertex 2.382 0.758 0.5
 endloop
endfacet
facet normal -0.97 -0.244 0
 outer loop
  vertex 2.382 0.758 0.5
  vertex 2.457 0.459 5
  vertex 2.382 0.758 5
 endloop
endfacet
facet normal -0.932 -0.361 0
 outer loop
  vertex 2.382 0.758 0.5
  vertex 2.382 0.758 5
  vertex 2.271 1.045 0.5
 endloop
endfacet
facet normal -0.932 -0.361 0
 outer loop
  vertex 2.271 1.045 0.5
  vertex 2.382 0.758 5
  vertex 2.271 1.045 5
 endloop
endfacet
facet normal -0.881 -0.473 0
 outer loop
  vertex 2.271 1.045 0.5
  vertex 2.271 1.045 5
  vertex 2.126 1.316 0.5
 endloop
endfacet
facet normal -0.881 -0.473 0
 outer loop
  vertex 2.126 1.316 0.5
  vertex 2.271 1.045 5
  vertex 2.126 1.316 5
 endloop
endfacet
facet normal -0.816 -0.578 0
 outer loop
  vertex 2.126 1.316 0.5
  vertex 2.126 1.316 5
  vertex 1.948 1.567 0.5
 endloop
endfacet
facet normal -0.816 -0.578 0
 outer loop
  vertex 1.948 1.567 0.5
  vertex 2.126 1.316 5
  vertex 1.948 1.567 5
 endloop
endfacet
facet normal -0.739 -0.674 0
 outer loop
  vertex 1.948 1.567 0.5
  vertex 1.948 1.567 5
  vertex 1.74 1.795 0.5
 endloop
endfacet
facet normal -0.739 -0.674 0
 outer loop
  vertex 1.74 1.795 0.5
  vertex 1.948 1.567 5
  vertex 1.74 1.795 5
 endloop
endfacet
facet normal -0.651 -0.759 0
 outer loop
  vertex 1.74 1.795 0.5
  vertex 1.74 1.795 5
  vertex 1.507 1.995 0.5
 endloop
endfacet
facet normal -0.651 -0.759 0
 outer loop
  vertex 1.507 1.995 0.5
  vertex 1.74 1.795 5
  vertex 1.507 1.995 5
 endloop
endfacet
facet normal -0.552 -0.834 0
 outer loop
  vertex 1.507 1.995 0.5
  vertex 1.507 1.995 5
  vertex 1.25 2.165 0.5
 endloop
endfacet
facet normal -0.552 -0.834 0
 outer loop
  vertex 1.25 2.165 0.5
  vertex 1.507 1.995 5
  vertex 1.25 2.165 5
 endloop
endfacet
facet normal -0.446 -0.895 0
 outer loop
  vertex 1.25 2.165 0.5
  vertex 1.25 2.165 5
  vertex 0.974 2.302 0.5
 endloop
endfacet
facet normal -0.446 -0.895 0
 outer loop
  vertex 0.974 2.302 0.5
  vertex 1.25 2.165 5
  vertex 0.974 2.302 5
 endloop
endfacet
facet normal -0.332 -0.943 0
 outer loop
  vertex 0.974 2.302 0.5
  vertex 0.974 2.302 5
  vertex 0.684 2.405 0.5
 endloop
endfacet
facet normal -0.332 -0.943 0
 outer loop
  vertex 0.684 2.405 0.5
  vertex 0.974 2.302 5
  vertex 0.684 2.405 5
 endloop
endfacet
facet normal -0.214 -0.977 0
 outer loop
  vertex 0.684 2.405 0.5
  vertex 0.684 2.405 5
  vertex 0.383 2.47 0.5
 endloop
endfacet
facet normal -0.214 -0.977 0
 outer loop
  vertex 0.383 2.47 0.5
  vertex 0.684 2.405 5
  vertex 0.383 2.47 5
 endloop
endfacet
facet normal -0.092 -0.996 0
 outer loop
  vertex 0.383 2.47 0.5
  vertex 0.383 2.47 5
  vertex 0.077 2.499 0.5
 endloop
endfacet
facet normal -0.092 -0.996 0
 outer loop
  vertex 0.077 2.499 0.5
  vertex 0.383 2.47 5
  vertex 0.077 2.499 5
 endloop
endfacet
facet normal 0.031 -1 0
 outer loop
  vertex 0.077 2.499 0.5
  vertex 0.077 2.499 5
  vertex -0.231 2.489 0.5
 endloop
endfacet
facet normal 0.031 -1 0
 outer loop
  vertex -0.231 2.489 0.5
  vertex 0.077 2.499 5
  vertex -0.231 2.489 5
 endloop
endfacet
facet normal 0.153 -0.988 0
 outer loop
  vertex -0.231 2.489 0.5
  vertex -0.231 2.489 5
  vertex -0.535 2.442 0.5
 endloop
endfacet
facet normal 0.153 -0.988 0
 outer loop
  vertex -0.535 2.442 0.5
  vertex -0.231 2.489 5
  vertex -0.535 2.442 5
 endloop
endfacet
facet normal 0.274 -0.962 0
 outer loop
  vertex -0.535 2.442 0.5
  vertex -0.535 2.442 5
  vertex -0.831 2.358 0.5
 endloop
endfacet
facet normal 0.274 -0.962 0
 outer loop
  vertex -0.831 2.358 0.5
  vertex -0.535 2.442 5
  vertex -0.831 2.358 5
 endloop
endfacet
facet normal 0.39 -0.921 0
 outer loop
  vertex -0.831 2.358 0.5
  vertex -0.831 2.358 5
  vertex -1.114 2.238 0.5
 endloop
endfacet
facet normal 0.39 -0.921 0
 outer loop
  vertex -1.114 2.238 0.5
  vertex -0.831 2.358 5
  vertex -1.114 2.238 5
 endloop
endfacet
facet normal 0.5 -0.866 0
 outer loop
  vertex -1.114 2.238 0.5
  vertex -1.114 2.238 5
  vertex -1.381 2.084 0.5
 endloop
endfacet
facet normal 0.5 -0.866 0
 outer loop
  vertex -1.381 2.084 0.5
  vertex -1.114 2.238 5
  vertex -1.381 2.084 5
 endloop
endfacet
facet normal 0.603 -0.798 0
 outer loop
  vertex -1.381 2.084 0.5
  vertex -1.381 2.084 5
  vertex -1.627 1.899 0.5
 endloop
endfacet
facet normal 0.603 -0.798 0
 outer loop
  vertex -1.627 1.899 0.5
  vertex -1.381 2.084 5
  vertex -1.627 1.899 5
 endloop
endfacet
facet normal 0.696 -0.718 0
 outer loop
  vertex -1.627 1.899 0.5
  vertex -1.627 1.899 5
  vertex -1.848 1.684 0.5
 endloop
endfacet
facet normal 0.696 -0.718 0
 outer loop
  vertex -1.848 1.684 0.5
  vertex -1.627 1.899 5
  vertex -1.848 1.684 5
 endloop
endfacet
facet normal 0.779 -0.627 0
 outer loop
  vertex -1.848 1.684 0.5
  vertex -1.848 1.684 5
  vertex -2.04 1.444 0.5
 endloop
endfacet
facet normal 0.779 -0.627 0
 outer loop
  vertex -2.04 1.444 0.5
  vertex -1.848 1.684 5
  vertex -2.04 1.444 5
 endloop
endfacet
facet normal 0.85 -0.526 0
 outer loop
  vertex -2.04 1.444 0.5
  vertex -2.04 1.444 5
  vertex -2.203 1.183 0.5
 endloop
endfacet
facet normal 0.85 -0.526 0
 outer loop
  vertex -2.203 1.183 0.5
  vertex -2.04 1.444 5
  vertex -2.203 1.183 5
 endloop
endfacet
facet normal 0.908 -0.418 0
 outer loop
  vertex -2.203 1.183 0.5
  vertex -2.203 1.183 5
  vertex -2.331 0.903 0.5
 endloop
endfacet
facet normal 0.908 -0.418 0
 outer loop
  vertex -2.331 0.903 0.5
  vertex -2.203 1.183 5
  vertex -2.331 0.903 5
 endloop
endfacet
facet normal 0.953 -0.303 0
 outer loop
  vertex -2.331 0.903 0.5
  vertex -2.331 0.903 5
  vertex -2.424 0.61 0.5
 endloop
endfacet
facet normal 0.953 -0.303 0
 outer loop
  vertex -2.424 0.61 0.5
  vertex -2.331 0.903 5
  vertex -2.424 0.61 5
 endloop
endfacet
facet normal 0.983 -0.184 0
 outer loop
  vertex -2.424 0.61 0.5
  vertex -2.424 0.61 5
  vertex -2.481 0.307 0.5
 endloop
endfacet
facet normal 0.983 -0.184 0
 outer loop
  vertex -2.481 0.307 0.5
  vertex -2.424 0.61 5
  vertex -2.481 0.307 5
 endloop
endfacet
facet normal 0.998 -0.062 0
 outer loop
  vertex -2.481 0.307 0.5
  vertex -2.481 0.307 5
  vertex -2.5 0 0.5
 endloop
endfacet
facet normal 0.998 -0.062 0
 outer loop
  vertex -2.5 0 0.5
  vertex -2.481 0.307 5
  vertex -2.5 0 5
 endloop
endfacet
facet normal 0.998 0.062 -0
 outer loop
  vertex -2.5 0 0.5
  vertex -2.5 0 5
  vertex -2.481 -0.307 0.5
 endloop
endfacet
facet normal 0.998 0.062 -0
 outer loop
  vertex -2.481 -0.307 0.5
  vertex -2.5 0 5
  vertex -2.481 -0.307 5
 endloop
endfacet
facet normal 0.983 0.184 -0
 outer loop
  vertex -2.481 -0.307 0.5
  vertex -2.481 -0.307 5
  vertex -2.424 -0.61 0.5
 endloop
endfacet
facet normal 0.983 0.184 -0
 outer loop
  vertex -2.424 -0.61 0.5
  vertex -2.481 -0.307 5
  vertex -2.424 -0.61 5
 endloop
endfacet
facet normal 0.953 0.303 -0
 outer loop
  vertex -2.424 -0.61 0.5
  vertex -2.424 -0.61 5
  vertex -2.331 -0.903 0.5
 endloop
endfacet
facet normal 0.953 0.303 -0
 outer loop
  vertex -2.331 -0.903 0.5
  vertex -2.424 -0.61 5
  vertex -2.331 -0.903 5
 endloop
endfacet
facet normal 0.908 0.418 -0
 outer loop
  vertex -2.331 -0.903 0.5
  vertex -2.331 -0.903 5
  vertex -2.203 -1.183 0.5
 endloop
endfacet
facet normal 0.908 0.418 -0
 outer loop
  vertex -2.203 -1.183 0.5
  vertex -2.331 -0.903 5
  vertex -2.203 -1.183 5
 endloop
endfacet
facet normal 0.85 0.526 -0
 outer loop
  vertex -2.203 -1.183 0.5
  vertex -2.203 -1.183 5
  vertex -2.04 -1.444 0.5
 endloop
endfacet
facet normal 0.85 0.526 -0
 outer loop
  vertex -2.04 -1.444 0.5
  vertex -2.203 -1.183 5
  vertex -2.04 -1.444 5
 endloop
endfacet
facet normal 0.779 0.627 -0
 outer loop
  vertex -2.04 -1.444 0.5
  vertex -2.04 -1.444 5
  vertex -1.848 -1.684 0.5
 endloop
endfacet
facet normal 0.779 0.627 -0
 outer loop
  vertex -1.848 -1.684 0.5
  vertex -2.04 -1.444 5
  vertex -1.848 -1.684 5
 endloop
endfacet
facet normal 0.696 0.718 -0
 outer loop
  vertex -1.848 -1.684 0.5
  vertex -1.848 -1.684 5
  vertex -1.627 -1.899 0.5
 endloop
endfacet
facet normal 0.696 0.718 -0
 outer loop
  vertex -1.627 -1.899 0.5
  vertex -1.848 -1.684 5
  vertex -1.627 -1.899 5
 endloop
endfacet
facet normal 0.603 0.798 -0
 outer loop
  vertex -1.627 -1.899 0.5
  vertex -1.627 -1.899 5
  vertex -1.381 -2.084 0.5
 endloop
endfacet
facet normal 0.603 0.798 -0
 outer loop
  vertex -1.381 -2.084 0.5
  vertex -1.627 -1.899 5
  vertex -1.381 -2.084 5
 endloop
endfacet
facet normal 0.5 0.866 -0
 outer loop
  vertex -1.381 -2.084 0.5
  vertex -1.381 -2.084 5
  vertex -1.114 -2.238 0.5
 endloop
endfacet
facet normal 0.5 0.866 -0
 outer loop
  vertex -1.114 -2.238 0.5
  vertex -1.381 -2.084 5
  vertex -1.114 -2.238 5
 endloop
endfacet
facet normal 0.39 0.921 -0
 outer loop
  vertex -1.114 -2.238 0.5
  vertex -1.114 -2.238 5
  vertex -0.831 -2.358 0.5
 endloop
endfacet
facet normal 0.39 0.921 -0
 outer loop
  vertex -0.831 -2.358 0.5
  vertex -1.114 -2.238 5
  vertex -0.831 -2.358 5
 endloop
endfacet
facet normal 0.274 0.962 -0
 outer loop
  vertex -0.831 -2.358 0.5
  vertex -0.831 -2.358 5
  vertex -0.535 -2.442 0.5
 endloop
endfacet
facet normal 0.274 0.962 -0
 outer loop
  vertex -0.535 -2.442 0.5
  vertex -0.831 -2.358 5
  vertex -0.535 -2.442 5
 endloop
endfacet
facet normal 0.153 0.988 -0
 outer loop
  vertex -0.535 -2.442 0.5
  vertex -0.535 -2.442 5
  vertex -0.231 -2.489 0.5
 endloop
endfacet
facet normal 0.153 0.988 -0
 outer loop
  vertex -0.231 -2.489 0.5
  vertex -0.535 -2.442 5
  vertex -0.231 -2.489 5
 endloop
endfacet
facet normal 0.031 1 -0
 outer loop
  vertex -0.231 -2.489 0.5
  vertex -0.231 -2.489 5
  vertex 0.077 -2.499 0.5
 endloop
endfacet
facet normal 0.031 1 -0
 outer loop
  vertex 0.077 -2.499 0.5
  vertex -0.231 -2.489 5
  vertex 0.077 -2.499 5
 endloop
endfacet
facet normal -0.092 0.996 0
 outer loop
  vertex 0.077 -2.499 0.5
  vertex 0.077 -2.499 5
  vertex 0.383 -2.47 0.5
 endloop
endfacet
facet normal -0.092 0.996 0
 outer loop
  vertex 0.383 -2.47 0.5
  vertex 0.077 -2.499 5
  vertex 0.383 -2.47 5
 endloop
endfacet
facet normal -0.214 0.977 0
 outer loop
  vertex 0.383 -2.47 0.5
  vertex 0.383 -2.47 5
  vertex 0.684 -2.405 0.5
 endloop
endfacet
facet normal -0.214 0.977 0
 outer loop
  vertex 0.684 -2.405 0.5
  vertex 0.383 -2.47 5
  vertex 0.684 -2.405 5
 endloop
endfacet
facet normal -0.332 0.943 0
 outer loop
  vertex 0.684 -2.405 0.5
  vertex 0.684 -2.405 5
  vertex 0.974 -2.302 0.5
 endloop
endfacet
facet normal -0.332 0.943 0
 outer loop
  vertex 0.974 -2.302 0.5
  vertex 0.684 -2.405 5
  vertex 0.974 -2.302 5
 endloop
endfacet
facet normal -0.446 0.895 0
 outer loop
  vertex 0.974 -2.302 0.5
  vertex 0.974 -2.302 5
  vertex 1.25 -2.165 0.5
 endloop
endfacet
facet normal -0.446 0.895 0
 outer loop
  vertex 1.25 -2.165 0.5
  vertex 0.974 -2.302 5
  vertex 1.25 -2.165 5
 endloop
endfacet
facet normal -0.552 0.834 0
 outer loop
  vertex 1.25 -2.165 0.5
  vertex 1.25 -2.165 5
  vertex 1.507 -1.995 0.5
 endloop
endfacet
facet normal -0.552 0.834 0
 outer loop
  vertex 1.507 -1.995 0.5
  vertex 1.25 -2.165 5
  vertex 1.507 -1.995 5
 endloop
endfacet
facet normal -0.651 0.759 0
 outer loop
  vertex 1.507 -1.995 0.5
  vertex 1.507 -1.995 5
  vertex 1.74 -1.795 0.5
 endloop
endfacet
facet normal -0.651 0.759 0
 outer loop
  vertex 1.74 -1.795 0.5
  vertex 1.507 -1.995 5
  vertex 1.74 -1.795 5
 endloop
endfacet
facet normal -0.739 0.674 0
 outer loop
  vertex 1.74 -1.795 0.5
  vertex 1.74 -1.795 5
  vertex 1.948 -1.567 0.5
 endloop
endfacet
facet normal -0.739 0.674 0
 outer loop
  vertex 1.948 -1.567 0.5
  vertex 1.74 -1.795 5
  vertex 1.948 -1.567 5
 endloop
endfacet
facet normal -0.816 0.578 0
 outer loop
  vertex 1.948 -1.567 0.5
  vertex 1.948 -1.567 5
  vertex 2.126 -1.316 0.5
 endloop
endfacet
facet normal -0.816 0.578 0
 outer loop
  vertex 2.126 -1.316 0.5
  vertex 1.948 -1.567 5
  vertex 2.126 -1.316 5
 endloop
endfacet
facet normal -0.881 0.473 0
 outer loop
  vertex 2.126 -1.316 0.5
  vertex 2.126 -1.316 5
  vertex 2.271 -1.045 0.5
 endloop
endfacet
facet normal -0.881 0.473 0
 outer loop
  vertex 2.271 -1.045 0.5
  vertex 2.126 -1.316 5
  vertex 2.271 -1.045 5
 endloop
endfacet
facet normal -0.932 0.361 0
 outer loop
  vertex 2.271 -1.045 0.5
  vertex 2.271 -1.045 5
  vertex 2.382 -0.758 0.5
 endloop
endfacet
facet normal -0.932 0.361 0
 outer loop
  vertex 2.382 -0.758 0.5
  vertex 2.271 -1.045 5
  vertex 2.382 -0.758 5
 endloop
endfacet
facet normal -0.97 0.244 0
 outer loop
  vertex 2.382 -0.758 0.5
  vertex 2.382 -0.758 5
  vertex 2.457 -0.459 0.5
 endloop
endfacet
facet normal -0.97 0.244 0
 outer loop
  vertex 2.457 -0.459 0.5
  vertex 2.382 -0.758 5
  vertex 2.457 -0.459 5
 endloop
endfacet
facet normal -0.992 0.123 0
 outer loop
  vertex 2.457 -0.459 0.5
  vertex 2.457 -0.459 5
  vertex 2.495 -0.154 0.5
 endloop
endfacet
facet normal -0.992 0.123 0
 outer loop
  vertex 2.495 -0.154 0.5
  vertex 2.457 -0.459 5
  vertex 2.495 -0.154 5
 endloop
endfacet
facet normal -0.866 0.027 -0.5
 outer loop
  vertex 2.783 -0.172 0
  vertex 2.495 -0.154 0.5
  vertex 2.789 0 0
 endloop
endfacet
facet normal -0.866 0.027 -0.5
 outer loop
  vertex 2.789 0 0
  vertex 2.495 -0.154 0.5
  vertex 2.5 0 0.5
 endloop
endfacet
facet normal -0.866 -0.027 -0.5
 outer loop
  vertex 2.789 0 0
  vertex 2.5 0 0.5
  vertex 2.783 0.172 0
 endloop
endfacet
facet normal -0.866 -0.027 -0.5
 outer loop
  vertex 2.783 0.172 0
  vertex 2.5 0 0.5
  vertex 2.495 0.154 0.5
 endloop
endfacet
facet normal -0.86 -0.106 -0.499
 outer loop
  vertex 2.783 0.172 0
  vertex 2.495 0.154 0.5
  vertex 2.741 0.512 0
 endloop
endfacet
facet normal -0.86 -0.106 -0.499
 outer loop
  vertex 2.741 0.512 0
  vertex 2.495 0.154 0.5
  vertex 2.457 0.459 0.5
 endloop
endfacet
facet normal -0.84 -0.211 -0.499
 outer loop
  vertex 2.741 0.512 0
  vertex 2.457 0.459 0.5
  vertex 2.657 0.845 0
 endloop
endfacet
facet normal -0.84 -0.211 -0.499
 outer loop
  vertex 2.657 0.845 0
  vertex 2.457 0.459 0.5
  vertex 2.382 0.758 0.5
 endloop
endfacet
facet normal -0.808 -0.313 -0.499
 outer loop
  vertex 2.657 0.845 0
  vertex 2.382 0.758 0.5
  vertex 2.533 1.166 0
 endloop
endfacet
facet normal -0.808 -0.313 -0.499
 outer loop
  vertex 2.533 1.166 0
  vertex 2.382 0.758 0.5
  vertex 2.271 1.045 0.5
 endloop
endfacet
facet normal -0.763 -0.41 -0.499
 outer loop
  vertex 2.533 1.166 0
  vertex 2.271 1.045 0.5
  vertex 2.371 1.468 0
 endloop
endfacet
facet normal -0.763 -0.41 -0.499
 outer loop
  vertex 2.371 1.468 0
  vertex 2.271 1.045 0.5
  vertex 2.126 1.316 0.5
 endloop
endfacet
facet normal -0.707 -0.501 -0.499
 outer loop
  vertex 2.371 1.468 0
  vertex 2.126 1.316 0.5
  vertex 2.173 1.748 0
 endloop
endfacet
facet normal -0.707 -0.501 -0.499
 outer loop
  vertex 2.173 1.748 0
  vertex 2.126 1.316 0.5
  vertex 1.948 1.567 0.5
 endloop
endfacet
facet normal -0.64 -0.584 -0.499
 outer loop
  vertex 2.173 1.748 0
  vertex 1.948 1.567 0.5
  vertex 1.941 2.002 0
 endloop
endfacet
facet normal -0.64 -0.584 -0.499
 outer loop
  vertex 1.941 2.002 0
  vertex 1.948 1.567 0.5
  vertex 1.74 1.795 0.5
 endloop
endfacet
facet normal -0.564 -0.658 -0.499
 outer loop
  vertex 1.941 2.002 0
  vertex 1.74 1.795 0.5
  vertex 1.681 2.225 0
 endloop
endfacet
facet normal -0.564 -0.658 -0.499
 outer loop
  vertex 1.681 2.225 0
  vertex 1.74 1.795 0.5
  vertex 1.507 1.995 0.5
 endloop
endfacet
facet normal -0.479 -0.722 -0.499
 outer loop
  vertex 1.681 2.225 0
  vertex 1.507 1.995 0.5
  vertex 1.394 2.415 0
 endloop
endfacet
facet normal -0.479 -0.722 -0.499
 outer loop
  vertex 1.394 2.415 0
  vertex 1.507 1.995 0.5
  vertex 1.25 2.165 0.5
 endloop
endfacet
facet normal -0.386 -0.776 -0.499
 outer loop
  vertex 1.394 2.415 0
  vertex 1.25 2.165 0.5
  vertex 1.087 2.568 0
 endloop
endfacet
facet normal -0.386 -0.776 -0.499
 outer loop
  vertex 1.087 2.568 0
  vertex 1.25 2.165 0.5
  vertex 0.974 2.302 0.5
 endloop
endfacet
facet normal -0.288 -0.817 -0.499
 outer loop
  vertex 1.087 2.568 0
  vertex 0.974 2.302 0.5
  vertex 0.763 2.682 0
 endloop
endfacet
facet normal -0.288 -0.817 -0.499
 outer loop
  vertex 0.763 2.682 0
  vertex 0.974 2.302 0.5
  vertex 0.684 2.405 0.5
 endloop
endfacet
facet normal -0.185 -0.846 -0.499
 outer loop
  vertex 0.763 2.682 0
  vertex 0.684 2.405 0.5
  vertex 0.428 2.756 0
 endloop
endfacet
facet normal -0.185 -0.846 -0.499
 outer loop
  vertex 0.428 2.756 0
  vertex 0.684 2.405 0.5
  vertex 0.383 2.47 0.5
 endloop
endfacet
facet normal -0.08 -0.863 -0.499
 outer loop
  vertex 0.428 2.756 0
  vertex 0.383 2.47 0.5
  vertex 0.086 2.787 0
 endloop
endfacet
facet normal -0.08 -0.863 -0.499
 outer loop
  vertex 0.086 2.787 0
  vertex 0.383 2.47 0.5
  vertex 0.077 2.499 0.5
 endloop
endfacet
facet normal 0.027 -0.866 -0.499
 outer loop
  vertex 0.086 2.787 0
  vertex 0.077 2.499 0.5
  vertex -0.257 2.777 0
 endloop
endfacet
facet normal 0.027 -0.866 -0.499
 outer loop
  vertex -0.257 2.777 0
  vertex 0.077 2.499 0.5
  vertex -0.231 2.489 0.5
 endloop
endfacet
facet normal 0.133 -0.856 -0.499
 outer loop
  vertex -0.257 2.777 0
  vertex -0.231 2.489 0.5
  vertex -0.597 2.724 0
 endloop
endfacet
facet normal 0.133 -0.856 -0.499
 outer loop
  vertex -0.597 2.724 0
  vertex -0.231 2.489 0.5
  vertex -0.535 2.442 0.5
 endloop
endfacet
facet normal 0.237 -0.833 -0.499
 outer loop
  vertex -0.597 2.724 0
  vertex -0.535 2.442 0.5
  vertex -0.927 2.63 0
 endloop
endfacet
facet normal 0.237 -0.833 -0.499
 outer loop
  vertex -0.927 2.63 0
  vertex -0.535 2.442 0.5
  vertex -0.831 2.358 0.5
 endloop
endfacet
facet normal 0.338 -0.798 -0.499
 outer loop
  vertex -0.927 2.63 0
  vertex -0.831 2.358 0.5
  vertex -1.243 2.496 0
 endloop
endfacet
facet normal 0.338 -0.798 -0.499
 outer loop
  vertex -1.243 2.496 0
  vertex -0.831 2.358 0.5
  vertex -1.114 2.238 0.5
 endloop
endfacet
facet normal 0.433 -0.75 -0.499
 outer loop
  vertex -1.243 2.496 0
  vertex -1.114 2.238 0.5
  vertex -1.54 2.325 0
 endloop
endfacet
facet normal 0.433 -0.75 -0.499
 outer loop
  vertex -1.54 2.325 0
  vertex -1.114 2.238 0.5
  vertex -1.381 2.084 0.5
 endloop
endfacet
facet normal 0.522 -0.691 -0.499
 outer loop
  vertex -1.54 2.325 0
  vertex -1.381 2.084 0.5
  vertex -1.814 2.118 0
 endloop
endfacet
facet normal 0.522 -0.691 -0.499
 outer loop
  vertex -1.814 2.118 0
  vertex -1.381 2.084 0.5
  vertex -1.627 1.899 0.5
 endloop
endfacet
facet normal 0.603 -0.622 -0.499
 outer loop
  vertex -1.814 2.118 0
  vertex -1.627 1.899 0.5
  vertex -2.061 1.879 0
 endloop
endfacet
facet normal 0.603 -0.622 -0.499
 outer loop
  vertex -2.061 1.879 0
  vertex -1.627 1.899 0.5
  vertex -1.848 1.684 0.5
 endloop
endfacet
facet normal 0.675 -0.543 -0.499
 outer loop
  vertex -2.061 1.879 0
  vertex -1.848 1.684 0.5
  vertex -2.276 1.611 0
 endloop
endfacet
facet normal 0.675 -0.543 -0.499
 outer loop
  vertex -2.276 1.611 0
  vertex -1.848 1.684 0.5
  vertex -2.04 1.444 0.5
 endloop
endfacet
facet normal 0.737 -0.456 -0.499
 outer loop
  vertex -2.276 1.611 0
  vertex -2.04 1.444 0.5
  vertex -2.457 1.319 0
 endloop
endfacet
facet normal 0.737 -0.456 -0.499
 outer loop
  vertex -2.457 1.319 0
  vertex -2.04 1.444 0.5
  vertex -2.203 1.183 0.5
 endloop
endfacet
facet normal 0.787 -0.362 -0.499
 outer loop
  vertex -2.457 1.319 0
  vertex -2.203 1.183 0.5
  vertex -2.6 1.007 0
 endloop
endfacet
facet normal 0.787 -0.362 -0.499
 outer loop
  vertex -2.6 1.007 0
  vertex -2.203 1.183 0.5
  vertex -2.331 0.903 0.5
 endloop
endfacet
facet normal 0.826 -0.263 -0.499
 outer loop
  vertex -2.6 1.007 0
  vertex -2.331 0.903 0.5
  vertex -2.704 0.68 0
 endloop
endfacet
facet normal 0.826 -0.263 -0.499
 outer loop
  vertex -2.704 0.68 0
  vertex -2.331 0.903 0.5
  vertex -2.424 0.61 0.5
 endloop
endfacet
facet normal 0.852 -0.159 -0.499
 outer loop
  vertex -2.704 0.68 0
  vertex -2.424 0.61 0.5
  vertex -2.768 0.343 0
 endloop
endfacet
facet normal 0.852 -0.159 -0.499
 outer loop
  vertex -2.768 0.343 0
  vertex -2.424 0.61 0.5
  vertex -2.481 0.307 0.5
 endloop
endfacet
facet normal 0.865 -0.053 -0.499
 outer loop
  vertex -2.768 0.343 0
  vertex -2.481 0.307 0.5
  vertex -2.789 0 0
 endloop
endfacet
facet normal 0.865 -0.053 -0.499
 outer loop
  vertex -2.789 0 0
  vertex -2.481 0.307 0.5
  vertex -2.5 0 0.5
 endloop
endfacet
facet normal 0.865 0.053 -0.499
 outer loop
  vertex -2.789 0 0
  vertex -2.5 0 0.5
  vertex -2.768 -0.343 0
 endloop
endfacet
facet normal 0.865 0.053 -0.499
 outer loop
  vertex -2.768 -0.343 0
  vertex -2.5 0 0.5
  vertex -2.481 -0.307 0.5
 endloop
endfacet
facet normal 0.852 0.159 -0.499
 outer loop
  vertex -2.768 -0.343 0
  vertex -2.481 -0.307 0.5
  vertex -2.704 -0.68 0
 endloop
endfacet
facet normal 0.852 0.159 -0.499
 outer loop
  vertex -2.704 -0.68 0
  vertex -2.481 -0.307 0.5
  vertex -2.424 -0.61 0.5
 endloop
endfacet
facet normal 0.826 0.263 -0.499
 outer loop
  vertex -2.704 -0.68 0
  vertex -2.424 -0.61 0.5
  vertex -2.6 -1.007 0
 endloop
endfacet
facet normal 0.826 0.263 -0.499
 outer loop
  vertex -2.6 -1.007 0
  vertex -2.424 -0.61 0.5
  vertex -2.331 -0.903 0.5
 endloop
endfacet
facet normal 0.787 0.362 -0.499
 outer loop
  vertex -2.6 -1.007 0
  vertex -2.331 -0.903 0.5
  vertex -2.457 -1.319 0
 endloop
endfacet
facet normal 0.787 0.362 -0.499
 outer loop
  vertex -2.457 -1.319 0
  vertex -2.331 -0.903 0.5
  vertex -2.203 -1.183 0.5
 endloop
endfacet
facet normal 0.737 0.456 -0.499
 outer loop
  vertex -2.457 -1.319 0
  vertex -2.203 -1.183 0.5
  vertex -2.276 -1.611 0
 endloop
endfacet
facet normal 0.737 0.456 -0.499
 outer loop
  vertex -2.276 -1.611 0
  vertex -2.203 -1.183 0.5
  vertex -2.04 -1.444 0.5
 endloop
endfacet
facet normal 0.675 0.543 -0.499
 outer loop
  vertex -2.276 -1.611 0
  vertex -2.04 -1.444 0.5
  vertex -2.061 -1.879 0
 endloop
endfacet
facet normal 0.675 0.543 -0.499
 outer loop
  vertex -2.061 -1.879 0
  vertex -2.04 -1.444 0.5
  vertex -1.848 -1.684 0.5
 endloop
endfacet
facet normal 0.603 0.622 -0.499
 outer loop
  vertex -2.061 -1.879 0
  vertex -1.848 -1.684 0.5
  vertex -1.814 -2.118 0
 endloop
endfacet
facet normal 0.603 0.622 -0.499
 outer loop
  vertex -1.814 -2.118 0
  vertex -1.848 -1.684 0.5
  vertex -1.627 -1.899 0.5
 endloop
endfacet
facet normal 0.522 0.691 -0.499
 outer loop
  vertex -1.814 -2.118 0
  vertex -1.627 -1.899 0.5
  vertex -1.54 -2.325 0
 endloop
endfacet
facet normal 0.522 0.691 -0.499
 outer loop
  vertex -1.54 -2.325 0
  vertex -1.627 -1.899 0.5
  vertex -1.381 -2.084 0.5
 endloop
endfacet
facet normal 0.433 0.75 -0.499
 outer loop
  vertex -1.54 -2.325 0
  vertex -1.381 -2.084 0.5
  vertex -1.243 -2.496 0
 endloop
endfacet
facet normal 0.433 0.75 -0.499
 outer loop
  vertex -1.243 -2.496 0
  vertex -1.381 -2.084 0.5
  vertex -1.114 -2.238 0.5
 endloop
endfacet
facet normal 0.338 0.798 -0.499
 outer loop
  vertex -1.243 -2.496 0
  vertex -1.114 -2.238 0.5
  vertex -0.927 -2.63 0
 endloop
endfacet
facet normal 0.338 0.798 -0.499
 outer loop
  vertex -0.927 -2.63 0
  vertex -1.114 -2.238 0.5
  vertex -0.831 -2.358 0.5
 endloop
endfacet
facet normal 0.237 0.833 -0.499
 outer loop
  vertex -0.927 -2.63 0
  vertex -0.831 -2.358 0.5
  vertex -0.597 -2.724 0
 endloop
endfacet
facet normal 0.237 0.833 -0.499
 outer loop
  vertex -0.597 -2.724 0
  vertex -0.831 -2.358 0.5
  vertex -0.535 -2.442 0.5
 endloop
endfacet
facet normal 0.133 0.856 -0.499
 outer loop
  vertex -0.597 -2.724 0
  vertex -0.535 -2.442 0.5
  vertex -0.257 -2.777 0
 endloop
endfacet
facet normal 0.133 0.856 -0.499
 outer loop
  vertex -0.257 -2.777 0
  vertex -0.535 -2.442 0.5
  vertex -0.231 -2.489 0.5
 endloop
endfacet
facet normal 0.027 0.866 -0.499
 outer loop
  vertex -0.257 -2.777 0
  vertex -0.231 -2.489 0.5
  vertex 0.086 -2.787 0
 endloop
endfacet
facet normal 0.027 0.866 -0.499
 outer loop
  vertex 0.086 -2.787 0
  vertex -0.231 -2.489 0.5
  vertex 0.077 -2.499 0.5
 endloop
endfacet
facet normal -0.08 0.863 -0.499
 outer loop
  vertex 0.086 -2.787 0
  vertex 0.077 -2.499 0.5
  vertex 0.428 -2.756 0
 endloop
endfacet
facet normal -0.08 0.863 -0.499
 outer loop
  vertex 0.428 -2.756 0
  vertex 0.077 -2.499 0.5
  vertex 0.383 -2.47 0.5
 endloop
endfacet
facet normal -0.185 0.846 -0.499
 outer loop
  vertex 0.428 -2.756 0
  vertex 0.383 -2.47 0.5
  vertex 0.763 -2.682 0
 endloop
endfacet
facet normal -0.185 0.846 -0.499
 outer loop
  vertex 0.763 -2.682 0
  vertex 0.383 -2.47 0.5
  vertex 0.684 -2.405 0.5
 endloop
endfacet
facet normal -0.288 0.817 -0.499
 outer loop
  vertex 0.763 -2.682 0
  vertex 0.684 -2.405 0.5
  vertex 1.087 -2.568 0
 endloop
endfacet
facet normal -0.288 0.817 -0.499
 outer loop
  vertex 1.087 -2.568 0
  vertex 0.684 -2.405 0.5
  vertex 0.974 -2.302 0.5
 endloop
endfacet
facet normal -0.386 0.776 -0.499
 outer loop
  vertex 1.087 -2.568 0
  vertex 0.974 -2.302 0.5
  vertex 1.394 -2.415 0
 endloop
endfacet
facet normal -0.386 0.776 -0.499
 outer loop
  vertex 1.394 -2.415 0
  vertex 0.974 -2.302 0.5
  vertex 1.25 -2.165 0.5
 endloop
endfacet
facet normal -0.479 0.722 -0.499
 outer loop
  vertex 1.394 -2.415 0
  vertex 1.25 -2.165 0.5
  vertex 1.681 -2.225 0
 endloop
endfacet
facet normal -0.479 0.722 -0.499
 outer loop
  vertex 1.681 -2.225 0
  vertex 1.25 -2.165 0.5
  vertex 1.507 -1.995 0.5
 endloop
endfacet
facet normal -0.564 0.658 -0.499
 outer loop
  vertex 1.681 -2.225 0
  vertex 1.507 -1.995 0.5
  vertex 1.941 -2.002 0
 endloop
endfacet
facet normal -0.564 0.658 -0.499
 outer loop
  vertex 1.941 -2.002 0
  vertex 1.507 -1.995 0.5
  vertex 1.74 -1.795 0.5
 endloop
endfacet
facet normal -0.64 0.584 -0.499
 outer loop
  vertex 1.941 -2.002 0
  vertex 1.74 -1.795 0.5
  vertex 2.173 -1.748 0
 endloop
endfacet
facet normal -0.64 0.584 -0.499
 outer loop
  vertex 2.173 -1.748 0
  vertex 1.74 -1.795 0.5
  vertex 1.948 -1.567 0.5
 endloop
endfacet
facet normal -0.707 0.501 -0.499
 outer loop
  vertex 2.173 -1.748 0
  vertex 1.948 -1.567 0.5
  vertex 2.371 -1.468 0
 endloop
endfacet
facet normal -0.707 0.501 -0.499
 outer loop
  vertex 2.371 -1.468 0
  vertex 1.948 -1.567 0.5
  vertex 2.126 -1.316 0.5
 endloop
endfacet
facet normal -0.763 0.41 -0.499
 outer loop
  vertex 2.371 -1.468 0
  vertex 2.126 -1.316 0.5
  vertex 2.533 -1.166 0
 endloop
endfacet
facet normal -0.763 0.41 -0.499
 outer loop
  vertex 2.533 -1.166 0
  vertex 2.126 -1.316 0.5
  vertex 2.271 -1.045 0.5
 endloop
endfacet
facet normal -0.808 0.313 -0.499
 outer loop
  vertex 2.533 -1.166 0
  vertex 2.271 -1.045 0.5
  vertex 2.657 -0.845 0
 endloop
endfacet
facet normal -0.808 0.313 -0.499
 outer loop
  vertex 2.657 -0.845 0
  vertex 2.271 -1.045 0.5
  vertex 2.382 -0.758 0.5
 endloop
endfacet
facet normal -0.84 0.211 -0.499
 outer loop
  vertex 2.657 -0.845 0
  vertex 2.382 -0.758 0.5
  vertex 2.741 -0.512 0
 endloop
endfacet
facet normal -0.84 0.211 -0.499
 outer loop
  vertex 2.741 -0.512 0
  vertex 2.382 -0.758 0.5
  vertex 2.457 -0.459 0.5
 endloop
endfacet
facet normal -0.86 0.106 -0.499
 outer loop
  vertex 2.741 -0.512 0
  vertex 2.457 -0.459 0.5
  vertex 2.783 -0.172 0
 endloop
endfacet
facet normal -0.86 0.106 -0.499
 outer loop
  vertex 2.783 -0.172 0
  vertex 2.457 -0.459 0.5
  vertex 2.495 -0.154 0.5
 endloop
endfacet
endsolid CADClick
